<svg width="48" height="49" viewBox="0 0 48 49" fill="none" xmlns="http://www.w3.org/2000/svg">
<rect x="0.5" y="1.38867" width="47" height="47" rx="11.5" fill="url(#paint0_linear_151_576)" fill-opacity="0.2"/>
<rect x="0.5" y="1.38867" width="47" height="47" rx="11.5" stroke="url(#paint1_linear_151_576)" style="mix-blend-mode:overlay"/>
<path d="M34.666 14.2222H13.3327C11.862 14.2222 10.666 15.4182 10.666 16.8888V32.8888C10.666 34.3595 11.862 35.5555 13.3327 35.5555H34.666C36.1367 35.5555 37.3327 34.3595 37.3327 32.8888V16.8888C37.3327 15.4182 36.1367 14.2222 34.666 14.2222ZM17.3327 30.2222C16.5967 30.2222 15.9993 29.6248 15.9993 28.8888C15.9993 28.1528 16.5967 27.5555 17.3327 27.5555C18.0687 27.5555 18.666 28.1528 18.666 28.8888C18.666 29.6248 18.0687 30.2222 17.3327 30.2222ZM17.3327 26.2222C16.5967 26.2222 15.9993 25.6248 15.9993 24.8888C15.9993 24.1528 16.5967 23.5555 17.3327 23.5555C18.0687 23.5555 18.666 24.1528 18.666 24.8888C18.666 25.6248 18.0687 26.2222 17.3327 26.2222ZM17.3327 22.2222C16.5967 22.2222 15.9993 21.6248 15.9993 20.8888C15.9993 20.1528 16.5967 19.5555 17.3327 19.5555C18.0687 19.5555 18.666 20.1528 18.666 20.8888C18.666 21.6248 18.0687 22.2222 17.3327 22.2222ZM30.666 30.2222H22.666C21.9287 30.2222 21.3327 29.6248 21.3327 28.8888C21.3327 28.1528 21.9287 27.5555 22.666 27.5555H30.666C31.4033 27.5555 31.9993 28.1528 31.9993 28.8888C31.9993 29.6248 31.4033 30.2222 30.666 30.2222ZM30.666 26.2222H22.666C21.9287 26.2222 21.3327 25.6248 21.3327 24.8888C21.3327 24.1528 21.9287 23.5555 22.666 23.5555H30.666C31.4033 23.5555 31.9993 24.1528 31.9993 24.8888C31.9993 25.6248 31.4033 26.2222 30.666 26.2222ZM30.666 22.2222H22.666C21.9287 22.2222 21.3327 21.6248 21.3327 20.8888C21.3327 20.1528 21.9287 19.5555 22.666 19.5555H30.666C31.4033 19.5555 31.9993 20.1528 31.9993 20.8888C31.9993 21.6248 31.4033 22.2222 30.666 22.2222Z" fill="url(#paint2_linear_151_576)"/>
<defs>
<linearGradient id="paint0_linear_151_576" x1="0.600073" y1="1.48984" x2="47.4001" y2="48.2898" gradientUnits="userSpaceOnUse">
<stop stop-color="#D7C8FF"/>
<stop offset="1" stop-color="#B3C7E6"/>
</linearGradient>
<linearGradient id="paint1_linear_151_576" x1="0.600073" y1="1.48984" x2="47.4001" y2="48.2898" gradientUnits="userSpaceOnUse">
<stop stop-color="#D7C8FF"/>
<stop offset="1" stop-color="#B3C7E6"/>
</linearGradient>
<linearGradient id="paint2_linear_151_576" x1="10.9994" y1="14.4894" x2="31.2921" y2="39.8552" gradientUnits="userSpaceOnUse">
<stop stop-color="#D7C8FF"/>
<stop offset="1" stop-color="#B3C7E6"/>
</linearGradient>
</defs>
</svg>
