<svg width="224" height="224" viewBox="0 0 224 224" fill="none" xmlns="http://www.w3.org/2000/svg">
<circle cx="112" cy="112" r="112" fill="white"/>
<path d="M65.0467 83.5937C65.4847 78.3803 69.3444 74.1487 74.4962 73.2377C84.3094 71.5024 100.519 69 112.395 69C124.263 69 140.457 71.4987 150.273 73.2338C155.435 74.1465 159.299 78.3934 159.728 83.6185C160.209 89.4807 160.728 97.365 160.749 104.302C160.772 111.677 160.24 120.404 159.739 126.935C159.303 132.613 154.849 137.104 149.188 137.732L135.184 139.286C127.261 140.165 120.08 144.354 115.414 150.817L112.395 155L109.336 150.778C104.67 144.338 97.5022 140.167 89.5978 139.29L75.5618 137.732C69.9013 137.104 65.4466 132.613 65.0111 126.935C64.5103 120.404 63.978 111.677 64.0007 104.302C64.0221 97.3552 64.5541 89.4584 65.0467 83.5937Z" fill="#EBECF0"/>
<path d="M82.5555 88.2026C82.5557 88.201 82.5544 88.2002 82.5559 88.2C82.6106 88.1905 101.094 85 112.495 85C123.894 85 142.426 88.1894 142.487 88.2C142.489 88.2003 142.488 88.2012 142.488 88.2029C143.494 98.9755 143.568 109.815 142.71 120.6L142.487 123.398C142.487 123.399 142.486 123.4 142.485 123.4H130.161C123.026 123.4 116.376 127.013 112.494 133C108.613 127.013 101.963 123.4 94.8283 123.4H82.5574C82.5562 123.4 82.5552 123.399 82.5551 123.398L82.1844 118.631C81.3964 108.497 81.5206 98.3137 82.5555 88.2026Z" fill="white"/>
</svg>
