<svg width="108" height="132" viewBox="0 0 108 132" fill="none" xmlns="http://www.w3.org/2000/svg">
<path d="M33.7874 80.8885L22.983 110.798C6.43791 103.189 -5.1192 82.4962 2.28627 61.1919C9.78715 39.6131 29.0396 35.0045 33.7874 34.3997C38.3348 33.8204 59.9751 31.1957 68.5883 45.0687C79.0994 61.9985 65.3383 91.8098 33.7874 80.8885Z" fill="#006E53"/>
<path d="M37.5209 88.1883L21.7873 132L53.2434 114.505C58.3158 114.505 74.3955 116.511 87.1062 105.856C101.514 93.7777 105.848 74.8674 98.7317 58.2583C91.7879 42.0514 76.7121 35.2689 66.3582 34.2107C70.2121 36.6259 81.9249 47.3614 76.8739 66.4466C76.8739 66.4466 75.4727 72.7328 70.09 79.0658C61.3114 89.3941 47.132 90.5421 37.5209 88.1883Z" fill="#006E53"/>
<path d="M98.414 11.9847C97.2158 10.1955 95.4184 1.24928 82.8369 0.0564524C72.8019 -0.894942 64.0388 10.2426 53.5964 28.6568H61.2303C77.9904 28.6568 87.9038 36.5365 90.0374 38.1319C90.0374 38.1319 90.6593 29.8692 92.4228 26.2987C95.5241 20.0198 103.007 19.1417 108 17.9489C99.6123 14.9668 99.6123 13.774 98.414 11.9847Z" fill="#006E53"/>
</svg>
