<svg width="79" height="58" viewBox="0 0 79 58" fill="none" xmlns="http://www.w3.org/2000/svg">
<rect width="68" height="48" transform="translate(6 5)" fill="white"/>
<path d="M22.1123 52.6862L17.9543 52.0936L17.9543 52.0936L22.1123 52.6862ZM26.3902 22.669L22.2323 22.0764L22.2323 22.0764L26.3902 22.669ZM37.5801 39.3714C35.2605 39.3714 33.3801 41.2518 33.3801 43.5714C33.3801 45.891 35.2605 47.7714 37.5801 47.7714L37.5801 39.3714ZM21.8294 52.7907L24.6019 49.6358L24.6018 49.6357L21.8294 52.7907ZM8.77235 35.7262L5.61733 32.9539L0.0726445 39.2639L3.22766 42.0363L8.77235 35.7262ZM73.9998 24.2855L69.7998 24.2856L73.9998 24.2855ZM26.2703 53.2787L30.5482 23.2616L22.2323 22.0764L17.9543 52.0936L26.2703 53.2787ZM46.7559 9.2L54.7141 9.2L54.7141 0.800001L46.7559 0.800001L46.7559 9.2ZM54.7141 39.3714L37.5801 39.3714L37.5801 47.7714L54.7141 47.7714L54.7141 39.3714ZM24.6018 49.6357L8.77235 35.7262L3.22766 42.0363L19.0571 55.9458L24.6018 49.6357ZM30.5482 23.2616C31.698 15.1938 38.6066 9.2 46.7559 9.2L46.7559 0.800001C34.4252 0.800002 23.972 9.86911 22.2323 22.0764L30.5482 23.2616ZM17.9543 52.0936C18.406 48.9238 22.1966 47.5221 24.6019 49.6358L19.057 55.9457C21.667 58.2392 25.7801 56.7183 26.2703 53.2787L17.9543 52.0936ZM69.7998 24.2856C69.7999 32.6172 63.0458 39.3714 54.7141 39.3714L54.7141 47.7714C67.685 47.7714 78.1999 37.2564 78.1998 24.2855L69.7998 24.2856ZM78.1998 24.2855C78.1997 11.3148 67.6848 0.8 54.7141 0.800001L54.7141 9.2C63.0457 9.2 69.7997 15.954 69.7998 24.2856L78.1998 24.2855Z" fill="#EBECF0"/>
<rect x="36.5647" y="22.51" width="6.0613" height="6.11844" rx="3.03065" fill="#EBECF0" stroke="#EBECF0" stroke-width="0.738703"/>
<rect x="46.7639" y="22.51" width="6.0613" height="6.11844" rx="3.03065" fill="#EBECF0" stroke="#EBECF0" stroke-width="0.738703"/>
<rect x="56.9651" y="22.51" width="6.0613" height="6.11844" rx="3.03065" fill="#EBECF0" stroke="#EBECF0" stroke-width="0.738703"/>
</svg>
