<!--
  PCLink Logo
  © 2025 Azhar Zouhir. All rights reserved.
  The PCLink logo is a trademark of Azhar Zouhir.
  Use, modification, or redistribution without explicit permission is prohibited.
  Website: https://bytedz.xyz
-->
<svg
   width="512"
   height="512"
   viewBox="0 0 512 512"
   version="1.1"
   id="svg50"
   xmlns="http://www.w3.org/2000/svg"
   xmlns:svg="http://www.w3.org/2000/svg"
   xmlns:rdf="http://www.w3.org/1999/02/22-rdf-syntax-ns#"
   xmlns:cc="http://creativecommons.org/ns#"
   xmlns:dc="http://purl.org/dc/elements/1.1/">
  <title id="title1">PCLink Logo</title>
  <g id="layer1" style="display:inline;fill:#c17d11">
    <rect
       style="display:inline;fill:#3c096c;fill-opacity:1;stroke-width:1.19797"
       id="rect378-9"
       width="520"
       height="520"
       x="-4"
       y="-4" />
  </g>
  <g
     id="layer2"
     style="display:inline"
     transform="translate(304.3027,-10.441391)">
    <g
       id="g4"
       transform="matrix(0.75871315,0,0,0.75871315,-11.654809,64.288807)"
       style="stroke-width:1.31802">
      <g
         style="fill:#e3e3e3;stroke-width:0.083291"
         id="g1"
         transform="matrix(0.39560609,0,0,0.39560609,-238.19362,456.33231)">
        <path
           d="M 80,-120 Q 63,-120 51.5,-131.5 40,-143 40,-160 40,-177 51.5,-188.5 63,-200 80,-200 h 800 q 17,0 28.5,11.5 11.5,11.5 11.5,28.5 0,17 -11.5,28.5 Q 897,-120 880,-120 Z m 80,-120 q -33,0 -56.5,-23.5 Q 80,-287 80,-320 v -440 q 0,-33 23.5,-56.5 Q 127,-840 160,-840 h 640 q 33,0 56.5,23.5 23.5,23.5 23.5,56.5 v 440 q 0,33 -23.5,56.5 Q 833,-240 800,-240 Z m 0,-80 H 800 V -760 H 160 Z m 0,0 v -440 z"
           id="path1"
           style="stroke-width:0.083291" />
      </g>
      <g
         style="fill:#e3e3e3;stroke-width:0.137932"
         id="g2"
         transform="matrix(-0.23888889,0,0,0.23888889,67.65985,357.10806)">
        <path
           d="m 590.69767,-136.74419 c -11.33333,0 -20.83333,-4 -28.5,-12 -7.66667,-8 -10.83333,-17.66667 -9.5,-29 10,-106 52.83333,-196.66667 128.5,-272 75.66667,-75.33333 166.83333,-117.33333 273.5,-126 10,-1.33333 18.5,2 25.5,10 7,8 10.5,17.66667 10.5,29 0,10.66667 -3.16667,20 -9.5,28 -6.33333,8 -14.83333,12.66667 -25.5,14 -85.33333,8.66667 -158.16667,42.83333 -218.5,102.5 -60.33333,59.66667 -95.16667,131.83333 -104.5,216.5 -1.33333,11.33333 -5.83333,20.66667 -13.5,28 -7.66667,7.33333 -17.16667,11 -28.5,11 z m 160,0 c -11.33333,0 -20.66667,-3.66667 -28,-11 -7.33333,-7.33333 -10.33333,-16.33333 -9,-27 8.66667,-62.66667 35.33333,-116.33333 80,-161 44.66667,-44.66667 98.33333,-71 161,-79 10,-1.33333 18.5,1.83333 25.5,9.5 7,7.66667 10.5,17.16667 10.5,28.5 0,10.66667 -2.83333,20.16667 -8.5,28.5 -5.66667,8.33333 -13.5,13.16667 -23.5,14.5 -42,7.33333 -78.16667,25.66667 -108.5,55 -30.33333,29.33333 -49.16667,65 -56.5,107 -2,10.66667 -7,19.16667 -15,25.5 -8,6.33333 -17.33333,9.5 -28,9.5 z m 240,-50 c 0,14 -4.83333,25.83333 -14.5,35.5 -9.66667,9.66667 -21.5,14.5 -35.5,14.5 -14,0 -25.83333,-4.83333 -35.5,-14.5 -9.66667,-9.66667 -14.5,-21.5 -14.5,-35.5 0,-14 4.83333,-25.83333 14.5,-35.5 9.66667,-9.66667 21.5,-14.5 35.5,-14.5 14,0 25.83333,4.83333 35.5,14.5 9.66667,9.66667 14.5,21.5 14.5,35.5 z"
           id="path1-8" />
      </g>
    </g>
  </g>
  <metadata
     id="metadata1">
    <rdf:RDF>
      <cc:Work
         rdf:about="">
        <dc:title>PCLink Logo</dc:title>
        <dc:creator>
          <cc:Agent>
            <dc:title>Azhar Zouhir</dc:title>
          </cc:Agent>
        </dc:creator>
        <dc:description>The PCLink logo is a trademark of Azhar Zouhir. Unauthorized use is prohibited.</dc:description>
        <dc:rights>
          <cc:Agent>
            <dc:title>https://bytedz.xyz/legal/?doc=terms</dc:title>
          </cc:Agent>
        </dc:rights>
      </cc:Work>
    </rdf:RDF>
  </metadata>
</svg>