<?xml version="1.0" encoding="UTF-8" standalone="no"?>
<svg
   width="512"
   height="512"
   viewBox="0 0 512 512"
   version="1.1"
   id="svg50"
   sodipodi:docname="pclink_tray.svg"
   inkscape:version="1.4 (86a8ad7, 2024-10-11)"
   inkscape:export-filename="pclink_dark.png"
   inkscape:export-xdpi="96"
   inkscape:export-ydpi="96"
   xml:space="preserve"
   xmlns:inkscape="http://www.inkscape.org/namespaces/inkscape"
   xmlns:sodipodi="http://sodipodi.sourceforge.net/DTD/sodipodi-0.dtd"
   xmlns="http://www.w3.org/2000/svg"
   xmlns:svg="http://www.w3.org/2000/svg"><style
     id="style2"><![CDATA[
#keylines circle, #keylines rect { 
   vector-effect: non-scaling-stroke;
   fill: none;
   stroke: #0000FF;
}
#mask path, #mask rect, #mask circle, #hatching path { 
   vector-effect: non-scaling-stroke;
   fill: none;
   stroke: #FF0000;
}
#keylines, #mask {
   opacity: 0.5;
}
]]></style><inkscape:_templateinfo><inkscape:_name>Android O icon template</inkscape:_name><inkscape:author>Venceslas DUET</inkscape:author><inkscape:_shortdesc>A collection of keylines and guides used to make adaptive icons for android O</inkscape:_shortdesc><inkscape:date>2021-02-14</inkscape:date><inkscape:_keywords>Android Icon Adaptive Keylines</inkscape:_keywords></inkscape:_templateinfo><defs
     id="defs10"><rect
       x="256"
       y="280"
       width="80"
       height="56"
       id="rect27603" /><rect
       x="264"
       y="280"
       width="72"
       height="88"
       id="rect19965" /><rect
       x="200"
       y="200"
       width="152"
       height="104"
       id="rect16601" /><rect
       x="160"
       y="200"
       width="208"
       height="112"
       id="rect5044" /><clipPath
       clipPathUnits="userSpaceOnUse"
       id="clipHatching"><rect
         width="8"
         height="8"
         x="0"
         y="0"
         id="rect4" /></clipPath><pattern
       patternUnits="userSpaceOnUse"
       width="8"
       height="8"
       id="hatching"><path
         d="M 1,-1 -1,1 M 9,7 7,9 M 9,-1 -1,9"
         clip-path="url(#clipHatching)"
         id="path7" /></pattern><style
       id="style1-9">.cls-1{fill:#ffffff;}.cls-2{fill:#ffc861;}.cls-3{fill:#2f4360;}.cls-4{fill:none;stroke:#2f4360;stroke-linecap:round;stroke-linejoin:round;stroke-width:5.96px;}</style></defs><sodipodi:namedview
     id="base"
     inkscape:current-layer="layer2"
     showgrid="false"
     units="px"
     showguides="false"
     inkscape:guide-bbox="true"
     inkscape:document-units="px"
     inkscape:cx="257"
     inkscape:cy="153.5"
     pagecolor="#505050"
     bordercolor="#eeeeee"
     borderopacity="1"
     inkscape:pageshadow="0"
     inkscape:pageopacity="0"
     inkscape:pagecheckerboard="0"
     inkscape:zoom="1"
     inkscape:window-width="2560"
     inkscape:window-height="1346"
     inkscape:window-x="-11"
     inkscape:window-y="-11"
     inkscape:window-maximized="1"
     inkscape:showpageshadow="0"
     inkscape:deskcolor="#505050"><inkscape:grid
       type="xygrid"
       empspacing="8"
       id="grid12"
       originx="0"
       originy="0"
       spacingy="1"
       spacingx="1"
       units="px"
       visible="false" /><sodipodi:guide
       position="256,200"
       orientation="0,1"
       inkscape:locked="false"
       id="guide16" /><sodipodi:guide
       position="256,312"
       orientation="0,1"
       inkscape:locked="false"
       id="guide18" /><sodipodi:guide
       position="256,256"
       orientation="1,0"
       inkscape:locked="false"
       id="guide20" /><sodipodi:guide
       position="200,256"
       orientation="1,0"
       inkscape:locked="false"
       id="guide22" /><sodipodi:guide
       position="312,256"
       orientation="1,0"
       inkscape:locked="false"
       id="guide24" /><sodipodi:guide
       position="256,256"
       orientation="1,1"
       inkscape:locked="false"
       id="guide26" /><sodipodi:guide
       position="256,256"
       orientation="1,-1"
       inkscape:locked="false"
       id="guide28" /></sodipodi:namedview><g
     inkscape:label="background"
     inkscape:groupmode="layer"
     id="layer1"
     style="display:inline;fill:#c17d11" /><g
     inkscape:label="Keylines"
     inkscape:groupmode="layer"
     id="keylines"
     sodipodi:insensitive="true"
     style="display:none"><circle
       cx="256"
       cy="256"
       r="80"
       id="circle32" /><circle
       cx="256"
       cy="256"
       r="176"
       id="circle34" /><rect
       width="256"
       height="352"
       x="128"
       y="80"
       ry="24"
       id="rect36" /><rect
       width="352"
       height="256"
       x="80"
       y="128"
       ry="24"
       id="rect38" /><rectn
       width="304"
       height="304"
       x="104"
       y="104"
       ry="24" /></g><g
     inkscape:label="Mask"
     inkscape:groupmode="layer"
     id="mask"
     sodipodi:insensitive="true"
     style="display:none"><path
       d="M 0,0 V 512 H 512 V 0 Z M 64,64 H 448 V 448 H 64 Z"
       style="fill:url(#hatching)"
       id="path41"
       sodipodi:insensitive="true" /><path
       d="m 256,512 c 112.1778,0 174.5778,0 215.2889,-40.7111 C 512,430.5778 512,368.1778 512,256 512,143.8222 512,81.4222 471.2889,40.7111 430.5778,0 368.1778,0 256,0 143.8222,0 81.4222,0 40.7111,40.7111 0,81.4222 0,143.8222 0,256 0,368.1778 0,430.5778 40.7111,471.2889 81.4222,512 143.8222,512 256,512 Z"
       id="path43"
       sodipodi:insensitive="true" /><circle
       cx="256"
       cy="256"
       r="256"
       id="circle45"
       sodipodi:insensitive="true" /><rect
       width="512"
       height="512"
       x="0"
       y="0"
       ry="128"
       id="rect47"
       style="display:inline"
       sodipodi:insensitive="true" /></g><g
     inkscape:groupmode="layer"
     id="layer2"
     inkscape:label="foreground"
     style="display:inline"
     transform="translate(304.3027,-10.441391)"><g
       id="g4"
       transform="matrix(1.389059,0,0,1.389059,18.792596,-103.66142)"
       style="stroke-width:0.719912;fill:#ffffff"><g
         style="fill:#ffffff;stroke-width:0.045494"
         id="g1"
         transform="matrix(0.39560609,0,0,0.39560609,-238.19362,456.33231)"><path
           d="M 80,-120 Q 63,-120 51.5,-131.5 40,-143 40,-160 40,-177 51.5,-188.5 63,-200 80,-200 h 800 q 17,0 28.5,11.5 11.5,11.5 11.5,28.5 0,17 -11.5,28.5 Q 897,-120 880,-120 Z m 80,-120 q -33,0 -56.5,-23.5 Q 80,-287 80,-320 v -440 q 0,-33 23.5,-56.5 Q 127,-840 160,-840 h 640 q 33,0 56.5,23.5 23.5,23.5 23.5,56.5 v 440 q 0,33 -23.5,56.5 Q 833,-240 800,-240 Z m 0,-80 H 800 V -760 H 160 Z m 0,0 v -440 z"
           id="path1"
           style="stroke-width:0.045494;fill:#ffffff" /></g><g
         style="fill:#ffffff;stroke-width:0.0753394"
         id="g2"
         transform="matrix(-0.23888889,0,0,0.23888889,67.65985,357.10806)"><path
           d="m 590.69767,-136.74419 c -11.33333,0 -20.83333,-4 -28.5,-12 -7.66667,-8 -10.83333,-17.66667 -9.5,-29 10,-106 52.83333,-196.66667 128.5,-272 75.66667,-75.33333 166.83333,-117.33333 273.5,-126 10,-1.33333 18.5,2 25.5,10 7,8 10.5,17.66667 10.5,29 0,10.66667 -3.16667,20 -9.5,28 -6.33333,8 -14.83333,12.66667 -25.5,14 -85.33333,8.66667 -158.16667,42.83333 -218.5,102.5 -60.33333,59.66667 -95.16667,131.83333 -104.5,216.5 -1.33333,11.33333 -5.83333,20.66667 -13.5,28 -7.66667,7.33333 -17.16667,11 -28.5,11 z m 160,0 c -11.33333,0 -20.66667,-3.66667 -28,-11 -7.33333,-7.33333 -10.33333,-16.33333 -9,-27 8.66667,-62.66667 35.33333,-116.33333 80,-161 44.66667,-44.66667 98.33333,-71 161,-79 10,-1.33333 18.5,1.83333 25.5,9.5 7,7.66667 10.5,17.16667 10.5,28.5 0,10.66667 -2.83333,20.16667 -8.5,28.5 -5.66667,8.33333 -13.5,13.16667 -23.5,14.5 -42,7.33333 -78.16667,25.66667 -108.5,55 -30.33333,29.33333 -49.16667,65 -56.5,107 -2,10.66667 -7,19.16667 -15,25.5 -8,6.33333 -17.33333,9.5 -28,9.5 z m 240,-50 c 0,14 -4.83333,25.83333 -14.5,35.5 -9.66667,9.66667 -21.5,14.5 -35.5,14.5 -14,0 -25.83333,-4.83333 -35.5,-14.5 -9.66667,-9.66667 -14.5,-21.5 -14.5,-35.5 0,-14 4.83333,-25.83333 14.5,-35.5 9.66667,-9.66667 21.5,-14.5 35.5,-14.5 14,0 25.83333,4.83333 35.5,14.5 9.66667,9.66667 14.5,21.5 14.5,35.5 z"
           id="path1-8"
           style="stroke-width:0.0753394;fill:#ffffff"
           sodipodi:nodetypes="sscscssscscsssscscssscscsssssssssss" /></g></g></g><style
     type="text/css"
     id="style1">
	.st0{fill:#000000;}
</style></svg>
