<?xml version="1.0" encoding="UTF-8"?>
<svg fill="#000000" width="800px" height="800px" version="1.1" viewBox="144 144 512 512" xmlns="http://www.w3.org/2000/svg">
 <g>
  <path d="m519.55 399.41v-45.164h-178.11v-71.832h178.11v-45.164l97.809 81.082z"/>
  <path d="m524.48 399.41v-39.605-5.6562c0-2.6562-2.2617-4.9219-4.9219-4.9219h-17.711-42.559-51.465-44.477-14.66c-2.2617 0-4.6758-0.19531-6.9375 0h-0.29688l4.9219 4.9219v-62.977-8.8555l-4.9219 4.9219h17.711 42.559 51.465 44.477c7.1836 0 14.414 0.29688 21.598 0h0.29688c2.6562 0 4.9219-2.2617 4.9219-4.9219v-39.41-5.6094c-2.8047 1.1797-5.6094 2.3125-8.4141 3.4922 11.02 9.1523 22.043 18.301 33.113 27.406 17.562 14.562 35.129 29.125 52.691 43.691 3.9844 3.3438 8.0195 6.6406 12.004 9.9883v-6.9375c-11.02 9.1523-22.043 18.301-33.113 27.406-17.562 14.562-35.129 29.125-52.691 43.691-3.9844 3.3438-8.0195 6.6406-12.004 9.9883-2.0664 1.6719-1.7695 5.2148 0 6.9375 2.0156 2.0156 4.9219 1.7227 6.9375 0 11.02-9.1523 22.043-18.301 33.113-27.406 17.562-14.562 35.129-29.125 52.691-43.691 3.9844-3.3438 8.0195-6.6406 12.004-9.9883 1.918-1.5742 1.918-5.3633 0-6.9375-11.02-9.1523-22.043-18.301-33.113-27.406-17.562-14.562-35.129-29.125-52.691-43.691-3.9844-3.3438-8.0195-6.6406-12.004-9.9883-3.1484-2.6094-8.4141-1.082-8.4141 3.4922v39.41 5.6094c1.625-1.625 3.2969-3.2969 4.9219-4.9219h-17.711-42.559-51.465-44.477c-7.1836 0-14.414-0.29688-21.598 0h-0.29688c-2.6562 0-4.9219 2.2617-4.9219 4.9219v62.977 8.8555c0 2.6562 2.2617 4.9219 4.9219 4.9219h17.711 42.559 51.465 44.477 14.66c2.2617 0 4.6758 0.19531 6.9375 0h0.29687c-1.625-1.625-3.2969-3.2969-4.9219-4.9219v39.605 5.6562c0.050781 6.2539 9.8906 6.3008 9.8906-0.046875z"/>
  <path d="m280.44 562.75v-45.168h178.11v-71.832h-178.11v-45.164l-97.809 81.082z"/>
  <path d="m285.36 562.75v-39.605-5.6562c-1.625 1.625-3.2969 3.2969-4.9219 4.9219h17.711 42.559 51.465 44.477c7.1836 0 14.414 0.29688 21.598 0h0.29688c2.6562 0 4.9219-2.2617 4.9219-4.9219v-62.977-8.8555c0-2.6562-2.2617-4.9219-4.9219-4.9219h-17.711-42.559-51.465-44.477-14.66c-2.2617 0-4.6758-0.19531-6.9375 0h-0.29688l4.9219 4.9219v-39.41-5.6094c0-4.5742-5.2656-6.1016-8.4141-3.4922-11.02 9.1523-22.043 18.301-33.113 27.406-17.562 14.562-35.129 29.125-52.691 43.691-3.9844 3.3438-8.0195 6.6406-12.004 9.9883-1.918 1.5742-1.918 5.3633 0 6.9375 11.02 9.1523 22.043 18.301 33.113 27.406 17.562 14.562 35.129 29.125 52.691 43.691 3.9844 3.3438 8.0195 6.6406 12.004 9.9883 2.0664 1.6719 4.9688 2.0156 6.9375 0 1.7227-1.7227 2.0664-5.2656 0-6.9375-11.02-9.1523-22.043-18.301-33.113-27.406-17.562-14.562-35.129-29.125-52.691-43.691-3.9844-3.3438-8.0195-6.6406-12.004-9.9883v6.9375c11.02-9.1523 22.043-18.301 33.113-27.406 17.562-14.562 35.129-29.125 52.691-43.691 3.9844-3.3438 8.0195-6.6406 12.004-9.9883-2.8047-1.1797-5.6094-2.3125-8.4141-3.4922v39.41 5.6094c0 2.6562 2.2617 4.9219 4.9219 4.9219h17.711 42.559 51.465 44.477 14.66c2.2617 0 4.6758 0.19531 6.9375 0h0.29688l-4.9219-4.9219v62.977 8.8555c1.625-1.625 3.2969-3.2969 4.9219-4.9219h-17.711-42.559-51.465-44.477c-7.1836 0-14.414-0.29688-21.598 0h-0.29688c-2.6562 0-4.9219 2.2617-4.9219 4.9219v39.605 5.6562c0.050782 6.3438 9.8906 6.3906 9.8906 0.046875z"/>
 </g>
</svg>