<?xml version="1.0" encoding="UTF-8" standalone="no"?>
<!DOCTYPE svg PUBLIC "-//W3C//DTD SVG 1.1//EN"
 "http://www.w3.org/Graphics/SVG/1.1/DTD/svg11.dtd">
<!-- Generated by graphviz version 14.0.4 (0)
 -->
<!-- Title: model Pages: 1 -->
<svg width="1301pt" height="566pt"
 viewBox="0.00 0.00 1301.00 566.00" xmlns="http://www.w3.org/2000/svg" xmlns:xlink="http://www.w3.org/1999/xlink">
<g id="graph0" class="graph" transform="scale(1 1) rotate(0) translate(4 562.14)">
<title>model</title>
<polygon fill="white" stroke="none" points="-4,4 -4,-562.14 1296.97,-562.14 1296.97,4 -4,4"/>
<text xml:space="preserve" text-anchor="middle" x="646.48" y="-7.2" font-family="Times,serif" font-size="14.00">Results for 1990</text>
<!-- E21 -->
<g id="node1" class="node">
<title>E21</title>
<polygon fill="powderblue" stroke="powderblue" points="392.51,-468.77 338.51,-468.77 338.51,-432.77 392.51,-432.77 392.51,-468.77"/>
<text xml:space="preserve" text-anchor="middle" x="365.51" y="-445.72" font-family="Times,serif" font-size="14.00">E21</text>
</g>
<!-- ELC -->
<g id="node24" class="node">
<title>ELC</title>
<g id="a_node24"><a xlink:href="#" xlink:title="ELC">
<ellipse fill="lightsteelblue" stroke="lightsteelblue" cx="994.97" cy="-300.77" rx="28.32" ry="28.32"/>
<text xml:space="preserve" text-anchor="middle" x="994.97" y="-295.72" font-family="Times,serif" font-size="14.00">ELC</text>
</a>
</g>
</g>
<!-- E21&#45;&gt;ELC -->
<g id="edge2" class="edge">
<title>E21&#45;&gt;ELC</title>
<path fill="none" stroke="powderblue" d="M392.96,-444.23C493.15,-420.36 839.32,-337.86 956.13,-310.03"/>
<polygon fill="powderblue" stroke="powderblue" points="965.83,-307.72 957.15,-314.41 962.15,-308.59 956.1,-310.03 956.1,-310.03 956.1,-310.03 962.15,-308.59 955.06,-305.66 965.83,-307.72"/>
</g>
<!-- IMPDSL1 -->
<g id="node2" class="node">
<title>IMPDSL1</title>
<g id="a_node2"><a xlink:href="#" xlink:title="IMPDSL1\nCapacity: 99999.00">
<polygon fill="powderblue" stroke="powderblue" points="122.5,-197.27 0,-197.27 0,-156.27 122.5,-156.27 122.5,-197.27"/>
<text xml:space="preserve" text-anchor="middle" x="61.25" y="-179.97" font-family="Times,serif" font-size="14.00">IMPDSL1</text>
<text xml:space="preserve" text-anchor="middle" x="61.25" y="-163.47" font-family="Times,serif" font-size="14.00">Capacity: 99999.00</text>
</a>
</g>
</g>
<!-- DSL -->
<g id="node23" class="node">
<title>DSL</title>
<g id="a_node23"><a xlink:href="#" xlink:title="DSL">
<ellipse fill="lightsteelblue" stroke="lightsteelblue" cx="573.08" cy="-169.77" rx="28.32" ry="28.32"/>
<text xml:space="preserve" text-anchor="middle" x="573.08" y="-164.72" font-family="Times,serif" font-size="14.00">DSL</text>
</a>
</g>
</g>
<!-- IMPDSL1&#45;&gt;DSL -->
<g id="edge26" class="edge">
<title>IMPDSL1&#45;&gt;DSL</title>
<path fill="none" stroke="forestgreen" d="M122.74,-174.7C184,-172.64 269.01,-169.77 269.01,-169.77 269.01,-169.77 450.86,-169.77 533.3,-169.77"/>
<polygon fill="forestgreen" stroke="forestgreen" points="543.25,-169.77 533.25,-174.27 539.47,-169.77 533.25,-169.77 533.25,-169.77 533.25,-169.77 539.47,-169.77 533.25,-165.27 543.25,-169.77"/>
<text xml:space="preserve" text-anchor="middle" x="284.38" y="-172.97" font-family="Times,serif" font-size="14.00">38.60</text>
</g>
<!-- co2 -->
<g id="node31" class="node">
<title>co2</title>
<ellipse fill="lightsteelblue" stroke="lightsteelblue" cx="220.13" cy="-221.77" rx="24.23" ry="24.23"/>
<text xml:space="preserve" text-anchor="middle" x="220.13" y="-216.72" font-family="Times,serif" font-size="14.00">co2</text>
</g>
<!-- IMPDSL1&#45;&gt;co2 -->
<g id="edge27" class="edge">
<title>IMPDSL1&#45;&gt;co2</title>
<path fill="none" stroke="forestgreen" d="M122.9,-194.17C144.32,-200.32 167.61,-207 185.91,-212.25"/>
<polygon fill="forestgreen" stroke="forestgreen" points="195.43,-214.98 184.58,-216.54 191.8,-213.93 185.82,-212.22 185.82,-212.22 185.82,-212.22 191.8,-213.93 187.06,-207.89 195.43,-214.98"/>
<text xml:space="preserve" text-anchor="middle" x="155.88" y="-210.42" font-family="Times,serif" font-size="14.00">2.89</text>
</g>
<!-- IMPFEQ -->
<g id="node3" class="node">
<title>IMPFEQ</title>
<polygon fill="powderblue" stroke="powderblue" points="94.38,-468.77 28.12,-468.77 28.12,-432.77 94.38,-432.77 94.38,-468.77"/>
<text xml:space="preserve" text-anchor="middle" x="61.25" y="-445.72" font-family="Times,serif" font-size="14.00">IMPFEQ</text>
</g>
<!-- FEQ -->
<g id="node11" class="node">
<title>FEQ</title>
<ellipse fill="lightsteelblue" stroke="powderblue" cx="220.13" cy="-450.77" rx="28.32" ry="28.32"/>
<text xml:space="preserve" text-anchor="middle" x="220.13" y="-445.72" font-family="Times,serif" font-size="14.00" fill="chocolate">FEQ</text>
</g>
<!-- IMPFEQ&#45;&gt;FEQ -->
<g id="edge7" class="edge">
<title>IMPFEQ&#45;&gt;FEQ</title>
<path fill="none" stroke="powderblue" d="M94.76,-450.77C119.62,-450.77 153.98,-450.77 180.29,-450.77"/>
<polygon fill="powderblue" stroke="powderblue" points="190.17,-450.77 180.17,-455.27 186.38,-450.77 180.17,-450.77 180.17,-450.77 180.17,-450.77 186.38,-450.77 180.17,-446.27 190.17,-450.77"/>
</g>
<!-- IMPGSL1 -->
<g id="node4" class="node">
<title>IMPGSL1</title>
<g id="a_node4"><a xlink:href="#" xlink:title="IMPGSL1\nCapacity: 99999.00">
<polygon fill="powderblue" stroke="powderblue" points="122.5,-137.27 0,-137.27 0,-96.27 122.5,-96.27 122.5,-137.27"/>
<text xml:space="preserve" text-anchor="middle" x="61.25" y="-119.97" font-family="Times,serif" font-size="14.00">IMPGSL1</text>
<text xml:space="preserve" text-anchor="middle" x="61.25" y="-103.47" font-family="Times,serif" font-size="14.00">Capacity: 99999.00</text>
</a>
</g>
</g>
<!-- GSL -->
<g id="node25" class="node">
<title>GSL</title>
<g id="a_node25"><a xlink:href="#" xlink:title="GSL">
<ellipse fill="lightsteelblue" stroke="lightsteelblue" cx="573.08" cy="-59.77" rx="28.32" ry="28.32"/>
<text xml:space="preserve" text-anchor="middle" x="573.08" y="-54.72" font-family="Times,serif" font-size="14.00">GSL</text>
</a>
</g>
</g>
<!-- IMPGSL1&#45;&gt;GSL -->
<g id="edge28" class="edge">
<title>IMPGSL1&#45;&gt;GSL</title>
<path fill="none" stroke="forestgreen" d="M122.74,-113.22C184,-109.68 269.01,-104.77 269.01,-104.77 269.01,-104.77 451.67,-77.74 533.85,-65.58"/>
<polygon fill="forestgreen" stroke="forestgreen" points="543.54,-64.14 534.31,-70.06 539.8,-64.7 533.65,-65.61 533.65,-65.61 533.65,-65.61 539.8,-64.7 532.99,-61.16 543.54,-64.14"/>
<text xml:space="preserve" text-anchor="middle" x="284.38" y="-107.97" font-family="Times,serif" font-size="14.00">19.91</text>
</g>
<!-- IMPGSL1&#45;&gt;co2 -->
<g id="edge29" class="edge">
<title>IMPGSL1&#45;&gt;co2</title>
<path fill="none" stroke="forestgreen" d="M93.62,-137.77C121.93,-156.72 163.24,-184.36 190.63,-202.7"/>
<polygon fill="forestgreen" stroke="forestgreen" points="198.68,-208.09 187.87,-206.26 195.54,-205.98 190.37,-202.52 190.37,-202.52 190.37,-202.52 195.54,-205.98 192.87,-198.78 198.68,-208.09"/>
<text xml:space="preserve" text-anchor="middle" x="155.88" y="-181.47" font-family="Times,serif" font-size="14.00">1.49</text>
</g>
<!-- IMPHCO1 -->
<g id="node5" class="node">
<title>IMPHCO1</title>
<g id="a_node5"><a xlink:href="#" xlink:title="IMPHCO1\nCapacity: 99999.00">
<polygon fill="powderblue" stroke="powderblue" points="122.5,-292.27 0,-292.27 0,-251.27 122.5,-251.27 122.5,-292.27"/>
<text xml:space="preserve" text-anchor="middle" x="61.25" y="-274.97" font-family="Times,serif" font-size="14.00">IMPHCO1</text>
<text xml:space="preserve" text-anchor="middle" x="61.25" y="-258.47" font-family="Times,serif" font-size="14.00">Capacity: 99999.00</text>
</a>
</g>
</g>
<!-- HCO -->
<g id="node26" class="node">
<title>HCO</title>
<g id="a_node26"><a xlink:href="#" xlink:title="HCO">
<ellipse fill="lightsteelblue" stroke="lightsteelblue" cx="220.13" cy="-294.77" rx="30.37" ry="30.37"/>
<text xml:space="preserve" text-anchor="middle" x="220.13" y="-289.72" font-family="Times,serif" font-size="14.00">HCO</text>
</a>
</g>
</g>
<!-- IMPHCO1&#45;&gt;HCO -->
<g id="edge30" class="edge">
<title>IMPHCO1&#45;&gt;HCO</title>
<path fill="none" stroke="forestgreen" d="M122.9,-280.67C141.72,-283.42 161.97,-286.39 179.02,-288.89"/>
<polygon fill="forestgreen" stroke="forestgreen" points="188.51,-290.28 177.97,-293.29 184.77,-289.74 178.62,-288.83 178.62,-288.83 178.62,-288.83 184.77,-289.74 179.27,-284.38 188.51,-290.28"/>
<text xml:space="preserve" text-anchor="middle" x="155.88" y="-290.53" font-family="Times,serif" font-size="14.00">14.70</text>
</g>
<!-- IMPHCO1&#45;&gt;co2 -->
<g id="edge31" class="edge">
<title>IMPHCO1&#45;&gt;co2</title>
<path fill="none" stroke="forestgreen" d="M122.9,-252.44C144.43,-245.58 167.83,-238.12 186.17,-232.28"/>
<polygon fill="forestgreen" stroke="forestgreen" points="195.44,-229.32 187.28,-236.65 191.84,-230.47 185.91,-232.36 185.91,-232.36 185.91,-232.36 191.84,-230.47 184.55,-228.07 195.44,-229.32"/>
<text xml:space="preserve" text-anchor="middle" x="155.88" y="-249.97" font-family="Times,serif" font-size="14.00">1.31</text>
</g>
<!-- IMPHYD -->
<g id="node6" class="node">
<title>IMPHYD</title>
<g id="a_node6"><a xlink:href="#" xlink:title="IMPHYD\nCapacity: 99999.00">
<polygon fill="powderblue" stroke="powderblue" points="122.5,-394.27 0,-394.27 0,-353.27 122.5,-353.27 122.5,-394.27"/>
<text xml:space="preserve" text-anchor="middle" x="61.25" y="-376.97" font-family="Times,serif" font-size="14.00">IMPHYD</text>
<text xml:space="preserve" text-anchor="middle" x="61.25" y="-360.47" font-family="Times,serif" font-size="14.00">Capacity: 99999.00</text>
</a>
</g>
</g>
<!-- HYD -->
<g id="node27" class="node">
<title>HYD</title>
<g id="a_node27"><a xlink:href="#" xlink:title="HYD">
<ellipse fill="lightsteelblue" stroke="lightsteelblue" cx="220.13" cy="-373.77" rx="30.88" ry="30.88"/>
<text xml:space="preserve" text-anchor="middle" x="220.13" y="-368.72" font-family="Times,serif" font-size="14.00">HYD</text>
</a>
</g>
</g>
<!-- IMPHYD&#45;&gt;HYD -->
<g id="edge32" class="edge">
<title>IMPHYD&#45;&gt;HYD</title>
<path fill="none" stroke="forestgreen" d="M122.9,-373.77C141.26,-373.77 160.98,-373.77 177.77,-373.77"/>
<polygon fill="forestgreen" stroke="forestgreen" points="187.65,-373.77 177.65,-378.27 183.87,-373.77 177.65,-373.77 177.65,-373.77 177.65,-373.77 183.87,-373.77 177.65,-369.27 187.65,-373.77"/>
<text xml:space="preserve" text-anchor="middle" x="155.88" y="-376.97" font-family="Times,serif" font-size="14.00">3.52</text>
</g>
<!-- IMPOIL1 -->
<g id="node7" class="node">
<title>IMPOIL1</title>
<polygon fill="powderblue" stroke="powderblue" points="96.25,-68.77 26.25,-68.77 26.25,-32.77 96.25,-32.77 96.25,-68.77"/>
<text xml:space="preserve" text-anchor="middle" x="61.25" y="-45.72" font-family="Times,serif" font-size="14.00">IMPOIL1</text>
</g>
<!-- OIL -->
<g id="node12" class="node">
<title>OIL</title>
<ellipse fill="lightsteelblue" stroke="powderblue" cx="220.13" cy="-50.77" rx="26.27" ry="26.27"/>
<text xml:space="preserve" text-anchor="middle" x="220.13" y="-45.72" font-family="Times,serif" font-size="14.00" fill="chocolate">OIL</text>
</g>
<!-- IMPOIL1&#45;&gt;OIL -->
<g id="edge8" class="edge">
<title>IMPOIL1&#45;&gt;OIL</title>
<path fill="none" stroke="powderblue" d="M96.68,-50.77C122.13,-50.77 156.73,-50.77 182.66,-50.77"/>
<polygon fill="powderblue" stroke="powderblue" points="192.33,-50.77 182.33,-55.27 188.54,-50.77 182.33,-50.77 182.33,-50.77 182.33,-50.77 188.54,-50.77 182.33,-46.27 192.33,-50.77"/>
</g>
<!-- IMPURN1 -->
<g id="node8" class="node">
<title>IMPURN1</title>
<polygon fill="powderblue" stroke="powderblue" points="99.25,-545.77 23.25,-545.77 23.25,-509.77 99.25,-509.77 99.25,-545.77"/>
<text xml:space="preserve" text-anchor="middle" x="61.25" y="-522.72" font-family="Times,serif" font-size="14.00">IMPURN1</text>
</g>
<!-- URN -->
<g id="node13" class="node">
<title>URN</title>
<ellipse fill="lightsteelblue" stroke="powderblue" cx="220.13" cy="-527.77" rx="30.37" ry="30.37"/>
<text xml:space="preserve" text-anchor="middle" x="220.13" y="-522.72" font-family="Times,serif" font-size="14.00" fill="chocolate">URN</text>
</g>
<!-- IMPURN1&#45;&gt;URN -->
<g id="edge9" class="edge">
<title>IMPURN1&#45;&gt;URN</title>
<path fill="none" stroke="powderblue" d="M99.43,-527.77C123.13,-527.77 153.86,-527.77 178.24,-527.77"/>
<polygon fill="powderblue" stroke="powderblue" points="188.08,-527.77 178.08,-532.27 184.3,-527.77 178.08,-527.77 178.08,-527.77 178.08,-527.77 184.3,-527.77 178.08,-523.27 188.08,-527.77"/>
</g>
<!-- RHE -->
<g id="node9" class="node">
<title>RHE</title>
<polygon fill="powderblue" stroke="powderblue" points="1164.79,-350.77 1110.79,-350.77 1110.79,-314.77 1164.79,-314.77 1164.79,-350.77"/>
<text xml:space="preserve" text-anchor="middle" x="1137.79" y="-327.72" font-family="Times,serif" font-size="14.00">RHE</text>
</g>
<!-- RH -->
<g id="node28" class="node">
<title>RH</title>
<g id="a_node28"><a xlink:href="#" xlink:title="RH">
<ellipse fill="lightsteelblue" stroke="lightsteelblue" cx="1269.25" cy="-261.77" rx="23.71" ry="23.71"/>
<text xml:space="preserve" text-anchor="middle" x="1269.25" y="-256.72" font-family="Times,serif" font-size="14.00">RH</text>
</a>
</g>
</g>
<!-- RHE&#45;&gt;RH -->
<g id="edge11" class="edge">
<title>RHE&#45;&gt;RH</title>
<path fill="none" stroke="powderblue" d="M1164.99,-318.4C1186.26,-306.74 1216.26,-290.29 1238.45,-278.12"/>
<polygon fill="powderblue" stroke="powderblue" points="1246.96,-273.45 1240.36,-282.2 1243.65,-275.27 1238.2,-278.26 1238.2,-278.26 1238.2,-278.26 1243.65,-275.27 1236.03,-274.31 1246.96,-273.45"/>
</g>
<!-- TXE -->
<g id="node10" class="node">
<title>TXE</title>
<polygon fill="powderblue" stroke="powderblue" points="1164.79,-236.77 1110.79,-236.77 1110.79,-200.77 1164.79,-200.77 1164.79,-236.77"/>
<text xml:space="preserve" text-anchor="middle" x="1137.79" y="-213.72" font-family="Times,serif" font-size="14.00">TXE</text>
</g>
<!-- TX -->
<g id="node30" class="node">
<title>TX</title>
<g id="a_node30"><a xlink:href="#" xlink:title="TX">
<ellipse fill="lightsteelblue" stroke="lightsteelblue" cx="1269.25" cy="-132.77" rx="23.2" ry="23.2"/>
<text xml:space="preserve" text-anchor="middle" x="1269.25" y="-127.72" font-family="Times,serif" font-size="14.00">TX</text>
</a>
</g>
</g>
<!-- TXE&#45;&gt;TX -->
<g id="edge14" class="edge">
<title>TXE&#45;&gt;TX</title>
<path fill="none" stroke="powderblue" d="M1164.99,-201.37C1186.74,-186.92 1217.62,-166.4 1239.94,-151.58"/>
<polygon fill="powderblue" stroke="powderblue" points="1248.22,-146.08 1242.38,-155.36 1245.07,-148.17 1239.89,-151.61 1239.89,-151.61 1239.89,-151.61 1245.07,-148.17 1237.4,-147.87 1248.22,-146.08"/>
</g>
<!-- FEQ&#45;&gt;E21 -->
<g id="edge6" class="edge">
<title>FEQ&#45;&gt;E21</title>
<path fill="none" stroke="powderblue" d="M248.77,-450.77C271.11,-450.77 302.77,-450.77 327.33,-450.77"/>
<polygon fill="powderblue" stroke="powderblue" points="337.18,-450.77 327.18,-455.27 333.4,-450.77 327.18,-450.77 327.18,-450.77 327.18,-450.77 333.4,-450.77 327.18,-446.27 337.18,-450.77"/>
</g>
<!-- SRE -->
<g id="node20" class="node">
<title>SRE</title>
<g id="a_node20"><a xlink:href="#" xlink:title="SRE\nCapacity: 0.10">
<polygon fill="darkseagreen" stroke="darkseagreen" points="413.26,-75.27 317.76,-75.27 317.76,-34.27 413.26,-34.27 413.26,-75.27"/>
<text xml:space="preserve" text-anchor="middle" x="365.51" y="-57.97" font-family="Times,serif" font-size="14.00">SRE</text>
<text xml:space="preserve" text-anchor="middle" x="365.51" y="-41.47" font-family="Times,serif" font-size="14.00">Capacity: 0.10</text>
</a>
</g>
</g>
<!-- OIL&#45;&gt;SRE -->
<g id="edge10" class="edge">
<title>OIL&#45;&gt;SRE</title>
<path fill="none" stroke="powderblue" d="M246.76,-51.49C263.35,-51.95 285.65,-52.57 306.38,-53.15"/>
<polygon fill="powderblue" stroke="powderblue" points="316.15,-53.42 306.02,-57.64 312.37,-53.32 306.15,-53.14 306.15,-53.14 306.15,-53.14 312.37,-53.32 306.27,-48.65 316.15,-53.42"/>
</g>
<!-- URN&#45;&gt;E21 -->
<g id="edge15" class="edge">
<title>URN&#45;&gt;E21</title>
<path fill="none" stroke="powderblue" d="M247.43,-513.65C270.27,-501.38 303.55,-483.51 328.79,-469.95"/>
<polygon fill="powderblue" stroke="powderblue" points="337.3,-465.38 330.62,-474.08 333.97,-467.17 328.49,-470.11 328.49,-470.11 328.49,-470.11 333.97,-467.17 326.36,-466.15 337.3,-465.38"/>
</g>
<!-- E01 -->
<g id="node14" class="node">
<title>E01</title>
<g id="a_node14"><a xlink:href="#" xlink:title="E01\nCapacity: 0.50">
<polygon fill="darkseagreen" stroke="darkseagreen" points="526.76,-319.27 431.26,-319.27 431.26,-278.27 526.76,-278.27 526.76,-319.27"/>
<text xml:space="preserve" text-anchor="middle" x="479.01" y="-301.97" font-family="Times,serif" font-size="14.00">E01</text>
<text xml:space="preserve" text-anchor="middle" x="479.01" y="-285.47" font-family="Times,serif" font-size="14.00">Capacity: 0.50</text>
</a>
</g>
</g>
<!-- E01&#45;&gt;ELC -->
<g id="edge23" class="edge">
<title>E01&#45;&gt;ELC</title>
<path fill="none" stroke="forestgreen" d="M527.14,-299.05C579.29,-299.34 655.15,-299.77 655.15,-299.77 655.15,-299.77 865.52,-300.39 955.22,-300.66"/>
<polygon fill="forestgreen" stroke="forestgreen" points="965.07,-300.68 955.06,-305.16 961.29,-300.67 955.07,-300.66 955.07,-300.66 955.07,-300.66 961.29,-300.67 955.08,-296.16 965.07,-300.68"/>
<text xml:space="preserve" text-anchor="middle" x="667.15" y="-302.97" font-family="Times,serif" font-size="14.00">4.70</text>
</g>
<!-- E31 -->
<g id="node15" class="node">
<title>E31</title>
<g id="a_node15"><a xlink:href="#" xlink:title="E31\nCapacity: 0.13">
<polygon fill="darkseagreen" stroke="darkseagreen" points="714.9,-380.27 619.4,-380.27 619.4,-339.27 714.9,-339.27 714.9,-380.27"/>
<text xml:space="preserve" text-anchor="middle" x="667.15" y="-362.97" font-family="Times,serif" font-size="14.00">E31</text>
<text xml:space="preserve" text-anchor="middle" x="667.15" y="-346.47" font-family="Times,serif" font-size="14.00">Capacity: 0.13</text>
</a>
</g>
</g>
<!-- E31&#45;&gt;ELC -->
<g id="edge24" class="edge">
<title>E31&#45;&gt;ELC</title>
<path fill="none" stroke="forestgreen" d="M715.22,-357.88C741.46,-356.84 768.65,-355.77 768.65,-355.77 768.65,-355.77 892.09,-325.77 956.64,-310.09"/>
<polygon fill="forestgreen" stroke="forestgreen" points="966.03,-307.8 957.38,-314.54 962.36,-308.7 956.32,-310.17 956.32,-310.17 956.32,-310.17 962.36,-308.7 955.25,-305.79 966.03,-307.8"/>
<text xml:space="preserve" text-anchor="middle" x="780.65" y="-358.97" font-family="Times,serif" font-size="14.00">1.13</text>
</g>
<!-- E51 -->
<g id="node16" class="node">
<title>E51</title>
<g id="a_node16"><a xlink:href="#" xlink:title="E51\nCapacity: 0.50">
<polygon fill="darkseagreen" stroke="darkseagreen" points="1185.54,-296.27 1090.04,-296.27 1090.04,-255.27 1185.54,-255.27 1185.54,-296.27"/>
<text xml:space="preserve" text-anchor="middle" x="1137.79" y="-278.97" font-family="Times,serif" font-size="14.00">E51</text>
<text xml:space="preserve" text-anchor="middle" x="1137.79" y="-262.47" font-family="Times,serif" font-size="14.00">Capacity: 0.50</text>
</a>
</g>
</g>
<!-- E51&#45;&gt;ELC -->
<g id="edge25" class="edge">
<title>E51&#45;&gt;ELC</title>
<path fill="none" stroke="forestgreen" d="M1089.75,-284.12C1071.58,-287.35 1051.08,-290.99 1033.88,-294.04"/>
<polygon fill="forestgreen" stroke="forestgreen" points="1024.32,-295.74 1033.38,-289.56 1028.04,-295.08 1034.17,-293.99 1034.17,-293.99 1034.17,-293.99 1028.04,-295.08 1034.95,-298.42 1024.32,-295.74"/>
<text xml:space="preserve" text-anchor="middle" x="1056.66" y="-295.89" font-family="Times,serif" font-size="14.00">0.59</text>
</g>
<!-- E70 -->
<g id="node17" class="node">
<title>E70</title>
<g id="a_node17"><a xlink:href="#" xlink:title="E70\nCapacity: 0.30">
<polygon fill="darkseagreen" stroke="darkseagreen" points="828.4,-256.27 732.9,-256.27 732.9,-215.27 828.4,-215.27 828.4,-256.27"/>
<text xml:space="preserve" text-anchor="middle" x="780.65" y="-238.97" font-family="Times,serif" font-size="14.00">E70</text>
<text xml:space="preserve" text-anchor="middle" x="780.65" y="-222.47" font-family="Times,serif" font-size="14.00">Capacity: 0.30</text>
</a>
</g>
</g>
<!-- E70&#45;&gt;ELC -->
<g id="edge3" class="edge">
<title>E70&#45;&gt;ELC</title>
<path fill="none" stroke="powderblue" d="M828.77,-250.2C867.41,-262.03 921.35,-278.54 956.94,-289.44"/>
<polygon fill="powderblue" stroke="powderblue" points="966.2,-292.27 955.32,-293.65 962.58,-291.16 956.64,-289.34 956.64,-289.34 956.64,-289.34 962.58,-291.16 957.95,-285.04 966.2,-292.27"/>
</g>
<!-- RHO -->
<g id="node18" class="node">
<title>RHO</title>
<g id="a_node18"><a xlink:href="#" xlink:title="RHO\nCapacity: 41.33">
<polygon fill="darkseagreen" stroke="darkseagreen" points="948.65,-193.27 846.4,-193.27 846.4,-152.27 948.65,-152.27 948.65,-193.27"/>
<text xml:space="preserve" text-anchor="middle" x="897.52" y="-175.97" font-family="Times,serif" font-size="14.00">RHO</text>
<text xml:space="preserve" text-anchor="middle" x="897.52" y="-159.47" font-family="Times,serif" font-size="14.00">Capacity: 41.33</text>
</a>
</g>
</g>
<!-- RHO&#45;&gt;RH -->
<g id="edge33" class="edge">
<title>RHO&#45;&gt;RH</title>
<path fill="none" stroke="forestgreen" d="M948.94,-177.63C1000.42,-182.5 1072.04,-189.27 1072.04,-189.27 1072.04,-189.27 1179.96,-228.95 1236.13,-249.6"/>
<polygon fill="forestgreen" stroke="forestgreen" points="1245.49,-253.04 1234.55,-253.81 1241.94,-251.73 1236.1,-249.59 1236.1,-249.59 1236.1,-249.59 1241.94,-251.73 1237.65,-245.36 1245.49,-253.04"/>
<text xml:space="preserve" text-anchor="middle" x="1056.66" y="-175.97" font-family="Times,serif" font-size="14.00">25.20</text>
</g>
<!-- RL1 -->
<g id="node19" class="node">
<title>RL1</title>
<g id="a_node19"><a xlink:href="#" xlink:title="RL1\nCapacity: 8.40">
<polygon fill="darkseagreen" stroke="darkseagreen" points="1185.54,-410.27 1090.04,-410.27 1090.04,-369.27 1185.54,-369.27 1185.54,-410.27"/>
<text xml:space="preserve" text-anchor="middle" x="1137.79" y="-392.97" font-family="Times,serif" font-size="14.00">RL1</text>
<text xml:space="preserve" text-anchor="middle" x="1137.79" y="-376.47" font-family="Times,serif" font-size="14.00">Capacity: 8.40</text>
</a>
</g>
</g>
<!-- RL -->
<g id="node29" class="node">
<title>RL</title>
<g id="a_node29"><a xlink:href="#" xlink:title="RL">
<ellipse fill="lightsteelblue" stroke="lightsteelblue" cx="1269.25" cy="-389.77" rx="22.69" ry="22.69"/>
<text xml:space="preserve" text-anchor="middle" x="1269.25" y="-384.72" font-family="Times,serif" font-size="14.00">RL</text>
</a>
</g>
</g>
<!-- RL1&#45;&gt;RL -->
<g id="edge34" class="edge">
<title>RL1&#45;&gt;RL</title>
<path fill="none" stroke="forestgreen" d="M1185.89,-389.77C1202.37,-389.77 1220.5,-389.77 1235.54,-389.77"/>
<polygon fill="forestgreen" stroke="forestgreen" points="1245.15,-389.77 1235.15,-394.27 1241.36,-389.77 1235.15,-389.77 1235.15,-389.77 1235.15,-389.77 1241.36,-389.77 1235.15,-385.27 1245.15,-389.77"/>
<text xml:space="preserve" text-anchor="middle" x="1215.54" y="-392.97" font-family="Times,serif" font-size="14.00">5.60</text>
</g>
<!-- SRE&#45;&gt;DSL -->
<g id="edge12" class="edge">
<title>SRE&#45;&gt;DSL</title>
<path fill="none" stroke="powderblue" d="M403.74,-75.6C442.18,-97.11 501.64,-130.37 538.63,-151.06"/>
<polygon fill="powderblue" stroke="powderblue" points="546.92,-155.7 535.99,-154.74 543.62,-153.85 538.19,-150.82 538.19,-150.82 538.19,-150.82 543.62,-153.85 540.39,-146.89 546.92,-155.7"/>
</g>
<!-- SRE&#45;&gt;GSL -->
<g id="edge13" class="edge">
<title>SRE&#45;&gt;GSL</title>
<path fill="none" stroke="powderblue" d="M413.67,-55.92C449.99,-56.8 499.56,-58.01 533.52,-58.84"/>
<polygon fill="powderblue" stroke="powderblue" points="543.18,-59.07 533.07,-63.33 539.4,-58.98 533.18,-58.83 533.18,-58.83 533.18,-58.83 539.4,-58.98 533.29,-54.33 543.18,-59.07"/>
</g>
<!-- TXD -->
<g id="node21" class="node">
<title>TXD</title>
<g id="a_node21"><a xlink:href="#" xlink:title="TXD\nCapacity: 0.60">
<polygon fill="darkseagreen" stroke="darkseagreen" points="828.4,-144.27 732.9,-144.27 732.9,-103.27 828.4,-103.27 828.4,-144.27"/>
<text xml:space="preserve" text-anchor="middle" x="780.65" y="-126.97" font-family="Times,serif" font-size="14.00">TXD</text>
<text xml:space="preserve" text-anchor="middle" x="780.65" y="-110.47" font-family="Times,serif" font-size="14.00">Capacity: 0.60</text>
</a>
</g>
</g>
<!-- TXD&#45;&gt;TX -->
<g id="edge35" class="edge">
<title>TXD&#45;&gt;TX</title>
<path fill="none" stroke="forestgreen" d="M828.77,-125.41C904.92,-128.01 1044.66,-132.77 1044.66,-132.77 1044.66,-132.77 1171.68,-132.77 1234.67,-132.77"/>
<polygon fill="forestgreen" stroke="forestgreen" points="1244.42,-132.77 1234.42,-137.27 1240.64,-132.77 1234.42,-132.77 1234.42,-132.77 1234.42,-132.77 1240.64,-132.77 1234.42,-128.27 1244.42,-132.77"/>
<text xml:space="preserve" text-anchor="middle" x="1056.66" y="-135.97" font-family="Times,serif" font-size="14.00">0.60</text>
</g>
<!-- nox -->
<g id="node32" class="node">
<title>nox</title>
<ellipse fill="lightsteelblue" stroke="lightsteelblue" cx="994.97" cy="-79.77" rx="24.74" ry="24.74"/>
<text xml:space="preserve" text-anchor="middle" x="994.97" y="-74.72" font-family="Times,serif" font-size="14.00">nox</text>
</g>
<!-- TXD&#45;&gt;nox -->
<g id="edge36" class="edge">
<title>TXD&#45;&gt;nox</title>
<path fill="none" stroke="forestgreen" d="M828.77,-114.01C868.35,-105.81 923.97,-94.28 959.5,-86.92"/>
<polygon fill="forestgreen" stroke="forestgreen" points="969.09,-84.93 960.21,-91.37 965.38,-85.7 959.29,-86.96 959.29,-86.96 959.29,-86.96 965.38,-85.7 958.38,-82.55 969.09,-84.93"/>
<text xml:space="preserve" text-anchor="middle" x="897.52" y="-105.47" font-family="Times,serif" font-size="14.00">0.60</text>
</g>
<!-- TXG -->
<g id="node22" class="node">
<title>TXG</title>
<g id="a_node22"><a xlink:href="#" xlink:title="TXG\nCapacity: 4.60">
<polygon fill="darkseagreen" stroke="darkseagreen" points="828.4,-80.27 732.9,-80.27 732.9,-39.27 828.4,-39.27 828.4,-80.27"/>
<text xml:space="preserve" text-anchor="middle" x="780.65" y="-62.97" font-family="Times,serif" font-size="14.00">TXG</text>
<text xml:space="preserve" text-anchor="middle" x="780.65" y="-46.47" font-family="Times,serif" font-size="14.00">Capacity: 4.60</text>
</a>
</g>
</g>
<!-- TXG&#45;&gt;TX -->
<g id="edge37" class="edge">
<title>TXG&#45;&gt;TX</title>
<path fill="none" stroke="forestgreen" d="M828.86,-57.01C910.85,-52.31 1068.66,-43.27 1068.66,-43.27 1068.66,-43.27 1181.08,-93.43 1237.6,-118.65"/>
<polygon fill="forestgreen" stroke="forestgreen" points="1246.67,-122.7 1235.71,-122.73 1243.22,-121.16 1237.54,-118.62 1237.54,-118.62 1237.54,-118.62 1243.22,-121.16 1239.37,-114.51 1246.67,-122.7"/>
<text xml:space="preserve" text-anchor="middle" x="1056.66" y="-29.97" font-family="Times,serif" font-size="14.00">4.60</text>
</g>
<!-- TXG&#45;&gt;nox -->
<g id="edge38" class="edge">
<title>TXG&#45;&gt;nox</title>
<path fill="none" stroke="forestgreen" d="M828.77,-64.21C868.23,-67.93 923.66,-73.15 959.2,-76.5"/>
<polygon fill="forestgreen" stroke="forestgreen" points="968.78,-77.4 958.4,-80.94 965.02,-77.05 958.82,-76.46 958.82,-76.46 958.82,-76.46 965.02,-77.05 959.25,-71.98 968.78,-77.4"/>
<text xml:space="preserve" text-anchor="middle" x="897.52" y="-65.47" font-family="Times,serif" font-size="14.00">4.60</text>
</g>
<!-- DSL&#45;&gt;E70 -->
<g id="edge1" class="edge">
<title>DSL&#45;&gt;E70</title>
<path fill="none" stroke="powderblue" d="M600.53,-178.27C631.03,-188.06 682.06,-204.44 721.87,-217.22"/>
<polygon fill="powderblue" stroke="powderblue" points="731.35,-220.27 720.45,-221.49 727.75,-219.11 721.83,-217.21 721.83,-217.21 721.83,-217.21 727.75,-219.11 723.2,-212.92 731.35,-220.27"/>
</g>
<!-- DSL&#45;&gt;RHO -->
<g id="edge16" class="edge">
<title>DSL&#45;&gt;RHO</title>
<path fill="none" stroke="firebrick" d="M601.49,-170.86C624.03,-171.72 651.77,-172.77 651.77,-172.77 651.77,-172.77 762.3,-172.77 835.11,-172.77"/>
<polygon fill="firebrick" stroke="firebrick" points="844.79,-172.77 834.79,-177.27 841.01,-172.77 834.79,-172.77 834.79,-172.77 834.79,-172.77 841.01,-172.77 834.79,-168.27 844.79,-172.77"/>
<text xml:space="preserve" text-anchor="middle" x="667.15" y="-175.97" font-family="Times,serif" font-size="14.00">36.00</text>
</g>
<!-- DSL&#45;&gt;TXD -->
<g id="edge17" class="edge">
<title>DSL&#45;&gt;TXD</title>
<path fill="none" stroke="firebrick" d="M600.95,-163.76C631.49,-156.93 682.24,-145.57 721.86,-136.7"/>
<polygon fill="firebrick" stroke="firebrick" points="731.53,-134.54 722.75,-141.12 727.84,-135.37 721.77,-136.72 721.77,-136.72 721.77,-136.72 727.84,-135.37 720.79,-132.33 731.53,-134.54"/>
<text xml:space="preserve" text-anchor="middle" x="667.15" y="-137.47" font-family="Times,serif" font-size="14.00">2.60</text>
</g>
<!-- ELC&#45;&gt;RHE -->
<g id="edge4" class="edge">
<title>ELC&#45;&gt;RHE</title>
<path fill="none" stroke="powderblue" d="M1023.12,-306.94C1044.92,-311.9 1075.76,-318.9 1099.82,-324.37"/>
<polygon fill="powderblue" stroke="powderblue" points="1109.48,-326.57 1098.74,-328.74 1105.8,-325.73 1099.73,-324.35 1099.73,-324.35 1099.73,-324.35 1105.8,-325.73 1100.73,-319.96 1109.48,-326.57"/>
</g>
<!-- ELC&#45;&gt;TXE -->
<g id="edge5" class="edge">
<title>ELC&#45;&gt;TXE</title>
<path fill="none" stroke="powderblue" d="M1019.86,-286.86C1042.02,-273.95 1075.33,-254.56 1100.73,-239.77"/>
<polygon fill="powderblue" stroke="powderblue" points="1109.33,-234.76 1102.95,-243.68 1106.06,-236.66 1100.69,-239.79 1100.69,-239.79 1100.69,-239.79 1106.06,-236.66 1098.42,-235.9 1109.33,-234.76"/>
</g>
<!-- ELC&#45;&gt;E51 -->
<g id="edge18" class="edge">
<title>ELC&#45;&gt;E51</title>
<path fill="none" stroke="firebrick" d="M1023.12,-295.95C1038.96,-293.14 1059.57,-289.48 1078.88,-286.05"/>
<polygon fill="firebrick" stroke="firebrick" points="1088.55,-284.34 1079.49,-290.52 1084.83,-285 1078.7,-286.08 1078.7,-286.08 1078.7,-286.08 1084.83,-285 1077.92,-281.65 1088.55,-284.34"/>
<text xml:space="preserve" text-anchor="middle" x="1056.66" y="-265.47" font-family="Times,serif" font-size="14.00">0.82</text>
</g>
<!-- ELC&#45;&gt;RL1 -->
<g id="edge19" class="edge">
<title>ELC&#45;&gt;RL1</title>
<path fill="none" stroke="firebrick" d="M1019.54,-315.67C1039.86,-328.51 1069.71,-347.38 1094.2,-362.86"/>
<polygon fill="firebrick" stroke="firebrick" points="1102.61,-368.17 1091.75,-366.63 1099.41,-366.15 1094.16,-362.83 1094.16,-362.83 1094.16,-362.83 1099.41,-366.15 1096.56,-359.03 1102.61,-368.17"/>
<text xml:space="preserve" text-anchor="middle" x="1056.66" y="-350.7" font-family="Times,serif" font-size="14.00">5.60</text>
</g>
<!-- GSL&#45;&gt;TXG -->
<g id="edge20" class="edge">
<title>GSL&#45;&gt;TXG</title>
<path fill="none" stroke="firebrick" d="M601.8,-59.77C632.39,-59.77 682.48,-59.77 721.72,-59.77"/>
<polygon fill="firebrick" stroke="firebrick" points="731.51,-59.77 721.51,-64.27 727.73,-59.77 721.51,-59.77 721.51,-59.77 721.51,-59.77 727.73,-59.77 721.51,-55.27 731.51,-59.77"/>
<text xml:space="preserve" text-anchor="middle" x="667.15" y="-62.97" font-family="Times,serif" font-size="14.00">19.91</text>
</g>
<!-- HCO&#45;&gt;E01 -->
<g id="edge21" class="edge">
<title>HCO&#45;&gt;E01</title>
<path fill="none" stroke="firebrick" d="M250.81,-295.4C260.63,-295.6 269.01,-295.77 269.01,-295.77 269.01,-295.77 357.84,-297.04 419.96,-297.93"/>
<polygon fill="firebrick" stroke="firebrick" points="429.61,-298.07 419.55,-302.42 425.83,-298.01 419.61,-297.92 419.61,-297.92 419.61,-297.92 425.83,-298.01 419.68,-293.42 429.61,-298.07"/>
<text xml:space="preserve" text-anchor="middle" x="284.38" y="-298.97" font-family="Times,serif" font-size="14.00">14.70</text>
</g>
<!-- HYD&#45;&gt;E31 -->
<g id="edge22" class="edge">
<title>HYD&#45;&gt;E31</title>
<path fill="none" stroke="firebrick" d="M251.4,-371.19C290.82,-367.94 353.51,-362.77 353.51,-362.77 353.51,-362.77 517.36,-361.21 608.2,-360.34"/>
<polygon fill="firebrick" stroke="firebrick" points="617.95,-360.24 608,-364.84 614.17,-360.28 607.95,-360.34 607.95,-360.34 607.95,-360.34 614.17,-360.28 607.91,-355.84 617.95,-360.24"/>
<text xml:space="preserve" text-anchor="middle" x="365.51" y="-365.97" font-family="Times,serif" font-size="14.00">3.52</text>
</g>
</g>
</svg>
