<?xml version="1.0" encoding="UTF-8"?><svg id="a" xmlns="http://www.w3.org/2000/svg" width="20" height="16" viewBox="0 0 20 16"><path d="M17.501,10.756c.317-.861.499-1.787.499-2.756,0-.66-.089-1.299-.241-1.913-.004-.031-.016-.061-.024-.092-.462-1.779-1.519-3.317-2.949-4.39-.023-.015-.038-.038-.063-.051-.003-.002-.006-.001-.009-.003-1.324-.971-2.951-1.551-4.715-1.551s-3.391.581-4.715,1.551c-.003.002-.006.001-.009.003-.025.013-.04.036-.063.051-1.43,1.073-2.487,2.611-2.949,4.39-.008.031-.02.06-.024.092-.152.614-.241,1.253-.241,1.913,0,.97.182,1.896.499,2.756.011.032.019.063.034.093,1.151,3.007,4.06,5.151,7.467,5.151s6.315-2.144,7.467-5.151c.015-.03.023-.061.034-.093ZM5.404,3.408l.321.611c.134.255.395.4.664.4.118,0,.237-.027.349-.086.367-.193.507-.647.315-1.014l-.448-.852c.788-.485,1.683-.81,2.645-.921v.842c0,.414.336.75.75.75s.75-.336.75-.75v-.842c.962.111,1.858.436,2.645.921l-.448.852c-.193.367-.052.82.315,1.014.111.059.231.086.349.086.27,0,.53-.146.664-.4l.321-.611c.68.681,1.203,1.514,1.53,2.439l-.896.555c-.352.218-.461.681-.243,1.032.142.23.387.356.638.356.135,0,.272-.036.395-.112l.449-.278c.018.198.03.397.03.6,0,.616-.092,1.21-.252,1.775h-4.225c-.307-.823-1.094-1.413-2.022-1.413-.095,0-.185.016-.277.028l-1.652-3.136c-.193-.366-.648-.51-1.013-.314-.366.192-.507.647-.314,1.013l1.651,3.135c-.179.2-.321.431-.417.687H3.753c-.161-.565-.252-1.159-.252-1.775,0-.202.012-.402.03-.6l.449.278c.123.076.259.112.395.112.251,0,.496-.126.638-.356.218-.352.109-.815-.243-1.032l-.896-.555c.326-.925.85-1.759,1.53-2.439ZM10,9.861c.366,0,.664.298.664.663s-.298.664-.664.664-.664-.298-.664-.664.298-.663.664-.663ZM10,14.5c-2.389,0-4.476-1.299-5.605-3.225h3.583c.307.823,1.094,1.414,2.022,1.414s1.716-.591,2.022-1.414h3.583c-1.129,1.926-3.216,3.225-5.605,3.225Z"/></svg>