<?xml version="1.0" encoding="UTF-8"?><svg id="a" xmlns="http://www.w3.org/2000/svg" width="20" height="16" viewBox="0 0 20 16"><path d="M17.248,11.935h-2.256v-1.213c0-.759-.677-1.354-1.542-1.354h-.905c-.865,0-1.542.595-1.542,1.354v3.925c0,.759.677,1.354,1.542,1.354h.905c.865,0,1.542-.595,1.542-1.354v-1.212h2.256c.414,0,.75-.336.75-.75s-.336-.75-.75-.75ZM13.491,14.497c-.012.002-.026.003-.041.003h-.905c-.015,0-.029,0-.041-.003v-3.626c.012-.002.026-.003.041-.003h.905c.015,0,.029,0,.041.003v3.626ZM9.996,13.435H2.757c-.414,0-.75-.336-.75-.75s.336-.75.75-.75h7.24v1.5ZM2.757,5.976c-.414,0-.75.336-.75.75s.336.75.75.75h2.248v1.212c0,.759.677,1.354,1.542,1.354h.905c.865,0,1.542-.595,1.542-1.354v-3.925c0-.759-.677-1.354-1.542-1.354h-.905c-.865,0-1.542.595-1.542,1.354v1.213h-2.248ZM6.505,4.913c.012-.002.026-.003.041-.003h.905c.015,0,.029,0,.041.003v3.626c-.012.002-.026.003-.041.003h-.905c-.015,0-.029,0-.041-.003v-3.626ZM10.001,5.976h7.247c.414,0,.75.336.75.75s-.336.75-.75.75h-7.247v-1.5ZM12.869,1.425v-.675C12.869.336,13.205,0,13.62,0s.75.336.75.75v.675c0,.414-.336.75-.75.75s-.75-.336-.75-.75ZM9.246,2.33V.75C9.246.336,9.582,0,9.996,0s.75.336.75.75v1.58c0,.414-.336.75-.75.75s-.75-.336-.75-.75ZM18,.75v1.58c0,.414-.336.75-.75.75s-.75-.336-.75-.75V.75C16.499.336,16.835,0,17.25,0s.75.336.75.75ZM5.623,1.425v-.675C5.623.336,5.959,0,6.373,0s.75.336.75.75v.675c0,.414-.336.75-.75.75s-.75-.336-.75-.75ZM2,2.33V.75C2,.336,2.336,0,2.75,0s.75.336.75.75v1.58c0,.414-.336.75-.75.75s-.75-.336-.75-.75Z"/></svg>