<?xml version="1.0" encoding="UTF-8"?><svg id="a" xmlns="http://www.w3.org/2000/svg" width="20" height="16" viewBox="0 0 20 16"><path d="M14,.976h-1.035C12.946.435,12.507,0,11.962,0h-3.921C7.497,0,7.058.435,7.039.976h-1.039c-1.103,0-2,.898-2,2.001v11.02c0,1.104.899,2.003,2.002,2.003h7.996c1.104,0,2.001-.899,2.001-2.003V2.977c0-1.103-.898-2.001-2-2.001ZM8.533,1.505h2.938v.477h-2.938v-.477ZM14.5,13.997c0,.276-.225.502-.501.502h-7.996c-.276,0-.502-.226-.502-.502V2.977c0-.276.225-.5.5-.5h1.034c.005.553.453,1.002,1.007,1.002h3.921c.554,0,1.003-.448,1.007-1.002h1.03c.275,0,.5.225.5.5v11.02ZM13.753,5.995c0,.414-.336.75-.75.75h-3.242c-.414,0-.75-.336-.75-.75s.336-.75.75-.75h3.242c.414,0,.75.336.75.75ZM8.243,5.495v1c0,.276-.224.5-.5.5h-1c-.276,0-.5-.224-.5-.5v-1c0-.276.224-.5.5-.5h1c.276,0,.5.224.5.5ZM13.753,8.995c0,.414-.336.75-.75.75h-3.242c-.414,0-.75-.336-.75-.75s.336-.75.75-.75h3.242c.414,0,.75.336.75.75ZM8.243,8.495v1c0,.276-.224.5-.5.5h-1c-.276,0-.5-.224-.5-.5v-1c0-.276.224-.5.5-.5h1c.276,0,.5.224.5.5ZM13.753,11.995c0,.414-.336.75-.75.75h-3.242c-.414,0-.75-.336-.75-.75s.336-.75.75-.75h3.242c.414,0,.75.336.75.75ZM8.243,11.495v1c0,.276-.224.5-.5.5h-1c-.276,0-.5-.224-.5-.5v-1c0-.276.224-.5.5-.5h1c.276,0,.5.224.5.5Z"/></svg>