<?xml version="1.0" encoding="UTF-8"?><svg id="a" xmlns="http://www.w3.org/2000/svg" width="20" height="16" viewBox="0 0 20 16"><path d="M16,0H4c-1.105,0-2,.895-2,2v11c0,1.105.895,2,2,2h1.009v.262c0,.414.336.75.75.75s.75-.336.75-.75v-.262h6.979v.262c0,.414.336.75.75.75s.75-.336.75-.75v-.262h1.013c1.105,0,2-.895,2-2V2c0-1.105-.895-2-2-2ZM16.5,11.015h-6.24c-.414,0-.75.336-.75.75s.336.75.75.75h6.24v.485c0,.276-.224.5-.5.5H4c-.276,0-.5-.224-.5-.5V2c0-.276.224-.5.5-.5h12c.276,0,.5.224.5.5v9.015ZM11.506,2.516h-5.983c-.552,0-1,.448-1,1v5.484c0,.552.448,1,1,1h5.983c.552,0,1-.448,1-1V3.516c0-.552-.448-1-1-1ZM11.006,8.5h-4.983v-.759h.969c.245,0,.474-.119.614-.32l.774-1.105.774,1.106c.141.2.37.319.614.319h1.231s.004-.001.006-.001v.76ZM11.006,6.242s-.004-.001-.006-.001h-.841l-.99-1.413c-.18-.256-.474-.409-.786-.41h-.003c-.312,0-.606.152-.79.411l-.989,1.412h-.578v-2.225h4.983v2.226ZM15.516,9.256c0,.414-.336.75-.75.75h-.523c-.414,0-.75-.336-.75-.75s.336-.75.75-.75h.523c.414,0,.75.336.75.75ZM5.77,11.229c.141.15.221.34.221.53,0,.1-.021.2-.061.29s-.09.17-.16.24c-.069.069-.16.13-.25.17s-.18.06-.279.06c-.101,0-.2-.02-.29-.06-.091-.04-.181-.101-.24-.17-.08-.07-.13-.15-.17-.24s-.061-.19-.061-.29c0-.19.09-.38.23-.53.27-.27.78-.279,1.06,0ZM8.43,11.479c.04.09.061.19.061.29,0,.19-.08.38-.221.521-.069.08-.149.13-.239.17-.091.04-.19.06-.29.06-.101,0-.2-.02-.29-.06-.091-.04-.17-.09-.24-.17-.141-.141-.22-.32-.22-.521,0-.1.02-.2.06-.29.03-.09.09-.18.16-.25.27-.279.78-.279,1.06,0,.07.07.12.16.16.25ZM15.516,7.253c0,.414-.336.75-.75.75h-.523c-.414,0-.75-.336-.75-.75s.336-.75.75-.75h.523c.414,0,.75.336.75.75ZM15.516,5.249c0,.414-.336.75-.75.75h-.523c-.414,0-.75-.336-.75-.75s.336-.75.75-.75h.523c.414,0,.75.336.75.75ZM15.516,3.246c0,.414-.336.75-.75.75h-.523c-.414,0-.75-.336-.75-.75s.336-.75.75-.75h.523c.414,0,.75.336.75.75Z"/></svg>