<?xml version="1.0" encoding="UTF-8"?><svg id="a" xmlns="http://www.w3.org/2000/svg" width="20" height="16" viewBox="0 0 20 16"><path d="M8.296,8.227H3.171c-.647,0-1.171.524-1.171,1.171v5.125c0,.647.524,1.171,1.171,1.171h5.125c.647,0,1.171-.524,1.171-1.171v-5.125c0-.647-.524-1.171-1.171-1.171ZM7.967,14.194H3.5v-4.467h4.467v4.467ZM14.267,8.227c-2.062,0-3.733,1.671-3.733,3.733s1.672,3.733,3.733,3.733,3.733-1.672,3.733-3.733-1.671-3.733-3.733-3.733ZM14.267,14.194c-1.231,0-2.233-1.002-2.233-2.233s1.002-2.233,2.233-2.233,2.233,1.002,2.233,2.233-1.002,2.233-2.233,2.233ZM7.01,7.227h5.979c.533,0,.966-.433.966-.966,0-.178-.049-.351-.141-.502L10.751.728c-.159-.261-.443-.422-.751-.422s-.592.161-.751.422l-3.064,5.032c-.093.151-.141.324-.141.502,0,.533.433.966.966.966ZM10,2.379l2.039,3.348h-4.077l2.039-3.348Z"/></svg>