<?xml version="1.0" encoding="UTF-8"?>
<svg id="Camada_2" data-name="Camada 2" xmlns="http://www.w3.org/2000/svg" viewBox="0 0 45 45">
  <defs>
    <style>
      .cls-1 {
        fill: #478eff;
      }

      .cls-1, .cls-2 {
        stroke-width: 0px;
      }

      .cls-2 {
        fill: #fff;
      }
    </style>
  </defs>
  <g id="Camada_3" data-name="Camada 3">
    <g>
      <rect class="cls-2" width="45" height="45"/>
      <g>
        <path class="cls-1" d="M12.03,17.85v9.3c0,.73.39,1.39,1.03,1.75l8.47,4.71c.6.34,1.34.34,1.95,0l8.47-4.71c.63-.35,1.03-1.02,1.03-1.75v-9.3c0-.73-.39-1.39-1.03-1.75l-8.47-4.71c-.6-.34-1.34-.34-1.95,0l-8.47,4.71c-.63.35-1.03,1.02-1.03,1.75Z"/>
        <path class="cls-2" d="M18.82,21.04v2.92c0,.36.2.7.51.87l2.68,1.49c.3.17.67.17.97,0l2.68-1.49c.32-.18.51-.51.51-.87v-2.92c0-.36-.2-.7-.51-.87l-2.68-1.49c-.3-.17-.67-.17-.97,0l-2.68,1.49c-.32.18-.51.51-.51.87Z"/>
      </g>
    </g>
  </g>
</svg>