<svg version="1.2" viewBox="0 0 10000 10000" xmlns="http://www.w3.org/2000/svg">
 <defs>
  <linearGradient id="gradient1" x1="1670" y1="-733" x2="8290" y2="10733" gradientUnits="userSpaceOnUse">
   <stop offset="0" style="stop-color:rgb(142,36,170)"/>
   <stop offset="1" style="stop-color:rgb(255,64,129)"/>
  </linearGradient>
 </defs>
 <path style="fill:url(#gradient1)" d="M 6080,5251 L 6068,5224 6053,5196 6010,5141 5954,5085 5886,5029 5805,4973 5715,4919 5615,4867 5507,4817 5270,4729 5013,4659 4880,4633 4745,4614 4610,4602 4475,4597 400,4629 424,4064 495,3532 609,3033 764,2568 855,2349 956,2139 1065,1938 1182,1747 1308,1564 1441,1391 1581,1228 1728,1074 1892,1352 1931,1418 1960,1474 1971,1496 1978,1515 1981,1523 1982,1529 1982,1534 1981,1536 1981,1538 1940,1614 1904,1693 1874,1774 1849,1857 1830,1942 1816,2027 1808,2112 1805,2198 1808,2285 1816,2370 1830,2455 1849,2538 1874,2620 1904,2701 1940,2779 1981,2855 2027,2929 2077,2999 2132,3066 2191,3129 2255,3188 2322,3243 2392,3294 2465,3340 2542,3381 2621,3416 2702,3446 2785,3471 2869,3490 2955,3504 3040,3513 3126,3515 3212,3513 3298,3504 3383,3490 3466,3471 3548,3446 3628,3416 3707,3381 3783,3340 3856,3294 3927,3243 3994,3188 4057,3129 4116,3066 4171,2999 4222,2929 4268,2855 4308,2779 4344,2701 4374,2620 4399,2538 4418,2455 4432,2370 4440,2285 4443,2198 4440,2112 4432,2027 4418,1942 4399,1857 4374,1774 4344,1693 4308,1614 4268,1538 4222,1464 4171,1394 4116,1327 4057,1264 3994,1205 3927,1149 3856,1099 3783,1053 3707,1012 3628,977 3548,946 3466,922 3383,902 3298,888 3212,880 3126,877 3040,880 2955,888 2869,902 2785,922 2702,946 2621,977 2542,1012 2465,1053 2464,1053 2463,1054 2461,1053 2459,1053 2454,1051 2448,1048 2434,1039 2416,1026 2374,990 2324,944 2213,842 2111,751 2104,744 2396,543 2703,373 3022,233 3351,126 3689,51 4035,9 4385,1 4738,27 4724,1018 5295,1041 5832,1119 6334,1247 6801,1420 7234,1633 7631,1882 7992,2162 8316,2467 8604,2794 8855,3136 9069,3490 9245,3850 9382,4212 9481,4570 9541,4920 9561,5258 9561,5261 9549,5812 9534,6022 9514,6199 9489,6352 9460,6490 9393,6754 9282,7057 9158,7346 9021,7621 8872,7883 8708,8131 8532,8366 8343,8586 8140,8793 7925,8987 7696,9166 7454,9333 7198,9485 6930,9624 6648,9749 6353,9860 6045,9958 5834,9985 5629,9998 5431,9999 5238,9986 5052,9960 4871,9921 4697,9868 4529,9802 4367,9723 4211,9631 4060,9525 3916,9407 3778,9274 3646,9129 3520,8970 3400,8799 3336,8572 3304,8352 3299,8140 3321,7937 3365,7744 3430,7562 3514,7392 3612,7235 3724,7092 3846,6964 3977,6852 4112,6757 4251,6681 4389,6623 4526,6585 4657,6568 4762,6581 4862,6602 4954,6628 5041,6661 5122,6700 5196,6744 5263,6794 5324,6849 5378,6908 5426,6972 5466,7040 5500,7112 5527,7187 5546,7266 5559,7348 5564,7432 5558,7505 5544,7575 5522,7642 5493,7706 5458,7765 5417,7820 5371,7871 5320,7916 5266,7956 5209,7990 5150,8019 5089,8041 5026,8056 4964,8064 4901,8065 4840,8057 4884,7990 4904,7955 4923,7920 4938,7884 4950,7849 4957,7813 4960,7777 4959,7759 4956,7741 4952,7724 4946,7706 4939,7688 4929,7671 4918,7654 4904,7637 4871,7604 4828,7571 4774,7540 4710,7509 4659,7506 4610,7507 4563,7511 4518,7519 4476,7531 4435,7547 4397,7565 4361,7587 4327,7612 4296,7639 4268,7669 4242,7702 4197,7773 4163,7853 4141,7939 4130,8030 4131,8125 4145,8223 4171,8322 4210,8420 4264,8518 4331,8612 4407,8666 4493,8705 4589,8730 4692,8741 4803,8739 4919,8725 5040,8698 5164,8659 5417,8547 5669,8392 5912,8198 6134,7968 6328,7706 6483,7415 6543,7260 6590,7098 6623,6931 6640,6759 6641,6583 6624,6402 6587,6217 6531,6029 6453,5838 6353,5644 6229,5448 6080,5251 Z M 3797,2174 L 3795,2219 3791,2264 3783,2309 3773,2352 3760,2395 3743,2437 3724,2478 3702,2518 3677,2556 3651,2593 3622,2627 3591,2660 3559,2691 3524,2719 3488,2746 3449,2771 3409,2793 3368,2812 3325,2827 3282,2840 3238,2850 3193,2857 3147,2861 3101,2862 3055,2861 3010,2857 2965,2850 2921,2840 2877,2827 2835,2812 2794,2793 2754,2771 2715,2746 2678,2719 2644,2691 2611,2660 2581,2627 2552,2593 2525,2556 2501,2518 2478,2478 2459,2437 2443,2395 2429,2352 2419,2309 2412,2264 2407,2219 2406,2174 2407,2129 2412,2084 2419,2039 2429,1994 2443,1951 2459,1908 2478,1866 2501,1826 2525,1787 2552,1751 2581,1716 2611,1684 2644,1653 2678,1624 2715,1598 2754,1573 2794,1551 2835,1532 2877,1516 2921,1503 2965,1494 3010,1487 3055,1483 3101,1482 3147,1483 3193,1487 3238,1494 3282,1503 3325,1516 3368,1532 3409,1551 3449,1573 3488,1598 3524,1624 3559,1653 3591,1684 3622,1716 3651,1751 3677,1787 3702,1826 3724,1866 3743,1908 3760,1951 3773,1994 3783,2039 3791,2084 3795,2129 3797,2174 Z"/>
</svg>