<svg xmlns="http://www.w3.org/2000/svg" viewBox="0 0 10000 10000"><g fill="#183E93">_<path d="M2837 4554c-395 0-746-83-1055-250-308-167-549-397-723-688-174-292-261-623-261-995 0-376 87-709 261-998 174-290 415-516 723-681 309-165 660-247 1055-247 367 0 691 74 971 222 279 148 492 366 638 653l-677 395c-113-179-251-310-413-395s-338-127-526-127c-216 0-411 47-585 141s-311 229-410 406c-98 176-148 386-148 631s50 455 148 631c99 177 236 312 410 406s369 141 585 141c188 0 364-42 526-127s300-216 413-395l677 395c-146 282-359 500-638 653-280 153-604 229-971 229z"/><path d="M6859 5923c-348 0-688-46-1019-138-332-91-604-224-815-398l395-663c164 136 373 245 624 328 252 82 507 123 766 123 414 0 717-95 910-286 193-190 289-476 289-857v-199c-116 128-250 231-402 309-254 129-541 194-861 194-357 0-681-77-970-229-289-153-517-366-684-639s-251-593-251-960c0-362 84-679 251-952s395-485 684-635c289-151 613-226 970-226 320 0 607 64 861 191 171 85 319 203 445 352V737h839v3196c0 682-174 1185-522 1507s-851 483-1510 483zm21-2335c221 0 419-46 593-138 174-91 309-218 406-381 96-162 144-349 144-561 0-211-48-398-144-561-97-162-232-287-406-374s-372-130-593-130-420 43-596 130-313 212-409 374c-97 163-145 350-145 561 0 212 48 399 145 561 96 163 233 290 409 381 176 92 375 138 596 138z"/></g><g fill="#EE614E" ><path d="M515 9572V4860h991v4712H515z"/><path d="M7889 9623c-301 0-559-63-775-190-114-67-213-152-299-256v395h-946V4860h991v1658c80-88 171-163 273-222 216-127 468-191 756-191 321 0 610 72 866 216s460 347 610 610c150 262 225 573 225 933 0 356-75 665-225 927-150 263-354 467-610 613s-545 219-866 219zm-172-813c165 0 312-38 441-114s233-185 312-327c78-142 117-310 117-505 0-199-39-368-117-508-79-140-183-247-312-324-129-76-276-114-441-114s-313 38-444 114c-132 77-235 184-312 324-76 140-114 309-114 508 0 195 38 363 114 505 77 142 180 251 312 327 131 76 279 114 444 114z"/><path d="M4384 9572v-424c-75 125-176 226-305 304-191 114-436 171-737 171-266 0-495-46-685-136-191-91-337-215-439-372-101-156-152-332-152-527 0-203 50-381 149-533 100-153 257-272 473-359s498-130 845-130h787c0-212-64-377-193-496-130-118-327-178-594-178-182 0-361 29-537 86-175 57-325 135-447 232l-356-692c186-131 411-233 673-305 263-72 529-108 800-108 521 0 925 123 1213 368 288 246 432 629 432 1150v1949h-927zm-64-1428h-679c-233 0-393 38-480 114s-130 171-130 286c0 127 49 227 149 301s236 111 410 111c165 0 313-39 444-117 132-78 227-193 286-346v-349z"/></g></svg>