<?xml version="1.0" encoding="UTF-8" standalone="no"?>
<!-- Created with Inkscape (http://www.inkscape.org/) -->

<svg
   width="100.56782mm"
   height="37.862804mm"
   viewBox="0 0 100.56782 37.862804"
   version="1.1"
   id="svg1"
   xml:space="preserve"
   inkscape:version="1.3 (0e150ed, 2023-07-21)"
   sodipodi:docname="jorbit_logo_clear.svg"
   xmlns:inkscape="http://www.inkscape.org/namespaces/inkscape"
   xmlns:sodipodi="http://sodipodi.sourceforge.net/DTD/sodipodi-0.dtd"
   xmlns="http://www.w3.org/2000/svg"
   xmlns:svg="http://www.w3.org/2000/svg"><sodipodi:namedview
     id="namedview1"
     pagecolor="#ffffff"
     bordercolor="#000000"
     borderopacity="0.25"
     inkscape:showpageshadow="2"
     inkscape:pageopacity="0.0"
     inkscape:pagecheckerboard="0"
     inkscape:deskcolor="#d1d1d1"
     inkscape:document-units="mm"
     showguides="false"
     showgrid="true"
     inkscape:zoom="1.3968575"
     inkscape:cx="291.01036"
     inkscape:cy="7.5168727"
     inkscape:window-width="1512"
     inkscape:window-height="824"
     inkscape:window-x="1920"
     inkscape:window-y="73"
     inkscape:window-maximized="0"
     inkscape:current-layer="layer1"><inkscape:grid
       id="grid2"
       units="mm"
       originx="-299.07687"
       originy="-487.54744"
       spacingx="0.99999998"
       spacingy="1"
       empcolor="#0099e5"
       empopacity="0.30196078"
       color="#0099e5"
       opacity="0.14902"
       empspacing="5"
       dotted="false"
       gridanglex="30"
       gridanglez="30"
       visible="true" /></sodipodi:namedview><defs
     id="defs1" /><g
     inkscape:label="Layer 1"
     inkscape:groupmode="layer"
     id="layer1"
     transform="translate(-79.130759,-128.99693)"><rect
       style="fill:#000000;stroke-width:0.264583;fill-opacity:0"
       id="rect2"
       width="105.69262"
       height="39.019138"
       x="76.289558"
       y="128.23929"
       inkscape:export-filename="jorbit_logo_clear.png"
       inkscape:export-xdpi="480.63904"
       inkscape:export-ydpi="480.63904" /><g
       id="g2"
       inkscape:export-filename="../../../../../../../../../../../Downloads/jorbit_logo_dark.png"
       inkscape:export-xdpi="96.699997"
       inkscape:export-ydpi="96.699997"><g
         id="g5"
         transform="matrix(0.03934598,0,0,0.04062541,85.873148,123.28006)">&#10;	<circle
   class="st0"
   cx="600"
   cy="600"
   r="301"
   id="circle1" />&#10;	<path
   class="st1"
   d="M 465,431.5 C 170.6,667.3 -7.6,934 67,1027.1 v 0 c 74.6,93.1 373.7,-22.7 668.1,-258.6 C 1029.5,532.6 1207.6,266 1133,172.9 1058.4,79.8 759.4,195.6 465,431.5 Z m 3,3.7 C 755.8,204.6 1048.3,91.4 1121.2,182.4 1194.1,273.4 1019.9,534.2 732,764.8 444.1,995.4 151.7,1108.6 78.8,1017.6 5.9,926.6 180.1,665.9 468,435.2 Z m -0.6,1.2 C 180.7,666.3 7.4,925.9 80.1,1016.6 c 72.7,90.7 364.5,-22.1 651.6,-252.2 287.1,-230.1 460.9,-490.1 388.2,-580.9 v 0 C 1047.2,92.7 755.4,205.6 468.3,435.7 l -1,0.7 z m 11.9,12.9 c 263.3,-211 530.8,-314.5 597.6,-231.3 66.8,83.2 -92.7,321.8 -356,532.8 v 0 C 457.5,961.8 190,1065.3 123.3,982.1 56.6,898.9 215.9,660.2 479.3,449.3 Z"
   id="path1" />&#10;	<path
   class="st2"
   d="M 484,455.2 C 231.1,657.8 78.1,886.9 142.1,966.9 v 0 c 64.1,79.9 321,-19.5 573.9,-222.1 252.9,-202.6 405.9,-431.7 341.9,-511.6 v 0 c -64.1,-80 -321,19.4 -573.9,222 z m 25,31.6 0.2,-0.1 C 707.2,328.1 908.3,250.3 958.4,312.9 v 0 C 1008.5,375.5 888.7,554.8 690.8,713.4 492.9,872 291.8,949.8 241.6,887.2 191.4,824.6 311.2,645.5 509,486.8 Z"
   id="path2" />&#10;	<path
   class="st3"
   d="M 509,486.9 C 311.1,645.4 191.5,824.6 241.6,887.2 291.7,949.8 492.8,872 690.8,713.4 888.8,554.8 1008.6,375.5 958.4,312.9 908.2,250.3 707.2,328.2 509.2,486.7 v 0 z m 4.3,5 C 702.2,340.6 894,266.3 941.9,326 989.8,385.7 875.4,556.8 686.6,708.2 497.8,859.6 305.8,933.7 258,874 210.2,814.3 324.5,643.2 513.3,491.9 Z m 0.3,0.3 C 325.3,643.1 211.3,813.7 259,873.2 306.7,932.7 498,858.7 686.3,707.8 874.6,556.9 988.5,386.4 940.8,326.9 893.1,267.4 701.8,341.4 513.6,492.2 Z M 526.2,508 C 686.9,379.2 850.2,316 890.9,366.8 931.6,417.6 834.4,563.2 673.6,692 512.8,820.8 349.6,884 308.9,833.2 268.2,782.4 365.5,636.8 526.2,508 Z"
   id="path3" />&#10;	<path
   class="st4"
   d="M 525.2,509.1 C 365.4,637.4 269,782.1 309.5,832.7 350,883.3 513.1,820.3 673.5,691.8 833.9,563.3 931,418 890.4,367.3 v 0 c -40.6,-50.7 -203.6,12.4 -364,140.9 z m 8.8,8.5 C 678,402.2 824.3,345.6 860.7,391.1 897.1,436.6 810,567 666.1,682.4 v 0 c -144,115.4 -290.3,172 -326.8,126.5 v 0 C 302.8,763.4 390,633 534,517.6 Z"
   id="path4" />&#10;	<path
   class="st0"
   d="M 834.9,411.8 C 728.7,283.9 539,266.2 411,372.3 286.1,475.9 265.8,659.9 365.1,788.2 L 600,600 Z"
   id="path5" />&#10;</g><text
         xml:space="preserve"
         style="font-style:normal;font-variant:normal;font-weight:normal;font-stretch:normal;font-size:38.1px;font-family:Helvetica;-inkscape-font-specification:'Helvetica, Normal';font-variant-ligatures:normal;font-variant-caps:normal;font-variant-numeric:normal;font-variant-east-asian:normal;fill:#ffffff;stroke-width:0.264583"
         x="79.837692"
         y="158.82301"
         id="text1"><tspan
           sodipodi:role="line"
           id="tspan1"
           style="font-style:normal;font-variant:normal;font-weight:normal;font-stretch:normal;font-size:38.1px;font-family:Helvetica;-inkscape-font-specification:'Helvetica, Normal';font-variant-ligatures:normal;font-variant-caps:normal;font-variant-numeric:normal;font-variant-east-asian:normal;fill:#ffffff;stroke-width:0.264583"
           x="79.837692"
           y="158.82301">j</tspan></text><text
         xml:space="preserve"
         style="font-style:normal;font-variant:normal;font-weight:normal;font-stretch:normal;font-size:38.1px;font-family:Helvetica;-inkscape-font-specification:'Helvetica, Normal';font-variant-ligatures:normal;font-variant-caps:normal;font-variant-numeric:normal;font-variant-east-asian:normal;fill:#ffffff;stroke-width:0.264583"
         x="127.66454"
         y="159.86479"
         id="text2"><tspan
           sodipodi:role="line"
           id="tspan2"
           style="font-style:normal;font-variant:normal;font-weight:normal;font-stretch:normal;font-size:38.1px;font-family:Helvetica;-inkscape-font-specification:'Helvetica, Normal';font-variant-ligatures:normal;font-variant-caps:normal;font-variant-numeric:normal;font-variant-east-asian:normal;fill:#ffffff;stroke-width:0.264583"
           x="127.66454"
           y="159.86479">rbit</tspan></text></g></g><style
     type="text/css"
     id="style1">&#10;	.st0{fill:#EF6366;}&#10;	.st1{fill:#13FCD5;}&#10;	.st2{fill:#35D7CE;}&#10;	.st3{fill:#0D8F82;}&#10;	.st4{fill:#0A5043;}&#10;</style></svg>
