<svg width="23" height="21" viewBox="0 0 23 21" fill="none" xmlns="http://www.w3.org/2000/svg">
<path d="M1.36213 7.15445C1.42663 6.8892 1.63 6.68542 1.92083 6.61847C2.95837 6.37966 4.93331 6.03079 7.61541 6.03079C10.3797 6.03079 12.3927 6.40136 13.4026 6.64007C13.6606 6.70107 13.821 6.86612 13.8741 7.0661C14.1013 7.92213 14.4308 9.70582 14.4308 12.8462C14.4308 15.9866 14.1013 17.7703 13.8741 18.6263C13.821 18.8263 13.6606 18.9913 13.4026 19.0523C12.3927 19.291 10.3797 19.6616 7.61541 19.6616C4.93331 19.6616 2.95837 19.3127 1.92083 19.0739C1.63 19.007 1.42663 18.8032 1.36213 18.5379C1.12907 17.5795 0.8 15.7181 0.8 12.8462C0.8 9.97433 1.12907 8.11294 1.36213 7.15445Z" stroke="#151515" stroke-width="1.6"/>
<path d="M7.95422 3.53847C7.99563 2.14703 8.3771 1.88821 8.44963 1.85145C8.45741 1.8475 8.46443 1.84522 8.47276 1.84263C8.66326 1.7835 11.2545 1 14.8076 1C17.2341 1 18.9794 1.36541 19.891 1.61597C20.3633 1.74579 20.7319 2.09055 20.8649 2.56196C21.1145 3.4466 21.4614 5.21231 21.4614 8.19233C21.4614 12.2181 20.8283 14.0278 20.6573 14.4429C20.6305 14.508 20.5966 14.5682 20.5476 14.6187C20.3263 14.8465 19.5027 15.473 17.2157 15.349" stroke="#151515" stroke-width="1.6"/>
</svg>
