<svg xmlns="http://www.w3.org/2000/svg"
width="24px" height="24px" viewBox="0 0 198 198" enable-background="new 0 0 198 198">
<path fill="#488B9B" opacity="1.000000" stroke="none" 
	d="
M1.000000,178.000000 
	C1.000000,126.312439 1.000000,74.624878 1.355553,22.647243 
	C6.130342,13.299966 12.131733,5.846684 21.985571,2.255358 
	C22.124443,2.204744 22.001009,1.434420 22.000000,1.000000 
	C73.687561,1.000000 125.375122,1.000000 177.352753,1.355551 
	C178.285614,2.140361 178.886246,2.658925 179.577637,2.985280 
	C187.931534,6.928665 194.528168,12.488595 196.589905,21.839676 
	C183.869980,21.943621 171.622253,22.034750 158.917450,22.035206 
	C156.351517,22.003046 154.242645,22.061563 151.663498,22.032587 
	C137.506424,21.994553 123.819641,22.044014 109.670341,22.041054 
	C107.020462,22.029167 104.833092,22.069702 102.208496,22.029188 
	C97.228256,22.001652 92.685257,22.055161 87.697533,22.032154 
	C85.168480,22.009575 83.084145,22.063515 80.538757,22.028568 
	C74.645775,21.987093 69.213837,22.034500 63.366535,22.017693 
	C60.712818,21.991129 58.474472,22.028778 55.759125,21.984173 
	C42.905567,19.720947 33.350002,23.698818 26.884840,35.155899 
	C29.907200,37.841072 32.860500,40.760017 36.136360,43.255531 
	C37.873848,44.579128 40.124352,45.802563 42.225639,45.958054 
	C46.848404,46.300129 51.523495,45.935089 56.598652,45.941498 
	C59.318485,45.963909 61.616898,45.903488 64.382248,45.923927 
	C70.222565,45.939278 75.595932,45.873768 81.414818,45.903469 
	C83.996445,45.939163 86.132553,45.879642 88.708267,45.909256 
	C93.633018,45.949135 98.118172,45.899876 103.080727,45.923508 
	C105.787560,45.947250 108.016998,45.898102 110.696243,45.909340 
	C124.815895,45.907635 138.485733,45.845539 152.593216,45.877941 
	C155.167923,45.907608 157.304977,45.842777 159.876495,45.856232 
	C173.207291,45.956348 186.103638,45.978176 199.000000,46.000000 
	C199.000000,50.024544 199.000000,54.049088 198.554321,58.699799 
	C189.545944,59.478214 180.983246,59.630459 171.994476,59.594498 
	C169.309128,59.635639 167.049866,59.864990 164.345612,59.984932 
	C153.639236,59.919384 143.377884,59.963249 132.671371,59.909706 
	C130.113113,59.866817 127.999992,59.921333 125.566994,59.766548 
	C123.050224,59.665176 120.853340,59.773109 118.238846,59.736660 
	C105.248337,57.254765 95.584885,61.429470 88.872955,73.110321 
	C92.217865,75.994156 95.744888,79.201134 99.473473,82.153557 
	C100.670837,83.101662 102.387413,83.835388 103.888634,83.877556 
	C108.845459,84.016800 113.812416,83.795036 119.073456,83.780685 
	C119.960976,83.768661 120.550545,83.687798 121.480560,83.669556 
	C122.504097,83.656303 123.187172,83.580429 124.110733,83.580818 
	C124.518456,83.639305 124.685707,83.621529 125.019058,83.709808 
	C125.185150,83.815880 125.576660,83.841202 125.576660,83.841202 
	C125.576660,83.841202 125.936592,83.685219 126.373978,83.772186 
	C128.893951,83.803970 130.976547,83.748795 133.518127,83.768616 
	C144.234802,83.773872 154.492477,83.704140 165.214355,83.733536 
	C167.892593,83.758827 170.106613,83.684990 172.761032,83.694534 
	C181.800949,83.851944 190.400482,83.925972 199.000000,84.000000 
	C199.000000,115.020897 199.000000,146.041794 198.642670,177.354095 
	C193.954208,186.788391 187.968140,194.253754 178.015808,197.743118 
	C177.880310,197.790634 177.999619,198.564926 178.000000,199.000000 
	C126.312439,199.000000 74.624878,199.000000 22.645916,198.642670 
	C13.211606,193.954224 5.746253,187.968124 2.256880,178.015808 
	C2.209373,177.880310 1.435078,177.999619 1.000000,178.000000 
M160.553711,141.958252 
	C159.282669,145.045364 158.011642,148.132492 156.181885,152.576630 
	C151.982742,141.991669 148.425232,132.921753 144.783463,123.885803 
	C142.863663,119.122375 142.028000,112.549126 138.459564,110.198448 
	C134.681671,107.709801 128.242599,109.145927 122.963188,109.078468 
	C114.854042,108.974838 106.742592,109.051216 98.579903,109.051216 
	C98.208504,111.400360 97.942917,113.080215 97.593399,115.290962 
	C96.572456,114.491882 96.056801,114.144440 95.605812,113.727089 
	C84.523521,103.471527 67.900230,107.197800 63.671589,121.673302 
	C61.489784,129.142075 60.775127,137.512695 61.537674,145.265320 
	C62.930473,159.425568 71.872971,167.150269 84.265526,165.630859 
	C88.947212,165.056854 93.314423,161.917953 97.968597,159.885529 
	C97.857643,159.603806 98.166779,160.025909 98.169022,160.449600 
	C98.196236,165.611740 98.295044,170.777512 98.144417,175.935608 
	C97.925995,183.415070 94.506203,187.502899 88.262184,188.074738 
	C80.509705,188.784729 77.026917,186.186035 74.770325,178.666489 
	C74.351990,177.272491 72.487923,175.746399 71.012703,175.368729 
	C68.823540,174.808289 66.292404,174.835831 64.092682,175.373474 
	C62.958603,175.650665 61.300014,177.724594 61.466549,178.721298 
	C62.349037,184.002869 65.315041,188.239594 70.604454,189.516479 
	C76.197403,190.866638 82.035416,191.775162 87.776138,191.828629 
	C103.036003,191.970734 109.774216,185.119064 109.868668,169.929306 
	C109.970169,153.606781 109.866127,137.283035 109.930855,120.960144 
	C109.957878,114.145348 113.162949,111.368912 119.913414,111.605453 
	C126.084724,111.821709 128.942047,115.638618 131.011780,120.780449 
	C136.537460,134.508011 142.263947,148.155090 147.733063,161.904770 
	C148.907669,164.857803 150.555481,165.872589 153.696426,165.880859 
	C156.964905,165.889435 158.398849,164.503143 159.475708,161.635498 
	C163.742630,150.272903 168.216019,138.988007 172.585358,127.663681 
	C174.888718,121.693901 177.135254,115.702217 179.501007,109.474182 
	C175.664551,108.596565 173.027435,108.279686 171.615463,112.246086 
	C168.158783,121.956230 164.455307,131.578537 160.553711,141.958252 
M44.782310,137.499893 
	C44.782310,127.944748 44.782310,118.389595 44.782310,108.116760 
	C37.093533,109.559059 30.251970,110.842430 22.699350,112.259186 
	C23.787212,113.526741 24.017853,114.053551 24.393923,114.195740 
	C32.656067,117.319786 32.950035,117.724846 32.985119,126.697731 
	C33.026123,137.185730 33.056877,147.673752 33.088707,158.161774 
	C33.096077,160.589157 33.089794,163.016571 33.089794,165.898865 
	C35.641491,165.898865 37.465626,165.699921 39.230721,165.938263 
	C43.549786,166.521439 45.139145,165.012131 44.901211,160.470322 
	C44.518501,153.164825 44.788155,145.825165 44.782310,137.499893 
M39.438538,97.857811 
	C45.230648,96.351547 47.941063,92.845016 46.461201,88.504883 
	C45.189411,84.774994 42.343624,82.139366 38.540627,83.393631 
	C36.025421,84.223160 33.061878,86.958008 32.392452,89.411118 
	C31.158995,93.931084 34.025879,96.903015 39.438538,97.857811 
z"/>
<path fill="#FFFFFF" opacity="1.000000" stroke="none" 
	d="
M159.374542,22.125881 
	C171.622253,22.034750 183.869980,21.943621 196.620667,21.896343 
	C197.123627,21.940195 197.025055,22.021387 197.094818,22.232224 
	C197.339066,22.692419 197.564865,22.880032 197.911865,23.316986 
	C198.006805,24.052181 198.031845,24.476286 198.031555,25.373993 
	C198.337479,31.898396 198.668747,37.949196 199.000000,44.000000 
	C199.000000,44.444447 199.000000,44.888889 199.000000,45.666668 
	C186.103638,45.978176 173.207291,45.956348 159.850800,45.406487 
	C159.385315,37.294262 159.379929,29.710072 159.374542,22.125881 
z"/>
<path fill="#FAFCFB" opacity="1.000000" stroke="none" 
	d="
M199.000000,83.531349 
	C190.400482,83.925972 181.800949,83.851944 172.740143,83.260239 
	C172.326080,75.089272 172.373306,67.435989 172.420532,59.782703 
	C180.983246,59.630459 189.545944,59.478214 198.554321,59.162983 
	C199.000000,67.020897 199.000000,75.041801 199.000000,83.531349 
z"/>
<!-- <path fill="#000000" opacity="1.000000" stroke="none" 
	d="
M198.056885,24.900391 
	C198.031845,24.476286 198.006805,24.052181 197.965912,23.046646 
	C197.641724,22.317272 197.333389,22.169327 197.025055,22.021385 
	C197.025055,22.021387 197.123627,21.940195 197.092865,21.883526 
	C194.528168,12.488595 187.931534,6.928665 179.577637,2.985280 
	C178.886246,2.658925 178.285614,2.140361 177.821411,1.355551 
	C184.931198,1.000000 191.862396,1.000000 199.000000,1.000000 
	C199.000000,8.686312 199.000000,16.374464 198.760895,24.537916 
	C198.521790,25.013216 198.056900,24.900391 198.056885,24.900391 
z"/>
<path fill="#000000" opacity="1.000000" stroke="none" 
	d="
M21.531088,1.000000 
	C22.001009,1.434420 22.124443,2.204744 21.985571,2.255358 
	C12.131733,5.846684 6.130342,13.299966 1.355553,22.178585 
	C1.000000,15.073850 1.000000,8.147699 1.000000,1.000000 
	C7.685770,1.000000 14.373973,1.000000 21.531088,1.000000 
z"/>
<path fill="#000000" opacity="1.000000" stroke="none" 
	d="
M1.000000,178.468918 
	C1.435078,177.999619 2.209373,177.880310 2.256880,178.015808 
	C5.746253,187.968124 13.211606,193.954224 22.177258,198.642670 
	C15.073852,199.000000 8.147703,199.000000 1.000000,199.000000 
	C1.000000,192.314240 1.000000,185.626038 1.000000,178.468918 
z"/>
<path fill="#000000" opacity="1.000000" stroke="none" 
	d="
M178.468918,199.000000 
	C177.999619,198.564926 177.880310,197.790634 178.015808,197.743118 
	C187.968140,194.253754 193.954208,186.788391 198.642670,177.822754 
	C199.000000,184.926147 199.000000,191.852295 199.000000,199.000000 
	C192.314240,199.000000 185.626038,199.000000 178.468918,199.000000 
z"/> -->
<path fill="#E2E7DA" opacity="1.000000" stroke="none" 
	d="
M198.031555,25.373993 
	C198.056900,24.900391 198.521790,25.013216 198.760895,25.006607 
	C199.000000,31.021152 199.000000,37.042305 199.000000,43.531731 
	C198.668747,37.949196 198.337479,31.898396 198.031555,25.373993 
z"/>
<path fill="#F7FAFB" opacity="1.000000" stroke="none" 
	d="
M160.702423,141.597229 
	C164.455307,131.578537 168.158783,121.956230 171.615463,112.246086 
	C173.027435,108.279686 175.664551,108.596565 179.501007,109.474182 
	C177.135254,115.702217 174.888718,121.693901 172.585358,127.663681 
	C168.216019,138.988007 163.742630,150.272903 159.475708,161.635498 
	C158.398849,164.503143 156.964905,165.889435 153.696426,165.880859 
	C150.555481,165.872589 148.907669,164.857803 147.733063,161.904770 
	C142.263947,148.155090 136.537460,134.508011 131.011780,120.780449 
	C128.942047,115.638618 126.084724,111.821709 119.913414,111.605453 
	C113.162949,111.368912 109.957878,114.145348 109.930855,120.960144 
	C109.866127,137.283035 109.970169,153.606781 109.868668,169.929306 
	C109.774216,185.119064 103.036003,191.970734 87.776138,191.828629 
	C82.035416,191.775162 76.197403,190.866638 70.604454,189.516479 
	C65.315041,188.239594 62.349037,184.002869 61.466549,178.721298 
	C61.300014,177.724594 62.958603,175.650665 64.092682,175.373474 
	C66.292404,174.835831 68.823540,174.808289 71.012703,175.368729 
	C72.487923,175.746399 74.351990,177.272491 74.770325,178.666489 
	C77.026917,186.186035 80.509705,188.784729 88.262184,188.074738 
	C94.506203,187.502899 97.925995,183.415070 98.144417,175.935608 
	C98.295044,170.777512 98.196236,165.611740 98.169022,160.449600 
	C98.166779,160.025909 97.857643,159.603806 97.968597,159.885529 
	C93.314423,161.917953 88.947212,165.056854 84.265526,165.630859 
	C71.872971,167.150269 62.930473,159.425568 61.537674,145.265320 
	C60.775127,137.512695 61.489784,129.142075 63.671589,121.673302 
	C67.900230,107.197800 84.523521,103.471527 95.605812,113.727089 
	C96.056801,114.144440 96.572456,114.491882 97.593399,115.290962 
	C97.942917,113.080215 98.208504,111.400360 98.579903,109.051216 
	C106.742592,109.051216 114.854042,108.974838 122.963188,109.078468 
	C128.242599,109.145927 134.681671,107.709801 138.459564,110.198448 
	C142.028000,112.549126 142.863663,119.122375 144.783463,123.885803 
	C148.425232,132.921753 151.982742,141.991669 156.181885,152.576630 
	C158.011642,148.132492 159.282669,145.045364 160.702423,141.597229 
M87.910538,159.551559 
	C94.919022,157.905380 97.375938,152.506378 97.915451,146.280563 
	C98.457855,140.021530 98.210762,133.676315 97.996559,127.379532 
	C97.926094,125.308151 97.129478,123.151474 96.227036,121.240593 
	C94.155067,116.853333 90.718796,114.046089 85.662827,114.401062 
	C80.665268,114.751923 77.455467,117.792465 75.978722,122.477760 
	C72.898827,132.249435 72.971039,142.098526 75.986282,151.850662 
	C77.719864,157.457504 80.976814,159.550323 87.910538,159.551559 
z"/>
<path fill="#FBFDFB" opacity="1.000000" stroke="none" 
	d="
M110.132858,22.093473 
	C123.819641,22.044014 137.506424,21.994553 151.639740,22.490522 
	C152.109360,30.618450 152.132462,38.200951 152.155579,45.783447 
	C138.485733,45.845539 124.815895,45.907635 110.676773,45.453880 
	C110.182610,37.323177 110.157738,29.708326 110.132858,22.093473 
z"/>
<path fill="#FAFCFA" opacity="1.000000" stroke="none" 
	d="
M133.116516,60.007111 
	C143.377884,59.963249 153.639236,59.919384 164.347534,60.450520 
	C164.779678,68.561813 164.764908,76.098114 164.750153,83.634399 
	C154.492477,83.704140 144.234802,83.773872 133.543427,83.324310 
	C133.111969,75.205704 133.114243,67.606407 133.116516,60.007111 
z"/>
<path fill="#F6F9FA" opacity="1.000000" stroke="none" 
	d="
M44.782249,137.999908 
	C44.788155,145.825165 44.518501,153.164825 44.901211,160.470322 
	C45.139145,165.012131 43.549786,166.521439 39.230721,165.938263 
	C37.465626,165.699921 35.641491,165.898865 33.089794,165.898865 
	C33.089794,163.016571 33.096077,160.589157 33.088707,158.161774 
	C33.056877,147.673752 33.026123,137.185730 32.985119,126.697731 
	C32.950035,117.724846 32.656067,117.319786 24.393923,114.195740 
	C24.017853,114.053551 23.787212,113.526741 22.699350,112.259186 
	C30.251970,110.842430 37.093533,109.559059 44.782310,108.116760 
	C44.782310,118.389595 44.782310,127.944748 44.782249,137.999908 
z"/>
<path fill="#F9F9F8" opacity="1.000000" stroke="none" 
	d="
M118.775490,83.711853 
	C113.812416,83.795036 108.845459,84.016800 103.888634,83.877556 
	C102.387413,83.835388 100.670837,83.101662 99.473473,82.153557 
	C95.744888,79.201134 92.217865,75.994156 88.872955,73.110321 
	C95.584885,61.429470 105.248337,57.254765 118.261169,59.926304 
	C118.684288,60.537380 118.764847,60.782593 118.855515,61.458107 
	C118.770668,69.184113 118.773079,76.447990 118.775490,83.711853 
z"/>
<path fill="#FAFBFB" opacity="1.000000" stroke="none" 
	d="
M56.177227,45.858665 
	C51.523495,45.935089 46.848404,46.300129 42.225639,45.958054 
	C40.124352,45.802563 37.873848,44.579128 36.136360,43.255531 
	C32.860500,40.760017 29.907200,37.841072 26.884840,35.155899 
	C33.350002,23.698818 42.905567,19.720947 55.716923,22.444641 
	C56.160221,30.611132 56.168724,38.234898 56.177227,45.858665 
z"/>
<path fill="#FCFBF9" opacity="1.000000" stroke="none" 
	d="
M80.969307,45.808258 
	C75.595932,45.873768 70.222565,45.939278 64.385994,45.469383 
	C63.875835,37.316620 63.828869,29.699263 63.781902,22.081905 
	C69.213837,22.034500 74.645775,21.987093 80.516068,22.486713 
	C80.959389,30.625246 80.964348,38.216755 80.969307,45.808258 
z"/>
<path fill="#F9FAF2" opacity="1.000000" stroke="none" 
	d="
M88.142258,22.108669 
	C92.685257,22.055161 97.228256,22.001652 102.207909,22.489773 
	C102.630821,30.637808 102.617081,38.244213 102.603333,45.850616 
	C98.118172,45.899876 93.633018,45.949135 88.687653,45.455994 
	C88.199059,37.311954 88.170654,29.710314 88.142258,22.108669 
z"/>
<path fill="#EE5F36" opacity="1.000000" stroke="none" 
	d="
M63.366535,22.017693 
	C63.828869,29.699263 63.875835,37.316620 63.919052,45.388519 
	C61.616898,45.903488 59.318485,45.963909 56.598652,45.941498 
	C56.168724,38.234898 56.160221,30.611132 56.193920,22.526894 
	C58.474472,22.028778 60.712818,21.991129 63.366535,22.017693 
z"/>
<path fill="#F0F5F7" opacity="1.000000" stroke="none" 
	d="
M39.054890,97.847809 
	C34.025879,96.903015 31.158995,93.931084 32.392452,89.411118 
	C33.061878,86.958008 36.025421,84.223160 38.540627,83.393631 
	C42.343624,82.139366 45.189411,84.774994 46.461201,88.504883 
	C47.941063,92.845016 45.230648,96.351547 39.054890,97.847809 
z"/>
<path fill="#98D748" opacity="1.000000" stroke="none" 
	d="
M165.214355,83.733536 
	C164.764908,76.098114 164.779678,68.561813 164.792526,60.559929 
	C167.049866,59.864990 169.309128,59.635639 171.994461,59.594498 
	C172.373306,67.435989 172.326080,75.089272 172.299744,83.176857 
	C170.106613,83.684990 167.892593,83.758827 165.214355,83.733536 
z"/>
<path fill="#FDD318" opacity="1.000000" stroke="none" 
	d="
M132.671371,59.909706 
	C133.114243,67.606407 133.111969,75.205704 133.084412,83.249306 
	C130.976547,83.748795 128.893951,83.803970 126.376472,83.326767 
	C125.923347,75.188210 125.905113,67.582031 125.886871,59.975853 
	C127.999992,59.921333 130.113113,59.866817 132.671371,59.909706 
z"/>
<path fill="#FCC221" opacity="1.000000" stroke="none" 
	d="
M152.593201,45.877945 
	C152.132462,38.200951 152.109360,30.618450 152.110016,22.578016 
	C154.242645,22.061563 156.351517,22.003046 158.917450,22.035206 
	C159.379929,29.710072 159.385315,37.294262 159.416367,45.328201 
	C157.304977,45.842777 155.167923,45.907608 152.593201,45.877945 
z"/>
<path fill="#8CC543" opacity="1.000000" stroke="none" 
	d="
M103.080727,45.923508 
	C102.617081,38.244213 102.630821,30.637808 102.645142,22.570820 
	C104.833092,22.069702 107.020462,22.029167 109.670349,22.041054 
	C110.157738,29.708326 110.182610,37.323177 110.226959,45.393494 
	C108.016998,45.898102 105.787560,45.947250 103.080727,45.923508 
z"/>
<path fill="#FCC21C" opacity="1.000000" stroke="none" 
	d="
M87.697533,22.032154 
	C88.170654,29.710314 88.199059,37.311954 88.248062,45.366859 
	C86.132553,45.879642 83.996445,45.939163 81.414818,45.903473 
	C80.964348,38.216755 80.959389,30.625246 80.977127,22.575596 
	C83.084145,22.063515 85.168480,22.009575 87.697533,22.032154 
z"/>
<path fill="#FB6129" opacity="1.000000" stroke="none" 
	d="
M125.567001,59.766548 
	C125.905113,67.582031 125.923347,75.188210 125.939087,83.239807 
	C125.936592,83.685219 125.576660,83.841202 125.576660,83.841202 
	C125.576660,83.841202 125.185150,83.815880 124.993515,83.449295 
	C124.491333,83.223320 124.180794,83.363937 123.870255,83.504562 
	C123.187172,83.580429 122.504097,83.656303 121.447937,83.149536 
	C121.050713,76.797318 121.159866,71.021919 120.909126,65.262199 
	C120.846100,63.814335 119.629326,62.416695 118.942764,60.995972 
	C118.764847,60.782593 118.684288,60.537380 118.678772,60.070686 
	C120.853340,59.773109 123.050224,59.665176 125.567001,59.766548 
z"/>
<path fill="#FF541D" opacity="1.000000" stroke="none" 
	d="
M118.855515,61.458107 
	C119.629326,62.416695 120.846100,63.814335 120.909126,65.262199 
	C121.159866,71.021919 121.050713,76.797318 121.107483,83.086914 
	C120.550545,83.687798 119.960976,83.768661 119.073456,83.780693 
	C118.773079,76.447990 118.770668,69.184113 118.855515,61.458107 
z"/>
<path fill="#FF541D" opacity="1.000000" stroke="none" 
	d="
M124.110733,83.580826 
	C124.180794,83.363937 124.491333,83.223320 124.827415,83.343224 
	C124.685707,83.621529 124.518456,83.639305 124.110733,83.580826 
z"/>
<path fill="#E2E7DA" opacity="1.000000" stroke="none" 
	d="
M197.094818,22.232220 
	C197.333389,22.169327 197.641724,22.317272 197.896027,22.735558 
	C197.564865,22.880032 197.339066,22.692419 197.094818,22.232220 
z"/>
<path fill="#498C9B" opacity="1.000000" stroke="none" 
	d="
M87.529938,159.637329 
	C80.976814,159.550323 77.719864,157.457504 75.986282,151.850662 
	C72.971039,142.098526 72.898827,132.249435 75.978722,122.477760 
	C77.455467,117.792465 80.665268,114.751923 85.662827,114.401062 
	C90.718796,114.046089 94.155067,116.853333 96.227036,121.240593 
	C97.129478,123.151474 97.926094,125.308151 97.996559,127.379532 
	C98.210762,133.676315 98.457855,140.021530 97.915451,146.280563 
	C97.375938,152.506378 94.919022,157.905380 87.529938,159.637329 
z"/>
</svg>