<?xml version="1.0" encoding="utf-8" standalone="no"?>
<!DOCTYPE svg PUBLIC "-//W3C//DTD SVG 1.1//EN"
  "http://www.w3.org/Graphics/SVG/1.1/DTD/svg11.dtd">
<svg xmlns:xlink="http://www.w3.org/1999/xlink" width="142.91pt" height="142.91pt" viewBox="0 0 142.91 142.91" xmlns="http://www.w3.org/2000/svg" version="1.1">
 <metadata>
  <rdf:RDF xmlns:dc="http://purl.org/dc/elements/1.1/" xmlns:cc="http://creativecommons.org/ns#" xmlns:rdf="http://www.w3.org/1999/02/22-rdf-syntax-ns#">
   <cc:Work>
    <dc:type rdf:resource="http://purl.org/dc/dcmitype/StillImage"/>
    <dc:date>2025-01-04T11:16:59.222545</dc:date>
    <dc:format>image/svg+xml</dc:format>
    <dc:creator>
     <cc:Agent>
      <dc:title>Matplotlib v3.8.4, https://matplotlib.org/</dc:title>
     </cc:Agent>
    </dc:creator>
   </cc:Work>
  </rdf:RDF>
 </metadata>
 <defs>
  <style type="text/css">*{stroke-linejoin: round; stroke-linecap: butt}</style>
 </defs>
 <g id="figure_1">
  <g id="patch_1">
   <path d="M 0 142.91 
L 142.91 142.91 
L 142.91 0 
L 0 0 
L 0 142.91 
z
" style="fill: none"/>
  </g>
  <g id="axes_1">
   <g id="patch_2">
    <path d="M 7.2 126.07175 
L 20.051 126.07175 
L 20.051 113.22075 
L 7.2 113.22075 
z
" clip-path="url(#p0940925877)" style="fill: #4f1a3d; opacity: 0.00009"/>
   </g>
   <g id="patch_3">
    <path d="M 7.2 100.36975 
L 20.051 100.36975 
L 20.051 87.51875 
L 7.2 87.51875 
z
" clip-path="url(#p0940925877)" style="fill: #4f1a3d; opacity: 0.00313"/>
   </g>
   <g id="patch_4">
    <path d="M 7.2 74.66775 
L 20.051 74.66775 
L 20.051 61.81675 
L 7.2 61.81675 
z
" clip-path="url(#p0940925877)" style="fill: #4f1a3d; opacity: 0.006614"/>
   </g>
   <g id="patch_5">
    <path d="M 7.2 48.96575 
L 20.051 48.96575 
L 20.051 36.11475 
L 7.2 36.11475 
z
" clip-path="url(#p0940925877)" style="fill: #4f1a3d; opacity: 0.000727"/>
   </g>
   <g id="patch_6">
    <path d="M 20.051 113.22075 
L 32.902 113.22075 
L 32.902 100.36975 
L 20.051 100.36975 
z
" clip-path="url(#p0940925877)" style="fill: #3e2e5e; opacity: 0.003897"/>
   </g>
   <g id="patch_7">
    <path d="M 20.051 87.51875 
L 32.902 87.51875 
L 32.902 74.66775 
L 20.051 74.66775 
z
" clip-path="url(#p0940925877)" style="fill: #3e2e5e; opacity: 0.035437"/>
   </g>
   <g id="patch_8">
    <path d="M 20.051 61.81675 
L 32.902 61.81675 
L 32.902 48.96575 
L 20.051 48.96575 
z
" clip-path="url(#p0940925877)" style="fill: #3e2e5e; opacity: 0.016772"/>
   </g>
   <g id="patch_9">
    <path d="M 20.051 36.11475 
L 32.902 36.11475 
L 32.902 23.26375 
L 20.051 23.26375 
z
" clip-path="url(#p0940925877)" style="fill: #3e2e5e; opacity: 0.000482"/>
   </g>
   <g id="patch_10">
    <path d="M 32.902 126.07175 
L 45.753 126.07175 
L 45.753 113.22075 
L 32.902 113.22075 
z
" clip-path="url(#p0940925877)" style="fill: #335285; opacity: 0.001879"/>
   </g>
   <g id="patch_11">
    <path d="M 32.902 100.36975 
L 45.753 100.36975 
L 45.753 87.51875 
L 32.902 87.51875 
z
" clip-path="url(#p0940925877)" style="fill: #335285; opacity: 0.065432"/>
   </g>
   <g id="patch_12">
    <path d="M 32.902 74.66775 
L 45.753 74.66775 
L 45.753 61.81675 
L 32.902 61.81675 
z
" clip-path="url(#p0940925877)" style="fill: #335285; opacity: 0.138249"/>
   </g>
   <g id="patch_13">
    <path d="M 32.902 48.96575 
L 45.753 48.96575 
L 45.753 36.11475 
L 32.902 36.11475 
z
" clip-path="url(#p0940925877)" style="fill: #335285; opacity: 0.015202"/>
   </g>
   <g id="patch_14">
    <path d="M 45.753 113.22075 
L 58.604 113.22075 
L 58.604 100.36975 
L 45.753 100.36975 
z
" clip-path="url(#p0940925877)" style="fill: #4f7fa8; opacity: 0.040409"/>
   </g>
   <g id="patch_15">
    <path d="M 45.753 87.51875 
L 58.604 87.51875 
L 58.604 74.66775 
L 45.753 74.66775 
z
" clip-path="url(#p0940925877)" style="fill: #4f7fa8; opacity: 0.367481"/>
   </g>
   <g id="patch_16">
    <path d="M 45.753 61.81675 
L 58.604 61.81675 
L 58.604 48.96575 
L 45.753 48.96575 
z
" clip-path="url(#p0940925877)" style="fill: #4f7fa8; opacity: 0.173927"/>
   </g>
   <g id="patch_17">
    <path d="M 45.753 36.11475 
L 58.604 36.11475 
L 58.604 23.26375 
L 45.753 23.26375 
z
" clip-path="url(#p0940925877)" style="fill: #4f7fa8; opacity: 0.004996"/>
   </g>
   <g id="patch_18">
    <path d="M 58.604 126.07175 
L 71.455 126.07175 
L 71.455 113.22075 
L 58.604 113.22075 
z
" clip-path="url(#p0940925877)" style="fill: #8bacc3; opacity: 0.009003"/>
   </g>
   <g id="patch_19">
    <path d="M 58.604 100.36975 
L 71.455 100.36975 
L 71.455 87.51875 
L 58.604 87.51875 
z
" clip-path="url(#p0940925877)" style="fill: #8bacc3; opacity: 0.313464"/>
   </g>
   <g id="patch_20">
    <path d="M 58.604 74.66775 
L 71.455 74.66775 
L 71.455 61.81675 
L 58.604 61.81675 
z
" clip-path="url(#p0940925877)" style="fill: #8bacc3; opacity: 0.662304"/>
   </g>
   <g id="patch_21">
    <path d="M 58.604 48.96575 
L 71.455 48.96575 
L 71.455 36.11475 
L 58.604 36.11475 
z
" clip-path="url(#p0940925877)" style="fill: #8bacc3; opacity: 0.072828"/>
   </g>
   <g id="patch_22">
    <path d="M 71.455 113.22075 
L 84.306 113.22075 
L 84.306 100.36975 
L 71.455 100.36975 
z
" clip-path="url(#p0940925877)" style="fill: #c4c2c3; opacity: 0.088669"/>
   </g>
   <g id="patch_23">
    <path d="M 71.455 87.51875 
L 84.306 87.51875 
L 84.306 74.66775 
L 71.455 74.66775 
z
" clip-path="url(#p0940925877)" style="fill: #c4c2c3; opacity: 0.806357"/>
   </g>
   <g id="patch_24">
    <path d="M 71.455 61.81675 
L 84.306 61.81675 
L 84.306 48.96575 
L 71.455 48.96575 
z
" clip-path="url(#p0940925877)" style="fill: #c4c2c3; opacity: 0.381643"/>
   </g>
   <g id="patch_25">
    <path d="M 71.455 36.11475 
L 84.306 36.11475 
L 84.306 23.26375 
L 71.455 23.26375 
z
" clip-path="url(#p0940925877)" style="fill: #c4c2c3; opacity: 0.010962"/>
   </g>
   <g id="patch_26">
    <path d="M 84.306 126.07175 
L 97.157 126.07175 
L 97.157 113.22075 
L 84.306 113.22075 
z
" clip-path="url(#p0940925877)" style="fill: #d9b29d; opacity: 0.009003"/>
   </g>
   <g id="patch_27">
    <path d="M 84.306 100.36975 
L 97.157 100.36975 
L 97.157 87.51875 
L 84.306 87.51875 
z
" clip-path="url(#p0940925877)" style="fill: #d9b29d; opacity: 0.313464"/>
   </g>
   <g id="patch_28">
    <path d="M 84.306 74.66775 
L 97.157 74.66775 
L 97.157 61.81675 
L 84.306 61.81675 
z
" clip-path="url(#p0940925877)" style="fill: #d9b29d; opacity: 0.662304"/>
   </g>
   <g id="patch_29">
    <path d="M 84.306 48.96575 
L 97.157 48.96575 
L 97.157 36.11475 
L 84.306 36.11475 
z
" clip-path="url(#p0940925877)" style="fill: #d9b29d; opacity: 0.072828"/>
   </g>
   <g id="patch_30">
    <path d="M 97.157 113.22075 
L 110.008 113.22075 
L 110.008 100.36975 
L 97.157 100.36975 
z
" clip-path="url(#p0940925877)" style="fill: #ce8b68; opacity: 0.040409"/>
   </g>
   <g id="patch_31">
    <path d="M 97.157 87.51875 
L 110.008 87.51875 
L 110.008 74.66775 
L 97.157 74.66775 
z
" clip-path="url(#p0940925877)" style="fill: #ce8b68; opacity: 0.367481"/>
   </g>
   <g id="patch_32">
    <path d="M 97.157 61.81675 
L 110.008 61.81675 
L 110.008 48.96575 
L 97.157 48.96575 
z
" clip-path="url(#p0940925877)" style="fill: #ce8b68; opacity: 0.173927"/>
   </g>
   <g id="patch_33">
    <path d="M 97.157 36.11475 
L 110.008 36.11475 
L 110.008 23.26375 
L 97.157 23.26375 
z
" clip-path="url(#p0940925877)" style="fill: #ce8b68; opacity: 0.004996"/>
   </g>
   <g id="patch_34">
    <path d="M 110.008 126.07175 
L 122.859 126.07175 
L 122.859 113.22075 
L 110.008 113.22075 
z
" clip-path="url(#p0940925877)" style="fill: #ac5935; opacity: 0.001879"/>
   </g>
   <g id="patch_35">
    <path d="M 110.008 100.36975 
L 122.859 100.36975 
L 122.859 87.51875 
L 110.008 87.51875 
z
" clip-path="url(#p0940925877)" style="fill: #ac5935; opacity: 0.065432"/>
   </g>
   <g id="patch_36">
    <path d="M 110.008 74.66775 
L 122.859 74.66775 
L 122.859 61.81675 
L 110.008 61.81675 
z
" clip-path="url(#p0940925877)" style="fill: #ac5935; opacity: 0.138249"/>
   </g>
   <g id="patch_37">
    <path d="M 110.008 48.96575 
L 122.859 48.96575 
L 122.859 36.11475 
L 110.008 36.11475 
z
" clip-path="url(#p0940925877)" style="fill: #ac5935; opacity: 0.015202"/>
   </g>
   <g id="patch_38">
    <path d="M 122.859 113.22075 
L 135.71 113.22075 
L 135.71 100.36975 
L 122.859 100.36975 
z
" clip-path="url(#p0940925877)" style="fill: #812b1e; opacity: 0.003897"/>
   </g>
   <g id="patch_39">
    <path d="M 122.859 87.51875 
L 135.71 87.51875 
L 135.71 74.66775 
L 122.859 74.66775 
z
" clip-path="url(#p0940925877)" style="fill: #812b1e; opacity: 0.035437"/>
   </g>
   <g id="patch_40">
    <path d="M 122.859 61.81675 
L 135.71 61.81675 
L 135.71 48.96575 
L 122.859 48.96575 
z
" clip-path="url(#p0940925877)" style="fill: #812b1e; opacity: 0.016772"/>
   </g>
   <g id="patch_41">
    <path d="M 122.859 36.11475 
L 135.71 36.11475 
L 135.71 23.26375 
L 122.859 23.26375 
z
" clip-path="url(#p0940925877)" style="fill: #812b1e; opacity: 0.000482"/>
   </g>
   <g id="patch_42">
    <path d="M 135.71 126.07175 
L 148.561 126.07175 
L 148.561 113.22075 
L 135.71 113.22075 
z
" clip-path="url(#p0940925877)" style="fill: #631626; opacity: 0.00009"/>
   </g>
   <g id="patch_43">
    <path d="M 135.71 100.36975 
L 148.561 100.36975 
L 148.561 87.51875 
L 135.71 87.51875 
z
" clip-path="url(#p0940925877)" style="fill: #631626; opacity: 0.00313"/>
   </g>
   <g id="patch_44">
    <path d="M 135.71 74.66775 
L 148.561 74.66775 
L 148.561 61.81675 
L 135.71 61.81675 
z
" clip-path="url(#p0940925877)" style="fill: #631626; opacity: 0.006614"/>
   </g>
   <g id="patch_45">
    <path d="M 135.71 48.96575 
L 148.561 48.96575 
L 148.561 36.11475 
L 135.71 36.11475 
z
" clip-path="url(#p0940925877)" style="fill: #631626; opacity: 0.000727"/>
   </g>
   <g id="text_1">
    <path d="M 21.870938 48.952613 
Q 21.799688 48.471675 21.686875 48.358863 
Q 21.948125 47.693863 22.072813 47.046675 
Q 22.203438 46.39355 22.280625 45.7998 
Q 22.351875 45.2773 22.446875 44.831988 
Q 22.541875 44.386675 22.690313 43.982925 
Q 23.319688 43.834488 23.634375 43.442613 
Q 23.949063 43.050738 24.133125 42.753863 
Q 24.804063 42.718238 25.005938 42.943863 
Q 25.21375 43.16355 25.469063 43.68605 
Q 25.659063 44.0898 25.991563 44.558863 
Q 26.324063 45.021988 26.995 45.2773 
Q 27.101875 45.686988 27.250313 46.06105 
Q 27.39875 46.429175 27.58875 46.838863 
Q 27.92125 47.616675 28.218125 48.453862 
Q 28.515 49.285113 28.550625 50.0273 
Q 28.105313 50.8823 27.861875 51.99855 
Q 27.624375 53.108863 27.565 54.242925 
Q 27.511563 55.37105 27.624375 56.410113 
Q 27.737188 57.449175 27.9925 58.155738 
L 28.218125 58.749488 
L 29.031563 58.678238 
Q 30.3675 58.3398 31.442188 57.918238 
Q 32.522813 57.490738 33.449063 56.896988 
Q 34.375313 56.303238 35.230313 55.543238 
Q 36.085313 54.7773 37.011563 53.738238 
Q 37.902188 52.699175 38.60875 51.386988 
Q 39.315313 50.068863 39.778438 48.661675 
Q 40.241563 47.24855 40.496875 45.841363 
Q 40.758125 44.428238 40.835313 43.199175 
Q 41.541875 42.866675 41.613125 42.124488 
L 41.500313 41.64355 
Q 41.393438 41.459488 41.41125 41.293238 
Q 41.429063 41.12105 41.500313 40.972613 
Q 41.797188 40.12355 42.765 39.713863 
Q 43.43 40.159175 44.005938 40.681675 
Q 44.581875 41.198238 45.062813 41.7148 
Q 45.14 42.718238 45.359688 43.442613 
Q 45.585313 44.166988 45.846563 44.831988 
Q 46.101875 45.4673 46.30375 46.06105 
Q 46.511563 46.6548 46.58875 47.503863 
Q 46.214688 48.620113 46.048438 49.605738 
Q 45.882188 50.585425 45.73375 51.660113 
L 45.656563 52.0698 
Q 44.991563 53.221675 44.338438 54.426988 
Q 43.69125 55.6323 43.281563 56.522925 
Q 43.061875 56.74855 42.895625 57.045425 
Q 42.729375 57.3423 42.580938 57.639175 
Q 42.50375 57.74605 42.373125 58.0073 
Q 42.2425 58.26855 42.135625 58.381363 
L 41.245 58.042925 
L 41.019375 59.1948 
L 40.425625 59.343238 
L 39.980313 59.865738 
Q 39.125313 61.350113 38.18125 62.35355 
Q 37.237188 63.35105 36.0675 64.1348 
Q 34.897813 64.912613 33.43125 65.601363 
Q 31.964688 66.284175 30.070625 67.061988 
Q 29.328438 66.949175 28.788125 66.931363 
Q 28.25375 66.91355 27.737188 66.877925 
Q 27.214688 66.877925 26.73375 66.8423 
Q 26.252813 66.800738 25.6175 66.729488 
Q 25.469063 66.396988 25.207813 66.24855 
Q 24.9525 66.100113 24.726875 66.100113 
Q 23.984688 65.72605 23.610625 65.06105 
Q 23.2425 64.390113 22.83875 63.576675 
Q 22.64875 63.131363 22.446875 62.68605 
Q 22.245 62.240738 21.948125 61.83105 
L 22.690313 61.605425 
L 21.7225 60.495113 
Q 21.609688 60.3823 21.479063 60.275425 
Q 21.354375 60.162613 21.241563 60.014175 
L 21.241563 59.307613 
Q 21.093125 56.261675 21.110938 53.6848 
Q 21.12875 51.107925 21.799688 49.136675 
L 21.870938 48.952613 
z
M 55.417813 66.91355 
Q 54.37875 67.24605 53.155625 67.57855 
Q 51.9325 67.916988 50.703438 67.916988 
Q 48.850938 67.916988 47.77625 66.990738 
Q 47.58625 66.58105 47.437813 66.432613 
Q 47.330938 66.284175 47.235938 66.117925 
Q 47.140938 65.951675 47.105313 65.6548 
Q 46.66 65.1323 46.39875 64.449488 
Q 46.143438 63.760738 46.048438 63.036363 
Q 45.953438 62.311988 46.006875 61.5698 
Q 46.06625 60.827613 46.250313 60.162613 
Q 46.3275 60.014175 46.345313 59.865738 
Q 46.363125 59.7173 46.39875 59.5273 
Q 46.547188 58.93355 46.713438 58.381363 
Q 46.885625 57.823238 47.1825 57.41355 
Q 47.034063 57.08105 47.1825 56.671363 
Q 47.330938 56.261675 47.515 55.929175 
Q 48.031563 54.521988 48.381875 53.536363 
Q 48.738125 52.550738 49.112188 51.588863 
Q 49.741563 49.920425 50.29375 48.287613 
Q 50.851875 46.6548 51.297188 44.760738 
Q 51.594063 44.576675 51.7425 44.499488 
Q 51.968125 44.428238 52.116563 44.386675 
Q 52.781563 44.725113 53.672188 45.0398 
Q 54.562813 45.354488 55.156563 45.354488 
Q 55.453438 45.53855 55.524688 45.63355 
Q 55.601875 45.722613 55.679063 45.7998 
Q 56.08875 46.280738 56.385625 46.785425 
Q 56.6825 47.284175 56.569688 48.097613 
Q 56.344063 48.43605 56.237188 48.43605 
Q 56.047188 49.178238 55.845313 49.700738 
Q 55.643438 50.2173 55.417813 50.733863 
Q 55.156563 51.291988 54.930938 51.850113 
Q 54.71125 52.4023 54.562813 53.221675 
Q 54.414375 53.405738 54.360938 53.554175 
Q 54.3075 53.702613 54.230313 53.886675 
Q 54.159063 54.076675 54.064063 54.27855 
Q 53.969063 54.480425 53.785 54.628863 
Q 53.672188 55.596675 53.42875 56.190425 
Q 53.19125 56.784175 52.93 57.377925 
Q 52.484688 58.452613 52.134375 59.533238 
Q 51.784063 60.607925 51.706875 61.979488 
Q 51.890938 61.9023 52.057188 61.9023 
Q 52.229375 61.9023 52.377813 61.9023 
Q 52.710313 61.9023 53.155625 62.015113 
Q 54.265938 61.421363 55.584063 61.314488 
Q 56.902188 61.201675 58.2025 61.160113 
Q 58.719063 61.160113 59.235625 61.160113 
Q 59.758125 61.160113 60.203438 61.088863 
Q 60.541875 61.272925 60.630938 61.290738 
Q 60.725938 61.30855 60.91 61.30855 
Q 61.17125 61.30855 61.355313 61.350113 
Q 61.800625 61.753863 62.210313 61.943863 
Q 62.62 62.127925 63.065313 62.276363 
Q 63.469063 62.4248 63.860938 62.59105 
Q 64.252813 62.7573 64.620938 63.054175 
L 64.882188 64.651363 
Q 65.143438 64.983863 65.101875 65.096675 
Q 65.101875 65.39355 64.953438 65.541988 
L 65.030625 65.951675 
Q 64.4725 66.05855 64.264688 66.206988 
Q 64.062813 66.355425 63.87875 66.545425 
Q 63.581875 66.58105 63.45125 66.58105 
Q 63.320625 66.58105 63.21375 66.58105 
Q 62.69125 66.58105 61.949063 66.765113 
Q 60.945625 66.432613 59.870938 66.432613 
Q 59.46125 66.432613 59.015938 66.468238 
Q 58.570625 66.503863 58.125313 66.545425 
Q 57.68 66.616675 57.216875 66.658237 
Q 56.75375 66.693863 56.272813 66.693863 
L 55.417813 66.91355 
z
M 83.956406 49.475113 
Q 83.030156 49.475113 81.955469 49.605738 
Q 80.880781 49.730425 79.841719 49.878863 
Q 79.099531 49.991675 78.410781 50.068863 
Q 77.722031 50.140113 77.169844 50.175738 
Q 76.908594 50.995113 76.647344 51.624488 
Q 76.386094 52.253863 76.089219 52.847613 
Q 75.792344 53.482925 75.548906 54.130113 
Q 75.311406 54.7773 75.091719 55.519488 
Q 74.717656 56.113238 74.474219 56.617925 
Q 74.236719 57.116675 74.088281 57.74605 
Q 73.642969 58.304175 73.417344 58.915738 
Q 73.197656 59.5273 73.084844 59.972613 
L 72.936406 60.417925 
Q 72.716719 60.64355 72.675156 60.774175 
Q 72.639531 60.9048 72.491094 61.011675 
Q 72.455469 61.421363 72.229844 61.83105 
Q 72.158594 62.015113 72.117031 62.181363 
Q 72.081406 62.347613 72.081406 62.4248 
Q 72.081406 62.792925 71.897344 62.905738 
Q 71.932969 63.0898 71.897344 63.297613 
Q 71.861719 63.499488 71.826094 63.68355 
Q 71.713281 64.128863 71.748906 64.390113 
Q 71.861719 64.53855 71.950781 64.651363 
Q 72.045781 64.764175 72.081406 64.948238 
Q 72.307031 65.096675 72.419844 65.1323 
Q 72.568281 65.245113 72.865156 65.39355 
L 73.197656 65.761675 
Q 73.381719 66.8423 72.865156 67.471675 
Q 72.307031 68.178238 70.971094 68.178238 
L 70.525781 68.178238 
Q 70.341719 67.994175 70.300156 67.881363 
Q 70.003281 67.76855 69.819219 67.691363 
Q 69.635156 67.620113 69.486719 67.400425 
Q 69.005781 67.1748 68.708906 67.026363 
L 68.370469 66.8423 
Q 68.370469 66.432613 68.370469 66.396988 
Q 68.115156 66.05855 67.984531 65.6548 
Q 67.853906 65.245113 67.776719 64.835425 
Q 67.705469 64.502925 67.610469 64.20605 
Q 67.521406 63.909175 67.372969 63.68355 
Q 67.295781 61.534175 67.776719 60.0498 
Q 68.263594 58.565425 68.780156 57.193863 
Q 69.077031 56.451675 69.373906 55.691675 
Q 69.670781 54.925738 69.896406 54.1123 
L 70.228906 53.738238 
Q 70.490156 53.144488 70.656406 52.75855 
Q 70.822656 52.366675 71.006719 51.956988 
Q 71.119531 51.701675 71.208594 51.458238 
Q 71.303594 51.2148 71.380781 51.030738 
Q 71.155156 51.030738 70.971094 51.04855 
Q 70.787031 51.066363 70.597031 51.107925 
Q 70.377344 51.14355 70.187344 51.161363 
Q 70.003281 51.179175 69.819219 51.179175 
Q 69.557969 51.179175 69.451094 51.14355 
Q 69.041406 51.327613 68.560469 51.327613 
L 68.186406 51.327613 
Q 68.073594 51.327613 67.978594 51.3098 
Q 67.889531 51.291988 67.818281 51.291988 
Q 67.444219 51.291988 67.224531 51.4048 
Q 66.779219 51.4048 66.369531 51.4048 
L 65.995469 51.4048 
Q 65.924219 51.4048 65.811406 51.422613 
Q 65.698594 51.440425 65.627344 51.440425 
Q 65.366094 51.440425 65.069219 51.386988 
Q 64.772344 51.327613 64.439844 51.14355 
Q 63.994531 50.5498 63.846094 50.514175 
L 63.513594 50.068863 
Q 63.472031 49.843238 63.394844 49.641362 
Q 63.323594 49.43355 63.252344 49.178238 
Q 63.103906 48.804175 62.973281 48.376675 
Q 62.842656 47.949175 62.842656 47.355425 
Q 62.878281 47.05855 62.991094 46.910113 
Q 63.103906 46.761675 63.175156 46.6548 
L 63.287969 46.096675 
L 63.768906 46.1323 
L 64.807969 46.1323 
Q 65.995469 46.1323 67.218594 46.043238 
Q 68.447656 45.948238 69.747969 45.835425 
Q 70.490156 45.764175 71.250156 45.692925 
Q 72.010156 45.615738 72.823594 45.53855 
Q 72.972031 45.20605 73.120469 44.909175 
L 73.494531 44.725113 
Q 74.159531 44.68355 74.438594 44.891362 
Q 74.717656 45.093238 74.901719 45.2773 
Q 75.721094 45.20605 76.552344 45.116988 
Q 77.389531 45.021988 78.244531 44.87355 
Q 79.503281 44.68355 80.785781 44.535113 
Q 82.068281 44.386675 83.255781 44.386675 
Q 83.772344 44.386675 84.253281 44.428238 
Q 84.740156 44.463863 85.143906 44.535113 
L 85.517969 44.796363 
Q 85.630781 45.021988 85.832656 45.20605 
Q 86.034531 45.390113 86.260156 45.574175 
Q 86.705469 45.983863 87.150781 46.541988 
Q 87.596094 47.100113 87.483281 48.1748 
Q 87.186406 48.620113 87.037969 48.691363 
L 86.705469 49.136675 
L 86.331406 49.10105 
Q 86.111719 49.10105 85.921719 49.160425 
Q 85.737656 49.213863 85.553594 49.285113 
Q 85.405156 49.3623 85.256719 49.421675 
Q 85.108281 49.475113 84.924219 49.510738 
Q 84.591719 49.510738 84.383906 49.492925 
Q 84.182031 49.475113 83.956406 49.475113 
z
M 87.036484 63.463863 
Q 86.632734 64.948238 86.312109 65.708238 
Q 85.997422 66.468238 85.368047 67.287613 
Q 84.887109 67.210425 84.697109 67.394488 
Q 84.513047 67.584488 84.293359 67.732925 
Q 83.960859 67.804175 83.812422 67.726988 
Q 83.663984 67.655738 83.551172 67.560738 
Q 83.438359 67.471675 83.272109 67.376675 
Q 83.105859 67.287613 82.773359 67.287613 
Q 82.696172 66.990738 82.601172 66.729488 
Q 82.512109 66.468238 82.102422 66.545425 
Q 82.179609 66.24855 82.138047 66.046675 
Q 82.102422 65.838863 82.043047 65.672612 
Q 81.989609 65.506363 81.953984 65.340113 
Q 81.918359 65.167925 81.989609 64.912613 
Q 81.805547 64.912613 81.692734 64.651363 
Q 81.585859 64.390113 81.437422 64.128863 
Q 81.544297 63.463863 81.657109 62.870113 
Q 81.769922 62.276363 81.936172 61.7598 
Q 82.102422 61.2373 82.215234 60.720738 
Q 82.328047 60.198238 82.102422 59.640113 
Q 82.250859 59.752925 82.322109 59.586675 
Q 82.399297 59.420425 82.434922 59.141363 
Q 82.476484 58.8623 82.476484 58.583238 
Q 82.476484 58.304175 82.434922 58.120113 
Q 82.808984 57.1523 83.046484 56.136988 
Q 83.289922 55.115738 83.491797 54.1123 
Q 83.699609 53.108863 83.919297 52.146988 
Q 84.144922 51.179175 84.513047 50.365738 
Q 84.922734 50.28855 85.421484 50.4548 
Q 85.926172 50.62105 86.038984 50.8823 
Q 87.000859 50.140113 87.743047 49.083238 
Q 88.485234 48.026363 89.263047 47.022925 
Q 90.046797 46.019488 90.990859 45.241675 
Q 91.934922 44.463863 93.383672 44.315425 
Q 94.125859 44.87355 95.034297 45.449488 
Q 95.942734 46.019488 96.536484 46.951675 
Q 96.833359 47.100113 97.035234 47.266362 
Q 97.243047 47.432613 97.539922 47.616675 
L 97.539922 48.061988 
Q 97.985234 48.471675 98.264297 49.011988 
Q 98.543359 49.546363 98.763047 50.157925 
Q 98.988672 50.769488 99.208359 51.386988 
Q 99.433984 51.99855 99.730859 52.550738 
Q 99.653672 52.740738 99.653672 52.871363 
Q 99.653672 52.99605 99.707109 53.144488 
Q 99.766484 53.292925 99.802109 53.441363 
Q 99.843672 53.5898 99.802109 53.85105 
Q 99.695234 55.483863 98.745234 56.4873 
Q 97.801172 57.490738 96.465234 58.137925 
Q 95.129297 58.785113 93.603359 59.230425 
Q 92.083359 59.675738 90.860234 60.198238 
Q 90.860234 60.346675 90.990859 60.346675 
Q 91.121484 60.346675 91.085859 60.530738 
Q 91.976484 61.088863 92.493047 61.421363 
Q 93.015547 61.753863 93.478672 61.979488 
Q 93.941797 62.199175 94.476172 62.371363 
Q 95.016484 62.537613 95.984297 62.7573 
Q 96.946172 62.982925 97.480547 63.11355 
Q 98.020859 63.238238 98.466172 63.333238 
Q 98.911484 63.428238 99.374609 63.481675 
Q 99.843672 63.535113 100.692734 63.6123 
Q 101.031172 63.9448 101.268672 64.407925 
Q 101.512109 64.87105 101.583359 65.340113 
Q 101.660547 65.803238 101.618984 66.230738 
Q 101.583359 66.6523 101.363672 66.91355 
Q 101.399297 67.026363 101.529922 67.00855 
Q 101.660547 66.990738 101.808984 67.026363 
Q 101.583359 67.1748 101.434922 67.394488 
Q 101.286484 67.620113 101.138047 67.8398 
Q 100.989609 68.065425 100.805547 68.231675 
Q 100.621484 68.397925 100.288984 68.439487 
Q 99.137109 68.8848 97.391484 68.492925 
Q 95.645859 68.10105 92.973984 67.061988 
Q 91.638047 66.545425 90.800859 66.15355 
Q 89.969609 65.761675 89.358047 65.375737 
Q 88.746484 64.983863 88.241797 64.53855 
Q 87.743047 64.093238 87.036484 63.463863 
z
M 92.344609 50.733863 
Q 91.934922 51.327613 91.436172 51.814488 
Q 90.937422 52.295425 90.468359 52.794175 
Q 90.005234 53.292925 89.631172 53.910425 
Q 89.263047 54.521988 89.114609 55.335425 
Q 90.414922 55.186988 91.822109 54.61105 
Q 93.235234 54.035113 94.499922 53.51855 
Q 94.351484 52.366675 93.698359 51.66605 
Q 93.051172 50.959488 92.344609 50.733863 
z
M 121.251328 64.20605 
Q 121.031641 64.835425 120.604141 65.48855 
Q 120.176641 66.135738 119.600703 66.640425 
Q 119.024766 67.139175 118.318203 67.471675 
Q 117.617578 67.804175 116.839766 67.845737 
Q 116.352891 67.732925 116.186641 67.6023 
Q 116.020391 67.471675 115.836328 67.358863 
Q 115.723516 67.287613 115.628516 67.234175 
Q 115.539453 67.1748 115.462266 67.139175 
L 115.016953 66.949175 
L 115.165391 66.468238 
Q 115.242578 66.171363 115.129766 66.005113 
Q 115.016953 65.838863 114.684453 65.541988 
Q 114.571641 65.429175 114.458828 65.3223 
Q 114.351953 65.209488 114.274766 65.096675 
L 113.645391 64.390113 
L 114.648828 64.128863 
Q 115.575078 63.87355 115.889766 63.463863 
Q 116.204453 63.054175 116.133203 62.0923 
Q 115.391016 61.943863 114.886328 62.056675 
Q 114.387578 62.16355 113.871016 62.311988 
Q 113.200078 62.49605 112.511328 62.626675 
Q 111.828516 62.7573 111.009141 62.7573 
Q 110.712266 62.7573 110.451016 62.739488 
Q 110.195703 62.721675 109.898828 62.68605 
L 109.524766 62.608863 
Q 109.453516 62.199175 109.376328 62.145738 
Q 109.305078 62.0923 109.227891 62.015113 
Q 109.043828 61.83105 108.836016 61.516363 
Q 108.634141 61.201675 108.746953 60.7148 
Q 108.562891 60.3823 108.527266 60.0498 
Q 108.301641 60.495113 108.188828 60.97605 
L 108.040391 61.350113 
L 107.672266 61.421363 
Q 107.595078 61.456988 107.559453 61.587613 
Q 107.523828 61.718238 107.523828 61.795425 
L 107.339766 62.4248 
Q 107.262578 62.49605 107.185391 62.555425 
Q 107.114141 62.608863 107.042891 62.68605 
Q 106.965703 63.01855 106.852891 63.35105 
Q 106.746016 63.68355 106.633203 63.980425 
Q 106.449141 64.4673 106.318516 64.930425 
Q 106.187891 65.39355 106.223516 65.838863 
L 106.075078 66.24855 
Q 105.891016 66.468238 105.665391 66.598863 
Q 105.445703 66.729488 105.220078 66.8423 
Q 105.148828 66.91355 105.018203 66.972925 
Q 104.887578 67.026363 104.816328 67.061988 
L 104.703516 67.471675 
L 104.258203 67.548862 
Q 103.848516 67.620113 103.682266 67.655738 
Q 103.516016 67.6973 103.290391 67.6973 
L 102.922266 67.655738 
Q 102.512578 67.323238 102.286953 67.121363 
Q 102.067266 66.91355 101.770391 66.729488 
Q 101.437891 66.284175 101.402266 66.064487 
Q 101.360703 65.838863 101.325078 65.6548 
Q 101.247891 65.429175 101.230078 65.280738 
Q 101.212266 65.1323 101.141016 65.06105 
L 100.654141 64.615738 
L 101.063828 64.2773 
L 101.099453 63.647925 
Q 101.847578 61.753863 102.678828 60.014175 
Q 103.516016 58.26855 104.406641 56.451675 
Q 104.703516 55.857925 104.982578 55.264175 
Q 105.261641 54.670425 105.558516 54.076675 
Q 105.516953 53.963863 105.516953 53.815425 
Q 105.516953 53.666988 105.594141 53.482925 
Q 106.003828 52.847613 106.259141 52.348863 
Q 106.520391 51.850113 106.781641 51.327613 
Q 107.078516 50.698238 107.393203 50.104488 
Q 107.707891 49.510738 108.188828 48.881363 
L 108.782578 48.620113 
Q 108.895391 48.584488 109.043828 48.53105 
Q 109.192266 48.471675 109.376328 48.471675 
L 109.934453 48.542925 
Q 110.973516 48.061988 111.751328 47.189175 
Q 112.535078 46.316363 113.348516 45.093238 
L 113.722578 44.576675 
L 114.203516 44.87355 
Q 114.387578 44.980425 114.720078 45.075425 
Q 115.058516 45.170425 115.426641 45.2773 
Q 116.097578 45.425738 116.691328 45.615738 
Q 117.285078 45.7998 117.653203 46.167925 
Q 117.878828 46.761675 117.914453 47.05855 
Q 117.950078 47.355425 118.027266 47.6523 
Q 118.134141 48.287613 118.229141 48.916988 
Q 118.324141 49.546363 118.359766 50.324175 
Q 118.543828 50.959488 118.674453 51.57105 
Q 118.805078 52.182613 118.917891 52.811988 
Q 119.101953 53.702613 119.286016 54.5398 
Q 119.470078 55.37105 119.766953 56.113238 
Q 120.063828 56.113238 120.141016 56.1548 
Q 120.325078 56.077613 120.526953 56.041988 
Q 120.734766 56.006363 120.996016 55.9648 
L 121.399766 55.929175 
L 121.548203 56.303238 
Q 121.589766 56.4873 121.922266 56.671363 
Q 122.403203 56.706988 122.622891 56.879175 
Q 122.848516 57.045425 123.032578 57.229488 
Q 123.181016 57.377925 123.329453 57.449175 
L 123.887578 57.6748 
L 123.590703 58.232925 
Q 123.222578 58.897925 122.533828 59.509488 
Q 121.845078 60.12105 120.996016 60.530738 
Q 121.031641 60.756363 121.049453 60.958238 
Q 121.067266 61.160113 121.144453 61.385738 
Q 121.251328 62.015113 121.322578 62.68605 
Q 121.399766 63.35105 121.328516 64.057613 
L 121.251328 64.20605 
z
M 110.528203 57.787613 
Q 111.644453 57.710425 112.552891 57.621363 
Q 113.461328 57.526363 114.571641 57.300738 
Q 114.316328 56.190425 114.019453 54.985113 
Q 113.722578 53.7798 113.384141 52.5923 
L 113.164453 52.960425 
Q 112.422266 53.738238 111.733516 54.70605 
Q 111.050703 55.667925 110.563828 56.522925 
Q 110.344141 56.855425 110.118516 57.193863 
Q 109.898828 57.526363 109.714766 57.858863 
Q 109.934453 57.823238 110.136328 57.823238 
Q 110.344141 57.823238 110.528203 57.787613 
z
" style="fill: #4682b4; stroke: #ffffff; stroke-width: 3"/>
    <path d="M 21.870938 48.952613 
Q 21.799688 48.471675 21.686875 48.358863 
Q 21.948125 47.693863 22.072813 47.046675 
Q 22.203438 46.39355 22.280625 45.7998 
Q 22.351875 45.2773 22.446875 44.831988 
Q 22.541875 44.386675 22.690313 43.982925 
Q 23.319688 43.834488 23.634375 43.442613 
Q 23.949063 43.050738 24.133125 42.753863 
Q 24.804063 42.718238 25.005938 42.943863 
Q 25.21375 43.16355 25.469063 43.68605 
Q 25.659063 44.0898 25.991563 44.558863 
Q 26.324063 45.021988 26.995 45.2773 
Q 27.101875 45.686988 27.250313 46.06105 
Q 27.39875 46.429175 27.58875 46.838863 
Q 27.92125 47.616675 28.218125 48.453862 
Q 28.515 49.285113 28.550625 50.0273 
Q 28.105313 50.8823 27.861875 51.99855 
Q 27.624375 53.108863 27.565 54.242925 
Q 27.511563 55.37105 27.624375 56.410113 
Q 27.737188 57.449175 27.9925 58.155738 
L 28.218125 58.749488 
L 29.031563 58.678238 
Q 30.3675 58.3398 31.442188 57.918238 
Q 32.522813 57.490738 33.449063 56.896988 
Q 34.375313 56.303238 35.230313 55.543238 
Q 36.085313 54.7773 37.011563 53.738238 
Q 37.902188 52.699175 38.60875 51.386988 
Q 39.315313 50.068863 39.778438 48.661675 
Q 40.241563 47.24855 40.496875 45.841363 
Q 40.758125 44.428238 40.835313 43.199175 
Q 41.541875 42.866675 41.613125 42.124488 
L 41.500313 41.64355 
Q 41.393438 41.459488 41.41125 41.293238 
Q 41.429063 41.12105 41.500313 40.972613 
Q 41.797188 40.12355 42.765 39.713863 
Q 43.43 40.159175 44.005938 40.681675 
Q 44.581875 41.198238 45.062813 41.7148 
Q 45.14 42.718238 45.359688 43.442613 
Q 45.585313 44.166988 45.846563 44.831988 
Q 46.101875 45.4673 46.30375 46.06105 
Q 46.511563 46.6548 46.58875 47.503863 
Q 46.214688 48.620113 46.048438 49.605738 
Q 45.882188 50.585425 45.73375 51.660113 
L 45.656563 52.0698 
Q 44.991563 53.221675 44.338438 54.426988 
Q 43.69125 55.6323 43.281563 56.522925 
Q 43.061875 56.74855 42.895625 57.045425 
Q 42.729375 57.3423 42.580938 57.639175 
Q 42.50375 57.74605 42.373125 58.0073 
Q 42.2425 58.26855 42.135625 58.381363 
L 41.245 58.042925 
L 41.019375 59.1948 
L 40.425625 59.343238 
L 39.980313 59.865738 
Q 39.125313 61.350113 38.18125 62.35355 
Q 37.237188 63.35105 36.0675 64.1348 
Q 34.897813 64.912613 33.43125 65.601363 
Q 31.964688 66.284175 30.070625 67.061988 
Q 29.328438 66.949175 28.788125 66.931363 
Q 28.25375 66.91355 27.737188 66.877925 
Q 27.214688 66.877925 26.73375 66.8423 
Q 26.252813 66.800738 25.6175 66.729488 
Q 25.469063 66.396988 25.207813 66.24855 
Q 24.9525 66.100113 24.726875 66.100113 
Q 23.984688 65.72605 23.610625 65.06105 
Q 23.2425 64.390113 22.83875 63.576675 
Q 22.64875 63.131363 22.446875 62.68605 
Q 22.245 62.240738 21.948125 61.83105 
L 22.690313 61.605425 
L 21.7225 60.495113 
Q 21.609688 60.3823 21.479063 60.275425 
Q 21.354375 60.162613 21.241563 60.014175 
L 21.241563 59.307613 
Q 21.093125 56.261675 21.110938 53.6848 
Q 21.12875 51.107925 21.799688 49.136675 
L 21.870938 48.952613 
z
M 55.417813 66.91355 
Q 54.37875 67.24605 53.155625 67.57855 
Q 51.9325 67.916988 50.703438 67.916988 
Q 48.850938 67.916988 47.77625 66.990738 
Q 47.58625 66.58105 47.437813 66.432613 
Q 47.330938 66.284175 47.235938 66.117925 
Q 47.140938 65.951675 47.105313 65.6548 
Q 46.66 65.1323 46.39875 64.449488 
Q 46.143438 63.760738 46.048438 63.036363 
Q 45.953438 62.311988 46.006875 61.5698 
Q 46.06625 60.827613 46.250313 60.162613 
Q 46.3275 60.014175 46.345313 59.865738 
Q 46.363125 59.7173 46.39875 59.5273 
Q 46.547188 58.93355 46.713438 58.381363 
Q 46.885625 57.823238 47.1825 57.41355 
Q 47.034063 57.08105 47.1825 56.671363 
Q 47.330938 56.261675 47.515 55.929175 
Q 48.031563 54.521988 48.381875 53.536363 
Q 48.738125 52.550738 49.112188 51.588863 
Q 49.741563 49.920425 50.29375 48.287613 
Q 50.851875 46.6548 51.297188 44.760738 
Q 51.594063 44.576675 51.7425 44.499488 
Q 51.968125 44.428238 52.116563 44.386675 
Q 52.781563 44.725113 53.672188 45.0398 
Q 54.562813 45.354488 55.156563 45.354488 
Q 55.453438 45.53855 55.524688 45.63355 
Q 55.601875 45.722613 55.679063 45.7998 
Q 56.08875 46.280738 56.385625 46.785425 
Q 56.6825 47.284175 56.569688 48.097613 
Q 56.344063 48.43605 56.237188 48.43605 
Q 56.047188 49.178238 55.845313 49.700738 
Q 55.643438 50.2173 55.417813 50.733863 
Q 55.156563 51.291988 54.930938 51.850113 
Q 54.71125 52.4023 54.562813 53.221675 
Q 54.414375 53.405738 54.360938 53.554175 
Q 54.3075 53.702613 54.230313 53.886675 
Q 54.159063 54.076675 54.064063 54.27855 
Q 53.969063 54.480425 53.785 54.628863 
Q 53.672188 55.596675 53.42875 56.190425 
Q 53.19125 56.784175 52.93 57.377925 
Q 52.484688 58.452613 52.134375 59.533238 
Q 51.784063 60.607925 51.706875 61.979488 
Q 51.890938 61.9023 52.057188 61.9023 
Q 52.229375 61.9023 52.377813 61.9023 
Q 52.710313 61.9023 53.155625 62.015113 
Q 54.265938 61.421363 55.584063 61.314488 
Q 56.902188 61.201675 58.2025 61.160113 
Q 58.719063 61.160113 59.235625 61.160113 
Q 59.758125 61.160113 60.203438 61.088863 
Q 60.541875 61.272925 60.630938 61.290738 
Q 60.725938 61.30855 60.91 61.30855 
Q 61.17125 61.30855 61.355313 61.350113 
Q 61.800625 61.753863 62.210313 61.943863 
Q 62.62 62.127925 63.065313 62.276363 
Q 63.469063 62.4248 63.860938 62.59105 
Q 64.252813 62.7573 64.620938 63.054175 
L 64.882188 64.651363 
Q 65.143438 64.983863 65.101875 65.096675 
Q 65.101875 65.39355 64.953438 65.541988 
L 65.030625 65.951675 
Q 64.4725 66.05855 64.264688 66.206988 
Q 64.062813 66.355425 63.87875 66.545425 
Q 63.581875 66.58105 63.45125 66.58105 
Q 63.320625 66.58105 63.21375 66.58105 
Q 62.69125 66.58105 61.949063 66.765113 
Q 60.945625 66.432613 59.870938 66.432613 
Q 59.46125 66.432613 59.015938 66.468238 
Q 58.570625 66.503863 58.125313 66.545425 
Q 57.68 66.616675 57.216875 66.658237 
Q 56.75375 66.693863 56.272813 66.693863 
L 55.417813 66.91355 
z
M 83.956406 49.475113 
Q 83.030156 49.475113 81.955469 49.605738 
Q 80.880781 49.730425 79.841719 49.878863 
Q 79.099531 49.991675 78.410781 50.068863 
Q 77.722031 50.140113 77.169844 50.175738 
Q 76.908594 50.995113 76.647344 51.624488 
Q 76.386094 52.253863 76.089219 52.847613 
Q 75.792344 53.482925 75.548906 54.130113 
Q 75.311406 54.7773 75.091719 55.519488 
Q 74.717656 56.113238 74.474219 56.617925 
Q 74.236719 57.116675 74.088281 57.74605 
Q 73.642969 58.304175 73.417344 58.915738 
Q 73.197656 59.5273 73.084844 59.972613 
L 72.936406 60.417925 
Q 72.716719 60.64355 72.675156 60.774175 
Q 72.639531 60.9048 72.491094 61.011675 
Q 72.455469 61.421363 72.229844 61.83105 
Q 72.158594 62.015113 72.117031 62.181363 
Q 72.081406 62.347613 72.081406 62.4248 
Q 72.081406 62.792925 71.897344 62.905738 
Q 71.932969 63.0898 71.897344 63.297613 
Q 71.861719 63.499488 71.826094 63.68355 
Q 71.713281 64.128863 71.748906 64.390113 
Q 71.861719 64.53855 71.950781 64.651363 
Q 72.045781 64.764175 72.081406 64.948238 
Q 72.307031 65.096675 72.419844 65.1323 
Q 72.568281 65.245113 72.865156 65.39355 
L 73.197656 65.761675 
Q 73.381719 66.8423 72.865156 67.471675 
Q 72.307031 68.178238 70.971094 68.178238 
L 70.525781 68.178238 
Q 70.341719 67.994175 70.300156 67.881363 
Q 70.003281 67.76855 69.819219 67.691363 
Q 69.635156 67.620113 69.486719 67.400425 
Q 69.005781 67.1748 68.708906 67.026363 
L 68.370469 66.8423 
Q 68.370469 66.432613 68.370469 66.396988 
Q 68.115156 66.05855 67.984531 65.6548 
Q 67.853906 65.245113 67.776719 64.835425 
Q 67.705469 64.502925 67.610469 64.20605 
Q 67.521406 63.909175 67.372969 63.68355 
Q 67.295781 61.534175 67.776719 60.0498 
Q 68.263594 58.565425 68.780156 57.193863 
Q 69.077031 56.451675 69.373906 55.691675 
Q 69.670781 54.925738 69.896406 54.1123 
L 70.228906 53.738238 
Q 70.490156 53.144488 70.656406 52.75855 
Q 70.822656 52.366675 71.006719 51.956988 
Q 71.119531 51.701675 71.208594 51.458238 
Q 71.303594 51.2148 71.380781 51.030738 
Q 71.155156 51.030738 70.971094 51.04855 
Q 70.787031 51.066363 70.597031 51.107925 
Q 70.377344 51.14355 70.187344 51.161363 
Q 70.003281 51.179175 69.819219 51.179175 
Q 69.557969 51.179175 69.451094 51.14355 
Q 69.041406 51.327613 68.560469 51.327613 
L 68.186406 51.327613 
Q 68.073594 51.327613 67.978594 51.3098 
Q 67.889531 51.291988 67.818281 51.291988 
Q 67.444219 51.291988 67.224531 51.4048 
Q 66.779219 51.4048 66.369531 51.4048 
L 65.995469 51.4048 
Q 65.924219 51.4048 65.811406 51.422613 
Q 65.698594 51.440425 65.627344 51.440425 
Q 65.366094 51.440425 65.069219 51.386988 
Q 64.772344 51.327613 64.439844 51.14355 
Q 63.994531 50.5498 63.846094 50.514175 
L 63.513594 50.068863 
Q 63.472031 49.843238 63.394844 49.641362 
Q 63.323594 49.43355 63.252344 49.178238 
Q 63.103906 48.804175 62.973281 48.376675 
Q 62.842656 47.949175 62.842656 47.355425 
Q 62.878281 47.05855 62.991094 46.910113 
Q 63.103906 46.761675 63.175156 46.6548 
L 63.287969 46.096675 
L 63.768906 46.1323 
L 64.807969 46.1323 
Q 65.995469 46.1323 67.218594 46.043238 
Q 68.447656 45.948238 69.747969 45.835425 
Q 70.490156 45.764175 71.250156 45.692925 
Q 72.010156 45.615738 72.823594 45.53855 
Q 72.972031 45.20605 73.120469 44.909175 
L 73.494531 44.725113 
Q 74.159531 44.68355 74.438594 44.891362 
Q 74.717656 45.093238 74.901719 45.2773 
Q 75.721094 45.20605 76.552344 45.116988 
Q 77.389531 45.021988 78.244531 44.87355 
Q 79.503281 44.68355 80.785781 44.535113 
Q 82.068281 44.386675 83.255781 44.386675 
Q 83.772344 44.386675 84.253281 44.428238 
Q 84.740156 44.463863 85.143906 44.535113 
L 85.517969 44.796363 
Q 85.630781 45.021988 85.832656 45.20605 
Q 86.034531 45.390113 86.260156 45.574175 
Q 86.705469 45.983863 87.150781 46.541988 
Q 87.596094 47.100113 87.483281 48.1748 
Q 87.186406 48.620113 87.037969 48.691363 
L 86.705469 49.136675 
L 86.331406 49.10105 
Q 86.111719 49.10105 85.921719 49.160425 
Q 85.737656 49.213863 85.553594 49.285113 
Q 85.405156 49.3623 85.256719 49.421675 
Q 85.108281 49.475113 84.924219 49.510738 
Q 84.591719 49.510738 84.383906 49.492925 
Q 84.182031 49.475113 83.956406 49.475113 
z
M 87.036484 63.463863 
Q 86.632734 64.948238 86.312109 65.708238 
Q 85.997422 66.468238 85.368047 67.287613 
Q 84.887109 67.210425 84.697109 67.394488 
Q 84.513047 67.584488 84.293359 67.732925 
Q 83.960859 67.804175 83.812422 67.726988 
Q 83.663984 67.655738 83.551172 67.560738 
Q 83.438359 67.471675 83.272109 67.376675 
Q 83.105859 67.287613 82.773359 67.287613 
Q 82.696172 66.990738 82.601172 66.729488 
Q 82.512109 66.468238 82.102422 66.545425 
Q 82.179609 66.24855 82.138047 66.046675 
Q 82.102422 65.838863 82.043047 65.672612 
Q 81.989609 65.506363 81.953984 65.340113 
Q 81.918359 65.167925 81.989609 64.912613 
Q 81.805547 64.912613 81.692734 64.651363 
Q 81.585859 64.390113 81.437422 64.128863 
Q 81.544297 63.463863 81.657109 62.870113 
Q 81.769922 62.276363 81.936172 61.7598 
Q 82.102422 61.2373 82.215234 60.720738 
Q 82.328047 60.198238 82.102422 59.640113 
Q 82.250859 59.752925 82.322109 59.586675 
Q 82.399297 59.420425 82.434922 59.141363 
Q 82.476484 58.8623 82.476484 58.583238 
Q 82.476484 58.304175 82.434922 58.120113 
Q 82.808984 57.1523 83.046484 56.136988 
Q 83.289922 55.115738 83.491797 54.1123 
Q 83.699609 53.108863 83.919297 52.146988 
Q 84.144922 51.179175 84.513047 50.365738 
Q 84.922734 50.28855 85.421484 50.4548 
Q 85.926172 50.62105 86.038984 50.8823 
Q 87.000859 50.140113 87.743047 49.083238 
Q 88.485234 48.026363 89.263047 47.022925 
Q 90.046797 46.019488 90.990859 45.241675 
Q 91.934922 44.463863 93.383672 44.315425 
Q 94.125859 44.87355 95.034297 45.449488 
Q 95.942734 46.019488 96.536484 46.951675 
Q 96.833359 47.100113 97.035234 47.266362 
Q 97.243047 47.432613 97.539922 47.616675 
L 97.539922 48.061988 
Q 97.985234 48.471675 98.264297 49.011988 
Q 98.543359 49.546363 98.763047 50.157925 
Q 98.988672 50.769488 99.208359 51.386988 
Q 99.433984 51.99855 99.730859 52.550738 
Q 99.653672 52.740738 99.653672 52.871363 
Q 99.653672 52.99605 99.707109 53.144488 
Q 99.766484 53.292925 99.802109 53.441363 
Q 99.843672 53.5898 99.802109 53.85105 
Q 99.695234 55.483863 98.745234 56.4873 
Q 97.801172 57.490738 96.465234 58.137925 
Q 95.129297 58.785113 93.603359 59.230425 
Q 92.083359 59.675738 90.860234 60.198238 
Q 90.860234 60.346675 90.990859 60.346675 
Q 91.121484 60.346675 91.085859 60.530738 
Q 91.976484 61.088863 92.493047 61.421363 
Q 93.015547 61.753863 93.478672 61.979488 
Q 93.941797 62.199175 94.476172 62.371363 
Q 95.016484 62.537613 95.984297 62.7573 
Q 96.946172 62.982925 97.480547 63.11355 
Q 98.020859 63.238238 98.466172 63.333238 
Q 98.911484 63.428238 99.374609 63.481675 
Q 99.843672 63.535113 100.692734 63.6123 
Q 101.031172 63.9448 101.268672 64.407925 
Q 101.512109 64.87105 101.583359 65.340113 
Q 101.660547 65.803238 101.618984 66.230738 
Q 101.583359 66.6523 101.363672 66.91355 
Q 101.399297 67.026363 101.529922 67.00855 
Q 101.660547 66.990738 101.808984 67.026363 
Q 101.583359 67.1748 101.434922 67.394488 
Q 101.286484 67.620113 101.138047 67.8398 
Q 100.989609 68.065425 100.805547 68.231675 
Q 100.621484 68.397925 100.288984 68.439487 
Q 99.137109 68.8848 97.391484 68.492925 
Q 95.645859 68.10105 92.973984 67.061988 
Q 91.638047 66.545425 90.800859 66.15355 
Q 89.969609 65.761675 89.358047 65.375737 
Q 88.746484 64.983863 88.241797 64.53855 
Q 87.743047 64.093238 87.036484 63.463863 
z
M 92.344609 50.733863 
Q 91.934922 51.327613 91.436172 51.814488 
Q 90.937422 52.295425 90.468359 52.794175 
Q 90.005234 53.292925 89.631172 53.910425 
Q 89.263047 54.521988 89.114609 55.335425 
Q 90.414922 55.186988 91.822109 54.61105 
Q 93.235234 54.035113 94.499922 53.51855 
Q 94.351484 52.366675 93.698359 51.66605 
Q 93.051172 50.959488 92.344609 50.733863 
z
M 121.251328 64.20605 
Q 121.031641 64.835425 120.604141 65.48855 
Q 120.176641 66.135738 119.600703 66.640425 
Q 119.024766 67.139175 118.318203 67.471675 
Q 117.617578 67.804175 116.839766 67.845737 
Q 116.352891 67.732925 116.186641 67.6023 
Q 116.020391 67.471675 115.836328 67.358863 
Q 115.723516 67.287613 115.628516 67.234175 
Q 115.539453 67.1748 115.462266 67.139175 
L 115.016953 66.949175 
L 115.165391 66.468238 
Q 115.242578 66.171363 115.129766 66.005113 
Q 115.016953 65.838863 114.684453 65.541988 
Q 114.571641 65.429175 114.458828 65.3223 
Q 114.351953 65.209488 114.274766 65.096675 
L 113.645391 64.390113 
L 114.648828 64.128863 
Q 115.575078 63.87355 115.889766 63.463863 
Q 116.204453 63.054175 116.133203 62.0923 
Q 115.391016 61.943863 114.886328 62.056675 
Q 114.387578 62.16355 113.871016 62.311988 
Q 113.200078 62.49605 112.511328 62.626675 
Q 111.828516 62.7573 111.009141 62.7573 
Q 110.712266 62.7573 110.451016 62.739488 
Q 110.195703 62.721675 109.898828 62.68605 
L 109.524766 62.608863 
Q 109.453516 62.199175 109.376328 62.145738 
Q 109.305078 62.0923 109.227891 62.015113 
Q 109.043828 61.83105 108.836016 61.516363 
Q 108.634141 61.201675 108.746953 60.7148 
Q 108.562891 60.3823 108.527266 60.0498 
Q 108.301641 60.495113 108.188828 60.97605 
L 108.040391 61.350113 
L 107.672266 61.421363 
Q 107.595078 61.456988 107.559453 61.587613 
Q 107.523828 61.718238 107.523828 61.795425 
L 107.339766 62.4248 
Q 107.262578 62.49605 107.185391 62.555425 
Q 107.114141 62.608863 107.042891 62.68605 
Q 106.965703 63.01855 106.852891 63.35105 
Q 106.746016 63.68355 106.633203 63.980425 
Q 106.449141 64.4673 106.318516 64.930425 
Q 106.187891 65.39355 106.223516 65.838863 
L 106.075078 66.24855 
Q 105.891016 66.468238 105.665391 66.598863 
Q 105.445703 66.729488 105.220078 66.8423 
Q 105.148828 66.91355 105.018203 66.972925 
Q 104.887578 67.026363 104.816328 67.061988 
L 104.703516 67.471675 
L 104.258203 67.548862 
Q 103.848516 67.620113 103.682266 67.655738 
Q 103.516016 67.6973 103.290391 67.6973 
L 102.922266 67.655738 
Q 102.512578 67.323238 102.286953 67.121363 
Q 102.067266 66.91355 101.770391 66.729488 
Q 101.437891 66.284175 101.402266 66.064487 
Q 101.360703 65.838863 101.325078 65.6548 
Q 101.247891 65.429175 101.230078 65.280738 
Q 101.212266 65.1323 101.141016 65.06105 
L 100.654141 64.615738 
L 101.063828 64.2773 
L 101.099453 63.647925 
Q 101.847578 61.753863 102.678828 60.014175 
Q 103.516016 58.26855 104.406641 56.451675 
Q 104.703516 55.857925 104.982578 55.264175 
Q 105.261641 54.670425 105.558516 54.076675 
Q 105.516953 53.963863 105.516953 53.815425 
Q 105.516953 53.666988 105.594141 53.482925 
Q 106.003828 52.847613 106.259141 52.348863 
Q 106.520391 51.850113 106.781641 51.327613 
Q 107.078516 50.698238 107.393203 50.104488 
Q 107.707891 49.510738 108.188828 48.881363 
L 108.782578 48.620113 
Q 108.895391 48.584488 109.043828 48.53105 
Q 109.192266 48.471675 109.376328 48.471675 
L 109.934453 48.542925 
Q 110.973516 48.061988 111.751328 47.189175 
Q 112.535078 46.316363 113.348516 45.093238 
L 113.722578 44.576675 
L 114.203516 44.87355 
Q 114.387578 44.980425 114.720078 45.075425 
Q 115.058516 45.170425 115.426641 45.2773 
Q 116.097578 45.425738 116.691328 45.615738 
Q 117.285078 45.7998 117.653203 46.167925 
Q 117.878828 46.761675 117.914453 47.05855 
Q 117.950078 47.355425 118.027266 47.6523 
Q 118.134141 48.287613 118.229141 48.916988 
Q 118.324141 49.546363 118.359766 50.324175 
Q 118.543828 50.959488 118.674453 51.57105 
Q 118.805078 52.182613 118.917891 52.811988 
Q 119.101953 53.702613 119.286016 54.5398 
Q 119.470078 55.37105 119.766953 56.113238 
Q 120.063828 56.113238 120.141016 56.1548 
Q 120.325078 56.077613 120.526953 56.041988 
Q 120.734766 56.006363 120.996016 55.9648 
L 121.399766 55.929175 
L 121.548203 56.303238 
Q 121.589766 56.4873 121.922266 56.671363 
Q 122.403203 56.706988 122.622891 56.879175 
Q 122.848516 57.045425 123.032578 57.229488 
Q 123.181016 57.377925 123.329453 57.449175 
L 123.887578 57.6748 
L 123.590703 58.232925 
Q 123.222578 58.897925 122.533828 59.509488 
Q 121.845078 60.12105 120.996016 60.530738 
Q 121.031641 60.756363 121.049453 60.958238 
Q 121.067266 61.160113 121.144453 61.385738 
Q 121.251328 62.015113 121.322578 62.68605 
Q 121.399766 63.35105 121.328516 64.057613 
L 121.251328 64.20605 
z
M 110.528203 57.787613 
Q 111.644453 57.710425 112.552891 57.621363 
Q 113.461328 57.526363 114.571641 57.300738 
Q 114.316328 56.190425 114.019453 54.985113 
Q 113.722578 53.7798 113.384141 52.5923 
L 113.164453 52.960425 
Q 112.422266 53.738238 111.733516 54.70605 
Q 111.050703 55.667925 110.563828 56.522925 
Q 110.344141 56.855425 110.118516 57.193863 
Q 109.898828 57.526363 109.714766 57.858863 
Q 109.934453 57.823238 110.136328 57.823238 
Q 110.344141 57.823238 110.528203 57.787613 
z
" style="fill: #4682b4"/>
   </g>
   <g id="text_2">
    <path d="M 62.165781 82.159575 
Q 62.165781 85.6152 59.998594 87.8002 
Q 57.831406 89.9852 54.411406 89.9852 
L 45.712969 89.9852 
L 45.712969 101.729575 
L 42.174219 101.729575 
L 42.174219 74.0252 
L 53.615781 74.0252 
Q 57.718594 74.0252 59.939219 76.13895 
Q 62.165781 78.246762 62.165781 82.159575 
z
M 57.053594 85.579575 
Q 58.478594 84.2852 58.478594 82.0052 
Q 58.478594 79.7252 57.053594 78.436763 
Q 55.628594 77.142387 53.081406 77.142387 
L 45.712969 77.142387 
L 45.712969 86.87395 
L 53.081406 86.87395 
Q 55.628594 86.87395 57.053594 85.579575 
z
M 69.800218 101.729575 
L 66.647405 101.729575 
L 66.647405 74.0252 
L 69.800218 74.0252 
L 69.800218 101.729575 
z
M 91.880591 91.926762 
Q 91.880591 96.8252 89.487779 99.562387 
Q 87.094966 102.299575 82.873404 102.299575 
Q 78.616216 102.299575 76.241216 99.544575 
Q 73.866216 96.789575 73.866216 91.772387 
Q 73.866216 86.796762 76.241216 84.02395 
Q 78.616216 81.2452 82.837779 81.2452 
Q 87.166216 81.2452 89.523404 84.02395 
Q 91.880591 86.796762 91.880591 91.926762 
z
M 88.573404 91.8852 
Q 88.573404 88.20395 87.071216 86.191137 
Q 85.574966 84.172387 82.873404 84.172387 
Q 80.213404 84.172387 78.693404 86.191137 
Q 77.173404 88.20395 77.173404 91.772387 
Q 77.173404 95.382387 78.693404 97.377387 
Q 80.213404 99.372388 82.873404 99.372388 
Q 85.497779 99.372388 87.035591 97.377387 
Q 88.573404 95.382387 88.573404 91.8852 
z
M 103.282963 101.729575 
Q 101.798588 101.996763 100.694213 101.996763 
Q 98.835775 101.996763 97.844213 101.183325 
Q 96.858588 100.36395 96.858588 98.84395 
L 96.858588 84.40395 
L 94.162963 84.40395 
L 94.162963 81.8152 
L 96.858588 81.8152 
L 96.858588 76.346762 
L 100.0114 76.346762 
L 100.0114 81.8152 
L 103.282963 81.8152 
L 103.282963 84.40395 
L 100.0114 84.40395 
L 100.0114 97.436763 
Q 100.0114 98.499575 100.373588 98.861762 
Q 100.735775 99.22395 101.762963 99.22395 
Q 102.712963 99.22395 103.282963 99.069575 
L 103.282963 101.729575 
z
" style="fill: #ffffff; stroke: #4682b4; stroke-width: 3"/>
    <path d="M 62.165781 82.159575 
Q 62.165781 85.6152 59.998594 87.8002 
Q 57.831406 89.9852 54.411406 89.9852 
L 45.712969 89.9852 
L 45.712969 101.729575 
L 42.174219 101.729575 
L 42.174219 74.0252 
L 53.615781 74.0252 
Q 57.718594 74.0252 59.939219 76.13895 
Q 62.165781 78.246762 62.165781 82.159575 
z
M 57.053594 85.579575 
Q 58.478594 84.2852 58.478594 82.0052 
Q 58.478594 79.7252 57.053594 78.436763 
Q 55.628594 77.142387 53.081406 77.142387 
L 45.712969 77.142387 
L 45.712969 86.87395 
L 53.081406 86.87395 
Q 55.628594 86.87395 57.053594 85.579575 
z
M 69.800218 101.729575 
L 66.647405 101.729575 
L 66.647405 74.0252 
L 69.800218 74.0252 
L 69.800218 101.729575 
z
M 91.880591 91.926762 
Q 91.880591 96.8252 89.487779 99.562387 
Q 87.094966 102.299575 82.873404 102.299575 
Q 78.616216 102.299575 76.241216 99.544575 
Q 73.866216 96.789575 73.866216 91.772387 
Q 73.866216 86.796762 76.241216 84.02395 
Q 78.616216 81.2452 82.837779 81.2452 
Q 87.166216 81.2452 89.523404 84.02395 
Q 91.880591 86.796762 91.880591 91.926762 
z
M 88.573404 91.8852 
Q 88.573404 88.20395 87.071216 86.191137 
Q 85.574966 84.172387 82.873404 84.172387 
Q 80.213404 84.172387 78.693404 86.191137 
Q 77.173404 88.20395 77.173404 91.772387 
Q 77.173404 95.382387 78.693404 97.377387 
Q 80.213404 99.372388 82.873404 99.372388 
Q 85.497779 99.372388 87.035591 97.377387 
Q 88.573404 95.382387 88.573404 91.8852 
z
M 103.282963 101.729575 
Q 101.798588 101.996763 100.694213 101.996763 
Q 98.835775 101.996763 97.844213 101.183325 
Q 96.858588 100.36395 96.858588 98.84395 
L 96.858588 84.40395 
L 94.162963 84.40395 
L 94.162963 81.8152 
L 96.858588 81.8152 
L 96.858588 76.346762 
L 100.0114 76.346762 
L 100.0114 81.8152 
L 103.282963 81.8152 
L 103.282963 84.40395 
L 100.0114 84.40395 
L 100.0114 97.436763 
Q 100.0114 98.499575 100.373588 98.861762 
Q 100.735775 99.22395 101.762963 99.22395 
Q 102.712963 99.22395 103.282963 99.069575 
L 103.282963 101.729575 
z
" style="fill: #ffffff"/>
   </g>
  </g>
 </g>
 <defs>
  <clipPath id="p0940925877">
   <rect x="7.2" y="7.2" width="128.51" height="128.51"/>
  </clipPath>
 </defs>
</svg>
