<?xml version="1.0" encoding="utf-8" standalone="no"?>
<!DOCTYPE svg PUBLIC "-//W3C//DTD SVG 1.1//EN"
  "http://www.w3.org/Graphics/SVG/1.1/DTD/svg11.dtd">
<svg xmlns:xlink="http://www.w3.org/1999/xlink" width="189pt" height="189pt" viewBox="0 0 189 189" xmlns="http://www.w3.org/2000/svg" version="1.1">
 <metadata>
  <rdf:RDF xmlns:dc="http://purl.org/dc/elements/1.1/" xmlns:cc="http://creativecommons.org/ns#" xmlns:rdf="http://www.w3.org/1999/02/22-rdf-syntax-ns#">
   <cc:Work>
    <dc:type rdf:resource="http://purl.org/dc/dcmitype/StillImage"/>
    <dc:date>2025-04-09T15:42:08.110875</dc:date>
    <dc:format>image/svg+xml</dc:format>
    <dc:creator>
     <cc:Agent>
      <dc:title>Matplotlib v3.10.1, https://matplotlib.org/</dc:title>
     </cc:Agent>
    </dc:creator>
   </cc:Work>
  </rdf:RDF>
 </metadata>
 <defs>
  <style type="text/css">*{stroke-linejoin: round; stroke-linecap: butt}</style>
 </defs>
 <g id="figure_1">
  <g id="patch_1">
   <path d="M 0 189 
L 189 189 
L 189 0 
L 0 0 
z
" style="fill: #ffffff"/>
  </g>
  <g id="axes_1">
   <g id="patch_2">
    <path d="M 94.5 184.5 
C 118.368279 184.5 141.262188 175.017032 158.13961 158.13961 
C 175.017032 141.262188 184.5 118.368279 184.5 94.5 
C 184.5 70.631721 175.017032 47.737812 158.13961 30.86039 
C 141.262188 13.982968 118.368279 4.5 94.5 4.5 
C 70.631721 4.5 47.737812 13.982968 30.86039 30.86039 
C 13.982968 47.737812 4.5 70.631721 4.5 94.5 
C 4.5 118.368279 13.982968 141.262188 30.86039 158.13961 
C 47.737812 175.017032 70.631721 184.5 94.5 184.5 
z
" clip-path="url(#pa23fecc976)" style="fill: #50193c; opacity: 0.033333"/>
   </g>
   <g id="matplotlib.axis_1"/>
   <g id="matplotlib.axis_2"/>
   <g id="patch_3">
    <path d="M 94.5 181.396552 
C 117.545235 181.396552 139.649699 172.240583 155.945141 155.945141 
C 172.240583 139.649699 181.396552 117.545235 181.396552 94.5 
C 181.396552 71.454765 172.240583 49.350301 155.945141 33.054859 
C 139.649699 16.759417 117.545235 7.603448 94.5 7.603448 
C 71.454765 7.603448 49.350301 16.759417 33.054859 33.054859 
C 16.759417 49.350301 7.603448 71.454765 7.603448 94.5 
C 7.603448 117.545235 16.759417 139.649699 33.054859 155.945141 
C 49.350301 172.240583 71.454765 181.396552 94.5 181.396552 
z
" clip-path="url(#pa23fecc976)" style="fill: #561633; opacity: 0.066667"/>
   </g>
   <g id="patch_4">
    <path d="M 94.5 178.293103 
C 116.722191 178.293103 138.03721 169.464133 153.750672 153.750672 
C 169.464133 138.03721 178.293103 116.722191 178.293103 94.5 
C 178.293103 72.277809 169.464133 50.96279 153.750672 35.249328 
C 138.03721 19.535867 116.722191 10.706897 94.5 10.706897 
C 72.277809 10.706897 50.96279 19.535867 35.249328 35.249328 
C 19.535867 50.96279 10.706897 72.277809 10.706897 94.5 
C 10.706897 116.722191 19.535867 138.03721 35.249328 153.750672 
C 50.96279 169.464133 72.277809 178.293103 94.5 178.293103 
z
" clip-path="url(#pa23fecc976)" style="fill: #5d152b; opacity: 0.1"/>
   </g>
   <g id="patch_5">
    <path d="M 94.5 175.189655 
C 115.899147 175.189655 136.424721 166.687684 151.556202 151.556202 
C 166.687684 136.424721 175.189655 115.899147 175.189655 94.5 
C 175.189655 73.100853 166.687684 52.575279 151.556202 37.443798 
C 136.424721 22.312316 115.899147 13.810345 94.5 13.810345 
C 73.100853 13.810345 52.575279 22.312316 37.443798 37.443798 
C 22.312316 52.575279 13.810345 73.100853 13.810345 94.5 
C 13.810345 115.899147 22.312316 136.424721 37.443798 151.556202 
C 52.575279 166.687684 73.100853 175.189655 94.5 175.189655 
z
" clip-path="url(#pa23fecc976)" style="fill: #661824; opacity: 0.133333"/>
   </g>
   <g id="patch_6">
    <path d="M 94.5 172.086207 
C 115.076103 172.086207 134.812231 163.911235 149.361733 149.361733 
C 163.911235 134.812231 172.086207 115.076103 172.086207 94.5 
C 172.086207 73.923897 163.911235 54.187769 149.361733 39.638267 
C 134.812231 25.088765 115.076103 16.913793 94.5 16.913793 
C 73.923897 16.913793 54.187769 25.088765 39.638267 39.638267 
C 25.088765 54.187769 16.913793 73.923897 16.913793 94.5 
C 16.913793 115.076103 25.088765 134.812231 39.638267 149.361733 
C 54.187769 163.911235 73.923897 172.086207 94.5 172.086207 
z
" clip-path="url(#pa23fecc976)" style="fill: #701e20; opacity: 0.166667"/>
   </g>
   <g id="patch_7">
    <path d="M 94.5 168.982759 
C 114.253058 168.982759 133.199742 161.134785 147.167264 147.167264 
C 161.134785 133.199742 168.982759 114.253058 168.982759 94.5 
C 168.982759 74.746942 161.134785 55.800258 147.167264 41.832736 
C 133.199742 27.865215 114.253058 20.017241 94.5 20.017241 
C 74.746942 20.017241 55.800258 27.865215 41.832736 41.832736 
C 27.865215 55.800258 20.017241 74.746942 20.017241 94.5 
C 20.017241 114.253058 27.865215 133.199742 41.832736 147.167264 
C 55.800258 161.134785 74.746942 168.982759 94.5 168.982759 
z
" clip-path="url(#pa23fecc976)" style="fill: #7d281e; opacity: 0.2"/>
   </g>
   <g id="patch_8">
    <path d="M 94.5 165.87931 
C 113.430014 165.87931 131.587253 158.358336 144.972794 144.972794 
C 158.358336 131.587253 165.87931 113.430014 165.87931 94.5 
C 165.87931 75.569986 158.358336 57.412747 144.972794 44.027206 
C 131.587253 30.641664 113.430014 23.12069 94.5 23.12069 
C 75.569986 23.12069 57.412747 30.641664 44.027206 44.027206 
C 30.641664 57.412747 23.12069 75.569986 23.12069 94.5 
C 23.12069 113.430014 30.641664 131.587253 44.027206 144.972794 
C 57.412747 158.358336 75.569986 165.87931 94.5 165.87931 
z
" clip-path="url(#pa23fecc976)" style="fill: #8c3521; opacity: 0.233333"/>
   </g>
   <g id="patch_9">
    <path d="M 94.5 162.775862 
C 112.60697 162.775862 129.974764 155.581887 142.778325 142.778325 
C 155.581887 129.974764 162.775862 112.60697 162.775862 94.5 
C 162.775862 76.39303 155.581887 59.025236 142.778325 46.221675 
C 129.974764 33.418113 112.60697 26.224138 94.5 26.224138 
C 76.39303 26.224138 59.025236 33.418113 46.221675 46.221675 
C 33.418113 59.025236 26.224138 76.39303 26.224138 94.5 
C 26.224138 112.60697 33.418113 129.974764 46.221675 142.778325 
C 59.025236 155.581887 76.39303 162.775862 94.5 162.775862 
z
" clip-path="url(#pa23fecc976)" style="fill: #9d4729; opacity: 0.266667"/>
   </g>
   <g id="patch_10">
    <path d="M 94.5 159.672414 
C 111.783926 159.672414 128.362274 152.805437 140.583856 140.583856 
C 152.805437 128.362274 159.672414 111.783926 159.672414 94.5 
C 159.672414 77.216074 152.805437 60.637726 140.583856 48.416144 
C 128.362274 36.194563 111.783926 29.327586 94.5 29.327586 
C 77.216074 29.327586 60.637726 36.194563 48.416144 48.416144 
C 36.194563 60.637726 29.327586 77.216074 29.327586 94.5 
C 29.327586 111.783926 36.194563 128.362274 48.416144 140.583856 
C 60.637726 152.805437 77.216074 159.672414 94.5 159.672414 
z
" clip-path="url(#pa23fecc976)" style="fill: #ae5b37; opacity: 0.3"/>
   </g>
   <g id="patch_11">
    <path d="M 94.5 156.568966 
C 110.960882 156.568966 126.749785 150.028988 138.389386 138.389386 
C 150.028988 126.749785 156.568966 110.960882 156.568966 94.5 
C 156.568966 78.039118 150.028988 62.250215 138.389386 50.610614 
C 126.749785 38.971012 110.960882 32.431034 94.5 32.431034 
C 78.039118 32.431034 62.250215 38.971012 50.610614 50.610614 
C 38.971012 62.250215 32.431034 78.039118 32.431034 94.5 
C 32.431034 110.960882 38.971012 126.749785 50.610614 138.389386 
C 62.250215 150.028988 78.039118 156.568966 94.5 156.568966 
z
" clip-path="url(#pa23fecc976)" style="fill: #bd6f49; opacity: 0.333333"/>
   </g>
   <g id="patch_12">
    <path d="M 94.5 153.465517 
C 110.137838 153.465517 125.137296 147.252538 136.194917 136.194917 
C 147.252538 125.137296 153.465517 110.137838 153.465517 94.5 
C 153.465517 78.862162 147.252538 63.862704 136.194917 52.805083 
C 125.137296 41.747462 110.137838 35.534483 94.5 35.534483 
C 78.862162 35.534483 63.862704 41.747462 52.805083 52.805083 
C 41.747462 63.862704 35.534483 78.862162 35.534483 94.5 
C 35.534483 110.137838 41.747462 125.137296 52.805083 136.194917 
C 63.862704 147.252538 78.862162 153.465517 94.5 153.465517 
z
" clip-path="url(#pa23fecc976)" style="fill: #c8825d; opacity: 0.366667"/>
   </g>
   <g id="patch_13">
    <path d="M 94.5 150.362069 
C 109.314794 150.362069 123.524807 144.476089 134.000448 134.000448 
C 144.476089 123.524807 150.362069 109.314794 150.362069 94.5 
C 150.362069 79.685206 144.476089 65.475193 134.000448 54.999552 
C 123.524807 44.523911 109.314794 38.637931 94.5 38.637931 
C 79.685206 38.637931 65.475193 44.523911 54.999552 54.999552 
C 44.523911 65.475193 38.637931 79.685206 38.637931 94.5 
C 38.637931 109.314794 44.523911 123.524807 54.999552 134.000448 
C 65.475193 144.476089 79.685206 150.362069 94.5 150.362069 
z
" clip-path="url(#pa23fecc976)" style="fill: #d19372; opacity: 0.4"/>
   </g>
   <g id="patch_14">
    <path d="M 94.5 147.258621 
C 108.49175 147.258621 121.912317 141.69964 131.805978 131.805978 
C 141.69964 121.912317 147.258621 108.49175 147.258621 94.5 
C 147.258621 80.50825 141.69964 67.087683 131.805978 57.194022 
C 121.912317 47.30036 108.49175 41.741379 94.5 41.741379 
C 80.50825 41.741379 67.087683 47.30036 57.194022 57.194022 
C 47.30036 67.087683 41.741379 80.50825 41.741379 94.5 
C 41.741379 108.49175 47.30036 121.912317 57.194022 131.805978 
C 67.087683 141.69964 80.50825 147.258621 94.5 147.258621 
z
" clip-path="url(#pa23fecc976)" style="fill: #d7a184; opacity: 0.433333"/>
   </g>
   <g id="patch_15">
    <path d="M 94.5 144.155172 
C 107.668706 144.155172 120.299828 138.92319 129.611509 129.611509 
C 138.92319 120.299828 144.155172 107.668706 144.155172 94.5 
C 144.155172 81.331294 138.92319 68.700172 129.611509 59.388491 
C 120.299828 50.07681 107.668706 44.844828 94.5 44.844828 
C 81.331294 44.844828 68.700172 50.07681 59.388491 59.388491 
C 50.07681 68.700172 44.844828 81.331294 44.844828 94.5 
C 44.844828 107.668706 50.07681 120.299828 59.388491 129.611509 
C 68.700172 138.92319 81.331294 144.155172 94.5 144.155172 
z
" clip-path="url(#pa23fecc976)" style="fill: #d9af99; opacity: 0.466667"/>
   </g>
   <g id="patch_16">
    <path d="M 94.5 141.051724 
C 106.845662 141.051724 118.687339 136.146741 127.41704 127.41704 
C 136.146741 118.687339 141.051724 106.845662 141.051724 94.5 
C 141.051724 82.154338 136.146741 70.312661 127.41704 61.58296 
C 118.687339 52.853259 106.845662 47.948276 94.5 47.948276 
C 82.154338 47.948276 70.312661 52.853259 61.58296 61.58296 
C 52.853259 70.312661 47.948276 82.154338 47.948276 94.5 
C 47.948276 106.845662 52.853259 118.687339 61.58296 127.41704 
C 70.312661 136.146741 82.154338 141.051724 94.5 141.051724 
z
" clip-path="url(#pa23fecc976)" style="fill: #d7bbac; opacity: 0.5"/>
   </g>
   <g id="patch_17">
    <path d="M 94.5 137.948276 
C 106.022617 137.948276 117.07485 133.370291 125.22257 125.22257 
C 133.370291 117.07485 137.948276 106.022617 137.948276 94.5 
C 137.948276 82.977383 133.370291 71.92515 125.22257 63.77743 
C 117.07485 55.629709 106.022617 51.051724 94.5 51.051724 
C 82.977383 51.051724 71.92515 55.629709 63.77743 63.77743 
C 55.629709 71.92515 51.051724 82.977383 51.051724 94.5 
C 51.051724 106.022617 55.629709 117.07485 63.77743 125.22257 
C 71.92515 133.370291 82.977383 137.948276 94.5 137.948276 
z
" clip-path="url(#pa23fecc976)" style="fill: #cfc1bb; opacity: 0.533333"/>
   </g>
   <g id="patch_18">
    <path d="M 94.5 134.844828 
C 105.199573 134.844828 115.46236 130.593842 123.028101 123.028101 
C 130.593842 115.46236 134.844828 105.199573 134.844828 94.5 
C 134.844828 83.800427 130.593842 73.53764 123.028101 65.971899 
C 115.46236 58.406158 105.199573 54.155172 94.5 54.155172 
C 83.800427 54.155172 73.53764 58.406158 65.971899 65.971899 
C 58.406158 73.53764 54.155172 83.800427 54.155172 94.5 
C 54.155172 105.199573 58.406158 115.46236 65.971899 123.028101 
C 73.53764 130.593842 83.800427 134.844828 94.5 134.844828 
z
" clip-path="url(#pa23fecc976)" style="fill: #c0c2c5; opacity: 0.566667"/>
   </g>
   <g id="patch_19">
    <path d="M 94.5 131.741379 
C 104.376529 131.741379 113.849871 127.817393 120.833632 120.833632 
C 127.817393 113.849871 131.741379 104.376529 131.741379 94.5 
C 131.741379 84.623471 127.817393 75.150129 120.833632 68.166368 
C 113.849871 61.182607 104.376529 57.258621 94.5 57.258621 
C 84.623471 57.258621 75.150129 61.182607 68.166368 68.166368 
C 61.182607 75.150129 57.258621 84.623471 57.258621 94.5 
C 57.258621 104.376529 61.182607 113.849871 68.166368 120.833632 
C 75.150129 127.817393 84.623471 131.741379 94.5 131.741379 
z
" clip-path="url(#pa23fecc976)" style="fill: #abbcc8; opacity: 0.6"/>
   </g>
   <g id="patch_20">
    <path d="M 94.5 128.637931 
C 103.553485 128.637931 112.237382 125.040943 118.639163 118.639163 
C 125.040943 112.237382 128.637931 103.553485 128.637931 94.5 
C 128.637931 85.446515 125.040943 76.762618 118.639163 70.360837 
C 112.237382 63.959057 103.553485 60.362069 94.5 60.362069 
C 85.446515 60.362069 76.762618 63.959057 70.360837 70.360837 
C 63.959057 76.762618 60.362069 85.446515 60.362069 94.5 
C 60.362069 103.553485 63.959057 112.237382 70.360837 118.639163 
C 76.762618 125.040943 85.446515 128.637931 94.5 128.637931 
z
" clip-path="url(#pa23fecc976)" style="fill: #96b2c6; opacity: 0.633333"/>
   </g>
   <g id="patch_21">
    <path d="M 94.5 125.534483 
C 102.730441 125.534483 110.624893 122.264494 116.444693 116.444693 
C 122.264494 110.624893 125.534483 102.730441 125.534483 94.5 
C 125.534483 86.269559 122.264494 78.375107 116.444693 72.555307 
C 110.624893 66.735506 102.730441 63.465517 94.5 63.465517 
C 86.269559 63.465517 78.375107 66.735506 72.555307 72.555307 
C 66.735506 78.375107 63.465517 86.269559 63.465517 94.5 
C 63.465517 102.730441 66.735506 110.624893 72.555307 116.444693 
C 78.375107 122.264494 86.269559 125.534483 94.5 125.534483 
z
" clip-path="url(#pa23fecc976)" style="fill: #7da4bf; opacity: 0.666667"/>
   </g>
   <g id="patch_22">
    <path d="M 94.5 122.431034 
C 101.907397 122.431034 109.012403 119.488044 114.250224 114.250224 
C 119.488044 109.012403 122.431034 101.907397 122.431034 94.5 
C 122.431034 87.092603 119.488044 79.987597 114.250224 74.749776 
C 109.012403 69.511956 101.907397 66.568966 94.5 66.568966 
C 87.092603 66.568966 79.987597 69.511956 74.749776 74.749776 
C 69.511956 79.987597 66.568966 87.092603 66.568966 94.5 
C 66.568966 101.907397 69.511956 109.012403 74.749776 114.250224 
C 79.987597 119.488044 87.092603 122.431034 94.5 122.431034 
z
" clip-path="url(#pa23fecc976)" style="fill: #6693b5; opacity: 0.7"/>
   </g>
   <g id="patch_23">
    <path d="M 94.5 119.327586 
C 101.084353 119.327586 107.399914 116.711595 112.055755 112.055755 
C 116.711595 107.399914 119.327586 101.084353 119.327586 94.5 
C 119.327586 87.915647 116.711595 81.600086 112.055755 76.944245 
C 107.399914 72.288405 101.084353 69.672414 94.5 69.672414 
C 87.915647 69.672414 81.600086 72.288405 76.944245 76.944245 
C 72.288405 81.600086 69.672414 87.915647 69.672414 94.5 
C 69.672414 101.084353 72.288405 107.399914 76.944245 112.055755 
C 81.600086 116.711595 87.915647 119.327586 94.5 119.327586 
z
" clip-path="url(#pa23fecc976)" style="fill: #5181a9; opacity: 0.733333"/>
   </g>
   <g id="patch_24">
    <path d="M 94.5 116.224138 
C 100.261309 116.224138 105.787425 113.935146 109.861285 109.861285 
C 113.935146 105.787425 116.224138 100.261309 116.224138 94.5 
C 116.224138 88.738691 113.935146 83.212575 109.861285 79.138715 
C 105.787425 75.064854 100.261309 72.775862 94.5 72.775862 
C 88.738691 72.775862 83.212575 75.064854 79.138715 79.138715 
C 75.064854 83.212575 72.775862 88.738691 72.775862 94.5 
C 72.775862 100.261309 75.064854 105.787425 79.138715 109.861285 
C 83.212575 113.935146 88.738691 116.224138 94.5 116.224138 
z
" clip-path="url(#pa23fecc976)" style="fill: #406f9c; opacity: 0.766667"/>
   </g>
   <g id="patch_25">
    <path d="M 94.5 113.12069 
C 99.438265 113.12069 104.174936 111.158696 107.666816 107.666816 
C 111.158696 104.174936 113.12069 99.438265 113.12069 94.5 
C 113.12069 89.561735 111.158696 84.825064 107.666816 81.333184 
C 104.174936 77.841304 99.438265 75.87931 94.5 75.87931 
C 89.561735 75.87931 84.825064 77.841304 81.333184 81.333184 
C 77.841304 84.825064 75.87931 89.561735 75.87931 94.5 
C 75.87931 99.438265 77.841304 104.174936 81.333184 107.666816 
C 84.825064 111.158696 89.561735 113.12069 94.5 113.12069 
z
" clip-path="url(#pa23fecc976)" style="fill: #365e8f; opacity: 0.8"/>
   </g>
   <g id="patch_26">
    <path d="M 94.5 110.017241 
C 98.615221 110.017241 102.562446 108.382247 105.472347 105.472347 
C 108.382247 102.562446 110.017241 98.615221 110.017241 94.5 
C 110.017241 90.384779 108.382247 86.437554 105.472347 83.527653 
C 102.562446 80.617753 98.615221 78.982759 94.5 78.982759 
C 90.384779 78.982759 86.437554 80.617753 83.527653 83.527653 
C 80.617753 86.437554 78.982759 90.384779 78.982759 94.5 
C 78.982759 98.615221 80.617753 102.562446 83.527653 105.472347 
C 86.437554 108.382247 90.384779 110.017241 94.5 110.017241 
z
" clip-path="url(#pa23fecc976)" style="fill: #334f82; opacity: 0.833333"/>
   </g>
   <g id="patch_27">
    <path d="M 94.5 106.913793 
C 97.792176 106.913793 100.949957 105.605798 103.277877 103.277877 
C 105.605798 100.949957 106.913793 97.792176 106.913793 94.5 
C 106.913793 91.207824 105.605798 88.050043 103.277877 85.722123 
C 100.949957 83.394202 97.792176 82.086207 94.5 82.086207 
C 91.207824 82.086207 88.050043 83.394202 85.722123 85.722123 
C 83.394202 88.050043 82.086207 91.207824 82.086207 94.5 
C 82.086207 97.792176 83.394202 100.949957 85.722123 103.277877 
C 88.050043 105.605798 91.207824 106.913793 94.5 106.913793 
z
" clip-path="url(#pa23fecc976)" style="fill: #363f73; opacity: 0.866667"/>
   </g>
   <g id="patch_28">
    <path d="M 94.5 103.810345 
C 96.969132 103.810345 99.337468 102.829348 101.083408 101.083408 
C 102.829348 99.337468 103.810345 96.969132 103.810345 94.5 
C 103.810345 92.030868 102.829348 89.662532 101.083408 87.916592 
C 99.337468 86.170652 96.969132 85.189655 94.5 85.189655 
C 92.030868 85.189655 89.662532 86.170652 87.916592 87.916592 
C 86.170652 89.662532 85.189655 92.030868 85.189655 94.5 
C 85.189655 96.969132 86.170652 99.337468 87.916592 101.083408 
C 89.662532 102.829348 92.030868 103.810345 94.5 103.810345 
z
" clip-path="url(#pa23fecc976)" style="fill: #3c3263; opacity: 0.9"/>
   </g>
   <g id="patch_29">
    <path d="M 94.5 100.706897 
C 96.146088 100.706897 97.724979 100.052899 98.888939 98.888939 
C 100.052899 97.724979 100.706897 96.146088 100.706897 94.5 
C 100.706897 92.853912 100.052899 91.275021 98.888939 90.111061 
C 97.724979 88.947101 96.146088 88.293103 94.5 88.293103 
C 92.853912 88.293103 91.275021 88.947101 90.111061 90.111061 
C 88.947101 91.275021 88.293103 92.853912 88.293103 94.5 
C 88.293103 96.146088 88.947101 97.724979 90.111061 98.888939 
C 91.275021 100.052899 92.853912 100.706897 94.5 100.706897 
z
" clip-path="url(#pa23fecc976)" style="fill: #432754; opacity: 0.933333"/>
   </g>
   <g id="patch_30">
    <path d="M 94.5 97.603448 
C 95.323044 97.603448 96.112489 97.276449 96.694469 96.694469 
C 97.276449 96.112489 97.603448 95.323044 97.603448 94.5 
C 97.603448 93.676956 97.276449 92.887511 96.694469 92.305531 
C 96.112489 91.723551 95.323044 91.396552 94.5 91.396552 
C 93.676956 91.396552 92.887511 91.723551 92.305531 92.305531 
C 91.723551 92.887511 91.396552 93.676956 91.396552 94.5 
C 91.396552 95.323044 91.723551 96.112489 92.305531 96.694469 
C 92.887511 97.276449 93.676956 97.603448 94.5 97.603448 
z
" clip-path="url(#pa23fecc976)" style="fill: #491f47; opacity: 0.966667"/>
   </g>
   <g id="patch_31">
    <path d="M 94.5 94.5 
C 94.5 94.5 94.5 94.5 94.5 94.5 
C 94.5 94.5 94.5 94.5 94.5 94.5 
C 94.5 94.5 94.5 94.5 94.5 94.5 
C 94.5 94.5 94.5 94.5 94.5 94.5 
C 94.5 94.5 94.5 94.5 94.5 94.5 
C 94.5 94.5 94.5 94.5 94.5 94.5 
C 94.5 94.5 94.5 94.5 94.5 94.5 
C 94.5 94.5 94.5 94.5 94.5 94.5 
z
" clip-path="url(#pa23fecc976)" style="fill: #4f1a3d"/>
   </g>
   <g id="text_1">
    <path d="M 19.56 86.256797 
Q 19.498125 85.839141 19.400156 85.741172 
Q 19.627031 85.163672 19.735312 84.601641 
Q 19.84875 84.034453 19.915781 83.518828 
Q 19.977656 83.065078 20.060156 82.678359 
Q 20.142656 82.291641 20.271562 81.941016 
Q 20.818125 81.812109 21.091406 81.471797 
Q 21.364687 81.131484 21.524531 80.873672 
Q 22.107187 80.842734 22.2825 81.038672 
Q 22.462969 81.229453 22.684687 81.683203 
Q 22.849687 82.033828 23.138437 82.441172 
Q 23.427187 82.843359 24.009844 83.065078 
Q 24.102656 83.420859 24.231562 83.745703 
Q 24.360469 84.065391 24.525469 84.421172 
Q 24.814219 85.096641 25.072031 85.823672 
Q 25.329844 86.545547 25.360781 87.190078 
Q 24.974062 87.932578 24.762656 88.901953 
Q 24.556406 89.866172 24.504844 90.851016 
Q 24.458437 91.830703 24.556406 92.733047 
Q 24.654375 93.635391 24.876094 94.248984 
L 25.072031 94.764609 
L 25.778437 94.702734 
Q 26.938594 94.408828 27.871875 94.042734 
Q 28.810312 93.671484 29.614687 93.155859 
Q 30.419062 92.640234 31.161562 91.980234 
Q 31.904062 91.315078 32.708437 90.412734 
Q 33.481875 89.510391 34.095469 88.370859 
Q 34.709062 87.226172 35.11125 86.004141 
Q 35.513437 84.776953 35.735156 83.554922 
Q 35.962031 82.327734 36.029062 81.260391 
Q 36.642656 80.971641 36.704531 80.327109 
L 36.606562 79.909453 
Q 36.51375 79.749609 36.529219 79.605234 
Q 36.544687 79.455703 36.606562 79.326797 
Q 36.864375 78.589453 37.704844 78.233672 
Q 38.282344 78.620391 38.7825 79.074141 
Q 39.282656 79.522734 39.700312 79.971328 
Q 39.767344 80.842734 39.958125 81.471797 
Q 40.154062 82.100859 40.380937 82.678359 
Q 40.602656 83.230078 40.777969 83.745703 
Q 40.958437 84.261328 41.025469 84.998672 
Q 40.700625 85.968047 40.55625 86.823984 
Q 40.411875 87.674766 40.282969 88.608047 
L 40.215937 88.963828 
Q 39.638437 89.964141 39.07125 91.010859 
Q 38.509219 92.057578 38.153437 92.831016 
Q 37.962656 93.026953 37.818281 93.284766 
Q 37.673906 93.542578 37.545 93.800391 
Q 37.477969 93.893203 37.364531 94.120078 
Q 37.251094 94.346953 37.158281 94.444922 
L 36.384844 94.151016 
L 36.188906 95.151328 
L 35.673281 95.280234 
L 35.286562 95.733984 
Q 34.544062 97.023047 33.724219 97.894453 
Q 32.904375 98.760703 31.888594 99.441328 
Q 30.872812 100.116797 29.599219 100.714922 
Q 28.325625 101.307891 26.680781 101.983359 
Q 26.03625 101.885391 25.567031 101.869922 
Q 25.102969 101.854453 24.654375 101.823516 
Q 24.200625 101.823516 23.782969 101.792578 
Q 23.365312 101.756484 22.813594 101.694609 
Q 22.684687 101.405859 22.457812 101.276953 
Q 22.236094 101.148047 22.040156 101.148047 
Q 21.395625 100.823203 21.070781 100.245703 
Q 20.751094 99.663047 20.400469 98.956641 
Q 20.235469 98.569922 20.060156 98.183203 
Q 19.884844 97.796484 19.627031 97.440703 
L 20.271562 97.244766 
L 19.431094 96.280547 
Q 19.333125 96.182578 19.219687 96.089766 
Q 19.111406 95.991797 19.013437 95.862891 
L 19.013437 95.249297 
Q 18.884531 92.604141 18.9 90.366328 
Q 18.915469 88.128516 19.498125 86.416641 
L 19.56 86.256797 
z
M 48.692812 101.854453 
Q 47.790469 102.143203 46.728281 102.431953 
Q 45.666094 102.725859 44.59875 102.725859 
Q 42.99 102.725859 42.056719 101.921484 
Q 41.891719 101.565703 41.762812 101.436797 
Q 41.67 101.307891 41.5875 101.163516 
Q 41.505 101.019141 41.474062 100.761328 
Q 41.087344 100.307578 40.860469 99.714609 
Q 40.63875 99.116484 40.55625 98.487422 
Q 40.47375 97.858359 40.520156 97.213828 
Q 40.571719 96.569297 40.731562 95.991797 
Q 40.798594 95.862891 40.814062 95.733984 
Q 40.829531 95.605078 40.860469 95.440078 
Q 40.989375 94.924453 41.13375 94.444922 
Q 41.283281 93.960234 41.541094 93.604453 
Q 41.412187 93.315703 41.541094 92.959922 
Q 41.67 92.604141 41.829844 92.315391 
Q 42.278437 91.093359 42.582656 90.237422 
Q 42.892031 89.381484 43.216875 88.546172 
Q 43.763437 87.097266 44.242969 85.679297 
Q 44.727656 84.261328 45.114375 82.616484 
Q 45.372187 82.456641 45.501094 82.389609 
Q 45.697031 82.327734 45.825937 82.291641 
Q 46.403437 82.585547 47.176875 82.858828 
Q 47.950312 83.132109 48.465937 83.132109 
Q 48.72375 83.291953 48.785625 83.374453 
Q 48.852656 83.451797 48.919687 83.518828 
Q 49.275469 83.936484 49.533281 84.374766 
Q 49.791094 84.807891 49.693125 85.514297 
Q 49.497187 85.808203 49.404375 85.808203 
Q 49.239375 86.452734 49.064062 86.906484 
Q 48.88875 87.355078 48.692812 87.803672 
Q 48.465937 88.288359 48.27 88.773047 
Q 48.079219 89.252578 47.950312 89.964141 
Q 47.821406 90.123984 47.775 90.252891 
Q 47.728594 90.381797 47.661562 90.541641 
Q 47.599687 90.706641 47.517187 90.881953 
Q 47.434687 91.057266 47.274844 91.186172 
Q 47.176875 92.026641 46.965469 92.542266 
Q 46.759219 93.057891 46.532344 93.573516 
Q 46.145625 94.506797 45.841406 95.445234 
Q 45.537187 96.378516 45.470156 97.569609 
Q 45.63 97.502578 45.774375 97.502578 
Q 45.923906 97.502578 46.052812 97.502578 
Q 46.341562 97.502578 46.728281 97.600547 
Q 47.6925 97.084922 48.837187 96.992109 
Q 49.981875 96.894141 51.111094 96.858047 
Q 51.559687 96.858047 52.008281 96.858047 
Q 52.462031 96.858047 52.84875 96.796172 
Q 53.142656 96.956016 53.22 96.971484 
Q 53.3025 96.986953 53.462344 96.986953 
Q 53.689219 96.986953 53.849062 97.023047 
Q 54.235781 97.373672 54.591562 97.538672 
Q 54.947344 97.698516 55.334062 97.827422 
Q 55.684687 97.956328 56.025 98.100703 
Q 56.365312 98.245078 56.685 98.502891 
L 56.911875 99.889922 
Q 57.13875 100.178672 57.102656 100.276641 
Q 57.102656 100.534453 56.97375 100.663359 
L 57.040781 101.019141 
Q 56.556094 101.111953 56.375625 101.240859 
Q 56.200312 101.369766 56.040469 101.534766 
Q 55.782656 101.565703 55.669219 101.565703 
Q 55.555781 101.565703 55.462969 101.565703 
Q 55.009219 101.565703 54.364687 101.725547 
Q 53.493281 101.436797 52.56 101.436797 
Q 52.204219 101.436797 51.8175 101.467734 
Q 51.430781 101.498672 51.044062 101.534766 
Q 50.657344 101.596641 50.255156 101.632734 
Q 49.852969 101.663672 49.435312 101.663672 
L 48.692812 101.854453 
z
M 73.476328 86.710547 
Q 72.671953 86.710547 71.738672 86.823984 
Q 70.805391 86.932266 69.903047 87.061172 
Q 69.258516 87.159141 68.660391 87.226172 
Q 68.062266 87.288047 67.582734 87.318984 
Q 67.355859 88.030547 67.128984 88.577109 
Q 66.902109 89.123672 66.644297 89.639297 
Q 66.386484 90.191016 66.175078 90.753047 
Q 65.968828 91.315078 65.778047 91.959609 
Q 65.453203 92.475234 65.241797 92.913516 
Q 65.035547 93.346641 64.906641 93.893203 
Q 64.519922 94.377891 64.323984 94.908984 
Q 64.133203 95.440078 64.035234 95.826797 
L 63.906328 96.213516 
Q 63.715547 96.409453 63.679453 96.522891 
Q 63.648516 96.636328 63.519609 96.729141 
Q 63.488672 97.084922 63.292734 97.440703 
Q 63.230859 97.600547 63.194766 97.744922 
Q 63.163828 97.889297 63.163828 97.956328 
Q 63.163828 98.276016 63.003984 98.373984 
Q 63.034922 98.533828 63.003984 98.714297 
Q 62.973047 98.889609 62.942109 99.049453 
Q 62.844141 99.436172 62.875078 99.663047 
Q 62.973047 99.791953 63.050391 99.889922 
Q 63.132891 99.987891 63.163828 100.147734 
Q 63.359766 100.276641 63.457734 100.307578 
Q 63.586641 100.405547 63.844453 100.534453 
L 64.133203 100.854141 
Q 64.293047 101.792578 63.844453 102.339141 
Q 63.359766 102.952734 62.199609 102.952734 
L 61.812891 102.952734 
Q 61.653047 102.792891 61.616953 102.694922 
Q 61.359141 102.596953 61.199297 102.529922 
Q 61.039453 102.468047 60.910547 102.277266 
Q 60.492891 102.081328 60.235078 101.952422 
L 59.941172 101.792578 
Q 59.941172 101.436797 59.941172 101.405859 
Q 59.719453 101.111953 59.606016 100.761328 
Q 59.492578 100.405547 59.425547 100.049766 
Q 59.363672 99.761016 59.281172 99.503203 
Q 59.203828 99.245391 59.074922 99.049453 
Q 59.007891 97.182891 59.425547 95.893828 
Q 59.848359 94.604766 60.296953 93.413672 
Q 60.554766 92.769141 60.812578 92.109141 
Q 61.070391 91.443984 61.266328 90.737578 
L 61.555078 90.412734 
Q 61.781953 89.897109 61.926328 89.561953 
Q 62.070703 89.221641 62.230547 88.865859 
Q 62.328516 88.644141 62.405859 88.432734 
Q 62.488359 88.221328 62.555391 88.061484 
Q 62.359453 88.061484 62.199609 88.076953 
Q 62.039766 88.092422 61.874766 88.128516 
Q 61.683984 88.159453 61.518984 88.174922 
Q 61.359141 88.190391 61.199297 88.190391 
Q 60.972422 88.190391 60.879609 88.159453 
Q 60.523828 88.319297 60.106172 88.319297 
L 59.781328 88.319297 
Q 59.683359 88.319297 59.600859 88.303828 
Q 59.523516 88.288359 59.461641 88.288359 
Q 59.136797 88.288359 58.946016 88.386328 
Q 58.559297 88.386328 58.203516 88.386328 
L 57.878672 88.386328 
Q 57.816797 88.386328 57.718828 88.401797 
Q 57.620859 88.417266 57.558984 88.417266 
Q 57.332109 88.417266 57.074297 88.370859 
Q 56.816484 88.319297 56.527734 88.159453 
Q 56.141016 87.643828 56.012109 87.612891 
L 55.723359 87.226172 
Q 55.687266 87.030234 55.620234 86.854922 
Q 55.558359 86.674453 55.496484 86.452734 
Q 55.367578 86.127891 55.254141 85.756641 
Q 55.140703 85.385391 55.140703 84.869766 
Q 55.171641 84.611953 55.269609 84.483047 
Q 55.367578 84.354141 55.429453 84.261328 
L 55.527422 83.776641 
L 55.945078 83.807578 
L 56.847422 83.807578 
Q 57.878672 83.807578 58.940859 83.730234 
Q 60.008203 83.647734 61.137422 83.549766 
Q 61.781953 83.487891 62.441953 83.426016 
Q 63.101953 83.358984 63.808359 83.291953 
Q 63.937266 83.003203 64.066172 82.745391 
L 64.391016 82.585547 
Q 64.968516 82.549453 65.210859 82.729922 
Q 65.453203 82.905234 65.613047 83.065078 
Q 66.324609 83.003203 67.046484 82.925859 
Q 67.773516 82.843359 68.516016 82.714453 
Q 69.609141 82.549453 70.722891 82.420547 
Q 71.836641 82.291641 72.867891 82.291641 
Q 73.316484 82.291641 73.734141 82.327734 
Q 74.156953 82.358672 74.507578 82.420547 
L 74.832422 82.647422 
Q 74.930391 82.843359 75.105703 83.003203 
Q 75.281016 83.163047 75.476953 83.322891 
Q 75.863672 83.678672 76.250391 84.163359 
Q 76.637109 84.648047 76.539141 85.581328 
Q 76.281328 85.968047 76.152422 86.029922 
L 75.863672 86.416641 
L 75.538828 86.385703 
Q 75.348047 86.385703 75.183047 86.437266 
Q 75.023203 86.483672 74.863359 86.545547 
Q 74.734453 86.612578 74.605547 86.664141 
Q 74.476641 86.710547 74.316797 86.741484 
Q 74.028047 86.741484 73.847578 86.726016 
Q 73.672266 86.710547 73.476328 86.710547 
z
M 76.151133 98.858672 
Q 75.800508 100.147734 75.52207 100.807734 
Q 75.248789 101.467734 74.702227 102.179297 
Q 74.28457 102.112266 74.11957 102.272109 
Q 73.959727 102.437109 73.768945 102.566016 
Q 73.480195 102.627891 73.351289 102.560859 
Q 73.222383 102.498984 73.124414 102.416484 
Q 73.026445 102.339141 72.88207 102.256641 
Q 72.737695 102.179297 72.448945 102.179297 
Q 72.381914 101.921484 72.299414 101.694609 
Q 72.22207 101.467734 71.866289 101.534766 
Q 71.93332 101.276953 71.897227 101.101641 
Q 71.866289 100.921172 71.814727 100.776797 
Q 71.76832 100.632422 71.737383 100.488047 
Q 71.706445 100.338516 71.76832 100.116797 
Q 71.608477 100.116797 71.510508 99.889922 
Q 71.417695 99.663047 71.288789 99.436172 
Q 71.381602 98.858672 71.47957 98.343047 
Q 71.577539 97.827422 71.721914 97.378828 
Q 71.866289 96.925078 71.964258 96.476484 
Q 72.062227 96.022734 71.866289 95.538047 
Q 71.995195 95.636016 72.05707 95.491641 
Q 72.124102 95.347266 72.155039 95.104922 
Q 72.191133 94.862578 72.191133 94.620234 
Q 72.191133 94.377891 72.155039 94.218047 
Q 72.479883 93.377578 72.686133 92.495859 
Q 72.897539 91.608984 73.072852 90.737578 
Q 73.25332 89.866172 73.444102 89.030859 
Q 73.640039 88.190391 73.959727 87.483984 
Q 74.315508 87.416953 74.748633 87.561328 
Q 75.186914 87.705703 75.284883 87.932578 
Q 76.120195 87.288047 76.764727 86.370234 
Q 77.409258 85.452422 78.084727 84.581016 
Q 78.765352 83.709609 79.585195 83.034141 
Q 80.405039 82.358672 81.663164 82.229766 
Q 82.307695 82.714453 83.096602 83.214609 
Q 83.885508 83.709609 84.401133 84.519141 
Q 84.658945 84.648047 84.834258 84.792422 
Q 85.014727 84.936797 85.272539 85.096641 
L 85.272539 85.483359 
Q 85.659258 85.839141 85.901602 86.308359 
Q 86.143945 86.772422 86.334727 87.303516 
Q 86.530664 87.834609 86.721445 88.370859 
Q 86.917383 88.901953 87.175195 89.381484 
Q 87.108164 89.546484 87.108164 89.659922 
Q 87.108164 89.768203 87.15457 89.897109 
Q 87.206133 90.026016 87.23707 90.154922 
Q 87.273164 90.283828 87.23707 90.510703 
Q 87.144258 91.928672 86.319258 92.800078 
Q 85.499414 93.671484 84.339258 94.233516 
Q 83.179102 94.795547 81.853945 95.182266 
Q 80.533945 95.568984 79.471758 96.022734 
Q 79.471758 96.151641 79.585195 96.151641 
Q 79.698633 96.151641 79.667695 96.311484 
Q 80.441133 96.796172 80.889727 97.084922 
Q 81.343477 97.373672 81.745664 97.569609 
Q 82.147852 97.760391 82.611914 97.909922 
Q 83.081133 98.054297 83.921602 98.245078 
Q 84.756914 98.441016 85.220977 98.554453 
Q 85.690195 98.662734 86.076914 98.745234 
Q 86.463633 98.827734 86.86582 98.874141 
Q 87.273164 98.920547 88.010508 98.987578 
Q 88.304414 99.276328 88.510664 99.678516 
Q 88.72207 100.080703 88.783945 100.488047 
Q 88.850977 100.890234 88.814883 101.261484 
Q 88.783945 101.627578 88.593164 101.854453 
Q 88.624102 101.952422 88.737539 101.936953 
Q 88.850977 101.921484 88.979883 101.952422 
Q 88.783945 102.081328 88.655039 102.272109 
Q 88.526133 102.468047 88.397227 102.658828 
Q 88.26832 102.854766 88.108477 102.999141 
Q 87.948633 103.143516 87.659883 103.179609 
Q 86.65957 103.566328 85.143633 103.226016 
Q 83.627695 102.885703 81.307383 101.983359 
Q 80.147227 101.534766 79.420195 101.194453 
Q 78.69832 100.854141 78.167227 100.518984 
Q 77.636133 100.178672 77.197852 99.791953 
Q 76.764727 99.405234 76.151133 98.858672 
z
M 80.76082 87.803672 
Q 80.405039 88.319297 79.971914 88.742109 
Q 79.538789 89.159766 79.131445 89.592891 
Q 78.729258 90.026016 78.404414 90.562266 
Q 78.084727 91.093359 77.95582 91.799766 
Q 79.085039 91.670859 80.30707 91.170703 
Q 81.534258 90.670547 82.632539 90.221953 
Q 82.503633 89.221641 81.936445 88.613203 
Q 81.374414 87.999609 80.76082 87.803672 
z
M 105.864023 99.503203 
Q 105.673242 100.049766 105.301992 100.616953 
Q 104.930742 101.178984 104.430586 101.617266 
Q 103.93043 102.050391 103.316836 102.339141 
Q 102.708398 102.627891 102.03293 102.663984 
Q 101.610117 102.566016 101.465742 102.452578 
Q 101.321367 102.339141 101.161523 102.241172 
Q 101.063555 102.179297 100.981055 102.132891 
Q 100.903711 102.081328 100.83668 102.050391 
L 100.449961 101.885391 
L 100.578867 101.467734 
Q 100.645898 101.209922 100.54793 101.065547 
Q 100.449961 100.921172 100.161211 100.663359 
Q 100.063242 100.565391 99.965273 100.472578 
Q 99.872461 100.374609 99.80543 100.276641 
L 99.258867 99.663047 
L 100.130273 99.436172 
Q 100.934648 99.214453 101.20793 98.858672 
Q 101.481211 98.502891 101.419336 97.667578 
Q 100.774805 97.538672 100.336523 97.636641 
Q 99.903398 97.729453 99.454805 97.858359 
Q 98.872148 98.018203 98.274023 98.131641 
Q 97.681055 98.245078 96.969492 98.245078 
Q 96.71168 98.245078 96.484805 98.229609 
Q 96.263086 98.214141 96.005273 98.183203 
L 95.68043 98.116172 
Q 95.618555 97.760391 95.551523 97.713984 
Q 95.489648 97.667578 95.422617 97.600547 
Q 95.262773 97.440703 95.082305 97.167422 
Q 94.906992 96.894141 95.004961 96.471328 
Q 94.845117 96.182578 94.81418 95.893828 
Q 94.618242 96.280547 94.520273 96.698203 
L 94.391367 97.023047 
L 94.07168 97.084922 
Q 94.004648 97.115859 93.973711 97.229297 
Q 93.942773 97.342734 93.942773 97.409766 
L 93.78293 97.956328 
Q 93.715898 98.018203 93.648867 98.069766 
Q 93.586992 98.116172 93.525117 98.183203 
Q 93.458086 98.471953 93.360117 98.760703 
Q 93.267305 99.049453 93.169336 99.307266 
Q 93.009492 99.730078 92.896055 100.132266 
Q 92.782617 100.534453 92.813555 100.921172 
L 92.684648 101.276953 
Q 92.524805 101.467734 92.328867 101.581172 
Q 92.138086 101.694609 91.942148 101.792578 
Q 91.880273 101.854453 91.766836 101.906016 
Q 91.653398 101.952422 91.591523 101.983359 
L 91.493555 102.339141 
L 91.106836 102.406172 
Q 90.751055 102.468047 90.60668 102.498984 
Q 90.462305 102.535078 90.266367 102.535078 
L 89.94668 102.498984 
Q 89.590898 102.210234 89.394961 102.034922 
Q 89.20418 101.854453 88.946367 101.694609 
Q 88.657617 101.307891 88.62668 101.117109 
Q 88.590586 100.921172 88.559648 100.761328 
Q 88.492617 100.565391 88.477148 100.436484 
Q 88.46168 100.307578 88.399805 100.245703 
L 87.976992 99.858984 
L 88.332773 99.565078 
L 88.363711 99.018516 
Q 89.013398 97.373672 89.735273 95.862891 
Q 90.462305 94.346953 91.235742 92.769141 
Q 91.493555 92.253516 91.735898 91.737891 
Q 91.978242 91.222266 92.236055 90.706641 
Q 92.199961 90.608672 92.199961 90.479766 
Q 92.199961 90.350859 92.266992 90.191016 
Q 92.622773 89.639297 92.844492 89.206172 
Q 93.071367 88.773047 93.298242 88.319297 
Q 93.556055 87.772734 93.829336 87.257109 
Q 94.102617 86.741484 94.520273 86.194922 
L 95.035898 85.968047 
Q 95.133867 85.937109 95.262773 85.890703 
Q 95.39168 85.839141 95.551523 85.839141 
L 96.036211 85.901016 
Q 96.938555 85.483359 97.614023 84.725391 
Q 98.294648 83.967422 99.001055 82.905234 
L 99.325898 82.456641 
L 99.743555 82.714453 
Q 99.903398 82.807266 100.192148 82.889766 
Q 100.486055 82.972266 100.805742 83.065078 
Q 101.388398 83.193984 101.904023 83.358984 
Q 102.419648 83.518828 102.739336 83.838516 
Q 102.935273 84.354141 102.966211 84.611953 
Q 102.997148 84.869766 103.06418 85.127578 
Q 103.156992 85.679297 103.239492 86.225859 
Q 103.321992 86.772422 103.35293 87.447891 
Q 103.512773 87.999609 103.626211 88.530703 
Q 103.739648 89.061797 103.837617 89.608359 
Q 103.997461 90.381797 104.157305 91.108828 
Q 104.317148 91.830703 104.574961 92.475234 
Q 104.832773 92.475234 104.899805 92.511328 
Q 105.059648 92.444297 105.234961 92.413359 
Q 105.41543 92.382422 105.642305 92.346328 
L 105.99293 92.315391 
L 106.121836 92.640234 
Q 106.15793 92.800078 106.44668 92.959922 
Q 106.864336 92.990859 107.055117 93.140391 
Q 107.251055 93.284766 107.410898 93.444609 
Q 107.539805 93.573516 107.668711 93.635391 
L 108.153398 93.831328 
L 107.895586 94.316016 
Q 107.575898 94.893516 106.977773 95.424609 
Q 106.379648 95.955703 105.642305 96.311484 
Q 105.673242 96.507422 105.688711 96.682734 
Q 105.70418 96.858047 105.771211 97.053984 
Q 105.864023 97.600547 105.925898 98.183203 
Q 105.99293 98.760703 105.931055 99.374297 
L 105.864023 99.503203 
z
M 96.551836 93.929297 
Q 97.521211 93.862266 98.310117 93.784922 
Q 99.099023 93.702422 100.063242 93.506484 
Q 99.841523 92.542266 99.583711 91.495547 
Q 99.325898 90.448828 99.031992 89.417578 
L 98.841211 89.737266 
Q 98.19668 90.412734 97.598555 91.253203 
Q 97.005586 92.088516 96.582773 92.831016 
Q 96.391992 93.119766 96.196055 93.413672 
Q 96.005273 93.702422 95.84543 93.991172 
Q 96.036211 93.960234 96.211523 93.960234 
Q 96.391992 93.960234 96.551836 93.929297 
z
" style="fill: #4682b4; stroke: #ffffff; stroke-width: 3"/>
    <path d="M 19.56 86.256797 
Q 19.498125 85.839141 19.400156 85.741172 
Q 19.627031 85.163672 19.735312 84.601641 
Q 19.84875 84.034453 19.915781 83.518828 
Q 19.977656 83.065078 20.060156 82.678359 
Q 20.142656 82.291641 20.271562 81.941016 
Q 20.818125 81.812109 21.091406 81.471797 
Q 21.364687 81.131484 21.524531 80.873672 
Q 22.107187 80.842734 22.2825 81.038672 
Q 22.462969 81.229453 22.684687 81.683203 
Q 22.849687 82.033828 23.138437 82.441172 
Q 23.427187 82.843359 24.009844 83.065078 
Q 24.102656 83.420859 24.231562 83.745703 
Q 24.360469 84.065391 24.525469 84.421172 
Q 24.814219 85.096641 25.072031 85.823672 
Q 25.329844 86.545547 25.360781 87.190078 
Q 24.974062 87.932578 24.762656 88.901953 
Q 24.556406 89.866172 24.504844 90.851016 
Q 24.458437 91.830703 24.556406 92.733047 
Q 24.654375 93.635391 24.876094 94.248984 
L 25.072031 94.764609 
L 25.778437 94.702734 
Q 26.938594 94.408828 27.871875 94.042734 
Q 28.810312 93.671484 29.614687 93.155859 
Q 30.419062 92.640234 31.161562 91.980234 
Q 31.904062 91.315078 32.708437 90.412734 
Q 33.481875 89.510391 34.095469 88.370859 
Q 34.709062 87.226172 35.11125 86.004141 
Q 35.513437 84.776953 35.735156 83.554922 
Q 35.962031 82.327734 36.029062 81.260391 
Q 36.642656 80.971641 36.704531 80.327109 
L 36.606562 79.909453 
Q 36.51375 79.749609 36.529219 79.605234 
Q 36.544687 79.455703 36.606562 79.326797 
Q 36.864375 78.589453 37.704844 78.233672 
Q 38.282344 78.620391 38.7825 79.074141 
Q 39.282656 79.522734 39.700312 79.971328 
Q 39.767344 80.842734 39.958125 81.471797 
Q 40.154062 82.100859 40.380937 82.678359 
Q 40.602656 83.230078 40.777969 83.745703 
Q 40.958437 84.261328 41.025469 84.998672 
Q 40.700625 85.968047 40.55625 86.823984 
Q 40.411875 87.674766 40.282969 88.608047 
L 40.215937 88.963828 
Q 39.638437 89.964141 39.07125 91.010859 
Q 38.509219 92.057578 38.153437 92.831016 
Q 37.962656 93.026953 37.818281 93.284766 
Q 37.673906 93.542578 37.545 93.800391 
Q 37.477969 93.893203 37.364531 94.120078 
Q 37.251094 94.346953 37.158281 94.444922 
L 36.384844 94.151016 
L 36.188906 95.151328 
L 35.673281 95.280234 
L 35.286562 95.733984 
Q 34.544062 97.023047 33.724219 97.894453 
Q 32.904375 98.760703 31.888594 99.441328 
Q 30.872812 100.116797 29.599219 100.714922 
Q 28.325625 101.307891 26.680781 101.983359 
Q 26.03625 101.885391 25.567031 101.869922 
Q 25.102969 101.854453 24.654375 101.823516 
Q 24.200625 101.823516 23.782969 101.792578 
Q 23.365312 101.756484 22.813594 101.694609 
Q 22.684687 101.405859 22.457812 101.276953 
Q 22.236094 101.148047 22.040156 101.148047 
Q 21.395625 100.823203 21.070781 100.245703 
Q 20.751094 99.663047 20.400469 98.956641 
Q 20.235469 98.569922 20.060156 98.183203 
Q 19.884844 97.796484 19.627031 97.440703 
L 20.271562 97.244766 
L 19.431094 96.280547 
Q 19.333125 96.182578 19.219687 96.089766 
Q 19.111406 95.991797 19.013437 95.862891 
L 19.013437 95.249297 
Q 18.884531 92.604141 18.9 90.366328 
Q 18.915469 88.128516 19.498125 86.416641 
L 19.56 86.256797 
z
M 48.692812 101.854453 
Q 47.790469 102.143203 46.728281 102.431953 
Q 45.666094 102.725859 44.59875 102.725859 
Q 42.99 102.725859 42.056719 101.921484 
Q 41.891719 101.565703 41.762812 101.436797 
Q 41.67 101.307891 41.5875 101.163516 
Q 41.505 101.019141 41.474062 100.761328 
Q 41.087344 100.307578 40.860469 99.714609 
Q 40.63875 99.116484 40.55625 98.487422 
Q 40.47375 97.858359 40.520156 97.213828 
Q 40.571719 96.569297 40.731562 95.991797 
Q 40.798594 95.862891 40.814062 95.733984 
Q 40.829531 95.605078 40.860469 95.440078 
Q 40.989375 94.924453 41.13375 94.444922 
Q 41.283281 93.960234 41.541094 93.604453 
Q 41.412187 93.315703 41.541094 92.959922 
Q 41.67 92.604141 41.829844 92.315391 
Q 42.278437 91.093359 42.582656 90.237422 
Q 42.892031 89.381484 43.216875 88.546172 
Q 43.763437 87.097266 44.242969 85.679297 
Q 44.727656 84.261328 45.114375 82.616484 
Q 45.372187 82.456641 45.501094 82.389609 
Q 45.697031 82.327734 45.825937 82.291641 
Q 46.403437 82.585547 47.176875 82.858828 
Q 47.950312 83.132109 48.465937 83.132109 
Q 48.72375 83.291953 48.785625 83.374453 
Q 48.852656 83.451797 48.919687 83.518828 
Q 49.275469 83.936484 49.533281 84.374766 
Q 49.791094 84.807891 49.693125 85.514297 
Q 49.497187 85.808203 49.404375 85.808203 
Q 49.239375 86.452734 49.064062 86.906484 
Q 48.88875 87.355078 48.692812 87.803672 
Q 48.465937 88.288359 48.27 88.773047 
Q 48.079219 89.252578 47.950312 89.964141 
Q 47.821406 90.123984 47.775 90.252891 
Q 47.728594 90.381797 47.661562 90.541641 
Q 47.599687 90.706641 47.517187 90.881953 
Q 47.434687 91.057266 47.274844 91.186172 
Q 47.176875 92.026641 46.965469 92.542266 
Q 46.759219 93.057891 46.532344 93.573516 
Q 46.145625 94.506797 45.841406 95.445234 
Q 45.537187 96.378516 45.470156 97.569609 
Q 45.63 97.502578 45.774375 97.502578 
Q 45.923906 97.502578 46.052812 97.502578 
Q 46.341562 97.502578 46.728281 97.600547 
Q 47.6925 97.084922 48.837187 96.992109 
Q 49.981875 96.894141 51.111094 96.858047 
Q 51.559687 96.858047 52.008281 96.858047 
Q 52.462031 96.858047 52.84875 96.796172 
Q 53.142656 96.956016 53.22 96.971484 
Q 53.3025 96.986953 53.462344 96.986953 
Q 53.689219 96.986953 53.849062 97.023047 
Q 54.235781 97.373672 54.591562 97.538672 
Q 54.947344 97.698516 55.334062 97.827422 
Q 55.684687 97.956328 56.025 98.100703 
Q 56.365312 98.245078 56.685 98.502891 
L 56.911875 99.889922 
Q 57.13875 100.178672 57.102656 100.276641 
Q 57.102656 100.534453 56.97375 100.663359 
L 57.040781 101.019141 
Q 56.556094 101.111953 56.375625 101.240859 
Q 56.200312 101.369766 56.040469 101.534766 
Q 55.782656 101.565703 55.669219 101.565703 
Q 55.555781 101.565703 55.462969 101.565703 
Q 55.009219 101.565703 54.364687 101.725547 
Q 53.493281 101.436797 52.56 101.436797 
Q 52.204219 101.436797 51.8175 101.467734 
Q 51.430781 101.498672 51.044062 101.534766 
Q 50.657344 101.596641 50.255156 101.632734 
Q 49.852969 101.663672 49.435312 101.663672 
L 48.692812 101.854453 
z
M 73.476328 86.710547 
Q 72.671953 86.710547 71.738672 86.823984 
Q 70.805391 86.932266 69.903047 87.061172 
Q 69.258516 87.159141 68.660391 87.226172 
Q 68.062266 87.288047 67.582734 87.318984 
Q 67.355859 88.030547 67.128984 88.577109 
Q 66.902109 89.123672 66.644297 89.639297 
Q 66.386484 90.191016 66.175078 90.753047 
Q 65.968828 91.315078 65.778047 91.959609 
Q 65.453203 92.475234 65.241797 92.913516 
Q 65.035547 93.346641 64.906641 93.893203 
Q 64.519922 94.377891 64.323984 94.908984 
Q 64.133203 95.440078 64.035234 95.826797 
L 63.906328 96.213516 
Q 63.715547 96.409453 63.679453 96.522891 
Q 63.648516 96.636328 63.519609 96.729141 
Q 63.488672 97.084922 63.292734 97.440703 
Q 63.230859 97.600547 63.194766 97.744922 
Q 63.163828 97.889297 63.163828 97.956328 
Q 63.163828 98.276016 63.003984 98.373984 
Q 63.034922 98.533828 63.003984 98.714297 
Q 62.973047 98.889609 62.942109 99.049453 
Q 62.844141 99.436172 62.875078 99.663047 
Q 62.973047 99.791953 63.050391 99.889922 
Q 63.132891 99.987891 63.163828 100.147734 
Q 63.359766 100.276641 63.457734 100.307578 
Q 63.586641 100.405547 63.844453 100.534453 
L 64.133203 100.854141 
Q 64.293047 101.792578 63.844453 102.339141 
Q 63.359766 102.952734 62.199609 102.952734 
L 61.812891 102.952734 
Q 61.653047 102.792891 61.616953 102.694922 
Q 61.359141 102.596953 61.199297 102.529922 
Q 61.039453 102.468047 60.910547 102.277266 
Q 60.492891 102.081328 60.235078 101.952422 
L 59.941172 101.792578 
Q 59.941172 101.436797 59.941172 101.405859 
Q 59.719453 101.111953 59.606016 100.761328 
Q 59.492578 100.405547 59.425547 100.049766 
Q 59.363672 99.761016 59.281172 99.503203 
Q 59.203828 99.245391 59.074922 99.049453 
Q 59.007891 97.182891 59.425547 95.893828 
Q 59.848359 94.604766 60.296953 93.413672 
Q 60.554766 92.769141 60.812578 92.109141 
Q 61.070391 91.443984 61.266328 90.737578 
L 61.555078 90.412734 
Q 61.781953 89.897109 61.926328 89.561953 
Q 62.070703 89.221641 62.230547 88.865859 
Q 62.328516 88.644141 62.405859 88.432734 
Q 62.488359 88.221328 62.555391 88.061484 
Q 62.359453 88.061484 62.199609 88.076953 
Q 62.039766 88.092422 61.874766 88.128516 
Q 61.683984 88.159453 61.518984 88.174922 
Q 61.359141 88.190391 61.199297 88.190391 
Q 60.972422 88.190391 60.879609 88.159453 
Q 60.523828 88.319297 60.106172 88.319297 
L 59.781328 88.319297 
Q 59.683359 88.319297 59.600859 88.303828 
Q 59.523516 88.288359 59.461641 88.288359 
Q 59.136797 88.288359 58.946016 88.386328 
Q 58.559297 88.386328 58.203516 88.386328 
L 57.878672 88.386328 
Q 57.816797 88.386328 57.718828 88.401797 
Q 57.620859 88.417266 57.558984 88.417266 
Q 57.332109 88.417266 57.074297 88.370859 
Q 56.816484 88.319297 56.527734 88.159453 
Q 56.141016 87.643828 56.012109 87.612891 
L 55.723359 87.226172 
Q 55.687266 87.030234 55.620234 86.854922 
Q 55.558359 86.674453 55.496484 86.452734 
Q 55.367578 86.127891 55.254141 85.756641 
Q 55.140703 85.385391 55.140703 84.869766 
Q 55.171641 84.611953 55.269609 84.483047 
Q 55.367578 84.354141 55.429453 84.261328 
L 55.527422 83.776641 
L 55.945078 83.807578 
L 56.847422 83.807578 
Q 57.878672 83.807578 58.940859 83.730234 
Q 60.008203 83.647734 61.137422 83.549766 
Q 61.781953 83.487891 62.441953 83.426016 
Q 63.101953 83.358984 63.808359 83.291953 
Q 63.937266 83.003203 64.066172 82.745391 
L 64.391016 82.585547 
Q 64.968516 82.549453 65.210859 82.729922 
Q 65.453203 82.905234 65.613047 83.065078 
Q 66.324609 83.003203 67.046484 82.925859 
Q 67.773516 82.843359 68.516016 82.714453 
Q 69.609141 82.549453 70.722891 82.420547 
Q 71.836641 82.291641 72.867891 82.291641 
Q 73.316484 82.291641 73.734141 82.327734 
Q 74.156953 82.358672 74.507578 82.420547 
L 74.832422 82.647422 
Q 74.930391 82.843359 75.105703 83.003203 
Q 75.281016 83.163047 75.476953 83.322891 
Q 75.863672 83.678672 76.250391 84.163359 
Q 76.637109 84.648047 76.539141 85.581328 
Q 76.281328 85.968047 76.152422 86.029922 
L 75.863672 86.416641 
L 75.538828 86.385703 
Q 75.348047 86.385703 75.183047 86.437266 
Q 75.023203 86.483672 74.863359 86.545547 
Q 74.734453 86.612578 74.605547 86.664141 
Q 74.476641 86.710547 74.316797 86.741484 
Q 74.028047 86.741484 73.847578 86.726016 
Q 73.672266 86.710547 73.476328 86.710547 
z
M 76.151133 98.858672 
Q 75.800508 100.147734 75.52207 100.807734 
Q 75.248789 101.467734 74.702227 102.179297 
Q 74.28457 102.112266 74.11957 102.272109 
Q 73.959727 102.437109 73.768945 102.566016 
Q 73.480195 102.627891 73.351289 102.560859 
Q 73.222383 102.498984 73.124414 102.416484 
Q 73.026445 102.339141 72.88207 102.256641 
Q 72.737695 102.179297 72.448945 102.179297 
Q 72.381914 101.921484 72.299414 101.694609 
Q 72.22207 101.467734 71.866289 101.534766 
Q 71.93332 101.276953 71.897227 101.101641 
Q 71.866289 100.921172 71.814727 100.776797 
Q 71.76832 100.632422 71.737383 100.488047 
Q 71.706445 100.338516 71.76832 100.116797 
Q 71.608477 100.116797 71.510508 99.889922 
Q 71.417695 99.663047 71.288789 99.436172 
Q 71.381602 98.858672 71.47957 98.343047 
Q 71.577539 97.827422 71.721914 97.378828 
Q 71.866289 96.925078 71.964258 96.476484 
Q 72.062227 96.022734 71.866289 95.538047 
Q 71.995195 95.636016 72.05707 95.491641 
Q 72.124102 95.347266 72.155039 95.104922 
Q 72.191133 94.862578 72.191133 94.620234 
Q 72.191133 94.377891 72.155039 94.218047 
Q 72.479883 93.377578 72.686133 92.495859 
Q 72.897539 91.608984 73.072852 90.737578 
Q 73.25332 89.866172 73.444102 89.030859 
Q 73.640039 88.190391 73.959727 87.483984 
Q 74.315508 87.416953 74.748633 87.561328 
Q 75.186914 87.705703 75.284883 87.932578 
Q 76.120195 87.288047 76.764727 86.370234 
Q 77.409258 85.452422 78.084727 84.581016 
Q 78.765352 83.709609 79.585195 83.034141 
Q 80.405039 82.358672 81.663164 82.229766 
Q 82.307695 82.714453 83.096602 83.214609 
Q 83.885508 83.709609 84.401133 84.519141 
Q 84.658945 84.648047 84.834258 84.792422 
Q 85.014727 84.936797 85.272539 85.096641 
L 85.272539 85.483359 
Q 85.659258 85.839141 85.901602 86.308359 
Q 86.143945 86.772422 86.334727 87.303516 
Q 86.530664 87.834609 86.721445 88.370859 
Q 86.917383 88.901953 87.175195 89.381484 
Q 87.108164 89.546484 87.108164 89.659922 
Q 87.108164 89.768203 87.15457 89.897109 
Q 87.206133 90.026016 87.23707 90.154922 
Q 87.273164 90.283828 87.23707 90.510703 
Q 87.144258 91.928672 86.319258 92.800078 
Q 85.499414 93.671484 84.339258 94.233516 
Q 83.179102 94.795547 81.853945 95.182266 
Q 80.533945 95.568984 79.471758 96.022734 
Q 79.471758 96.151641 79.585195 96.151641 
Q 79.698633 96.151641 79.667695 96.311484 
Q 80.441133 96.796172 80.889727 97.084922 
Q 81.343477 97.373672 81.745664 97.569609 
Q 82.147852 97.760391 82.611914 97.909922 
Q 83.081133 98.054297 83.921602 98.245078 
Q 84.756914 98.441016 85.220977 98.554453 
Q 85.690195 98.662734 86.076914 98.745234 
Q 86.463633 98.827734 86.86582 98.874141 
Q 87.273164 98.920547 88.010508 98.987578 
Q 88.304414 99.276328 88.510664 99.678516 
Q 88.72207 100.080703 88.783945 100.488047 
Q 88.850977 100.890234 88.814883 101.261484 
Q 88.783945 101.627578 88.593164 101.854453 
Q 88.624102 101.952422 88.737539 101.936953 
Q 88.850977 101.921484 88.979883 101.952422 
Q 88.783945 102.081328 88.655039 102.272109 
Q 88.526133 102.468047 88.397227 102.658828 
Q 88.26832 102.854766 88.108477 102.999141 
Q 87.948633 103.143516 87.659883 103.179609 
Q 86.65957 103.566328 85.143633 103.226016 
Q 83.627695 102.885703 81.307383 101.983359 
Q 80.147227 101.534766 79.420195 101.194453 
Q 78.69832 100.854141 78.167227 100.518984 
Q 77.636133 100.178672 77.197852 99.791953 
Q 76.764727 99.405234 76.151133 98.858672 
z
M 80.76082 87.803672 
Q 80.405039 88.319297 79.971914 88.742109 
Q 79.538789 89.159766 79.131445 89.592891 
Q 78.729258 90.026016 78.404414 90.562266 
Q 78.084727 91.093359 77.95582 91.799766 
Q 79.085039 91.670859 80.30707 91.170703 
Q 81.534258 90.670547 82.632539 90.221953 
Q 82.503633 89.221641 81.936445 88.613203 
Q 81.374414 87.999609 80.76082 87.803672 
z
M 105.864023 99.503203 
Q 105.673242 100.049766 105.301992 100.616953 
Q 104.930742 101.178984 104.430586 101.617266 
Q 103.93043 102.050391 103.316836 102.339141 
Q 102.708398 102.627891 102.03293 102.663984 
Q 101.610117 102.566016 101.465742 102.452578 
Q 101.321367 102.339141 101.161523 102.241172 
Q 101.063555 102.179297 100.981055 102.132891 
Q 100.903711 102.081328 100.83668 102.050391 
L 100.449961 101.885391 
L 100.578867 101.467734 
Q 100.645898 101.209922 100.54793 101.065547 
Q 100.449961 100.921172 100.161211 100.663359 
Q 100.063242 100.565391 99.965273 100.472578 
Q 99.872461 100.374609 99.80543 100.276641 
L 99.258867 99.663047 
L 100.130273 99.436172 
Q 100.934648 99.214453 101.20793 98.858672 
Q 101.481211 98.502891 101.419336 97.667578 
Q 100.774805 97.538672 100.336523 97.636641 
Q 99.903398 97.729453 99.454805 97.858359 
Q 98.872148 98.018203 98.274023 98.131641 
Q 97.681055 98.245078 96.969492 98.245078 
Q 96.71168 98.245078 96.484805 98.229609 
Q 96.263086 98.214141 96.005273 98.183203 
L 95.68043 98.116172 
Q 95.618555 97.760391 95.551523 97.713984 
Q 95.489648 97.667578 95.422617 97.600547 
Q 95.262773 97.440703 95.082305 97.167422 
Q 94.906992 96.894141 95.004961 96.471328 
Q 94.845117 96.182578 94.81418 95.893828 
Q 94.618242 96.280547 94.520273 96.698203 
L 94.391367 97.023047 
L 94.07168 97.084922 
Q 94.004648 97.115859 93.973711 97.229297 
Q 93.942773 97.342734 93.942773 97.409766 
L 93.78293 97.956328 
Q 93.715898 98.018203 93.648867 98.069766 
Q 93.586992 98.116172 93.525117 98.183203 
Q 93.458086 98.471953 93.360117 98.760703 
Q 93.267305 99.049453 93.169336 99.307266 
Q 93.009492 99.730078 92.896055 100.132266 
Q 92.782617 100.534453 92.813555 100.921172 
L 92.684648 101.276953 
Q 92.524805 101.467734 92.328867 101.581172 
Q 92.138086 101.694609 91.942148 101.792578 
Q 91.880273 101.854453 91.766836 101.906016 
Q 91.653398 101.952422 91.591523 101.983359 
L 91.493555 102.339141 
L 91.106836 102.406172 
Q 90.751055 102.468047 90.60668 102.498984 
Q 90.462305 102.535078 90.266367 102.535078 
L 89.94668 102.498984 
Q 89.590898 102.210234 89.394961 102.034922 
Q 89.20418 101.854453 88.946367 101.694609 
Q 88.657617 101.307891 88.62668 101.117109 
Q 88.590586 100.921172 88.559648 100.761328 
Q 88.492617 100.565391 88.477148 100.436484 
Q 88.46168 100.307578 88.399805 100.245703 
L 87.976992 99.858984 
L 88.332773 99.565078 
L 88.363711 99.018516 
Q 89.013398 97.373672 89.735273 95.862891 
Q 90.462305 94.346953 91.235742 92.769141 
Q 91.493555 92.253516 91.735898 91.737891 
Q 91.978242 91.222266 92.236055 90.706641 
Q 92.199961 90.608672 92.199961 90.479766 
Q 92.199961 90.350859 92.266992 90.191016 
Q 92.622773 89.639297 92.844492 89.206172 
Q 93.071367 88.773047 93.298242 88.319297 
Q 93.556055 87.772734 93.829336 87.257109 
Q 94.102617 86.741484 94.520273 86.194922 
L 95.035898 85.968047 
Q 95.133867 85.937109 95.262773 85.890703 
Q 95.39168 85.839141 95.551523 85.839141 
L 96.036211 85.901016 
Q 96.938555 85.483359 97.614023 84.725391 
Q 98.294648 83.967422 99.001055 82.905234 
L 99.325898 82.456641 
L 99.743555 82.714453 
Q 99.903398 82.807266 100.192148 82.889766 
Q 100.486055 82.972266 100.805742 83.065078 
Q 101.388398 83.193984 101.904023 83.358984 
Q 102.419648 83.518828 102.739336 83.838516 
Q 102.935273 84.354141 102.966211 84.611953 
Q 102.997148 84.869766 103.06418 85.127578 
Q 103.156992 85.679297 103.239492 86.225859 
Q 103.321992 86.772422 103.35293 87.447891 
Q 103.512773 87.999609 103.626211 88.530703 
Q 103.739648 89.061797 103.837617 89.608359 
Q 103.997461 90.381797 104.157305 91.108828 
Q 104.317148 91.830703 104.574961 92.475234 
Q 104.832773 92.475234 104.899805 92.511328 
Q 105.059648 92.444297 105.234961 92.413359 
Q 105.41543 92.382422 105.642305 92.346328 
L 105.99293 92.315391 
L 106.121836 92.640234 
Q 106.15793 92.800078 106.44668 92.959922 
Q 106.864336 92.990859 107.055117 93.140391 
Q 107.251055 93.284766 107.410898 93.444609 
Q 107.539805 93.573516 107.668711 93.635391 
L 108.153398 93.831328 
L 107.895586 94.316016 
Q 107.575898 94.893516 106.977773 95.424609 
Q 106.379648 95.955703 105.642305 96.311484 
Q 105.673242 96.507422 105.688711 96.682734 
Q 105.70418 96.858047 105.771211 97.053984 
Q 105.864023 97.600547 105.925898 98.183203 
Q 105.99293 98.760703 105.931055 99.374297 
L 105.864023 99.503203 
z
M 96.551836 93.929297 
Q 97.521211 93.862266 98.310117 93.784922 
Q 99.099023 93.702422 100.063242 93.506484 
Q 99.841523 92.542266 99.583711 91.495547 
Q 99.325898 90.448828 99.031992 89.417578 
L 98.841211 89.737266 
Q 98.19668 90.412734 97.598555 91.253203 
Q 97.005586 92.088516 96.582773 92.831016 
Q 96.391992 93.119766 96.196055 93.413672 
Q 96.005273 93.702422 95.84543 93.991172 
Q 96.036211 93.960234 96.211523 93.960234 
Q 96.391992 93.960234 96.551836 93.929297 
z
" style="fill: #4682b4"/>
   </g>
   <g id="text_2">
    <path d="M 128.362031 82.338047 
Q 128.362031 85.338984 126.48 87.236484 
Q 124.597969 89.133984 121.627969 89.133984 
L 114.074062 89.133984 
L 114.074062 99.333047 
L 111.000937 99.333047 
L 111.000937 75.273984 
L 120.937031 75.273984 
Q 124.5 75.273984 126.428437 77.109609 
Q 128.362031 78.940078 128.362031 82.338047 
z
M 123.9225 85.308047 
Q 125.16 84.183984 125.16 82.203984 
Q 125.16 80.223984 123.9225 79.105078 
Q 122.685 77.981016 120.472969 77.981016 
L 114.074062 77.981016 
L 114.074062 86.432109 
L 120.472969 86.432109 
Q 122.685 86.432109 123.9225 85.308047 
z
M 134.991936 99.333047 
L 132.253968 99.333047 
L 132.253968 75.273984 
L 134.991936 75.273984 
L 134.991936 99.333047 
z
M 154.166998 90.820078 
Q 154.166998 95.073984 152.089029 97.451016 
Q 150.01106 99.828047 146.344967 99.828047 
Q 142.647935 99.828047 140.585435 97.435547 
Q 138.522935 95.043047 138.522935 90.686016 
Q 138.522935 86.365078 140.585435 83.957109 
Q 142.647935 81.543984 146.314029 81.543984 
Q 150.072935 81.543984 152.119967 83.957109 
Q 154.166998 86.365078 154.166998 90.820078 
z
M 151.294967 90.783984 
Q 151.294967 87.587109 149.990435 85.839141 
Q 148.69106 84.086016 146.344967 84.086016 
Q 144.034967 84.086016 142.714967 85.839141 
Q 141.394967 87.587109 141.394967 90.686016 
Q 141.394967 93.821016 142.714967 95.553516 
Q 144.034967 97.286016 146.344967 97.286016 
Q 148.624029 97.286016 149.959498 95.553516 
Q 151.294967 93.821016 151.294967 90.783984 
z
M 164.069057 99.333047 
Q 162.779995 99.565078 161.820932 99.565078 
Q 160.207026 99.565078 159.345932 98.858672 
Q 158.489995 98.147109 158.489995 96.827109 
L 158.489995 84.287109 
L 156.149057 84.287109 
L 156.149057 82.038984 
L 158.489995 82.038984 
L 158.489995 77.290078 
L 161.227964 77.290078 
L 161.227964 82.038984 
L 164.069057 82.038984 
L 164.069057 84.287109 
L 161.227964 84.287109 
L 161.227964 95.605078 
Q 161.227964 96.528047 161.542495 96.842578 
Q 161.857026 97.157109 162.749057 97.157109 
Q 163.574057 97.157109 164.069057 97.023047 
L 164.069057 99.333047 
z
" style="fill: #ffffff; stroke: #4682b4; stroke-width: 3"/>
    <path d="M 128.362031 82.338047 
Q 128.362031 85.338984 126.48 87.236484 
Q 124.597969 89.133984 121.627969 89.133984 
L 114.074062 89.133984 
L 114.074062 99.333047 
L 111.000937 99.333047 
L 111.000937 75.273984 
L 120.937031 75.273984 
Q 124.5 75.273984 126.428437 77.109609 
Q 128.362031 78.940078 128.362031 82.338047 
z
M 123.9225 85.308047 
Q 125.16 84.183984 125.16 82.203984 
Q 125.16 80.223984 123.9225 79.105078 
Q 122.685 77.981016 120.472969 77.981016 
L 114.074062 77.981016 
L 114.074062 86.432109 
L 120.472969 86.432109 
Q 122.685 86.432109 123.9225 85.308047 
z
M 134.991936 99.333047 
L 132.253968 99.333047 
L 132.253968 75.273984 
L 134.991936 75.273984 
L 134.991936 99.333047 
z
M 154.166998 90.820078 
Q 154.166998 95.073984 152.089029 97.451016 
Q 150.01106 99.828047 146.344967 99.828047 
Q 142.647935 99.828047 140.585435 97.435547 
Q 138.522935 95.043047 138.522935 90.686016 
Q 138.522935 86.365078 140.585435 83.957109 
Q 142.647935 81.543984 146.314029 81.543984 
Q 150.072935 81.543984 152.119967 83.957109 
Q 154.166998 86.365078 154.166998 90.820078 
z
M 151.294967 90.783984 
Q 151.294967 87.587109 149.990435 85.839141 
Q 148.69106 84.086016 146.344967 84.086016 
Q 144.034967 84.086016 142.714967 85.839141 
Q 141.394967 87.587109 141.394967 90.686016 
Q 141.394967 93.821016 142.714967 95.553516 
Q 144.034967 97.286016 146.344967 97.286016 
Q 148.624029 97.286016 149.959498 95.553516 
Q 151.294967 93.821016 151.294967 90.783984 
z
M 164.069057 99.333047 
Q 162.779995 99.565078 161.820932 99.565078 
Q 160.207026 99.565078 159.345932 98.858672 
Q 158.489995 98.147109 158.489995 96.827109 
L 158.489995 84.287109 
L 156.149057 84.287109 
L 156.149057 82.038984 
L 158.489995 82.038984 
L 158.489995 77.290078 
L 161.227964 77.290078 
L 161.227964 82.038984 
L 164.069057 82.038984 
L 164.069057 84.287109 
L 161.227964 84.287109 
L 161.227964 95.605078 
Q 161.227964 96.528047 161.542495 96.842578 
Q 161.857026 97.157109 162.749057 97.157109 
Q 163.574057 97.157109 164.069057 97.023047 
L 164.069057 99.333047 
z
" style="fill: #ffffff"/>
   </g>
  </g>
 </g>
 <defs>
  <clipPath id="pa23fecc976">
   <rect x="4.5" y="4.5" width="180" height="180"/>
  </clipPath>
 </defs>
</svg>
