<svg width="14" height="14" viewBox="0 0 14 14" fill="none" xmlns="http://www.w3.org/2000/svg">
<path d="M3.23242 3.22461L5.82515 5.81733M10.7749 10.7671L8.18217 8.17436" stroke="#282828" stroke-width="1.4"/>
<path d="M1.10807 1.42426C1.08411 1.24053 1.24069 1.08396 1.42441 1.10792L4.24347 1.47562C4.47564 1.50591 4.57208 1.78945 4.40652 1.95501L1.95516 4.40636C1.7896 4.57193 1.50606 4.47549 1.47578 4.24332L1.10807 1.42426Z" fill="#282828" stroke="#282828" stroke-width="0.4"/>
<path d="M12.8527 12.521C12.892 12.7184 12.7181 12.8923 12.5207 12.853L9.91945 12.334C9.69835 12.2899 9.61569 12.0171 9.77511 11.8577L11.8574 9.77542C12.0168 9.616 12.2896 9.69865 12.3337 9.91975L12.8527 12.521Z" fill="#282828" stroke="#282828" stroke-width="0.4"/>
<path d="M3.22461 10.7637L5.81733 8.17095M10.7671 3.2212L8.17436 5.81392" stroke="#282828" stroke-width="1.4"/>
<path d="M1.42426 12.888C1.24053 12.912 1.08396 12.7554 1.10792 12.5717L1.47562 9.75262C1.50591 9.52045 1.78945 9.42402 1.95501 9.58958L4.40636 12.0409C4.57193 12.2065 4.47549 12.49 4.24332 12.5203L1.42426 12.888Z" fill="#282828" stroke="#282828" stroke-width="0.4"/>
<path d="M12.521 1.14343C12.7184 1.10406 12.8923 1.27803 12.853 1.4754L12.334 4.07664C12.2899 4.29774 12.0171 4.3804 11.8577 4.22098L9.77542 2.1387C9.616 1.97928 9.69865 1.70651 9.91975 1.6624L12.521 1.14343Z" fill="#282828" stroke="#282828" stroke-width="0.4"/>
</svg>