<svg xmlns="http://www.w3.org/2000/svg" viewBox="0 0 2750.06 648.03"><defs><style>.cls-1{fill:#101010;}.cls-2{fill:#f15a24;}</style></defs><g id="Vrstva_2" data-name="Vrstva 2"><g id="Vrstva_1-2" data-name="Vrstva 1"><path class="cls-1" d="M625.44,75.5q-11.28-6-22.82-11.59-11.39-5.49-23-10.53-4.36-1.92-8.77-3.74-7.15-3-14.4-5.81c-2.19-.86-4.37-1.7-6.57-2.52q-8.32-3.14-16.74-6.05c-1.5-.52-3-1-4.52-1.53q-9.39-3.18-18.89-6c-.89-.27-1.8-.55-2.7-.81q-10.32-3.09-20.8-5.82l-1-.28q-11-2.85-22.11-5.32c-.13,0-.26-.06-.4-.09q-10.87-2.43-21.93-4.48l-1.63-.29Q428.71,8.67,418.2,7.11l-2.64-.4q-10-1.44-20.09-2.58L392,3.75Q382.33,2.7,372.55,2l-4-.3Q359,1,349.48.58C348,.51,346.56.45,345.09.41c-6.24-.22-12.52-.35-18.8-.4h-4.55Q312.32,0,303,.28c-1.49,0-3,.08-4.47.14q-9.5.33-18.93,1l-4.18.29c-6.45.45-12.9,1-19.29,1.66-1.23.12-2.45.25-3.68.39q-10,1-19.84,2.43l-3,.42Q219.28,8,209,9.84l-2,.36q-10.84,1.94-21.54,4.26l-.84.17Q173.49,17,162.49,19.84L162,20q-10.76,2.73-21.38,5.84l-2.13.63c-6.55,1.92-13.06,4-19.52,6.1l-3.88,1.3q-8.77,3-17.46,6.18c-2,.72-3.93,1.46-5.88,2.2-5.08,2-10.15,4-15.17,6-2.68,1.1-5.36,2.21-8,3.36Q56.88,56.56,45.48,62T22.64,73.37Q11.18,79.34,0,85.78q0,13,.53,25.9t1.52,25.55q1,12.69,2.5,25.24c.29,2.55.61,5.1.94,7.64Q6.62,178.77,8,187.34c.26,1.73.54,3.45.82,5.18q1.62,9.71,3.51,19.31l.6,3q2.14,10.62,4.63,21.11L17.8,237q2.65,11.1,5.67,22c.06.19.1.37.16.55Q26.6,270.35,30,281c.2.63.4,1.27.61,1.9q3.15,10,6.65,19.8c.35,1,.7,2,1.07,3,2.23,6.2,4.55,12.38,7,18.49.51,1.29,1,2.57,1.53,3.85q3.53,8.79,7.32,17.43,1,2.22,2,4.43,3.69,8.37,7.66,16.58c.76,1.62,1.54,3.22,2.33,4.83q3.93,8,8.08,15.92,1.29,2.49,2.64,5,4.16,7.81,8.55,15.49c.94,1.63,1.88,3.27,2.85,4.9q4.15-4.15,8.47-8.12h0q4.17-3.87,8.48-7.57h0q8.63-7.47,17.79-14.32t18.56-13q9.45-6.13,19.33-11.63t20.08-10.29q10.22-4.83,20.83-8.94c-2.22-3.93-4.4-7.89-6.5-11.88-1.46-2.71-2.87-5.43-4.27-8.16q-3.16-6.21-6.15-12.51c-1.24-2.62-2.47-5.24-3.66-7.88q-3.07-6.75-6-13.62c-1-2.36-2-4.75-2.93-7.14q-3.08-7.61-5.9-15.35c-.71-1.92-1.4-3.86-2.08-5.79q-3.14-8.91-6-18c-.37-1.17-.72-2.35-1.07-3.54Q153.94,224,151.12,213a1.55,1.55,0,0,1-.05-.23q-2.77-10.9-5.09-22c-.47-2.26-.92-4.51-1.36-6.78q-1.53-7.87-2.82-15.8,7.55-2.85,15.22-5.45c2.12-.73,4.25-1.44,6.39-2.15q10.82-3.5,21.81-6.55h0q10.88-3,21.93-5.54l3.94-.9q9-2,18.17-3.66c2.14-.41,4.29-.78,6.44-1.14q7.86-1.34,15.81-2.43,4-.57,8.06-1,7.14-.88,14.32-1.55,4.53-.44,9.08-.76,6.71-.51,13.45-.84c3.2-.16,6.4-.29,9.62-.38q6.49-.21,13.06-.23c1,0,1.93,0,2.89,0h2l4.89,0q6.57.09,13.09.34c3.2.13,6.39.27,9.57.46q6.79.38,13.54,1c3,.23,6,.51,9,.82,4.85.49,9.67,1,14.48,1.68,2.63.32,5.26.69,7.87,1.08,5.38.78,10.75,1.64,16.06,2.59,2.07.37,4.12.76,6.17,1.14,6.22,1.2,12.41,2.49,18.55,3.92,1.18.26,2.35.53,3.52.83q11.07,2.6,21.94,5.72l.59.17q10.68,3.06,21.18,6.57c2.49.83,5,1.67,7.43,2.55,4.74,1.67,9.47,3.41,14.14,5.22q10.68,4.09,21.11,8.67l.25.11q10.7,4.69,21.12,9.86t20.85,10.92q10.42,5.73,20.54,12t20.2,13.09q8.85,6,17.42,12.41c.8.6,1.61,1.2,2.4,1.81.12-.49.23-1,.34-1.45q2.65-11,4.9-22.2a3.89,3.89,0,0,0,.09-.47q2.19-10.84,4-21.83c.14-.9.29-1.81.43-2.7q1.59-9.81,2.87-19.71c.24-1.73.45-3.45.67-5.18q1.51-12.56,2.58-25.28T647.4,114q.57-12.89.63-25.91Q636.87,81.57,625.44,75.5Z"/><path class="cls-2" d="M609.06,279.36h0q-5.62-4.41-11.37-8.6-9.54-7-19.47-13.52-9.76-6.44-19.87-12.36t-20.26-11.25q-10.16-5.32-20.61-10.14-8.93-4.12-18.06-7.89h0l-2.84-1.15q-2.85,11-6.17,21.87c-.21.71-.43,1.41-.64,2.1q-3.06,9.79-6.47,19.4c-.52,1.48-1,2.94-1.58,4.38q-3.07,8.46-6.45,16.74-1.17,2.9-2.38,5.74-3.15,7.57-6.58,15-1.49,3.27-3,6.51-3.32,7-6.84,13.84c-1.17,2.29-2.35,4.56-3.58,6.83-2.34,4.42-4.75,8.82-7.24,13.16-1.29,2.28-2.61,4.55-3.94,6.79q-3.81,6.49-7.85,12.85c-1.34,2.17-2.73,4.32-4.13,6.46-2.82,4.32-5.69,8.6-8.65,12.84-1.35,1.95-2.71,3.89-4.1,5.82q-4.79,6.71-9.79,13.23-1.85,2.43-3.75,4.83-5.58,7.13-11.39,14c-1,1.14-1.93,2.28-2.92,3.41q-6.71,7.85-13.75,15.42L374,437.11q-7.74,8.28-15.86,16.22c-.5.5-1,1-1.5,1.46q-7.43,7.23-15.16,14.13c-2.2,2-4.44,3.95-6.68,5.88q-5.31,4.62-10.75,9-5.56-4.54-11-9.25c-2.15-1.87-4.3-3.75-6.42-5.66q-8-7.17-15.76-14.71l-.9-.88q-8.13-7.93-15.86-16.22c-.7-.73-1.39-1.47-2.08-2.21q-6.64-7.18-13-14.63c-1.24-1.45-2.48-2.9-3.69-4.36q-5.43-6.45-10.62-13.1c-1.54-1.95-3-3.9-4.55-5.88q-4.58-6-9-12.17c-1.66-2.31-3.3-4.64-4.91-7q-10.93,3.87-21.43,8.59T184.42,396.5q-9.93,5.42-19.36,11.6t-18.38,13.07h0q-9,6.93-17.39,14.55-4.65,4.2-9.11,8.62c-2.46,2.42-4.87,4.9-7.26,7.42q5.25,7.69,10.72,15.23c.87,1.2,1.73,2.39,2.61,3.58Q132,478.4,138,486q1.08,1.41,2.22,2.82,6.31,8,12.89,15.77c.53.64,1.07,1.28,1.62,1.91q7,8.24,14.26,16.23c.27.29.53.59.81.88q7.65,8.4,15.63,16.54a1.79,1.79,0,0,0,.23.25q7.81,8,15.91,15.71l1.53,1.44c5,4.72,10,9.35,15.13,13.9,1,.92,2.06,1.82,3.09,2.71q7,6.14,14.07,12c1.63,1.36,3.26,2.71,4.91,4q6.28,5.12,12.7,10.06,3.51,2.73,7.07,5.39,10.13,7.61,20.54,14.8t21.34,14.14Q312.81,641.54,324,648h0q11.19-6.49,22.09-13.42t21.33-14.14q10.43-7.2,20.54-14.8c1.49-1.12,3-2.24,4.46-3.38q7.76-5.91,15.32-12.07c.81-.64,1.6-1.3,2.4-2q8.4-6.87,16.58-14.08a8.57,8.57,0,0,0,.66-.58q8.52-7.49,16.76-15.27l.8-.76q7.86-7.44,15.44-15.14c.69-.66,1.35-1.34,2-2q7-7.12,13.73-14.47c1-1.06,2-2.13,2.94-3.2q6.24-6.86,12.24-13.87c1.24-1.41,2.44-2.84,3.64-4.27q5.6-6.6,11-13.37,2.1-2.61,4.13-5.22,5.06-6.42,9.91-13c1.49-2,3-4,4.42-6q4.59-6.31,9-12.75c1.53-2.21,3-4.44,4.54-6.67,2.8-4.17,5.56-8.39,8.27-12.62,1.51-2.38,3-4.76,4.49-7.15q3.91-6.3,7.68-12.71c1.46-2.47,2.89-4.94,4.31-7.43q3.67-6.42,7.21-12.93c1.34-2.5,2.68-5,4-7.53q3.5-6.63,6.82-13.36,1.82-3.68,3.59-7.39,3.34-6.94,6.51-14c1.06-2.34,2.1-4.67,3.11-7q3.24-7.4,6.28-14.85c.86-2.13,1.72-4.28,2.57-6.43q3.12-7.91,6-15.92c.68-1.86,1.35-3.71,2-5.58q3-8.57,5.84-17.23Q612.89,282.35,609.06,279.36Z"/><path class="cls-1" d="M1092.67,323.1q0,27.24-6.7,49.57t-19.65,38.41a88.73,88.73,0,0,1-32.16,25Q1015,445,990,445a119,119,0,0,1-25.9-2.68,123.79,123.79,0,0,1-23.23-7.59v88.43H874.28V213.68q8.93-2.69,20.54-5.14t24.34-4.24q12.74-1.78,25.9-2.91t25.24-1.11q29,0,51.81,8.71t38.4,24.56a105.39,105.39,0,0,1,23.9,38.63Q1092.66,295,1092.67,323.1Zm-67.88,1.78q0-30.81-13.85-49.35T969.85,257q-8.94,0-16.52.67c-5.07.44-9.24,1-12.51,1.56V379.37a57.92,57.92,0,0,0,16.3,6.7,78.38,78.38,0,0,0,20.32,2.68Q1024.78,388.75,1024.79,324.88Z"/><path class="cls-1" d="M1128.4,324.88q0-31.25,9.6-54.71t25.23-39.08a105.09,105.09,0,0,1,36-23.67,112.58,112.58,0,0,1,41.76-8q50,0,79,30.6t29,90q0,5.8-.44,12.73t-.9,12.28h-151q2.22,20.55,19.2,32.61t45.56,12.05a191.83,191.83,0,0,0,36-3.35q17.64-3.35,28.81-8.26l8.93,54a90.93,90.93,0,0,1-14.29,5.36,186.28,186.28,0,0,1-19.88,4.69q-11,2-23.44,3.35a235.59,235.59,0,0,1-25,1.34q-31.72,0-55.16-9.38t-38.86-25.68a102,102,0,0,1-22.78-38.63A153.11,153.11,0,0,1,1128.4,324.88Zm156.31-25.45a69.19,69.19,0,0,0-2.9-16.53,41.36,41.36,0,0,0-7.59-14.29,40.5,40.5,0,0,0-13-10.27q-7.82-4-19.42-4-11.17,0-19.21,3.79a40,40,0,0,0-13.4,10.05,45,45,0,0,0-8.26,14.52,94.55,94.55,0,0,0-4.24,16.75Z"/><path class="cls-1" d="M1395.92,213.68q17-4.92,43.77-9.16a360.63,360.63,0,0,1,56.27-4.24q29.93,0,49.8,7.81t31.49,22.11a86.42,86.42,0,0,1,16.52,33.94,180.91,180.91,0,0,1,4.91,43.77V440.56h-66.54V316q0-32.16-8.49-45.55T1491.94,257q-7.14,0-15.18.67c-5.36.44-10.13,1-14.3,1.56V440.56h-66.54Z"/><path class="cls-1" d="M1652.27,147.13l66.55-10.72v69.23h79.94V261h-79.94v82.62q0,21,7.37,33.5t29.7,12.5a127.28,127.28,0,0,0,22.11-2,113.22,113.22,0,0,0,20.76-5.58l9.38,51.81a188.64,188.64,0,0,1-26.79,8.48q-14.74,3.57-36.18,3.58-27.26,0-45.11-7.37T1671.48,418q-10.73-13.17-15-31.93a187.82,187.82,0,0,1-4.25-41.53Z"/><path class="cls-1" d="M1828.24,324.88q0-31.25,9.6-54.71t25.23-39.08a105.13,105.13,0,0,1,36-23.67,112.5,112.5,0,0,1,41.76-8q50,0,79,30.6t29,90c0,3.87-.16,8.12-.45,12.73s-.6,8.71-.89,12.28h-151q2.23,20.55,19.2,32.61t45.56,12.05a191.67,191.67,0,0,0,36-3.35q17.64-3.35,28.81-8.26l8.93,54a90.93,90.93,0,0,1-14.29,5.36,186.65,186.65,0,0,1-19.87,4.69q-11,2-23.45,3.35a235.59,235.59,0,0,1-25,1.34q-31.73,0-55.16-9.38t-38.86-25.68a101.81,101.81,0,0,1-22.77-38.63A152.83,152.83,0,0,1,1828.24,324.88Zm156.31-25.45a69.19,69.19,0,0,0-2.9-16.53,41.36,41.36,0,0,0-7.59-14.29,40.57,40.57,0,0,0-13-10.27q-7.83-4-19.43-4-11.17,0-19.21,3.79a39.85,39.85,0,0,0-13.39,10.05,45.06,45.06,0,0,0-8.27,14.52,94.55,94.55,0,0,0-4.24,16.75Z"/><path class="cls-1" d="M2237.34,264.59q-8.94-2.23-21-4.69a130.34,130.34,0,0,0-25.91-2.46,121.13,121.13,0,0,0-15,1.12,87.69,87.69,0,0,0-13.17,2.46V440.56h-66.55V218.14A401.36,401.36,0,0,1,2138,206.31q24.33-5.58,54.26-5.59,5.36,0,12.95.67t15.19,1.79q7.59,1.13,15.18,2.68a71.91,71.91,0,0,1,12.95,3.8Z"/><path class="cls-1" d="M2264.14,324.88q0-31.25,9.6-54.71T2299,231.09a105,105,0,0,1,36-23.67,112.49,112.49,0,0,1,41.75-8q50,0,79.06,30.6t29,90c0,3.87-.16,8.12-.45,12.73s-.6,8.71-.89,12.28h-151q2.24,20.55,19.2,32.61t45.56,12.05a191.75,191.75,0,0,0,35.95-3.35q17.64-3.35,28.81-8.26l8.93,54a90.93,90.93,0,0,1-14.29,5.36,186.28,186.28,0,0,1-19.88,4.69q-10.93,2-23.44,3.35a235.59,235.59,0,0,1-25,1.34q-31.73,0-55.16-9.38t-38.86-25.68a101.81,101.81,0,0,1-22.77-38.63A152.83,152.83,0,0,1,2264.14,324.88Zm156.31-25.45a69.19,69.19,0,0,0-2.9-16.53,41.36,41.36,0,0,0-7.59-14.29A40.57,40.57,0,0,0,2397,258.34q-7.83-4-19.43-4-11.17,0-19.21,3.79a40,40,0,0,0-13.4,10.05,45.22,45.22,0,0,0-8.26,14.52,94.55,94.55,0,0,0-4.24,16.75Z"/><path class="cls-1" d="M2750.06,323.1q0,27.24-6.7,49.57t-19.65,38.41a88.73,88.73,0,0,1-32.16,25q-19.22,8.93-44.22,8.93a119,119,0,0,1-25.9-2.68,123.69,123.69,0,0,1-23.22-7.59v88.43h-66.55V213.68q8.93-2.69,20.54-5.14t24.35-4.24q12.72-1.78,25.9-2.91t25.23-1.11q29,0,51.81,8.71t38.41,24.56a105.37,105.37,0,0,1,23.89,38.63Q2750.06,295,2750.06,323.1Zm-67.89,1.78q0-30.81-13.84-49.35T2627.24,257q-8.94,0-16.53.67c-5.06.44-9.23,1-12.5,1.56V379.37a57.79,57.79,0,0,0,16.3,6.7,78.38,78.38,0,0,0,20.32,2.68Q2682.17,388.75,2682.17,324.88Z"/></g></g></svg>