<svg width="12" height="13" viewBox="0 0 12 13" fill="none" xmlns="http://www.w3.org/2000/svg">
<path d="M2.81579 0.214844C3.52095 0.214844 4.0832 0.551179 4.50255 1.22385C4.9219 1.89662 5.13158 2.65779 5.13158 3.50736C5.13158 3.94327 5.07851 4.37175 4.97237 4.79279C4.86623 5.21373 4.75078 5.5804 4.62601 5.89279L1.29721 6.63645C1.0857 6.25881 0.899956 5.80923 0.739974 5.28771C0.579991 4.7662 0.5 4.17275 0.5 3.50736C0.5 2.5641 0.719132 1.77954 1.15739 1.15366C1.59575 0.527782 2.14855 0.214844 2.81579 0.214844ZM3.61184 9.79308C3.01582 9.79308 2.54764 9.56629 2.20732 9.11272C1.86699 8.65915 1.68385 8.11195 1.65789 7.4711L4.72965 6.78491C4.82536 6.96989 4.91631 7.17632 5.00247 7.4042C5.08854 7.63219 5.13158 7.86476 5.13158 8.10192C5.13158 8.58622 4.98814 8.98915 4.70128 9.31072C4.41441 9.63229 4.05126 9.79308 3.61184 9.79308ZM9.18421 3.20804C9.85145 3.20804 10.4042 3.52098 10.8426 4.14686C11.2809 4.77273 11.5 5.5573 11.5 6.50056C11.5 7.17752 11.4163 7.77865 11.2489 8.30396C11.0816 8.82927 10.8884 9.28648 10.6694 9.67559L7.36284 8.86294C7.24184 8.55055 7.12919 8.18673 7.02488 7.77147C6.92058 7.35631 6.86842 6.93268 6.86842 6.50056C6.86842 5.65099 7.0781 4.88982 7.49745 4.21705C7.9168 3.54438 8.47905 3.20804 9.18421 3.20804ZM8.38816 12.7863C7.94874 12.7863 7.58559 12.6255 7.29872 12.3039C7.01186 11.9824 6.86842 11.5794 6.86842 11.0951C6.86842 10.8542 6.91334 10.6178 7.00317 10.386C7.093 10.1542 7.18578 9.94383 7.2815 9.75506L10.3331 10.5218C10.2997 11.1396 10.1144 11.6715 9.77705 12.1174C9.43972 12.5633 8.97676 12.7863 8.38816 12.7863Z" fill="#282828"/>
</svg>
