<?xml version="1.0" encoding="UTF-8"?>
<svg fill="#000000" width="800px" height="800px" version="1.1" viewBox="144 144 512 512" xmlns="http://www.w3.org/2000/svg">
 <path d="m609.71 326.53c5.7148-0.11719 10.285-4.7812 10.285-10.496 0-5.7188-4.5742-10.383-10.289-10.496h-31.277v-20.992h31.281c5.7969 0 10.496-4.6992 10.496-10.496s-4.6992-10.496-10.496-10.496h-31.281c-0.03125-11.125-4.4648-21.785-12.332-29.652-7.8672-7.8672-18.527-12.301-29.652-12.332v-31.277c0-5.7969-4.6992-10.496-10.496-10.496s-10.496 4.6992-10.496 10.496v31.277h-20.988v-31.277c0-5.7969-4.7031-10.496-10.496-10.496-5.7969 0-10.496 4.6992-10.496 10.496v31.277h-20.992v-31.277c0-5.7969-4.6992-10.496-10.496-10.496s-10.496 4.6992-10.496 10.496v31.277h-20.992v-31.277c0-5.7969-4.6992-10.496-10.496-10.496s-10.496 4.6992-10.496 10.496v31.277h-20.992v-31.277c0-5.7969-4.6992-10.496-10.496-10.496s-10.496 4.6992-10.496 10.496v31.277h-20.992v-31.277c0-5.7969-4.6992-10.496-10.496-10.496s-10.496 4.6992-10.496 10.496v31.277h-20.992v-31.277c0-5.7969-4.6992-10.496-10.496-10.496s-10.496 4.6992-10.496 10.496v31.277c-11.125 0.03125-21.785 4.4648-29.652 12.332-7.8672 7.8672-12.301 18.527-12.332 29.652h-31.277c-5.7969 0-10.496 4.6992-10.496 10.496s4.6992 10.496 10.496 10.496h31.277v20.992h-31.277c-5.7969 0-10.496 4.6992-10.496 10.496s4.6992 10.496 10.496 10.496h31.277v20.992h-31.277c-5.7969 0-10.496 4.6992-10.496 10.496s4.6992 10.496 10.496 10.496h31.277v20.992h-31.277c-5.7969 0-10.496 4.6992-10.496 10.496s4.6992 10.496 10.496 10.496h31.277v20.992h-31.277c-5.7969 0-10.496 4.6992-10.496 10.496s4.6992 10.496 10.496 10.496h31.277v20.992h-31.277c-5.7969 0-10.496 4.6992-10.496 10.492 0 5.7969 4.6992 10.496 10.496 10.496h31.277v20.992h-31.277c-5.7969 0-10.496 4.6992-10.496 10.496s4.6992 10.496 10.496 10.496h31.277c-0.058594 11.172 4.3398 21.906 12.219 29.828 7.8828 7.918 18.594 12.371 29.766 12.367v31.07c0 5.7969 4.6992 10.496 10.496 10.496s10.496-4.6992 10.496-10.496v-31.07h20.992v31.07c0 5.7969 4.6992 10.496 10.496 10.496s10.496-4.6992 10.496-10.496v-31.07h20.992v31.07c0 5.7969 4.6992 10.496 10.496 10.496s10.496-4.6992 10.496-10.496v-31.07h20.992v31.07c0 5.7969 4.6992 10.496 10.496 10.496s10.496-4.6992 10.496-10.496v-31.07h20.992v31.07c0 5.7969 4.6992 10.496 10.496 10.496s10.496-4.6992 10.496-10.496v-31.07h20.992v31.07c0 5.7969 4.6992 10.496 10.496 10.496 5.793 0 10.496-4.6992 10.496-10.496v-31.07h20.992v31.066l-0.003906 0.003907c0 5.7969 4.6992 10.496 10.496 10.496s10.496-4.6992 10.496-10.496v-31.07c11.172 0.003906 21.887-4.4492 29.766-12.367 7.8789-7.9219 12.277-18.656 12.219-29.828h31.281c5.7969 0 10.496-4.6992 10.496-10.496s-4.6992-10.496-10.496-10.496h-31.281v-20.992h31.281c5.7969 0 10.496-4.6992 10.496-10.496 0-5.793-4.6992-10.492-10.496-10.492h-31.281v-20.992h31.281c5.7969 0 10.496-4.6992 10.496-10.496s-4.6992-10.496-10.496-10.496h-31.281v-20.992h31.281c5.7969 0 10.496-4.6992 10.496-10.496s-4.6992-10.496-10.496-10.496h-31.281v-20.992h31.281c5.7969 0 10.496-4.6992 10.496-10.496s-4.6992-10.496-10.496-10.496h-31.281v-20.992zm-94.258 157.65c-0.023437 8.3438-3.3477 16.34-9.2461 22.238-5.9023 5.9023-13.898 9.2266-22.238 9.25h-167.94c-8.3438-0.023437-16.34-3.3477-22.238-9.25-5.9023-5.8984-9.2266-13.895-9.25-22.238v-167.94c0.023437-8.3398 3.3477-16.336 9.25-22.238 5.8984-5.8984 13.895-9.2227 22.238-9.2461h167.94c8.3438 0.023438 16.336 3.3477 22.238 9.2461 5.8984 5.9023 9.2227 13.898 9.2461 22.238zm-20.992-167.94v167.94h0.003906c-0.019532 5.7891-4.707 10.48-10.496 10.496h-167.94c-5.7891-0.015625-10.48-4.707-10.496-10.496v-167.94c0.015625-5.7891 4.707-10.477 10.496-10.492h167.94c5.7891 0.015625 10.477 4.7031 10.496 10.492z"/>
</svg>