<?xml version="1.0" encoding="UTF-8"?>
<svg fill="#000000" width="800px" height="800px" version="1.1" viewBox="144 144 512 512" xmlns="http://www.w3.org/2000/svg">
 <path d="m388.82 600.11c2.957 2.9805 6.9805 4.6562 11.18 4.6562 4.1953 0 8.2188-1.6758 11.176-4.6562l110.21-110.21h0.003907c3.9922-3.9961 5.5508-9.8164 4.0898-15.27-1.4609-5.457-5.7227-9.7188-11.18-11.18-5.4531-1.4609-11.273 0.097656-15.27 4.0898l-83.285 83.445v-339.91c0-5.625-3-10.824-7.8711-13.637s-10.875-2.8125-15.746 0-7.8711 8.0117-7.8711 13.637v339.91l-83.285-83.445c-3.9922-3.9922-9.8164-5.5508-15.27-4.0898-5.457 1.4609-9.7188 5.7227-11.18 11.18-1.4609 5.4531 0.097657 11.273 4.0938 15.27z"/>
</svg>