<?xml version="1.0" encoding="UTF-8"?>
<svg fill="#000000" width="800px" height="800px" version="1.1" viewBox="144 144 512 512" xmlns="http://www.w3.org/2000/svg">
 <g>
  <path d="m243.34 447.81c0 6.957-5.6406 12.598-12.598 12.598-6.9531 0-12.594-5.6406-12.594-12.598 0-6.9531 5.6406-12.594 12.594-12.594 6.957 0 12.598 5.6406 12.598 12.594"/>
  <path d="m304.48 279.21c-21.461-0.003906-42.047 8.5156-57.227 23.691-15.18 15.172-23.711 35.754-23.715 57.219-0.003907 21.461 8.5195 42.047 23.695 57.227 15.176 15.176 35.758 23.707 57.223 23.707 21.461 0.003906 42.047-8.5234 57.223-23.699 15.18-15.176 23.703-35.758 23.703-57.223-0.023438-21.449-8.5586-42.016-23.723-57.184-15.164-15.168-35.727-23.707-57.18-23.738zm15.289 27.379h0.003906c13.773 3.9609 25.496 13.066 32.746 25.43l-17.305-1.7148v0.003906c-2.6523-0.26562-5.3203 0.32031-7.6172 1.6719l-14.504 8.5195-2.7344-12.414zm-15.289 40.965c5.0977 0 9.6875 3.0664 11.637 7.7734 1.9531 4.707 0.875 10.125-2.7305 13.727-3.6016 3.6016-9.0195 4.6797-13.723 2.7305-4.707-1.9492-7.7773-6.543-7.7773-11.637 0-3.3398 1.3281-6.543 3.6914-8.9062 2.3594-2.3633 5.5625-3.6875 8.9023-3.6875zm-11.797-41.863-7.0547 16.043c-1.0703 2.4414-1.3359 5.1602-0.76562 7.7617l3.6211 16.418-12.656-1.2344-17.59-15.645 0.003906 0.003907c8.0469-11.926 20.383-20.289 34.441-23.348zm-31.98 88.816c-8.9492-11.289-13.137-25.629-11.672-39.961l13.141 11.691c1.9883 1.7734 4.4922 2.8672 7.1445 3.125l16.738 1.6367-5.082 11.648zm43.781 21.355h-0.003906c-7.6992 0-15.312-1.6055-22.355-4.7148l15.113-8.8477c2.3008-1.3438 4.1172-3.3867 5.1797-5.832l6.7227-15.406 9.5117 8.4336 5.0078 22.898h-0.003906c-6.1328 2.2812-12.629 3.457-19.176 3.4688zm41.613-18.785-3.7188-16.977v-0.003907c-0.57031-2.6016-1.9531-4.957-3.9453-6.7305l-12.594-11.156 10.957-6.4336 23.293 2.3008c0.023438 0.68359 0.10547 1.3594 0.10547 2.0508v0.003907c-0.003907 13.629-5.0234 26.781-14.109 36.945z"/>
  <path d="m622.89 247.34-25.191-25.266c-2.3633-2.3672-5.5664-3.6953-8.9102-3.6992h-377.46c-3.3477 0-6.5547 1.332-8.918 3.6992l-25.312 25.363c-2.3555 2.3594-3.6797 5.5586-3.6797 8.8945v312.7c0 6.957 5.6367 12.598 12.594 12.598s12.594-5.6406 12.594-12.598v-12.434h50.02c3.3398 0 6.543-1.3242 8.9062-3.6875 2.3633-2.3633 3.6875-5.5664 3.6875-8.9062v-38.02h12.918c1.9492 0 3.8711-0.45312 5.6133-1.3164l22.672-11.273h21.961v37.785-0.003906c0 3.3398 1.3281 6.543 3.6875 8.9062 2.3633 2.3633 5.5664 3.6914 8.9062 3.6914h188.97c3.3438 0 6.5469-1.3281 8.9062-3.6914 2.3633-2.3633 3.6914-5.5664 3.6914-8.9062v-37.785h19.648l24.105 12c4.8398 2.4102 10.68 1.4609 14.508-2.3555l26.062-25.988h-0.003906c2.3711-2.3633 3.707-5.5742 3.7031-8.9219v-211.91c-0.003906-3.332-1.3242-6.5234-3.6758-8.8789zm-386.86 284.07h-37.426v-25.426h37.422zm151.37-12.832h-37.852v-25.191h37.852zm125.95 0h-100.76v-25.191h100.76zm88.031-55.68-15.949 15.91-18.68-9.2891c-1.7422-0.86719-3.668-1.3164-5.6172-1.3203h-261.7c-1.9453 0-3.8672 0.45312-5.6133 1.3203l-22.645 11.273h-72.547v-219.25l17.945-17.992h122.93l56.848 56.852c2.3633 2.3633 5.5664 3.6914 8.9102 3.6914h27.641l2.2539 2.2539h-0.003906c-14.719 16.402-22.098 38.105-20.43 60.078 1.6641 21.973 12.234 42.316 29.262 56.309 17.023 13.996 39.023 20.43 60.906 17.812 21.879-2.6172 41.746-14.055 54.988-31.672l41.5 41.453zm-75.211-132.59c-2.6484-0.26172-5.3164 0.32422-7.6172 1.6719l-14.5 8.5195-2.7422-12.414 9.4219-21.496h0.003907c13.773 3.9609 25.496 13.066 32.746 25.43zm24.895 27.773c0 0.68359 0.10547 1.3594 0.10547 2.0508 0 13.629-5.0234 26.781-14.105 36.945l-3.7148-16.977v-0.003907c-0.57422-2.6016-1.9531-4.957-3.9453-6.7305l-12.594-11.156 10.957-6.4336zm-36.445 54.312c-13.477 5.0234-28.383 4.5781-41.535-1.2461l15.113-8.8477h0.003906c2.3008-1.3438 4.1133-3.3867 5.1719-5.832l6.7227-15.406 9.5117 8.4336zm-5.8359-52.395 0.003907-0.003906c0 5.0938-3.0703 9.6875-7.7773 11.637s-10.125 0.87109-13.727-2.7305c-3.6016-3.6016-4.6797-9.0195-2.7305-13.727 1.9492-4.707 6.543-7.7734 11.637-7.7734 6.9453 0 12.582 5.625 12.598 12.57zm-32.188-38.238v-0.003906c-1.0664 2.4414-1.332 5.1602-0.75781 7.7656l3.6172 16.418-12.652-1.2344-17.59-15.668c8.0391-11.922 20.367-20.281 34.414-23.348zm-23.465 44.477c1.9883 1.7734 4.4883 2.8672 7.1445 3.125l16.738 1.6367-5.082 11.648-20.27 11.871h-0.003907c-7.7383-9.7891-11.949-21.898-11.949-34.375 0-1.8828 0.10156-3.75 0.28125-5.5859zm148.25 48.496-29.18-29.145c6.9883-20.914 5.125-43.777-5.1641-63.281-10.289-19.504-28.102-33.953-49.312-39.996-21.207-6.0391-43.961-3.1484-62.984 8.0078l-7.7188-7.7148c-2.3594-2.3633-5.5625-3.6914-8.9062-3.6914h-27.637l-35.352-35.352h208.43l17.828 17.883z"/>
 </g>
</svg>