<?xml version="1.0" encoding="UTF-8"?>
<svg fill="#000000" width="800px" height="800px" version="1.1" viewBox="144 144 512 512" xmlns="http://www.w3.org/2000/svg">
 <path d="m289.79 337.02c4.1875 0.023437 8.207-1.6211 11.18-4.5664l83.285-83.445v339.91c0 5.625 3 10.824 7.8711 13.637s10.875 2.8125 15.746 0 7.8711-8.0117 7.8711-13.637v-339.91l83.285 83.445c2.957 2.9805 6.9805 4.6562 11.18 4.6562s8.2227-1.6758 11.18-4.6562c2.9805-2.957 4.6562-6.9805 4.6562-11.18 0-4.1953-1.6758-8.2227-4.6562-11.176l-110.21-110.21c-2.957-2.9805-6.9805-4.6562-11.176-4.6562-4.1992 0-8.2227 1.6758-11.18 4.6562l-110.21 110.21v0.003906c-2.9805 2.9531-4.6602 6.9805-4.6602 11.176 0 4.1992 1.6797 8.2227 4.6602 11.18 2.9688 2.9453 6.9922 4.5898 11.176 4.5664z"/>
</svg>