<svg width="269" height="64" viewBox="0 0 269 64" fill="none" xmlns="http://www.w3.org/2000/svg">
<path d="M21.2199 22.2424C21.2199 25.188 23.6077 27.5758 26.5532 27.5758C29.4987 27.5758 31.8865 25.188 31.8865 22.2424C31.8865 19.2969 29.4987 16.9091 26.5532 16.9091C23.6077 16.9091 21.2199 19.2969 21.2199 22.2424ZM0 22.2424L0 23.2424L26.5532 23.2424V22.2424V21.2424L0 21.2424L0 22.2424Z" fill="white"/>
<path d="M95.3812 8.97723C96.854 11.5281 100.116 12.4021 102.667 10.9294C105.218 9.45661 106.092 6.19479 104.619 3.6439C103.146 1.093 99.8842 0.219 97.3333 1.69176C94.7825 3.16452 93.9085 6.42633 95.3812 8.97723ZM77.0043 19.5872L77.5043 20.4532L100.5 7.17659L100 6.31056L99.5 5.44454L76.5043 18.7211L77.0043 19.5872Z" fill="white"/>
<path d="M95.3812 35.5079C93.9085 38.0588 94.7825 41.3206 97.3333 42.7933C99.8842 44.2661 103.146 43.3921 104.619 40.8412C106.092 38.2903 105.218 35.0285 102.667 33.5557C100.116 32.083 96.854 32.957 95.3812 35.5079ZM77.0043 24.8979L76.5043 25.764L99.5 39.0406L100 38.1745L100.5 37.3085L77.5043 24.0319L77.0043 24.8979Z" fill="white"/>
<path d="M122.896 34.384C121.595 34.384 120.24 34.1387 118.832 33.648C117.424 33.1573 116.155 32.4107 115.024 31.408L118.16 27.632C118.907 28.2293 119.707 28.72 120.56 29.104C121.435 29.4667 122.256 29.648 123.024 29.648C123.856 29.648 124.453 29.52 124.816 29.264C125.2 29.008 125.392 28.6453 125.392 28.176C125.392 27.6853 125.136 27.312 124.624 27.056C124.133 26.8 123.451 26.5013 122.576 26.16L119.984 25.072C118.875 24.624 117.893 23.92 117.04 22.96C116.208 22 115.792 20.7733 115.792 19.28C115.792 18.0853 116.123 17.008 116.784 16.048C117.445 15.0667 118.352 14.288 119.504 13.712C120.677 13.1147 122.021 12.816 123.536 12.816C124.731 12.816 125.936 13.0507 127.152 13.52C128.389 13.968 129.488 14.6613 130.448 15.6L127.696 19.056C126.992 18.5653 126.309 18.192 125.648 17.936C125.008 17.68 124.304 17.552 123.536 17.552C122.875 17.552 122.341 17.6693 121.936 17.904C121.552 18.1387 121.36 18.4907 121.36 18.96C121.36 19.4507 121.637 19.8347 122.192 20.112C122.747 20.368 123.493 20.6773 124.432 21.04L126.96 22.032C128.261 22.544 129.264 23.2587 129.968 24.176C130.672 25.0933 131.024 26.2773 131.024 27.728C131.024 28.9013 130.704 30 130.064 31.024C129.445 32.0267 128.528 32.8373 127.312 33.456C126.096 34.0747 124.624 34.384 122.896 34.384ZM133.919 39.632V18H138.399L138.783 19.472H138.911C139.508 18.9173 140.18 18.4693 140.927 18.128C141.695 17.7867 142.473 17.616 143.263 17.616C144.521 17.616 145.609 17.9573 146.527 18.64C147.465 19.3013 148.191 20.24 148.703 21.456C149.215 22.672 149.471 24.1013 149.471 25.744C149.471 27.5787 149.151 29.1467 148.51 30.448C147.871 31.728 147.039 32.7093 146.015 33.392C145.012 34.0533 143.945 34.384 142.815 34.384C141.492 34.384 140.297 33.8507 139.231 32.784L139.423 35.216V39.632H133.919ZM141.47 29.904C142.111 29.904 142.665 29.6053 143.135 29.008C143.604 28.4107 143.839 27.344 143.839 25.808C143.839 24.4853 143.647 23.536 143.263 22.96C142.9 22.384 142.345 22.096 141.599 22.096C141.193 22.096 140.82 22.1813 140.479 22.352C140.137 22.5227 139.785 22.8213 139.423 23.248V29.136C139.743 29.4133 140.073 29.616 140.415 29.744C140.777 29.8507 141.129 29.904 141.47 29.904ZM157.409 34.384C156.172 34.384 155.19 34.1387 154.465 33.648C153.761 33.136 153.249 32.432 152.929 31.536C152.63 30.6187 152.481 29.5627 152.481 28.368V11.728H157.985V28.56C157.985 29.0933 158.081 29.4667 158.273 29.68C158.486 29.872 158.689 29.968 158.881 29.968C158.988 29.968 159.073 29.968 159.137 29.968C159.222 29.9467 159.329 29.9253 159.457 29.904L160.097 33.936C159.82 34.064 159.457 34.1707 159.009 34.256C158.561 34.3413 158.028 34.384 157.409 34.384ZM162.012 34V18H167.516V34H162.012ZM164.764 16.016C163.868 16.016 163.143 15.7707 162.588 15.28C162.034 14.768 161.756 14.096 161.756 13.264C161.756 12.432 162.034 11.7707 162.588 11.28C163.143 10.768 163.868 10.512 164.764 10.512C165.66 10.512 166.386 10.768 166.94 11.28C167.495 11.7707 167.772 12.432 167.772 13.264C167.772 14.096 167.495 14.768 166.94 15.28C166.386 15.7707 165.66 16.016 164.764 16.016ZM177.823 34.384C175.754 34.384 174.25 33.7867 173.311 32.592C172.394 31.376 171.935 29.7973 171.935 27.856V22.288H169.823V18.192L172.255 18L172.895 13.84H177.439V18H181.087V22.288H177.439V27.76C177.439 28.6347 177.631 29.2427 178.015 29.584C178.399 29.9253 178.847 30.096 179.359 30.096C179.615 30.096 179.86 30.0747 180.095 30.032C180.351 29.968 180.575 29.904 180.767 29.84L181.599 33.808C181.194 33.936 180.682 34.064 180.063 34.192C179.444 34.32 178.698 34.384 177.823 34.384ZM190.01 34.384C187.941 34.384 186.437 33.7867 185.499 32.592C184.581 31.376 184.123 29.7973 184.123 27.856V22.288H182.011V18.192L184.443 18L185.083 13.84H189.627V18H193.275V22.288H189.627V27.76C189.627 28.6347 189.819 29.2427 190.203 29.584C190.587 29.9253 191.035 30.096 191.547 30.096C191.803 30.096 192.048 30.0747 192.283 30.032C192.539 29.968 192.763 29.904 192.955 29.84L193.787 33.808C193.381 33.936 192.869 34.064 192.251 34.192C191.632 34.32 190.885 34.384 190.01 34.384ZM203.03 34.384C201.473 34.384 200.065 34.0533 198.806 33.392C197.569 32.7307 196.587 31.7813 195.862 30.544C195.137 29.2853 194.774 27.7707 194.774 26C194.774 24.272 195.137 22.7893 195.862 21.552C196.609 20.2933 197.569 19.3227 198.742 18.64C199.915 17.9573 201.153 17.616 202.454 17.616C204.033 17.616 205.334 17.968 206.358 18.672C207.403 19.3547 208.171 20.2827 208.662 21.456C209.174 22.6293 209.43 23.9307 209.43 25.36C209.43 25.8293 209.398 26.288 209.334 26.736C209.291 27.1627 209.249 27.472 209.206 27.664H200.086C200.342 28.624 200.801 29.296 201.462 29.68C202.123 30.0427 202.902 30.224 203.798 30.224C204.822 30.224 205.91 29.904 207.062 29.264L208.854 32.528C208.001 33.1253 207.041 33.584 205.974 33.904C204.907 34.224 203.926 34.384 203.03 34.384ZM200.022 24.08H204.758C204.758 23.4613 204.598 22.928 204.278 22.48C203.979 22.0107 203.414 21.776 202.582 21.776C201.985 21.776 201.451 21.9573 200.982 22.32C200.513 22.6827 200.193 23.2693 200.022 24.08ZM212.45 34V18H216.93L217.314 20.752H217.442C218.039 19.664 218.743 18.8747 219.554 18.384C220.386 17.872 221.196 17.616 221.986 17.616C222.476 17.616 222.871 17.648 223.17 17.712C223.49 17.7547 223.756 17.8293 223.97 17.936L223.074 22.672C222.796 22.608 222.519 22.5547 222.242 22.512C221.964 22.448 221.644 22.416 221.282 22.416C220.706 22.416 220.098 22.6187 219.458 23.024C218.839 23.408 218.338 24.1013 217.954 25.104V34H212.45ZM226.849 34V13.008H230.049L234.081 24.208C234.337 24.9333 234.582 25.6693 234.817 26.416C235.073 27.1413 235.329 27.8667 235.585 28.592H235.713C235.969 27.8667 236.203 27.1413 236.417 26.416C236.651 25.6693 236.897 24.9333 237.153 24.208L241.121 13.008H244.353V34H241.857V22.448C241.857 21.5093 241.899 20.4747 241.985 19.344C242.07 18.192 242.145 17.1573 242.209 16.24H242.081L240.417 21.008L236.449 31.888H234.689L230.721 21.008L229.057 16.24H228.929C228.993 17.1573 229.057 18.192 229.121 19.344C229.206 20.4747 229.249 21.5093 229.249 22.448V34H226.849ZM250.099 34V13.008H256.659C258.088 13.008 259.357 13.2 260.467 13.584C261.576 13.9467 262.44 14.5653 263.059 15.44C263.699 16.2933 264.019 17.4453 264.019 18.896C264.019 20.5173 263.592 21.8293 262.739 22.832C261.885 23.8133 260.733 24.4853 259.283 24.848L264.627 34H261.619L256.563 25.136H252.755V34H250.099ZM252.755 22.96H256.275C257.917 22.96 259.176 22.6293 260.051 21.968C260.925 21.2853 261.363 20.2613 261.363 18.896C261.363 17.5093 260.925 16.5387 260.051 15.984C259.176 15.4293 257.917 15.152 256.275 15.152H252.755V22.96Z" fill="white"/>
<path d="M83.8829 60.168C83.5656 60.168 83.2296 60.0933 82.8749 59.944C82.5202 59.7853 82.1842 59.5753 81.8669 59.314H81.8389L81.7689 60H81.2509V49.934H81.8669V52.846L81.8389 54.162C82.1842 53.8727 82.5529 53.6253 82.9449 53.42C83.3462 53.2147 83.7522 53.112 84.1629 53.112C85.0589 53.112 85.7309 53.4247 86.1789 54.05C86.6269 54.666 86.8509 55.4967 86.8509 56.542C86.8509 57.298 86.7109 57.9467 86.4309 58.488C86.1602 59.0293 85.8009 59.4447 85.3529 59.734C84.9049 60.0233 84.4149 60.168 83.8829 60.168ZM83.8549 59.622C84.3122 59.622 84.7136 59.4913 85.0589 59.23C85.4136 58.9687 85.6889 58.6093 85.8849 58.152C86.0902 57.6853 86.1929 57.1487 86.1929 56.542C86.1929 55.9913 86.1229 55.5013 85.9829 55.072C85.8429 54.6333 85.6142 54.288 85.2969 54.036C84.9889 53.784 84.5782 53.658 84.0649 53.658C83.7289 53.658 83.3789 53.756 83.0149 53.952C82.6509 54.1387 82.2682 54.4093 81.8669 54.764V58.754C82.2402 59.0713 82.5996 59.2953 82.9449 59.426C83.2902 59.5567 83.5936 59.622 83.8549 59.622ZM88.5728 63.066C88.3208 63.066 88.0921 63.0193 87.8868 62.926L88.0268 62.38C88.1014 62.408 88.1854 62.4313 88.2788 62.45C88.3814 62.478 88.4794 62.492 88.5728 62.492C88.9834 62.492 89.3288 62.324 89.6088 61.988C89.8981 61.652 90.1268 61.2273 90.2948 60.714L90.4768 60.126L87.7188 53.28H88.3908L90.0148 57.508C90.1174 57.788 90.2341 58.096 90.3648 58.432C90.4954 58.768 90.6214 59.0853 90.7428 59.384H90.7988C90.9014 59.0853 91.0041 58.768 91.1068 58.432C91.2188 58.096 91.3214 57.788 91.4148 57.508L92.8568 53.28H93.4868L90.8268 60.84C90.7054 61.2133 90.5421 61.568 90.3368 61.904C90.1408 62.2493 89.8981 62.5293 89.6088 62.744C89.3194 62.9587 88.9741 63.066 88.5728 63.066ZM99.0832 54.568L98.4952 56.29H101.771L101.183 54.568C100.997 54.0173 100.819 53.49 100.651 52.986C100.483 52.482 100.32 51.9453 100.161 51.376H100.105C99.9465 51.9453 99.7832 52.482 99.6152 52.986C99.4472 53.49 99.2698 54.0173 99.0832 54.568ZM96.5632 60L99.8112 50.774H100.455L103.703 60H103.031L101.953 56.836H98.2992L97.2072 60H96.5632ZM105.108 60V53.28H105.64L105.696 54.316H105.738C106.084 53.9707 106.438 53.686 106.802 53.462C107.176 53.2287 107.591 53.112 108.048 53.112C108.739 53.112 109.248 53.3267 109.574 53.756C109.91 54.176 110.078 54.82 110.078 55.688V60H109.462V55.772C109.462 55.0533 109.341 54.526 109.098 54.19C108.865 53.8447 108.473 53.672 107.922 53.672C107.521 53.672 107.157 53.7793 106.83 53.994C106.504 54.1993 106.135 54.512 105.724 54.932V60H105.108ZM114.785 60.168C113.936 60.168 113.259 59.8647 112.755 59.258C112.251 58.6513 111.999 57.7833 111.999 56.654C111.999 55.926 112.135 55.3007 112.405 54.778C112.685 54.246 113.049 53.8353 113.497 53.546C113.955 53.2567 114.449 53.112 114.981 53.112C115.392 53.112 115.747 53.1867 116.045 53.336C116.353 53.476 116.675 53.6767 117.011 53.938L116.983 52.706V49.934H117.599V60H117.067L117.011 59.132H116.969C116.699 59.4027 116.377 59.6453 116.003 59.86C115.639 60.0653 115.233 60.168 114.785 60.168ZM114.869 59.622C115.243 59.622 115.597 59.5287 115.933 59.342C116.279 59.146 116.629 58.8707 116.983 58.516V54.526C116.629 54.2087 116.293 53.9847 115.975 53.854C115.667 53.7233 115.35 53.658 115.023 53.658C114.575 53.658 114.174 53.7933 113.819 54.064C113.465 54.3253 113.18 54.68 112.965 55.128C112.76 55.576 112.657 56.0847 112.657 56.654C112.657 57.5407 112.849 58.2593 113.231 58.81C113.614 59.3513 114.16 59.622 114.869 59.622ZM120.175 60V53.28H120.707L120.763 54.526H120.805C121.029 54.1153 121.299 53.7793 121.617 53.518C121.943 53.2473 122.307 53.112 122.709 53.112C122.839 53.112 122.956 53.1213 123.059 53.14C123.161 53.1587 123.269 53.196 123.381 53.252L123.241 53.812C123.129 53.7653 123.031 53.7373 122.947 53.728C122.863 53.7093 122.755 53.7 122.625 53.7C122.326 53.7 122.009 53.8307 121.673 54.092C121.346 54.344 121.052 54.7873 120.791 55.422V60H120.175ZM127.029 60.168C126.46 60.168 125.937 60.028 125.461 59.748C124.995 59.468 124.621 59.0667 124.341 58.544C124.061 58.012 123.921 57.382 123.921 56.654C123.921 55.9167 124.061 55.2867 124.341 54.764C124.621 54.232 124.985 53.826 125.433 53.546C125.881 53.2567 126.353 53.112 126.847 53.112C127.65 53.112 128.28 53.3827 128.737 53.924C129.195 54.4653 129.423 55.2307 129.423 56.22C129.423 56.304 129.419 56.388 129.409 56.472C129.409 56.556 129.4 56.64 129.381 56.724H124.551C124.561 57.284 124.668 57.7833 124.873 58.222C125.088 58.6607 125.382 59.006 125.755 59.258C126.138 59.51 126.581 59.636 127.085 59.636C127.449 59.636 127.776 59.58 128.065 59.468C128.364 59.356 128.639 59.2113 128.891 59.034L129.143 59.51C128.882 59.6687 128.588 59.818 128.261 59.958C127.935 60.098 127.524 60.168 127.029 60.168ZM124.551 56.22H128.835C128.835 55.3613 128.658 54.7173 128.303 54.288C127.949 53.8587 127.468 53.644 126.861 53.644C126.479 53.644 126.119 53.7467 125.783 53.952C125.457 54.1573 125.181 54.4513 124.957 54.834C124.733 55.2167 124.598 55.6787 124.551 56.22ZM126.441 51.964L126.105 51.642L127.981 49.444L128.457 49.85L126.441 51.964ZM132.873 60.168C132.378 60.168 131.916 60.0793 131.487 59.902C131.067 59.7153 130.708 59.496 130.409 59.244L130.773 58.782C131.062 59.0153 131.37 59.216 131.697 59.384C132.024 59.552 132.43 59.636 132.915 59.636C133.438 59.636 133.834 59.5053 134.105 59.244C134.376 58.9733 134.511 58.6607 134.511 58.306C134.511 58.026 134.427 57.7927 134.259 57.606C134.091 57.4193 133.881 57.2653 133.629 57.144C133.386 57.0227 133.134 56.9153 132.873 56.822C132.537 56.7007 132.206 56.5653 131.879 56.416C131.562 56.2667 131.3 56.0753 131.095 55.842C130.89 55.5993 130.787 55.2867 130.787 54.904C130.787 54.4093 130.969 53.9893 131.333 53.644C131.706 53.2893 132.243 53.112 132.943 53.112C133.307 53.112 133.657 53.1773 133.993 53.308C134.338 53.4387 134.632 53.6067 134.875 53.812L134.539 54.246C134.306 54.078 134.063 53.938 133.811 53.826C133.559 53.7047 133.265 53.644 132.929 53.644C132.406 53.644 132.019 53.77 131.767 54.022C131.524 54.274 131.403 54.554 131.403 54.862C131.403 55.114 131.473 55.324 131.613 55.492C131.762 55.66 131.954 55.8 132.187 55.912C132.43 56.0147 132.682 56.1173 132.943 56.22C133.298 56.3507 133.643 56.4907 133.979 56.64C134.315 56.7893 134.59 56.99 134.805 57.242C135.029 57.494 135.141 57.8393 135.141 58.278C135.141 58.614 135.052 58.9267 134.875 59.216C134.698 59.496 134.441 59.7247 134.105 59.902C133.769 60.0793 133.358 60.168 132.873 60.168ZM139.796 60V50.774H140.44V54.82H145.382V50.774H146.026V60H145.382V55.38H140.44V60H139.796ZM151.215 60.168C150.646 60.168 150.123 60.028 149.647 59.748C149.18 59.468 148.807 59.0667 148.527 58.544C148.247 58.012 148.107 57.382 148.107 56.654C148.107 55.9167 148.247 55.2867 148.527 54.764C148.807 54.232 149.171 53.826 149.619 53.546C150.067 53.2567 150.538 53.112 151.033 53.112C151.836 53.112 152.466 53.3827 152.923 53.924C153.38 54.4653 153.609 55.2307 153.609 56.22C153.609 56.304 153.604 56.388 153.595 56.472C153.595 56.556 153.586 56.64 153.567 56.724H148.737C148.746 57.284 148.854 57.7833 149.059 58.222C149.274 58.6607 149.568 59.006 149.941 59.258C150.324 59.51 150.767 59.636 151.271 59.636C151.635 59.636 151.962 59.58 152.251 59.468C152.55 59.356 152.825 59.2113 153.077 59.034L153.329 59.51C153.068 59.6687 152.774 59.818 152.447 59.958C152.12 60.098 151.71 60.168 151.215 60.168ZM148.737 56.22H153.021C153.021 55.3613 152.844 54.7173 152.489 54.288C152.134 53.8587 151.654 53.644 151.047 53.644C150.664 53.644 150.305 53.7467 149.969 53.952C149.642 54.1573 149.367 54.4513 149.143 54.834C148.919 55.2167 148.784 55.6787 148.737 56.22ZM155.434 60V53.28H155.966L156.022 54.526H156.064C156.288 54.1153 156.559 53.7793 156.876 53.518C157.203 53.2473 157.567 53.112 157.968 53.112C158.099 53.112 158.216 53.1213 158.318 53.14C158.421 53.1587 158.528 53.196 158.64 53.252L158.5 53.812C158.388 53.7653 158.29 53.7373 158.206 53.728C158.122 53.7093 158.015 53.7 157.884 53.7C157.586 53.7 157.268 53.8307 156.932 54.092C156.606 54.344 156.312 54.7873 156.05 55.422V60H155.434ZM162.289 60.168C161.72 60.168 161.197 60.028 160.721 59.748C160.254 59.468 159.881 59.0667 159.601 58.544C159.321 58.012 159.181 57.382 159.181 56.654C159.181 55.9167 159.321 55.2867 159.601 54.764C159.881 54.232 160.245 53.826 160.693 53.546C161.141 53.2567 161.612 53.112 162.107 53.112C162.91 53.112 163.54 53.3827 163.997 53.924C164.454 54.4653 164.683 55.2307 164.683 56.22C164.683 56.304 164.678 56.388 164.669 56.472C164.669 56.556 164.66 56.64 164.641 56.724H159.811C159.82 57.284 159.928 57.7833 160.133 58.222C160.348 58.6607 160.642 59.006 161.015 59.258C161.398 59.51 161.841 59.636 162.345 59.636C162.709 59.636 163.036 59.58 163.325 59.468C163.624 59.356 163.899 59.2113 164.151 59.034L164.403 59.51C164.142 59.6687 163.848 59.818 163.521 59.958C163.194 60.098 162.784 60.168 162.289 60.168ZM159.811 56.22H164.095C164.095 55.3613 163.918 54.7173 163.563 54.288C163.208 53.8587 162.728 53.644 162.121 53.644C161.738 53.644 161.379 53.7467 161.043 53.952C160.716 54.1573 160.441 54.4513 160.217 54.834C159.993 55.2167 159.858 55.6787 159.811 56.22ZM166.509 60V53.28H167.041L167.097 54.316H167.139C167.484 53.9707 167.839 53.686 168.203 53.462C168.576 53.2287 168.991 53.112 169.449 53.112C170.139 53.112 170.648 53.3267 170.975 53.756C171.311 54.176 171.479 54.82 171.479 55.688V60H170.863V55.772C170.863 55.0533 170.741 54.526 170.499 54.19C170.265 53.8447 169.873 53.672 169.323 53.672C168.921 53.672 168.557 53.7793 168.231 53.994C167.904 54.1993 167.535 54.512 167.125 54.932V60H166.509ZM176.452 60.168C175.873 60.168 175.351 60.0327 174.884 59.762C174.427 59.482 174.063 59.0807 173.792 58.558C173.531 58.026 173.4 57.3913 173.4 56.654C173.4 55.898 173.54 55.2587 173.82 54.736C174.109 54.204 174.487 53.8027 174.954 53.532C175.421 53.252 175.925 53.112 176.466 53.112C176.933 53.112 177.32 53.196 177.628 53.364C177.936 53.532 178.207 53.7233 178.44 53.938L178.076 54.372C177.861 54.1667 177.623 53.9987 177.362 53.868C177.101 53.728 176.807 53.658 176.48 53.658C176.023 53.658 175.607 53.784 175.234 54.036C174.87 54.288 174.581 54.638 174.366 55.086C174.151 55.534 174.044 56.0567 174.044 56.654C174.044 57.242 174.142 57.76 174.338 58.208C174.543 58.6467 174.828 58.992 175.192 59.244C175.565 59.496 175.995 59.622 176.48 59.622C176.835 59.622 177.161 59.5473 177.46 59.398C177.768 59.2393 178.039 59.0573 178.272 58.852L178.594 59.286C178.305 59.538 177.983 59.748 177.628 59.916C177.273 60.084 176.881 60.168 176.452 60.168ZM180.249 60V53.28H180.865V60H180.249ZM180.571 51.656C180.422 51.656 180.296 51.6047 180.193 51.502C180.09 51.3993 180.039 51.2593 180.039 51.082C180.039 50.9233 180.09 50.7927 180.193 50.69C180.296 50.5873 180.422 50.536 180.571 50.536C180.73 50.536 180.856 50.5873 180.949 50.69C181.052 50.7927 181.103 50.9233 181.103 51.082C181.103 51.2593 181.052 51.3993 180.949 51.502C180.856 51.6047 180.73 51.656 180.571 51.656ZM184.918 60.168C184.386 60.168 183.929 60.0187 183.546 59.72C183.163 59.4213 182.972 58.9547 182.972 58.32C182.972 57.5733 183.322 57.0087 184.022 56.626C184.722 56.234 185.819 55.954 187.312 55.786C187.321 55.4407 187.284 55.1093 187.2 54.792C187.116 54.4653 186.957 54.1947 186.724 53.98C186.5 53.7653 186.164 53.658 185.716 53.658C185.268 53.658 184.857 53.7467 184.484 53.924C184.111 54.1013 183.807 54.274 183.574 54.442L183.294 53.98C183.453 53.868 183.658 53.7467 183.91 53.616C184.162 53.476 184.447 53.3593 184.764 53.266C185.091 53.1633 185.436 53.112 185.8 53.112C186.332 53.112 186.752 53.2287 187.06 53.462C187.368 53.6953 187.587 54.008 187.718 54.4C187.858 54.7827 187.928 55.2167 187.928 55.702V60H187.396L187.34 59.132H187.298C186.953 59.4027 186.579 59.6453 186.178 59.86C185.777 60.0653 185.357 60.168 184.918 60.168ZM185.03 59.636C185.413 59.636 185.781 59.5427 186.136 59.356C186.5 59.1693 186.892 58.8987 187.312 58.544V56.262C186.388 56.374 185.655 56.5187 185.114 56.696C184.573 56.8733 184.185 57.0973 183.952 57.368C183.719 57.6293 183.602 57.9373 183.602 58.292C183.602 58.7773 183.742 59.1227 184.022 59.328C184.311 59.5333 184.647 59.636 185.03 59.636Z" fill="white"/>
<path d="M46.9333 20.7333C47.1066 20.7333 47.2788 20.7389 47.45 20.75C47.2313 21.8866 47.3131 23.0605 47.6873 24.1558C48.0615 25.2511 48.715 26.2297 49.5833 26.995C49.4622 27.6683 49.4011 28.3589 49.4 29.0667C49.396 31.7129 50.2956 34.2813 51.95 36.3467C50.4133 36.9501 48.7457 37.1419 47.1121 36.9031C45.4785 36.6643 43.9356 36.0032 42.6359 34.9852C41.3362 33.9672 40.3248 32.6275 39.7017 31.0987C39.0787 29.5698 38.8655 27.9048 39.0833 26.2683C39.6608 24.6485 40.7252 23.247 42.1306 22.2561C43.536 21.2651 45.2136 20.7332 46.9333 20.7333ZM68.3466 24.05C68.95 25.5867 69.1419 27.2543 68.9031 28.8879C68.6643 30.5214 68.0032 32.0644 66.9852 33.364C65.9671 34.6637 64.6274 35.6751 63.0986 36.2982C61.5698 36.9213 59.9048 37.1345 58.2683 36.9167C56.5651 36.3097 55.1055 35.1653 54.1097 33.656C53.114 32.1468 52.6361 30.3546 52.7483 28.55C53.8849 28.7686 55.0588 28.6868 56.1541 28.3127C57.2494 27.9385 58.228 27.285 58.9933 26.4167C59.6677 26.5378 60.3588 26.5989 61.0666 26.6C63.7129 26.604 66.2812 25.7044 68.3466 24.05ZM54 18.6667C54.884 18.6667 55.7319 19.0179 56.357 19.643C56.9821 20.2681 57.3333 21.1159 57.3333 22C57.3333 22.8841 56.9821 23.7319 56.357 24.357C55.7319 24.9821 54.884 25.3333 54 25.3333C53.1159 25.3333 52.2681 24.9821 51.6429 24.357C51.0178 23.7319 50.6666 22.8841 50.6666 22C50.6666 21.1159 51.0178 20.2681 51.6429 19.643C52.2681 19.0179 53.1159 18.6667 54 18.6667ZM59.5166 7C60.8677 6.99985 62.2031 7.28837 63.4336 7.84624C64.6641 8.40412 65.7611 9.21847 66.6513 10.2348C67.5415 11.251 68.2043 12.4458 68.5953 13.739C68.9862 15.0323 69.0964 16.3941 68.9183 17.7333C68.3107 19.4362 67.1658 20.8953 65.6562 21.8904C64.1467 22.8856 62.3545 23.3627 60.55 23.25C60.7686 22.1134 60.6868 20.9395 60.3126 19.8442C59.9385 18.7489 59.2849 17.7703 58.4166 17.005C58.5377 16.3317 58.5988 15.6411 58.6 14.9333C58.604 12.2871 57.7043 9.71872 56.05 7.65333C57.1546 7.22104 58.3304 6.99944 59.5166 7ZM48.4833 7C48.9066 7 49.3233 7.02722 49.7333 7.08167C51.4362 7.68926 52.8952 8.8342 53.8904 10.3437C54.8855 11.8533 55.3627 13.6455 55.25 15.45C54.1134 15.2314 52.9394 15.3132 51.8442 15.6873C50.7489 16.0615 49.7702 16.715 49.005 17.5833C48.3212 17.4607 47.6279 17.3993 46.9333 17.4C44.287 17.396 41.7187 18.2956 39.6533 19.95C39.0885 18.512 38.8836 16.9577 39.0565 15.4224C39.2293 13.8871 39.7746 12.4173 40.645 11.1408C41.5154 9.86435 42.6845 8.81985 44.0505 8.09817C45.4166 7.3765 46.9383 6.99951 48.4833 7Z" fill="#939DFF"/>
</svg>
