<svg width="269" height="63" viewBox="0 0 269 63" fill="none" xmlns="http://www.w3.org/2000/svg">
<path d="M21.2199 22.2424C21.2199 25.188 23.6077 27.5758 26.5532 27.5758C29.4987 27.5758 31.8865 25.188 31.8865 22.2424C31.8865 19.2969 29.4987 16.9091 26.5532 16.9091C23.6077 16.9091 21.2199 19.2969 21.2199 22.2424ZM0 22.2424L0 23.2424L26.5532 23.2424V22.2424V21.2424L0 21.2424L0 22.2424Z" fill="white"/>
<path d="M95.3812 8.97723C96.854 11.5281 100.116 12.4021 102.667 10.9294C105.218 9.45661 106.092 6.19479 104.619 3.6439C103.146 1.093 99.8842 0.219 97.3333 1.69176C94.7825 3.16452 93.9085 6.42633 95.3812 8.97723ZM77.0043 19.5872L77.5043 20.4532L100.5 7.17659L100 6.31056L99.5 5.44454L76.5043 18.7211L77.0043 19.5872Z" fill="white"/>
<path d="M95.3812 35.5079C93.9085 38.0588 94.7825 41.3206 97.3333 42.7933C99.8842 44.2661 103.146 43.3921 104.619 40.8412C106.092 38.2903 105.218 35.0285 102.667 33.5557C100.116 32.083 96.854 32.957 95.3812 35.5079ZM77.0043 24.8979L76.5043 25.764L99.5 39.0406L100 38.1745L100.5 37.3085L77.5043 24.0319L77.0043 24.8979Z" fill="white"/>
<path d="M122.896 34.384C121.595 34.384 120.24 34.1387 118.832 33.648C117.424 33.1573 116.155 32.4107 115.024 31.408L118.16 27.632C118.907 28.2293 119.707 28.72 120.56 29.104C121.435 29.4667 122.256 29.648 123.024 29.648C123.856 29.648 124.453 29.52 124.816 29.264C125.2 29.008 125.392 28.6453 125.392 28.176C125.392 27.6853 125.136 27.312 124.624 27.056C124.133 26.8 123.451 26.5013 122.576 26.16L119.984 25.072C118.875 24.624 117.893 23.92 117.04 22.96C116.208 22 115.792 20.7733 115.792 19.28C115.792 18.0853 116.123 17.008 116.784 16.048C117.445 15.0667 118.352 14.288 119.504 13.712C120.677 13.1147 122.021 12.816 123.536 12.816C124.731 12.816 125.936 13.0507 127.152 13.52C128.389 13.968 129.488 14.6613 130.448 15.6L127.696 19.056C126.992 18.5653 126.309 18.192 125.648 17.936C125.008 17.68 124.304 17.552 123.536 17.552C122.875 17.552 122.341 17.6693 121.936 17.904C121.552 18.1387 121.36 18.4907 121.36 18.96C121.36 19.4507 121.637 19.8347 122.192 20.112C122.747 20.368 123.493 20.6773 124.432 21.04L126.96 22.032C128.261 22.544 129.264 23.2587 129.968 24.176C130.672 25.0933 131.024 26.2773 131.024 27.728C131.024 28.9013 130.704 30 130.064 31.024C129.445 32.0267 128.528 32.8373 127.312 33.456C126.096 34.0747 124.624 34.384 122.896 34.384ZM133.919 39.632V18H138.399L138.783 19.472H138.911C139.508 18.9173 140.18 18.4693 140.927 18.128C141.695 17.7867 142.473 17.616 143.263 17.616C144.521 17.616 145.609 17.9573 146.527 18.64C147.465 19.3013 148.191 20.24 148.703 21.456C149.215 22.672 149.471 24.1013 149.471 25.744C149.471 27.5787 149.151 29.1467 148.51 30.448C147.871 31.728 147.039 32.7093 146.015 33.392C145.012 34.0533 143.945 34.384 142.815 34.384C141.492 34.384 140.297 33.8507 139.231 32.784L139.423 35.216V39.632H133.919ZM141.47 29.904C142.111 29.904 142.665 29.6053 143.135 29.008C143.604 28.4107 143.839 27.344 143.839 25.808C143.839 24.4853 143.647 23.536 143.263 22.96C142.9 22.384 142.345 22.096 141.599 22.096C141.193 22.096 140.82 22.1813 140.479 22.352C140.137 22.5227 139.785 22.8213 139.423 23.248V29.136C139.743 29.4133 140.073 29.616 140.415 29.744C140.777 29.8507 141.129 29.904 141.47 29.904ZM157.409 34.384C156.172 34.384 155.19 34.1387 154.465 33.648C153.761 33.136 153.249 32.432 152.929 31.536C152.63 30.6187 152.481 29.5627 152.481 28.368V11.728H157.985V28.56C157.985 29.0933 158.081 29.4667 158.273 29.68C158.486 29.872 158.689 29.968 158.881 29.968C158.988 29.968 159.073 29.968 159.137 29.968C159.222 29.9467 159.329 29.9253 159.457 29.904L160.097 33.936C159.82 34.064 159.457 34.1707 159.009 34.256C158.561 34.3413 158.028 34.384 157.409 34.384ZM162.012 34V18H167.516V34H162.012ZM164.764 16.016C163.868 16.016 163.143 15.7707 162.588 15.28C162.034 14.768 161.756 14.096 161.756 13.264C161.756 12.432 162.034 11.7707 162.588 11.28C163.143 10.768 163.868 10.512 164.764 10.512C165.66 10.512 166.386 10.768 166.94 11.28C167.495 11.7707 167.772 12.432 167.772 13.264C167.772 14.096 167.495 14.768 166.94 15.28C166.386 15.7707 165.66 16.016 164.764 16.016ZM177.823 34.384C175.754 34.384 174.25 33.7867 173.311 32.592C172.394 31.376 171.935 29.7973 171.935 27.856V22.288H169.823V18.192L172.255 18L172.895 13.84H177.439V18H181.087V22.288H177.439V27.76C177.439 28.6347 177.631 29.2427 178.015 29.584C178.399 29.9253 178.847 30.096 179.359 30.096C179.615 30.096 179.86 30.0747 180.095 30.032C180.351 29.968 180.575 29.904 180.767 29.84L181.599 33.808C181.194 33.936 180.682 34.064 180.063 34.192C179.444 34.32 178.698 34.384 177.823 34.384ZM190.01 34.384C187.941 34.384 186.437 33.7867 185.499 32.592C184.581 31.376 184.123 29.7973 184.123 27.856V22.288H182.011V18.192L184.443 18L185.083 13.84H189.627V18H193.275V22.288H189.627V27.76C189.627 28.6347 189.819 29.2427 190.203 29.584C190.587 29.9253 191.035 30.096 191.547 30.096C191.803 30.096 192.048 30.0747 192.283 30.032C192.539 29.968 192.763 29.904 192.955 29.84L193.787 33.808C193.381 33.936 192.869 34.064 192.251 34.192C191.632 34.32 190.885 34.384 190.01 34.384ZM203.03 34.384C201.473 34.384 200.065 34.0533 198.806 33.392C197.569 32.7307 196.587 31.7813 195.862 30.544C195.137 29.2853 194.774 27.7707 194.774 26C194.774 24.272 195.137 22.7893 195.862 21.552C196.609 20.2933 197.569 19.3227 198.742 18.64C199.915 17.9573 201.153 17.616 202.454 17.616C204.033 17.616 205.334 17.968 206.358 18.672C207.403 19.3547 208.171 20.2827 208.662 21.456C209.174 22.6293 209.43 23.9307 209.43 25.36C209.43 25.8293 209.398 26.288 209.334 26.736C209.291 27.1627 209.249 27.472 209.206 27.664H200.086C200.342 28.624 200.801 29.296 201.462 29.68C202.123 30.0427 202.902 30.224 203.798 30.224C204.822 30.224 205.91 29.904 207.062 29.264L208.854 32.528C208.001 33.1253 207.041 33.584 205.974 33.904C204.907 34.224 203.926 34.384 203.03 34.384ZM200.022 24.08H204.758C204.758 23.4613 204.598 22.928 204.278 22.48C203.979 22.0107 203.414 21.776 202.582 21.776C201.985 21.776 201.451 21.9573 200.982 22.32C200.513 22.6827 200.193 23.2693 200.022 24.08ZM212.45 34V18H216.93L217.314 20.752H217.442C218.039 19.664 218.743 18.8747 219.554 18.384C220.386 17.872 221.196 17.616 221.986 17.616C222.476 17.616 222.871 17.648 223.17 17.712C223.49 17.7547 223.756 17.8293 223.97 17.936L223.074 22.672C222.796 22.608 222.519 22.5547 222.242 22.512C221.964 22.448 221.644 22.416 221.282 22.416C220.706 22.416 220.098 22.6187 219.458 23.024C218.839 23.408 218.338 24.1013 217.954 25.104V34H212.45ZM226.849 34V13.008H230.049L234.081 24.208C234.337 24.9333 234.582 25.6693 234.817 26.416C235.073 27.1413 235.329 27.8667 235.585 28.592H235.713C235.969 27.8667 236.203 27.1413 236.417 26.416C236.651 25.6693 236.897 24.9333 237.153 24.208L241.121 13.008H244.353V34H241.857V22.448C241.857 21.5093 241.899 20.4747 241.985 19.344C242.07 18.192 242.145 17.1573 242.209 16.24H242.081L240.417 21.008L236.449 31.888H234.689L230.721 21.008L229.057 16.24H228.929C228.993 17.1573 229.057 18.192 229.121 19.344C229.206 20.4747 229.249 21.5093 229.249 22.448V34H226.849ZM250.099 34V13.008H256.659C258.088 13.008 259.357 13.2 260.467 13.584C261.576 13.9467 262.44 14.5653 263.059 15.44C263.699 16.2933 264.019 17.4453 264.019 18.896C264.019 20.5173 263.592 21.8293 262.739 22.832C261.885 23.8133 260.733 24.4853 259.283 24.848L264.627 34H261.619L256.563 25.136H252.755V34H250.099ZM252.755 22.96H256.275C257.917 22.96 259.176 22.6293 260.051 21.968C260.925 21.2853 261.363 20.2613 261.363 18.896C261.363 17.5093 260.925 16.5387 260.051 15.984C259.176 15.4293 257.917 15.152 256.275 15.152H252.755V22.96Z" fill="#939DFF"/>
<path d="M10.0809 61.108C9.58894 61.108 9.13594 60.994 8.72194 60.766C8.30794 60.538 7.97494 60.202 7.72294 59.758C7.47694 59.308 7.35394 58.756 7.35394 58.102C7.35394 57.454 7.47994 56.902 7.73194 56.446C7.98994 55.984 8.32894 55.633 8.74894 55.393C9.17494 55.147 9.63394 55.024 10.1259 55.024C10.5039 55.024 10.8429 55.102 11.1429 55.258C11.4429 55.408 11.6919 55.585 11.8899 55.789L11.1879 56.635C11.0379 56.497 10.8789 56.386 10.7109 56.302C10.5489 56.212 10.3629 56.167 10.1529 56.167C9.88894 56.167 9.64594 56.242 9.42394 56.392C9.20794 56.542 9.03394 56.758 8.90194 57.04C8.77594 57.322 8.71294 57.661 8.71294 58.057C8.71294 58.657 8.84194 59.125 9.09994 59.461C9.35794 59.797 9.70294 59.965 10.1349 59.965C10.3749 59.965 10.5879 59.911 10.7739 59.803C10.9659 59.695 11.1339 59.566 11.2779 59.416L11.9799 60.244C11.4879 60.82 10.8549 61.108 10.0809 61.108ZM12.7632 61V54.691H14.0862V56.239L14.0232 57.04C14.1912 56.89 14.3862 56.752 14.6082 56.626C14.8362 56.494 15.1002 56.428 15.4002 56.428C15.8862 56.428 16.2372 56.59 16.4532 56.914C16.6752 57.232 16.7862 57.67 16.7862 58.228V61H15.4632V58.399C15.4632 58.075 15.4182 57.853 15.3282 57.733C15.2442 57.613 15.1062 57.553 14.9142 57.553C14.7462 57.553 14.6022 57.592 14.4822 57.67C14.3622 57.742 14.2302 57.847 14.0862 57.985V61H12.7632ZM19.2458 61.108C18.7598 61.108 18.4058 60.949 18.1838 60.631C17.9678 60.307 17.8598 59.866 17.8598 59.308V56.536H19.1828V59.137C19.1828 59.455 19.2278 59.677 19.3178 59.803C19.4078 59.923 19.5488 59.983 19.7408 59.983C19.9088 59.983 20.0498 59.944 20.1638 59.866C20.2778 59.788 20.4008 59.662 20.5328 59.488V56.536H21.8558V61H20.7758L20.6768 60.379H20.6498C20.4638 60.601 20.2598 60.778 20.0378 60.91C19.8158 61.042 19.5518 61.108 19.2458 61.108ZM23.0201 61V56.536H24.1001L24.1901 57.103H24.2261C24.4181 56.923 24.6281 56.767 24.8561 56.635C25.0901 56.497 25.3571 56.428 25.6571 56.428C26.1431 56.428 26.4941 56.59 26.7101 56.914C26.9321 57.232 27.0431 57.67 27.0431 58.228V61H25.7201V58.399C25.7201 58.075 25.6751 57.853 25.5851 57.733C25.5011 57.613 25.3631 57.553 25.1711 57.553C25.0031 57.553 24.8591 57.592 24.7391 57.67C24.6191 57.742 24.4871 57.847 24.3431 57.985V61H23.0201ZM28.1704 61V54.691H29.4574V58.309H29.4934L30.9064 56.536H32.3464L30.7804 58.372L32.4634 61H31.0324L30.0244 59.263L29.4574 59.902V61H28.1704ZM35.3979 62.746C35.2659 62.746 35.1489 62.737 35.0469 62.719C34.9509 62.701 34.8579 62.68 34.7679 62.656L35.0019 61.648C35.0439 61.654 35.0919 61.663 35.1459 61.675C35.1999 61.693 35.2509 61.702 35.2989 61.702C35.5209 61.702 35.6919 61.648 35.8119 61.54C35.9319 61.432 36.0219 61.291 36.0819 61.117L36.1449 60.883L34.4259 56.536H35.7579L36.3969 58.453C36.4629 58.657 36.5229 58.864 36.5769 59.074C36.6309 59.284 36.6879 59.5 36.7479 59.722H36.7839C36.8319 59.512 36.8799 59.302 36.9279 59.092C36.9819 58.876 37.0359 58.663 37.0899 58.453L37.6299 56.536H38.8989L37.3509 61.045C37.2129 61.417 37.0599 61.729 36.8919 61.981C36.7239 62.239 36.5199 62.431 36.2799 62.557C36.0459 62.683 35.7519 62.746 35.3979 62.746ZM41.4429 61.108C41.0649 61.108 40.7079 61.018 40.3719 60.838C40.0419 60.652 39.7749 60.385 39.5709 60.037C39.3669 59.683 39.2649 59.26 39.2649 58.768C39.2649 58.27 39.3669 57.847 39.5709 57.499C39.7749 57.151 40.0419 56.887 40.3719 56.707C40.7079 56.521 41.0649 56.428 41.4429 56.428C41.8209 56.428 42.1749 56.521 42.5049 56.707C42.8349 56.887 43.1019 57.151 43.3059 57.499C43.5099 57.847 43.6119 58.27 43.6119 58.768C43.6119 59.26 43.5099 59.683 43.3059 60.037C43.1019 60.385 42.8349 60.652 42.5049 60.838C42.1749 61.018 41.8209 61.108 41.4429 61.108ZM41.4429 60.037C41.7129 60.037 41.9169 59.923 42.0549 59.695C42.1929 59.461 42.2619 59.152 42.2619 58.768C42.2619 58.378 42.1929 58.069 42.0549 57.841C41.9169 57.613 41.7129 57.499 41.4429 57.499C41.1669 57.499 40.9599 57.613 40.8219 57.841C40.6899 58.069 40.6239 58.378 40.6239 58.768C40.6239 59.152 40.6899 59.461 40.8219 59.695C40.9599 59.923 41.1669 60.037 41.4429 60.037ZM45.8591 61.108C45.3731 61.108 45.0191 60.949 44.7971 60.631C44.5811 60.307 44.4731 59.866 44.4731 59.308V56.536H45.7961V59.137C45.7961 59.455 45.8411 59.677 45.9311 59.803C46.0211 59.923 46.1621 59.983 46.3541 59.983C46.5221 59.983 46.6631 59.944 46.7771 59.866C46.8911 59.788 47.0141 59.662 47.1461 59.488V56.536H48.4691V61H47.3891L47.2901 60.379H47.2631C47.0771 60.601 46.8731 60.778 46.6511 60.91C46.4291 61.042 46.1651 61.108 45.8591 61.108ZM49.6333 61V56.536H50.7133L50.8033 57.319H50.8393C51.0013 57.019 51.1963 56.797 51.4243 56.653C51.6523 56.503 51.8803 56.428 52.1083 56.428C52.2343 56.428 52.3393 56.437 52.4233 56.455C52.5073 56.467 52.5793 56.488 52.6393 56.518L52.4233 57.661C52.3453 57.637 52.2673 57.619 52.1893 57.607C52.1173 57.595 52.0333 57.589 51.9373 57.589C51.7693 57.589 51.5923 57.652 51.4063 57.778C51.2263 57.898 51.0763 58.108 50.9563 58.408V61H49.6333ZM56.614 61.108C56.062 61.108 55.618 60.901 55.282 60.487C54.952 60.067 54.787 59.494 54.787 58.768C54.787 58.282 54.874 57.865 55.048 57.517C55.228 57.163 55.459 56.893 55.741 56.707C56.029 56.521 56.329 56.428 56.641 56.428C56.887 56.428 57.094 56.47 57.262 56.554C57.43 56.638 57.589 56.752 57.739 56.896L57.685 56.212V54.691H59.008V61H57.928L57.838 60.559H57.802C57.646 60.715 57.463 60.847 57.253 60.955C57.043 61.057 56.83 61.108 56.614 61.108ZM56.956 60.028C57.1 60.028 57.229 59.998 57.343 59.938C57.463 59.878 57.577 59.773 57.685 59.623V57.796C57.571 57.688 57.448 57.613 57.316 57.571C57.19 57.529 57.067 57.508 56.947 57.508C56.737 57.508 56.551 57.61 56.389 57.814C56.227 58.012 56.146 58.324 56.146 58.75C56.146 59.188 56.215 59.512 56.353 59.722C56.497 59.926 56.698 60.028 56.956 60.028ZM62.0972 61.108C61.7192 61.108 61.3622 61.018 61.0262 60.838C60.6962 60.652 60.4292 60.385 60.2252 60.037C60.0212 59.683 59.9192 59.26 59.9192 58.768C59.9192 58.27 60.0212 57.847 60.2252 57.499C60.4292 57.151 60.6962 56.887 61.0262 56.707C61.3622 56.521 61.7192 56.428 62.0972 56.428C62.4752 56.428 62.8292 56.521 63.1592 56.707C63.4892 56.887 63.7562 57.151 63.9602 57.499C64.1642 57.847 64.2662 58.27 64.2662 58.768C64.2662 59.26 64.1642 59.683 63.9602 60.037C63.7562 60.385 63.4892 60.652 63.1592 60.838C62.8292 61.018 62.4752 61.108 62.0972 61.108ZM62.0972 60.037C62.3672 60.037 62.5712 59.923 62.7092 59.695C62.8472 59.461 62.9162 59.152 62.9162 58.768C62.9162 58.378 62.8472 58.069 62.7092 57.841C62.5712 57.613 62.3672 57.499 62.0972 57.499C61.8212 57.499 61.6142 57.613 61.4762 57.841C61.3442 58.069 61.2782 58.378 61.2782 58.768C61.2782 59.152 61.3442 59.461 61.4762 59.695C61.6142 59.923 61.8212 60.037 62.0972 60.037ZM67.1164 61.108C66.7024 61.108 66.3274 61.018 65.9914 60.838C65.6614 60.652 65.3974 60.385 65.1994 60.037C65.0074 59.683 64.9114 59.26 64.9114 58.768C64.9114 58.27 65.0194 57.847 65.2354 57.499C65.4514 57.151 65.7364 56.887 66.0904 56.707C66.4444 56.521 66.8254 56.428 67.2334 56.428C67.5094 56.428 67.7524 56.473 67.9624 56.563C68.1784 56.653 68.3704 56.767 68.5384 56.905L67.9174 57.76C67.7074 57.586 67.5064 57.499 67.3144 57.499C66.9964 57.499 66.7414 57.613 66.5494 57.841C66.3634 58.069 66.2704 58.378 66.2704 58.768C66.2704 59.152 66.3634 59.461 66.5494 59.695C66.7414 59.923 66.9814 60.037 67.2694 60.037C67.4134 60.037 67.5544 60.007 67.6924 59.947C67.8304 59.881 67.9564 59.803 68.0704 59.713L68.5924 60.577C68.3704 60.769 68.1304 60.907 67.8724 60.991C67.6144 61.069 67.3624 61.108 67.1164 61.108ZM70.7146 61.108C70.2286 61.108 69.8746 60.949 69.6526 60.631C69.4366 60.307 69.3286 59.866 69.3286 59.308V56.536H70.6516V59.137C70.6516 59.455 70.6966 59.677 70.7866 59.803C70.8766 59.923 71.0176 59.983 71.2096 59.983C71.3776 59.983 71.5186 59.944 71.6326 59.866C71.7466 59.788 71.8696 59.662 72.0016 59.488V56.536H73.3246V61H72.2446L72.1456 60.379H72.1186C71.9326 60.601 71.7286 60.778 71.5066 60.91C71.2846 61.042 71.0206 61.108 70.7146 61.108ZM74.4888 61V56.536H75.5688L75.6588 57.112H75.6948C75.8808 56.926 76.0788 56.767 76.2888 56.635C76.4988 56.497 76.7508 56.428 77.0448 56.428C77.3628 56.428 77.6178 56.494 77.8098 56.626C78.0078 56.752 78.1638 56.935 78.2778 57.175C78.4758 56.971 78.6858 56.797 78.9078 56.653C79.1298 56.503 79.3878 56.428 79.6818 56.428C80.1618 56.428 80.5128 56.59 80.7348 56.914C80.9628 57.232 81.0768 57.67 81.0768 58.228V61H79.7538V58.399C79.7538 58.075 79.7088 57.853 79.6188 57.733C79.5348 57.613 79.3968 57.553 79.2048 57.553C78.9828 57.553 78.7278 57.697 78.4398 57.985V61H77.1168V58.399C77.1168 58.075 77.0718 57.853 76.9818 57.733C76.8978 57.613 76.7598 57.553 76.5678 57.553C76.3458 57.553 76.0938 57.697 75.8118 57.985V61H74.4888ZM84.2036 61.108C83.7776 61.108 83.3936 61.015 83.0516 60.829C82.7096 60.643 82.4396 60.376 82.2416 60.028C82.0436 59.68 81.9446 59.26 81.9446 58.768C81.9446 58.282 82.0436 57.865 82.2416 57.517C82.4456 57.169 82.7096 56.902 83.0336 56.716C83.3576 56.524 83.6966 56.428 84.0506 56.428C84.4766 56.428 84.8276 56.524 85.1036 56.716C85.3856 56.902 85.5956 57.157 85.7336 57.481C85.8776 57.799 85.9496 58.162 85.9496 58.57C85.9496 58.684 85.9436 58.798 85.9316 58.912C85.9196 59.02 85.9076 59.101 85.8956 59.155H83.2226C83.2826 59.479 83.4176 59.719 83.6276 59.875C83.8376 60.025 84.0896 60.1 84.3836 60.1C84.7016 60.1 85.0226 60.001 85.3466 59.803L85.7876 60.604C85.5596 60.76 85.3046 60.883 85.0226 60.973C84.7406 61.063 84.4676 61.108 84.2036 61.108ZM83.2136 58.282H84.8246C84.8246 58.036 84.7646 57.835 84.6446 57.679C84.5306 57.517 84.3416 57.436 84.0776 57.436C83.8736 57.436 83.6906 57.508 83.5286 57.652C83.3666 57.79 83.2616 58 83.2136 58.282ZM86.8638 61V56.536H87.9438L88.0338 57.103H88.0698C88.2618 56.923 88.4718 56.767 88.6998 56.635C88.9338 56.497 89.2008 56.428 89.5008 56.428C89.9868 56.428 90.3378 56.59 90.5538 56.914C90.7758 57.232 90.8868 57.67 90.8868 58.228V61H89.5638V58.399C89.5638 58.075 89.5188 57.853 89.4288 57.733C89.3448 57.613 89.2068 57.553 89.0148 57.553C88.8468 57.553 88.7028 57.592 88.5828 57.67C88.4628 57.742 88.3308 57.847 88.1868 57.985V61H86.8638ZM93.7332 61.108C93.1812 61.108 92.7852 60.949 92.5452 60.631C92.3112 60.313 92.1942 59.896 92.1942 59.38V57.571H91.5822V56.59L92.2662 56.536L92.4192 55.348H93.5172V56.536H94.5882V57.571H93.5172V59.362C93.5172 59.614 93.5682 59.797 93.6702 59.911C93.7782 60.019 93.9192 60.073 94.0932 60.073C94.1652 60.073 94.2372 60.064 94.3092 60.046C94.3872 60.028 94.4562 60.007 94.5162 59.983L94.7232 60.946C94.6092 60.982 94.4682 61.018 94.3002 61.054C94.1382 61.09 93.9492 61.108 93.7332 61.108ZM96.6856 61.108C96.3916 61.108 96.0886 61.051 95.7766 60.937C95.4706 60.823 95.2036 60.673 94.9756 60.487L95.5696 59.659C95.7736 59.809 95.9686 59.926 96.1546 60.01C96.3466 60.088 96.5356 60.127 96.7216 60.127C96.9196 60.127 97.0636 60.094 97.1536 60.028C97.2436 59.956 97.2886 59.863 97.2886 59.749C97.2886 59.647 97.2436 59.563 97.1536 59.497C97.0696 59.431 96.9586 59.371 96.8206 59.317C96.6826 59.257 96.5356 59.197 96.3796 59.137C96.1996 59.065 96.0196 58.975 95.8396 58.867C95.6656 58.759 95.5186 58.621 95.3986 58.453C95.2786 58.279 95.2186 58.069 95.2186 57.823C95.2186 57.409 95.3746 57.073 95.6866 56.815C96.0046 56.557 96.4186 56.428 96.9286 56.428C97.2706 56.428 97.5706 56.488 97.8286 56.608C98.0926 56.722 98.3176 56.851 98.5036 56.995L97.9096 57.787C97.7536 57.667 97.5976 57.574 97.4416 57.508C97.2856 57.442 97.1296 57.409 96.9736 57.409C96.6316 57.409 96.4606 57.526 96.4606 57.76C96.4606 57.904 96.5446 58.015 96.7126 58.093C96.8866 58.165 97.0876 58.243 97.3156 58.327C97.5076 58.393 97.6936 58.48 97.8736 58.588C98.0596 58.69 98.2126 58.828 98.3326 59.002C98.4586 59.17 98.5216 59.392 98.5216 59.668C98.5216 60.07 98.3656 60.412 98.0536 60.694C97.7416 60.97 97.2856 61.108 96.6856 61.108ZM102.694 61.108C102.226 61.108 101.899 60.973 101.713 60.703C101.533 60.433 101.443 60.082 101.443 59.65V57.229H100.795V56.671L101.479 56.626L101.569 55.402H102.19V56.626H103.369V57.229H102.19V59.659C102.19 59.929 102.238 60.139 102.334 60.289C102.436 60.433 102.613 60.505 102.865 60.505C102.943 60.505 103.027 60.493 103.117 60.469C103.207 60.439 103.288 60.412 103.36 60.388L103.504 60.946C103.384 60.988 103.252 61.024 103.108 61.054C102.97 61.09 102.832 61.108 102.694 61.108ZM106.008 61.108C105.618 61.108 105.264 61.018 104.946 60.838C104.628 60.652 104.376 60.388 104.19 60.046C104.004 59.704 103.911 59.296 103.911 58.822C103.911 58.342 104.004 57.931 104.19 57.589C104.382 57.247 104.628 56.983 104.928 56.797C105.228 56.611 105.543 56.518 105.873 56.518C106.431 56.518 106.86 56.704 107.16 57.076C107.466 57.448 107.619 57.946 107.619 58.57C107.619 58.648 107.616 58.726 107.61 58.804C107.61 58.876 107.604 58.939 107.592 58.993H104.64C104.67 59.455 104.814 59.824 105.072 60.1C105.336 60.376 105.678 60.514 106.098 60.514C106.308 60.514 106.5 60.484 106.674 60.424C106.854 60.358 107.025 60.274 107.187 60.172L107.448 60.658C107.262 60.778 107.049 60.883 106.809 60.973C106.575 61.063 106.308 61.108 106.008 61.108ZM104.631 58.462H106.971C106.971 58.018 106.875 57.682 106.683 57.454C106.497 57.22 106.233 57.103 105.891 57.103C105.585 57.103 105.309 57.223 105.063 57.463C104.823 57.697 104.679 58.03 104.631 58.462ZM108.026 61L109.457 58.714L108.134 56.626H108.935L109.52 57.589C109.586 57.703 109.655 57.823 109.727 57.949C109.799 58.075 109.874 58.198 109.952 58.318H109.988C110.054 58.198 110.12 58.075 110.186 57.949C110.252 57.823 110.318 57.703 110.384 57.589L110.915 56.626H111.689L110.366 58.795L111.788 61H110.987L110.348 59.983C110.27 59.851 110.192 59.719 110.114 59.587C110.036 59.455 109.955 59.326 109.871 59.2H109.835C109.757 59.326 109.682 59.455 109.61 59.587C109.538 59.713 109.466 59.845 109.394 59.983L108.8 61H108.026ZM113.812 61.108C113.344 61.108 113.017 60.973 112.831 60.703C112.651 60.433 112.561 60.082 112.561 59.65V57.229H111.913V56.671L112.597 56.626L112.687 55.402H113.308V56.626H114.487V57.229H113.308V59.659C113.308 59.929 113.356 60.139 113.452 60.289C113.554 60.433 113.731 60.505 113.983 60.505C114.061 60.505 114.145 60.493 114.235 60.469C114.325 60.439 114.406 60.412 114.478 60.388L114.622 60.946C114.502 60.988 114.37 61.024 114.226 61.054C114.088 61.09 113.95 61.108 113.812 61.108ZM117.404 61V57.229H116.81V56.671L117.404 56.626V55.933C117.404 55.489 117.506 55.138 117.71 54.88C117.92 54.616 118.244 54.484 118.682 54.484C118.82 54.484 118.952 54.499 119.078 54.529C119.204 54.553 119.315 54.586 119.411 54.628L119.249 55.195C119.087 55.123 118.922 55.087 118.754 55.087C118.346 55.087 118.142 55.369 118.142 55.933V56.626H119.069V57.229H118.142V61H117.404ZM121.519 61.108C121.165 61.108 120.832 61.018 120.52 60.838C120.214 60.658 119.965 60.397 119.773 60.055C119.587 59.713 119.494 59.302 119.494 58.822C119.494 58.33 119.587 57.913 119.773 57.571C119.965 57.229 120.214 56.968 120.52 56.788C120.832 56.608 121.165 56.518 121.519 56.518C121.879 56.518 122.212 56.608 122.518 56.788C122.824 56.968 123.07 57.229 123.256 57.571C123.448 57.913 123.544 58.33 123.544 58.822C123.544 59.302 123.448 59.713 123.256 60.055C123.07 60.397 122.824 60.658 122.518 60.838C122.212 61.018 121.879 61.108 121.519 61.108ZM121.519 60.496C121.897 60.496 122.2 60.343 122.428 60.037C122.662 59.725 122.779 59.32 122.779 58.822C122.779 58.318 122.662 57.91 122.428 57.598C122.2 57.286 121.897 57.13 121.519 57.13C121.147 57.13 120.844 57.286 120.61 57.598C120.376 57.91 120.259 58.318 120.259 58.822C120.259 59.32 120.376 59.725 120.61 60.037C120.844 60.343 121.147 60.496 121.519 60.496ZM124.696 61V56.626H125.308L125.371 57.418H125.398C125.548 57.142 125.731 56.923 125.947 56.761C126.163 56.599 126.394 56.518 126.64 56.518C126.814 56.518 126.97 56.548 127.108 56.608L126.964 57.256C126.892 57.232 126.826 57.214 126.766 57.202C126.706 57.19 126.631 57.184 126.541 57.184C126.355 57.184 126.16 57.259 125.956 57.409C125.758 57.559 125.584 57.82 125.434 58.192V61H124.696ZM129.617 62.845V56.626H130.229L130.292 57.13H130.319C130.517 56.962 130.733 56.818 130.967 56.698C131.207 56.578 131.456 56.518 131.714 56.518C132.278 56.518 132.707 56.722 133.001 57.13C133.295 57.532 133.442 58.072 133.442 58.75C133.442 59.242 133.352 59.665 133.172 60.019C132.998 60.373 132.767 60.643 132.479 60.829C132.197 61.015 131.888 61.108 131.552 61.108C131.348 61.108 131.144 61.063 130.94 60.973C130.742 60.883 130.541 60.76 130.337 60.604L130.355 61.369V62.845H129.617ZM131.426 60.487C131.786 60.487 132.083 60.334 132.317 60.028C132.557 59.716 132.677 59.29 132.677 58.75C132.677 58.27 132.587 57.883 132.407 57.589C132.233 57.289 131.939 57.139 131.525 57.139C131.339 57.139 131.15 57.19 130.958 57.292C130.772 57.394 130.571 57.541 130.355 57.733V60.028C130.553 60.196 130.745 60.316 130.931 60.388C131.117 60.454 131.282 60.487 131.426 60.487ZM134.61 61V56.626H135.222L135.285 57.418H135.312C135.462 57.142 135.645 56.923 135.861 56.761C136.077 56.599 136.308 56.518 136.554 56.518C136.728 56.518 136.884 56.548 137.022 56.608L136.878 57.256C136.806 57.232 136.74 57.214 136.68 57.202C136.62 57.19 136.545 57.184 136.455 57.184C136.269 57.184 136.074 57.259 135.87 57.409C135.672 57.559 135.498 57.82 135.348 58.192V61H134.61ZM139.343 61.108C138.989 61.108 138.656 61.018 138.344 60.838C138.038 60.658 137.789 60.397 137.597 60.055C137.411 59.713 137.318 59.302 137.318 58.822C137.318 58.33 137.411 57.913 137.597 57.571C137.789 57.229 138.038 56.968 138.344 56.788C138.656 56.608 138.989 56.518 139.343 56.518C139.703 56.518 140.036 56.608 140.342 56.788C140.648 56.968 140.894 57.229 141.08 57.571C141.272 57.913 141.368 58.33 141.368 58.822C141.368 59.302 141.272 59.713 141.08 60.055C140.894 60.397 140.648 60.658 140.342 60.838C140.036 61.018 139.703 61.108 139.343 61.108ZM139.343 60.496C139.721 60.496 140.024 60.343 140.252 60.037C140.486 59.725 140.603 59.32 140.603 58.822C140.603 58.318 140.486 57.91 140.252 57.598C140.024 57.286 139.721 57.13 139.343 57.13C138.971 57.13 138.668 57.286 138.434 57.598C138.2 57.91 138.083 58.318 138.083 58.822C138.083 59.32 138.2 59.725 138.434 60.037C138.668 60.343 138.971 60.496 139.343 60.496ZM144.014 61.108C143.468 61.108 143.03 60.91 142.7 60.514C142.37 60.112 142.205 59.548 142.205 58.822C142.205 58.348 142.292 57.94 142.466 57.598C142.646 57.25 142.88 56.983 143.168 56.797C143.462 56.611 143.774 56.518 144.104 56.518C144.356 56.518 144.575 56.563 144.761 56.653C144.947 56.743 145.136 56.866 145.328 57.022L145.292 56.275V54.592H146.039V61H145.427L145.364 60.487H145.337C145.169 60.655 144.971 60.802 144.743 60.928C144.515 61.048 144.272 61.108 144.014 61.108ZM144.176 60.487C144.56 60.487 144.932 60.286 145.292 59.884V57.598C145.106 57.43 144.926 57.313 144.752 57.247C144.584 57.175 144.41 57.139 144.23 57.139C143.996 57.139 143.783 57.211 143.591 57.355C143.405 57.493 143.255 57.688 143.141 57.94C143.027 58.186 142.97 58.477 142.97 58.813C142.97 59.335 143.075 59.746 143.285 60.046C143.495 60.34 143.792 60.487 144.176 60.487ZM148.79 61.108C148.328 61.108 147.989 60.964 147.773 60.676C147.557 60.382 147.449 59.956 147.449 59.398V56.626H148.196V59.299C148.196 59.707 148.259 60.004 148.385 60.19C148.517 60.376 148.727 60.469 149.015 60.469C149.243 60.469 149.444 60.412 149.618 60.298C149.798 60.178 149.99 59.989 150.194 59.731V56.626H150.932V61H150.32L150.257 60.316H150.23C150.026 60.556 149.81 60.748 149.582 60.892C149.354 61.036 149.09 61.108 148.79 61.108ZM154.135 61.108C153.751 61.108 153.403 61.018 153.091 60.838C152.779 60.658 152.533 60.397 152.353 60.055C152.173 59.713 152.083 59.302 152.083 58.822C152.083 58.33 152.179 57.913 152.371 57.571C152.569 57.229 152.827 56.968 153.145 56.788C153.469 56.608 153.817 56.518 154.189 56.518C154.477 56.518 154.723 56.569 154.927 56.671C155.137 56.773 155.317 56.893 155.467 57.031L155.089 57.517C154.963 57.403 154.828 57.31 154.684 57.238C154.546 57.166 154.39 57.13 154.216 57.13C153.952 57.13 153.715 57.202 153.505 57.346C153.301 57.484 153.139 57.682 153.019 57.94C152.905 58.192 152.848 58.486 152.848 58.822C152.848 59.32 152.971 59.725 153.217 60.037C153.469 60.343 153.796 60.496 154.198 60.496C154.402 60.496 154.591 60.454 154.765 60.37C154.939 60.28 155.092 60.175 155.224 60.055L155.548 60.55C155.35 60.724 155.131 60.862 154.891 60.964C154.651 61.06 154.399 61.108 154.135 61.108ZM157.801 61.108C157.333 61.108 157.006 60.973 156.82 60.703C156.64 60.433 156.55 60.082 156.55 59.65V57.229H155.902V56.671L156.586 56.626L156.676 55.402H157.297V56.626H158.476V57.229H157.297V59.659C157.297 59.929 157.345 60.139 157.441 60.289C157.543 60.433 157.72 60.505 157.972 60.505C158.05 60.505 158.134 60.493 158.224 60.469C158.314 60.439 158.395 60.412 158.467 60.388L158.611 60.946C158.491 60.988 158.359 61.024 158.215 61.054C158.077 61.09 157.939 61.108 157.801 61.108ZM159.465 61V56.626H160.203V61H159.465ZM159.843 55.726C159.699 55.726 159.579 55.684 159.483 55.6C159.393 55.51 159.348 55.39 159.348 55.24C159.348 55.096 159.393 54.979 159.483 54.889C159.579 54.799 159.699 54.754 159.843 54.754C159.987 54.754 160.104 54.799 160.194 54.889C160.29 54.979 160.338 55.096 160.338 55.24C160.338 55.39 160.29 55.51 160.194 55.6C160.104 55.684 159.987 55.726 159.843 55.726ZM163.381 61.108C163.027 61.108 162.694 61.018 162.382 60.838C162.076 60.658 161.827 60.397 161.635 60.055C161.449 59.713 161.356 59.302 161.356 58.822C161.356 58.33 161.449 57.913 161.635 57.571C161.827 57.229 162.076 56.968 162.382 56.788C162.694 56.608 163.027 56.518 163.381 56.518C163.741 56.518 164.074 56.608 164.38 56.788C164.686 56.968 164.932 57.229 165.118 57.571C165.31 57.913 165.406 58.33 165.406 58.822C165.406 59.302 165.31 59.713 165.118 60.055C164.932 60.397 164.686 60.658 164.38 60.838C164.074 61.018 163.741 61.108 163.381 61.108ZM163.381 60.496C163.759 60.496 164.062 60.343 164.29 60.037C164.524 59.725 164.641 59.32 164.641 58.822C164.641 58.318 164.524 57.91 164.29 57.598C164.062 57.286 163.759 57.13 163.381 57.13C163.009 57.13 162.706 57.286 162.472 57.598C162.238 57.91 162.121 58.318 162.121 58.822C162.121 59.32 162.238 59.725 162.472 60.037C162.706 60.343 163.009 60.496 163.381 60.496ZM166.558 61V56.626H167.17L167.233 57.256H167.26C167.47 57.046 167.692 56.872 167.926 56.734C168.16 56.59 168.427 56.518 168.727 56.518C169.189 56.518 169.525 56.665 169.735 56.959C169.951 57.247 170.059 57.67 170.059 58.228V61H169.321V58.327C169.321 57.919 169.255 57.622 169.123 57.436C168.991 57.25 168.781 57.157 168.493 57.157C168.271 57.157 168.07 57.214 167.89 57.328C167.716 57.442 167.518 57.61 167.296 57.832V61H166.558ZM171.111 59.029V58.462H173.181V59.029H171.111ZM174.275 61V56.626H174.887L174.95 57.418H174.977C175.127 57.142 175.31 56.923 175.526 56.761C175.742 56.599 175.973 56.518 176.219 56.518C176.393 56.518 176.549 56.548 176.687 56.608L176.543 57.256C176.471 57.232 176.405 57.214 176.345 57.202C176.285 57.19 176.21 57.184 176.12 57.184C175.934 57.184 175.739 57.259 175.535 57.409C175.337 57.559 175.163 57.82 175.013 58.192V61H174.275ZM179.08 61.108C178.69 61.108 178.336 61.018 178.018 60.838C177.7 60.652 177.448 60.388 177.262 60.046C177.076 59.704 176.983 59.296 176.983 58.822C176.983 58.342 177.076 57.931 177.262 57.589C177.454 57.247 177.7 56.983 178 56.797C178.3 56.611 178.615 56.518 178.945 56.518C179.503 56.518 179.932 56.704 180.232 57.076C180.538 57.448 180.691 57.946 180.691 58.57C180.691 58.648 180.688 58.726 180.682 58.804C180.682 58.876 180.676 58.939 180.664 58.993H177.712C177.742 59.455 177.886 59.824 178.144 60.1C178.408 60.376 178.75 60.514 179.17 60.514C179.38 60.514 179.572 60.484 179.746 60.424C179.926 60.358 180.097 60.274 180.259 60.172L180.52 60.658C180.334 60.778 180.121 60.883 179.881 60.973C179.647 61.063 179.38 61.108 179.08 61.108ZM177.703 58.462H180.043C180.043 58.018 179.947 57.682 179.755 57.454C179.569 57.22 179.305 57.103 178.963 57.103C178.657 57.103 178.381 57.223 178.135 57.463C177.895 57.697 177.751 58.03 177.703 58.462ZM182.657 61.108C182.291 61.108 181.985 61 181.739 60.784C181.499 60.562 181.379 60.256 181.379 59.866C181.379 59.386 181.592 59.02 182.018 58.768C182.45 58.51 183.131 58.33 184.061 58.228C184.061 58.042 184.034 57.865 183.98 57.697C183.932 57.529 183.842 57.394 183.71 57.292C183.584 57.184 183.401 57.13 183.161 57.13C182.909 57.13 182.672 57.178 182.45 57.274C182.228 57.37 182.03 57.478 181.856 57.598L181.568 57.085C181.772 56.953 182.021 56.827 182.315 56.707C182.615 56.581 182.939 56.518 183.287 56.518C183.821 56.518 184.208 56.683 184.448 57.013C184.688 57.337 184.808 57.772 184.808 58.318V61H184.196L184.133 60.478H184.106C183.902 60.646 183.677 60.793 183.431 60.919C183.191 61.045 182.933 61.108 182.657 61.108ZM182.873 60.514C183.083 60.514 183.281 60.463 183.467 60.361C183.653 60.259 183.851 60.115 184.061 59.929V58.714C183.335 58.804 182.825 58.939 182.531 59.119C182.243 59.299 182.099 59.53 182.099 59.812C182.099 60.058 182.174 60.238 182.324 60.352C182.474 60.46 182.657 60.514 182.873 60.514ZM187.678 61.108C187.132 61.108 186.694 60.91 186.364 60.514C186.034 60.112 185.869 59.548 185.869 58.822C185.869 58.348 185.956 57.94 186.13 57.598C186.31 57.25 186.544 56.983 186.832 56.797C187.126 56.611 187.438 56.518 187.768 56.518C188.02 56.518 188.239 56.563 188.425 56.653C188.611 56.743 188.8 56.866 188.992 57.022L188.956 56.275V54.592H189.703V61H189.091L189.028 60.487H189.001C188.833 60.655 188.635 60.802 188.407 60.928C188.179 61.048 187.936 61.108 187.678 61.108ZM187.84 60.487C188.224 60.487 188.596 60.286 188.956 59.884V57.598C188.77 57.43 188.59 57.313 188.416 57.247C188.248 57.175 188.074 57.139 187.894 57.139C187.66 57.139 187.447 57.211 187.255 57.355C187.069 57.493 186.919 57.688 186.805 57.94C186.691 58.186 186.634 58.477 186.634 58.813C186.634 59.335 186.739 59.746 186.949 60.046C187.159 60.34 187.456 60.487 187.84 60.487ZM191.248 62.881C191.152 62.881 191.059 62.872 190.969 62.854C190.885 62.836 190.807 62.815 190.735 62.791L190.879 62.206C190.927 62.218 190.981 62.23 191.041 62.242C191.101 62.26 191.158 62.269 191.212 62.269C191.458 62.269 191.662 62.179 191.824 61.999C191.986 61.825 192.112 61.603 192.202 61.333L192.301 61.009L190.546 56.626H191.311L192.202 59.047C192.268 59.233 192.337 59.434 192.409 59.65C192.487 59.866 192.559 60.076 192.625 60.28H192.661C192.727 60.082 192.79 59.875 192.85 59.659C192.91 59.443 192.97 59.239 193.03 59.047L193.813 56.626H194.533L192.886 61.36C192.784 61.648 192.661 61.906 192.517 62.134C192.379 62.362 192.205 62.542 191.995 62.674C191.791 62.812 191.542 62.881 191.248 62.881ZM197.251 61V55.096H197.998V60.361H200.581V61H197.251ZM201.628 61V55.096H202.375V60.361H204.958V61H201.628ZM206.005 61V55.096H206.905L208.039 58.246C208.111 58.45 208.18 58.657 208.246 58.867C208.318 59.071 208.39 59.275 208.462 59.479H208.498C208.57 59.275 208.636 59.071 208.696 58.867C208.762 58.657 208.831 58.45 208.903 58.246L210.019 55.096H210.928V61H210.226V57.751C210.226 57.487 210.238 57.196 210.262 56.878C210.286 56.554 210.307 56.263 210.325 56.005H210.289L209.821 57.346L208.705 60.406H208.21L207.094 57.346L206.626 56.005H206.59C206.608 56.263 206.626 56.554 206.644 56.878C206.668 57.196 206.68 57.487 206.68 57.751V61H206.005ZM215.282 61.108C214.916 61.108 214.61 61 214.364 60.784C214.124 60.562 214.004 60.256 214.004 59.866C214.004 59.386 214.217 59.02 214.643 58.768C215.075 58.51 215.756 58.33 216.686 58.228C216.686 58.042 216.659 57.865 216.605 57.697C216.557 57.529 216.467 57.394 216.335 57.292C216.209 57.184 216.026 57.13 215.786 57.13C215.534 57.13 215.297 57.178 215.075 57.274C214.853 57.37 214.655 57.478 214.481 57.598L214.193 57.085C214.397 56.953 214.646 56.827 214.94 56.707C215.24 56.581 215.564 56.518 215.912 56.518C216.446 56.518 216.833 56.683 217.073 57.013C217.313 57.337 217.433 57.772 217.433 58.318V61H216.821L216.758 60.478H216.731C216.527 60.646 216.302 60.793 216.056 60.919C215.816 61.045 215.558 61.108 215.282 61.108ZM215.498 60.514C215.708 60.514 215.906 60.463 216.092 60.361C216.278 60.259 216.476 60.115 216.686 59.929V58.714C215.96 58.804 215.45 58.939 215.156 59.119C214.868 59.299 214.724 59.53 214.724 59.812C214.724 60.058 214.799 60.238 214.949 60.352C215.099 60.46 215.282 60.514 215.498 60.514ZM218.809 62.845V56.626H219.421L219.484 57.13H219.511C219.709 56.962 219.925 56.818 220.159 56.698C220.399 56.578 220.648 56.518 220.906 56.518C221.47 56.518 221.899 56.722 222.193 57.13C222.487 57.532 222.634 58.072 222.634 58.75C222.634 59.242 222.544 59.665 222.364 60.019C222.19 60.373 221.959 60.643 221.671 60.829C221.389 61.015 221.08 61.108 220.744 61.108C220.54 61.108 220.336 61.063 220.132 60.973C219.934 60.883 219.733 60.76 219.529 60.604L219.547 61.369V62.845H218.809ZM220.618 60.487C220.978 60.487 221.275 60.334 221.509 60.028C221.749 59.716 221.869 59.29 221.869 58.75C221.869 58.27 221.779 57.883 221.599 57.589C221.425 57.289 221.131 57.139 220.717 57.139C220.531 57.139 220.342 57.19 220.15 57.292C219.964 57.394 219.763 57.541 219.547 57.733V60.028C219.745 60.196 219.937 60.316 220.123 60.388C220.309 60.454 220.474 60.487 220.618 60.487ZM223.801 62.845V56.626H224.413L224.476 57.13H224.503C224.701 56.962 224.917 56.818 225.151 56.698C225.391 56.578 225.64 56.518 225.898 56.518C226.462 56.518 226.891 56.722 227.185 57.13C227.479 57.532 227.626 58.072 227.626 58.75C227.626 59.242 227.536 59.665 227.356 60.019C227.182 60.373 226.951 60.643 226.663 60.829C226.381 61.015 226.072 61.108 225.736 61.108C225.532 61.108 225.328 61.063 225.124 60.973C224.926 60.883 224.725 60.76 224.521 60.604L224.539 61.369V62.845H223.801ZM225.61 60.487C225.97 60.487 226.267 60.334 226.501 60.028C226.741 59.716 226.861 59.29 226.861 58.75C226.861 58.27 226.771 57.883 226.591 57.589C226.417 57.289 226.123 57.139 225.709 57.139C225.523 57.139 225.334 57.19 225.142 57.292C224.956 57.394 224.755 57.541 224.539 57.733V60.028C224.737 60.196 224.929 60.316 225.115 60.388C225.301 60.454 225.466 60.487 225.61 60.487ZM229.576 61.108C229.3 61.108 229.099 61.024 228.973 60.856C228.853 60.682 228.793 60.436 228.793 60.118V54.592H229.531V60.172C229.531 60.286 229.552 60.37 229.594 60.424C229.636 60.472 229.684 60.496 229.738 60.496C229.762 60.496 229.783 60.496 229.801 60.496C229.825 60.49 229.858 60.484 229.9 60.478L229.999 61.036C229.951 61.06 229.894 61.078 229.828 61.09C229.762 61.102 229.678 61.108 229.576 61.108ZM231.087 61V56.626H231.825V61H231.087ZM231.465 55.726C231.321 55.726 231.201 55.684 231.105 55.6C231.015 55.51 230.97 55.39 230.97 55.24C230.97 55.096 231.015 54.979 231.105 54.889C231.201 54.799 231.321 54.754 231.465 54.754C231.609 54.754 231.726 54.799 231.816 54.889C231.912 54.979 231.96 55.096 231.96 55.24C231.96 55.39 231.912 55.51 231.816 55.6C231.726 55.684 231.609 55.726 231.465 55.726ZM235.03 61.108C234.646 61.108 234.298 61.018 233.986 60.838C233.674 60.658 233.428 60.397 233.248 60.055C233.068 59.713 232.978 59.302 232.978 58.822C232.978 58.33 233.074 57.913 233.266 57.571C233.464 57.229 233.722 56.968 234.04 56.788C234.364 56.608 234.712 56.518 235.084 56.518C235.372 56.518 235.618 56.569 235.822 56.671C236.032 56.773 236.212 56.893 236.362 57.031L235.984 57.517C235.858 57.403 235.723 57.31 235.579 57.238C235.441 57.166 235.285 57.13 235.111 57.13C234.847 57.13 234.61 57.202 234.4 57.346C234.196 57.484 234.034 57.682 233.914 57.94C233.8 58.192 233.743 58.486 233.743 58.822C233.743 59.32 233.866 59.725 234.112 60.037C234.364 60.343 234.691 60.496 235.093 60.496C235.297 60.496 235.486 60.454 235.66 60.37C235.834 60.28 235.987 60.175 236.119 60.055L236.443 60.55C236.245 60.724 236.026 60.862 235.786 60.964C235.546 61.06 235.294 61.108 235.03 61.108ZM238.327 61.108C237.961 61.108 237.655 61 237.409 60.784C237.169 60.562 237.049 60.256 237.049 59.866C237.049 59.386 237.262 59.02 237.688 58.768C238.12 58.51 238.801 58.33 239.731 58.228C239.731 58.042 239.704 57.865 239.65 57.697C239.602 57.529 239.512 57.394 239.38 57.292C239.254 57.184 239.071 57.13 238.831 57.13C238.579 57.13 238.342 57.178 238.12 57.274C237.898 57.37 237.7 57.478 237.526 57.598L237.238 57.085C237.442 56.953 237.691 56.827 237.985 56.707C238.285 56.581 238.609 56.518 238.957 56.518C239.491 56.518 239.878 56.683 240.118 57.013C240.358 57.337 240.478 57.772 240.478 58.318V61H239.866L239.803 60.478H239.776C239.572 60.646 239.347 60.793 239.101 60.919C238.861 61.045 238.603 61.108 238.327 61.108ZM238.543 60.514C238.753 60.514 238.951 60.463 239.137 60.361C239.323 60.259 239.521 60.115 239.731 59.929V58.714C239.005 58.804 238.495 58.939 238.201 59.119C237.913 59.299 237.769 59.53 237.769 59.812C237.769 60.058 237.844 60.238 237.994 60.352C238.144 60.46 238.327 60.514 238.543 60.514ZM243.108 61.108C242.64 61.108 242.313 60.973 242.127 60.703C241.947 60.433 241.857 60.082 241.857 59.65V57.229H241.209V56.671L241.893 56.626L241.983 55.402H242.604V56.626H243.783V57.229H242.604V59.659C242.604 59.929 242.652 60.139 242.748 60.289C242.85 60.433 243.027 60.505 243.279 60.505C243.357 60.505 243.441 60.493 243.531 60.469C243.621 60.439 243.702 60.412 243.774 60.388L243.918 60.946C243.798 60.988 243.666 61.024 243.522 61.054C243.384 61.09 243.246 61.108 243.108 61.108ZM244.772 61V56.626H245.51V61H244.772ZM245.15 55.726C245.006 55.726 244.886 55.684 244.79 55.6C244.7 55.51 244.655 55.39 244.655 55.24C244.655 55.096 244.7 54.979 244.79 54.889C244.886 54.799 245.006 54.754 245.15 54.754C245.294 54.754 245.411 54.799 245.501 54.889C245.597 54.979 245.645 55.096 245.645 55.24C245.645 55.39 245.597 55.51 245.501 55.6C245.411 55.684 245.294 55.726 245.15 55.726ZM248.688 61.108C248.334 61.108 248.001 61.018 247.689 60.838C247.383 60.658 247.134 60.397 246.942 60.055C246.756 59.713 246.663 59.302 246.663 58.822C246.663 58.33 246.756 57.913 246.942 57.571C247.134 57.229 247.383 56.968 247.689 56.788C248.001 56.608 248.334 56.518 248.688 56.518C249.048 56.518 249.381 56.608 249.687 56.788C249.993 56.968 250.239 57.229 250.425 57.571C250.617 57.913 250.713 58.33 250.713 58.822C250.713 59.302 250.617 59.713 250.425 60.055C250.239 60.397 249.993 60.658 249.687 60.838C249.381 61.018 249.048 61.108 248.688 61.108ZM248.688 60.496C249.066 60.496 249.369 60.343 249.597 60.037C249.831 59.725 249.948 59.32 249.948 58.822C249.948 58.318 249.831 57.91 249.597 57.598C249.369 57.286 249.066 57.13 248.688 57.13C248.316 57.13 248.013 57.286 247.779 57.598C247.545 57.91 247.428 58.318 247.428 58.822C247.428 59.32 247.545 59.725 247.779 60.037C248.013 60.343 248.316 60.496 248.688 60.496ZM251.864 61V56.626H252.476L252.539 57.256H252.566C252.776 57.046 252.998 56.872 253.232 56.734C253.466 56.59 253.733 56.518 254.033 56.518C254.495 56.518 254.831 56.665 255.041 56.959C255.257 57.247 255.365 57.67 255.365 58.228V61H254.627V58.327C254.627 57.919 254.561 57.622 254.429 57.436C254.297 57.25 254.087 57.157 253.799 57.157C253.577 57.157 253.376 57.214 253.196 57.328C253.022 57.442 252.824 57.61 252.602 57.832V61H251.864ZM257.929 61.108C257.617 61.108 257.32 61.051 257.038 60.937C256.756 60.817 256.51 60.673 256.3 60.505L256.669 60.01C256.861 60.16 257.059 60.286 257.263 60.388C257.467 60.484 257.698 60.532 257.956 60.532C258.244 60.532 258.46 60.466 258.604 60.334C258.748 60.196 258.82 60.034 258.82 59.848C258.82 59.698 258.769 59.572 258.667 59.47C258.571 59.368 258.445 59.284 258.289 59.218C258.139 59.146 257.983 59.08 257.821 59.02C257.617 58.942 257.416 58.855 257.218 58.759C257.02 58.657 256.858 58.528 256.732 58.372C256.606 58.21 256.543 58.006 256.543 57.76C256.543 57.406 256.675 57.112 256.939 56.878C257.209 56.638 257.581 56.518 258.055 56.518C258.325 56.518 258.577 56.566 258.811 56.662C259.045 56.758 259.246 56.875 259.414 57.013L259.054 57.481C258.904 57.367 258.748 57.274 258.586 57.202C258.424 57.13 258.247 57.094 258.055 57.094C257.779 57.094 257.575 57.157 257.443 57.283C257.317 57.409 257.254 57.556 257.254 57.724C257.254 57.862 257.299 57.976 257.389 58.066C257.479 58.15 257.596 58.225 257.74 58.291C257.884 58.351 258.037 58.414 258.199 58.48C258.409 58.558 258.616 58.648 258.82 58.75C259.024 58.846 259.192 58.978 259.324 59.146C259.462 59.308 259.531 59.527 259.531 59.803C259.531 60.037 259.468 60.253 259.342 60.451C259.222 60.649 259.042 60.808 258.802 60.928C258.568 61.048 258.277 61.108 257.929 61.108ZM260.944 61.108C260.794 61.108 260.665 61.057 260.557 60.955C260.455 60.847 260.404 60.712 260.404 60.55C260.404 60.376 260.455 60.238 260.557 60.136C260.665 60.028 260.794 59.974 260.944 59.974C261.088 59.974 261.211 60.028 261.313 60.136C261.421 60.238 261.475 60.376 261.475 60.55C261.475 60.712 261.421 60.847 261.313 60.955C261.211 61.057 261.088 61.108 260.944 61.108Z" fill="white"/>
<path d="M46.9333 20.7333C47.1066 20.7333 47.2788 20.7389 47.45 20.75C47.2313 21.8866 47.3131 23.0605 47.6873 24.1558C48.0615 25.2511 48.715 26.2297 49.5833 26.995C49.4622 27.6683 49.4011 28.3589 49.4 29.0667C49.396 31.7129 50.2956 34.2813 51.95 36.3467C50.4133 36.9501 48.7457 37.1419 47.1121 36.9031C45.4785 36.6643 43.9356 36.0032 42.6359 34.9852C41.3362 33.9672 40.3248 32.6275 39.7017 31.0987C39.0787 29.5698 38.8655 27.9048 39.0833 26.2683C39.6608 24.6485 40.7252 23.247 42.1306 22.2561C43.536 21.2651 45.2136 20.7332 46.9333 20.7333ZM68.3466 24.05C68.95 25.5867 69.1419 27.2543 68.9031 28.8879C68.6643 30.5214 68.0032 32.0644 66.9852 33.364C65.9671 34.6637 64.6274 35.6751 63.0986 36.2982C61.5698 36.9213 59.9048 37.1345 58.2683 36.9167C56.5651 36.3097 55.1055 35.1653 54.1097 33.656C53.114 32.1468 52.6361 30.3546 52.7483 28.55C53.8849 28.7686 55.0588 28.6868 56.1541 28.3127C57.2494 27.9385 58.228 27.285 58.9933 26.4167C59.6677 26.5378 60.3588 26.5989 61.0666 26.6C63.7129 26.604 66.2812 25.7044 68.3466 24.05ZM54 18.6667C54.884 18.6667 55.7319 19.0179 56.357 19.643C56.9821 20.2681 57.3333 21.1159 57.3333 22C57.3333 22.8841 56.9821 23.7319 56.357 24.357C55.7319 24.9821 54.884 25.3333 54 25.3333C53.1159 25.3333 52.2681 24.9821 51.6429 24.357C51.0178 23.7319 50.6666 22.8841 50.6666 22C50.6666 21.1159 51.0178 20.2681 51.6429 19.643C52.2681 19.0179 53.1159 18.6667 54 18.6667ZM59.5166 7C60.8677 6.99985 62.2031 7.28837 63.4336 7.84624C64.6641 8.40412 65.7611 9.21847 66.6513 10.2348C67.5415 11.251 68.2043 12.4458 68.5953 13.739C68.9862 15.0323 69.0964 16.3941 68.9183 17.7333C68.3107 19.4362 67.1658 20.8953 65.6562 21.8904C64.1467 22.8856 62.3545 23.3627 60.55 23.25C60.7686 22.1134 60.6868 20.9395 60.3126 19.8442C59.9385 18.7489 59.2849 17.7703 58.4166 17.005C58.5377 16.3317 58.5988 15.6411 58.6 14.9333C58.604 12.2871 57.7043 9.71872 56.05 7.65333C57.1546 7.22104 58.3304 6.99944 59.5166 7ZM48.4833 7C48.9066 7 49.3233 7.02722 49.7333 7.08167C51.4362 7.68926 52.8952 8.8342 53.8904 10.3437C54.8855 11.8533 55.3627 13.6455 55.25 15.45C54.1134 15.2314 52.9394 15.3132 51.8442 15.6873C50.7489 16.0615 49.7702 16.715 49.005 17.5833C48.3212 17.4607 47.6279 17.3993 46.9333 17.4C44.287 17.396 41.7187 18.2956 39.6533 19.95C39.0885 18.512 38.8836 16.9577 39.0565 15.4224C39.2293 13.8871 39.7746 12.4173 40.645 11.1408C41.5154 9.86435 42.6845 8.81985 44.0505 8.09817C45.4166 7.3765 46.9383 6.99951 48.4833 7Z" fill="#939DFF"/>
<path d="M203.376 43.096C203.195 43.096 203.005 43.0533 202.808 42.968C202.616 42.8773 202.435 42.7547 202.264 42.6H202.24L202.184 43H201.656V37.304H202.312V38.856L202.296 39.56C202.472 39.4053 202.664 39.2773 202.872 39.176C203.085 39.0693 203.299 39.016 203.512 39.016C204.019 39.016 204.403 39.1947 204.664 39.552C204.925 39.9093 205.056 40.3893 205.056 40.992C205.056 41.4347 204.976 41.8133 204.816 42.128C204.661 42.4427 204.456 42.6827 204.2 42.848C203.949 43.0133 203.675 43.096 203.376 43.096ZM203.264 42.544C203.584 42.544 203.848 42.408 204.056 42.136C204.269 41.8587 204.376 41.48 204.376 41C204.376 40.5733 204.296 40.2293 204.136 39.968C203.981 39.7013 203.72 39.568 203.352 39.568C203.187 39.568 203.019 39.6133 202.848 39.704C202.677 39.7947 202.499 39.9253 202.312 40.096V42.136C202.483 42.2853 202.651 42.392 202.816 42.456C202.987 42.5147 203.136 42.544 203.264 42.544ZM206.111 44.672C206.025 44.672 205.943 44.664 205.863 44.648C205.788 44.632 205.719 44.6133 205.655 44.592L205.783 44.072C205.825 44.0827 205.873 44.0933 205.927 44.104C205.98 44.12 206.031 44.128 206.079 44.128C206.297 44.128 206.479 44.048 206.623 43.888C206.767 43.7333 206.879 43.536 206.959 43.296L207.047 43.008L205.487 39.112H206.167L206.959 41.264C207.017 41.4293 207.079 41.608 207.143 41.8C207.212 41.992 207.276 42.1787 207.335 42.36H207.367C207.425 42.184 207.481 42 207.535 41.808C207.588 41.616 207.641 41.4347 207.695 41.264L208.391 39.112H209.031L207.567 43.32C207.476 43.576 207.367 43.8053 207.239 44.008C207.116 44.2107 206.961 44.3707 206.775 44.488C206.593 44.6107 206.372 44.672 206.111 44.672ZM212.351 40.064L212.103 40.864H213.679L213.431 40.064C213.335 39.7707 213.244 39.48 213.159 39.192C213.073 38.8987 212.988 38.6 212.903 38.296H212.871C212.791 38.6 212.708 38.8987 212.623 39.192C212.537 39.48 212.447 39.7707 212.351 40.064ZM210.751 43L212.527 37.752H213.279L215.055 43H214.343L213.847 41.4H211.935L211.431 43H210.751ZM215.734 43V39.112H216.278L216.334 39.672H216.358C216.545 39.4853 216.742 39.3307 216.95 39.208C217.158 39.08 217.395 39.016 217.662 39.016C218.073 39.016 218.371 39.1467 218.558 39.408C218.75 39.664 218.846 40.04 218.846 40.536V43H218.19V40.624C218.19 40.2613 218.131 39.9973 218.014 39.832C217.897 39.6667 217.71 39.584 217.454 39.584C217.257 39.584 217.078 39.6347 216.918 39.736C216.763 39.8373 216.587 39.9867 216.39 40.184V43H215.734ZM221.437 43.096C220.952 43.096 220.562 42.92 220.269 42.568C219.976 42.2107 219.829 41.7093 219.829 41.064C219.829 40.6427 219.906 40.28 220.061 39.976C220.221 39.6667 220.429 39.4293 220.685 39.264C220.946 39.0987 221.224 39.016 221.517 39.016C221.741 39.016 221.936 39.056 222.101 39.136C222.266 39.216 222.434 39.3253 222.605 39.464L222.573 38.8V37.304H223.237V43H222.693L222.637 42.544H222.613C222.464 42.6933 222.288 42.824 222.085 42.936C221.882 43.0427 221.666 43.096 221.437 43.096ZM221.581 42.544C221.922 42.544 222.253 42.3653 222.573 42.008V39.976C222.408 39.8267 222.248 39.7227 222.093 39.664C221.944 39.6 221.789 39.568 221.629 39.568C221.421 39.568 221.232 39.632 221.061 39.76C220.896 39.8827 220.762 40.056 220.661 40.28C220.56 40.4987 220.509 40.7573 220.509 41.056C220.509 41.52 220.602 41.8853 220.789 42.152C220.976 42.4133 221.24 42.544 221.581 42.544ZM224.547 43V39.112H225.091L225.147 39.816H225.171C225.304 39.5707 225.467 39.376 225.659 39.232C225.851 39.088 226.056 39.016 226.275 39.016C226.429 39.016 226.568 39.0427 226.691 39.096L226.563 39.672C226.499 39.6507 226.44 39.6347 226.387 39.624C226.333 39.6133 226.267 39.608 226.187 39.608C226.021 39.608 225.848 39.6747 225.667 39.808C225.491 39.9413 225.336 40.1733 225.203 40.504V43H224.547ZM228.818 43.096C228.471 43.096 228.157 43.016 227.874 42.856C227.591 42.6907 227.367 42.456 227.202 42.152C227.037 41.848 226.954 41.4853 226.954 41.064C226.954 40.6373 227.037 40.272 227.202 39.968C227.373 39.664 227.591 39.4293 227.858 39.264C228.125 39.0987 228.405 39.016 228.698 39.016C229.194 39.016 229.575 39.1813 229.842 39.512C230.114 39.8427 230.25 40.2853 230.25 40.84C230.25 40.9093 230.247 40.9787 230.242 41.048C230.242 41.112 230.237 41.168 230.226 41.216H227.602C227.629 41.6267 227.757 41.9547 227.986 42.2C228.221 42.4453 228.525 42.568 228.898 42.568C229.085 42.568 229.255 42.5413 229.41 42.488C229.57 42.4293 229.722 42.3547 229.866 42.264L230.098 42.696C229.933 42.8027 229.743 42.896 229.53 42.976C229.322 43.056 229.085 43.096 228.818 43.096ZM227.594 40.744H229.674C229.674 40.3493 229.589 40.0507 229.418 39.848C229.253 39.64 229.018 39.536 228.714 39.536C228.442 39.536 228.197 39.6427 227.978 39.856C227.765 40.064 227.637 40.36 227.594 40.744ZM228.586 38.416L228.25 38.088L229.378 36.752L229.842 37.192L228.586 38.416ZM232.227 43.096C231.949 43.096 231.685 43.0453 231.435 42.944C231.184 42.8373 230.965 42.7093 230.779 42.56L231.107 42.12C231.277 42.2533 231.453 42.3653 231.635 42.456C231.816 42.5413 232.021 42.584 232.251 42.584C232.507 42.584 232.699 42.5253 232.827 42.408C232.955 42.2853 233.019 42.1413 233.019 41.976C233.019 41.8427 232.973 41.7307 232.883 41.64C232.797 41.5493 232.685 41.4747 232.547 41.416C232.413 41.352 232.275 41.2933 232.131 41.24C231.949 41.1707 231.771 41.0933 231.595 41.008C231.419 40.9173 231.275 40.8027 231.163 40.664C231.051 40.52 230.995 40.3387 230.995 40.12C230.995 39.8053 231.112 39.544 231.347 39.336C231.587 39.1227 231.917 39.016 232.339 39.016C232.579 39.016 232.803 39.0587 233.011 39.144C233.219 39.2293 233.397 39.3333 233.547 39.456L233.227 39.872C233.093 39.7707 232.955 39.688 232.811 39.624C232.667 39.56 232.509 39.528 232.339 39.528C232.093 39.528 231.912 39.584 231.795 39.696C231.683 39.808 231.627 39.9387 231.627 40.088C231.627 40.2107 231.667 40.312 231.747 40.392C231.827 40.4667 231.931 40.5333 232.059 40.592C232.187 40.6453 232.323 40.7013 232.467 40.76C232.653 40.8293 232.837 40.9093 233.019 41C233.2 41.0853 233.349 41.2027 233.467 41.352C233.589 41.496 233.651 41.6907 233.651 41.936C233.651 42.144 233.595 42.336 233.483 42.512C233.376 42.688 233.216 42.8293 233.003 42.936C232.795 43.0427 232.536 43.096 232.227 43.096ZM236.228 43V37.752H236.892V39.952H239.332V37.752H240.004V43H239.332V40.528H236.892V43H236.228ZM242.959 43.096C242.612 43.096 242.297 43.016 242.015 42.856C241.732 42.6907 241.508 42.456 241.343 42.152C241.177 41.848 241.095 41.4853 241.095 41.064C241.095 40.6373 241.177 40.272 241.343 39.968C241.513 39.664 241.732 39.4293 241.999 39.264C242.265 39.0987 242.545 39.016 242.839 39.016C243.335 39.016 243.716 39.1813 243.983 39.512C244.255 39.8427 244.391 40.2853 244.391 40.84C244.391 40.9093 244.388 40.9787 244.383 41.048C244.383 41.112 244.377 41.168 244.367 41.216H241.743C241.769 41.6267 241.897 41.9547 242.127 42.2C242.361 42.4453 242.665 42.568 243.039 42.568C243.225 42.568 243.396 42.5413 243.551 42.488C243.711 42.4293 243.863 42.3547 244.007 42.264L244.239 42.696C244.073 42.8027 243.884 42.896 243.671 42.976C243.463 43.056 243.225 43.096 242.959 43.096ZM241.735 40.744H243.815C243.815 40.3493 243.729 40.0507 243.559 39.848C243.393 39.64 243.159 39.536 242.855 39.536C242.583 39.536 242.337 39.6427 242.119 39.856C241.905 40.064 241.777 40.36 241.735 40.744ZM245.351 43V39.112H245.895L245.951 39.816H245.975C246.109 39.5707 246.271 39.376 246.463 39.232C246.655 39.088 246.861 39.016 247.079 39.016C247.234 39.016 247.373 39.0427 247.495 39.096L247.367 39.672C247.303 39.6507 247.245 39.6347 247.191 39.624C247.138 39.6133 247.071 39.608 246.991 39.608C246.826 39.608 246.653 39.6747 246.471 39.808C246.295 39.9413 246.141 40.1733 246.007 40.504V43H245.351ZM249.623 43.096C249.276 43.096 248.961 43.016 248.679 42.856C248.396 42.6907 248.172 42.456 248.007 42.152C247.841 41.848 247.759 41.4853 247.759 41.064C247.759 40.6373 247.841 40.272 248.007 39.968C248.177 39.664 248.396 39.4293 248.663 39.264C248.929 39.0987 249.209 39.016 249.503 39.016C249.999 39.016 250.38 39.1813 250.647 39.512C250.919 39.8427 251.055 40.2853 251.055 40.84C251.055 40.9093 251.052 40.9787 251.047 41.048C251.047 41.112 251.041 41.168 251.031 41.216H248.407C248.433 41.6267 248.561 41.9547 248.791 42.2C249.025 42.4453 249.329 42.568 249.703 42.568C249.889 42.568 250.06 42.5413 250.215 42.488C250.375 42.4293 250.527 42.3547 250.671 42.264L250.903 42.696C250.737 42.8027 250.548 42.896 250.335 42.976C250.127 43.056 249.889 43.096 249.623 43.096ZM248.399 40.744H250.479C250.479 40.3493 250.393 40.0507 250.223 39.848C250.057 39.64 249.823 39.536 249.519 39.536C249.247 39.536 249.001 39.6427 248.783 39.856C248.569 40.064 248.441 40.36 248.399 40.744ZM252.015 43V39.112H252.559L252.615 39.672H252.639C252.826 39.4853 253.023 39.3307 253.231 39.208C253.439 39.08 253.677 39.016 253.943 39.016C254.354 39.016 254.653 39.1467 254.839 39.408C255.031 39.664 255.127 40.04 255.127 40.536V43H254.471V40.624C254.471 40.2613 254.413 39.9973 254.295 39.832C254.178 39.6667 253.991 39.584 253.735 39.584C253.538 39.584 253.359 39.6347 253.199 39.736C253.045 39.8373 252.869 39.9867 252.671 40.184V43H252.015ZM257.926 43.096C257.585 43.096 257.276 43.016 256.998 42.856C256.721 42.696 256.502 42.464 256.342 42.16C256.182 41.856 256.102 41.4907 256.102 41.064C256.102 40.6267 256.188 40.256 256.358 39.952C256.534 39.648 256.764 39.416 257.046 39.256C257.334 39.096 257.644 39.016 257.974 39.016C258.23 39.016 258.449 39.0613 258.63 39.152C258.817 39.2427 258.977 39.3493 259.11 39.472L258.774 39.904C258.662 39.8027 258.542 39.72 258.414 39.656C258.292 39.592 258.153 39.56 257.998 39.56C257.764 39.56 257.553 39.624 257.366 39.752C257.185 39.8747 257.041 40.0507 256.934 40.28C256.833 40.504 256.782 40.7653 256.782 41.064C256.782 41.5067 256.892 41.8667 257.11 42.144C257.334 42.416 257.625 42.552 257.982 42.552C258.164 42.552 258.332 42.5147 258.486 42.44C258.641 42.36 258.777 42.2667 258.894 42.16L259.182 42.6C259.006 42.7547 258.812 42.8773 258.598 42.968C258.385 43.0533 258.161 43.096 257.926 43.096ZM260.039 43V39.112H260.695V43H260.039ZM260.375 38.312C260.247 38.312 260.14 38.2747 260.055 38.2C259.975 38.12 259.935 38.0133 259.935 37.88C259.935 37.752 259.975 37.648 260.055 37.568C260.14 37.488 260.247 37.448 260.375 37.448C260.503 37.448 260.607 37.488 260.687 37.568C260.772 37.648 260.815 37.752 260.815 37.88C260.815 38.0133 260.772 38.12 260.687 38.2C260.607 38.2747 260.503 38.312 260.375 38.312ZM262.904 43.096C262.578 43.096 262.306 43 262.088 42.808C261.874 42.6107 261.768 42.3387 261.768 41.992C261.768 41.5653 261.957 41.24 262.336 41.016C262.72 40.7867 263.325 40.6267 264.152 40.536C264.152 40.3707 264.128 40.2133 264.08 40.064C264.037 39.9147 263.957 39.7947 263.84 39.704C263.728 39.608 263.565 39.56 263.352 39.56C263.128 39.56 262.917 39.6027 262.72 39.688C262.522 39.7733 262.346 39.8693 262.192 39.976L261.936 39.52C262.117 39.4027 262.338 39.2907 262.6 39.184C262.866 39.072 263.154 39.016 263.464 39.016C263.938 39.016 264.282 39.1627 264.496 39.456C264.709 39.744 264.816 40.1307 264.816 40.616V43H264.272L264.216 42.536H264.192C264.01 42.6853 263.81 42.816 263.592 42.928C263.378 43.04 263.149 43.096 262.904 43.096ZM263.096 42.568C263.282 42.568 263.458 42.5227 263.624 42.432C263.789 42.3413 263.965 42.2133 264.152 42.048V40.968C263.506 41.048 263.053 41.168 262.792 41.328C262.536 41.488 262.408 41.6933 262.408 41.944C262.408 42.1627 262.474 42.3227 262.608 42.424C262.741 42.52 262.904 42.568 263.096 42.568Z" fill="white"/>
</svg>
