<svg width="340" height="120" viewBox="0 0 340 120" fill="none" xmlns="http://www.w3.org/2000/svg">
<rect x="20" y="20" width="80" height="80" fill="white"/>
<path d="M41.1595 56.6188C41.6216 56.6188 42.0808 56.6336 42.537 56.6632C41.9541 59.6938 42.1722 62.824 43.1698 65.7445C44.1673 68.6649 45.9097 71.2744 48.2247 73.315C47.9018 75.1103 47.7389 76.9517 47.736 78.8389C47.7253 85.895 50.1238 92.7432 54.5346 98.2504C50.4376 99.8594 45.9915 100.371 41.6362 99.7341C37.2808 99.0974 33.1672 97.3346 29.702 94.6201C26.2369 91.9057 23.5403 88.3335 21.8791 84.257C20.2178 80.1805 19.6495 75.7409 20.2302 71.3774C21.7698 67.0583 24.6077 63.3213 28.3548 60.679C32.1019 58.0367 36.5746 56.6185 41.1595 56.6188ZM98.2505 65.4624C99.8594 69.5598 100.371 74.0064 99.7341 78.3621C99.0975 82.7179 97.3349 86.832 94.6207 90.2975C91.9065 93.763 88.3347 96.4598 84.2586 98.1212C80.1825 99.7826 75.7434 100.351 71.3802 99.7702C66.8392 98.1519 62.9477 95.1003 60.2929 91.0761C57.6381 87.0518 56.3641 82.2732 56.6631 77.4612C59.6934 78.0442 62.8233 77.826 65.7435 76.8284C68.6636 75.8307 71.2728 74.0881 73.3132 71.7729C75.1114 72.0958 76.954 72.2588 78.841 72.2617C85.8964 72.2724 92.7439 69.8736 98.2505 65.4624ZM60.0002 51.1082C62.3572 51.1082 64.6177 52.0446 66.2844 53.7114C67.9511 55.3783 68.8874 57.639 68.8874 59.9962C68.8874 62.3535 67.9511 64.6142 66.2844 66.281C64.6177 67.9478 62.3572 68.8843 60.0002 68.8843C57.6432 68.8843 55.3827 67.9478 53.7161 66.281C52.0494 64.6142 51.1131 62.3535 51.1131 59.9962C51.1131 57.639 52.0494 55.3783 53.7161 53.7114C55.3827 52.0446 57.6432 51.1082 60.0002 51.1082ZM74.7085 20C78.3105 19.9996 81.8711 20.7689 85.1517 22.2564C88.4323 23.744 91.3573 25.9154 93.7307 28.6252C96.1041 31.335 97.8711 34.5208 98.9135 37.969C99.9559 41.4173 100.249 45.0485 99.7747 48.6195C98.1548 53.1601 95.1022 57.0506 91.0776 59.704C87.0529 62.3575 82.2746 63.6299 77.4635 63.3292C78.0464 60.2987 77.8282 57.1684 76.8307 54.248C75.8332 51.3275 74.0907 48.718 71.7757 46.6775C72.0986 44.8821 72.2615 43.0408 72.2645 41.1536C72.2752 34.0975 69.8766 27.2492 65.4658 21.7421C68.4109 20.5894 71.5459 19.9985 74.7085 20ZM45.292 20C46.4207 20 47.5315 20.0726 48.6247 20.2178C53.1648 21.8379 57.0549 24.8907 59.7081 28.9158C62.3612 32.9408 63.6335 37.7196 63.3329 42.5312C60.3026 41.9483 57.1727 42.1664 54.2525 43.1641C51.3324 44.1617 48.7232 45.9043 46.6828 48.2196C44.8599 47.8925 43.0115 47.7289 41.1595 47.7307C34.1041 47.72 27.2565 50.1188 21.7499 54.5301C20.2441 50.6956 19.6979 46.5513 20.1587 42.4576C20.6195 38.3639 22.0735 34.4448 24.394 31.0412C26.7146 27.6375 29.8315 24.8525 33.4736 22.9282C37.1158 21.0039 41.1728 19.9987 45.292 20Z" fill="#00074D"/>
<rect x="200" y="20" width="80" height="80" fill="white"/>
<rect x="280" y="20" width="40" height="80" fill="white"/>
<rect x="120" y="20" width="80" height="80" fill="white"/>
<rect y="10" width="330" height="10" fill="white"/>
<rect y="100" width="330" height="10" fill="white"/>
<rect y="110" width="330" height="10" fill="white"/>
<rect width="330" height="10" fill="white"/>
<rect x="10" width="10" height="120" fill="white"/>
<rect x="320" width="10" height="120" fill="white"/>
<rect x="330" width="10" height="120" fill="white"/>
<rect x="100" width="10" height="120" fill="white"/>
<rect width="10" height="120" fill="white"/>
<rect x="110" width="10" height="120" fill="white"/>
<path d="M127.23 46L120.65 23.25H127.02L129.26 33.19C129.447 33.9833 129.622 34.7883 129.785 35.605C129.972 36.3983 130.158 37.1917 130.345 37.985C130.532 38.7783 130.73 39.5833 130.94 40.4H131.08C131.29 39.5833 131.477 38.7783 131.64 37.985C131.827 37.1917 132.013 36.3983 132.2 35.605C132.387 34.7883 132.573 33.9833 132.76 33.19L135.21 23.25H141.37L134.51 46H127.23ZM145.508 46.42C144.411 46.42 143.466 46.175 142.673 45.685C141.903 45.1717 141.308 44.5067 140.888 43.69C140.468 42.8733 140.258 41.9867 140.258 41.03C140.258 39.21 141.005 37.7867 142.498 36.76C143.991 35.71 146.418 35.01 149.778 34.66C149.731 34.24 149.615 33.9017 149.428 33.645C149.241 33.365 148.973 33.1667 148.623 33.05C148.273 32.91 147.841 32.84 147.328 32.84C146.698 32.84 146.033 32.9567 145.333 33.19C144.633 33.4 143.828 33.75 142.918 34.24L140.818 30.39C141.635 29.9 142.463 29.48 143.303 29.13C144.143 28.78 144.995 28.5233 145.858 28.36C146.721 28.1733 147.608 28.08 148.518 28.08C150.035 28.08 151.33 28.3717 152.403 28.955C153.5 29.515 154.34 30.4017 154.923 31.615C155.506 32.805 155.798 34.3567 155.798 36.27V46H150.898L150.478 44.32H150.338C149.638 44.95 148.891 45.4633 148.098 45.86C147.328 46.2333 146.465 46.42 145.508 46.42ZM147.608 41.8C148.098 41.8 148.506 41.695 148.833 41.485C149.16 41.2517 149.475 40.96 149.778 40.61V38.23C148.821 38.37 148.063 38.5567 147.503 38.79C146.966 39.0233 146.581 39.2917 146.348 39.595C146.115 39.8983 145.998 40.2133 145.998 40.54C145.998 40.9367 146.138 41.2517 146.418 41.485C146.698 41.695 147.095 41.8 147.608 41.8ZM159.023 46V28.5H163.923L164.343 30.6H164.483C165.183 29.9233 165.976 29.34 166.863 28.85C167.773 28.3367 168.823 28.08 170.013 28.08C171.949 28.08 173.338 28.7333 174.178 30.04C175.041 31.3233 175.473 33.05 175.473 35.22V46H169.453V35.99C169.453 34.87 169.313 34.1233 169.033 33.75C168.753 33.3767 168.309 33.19 167.703 33.19C167.143 33.19 166.676 33.3067 166.303 33.54C165.929 33.7733 165.509 34.1 165.043 34.52V46H159.023ZM178.694 46V28.5H184.714V46H178.694ZM181.704 26.33C180.724 26.33 179.93 26.0617 179.324 25.525C178.717 24.965 178.414 24.23 178.414 23.32C178.414 22.41 178.717 21.6867 179.324 21.15C179.93 20.59 180.724 20.31 181.704 20.31C182.684 20.31 183.477 20.59 184.084 21.15C184.69 21.6867 184.994 22.41 184.994 23.32C184.994 24.23 184.69 24.965 184.084 25.525C183.477 26.0617 182.684 26.33 181.704 26.33ZM193.467 46.42C192.113 46.42 191.04 46.1517 190.247 45.615C189.477 45.055 188.917 44.285 188.567 43.305C188.24 42.3017 188.077 41.1467 188.077 39.84V21.64H194.097V40.05C194.097 40.6333 194.202 41.0417 194.412 41.275C194.645 41.485 194.867 41.59 195.077 41.59C195.193 41.59 195.287 41.59 195.357 41.59C195.45 41.5667 195.567 41.5433 195.707 41.52L196.407 45.93C196.103 46.07 195.707 46.1867 195.217 46.28C194.727 46.3733 194.143 46.42 193.467 46.42ZM203.191 46.42C201.838 46.42 200.765 46.1517 199.971 45.615C199.201 45.055 198.641 44.285 198.291 43.305C197.965 42.3017 197.801 41.1467 197.801 39.84V21.64H203.821V40.05C203.821 40.6333 203.926 41.0417 204.136 41.275C204.37 41.485 204.591 41.59 204.801 41.59C204.918 41.59 205.011 41.59 205.081 41.59C205.175 41.5667 205.291 41.5433 205.431 41.52L206.131 45.93C205.828 46.07 205.431 46.1867 204.941 46.28C204.451 46.3733 203.868 46.42 203.191 46.42ZM212.076 46.42C210.98 46.42 210.035 46.175 209.241 45.685C208.471 45.1717 207.876 44.5067 207.456 43.69C207.036 42.8733 206.826 41.9867 206.826 41.03C206.826 39.21 207.573 37.7867 209.066 36.76C210.56 35.71 212.986 35.01 216.346 34.66C216.3 34.24 216.183 33.9017 215.996 33.645C215.81 33.365 215.541 33.1667 215.191 33.05C214.841 32.91 214.41 32.84 213.896 32.84C213.266 32.84 212.601 32.9567 211.901 33.19C211.201 33.4 210.396 33.75 209.486 34.24L207.386 30.39C208.203 29.9 209.031 29.48 209.871 29.13C210.711 28.78 211.563 28.5233 212.426 28.36C213.29 28.1733 214.176 28.08 215.086 28.08C216.603 28.08 217.898 28.3717 218.971 28.955C220.068 29.515 220.908 30.4017 221.491 31.615C222.075 32.805 222.366 34.3567 222.366 36.27V46H217.466L217.046 44.32H216.906C216.206 44.95 215.46 45.4633 214.666 45.86C213.896 46.2333 213.033 46.42 212.076 46.42ZM214.176 41.8C214.666 41.8 215.075 41.695 215.401 41.485C215.728 41.2517 216.043 40.96 216.346 40.61V38.23C215.39 38.37 214.631 38.5567 214.071 38.79C213.535 39.0233 213.15 39.2917 212.916 39.595C212.683 39.8983 212.566 40.2133 212.566 40.54C212.566 40.9367 212.706 41.2517 212.986 41.485C213.266 41.695 213.663 41.8 214.176 41.8ZM124.395 96V72.935H131.01C132.527 72.935 133.845 73.1333 134.965 73.53C136.108 73.9267 136.995 74.58 137.625 75.49C138.255 76.3767 138.57 77.555 138.57 79.025C138.57 80.425 138.255 81.6033 137.625 82.56C136.995 83.4933 136.108 84.205 134.965 84.695C133.845 85.1617 132.527 85.395 131.01 85.395H126.005V96H124.395ZM126.005 84.065H130.59C132.643 84.065 134.207 83.6567 135.28 82.84C136.377 82 136.925 80.7283 136.925 79.025C136.925 77.2983 136.377 76.085 135.28 75.385C134.207 74.6617 132.643 74.3 130.59 74.3H126.005V84.065ZM137.17 96L130.625 84.94L132.165 84.485L139.025 96H137.17ZM148.586 96.42C147.14 96.42 145.833 96.07 144.666 95.37C143.5 94.67 142.566 93.6667 141.866 92.36C141.166 91.03 140.816 89.455 140.816 87.635C140.816 85.7917 141.166 84.2167 141.866 82.91C142.566 81.58 143.465 80.565 144.561 79.865C145.681 79.1417 146.871 78.78 148.131 78.78C149.461 78.78 150.605 79.0833 151.561 79.69C152.541 80.2967 153.288 81.1833 153.801 82.35C154.315 83.4933 154.571 84.8933 154.571 86.55C154.571 86.7367 154.56 86.9467 154.536 87.18C154.536 87.39 154.513 87.6117 154.466 87.845H141.761V86.515H153.101C153.101 84.3683 152.658 82.77 151.771 81.72C150.885 80.6467 149.683 80.11 148.166 80.11C147.233 80.11 146.323 80.3783 145.436 80.915C144.55 81.4517 143.815 82.28 143.231 83.4C142.671 84.4967 142.391 85.885 142.391 87.565C142.391 89.105 142.671 90.4467 143.231 91.59C143.791 92.71 144.55 93.5733 145.506 94.18C146.463 94.7633 147.536 95.055 148.726 95.055C149.636 95.055 150.465 94.9383 151.211 94.705C151.981 94.4483 152.658 94.11 153.241 93.69L153.871 94.775C153.218 95.2183 152.483 95.6033 151.666 95.93C150.85 96.2567 149.823 96.42 148.586 96.42ZM161.598 96.42C160.711 96.42 159.894 96.2567 159.148 95.93C158.424 95.6033 157.841 95.1017 157.398 94.425C156.954 93.725 156.733 92.8617 156.733 91.835C156.733 89.945 157.608 88.5217 159.358 87.565C161.108 86.585 163.849 85.885 167.583 85.465C167.583 84.6017 167.478 83.7617 167.268 82.945C167.081 82.1283 166.696 81.4633 166.113 80.95C165.553 80.4133 164.713 80.145 163.593 80.145C162.473 80.145 161.446 80.3667 160.513 80.81C159.579 81.23 158.821 81.6383 158.238 82.035L157.538 80.95C157.934 80.6467 158.448 80.3317 159.078 80.005C159.708 79.655 160.419 79.3633 161.213 79.13C162.029 78.8967 162.893 78.78 163.803 78.78C165.109 78.78 166.148 79.0717 166.918 79.655C167.711 80.2383 168.271 81.02 168.598 82C168.948 82.98 169.123 84.065 169.123 85.255V96H167.793L167.653 93.83H167.548C166.708 94.5067 165.774 95.1133 164.748 95.65C163.744 96.1633 162.694 96.42 161.598 96.42ZM161.878 95.055C162.834 95.055 163.756 94.8333 164.643 94.39C165.553 93.9233 166.533 93.2467 167.583 92.36V86.69C165.273 86.9467 163.441 87.3083 162.088 87.775C160.734 88.2183 159.766 88.7667 159.183 89.42C158.599 90.0733 158.308 90.8433 158.308 91.73C158.308 92.92 158.658 93.7717 159.358 94.285C160.081 94.7983 160.921 95.055 161.878 95.055ZM179.98 96.42C177.88 96.42 176.188 95.6617 174.905 94.145C173.645 92.6283 173.015 90.4583 173.015 87.635C173.015 85.815 173.353 84.2517 174.03 82.945C174.73 81.615 175.64 80.5883 176.76 79.865C177.903 79.1417 179.14 78.78 180.47 78.78C181.497 78.78 182.395 78.955 183.165 79.305C183.935 79.655 184.728 80.1683 185.545 80.845L185.475 77.765V70.835H187.015V96H185.685L185.545 93.83H185.44C184.763 94.5067 183.958 95.1133 183.025 95.65C182.115 96.1633 181.1 96.42 179.98 96.42ZM180.19 95.055C181.123 95.055 182.01 94.8217 182.85 94.355C183.713 93.865 184.588 93.1767 185.475 92.29V82.315C184.588 81.5217 183.76 80.9617 182.99 80.635C182.22 80.3083 181.415 80.145 180.575 80.145C179.455 80.145 178.452 80.4717 177.565 81.125C176.678 81.7783 175.967 82.6767 175.43 83.82C174.917 84.94 174.66 86.2117 174.66 87.635C174.66 89.8517 175.138 91.6483 176.095 93.025C177.052 94.3783 178.417 95.055 180.19 95.055ZM199.123 96.42C197.676 96.42 196.37 96.07 195.203 95.37C194.036 94.67 193.103 93.6667 192.403 92.36C191.703 91.03 191.353 89.455 191.353 87.635C191.353 85.7917 191.703 84.2167 192.403 82.91C193.103 81.58 194.001 80.565 195.098 79.865C196.218 79.1417 197.408 78.78 198.668 78.78C199.998 78.78 201.141 79.0833 202.098 79.69C203.078 80.2967 203.825 81.1833 204.338 82.35C204.851 83.4933 205.108 84.8933 205.108 86.55C205.108 86.7367 205.096 86.9467 205.073 87.18C205.073 87.39 205.05 87.6117 205.003 87.845H192.298V86.515H203.638C203.638 84.3683 203.195 82.77 202.308 81.72C201.421 80.6467 200.22 80.11 198.703 80.11C197.77 80.11 196.86 80.3783 195.973 80.915C195.086 81.4517 194.351 82.28 193.768 83.4C193.208 84.4967 192.928 85.885 192.928 87.565C192.928 89.105 193.208 90.4467 193.768 91.59C194.328 92.71 195.086 93.5733 196.043 94.18C197 94.7633 198.073 95.055 199.263 95.055C200.173 95.055 201.001 94.9383 201.748 94.705C202.518 94.4483 203.195 94.11 203.778 93.69L204.408 94.775C203.755 95.2183 203.02 95.6033 202.203 95.93C201.386 96.2567 200.36 96.42 199.123 96.42ZM208.972 96V79.2H210.302L210.442 82.315H210.547C211.084 81.2883 211.749 80.4483 212.542 79.795C213.359 79.1183 214.28 78.78 215.307 78.78C215.61 78.78 215.89 78.8033 216.147 78.85C216.427 78.8967 216.707 78.99 216.987 79.13L216.567 80.46C216.334 80.39 216.112 80.3433 215.902 80.32C215.715 80.2733 215.447 80.25 215.097 80.25C214.35 80.25 213.557 80.5767 212.717 81.23C211.9 81.86 211.165 82.9683 210.512 84.555V96H208.972Z" fill="#00074D"/>
</svg>
