<svg width="32" height="32" viewBox="0 0 32 32" fill="none" xmlns="http://www.w3.org/2000/svg">
  <!-- Flask/beaker shape -->
  <path
    d="M10 4h12v6l6 16a2 2 0 01-2 2H6a2 2 0 01-2-2l6-16V4z"
    fill="#8b5cf6"
    opacity="0.2"
  />
  <path
    d="M10 4h12v6l6 16a2 2 0 01-2 2H6a2 2 0 01-2-2l6-16V4z"
    stroke="#8b5cf6"
    stroke-width="2"
    stroke-linecap="round"
    stroke-linejoin="round"
    fill="none"
  />
  <!-- Flask neck -->
  <path
    d="M12 2h8M12 2v2M20 2v2"
    stroke="#8b5cf6"
    stroke-width="2"
    stroke-linecap="round"
  />
  <!-- Bubbles/dots inside -->
  <circle cx="11" cy="22" r="2" fill="#8b5cf6" opacity="0.6" />
  <circle cx="16" cy="19" r="2.5" fill="#8b5cf6" opacity="0.9" />
  <circle cx="21" cy="23" r="1.5" fill="#8b5cf6" opacity="0.5" />
</svg>

