<?xml version="1.0" encoding="UTF-8" standalone="no"?>
<!DOCTYPE svg PUBLIC "-//W3C//DTD SVG 1.1//EN"
 "http://www.w3.org/Graphics/SVG/1.1/DTD/svg11.dtd">
<!-- Generated by graphviz version 14.0.2 (20251019.1705)
 -->
<!-- Title: G Pages: 1 -->
<svg width="1302pt" height="588pt"
 viewBox="0.00 0.00 1302.00 588.00" xmlns="http://www.w3.org/2000/svg" xmlns:xlink="http://www.w3.org/1999/xlink">
<g id="graph0" class="graph" transform="scale(1 1) rotate(0) translate(4 584.19)">
<title>G</title><style>.edge>path:hover{stroke-width:8}</style>
<polygon fill="white" stroke="none" points="-4,4 -4,-584.19 1297.89,-584.19 1297.89,4 -4,4"/>
<!-- typechecked -->
<g id="node1" class="node">
<title>typechecked</title><style>.edge>path:hover{stroke-width:8}</style>
<polygon fill="blue" stroke="black" points="235.96,-568.67 164.46,-568.67 164.46,-532.67 235.96,-532.67 235.96,-568.67"/>
<text xml:space="preserve" text-anchor="middle" x="200.21" y="-546.79" font-family="Helvetica,sans-Serif" font-size="10.00" fill="white">typechecked</text>
</g>
<!-- typechecked__immutable -->
<g id="node16" class="node">
<title>typechecked__immutable</title><style>.edge>path:hover{stroke-width:8}</style>
<ellipse fill="#f91010" stroke="black" cx="135.21" cy="-100.7" rx="52.68" ry="21.57"/>
<text xml:space="preserve" text-anchor="middle" x="135.21" y="-102.45" font-family="Helvetica,sans-Serif" font-size="10.00" fill="#ffffff">typechecked.</text>
<text xml:space="preserve" text-anchor="middle" x="135.21" y="-91.2" font-family="Helvetica,sans-Serif" font-size="10.00" fill="#ffffff">_immutable</text>
</g>
<!-- typechecked&#45;&gt;typechecked__immutable -->
<g id="edge25" class="edge">
<title>typechecked&#45;&gt;typechecked__immutable</title><style>.edge>path:hover{stroke-width:8}</style>
<path fill="none" stroke="black" d="M179.29,-532.37C135.82,-494.76 37.39,-400.44 8.21,-295.06 1.21,-269.77 -5.56,-258.36 8.21,-236.02 37.18,-189 130.3,-234.25 119.21,-180.14"/>
<path fill="none" stroke="black" d="M119.21,-178.14C116.03,-163.33 118.67,-146.89 122.66,-133.06"/>
<polygon fill="blue" stroke="black" points="125.97,-134.18 125.76,-123.59 119.32,-132.01 125.97,-134.18"/>
</g>
<!-- typechecked__typechecked -->
<g id="node17" class="node">
<title>typechecked__typechecked</title><style>.edge>path:hover{stroke-width:8}</style>
<polygon fill="blue" stroke="black" points="343.59,-473.63 266.84,-473.63 266.84,-437.63 343.59,-437.63 343.59,-473.63"/>
<text xml:space="preserve" text-anchor="middle" x="305.21" y="-457.38" font-family="Helvetica,sans-Serif" font-size="10.00" fill="white">typechecked.</text>
<text xml:space="preserve" text-anchor="middle" x="305.21" y="-446.13" font-family="Helvetica,sans-Serif" font-size="10.00" fill="white">_typechecked</text>
</g>
<!-- typechecked&#45;&gt;typechecked__typechecked -->
<g id="edge31" class="edge">
<title>typechecked&#45;&gt;typechecked__typechecked</title><style>.edge>path:hover{stroke-width:8}</style>
<path fill="none" stroke="black" d="M219.47,-532.6C235.65,-518.27 258.98,-497.59 277.23,-481.42"/>
<polygon fill="blue" stroke="black" points="279.42,-484.15 284.59,-474.9 274.78,-478.91 279.42,-484.15"/>
</g>
<!-- typechecked__cache -->
<g id="node2" class="node">
<title>typechecked__cache</title><style>.edge>path:hover{stroke-width:8}</style>
<ellipse fill="#f91010" stroke="black" cx="288.21" cy="-21.57" rx="52.68" ry="21.57"/>
<text xml:space="preserve" text-anchor="middle" x="288.21" y="-23.32" font-family="Helvetica,sans-Serif" font-size="10.00" fill="#ffffff">typechecked.</text>
<text xml:space="preserve" text-anchor="middle" x="288.21" y="-12.07" font-family="Helvetica,sans-Serif" font-size="10.00" fill="#ffffff">_cache</text>
</g>
<!-- typechecked__collections_abc -->
<g id="node3" class="node">
<title>typechecked__collections_abc</title><style>.edge>path:hover{stroke-width:8}</style>
<polygon fill="blue" stroke="black" points="749.59,-283.54 660.84,-283.54 660.84,-247.54 749.59,-247.54 749.59,-283.54"/>
<text xml:space="preserve" text-anchor="middle" x="705.21" y="-267.29" font-family="Helvetica,sans-Serif" font-size="10.00" fill="white">typechecked.</text>
<text xml:space="preserve" text-anchor="middle" x="705.21" y="-256.04" font-family="Helvetica,sans-Serif" font-size="10.00" fill="white">_collections_abc</text>
</g>
<!-- typechecked__collections_abc__callable -->
<g id="node4" class="node">
<title>typechecked__collections_abc__callable</title><style>.edge>path:hover{stroke-width:8}</style>
<polygon fill="blue" stroke="black" points="1009.09,-200.02 917.34,-200.02 917.34,-158.27 1009.09,-158.27 1009.09,-200.02"/>
<text xml:space="preserve" text-anchor="middle" x="963.21" y="-186.52" font-family="Helvetica,sans-Serif" font-size="10.00" fill="white">typechecked.</text>
<text xml:space="preserve" text-anchor="middle" x="963.21" y="-175.27" font-family="Helvetica,sans-Serif" font-size="10.00" fill="white">_collections_abc.</text>
<text xml:space="preserve" text-anchor="middle" x="963.21" y="-164.02" font-family="Helvetica,sans-Serif" font-size="10.00" fill="white">_callable</text>
</g>
<!-- typechecked__collections_abc&#45;&gt;typechecked__collections_abc__callable -->
<g id="edge11" class="edge">
<title>typechecked__collections_abc&#45;&gt;typechecked__collections_abc__callable</title><style>.edge>path:hover{stroke-width:8}</style>
<path fill="none" stroke="black" d="M749.73,-250.94C788.63,-238.93 846.87,-220.66 906.32,-200.6"/>
<polygon fill="blue" stroke="black" points="907.26,-203.98 915.61,-197.46 905.02,-197.35 907.26,-203.98"/>
</g>
<!-- typechecked__collections_abc__collection -->
<g id="node5" class="node">
<title>typechecked__collections_abc__collection</title><style>.edge>path:hover{stroke-width:8}</style>
<polygon fill="blue" stroke="black" points="421.09,-200.02 329.34,-200.02 329.34,-158.27 421.09,-158.27 421.09,-200.02"/>
<text xml:space="preserve" text-anchor="middle" x="375.21" y="-186.52" font-family="Helvetica,sans-Serif" font-size="10.00" fill="white">typechecked.</text>
<text xml:space="preserve" text-anchor="middle" x="375.21" y="-175.27" font-family="Helvetica,sans-Serif" font-size="10.00" fill="white">_collections_abc.</text>
<text xml:space="preserve" text-anchor="middle" x="375.21" y="-164.02" font-family="Helvetica,sans-Serif" font-size="10.00" fill="white">_collection</text>
</g>
<!-- typechecked__collections_abc&#45;&gt;typechecked__collections_abc__collection -->
<g id="edge12" class="edge">
<title>typechecked__collections_abc&#45;&gt;typechecked__collections_abc__collection</title><style>.edge>path:hover{stroke-width:8}</style>
<path fill="none" stroke="black" d="M673.63,-247.17C665.23,-243.07 656.03,-239.02 647.21,-236.02 570.38,-209.89 547.67,-216.5 468.21,-200.02 456.69,-197.63 444.39,-195.03 432.62,-192.52"/>
<polygon fill="blue" stroke="black" points="433.54,-189.14 423.03,-190.48 432.07,-195.99 433.54,-189.14"/>
</g>
<!-- typechecked__collections_abc__iterable -->
<g id="node6" class="node">
<title>typechecked__collections_abc__iterable</title><style>.edge>path:hover{stroke-width:8}</style>
<polygon fill="blue" stroke="black" points="569.09,-200.02 477.34,-200.02 477.34,-158.27 569.09,-158.27 569.09,-200.02"/>
<text xml:space="preserve" text-anchor="middle" x="523.21" y="-186.52" font-family="Helvetica,sans-Serif" font-size="10.00" fill="white">typechecked.</text>
<text xml:space="preserve" text-anchor="middle" x="523.21" y="-175.27" font-family="Helvetica,sans-Serif" font-size="10.00" fill="white">_collections_abc.</text>
<text xml:space="preserve" text-anchor="middle" x="523.21" y="-164.02" font-family="Helvetica,sans-Serif" font-size="10.00" fill="white">_iterable</text>
</g>
<!-- typechecked__collections_abc&#45;&gt;typechecked__collections_abc__iterable -->
<g id="edge13" class="edge">
<title>typechecked__collections_abc&#45;&gt;typechecked__collections_abc__iterable</title><style>.edge>path:hover{stroke-width:8}</style>
<path fill="none" stroke="black" d="M670.34,-247.15C662.74,-243.43 654.72,-239.56 647.21,-236.02 625.28,-225.69 601,-214.66 579.78,-205.15"/>
<polygon fill="blue" stroke="black" points="581.25,-201.97 570.69,-201.09 578.4,-208.37 581.25,-201.97"/>
</g>
<!-- typechecked__collections_abc__mapping -->
<g id="node7" class="node">
<title>typechecked__collections_abc__mapping</title><style>.edge>path:hover{stroke-width:8}</style>
<polygon fill="blue" stroke="black" points="679.09,-200.02 587.34,-200.02 587.34,-158.27 679.09,-158.27 679.09,-200.02"/>
<text xml:space="preserve" text-anchor="middle" x="633.21" y="-186.52" font-family="Helvetica,sans-Serif" font-size="10.00" fill="white">typechecked.</text>
<text xml:space="preserve" text-anchor="middle" x="633.21" y="-175.27" font-family="Helvetica,sans-Serif" font-size="10.00" fill="white">_collections_abc.</text>
<text xml:space="preserve" text-anchor="middle" x="633.21" y="-164.02" font-family="Helvetica,sans-Serif" font-size="10.00" fill="white">_mapping</text>
</g>
<!-- typechecked__collections_abc&#45;&gt;typechecked__collections_abc__mapping -->
<g id="edge14" class="edge">
<title>typechecked__collections_abc&#45;&gt;typechecked__collections_abc__mapping</title><style>.edge>path:hover{stroke-width:8}</style>
<path fill="none" stroke="black" d="M690.29,-247.05C680.85,-235.99 668.43,-221.43 657.59,-208.72"/>
<polygon fill="blue" stroke="black" points="660.52,-206.76 651.37,-201.43 655.2,-211.31 660.52,-206.76"/>
</g>
<!-- typechecked__collections_abc__sequence -->
<g id="node8" class="node">
<title>typechecked__collections_abc__sequence</title><style>.edge>path:hover{stroke-width:8}</style>
<polygon fill="blue" stroke="black" points="789.09,-200.02 697.34,-200.02 697.34,-158.27 789.09,-158.27 789.09,-200.02"/>
<text xml:space="preserve" text-anchor="middle" x="743.21" y="-186.52" font-family="Helvetica,sans-Serif" font-size="10.00" fill="white">typechecked.</text>
<text xml:space="preserve" text-anchor="middle" x="743.21" y="-175.27" font-family="Helvetica,sans-Serif" font-size="10.00" fill="white">_collections_abc.</text>
<text xml:space="preserve" text-anchor="middle" x="743.21" y="-164.02" font-family="Helvetica,sans-Serif" font-size="10.00" fill="white">_sequence</text>
</g>
<!-- typechecked__collections_abc&#45;&gt;typechecked__collections_abc__sequence -->
<g id="edge15" class="edge">
<title>typechecked__collections_abc&#45;&gt;typechecked__collections_abc__sequence</title><style>.edge>path:hover{stroke-width:8}</style>
<path fill="none" stroke="black" d="M713.08,-247.05C717.83,-236.52 723.99,-222.82 729.51,-210.56"/>
<polygon fill="blue" stroke="black" points="732.61,-212.21 733.52,-201.66 726.23,-209.34 732.61,-212.21"/>
</g>
<!-- typechecked__collections_abc__set -->
<g id="node9" class="node">
<title>typechecked__collections_abc__set</title><style>.edge>path:hover{stroke-width:8}</style>
<polygon fill="blue" stroke="black" points="899.09,-200.02 807.34,-200.02 807.34,-158.27 899.09,-158.27 899.09,-200.02"/>
<text xml:space="preserve" text-anchor="middle" x="853.21" y="-186.52" font-family="Helvetica,sans-Serif" font-size="10.00" fill="white">typechecked.</text>
<text xml:space="preserve" text-anchor="middle" x="853.21" y="-175.27" font-family="Helvetica,sans-Serif" font-size="10.00" fill="white">_collections_abc.</text>
<text xml:space="preserve" text-anchor="middle" x="853.21" y="-164.02" font-family="Helvetica,sans-Serif" font-size="10.00" fill="white">_set</text>
</g>
<!-- typechecked__collections_abc&#45;&gt;typechecked__collections_abc__set -->
<g id="edge16" class="edge">
<title>typechecked__collections_abc&#45;&gt;typechecked__collections_abc__set</title><style>.edge>path:hover{stroke-width:8}</style>
<path fill="none" stroke="black" d="M735.88,-247.05C756.69,-235.18 784.58,-219.28 807.94,-205.96"/>
<polygon fill="blue" stroke="black" points="809.37,-209.17 816.32,-201.18 805.9,-203.09 809.37,-209.17"/>
</g>
<!-- typechecked__collections_abc__callable&#45;&gt;typechecked__typechecked -->
<g id="edge32" class="edge">
<title>typechecked__collections_abc__callable&#45;&gt;typechecked__typechecked</title><style>.edge>path:hover{stroke-width:8}</style>
<path fill="none" stroke="black" d="M919.24,-200.51C897.59,-212.89 873.09,-230.9 858.6,-254.48"/>
<polygon fill="blue" stroke="black" points="855.56,-252.74 853.93,-263.2 861.73,-256.04 855.56,-252.74"/>
</g>
<!-- typechecked__collections_abc__collection&#45;&gt;typechecked__cache -->
<g id="edge1" class="edge">
<title>typechecked__collections_abc__collection&#45;&gt;typechecked__cache</title><style>.edge>path:hover{stroke-width:8}</style>
<path fill="none" stroke="black" d="M421.33,-162.17C472.3,-143.58 544.57,-113.86 523.21,-101.7"/>
</g>
<!-- typechecked__collections_abc__collection&#45;&gt;typechecked__typechecked -->
<g id="edge33" class="edge">
<title>typechecked__collections_abc__collection&#45;&gt;typechecked__typechecked</title><style>.edge>path:hover{stroke-width:8}</style>
<path fill="none" stroke="black" d="M384.19,-200.26C396.97,-231.24 418.3,-292.87 412.75,-348.24"/>
<polygon fill="blue" stroke="black" points="409.29,-347.7 411.41,-358.08 416.23,-348.64 409.29,-347.7"/>
</g>
<!-- typechecked__collections_abc__iterable&#45;&gt;typechecked__cache -->
<g id="edge2" class="edge">
<title>typechecked__collections_abc__iterable&#45;&gt;typechecked__cache</title><style>.edge>path:hover{stroke-width:8}</style>
<path fill="none" stroke="black" d="M531.11,-158.03C537.11,-139.1 541.55,-112.14 523.21,-101.7"/>
</g>
<!-- typechecked__collections_abc__iterable&#45;&gt;typechecked__typechecked -->
<g id="edge34" class="edge">
<title>typechecked__collections_abc__iterable&#45;&gt;typechecked__typechecked</title><style>.edge>path:hover{stroke-width:8}</style>
<path fill="none" stroke="black" d="M743.21,-361.58C693.07,-423.76 441.19,-446.07 343.77,-452.45"/>
<path fill="none" stroke="black" d="M633.21,-266.54C643.17,-278.06 641.6,-284.13 652.21,-295.06 686.75,-330.62 774.33,-320.99 743.21,-359.58"/>
<path fill="none" stroke="black" d="M556.43,-200.39C577.34,-214.17 604.31,-233.92 625.63,-256.21"/>
<polygon fill="blue" stroke="black" points="622.87,-258.38 632.19,-263.42 628.05,-253.67 622.87,-258.38"/>
</g>
<!-- typechecked__collections_abc__mapping&#45;&gt;typechecked__cache -->
<g id="edge3" class="edge">
<title>typechecked__collections_abc__mapping&#45;&gt;typechecked__cache</title><style>.edge>path:hover{stroke-width:8}</style>
<path fill="none" stroke="black" d="M606.97,-157.9C585.21,-141.61 553.12,-118.73 523.21,-101.7"/>
</g>
<!-- typechecked__collections_abc__mapping&#45;&gt;typechecked__typechecked -->
<g id="edge35" class="edge">
<title>typechecked__collections_abc__mapping&#45;&gt;typechecked__typechecked</title><style>.edge>path:hover{stroke-width:8}</style>
<path fill="none" stroke="black" d="M626.46,-200.44C622.38,-216.23 619.33,-238.25 627.22,-255.22"/>
<polygon fill="blue" stroke="black" points="624.04,-256.74 632.39,-263.27 629.93,-252.96 624.04,-256.74"/>
</g>
<!-- typechecked__collections_abc__sequence&#45;&gt;typechecked__cache -->
<g id="edge4" class="edge">
<title>typechecked__collections_abc__sequence&#45;&gt;typechecked__cache</title><style>.edge>path:hover{stroke-width:8}</style>
<path fill="none" stroke="black" d="M697.02,-161.39C694.04,-160.33 691.08,-159.28 688.21,-158.27 615.09,-132.52 590.59,-140.05 523.21,-101.7"/>
</g>
<!-- typechecked__collections_abc__sequence&#45;&gt;typechecked__typechecked -->
<g id="edge36" class="edge">
<title>typechecked__collections_abc__sequence&#45;&gt;typechecked__typechecked</title><style>.edge>path:hover{stroke-width:8}</style>
<path fill="none" stroke="black" d="M853.21,-266.54C826.57,-324.77 783.4,-309.73 743.21,-359.58"/>
<path fill="none" stroke="black" d="M783.04,-200.36C810.88,-215.62 844.46,-236.72 852.4,-253.36"/>
<polygon fill="blue" stroke="black" points="848.89,-253.31 853.1,-263.03 855.87,-252.8 848.89,-253.31"/>
</g>
<!-- typechecked__collections_abc__set&#45;&gt;typechecked__cache -->
<g id="edge5" class="edge">
<title>typechecked__collections_abc__set&#45;&gt;typechecked__cache</title><style>.edge>path:hover{stroke-width:8}</style>
<path fill="none" stroke="black" d="M806.85,-160.86C803.94,-159.94 801.04,-159.07 798.21,-158.27 678.11,-124.41 631.66,-163.42 523.21,-101.7"/>
</g>
<!-- typechecked__collections_abc__set&#45;&gt;typechecked__typechecked -->
<g id="edge37" class="edge">
<title>typechecked__collections_abc__set&#45;&gt;typechecked__typechecked</title><style>.edge>path:hover{stroke-width:8}</style>
<path fill="none" stroke="black" d="M857.74,-200.23C860.22,-215.01 861.89,-235.6 857.01,-253.84"/>
<polygon fill="blue" stroke="black" points="853.77,-252.52 853.72,-263.11 860.37,-254.86 853.77,-252.52"/>
</g>
<!-- typechecked__exceptions__error_tag -->
<g id="node10" class="node">
<title>typechecked__exceptions__error_tag</title><style>.edge>path:hover{stroke-width:8}</style>
<ellipse fill="#e72222" stroke="black" cx="1118.21" cy="-360.58" rx="52.68" ry="29.52"/>
<text xml:space="preserve" text-anchor="middle" x="1118.21" y="-367.96" font-family="Helvetica,sans-Serif" font-size="10.00" fill="#ffffff">typechecked.</text>
<text xml:space="preserve" text-anchor="middle" x="1118.21" y="-356.71" font-family="Helvetica,sans-Serif" font-size="10.00" fill="#ffffff">_exceptions.</text>
<text xml:space="preserve" text-anchor="middle" x="1118.21" y="-345.46" font-family="Helvetica,sans-Serif" font-size="10.00" fill="#ffffff">_error_tag</text>
</g>
<!-- typechecked__exceptions__recursion_error -->
<g id="node11" class="node">
<title>typechecked__exceptions__recursion_error</title><style>.edge>path:hover{stroke-width:8}</style>
<ellipse fill="#ac4949" stroke="black" cx="987.21" cy="-550.67" rx="60.63" ry="29.52"/>
<text xml:space="preserve" text-anchor="middle" x="987.21" y="-558.04" font-family="Helvetica,sans-Serif" font-size="10.00" fill="#ffffff">typechecked.</text>
<text xml:space="preserve" text-anchor="middle" x="987.21" y="-546.79" font-family="Helvetica,sans-Serif" font-size="10.00" fill="#ffffff">_exceptions.</text>
<text xml:space="preserve" text-anchor="middle" x="987.21" y="-535.54" font-family="Helvetica,sans-Serif" font-size="10.00" fill="#ffffff">_recursion_error</text>
</g>
<!-- typechecked__exceptions__recursion_error&#45;&gt;typechecked__exceptions__error_tag -->
<g id="edge17" class="edge">
<title>typechecked__exceptions__recursion_error&#45;&gt;typechecked__exceptions__error_tag</title><style>.edge>path:hover{stroke-width:8}</style>
<path fill="none" stroke="black" d="M995.25,-520.93C1003.58,-494.51 1018.46,-455.16 1040.21,-426.1 1050.04,-412.97 1063.07,-400.84 1075.66,-390.72"/>
<polygon fill="#ac4949" stroke="black" points="1077.74,-393.54 1083.5,-384.65 1073.45,-388 1077.74,-393.54"/>
</g>
<!-- typechecked__exceptions__tagged_exception -->
<g id="node12" class="node">
<title>typechecked__exceptions__tagged_exception</title><style>.edge>path:hover{stroke-width:8}</style>
<ellipse fill="#d92626" stroke="black" cx="1118.21" cy="-455.63" rx="69.12" ry="29.52"/>
<text xml:space="preserve" text-anchor="middle" x="1118.21" y="-463" font-family="Helvetica,sans-Serif" font-size="10.00" fill="#ffffff">typechecked.</text>
<text xml:space="preserve" text-anchor="middle" x="1118.21" y="-451.75" font-family="Helvetica,sans-Serif" font-size="10.00" fill="#ffffff">_exceptions.</text>
<text xml:space="preserve" text-anchor="middle" x="1118.21" y="-440.5" font-family="Helvetica,sans-Serif" font-size="10.00" fill="#ffffff">_tagged_exception</text>
</g>
<!-- typechecked__exceptions__recursion_error&#45;&gt;typechecked__exceptions__tagged_exception -->
<g id="edge21" class="edge">
<title>typechecked__exceptions__recursion_error&#45;&gt;typechecked__exceptions__tagged_exception</title><style>.edge>path:hover{stroke-width:8}</style>
<path fill="none" stroke="black" d="M1020.95,-525.71C1037.07,-514.26 1056.57,-500.41 1073.87,-488.12"/>
<polygon fill="#ac4949" stroke="black" points="1075.86,-491 1081.98,-482.36 1071.8,-485.29 1075.86,-491"/>
</g>
<!-- typechecked__exceptions__tagged_exception&#45;&gt;typechecked__exceptions__error_tag -->
<g id="edge18" class="edge">
<title>typechecked__exceptions__tagged_exception&#45;&gt;typechecked__exceptions__error_tag</title><style>.edge>path:hover{stroke-width:8}</style>
<path fill="none" stroke="black" d="M1118.21,-425.7C1118.21,-418.17 1118.21,-409.92 1118.21,-401.92"/>
<polygon fill="#d92626" stroke="black" points="1121.71,-402.01 1118.21,-392.01 1114.71,-402.01 1121.71,-402.01"/>
</g>
<!-- typechecked__exceptions__type_error -->
<g id="node13" class="node">
<title>typechecked__exceptions__type_error</title><style>.edge>path:hover{stroke-width:8}</style>
<ellipse fill="#ac4949" stroke="black" cx="1118.21" cy="-550.67" rx="52.68" ry="29.52"/>
<text xml:space="preserve" text-anchor="middle" x="1118.21" y="-558.04" font-family="Helvetica,sans-Serif" font-size="10.00" fill="#ffffff">typechecked.</text>
<text xml:space="preserve" text-anchor="middle" x="1118.21" y="-546.79" font-family="Helvetica,sans-Serif" font-size="10.00" fill="#ffffff">_exceptions.</text>
<text xml:space="preserve" text-anchor="middle" x="1118.21" y="-535.54" font-family="Helvetica,sans-Serif" font-size="10.00" fill="#ffffff">_type_error</text>
</g>
<!-- typechecked__exceptions__type_error&#45;&gt;typechecked__exceptions__error_tag -->
<g id="edge19" class="edge">
<title>typechecked__exceptions__type_error&#45;&gt;typechecked__exceptions__error_tag</title><style>.edge>path:hover{stroke-width:8}</style>
<path fill="none" stroke="black" d="M1228.21,-454.63C1222.12,-423.5 1195.08,-400.38 1169.33,-384.97"/>
<polygon fill="#ac4949" stroke="black" points="1171.32,-382.08 1160.89,-380.19 1167.87,-388.17 1171.32,-382.08"/>
<path fill="none" stroke="black" d="M1154.32,-528.71C1187.85,-507.9 1232.06,-476.32 1228.21,-456.63"/>
</g>
<!-- typechecked__exceptions__type_error&#45;&gt;typechecked__exceptions__tagged_exception -->
<g id="edge22" class="edge">
<title>typechecked__exceptions__type_error&#45;&gt;typechecked__exceptions__tagged_exception</title><style>.edge>path:hover{stroke-width:8}</style>
<path fill="none" stroke="black" d="M1118.21,-520.74C1118.21,-513.21 1118.21,-504.97 1118.21,-496.97"/>
<polygon fill="#ac4949" stroke="black" points="1121.71,-497.05 1118.21,-487.05 1114.71,-497.05 1121.71,-497.05"/>
</g>
<!-- typechecked__exceptions__value_error -->
<g id="node14" class="node">
<title>typechecked__exceptions__value_error</title><style>.edge>path:hover{stroke-width:8}</style>
<ellipse fill="#ac4949" stroke="black" cx="1241.21" cy="-550.67" rx="52.68" ry="29.52"/>
<text xml:space="preserve" text-anchor="middle" x="1241.21" y="-558.04" font-family="Helvetica,sans-Serif" font-size="10.00" fill="#ffffff">typechecked.</text>
<text xml:space="preserve" text-anchor="middle" x="1241.21" y="-546.79" font-family="Helvetica,sans-Serif" font-size="10.00" fill="#ffffff">_exceptions.</text>
<text xml:space="preserve" text-anchor="middle" x="1241.21" y="-535.54" font-family="Helvetica,sans-Serif" font-size="10.00" fill="#ffffff">_value_error</text>
</g>
<!-- typechecked__exceptions__value_error&#45;&gt;typechecked__exceptions__error_tag -->
<g id="edge20" class="edge">
<title>typechecked__exceptions__value_error&#45;&gt;typechecked__exceptions__error_tag</title><style>.edge>path:hover{stroke-width:8}</style>
<path fill="none" stroke="black" d="M1238.03,-521.03C1235.77,-502.56 1232.41,-478.07 1228.21,-456.63"/>
</g>
<!-- typechecked__exceptions__value_error&#45;&gt;typechecked__exceptions__tagged_exception -->
<g id="edge23" class="edge">
<title>typechecked__exceptions__value_error&#45;&gt;typechecked__exceptions__tagged_exception</title><style>.edge>path:hover{stroke-width:8}</style>
<path fill="none" stroke="black" d="M1210.49,-526.43C1195.36,-514.99 1176.88,-501.01 1160.45,-488.57"/>
<polygon fill="#ac4949" stroke="black" points="1162.85,-486.01 1152.77,-482.77 1158.63,-491.59 1162.85,-486.01"/>
</g>
<!-- typechecked__generic -->
<g id="node15" class="node">
<title>typechecked__generic</title><style>.edge>path:hover{stroke-width:8}</style>
<polygon fill="blue" stroke="black" points="513.46,-378.58 438.96,-378.58 438.96,-342.58 513.46,-342.58 513.46,-378.58"/>
<text xml:space="preserve" text-anchor="middle" x="476.21" y="-362.33" font-family="Helvetica,sans-Serif" font-size="10.00" fill="white">typechecked.</text>
<text xml:space="preserve" text-anchor="middle" x="476.21" y="-351.08" font-family="Helvetica,sans-Serif" font-size="10.00" fill="white">_generic</text>
</g>
<!-- typechecked__generic&#45;&gt;typechecked__cache -->
<g id="edge6" class="edge">
<title>typechecked__generic&#45;&gt;typechecked__cache</title><style>.edge>path:hover{stroke-width:8}</style>
<path fill="none" stroke="black" d="M470.92,-342.33C460.91,-306.48 442.35,-221.95 468.21,-158.27 481.4,-125.78 553.75,-118.94 523.21,-101.7"/>
</g>
<!-- typechecked__generic&#45;&gt;typechecked__collections_abc -->
<g id="edge10" class="edge">
<title>typechecked__generic&#45;&gt;typechecked__collections_abc</title><style>.edge>path:hover{stroke-width:8}</style>
<path fill="none" stroke="black" d="M513.65,-346.63C548.57,-334.27 601.94,-314.68 647.21,-295.06 651.73,-293.1 656.41,-290.97 661.06,-288.79"/>
<polygon fill="blue" stroke="black" points="662.24,-292.11 669.75,-284.64 659.22,-285.79 662.24,-292.11"/>
</g>
<!-- typechecked__generic&#45;&gt;typechecked__immutable -->
<g id="edge26" class="edge">
<title>typechecked__generic&#45;&gt;typechecked__immutable</title><style>.edge>path:hover{stroke-width:8}</style>
<path fill="none" stroke="black" d="M464.16,-342.21C444.43,-315.15 402.55,-263.22 354.21,-236.02 260.65,-183.36 138.66,-285.72 119.21,-180.14"/>
</g>
<!-- typechecked__typechecked&#45;&gt;typechecked__cache -->
<g id="edge7" class="edge">
<title>typechecked__typechecked&#45;&gt;typechecked__cache</title><style>.edge>path:hover{stroke-width:8}</style>
<path fill="none" stroke="black" d="M344.03,-455.28C424.3,-455.34 613.07,-448.62 757.21,-390.1 890.18,-336.13 953.13,-327.92 1018.21,-200.02 1026.63,-183.48 1030.56,-172.11 1018.21,-158.27 944.5,-75.65 619.87,-155.69 523.21,-101.7"/>
</g>
<!-- typechecked__typechecked&#45;&gt;typechecked__generic -->
<g id="edge24" class="edge">
<title>typechecked__typechecked&#45;&gt;typechecked__generic</title><style>.edge>path:hover{stroke-width:8}</style>
<path fill="none" stroke="black" d="M337.89,-437.24C362.06,-424.34 395.76,-406.25 425.21,-390.1 428.46,-388.32 431.81,-386.47 435.19,-384.6"/>
<polygon fill="blue" stroke="black" points="436.88,-387.67 443.92,-379.75 433.48,-381.55 436.88,-387.67"/>
</g>
<!-- typechecked__typechecked&#45;&gt;typechecked__immutable -->
<g id="edge27" class="edge">
<title>typechecked__typechecked&#45;&gt;typechecked__immutable</title><style>.edge>path:hover{stroke-width:8}</style>
<path fill="none" stroke="black" d="M266.35,-448.71C231.45,-441.26 181.63,-424.94 154.21,-390.1 127.72,-356.45 145.26,-337.31 138.21,-295.06 129.69,-244 129.12,-230.95 119.21,-180.14"/>
</g>
<!-- typechecked__typing -->
<g id="node18" class="node">
<title>typechecked__typing</title><style>.edge>path:hover{stroke-width:8}</style>
<polygon fill="blue" stroke="black" points="237.46,-378.58 162.96,-378.58 162.96,-342.58 237.46,-342.58 237.46,-378.58"/>
<text xml:space="preserve" text-anchor="middle" x="200.21" y="-362.33" font-family="Helvetica,sans-Serif" font-size="10.00" fill="white">typechecked.</text>
<text xml:space="preserve" text-anchor="middle" x="200.21" y="-351.08" font-family="Helvetica,sans-Serif" font-size="10.00" fill="white">_typing</text>
</g>
<!-- typechecked__typechecked&#45;&gt;typechecked__typing -->
<g id="edge40" class="edge">
<title>typechecked__typechecked&#45;&gt;typechecked__typing</title><style>.edge>path:hover{stroke-width:8}</style>
<path fill="none" stroke="black" d="M285.95,-437.56C269.77,-423.22 246.44,-402.55 228.2,-386.38"/>
<polygon fill="blue" stroke="black" points="230.64,-383.87 220.84,-379.86 226,-389.11 230.64,-383.87"/>
</g>
<!-- typechecked__typing__literal -->
<g id="node19" class="node">
<title>typechecked__typing__literal</title><style>.edge>path:hover{stroke-width:8}</style>
<ellipse fill="#c04040" stroke="black" cx="200.21" cy="-265.54" rx="52.68" ry="29.52"/>
<text xml:space="preserve" text-anchor="middle" x="200.21" y="-272.91" font-family="Helvetica,sans-Serif" font-size="10.00" fill="#ffffff">typechecked.</text>
<text xml:space="preserve" text-anchor="middle" x="200.21" y="-261.66" font-family="Helvetica,sans-Serif" font-size="10.00" fill="#ffffff">_typing.</text>
<text xml:space="preserve" text-anchor="middle" x="200.21" y="-250.41" font-family="Helvetica,sans-Serif" font-size="10.00" fill="#ffffff">_literal</text>
</g>
<!-- typechecked__typing&#45;&gt;typechecked__typing__literal -->
<g id="edge41" class="edge">
<title>typechecked__typing&#45;&gt;typechecked__typing__literal</title><style>.edge>path:hover{stroke-width:8}</style>
<path fill="none" stroke="black" d="M200.21,-342.52C200.21,-332.47 200.21,-319.32 200.21,-306.79"/>
<polygon fill="blue" stroke="black" points="203.71,-307.07 200.21,-297.07 196.71,-307.07 203.71,-307.07"/>
</g>
<!-- typechecked__typing__typeddict -->
<g id="node20" class="node">
<title>typechecked__typing__typeddict</title><style>.edge>path:hover{stroke-width:8}</style>
<polygon fill="blue" stroke="black" points="345.46,-286.41 270.96,-286.41 270.96,-244.66 345.46,-244.66 345.46,-286.41"/>
<text xml:space="preserve" text-anchor="middle" x="308.21" y="-272.91" font-family="Helvetica,sans-Serif" font-size="10.00" fill="white">typechecked.</text>
<text xml:space="preserve" text-anchor="middle" x="308.21" y="-261.66" font-family="Helvetica,sans-Serif" font-size="10.00" fill="white">_typing.</text>
<text xml:space="preserve" text-anchor="middle" x="308.21" y="-250.41" font-family="Helvetica,sans-Serif" font-size="10.00" fill="white">_typeddict</text>
</g>
<!-- typechecked__typing&#45;&gt;typechecked__typing__typeddict -->
<g id="edge42" class="edge">
<title>typechecked__typing&#45;&gt;typechecked__typing__typeddict</title><style>.edge>path:hover{stroke-width:8}</style>
<path fill="none" stroke="black" d="M220.27,-342.3C236,-328.75 258.18,-309.64 276.34,-294"/>
<polygon fill="blue" stroke="black" points="278.44,-296.81 283.73,-287.63 273.87,-291.5 278.44,-296.81"/>
</g>
<!-- typechecked__typing__union -->
<g id="node21" class="node">
<title>typechecked__typing__union</title><style>.edge>path:hover{stroke-width:8}</style>
<polygon fill="blue" stroke="black" points="91.46,-286.41 16.96,-286.41 16.96,-244.66 91.46,-244.66 91.46,-286.41"/>
<text xml:space="preserve" text-anchor="middle" x="54.21" y="-272.91" font-family="Helvetica,sans-Serif" font-size="10.00" fill="white">typechecked.</text>
<text xml:space="preserve" text-anchor="middle" x="54.21" y="-261.66" font-family="Helvetica,sans-Serif" font-size="10.00" fill="white">_typing.</text>
<text xml:space="preserve" text-anchor="middle" x="54.21" y="-250.41" font-family="Helvetica,sans-Serif" font-size="10.00" fill="white">_union</text>
</g>
<!-- typechecked__typing&#45;&gt;typechecked__typing__union -->
<g id="edge43" class="edge">
<title>typechecked__typing&#45;&gt;typechecked__typing__union</title><style>.edge>path:hover{stroke-width:8}</style>
<path fill="none" stroke="black" d="M173.09,-342.3C151.32,-328.43 120.4,-308.72 95.55,-292.89"/>
<polygon fill="blue" stroke="black" points="97.6,-290.04 87.29,-287.62 93.84,-295.95 97.6,-290.04"/>
</g>
<!-- typechecked__typing__literal&#45;&gt;typechecked__immutable -->
<g id="edge28" class="edge">
<title>typechecked__typing__literal&#45;&gt;typechecked__immutable</title><style>.edge>path:hover{stroke-width:8}</style>
<path fill="none" stroke="black" d="M165.47,-243.21C145.78,-228.45 124.1,-206.71 119.21,-180.14"/>
</g>
<!-- typechecked__typing__typeddict&#45;&gt;typechecked__cache -->
<g id="edge8" class="edge">
<title>typechecked__typing__typeddict&#45;&gt;typechecked__cache</title><style>.edge>path:hover{stroke-width:8}</style>
<path fill="none" stroke="black" d="M304.37,-244.33C301.15,-220.81 299.86,-182.15 320.21,-158.27 380.96,-86.98 604.61,-148.03 523.21,-101.7"/>
<path fill="none" stroke="black" d="M523.21,-99.7C466.66,-67.78 394.92,-46.66 345.67,-34.71"/>
<polygon fill="blue" stroke="black" points="346.6,-31.34 336.06,-32.44 344.98,-38.15 346.6,-31.34"/>
</g>
<!-- typechecked__typing__typeddict&#45;&gt;typechecked__immutable -->
<g id="edge29" class="edge">
<title>typechecked__typing__typeddict&#45;&gt;typechecked__immutable</title><style>.edge>path:hover{stroke-width:8}</style>
<path fill="none" stroke="black" d="M277.22,-244.27C272.29,-241.35 267.17,-238.5 262.21,-236.02 201.18,-205.49 131.57,-247.25 119.21,-180.14"/>
</g>
<!-- typechecked__typing__typeddict&#45;&gt;typechecked__typechecked -->
<g id="edge38" class="edge">
<title>typechecked__typing__typeddict&#45;&gt;typechecked__typechecked</title><style>.edge>path:hover{stroke-width:8}</style>
<path fill="none" stroke="black" d="M340.44,-286.79C366.36,-304.11 399.91,-329.18 409.02,-348.3"/>
<polygon fill="blue" stroke="black" points="405.58,-348.94 410.92,-358.1 412.46,-347.61 405.58,-348.94"/>
<path fill="none" stroke="black" d="M411.21,-361.58C405.13,-396.69 371.72,-421.94 344.01,-437.21"/>
</g>
<!-- typechecked__typing__union&#45;&gt;typechecked__cache -->
<g id="edge9" class="edge">
<title>typechecked__typing__union&#45;&gt;typechecked__cache</title><style>.edge>path:hover{stroke-width:8}</style>
<path fill="none" stroke="black" d="M49.61,-244.42C42.33,-207.02 32.82,-126.34 73.21,-79.13 93.11,-55.88 170.85,-39.73 227.14,-30.81"/>
<polygon fill="blue" stroke="black" points="227.6,-34.28 236.95,-29.3 226.53,-27.36 227.6,-34.28"/>
</g>
<!-- typechecked__typing__union&#45;&gt;typechecked__immutable -->
<g id="edge30" class="edge">
<title>typechecked__typing__union&#45;&gt;typechecked__immutable</title><style>.edge>path:hover{stroke-width:8}</style>
<path fill="none" stroke="black" d="M84.64,-244.27C103.74,-228.79 123.93,-205.79 119.21,-180.14"/>
</g>
<!-- typechecked__typing__union&#45;&gt;typechecked__typechecked -->
<g id="edge39" class="edge">
<title>typechecked__typing__union&#45;&gt;typechecked__typechecked</title><style>.edge>path:hover{stroke-width:8}</style>
<path fill="none" stroke="black" d="M57.16,-286.62C62.21,-313.83 75.03,-362.23 105.21,-390.1 146.54,-428.28 210.66,-443.88 255.11,-450.24"/>
<polygon fill="blue" stroke="black" points="254.65,-453.71 265.02,-451.54 255.56,-446.77 254.65,-453.71"/>
</g>
</g>
</svg>
