<?xml version="1.0" encoding="UTF-8"?>
<svg id="Layer_1_copy" data-name="Layer 1 copy" xmlns="http://www.w3.org/2000/svg"
    viewBox="0 0 446 446">
    <defs>
        <linearGradient id='a' gradientUnits='objectBoundingBox' x1='0' y1='.25' x2='0.75' y2='1'>
            <stop offset='0' stop-color='#00a8de'>
                <animate attributeName="stop-color"
                    values="#00a8de;#6118a0;#ff0098;#c1272d;#cf8d00;#cae03b;#70e03b;#00a8de;#6118a0;#ff0098;#c1272d;#cf8d00;#cae03b;#70e03b;#00a8de;"
                    dur="10s" repeatCount="indefinite">
                </animate>
            </stop>
            <stop offset='.5' stop-color='#6118a0'>
                <animate attributeName="stop-color"
                    values="#6118a0;#ff0098;#c1272d;#cf8d00;#cae03b;#70e03b;#00a8de;#6118a0;#ff0098;#c1272d;#cf8d00;#cae03b;#70e03b;#00a8de;#6118a0;"
                    dur="20s" repeatCount="indefinite">
                </animate>
            </stop>
            <stop offset='1' stop-color='#ff0098'>
                <animate attributeName="stop-color"
                    values="#ff0098;#c1272d;#cf8d00;#cae03b;#70e03b;#00a8de;#6118a0;#ff0098;#c1272d;#cf8d00;#cae03b;#70e03b;#00a8de;#6118a0;#ff0098;"
                    dur="20s" repeatCount="indefinite">
                </animate>
            </stop>
            <animateTransform attributeName="gradientTransform" type="rotate" from="0 .5 .5"
                to="360 .5 .5"
                dur="20s" repeatCount="indefinite" />
        </linearGradient>
        <linearGradient id='b' gradientUnits='objectBoundingBox' x1='0' y1='1' x2='1' y2='1'>
            <stop offset='0' stop-color='#00a8de'>
                <animate attributeName="stop-color"
                    values="#00a8de;#6118a0;#ff0098;#c1272d;#cf8d00;#cae03b;#70e03b;#00a8de;#6118a0;#ff0098;#c1272d;#cf8d00;#cae03b;#70e03b;#00a8de;"
                    dur="20s" repeatCount="indefinite">
                </animate>
            </stop>
            <stop offset='1' stop-color='#6118a0' stop-opacity="0">
                <animate attributeName="stop-color"
                    values="#6118a0;#ff0098;#c1272d;#cf8d00;#cae03b;#70e03b;#00a8de;#6118a0;#ff0098;#c1272d;#cf8d00;#cae03b;#70e03b;#00a8de;#6118a0;"
                    dur="20s" repeatCount="indefinite">
                </animate>
            </stop>
            <animateTransform attributeName="gradientTransform" type="rotate"
                values="360 .5 .5;0 .5 .5" class="ignore"
                dur="20s" repeatCount="indefinite" />
        </linearGradient>
        <style>
            .cls-1 {
            fill: url(#a);
            stroke: none;
            }
            .cls-2 {
            fill: url(#b);
            stroke: none;
            }
        </style>
    </defs>
    <path class="cls-1"
        d="M163.27,429.22c-11.69,0-23.4-5.86-34.85-17.43-7.76-6.92-17.3-18.85-28.36-35.45-12.12-18.02-22.38-39.05-30.49-62.49-8.15-25.71-12.27-50.85-12.27-74.81,0-27.37,5.67-51.34,16.86-71.27,9.29-16.23,21.55-29.24,36.46-38.69,14.97-9.49,31.48-14.3,49.08-14.3,9.23,0,21.84,2.98,37.49,8.86,18.79,7.06,25.72,8.54,28.23,8.54,1.81,0,8.35-1.31,31.76-10.05,17.92-6.59,33.27-9.37,45.64-8.27,32.96,2.68,58.3,16.7,75.28,41.67l1.45,2.13-2.18,1.38c-28.35,17.98-42.72,43.49-42.72,75.82.43,25.13,9.3,46.23,26.36,62.68,7.85,7.81,16.5,13.8,25.73,17.83l1.98.87-.57,2.09c-1.93,7.02-4.19,13.6-6.71,19.53-5.63,14.33-12.62,27.59-20.76,39.44-11.2,16.43-20.52,28.04-27.68,34.49-11.01,11.08-23.01,16.69-35.69,16.69-9.42,0-20.58-2.76-33.19-8.21-11.98-5.17-23.22-7.8-33.41-7.8s-22.09,2.62-34.07,7.8c-12.56,5.43-23.16,8.42-31.5,8.9-.62.03-1.24.05-1.85.05ZM159.69,119.77c-16.64,0-32.25,4.55-46.4,13.53-14.21,9.01-25.91,21.44-34.78,36.94-10.75,19.15-16.21,42.3-16.21,68.8,0,23.44,4.04,48.08,12.01,73.23,7.95,22.97,18.02,43.61,29.9,61.29,10.86,16.3,20.14,27.92,27.59,34.55l.12.11c11.03,11.16,22.12,16.53,32.93,15.96,7.75-.45,17.77-3.3,29.79-8.5,12.61-5.45,24.74-8.21,36.05-8.21s22.79,2.76,35.39,8.21c11.98,5.17,22.48,7.8,31.21,7.8,11.31,0,22.14-5.14,32.19-15.26l.1-.1c6.87-6.18,15.94-17.5,26.95-33.64,7.94-11.55,14.75-24.49,20.25-38.47l.03-.06c2.19-5.16,4.19-10.83,5.93-16.88-9.05-4.25-17.53-10.28-25.24-17.94-18.03-17.38-27.41-39.66-27.86-66.21,0-33.35,14.42-59.79,42.85-78.66-16.07-22.35-39.64-34.93-70.11-37.41-11.65-1.04-26.27,1.64-43.48,7.97-24.87,9.28-31.03,10.36-33.5,10.36-2.75,0-8.85-.92-29.99-8.86-15.08-5.67-27.1-8.54-35.73-8.54ZM227.35,118.3c-1.44,0-2.88-.05-4.33-.16l-2.32-.17v-10.45c0-20.59,7.53-40.39,22.38-58.85l.1-.12c7.79-8.51,17.32-15.86,28.33-21.85,11.09-6.03,22.03-9.33,32.5-9.81l2.61-.12v10.5c0,21.21-7.31,41.01-21.73,58.86-17.49,21.36-36.83,32.16-57.56,32.16ZM225.7,113.27c19.77.6,38.39-9.6,55.33-30.29,13.67-16.92,20.6-35.67,20.6-55.7v-5.21c-8.92.84-18.24,3.87-27.73,9.03-10.49,5.71-19.57,12.7-26.97,20.77-14.09,17.53-21.23,36.26-21.23,55.66v5.74Z" />
    <path class="cls-2"
        d="M163.27,429.22c-11.69,0-23.4-5.86-34.85-17.43-7.76-6.92-17.3-18.85-28.36-35.45-12.12-18.02-22.38-39.05-30.49-62.49-8.15-25.71-12.27-50.85-12.27-74.81,0-27.37,5.67-51.34,16.86-71.27,9.29-16.23,21.55-29.24,36.46-38.69,14.97-9.49,31.48-14.3,49.08-14.3,9.23,0,21.84,2.98,37.49,8.86,18.79,7.06,25.72,8.54,28.23,8.54,1.81,0,8.35-1.31,31.76-10.05,17.92-6.59,33.27-9.37,45.64-8.27,32.96,2.68,58.3,16.7,75.28,41.67l1.45,2.13-2.18,1.38c-28.35,17.98-42.72,43.49-42.72,75.82.43,25.13,9.3,46.23,26.36,62.68,7.85,7.81,16.5,13.8,25.73,17.83l1.98.87-.57,2.09c-1.93,7.02-4.19,13.6-6.71,19.53-5.63,14.33-12.62,27.59-20.76,39.44-11.2,16.43-20.52,28.04-27.68,34.49-11.01,11.08-23.01,16.69-35.69,16.69-9.42,0-20.58-2.76-33.19-8.21-11.98-5.17-23.22-7.8-33.41-7.8s-22.09,2.62-34.07,7.8c-12.56,5.43-23.16,8.42-31.5,8.9-.62.03-1.24.05-1.85.05ZM159.69,119.77c-16.64,0-32.25,4.55-46.4,13.53-14.21,9.01-25.91,21.44-34.78,36.94-10.75,19.15-16.21,42.3-16.21,68.8,0,23.44,4.04,48.08,12.01,73.23,7.95,22.97,18.02,43.61,29.9,61.29,10.86,16.3,20.14,27.92,27.59,34.55l.12.11c11.03,11.16,22.12,16.53,32.93,15.96,7.75-.45,17.77-3.3,29.79-8.5,12.61-5.45,24.74-8.21,36.05-8.21s22.79,2.76,35.39,8.21c11.98,5.17,22.48,7.8,31.21,7.8,11.31,0,22.14-5.14,32.19-15.26l.1-.1c6.87-6.18,15.94-17.5,26.95-33.64,7.94-11.55,14.75-24.49,20.25-38.47l.03-.06c2.19-5.16,4.19-10.83,5.93-16.88-9.05-4.25-17.53-10.28-25.24-17.94-18.03-17.38-27.41-39.66-27.86-66.21,0-33.35,14.42-59.79,42.85-78.66-16.07-22.35-39.64-34.93-70.11-37.41-11.65-1.04-26.27,1.64-43.48,7.97-24.87,9.28-31.03,10.36-33.5,10.36-2.75,0-8.85-.92-29.99-8.86-15.08-5.67-27.1-8.54-35.73-8.54ZM227.35,118.3c-1.44,0-2.88-.05-4.33-.16l-2.32-.17v-10.45c0-20.59,7.53-40.39,22.38-58.85l.1-.12c7.79-8.51,17.32-15.86,28.33-21.85,11.09-6.03,22.03-9.33,32.5-9.81l2.61-.12v10.5c0,21.21-7.31,41.01-21.73,58.86-17.49,21.36-36.83,32.16-57.56,32.16ZM225.7,113.27c19.77.6,38.39-9.6,55.33-30.29,13.67-16.92,20.6-35.67,20.6-55.7v-5.21c-8.92.84-18.24,3.87-27.73,9.03-10.49,5.71-19.57,12.7-26.97,20.77-14.09,17.53-21.23,36.26-21.23,55.66v5.74Z" />
</svg>
