<?xml version="1.0" encoding="UTF-8"?>
<svg id="Layer_1" data-name="Layer 1" xmlns="http://www.w3.org/2000/svg" viewBox="0 0 500 299.45">
  <defs>
    <style type="text/css">
      .red {
      fill: #ba0000;
      opacity: .8;
      }

      .text {
      fill: #1a1a1a;
      }

      .grey {
      fill: #bcbec0;
      }

      @media (prefers-color-scheme: dark) {
      .red {
      fill: #FF0000;
      opacity: .8;
      }

      .text {
      fill: #E6E6E6;
      }

      .grey {
      fill: #4D4D4D;
      }
      }
    </style>
  </defs>
  <path id="red" class="red"
    d="M289.97,97.2c-.05-.91.7-2.16,1.94-2.32l18.78-2.37c1.13-.14,2.14.86,2.38,1.68.64,2.21-2.1,2.76-3.16,3.6-.28-.32-.31-.37-.39-.31-.2.14-.31.27-.35.38-.08.21.23.36.43.42-.17.58-.11,1.19-.04,1.86l1.8,16-1.54-.24-1.85-1c-.84-.46-1.63-.86-2.56-1.23-.69-.27-1.01-1.17-1.69-1.33-1.1-.26-2.14-.34-2.99-1.29-.43.36.27.45.25.61-.05.5-.8.46-1.23.45.07,1,.97,1.02,1.63,1.31,2.59,1.12,4.9,2.41,7.18,3.96.94.64,2.05.37,3,.05-.07.43-.61.74-1.11.74-.27.09.11.19.24.21.25.05.28-.09.88-.33l1.36,11.11,1.69,14.87-16.51,2.09c-1.16.15-2.15-.86-2.34-1.73-.61-2.74,3.4-2.17,3.11-4.6l-3.34-28.34c1.03.3,1.77.87,2.8.57-.26-.26-.29-.95-.54-1.07-.72-.36-1.53-.1-2.33-.25l-1.11-9.38c-.39-3.31-4.23-1.06-4.39-4.11ZM262.82,133.09l-.59,4.45,10.23-1.26,2.22,6.24c.41,1.16.04,2.28-1.19,2.76-.95.55-1.42,1.52-1.1,2.47.24.72,1.13,1.6,2.16,1.47l18.2-2.36c1.13-.15,1.82-1.32,1.8-2.18-.03-1.02-.88-1.81-1.91-1.95-1.08-.15-1.67-.65-2.07-1.72l-10.52-27.82-6.03-16.04-13.17,1.71-.51,4.05,10.55,29.11-8.06,1.09ZM251.36,152.24l11.49-1.51c1.17-.15,1.76-1.47,1.62-2.37-.14-.9-.91-1.63-1.95-1.77-2.08-.28-3.94-2.06-3.58-4.43l3.89-25-3.19-8.42-4.87,31.72c-.55,3.47-1.02,6.14-4.4,7.74-1,.48-1.59,1.51-1.24,2.57.24.72,1.16,1.6,2.21,1.46ZM330.44,141.96l-1.75-16.08c-.12-1.09-1.11-1.78-1.97-1.76-2.92.04-1.35,4.74-4.01,9.95-1.27,2.49-3.19,4.37-5.89,5.21l.51,4.42,13.11-1.74ZM234.79,117.33c-3.68,0-.26,6.67-6.05,9.29l.53,4.67c6.05,1.31,4.43,8.3,8.06,7.17.95-.29,1.51-1.26,1.38-2.35l-2.01-17c-.13-1.06-1.04-1.78-1.91-1.78ZM396.84,96.42c-3.52.21-.15,6.37-6.06,9.26l.62,4.46c3.33.75,4.4,3.08,5.5,5.82.41,1.02,1.42,1.62,2.48,1.32.79-.22,1.58-1.12,1.45-2.21l-2.04-17.06c-.12-.98-1.15-1.64-1.95-1.59ZM399.44,92.59c1.36,2.13,1.66,4.57,3.91,3.87.61-.19,1.45-1.07,1.33-2.04l-1.73-13.81-14.84,1.94.55,4.51c4.41-.21,8.45,1.88,10.79,5.55ZM358.11,102.23c.4,1.02,1.3,1.74,2.45,1.45.76-.19,1.72-1.12,1.59-2.24l-1.63-14.12c-.11-.92-.93-1.6-1.67-1.69-2.4-.31-1.85,3.79-4.73,2.69-2.59-.99-5.25-1.53-8.08-1.34l.45,4.4c6.25.86,9.49,5.42,11.63,10.86ZM238.64,115.91c.4,1.06,1.4,1.64,2.4,1.4.86-.2,1.64-1.17,1.51-2.27l-1.69-13.64-14.9,1.89.57,4.4c5.55-.27,10.17,3.05,12.12,8.21ZM359.36,109.32c-.17.72-1.41.98-2.19.93.39-.54.65-1.33,1.63-1.29-1.85-1.2-3.99-2.1-6.35-2.76l-6.52-1.83c-1.56-.44-2.96-1.02-4.25-1.98-2.39-1.77-3.08-4.9-1.66-7.47.84-1.52,2.17-2.55,3.75-3.22l-.51-4.4c-2.23.27-4.13.97-6.15,2.01-9.22,4.73-11.49,16.74-6.02,25.04,1.97,3,4.82,4.85,7.99,6.23,4.25,1.85,9.53,2.41,12.79,4.11,1.69.88,2.9,2.38,3.23,4.01.7,3.55-1.88,6.28-5.32,7.44l.52,4.3c9.32-1.49,16.83-8.65,16.19-18.69-.33-5.15-2.95-9.71-7.13-12.43ZM209.05,112.03l2.38,19.09c.05.36.78.35.99.2.19-.14.09-.59.25-.89.09-.18.64,0,.71.24.06.2.14.41.07.71-.04.18.38.2.48.06-.14.18.07-.83-.08-1.04-.12-.16-.33-.03-.39-.22.41-.17.71-.04,1.05-.04.35-.3.73-.67.99-1.11-.11.92-.27,1.66-.55,2.59,2.09.54,2.99-.64,3.52.46-.65.26-.88-.1-1.49-.09.21.21.54.47.79.46,1.12-.05,1.36-1.31,2.12-1.75.38-.22.55.45.47.73-.05.18-.26.27-.5.43.21.65.99.21,1.28.93-.77-.03-1.19-.7-2.03-.4.17.13.57.44.3.68-.17.15-.66.47-.91.41-.76-.33-1.69-.42-2.21-.92-.46-.45-.7.03-1.21.11-1.1.17-2.17-.02-3.44.05l2.25,17.93c.15,1.21-.42,1.9-1.5,2.31-1.09.42-1.86,1.4-1.61,2.56.2.91,1.19,1.84,2.4,1.68l18.16-2.33c1.17-.15,1.94-1.26,1.91-2.29-.09-3.01-4.14-.9-4.55-4.14l-1.85-14.54-1.5-.44c.88-.08.41-.31.23-.46-.82-.68.71.36,1.01.23.12-.05.14-.33.11-.6l-3.51-29.01-16.1,2.04c-.99.13-1.85.75-2.24,1.67-.2.77-.04,1.42.42,1.96,1.2,1.39,3.43.04,3.77,2.75ZM405.99,115.9c-.85.01-1.67.7-1.86,1.6-1.24,5.75-4.46,10.55-10.5,11.88l.59,4.27,15.29-1.98-1.6-14.03c-.12-1.08-1.06-1.76-1.92-1.75ZM368.71,85.06c-1.26.17-1.98,1.39-1.95,2.33.04,1.13,1.02,1.92,2.17,2.03,1.27.13,1.9.75,2.05,2.04l4.51,38.08c.37,3.11-3.93,1.96-3.21,4.94.17.7,1.12,1.76,2.23,1.62l16.89-2.1-6.09-51.14-16.61,2.19ZM335.17,125.11c-.36-.96-.8-1.83-1.88-2.08-1.28-.29-2.61.95-2.44,2.41l1.73,14.91c.11.94,1,1.57,1.7,1.67,2.35.34,1.82-3.27,4.9-2.31,2.76.86,5.55,1.35,8.37,1l-.5-4.29c-6.09-.39-9.89-6.08-11.87-11.31ZM432.43,60.88h-15.4c-2.54,0-4.6,2.07-4.6,4.6v29.3c0,1.69.84,3.1,2.25,3.94l15.5,9.3c.66.38,1.41.56,2.25.56,2.54,0,4.6-2.07,4.6-4.6v-38.51c0-2.54-2.07-4.6-4.6-4.6ZM427.83,111.78c-5.07,0-9.3,4.13-9.3,9.2s4.23,9.3,9.3,9.3,9.2-4.23,9.2-9.3-4.13-9.2-9.2-9.2ZM308.08,155.54c1.47,14.1,1.23,32.61-2.24,45.72l9.36-9.75c3.97,11.85,7.08,27.47-.08,35.74-10.38,11.98-45.27,12.15-66.73,12.15h-1.99c-1.7,0-170.26.22-174.05.22v18c3.8,0,172.37-.21,174.06-.22h1.04c27.58,0,65.35,0,81.27-18.36,10.68-12.32,11.55-31.1,2.64-55.87l14.39-1.61c-12.52-5.22-27.36-16.28-37.67-26.01Z" />
  <g id="black" class="text">
    <path
      d="M411.46,227.26l15.22,21.27h-4.16l-7.37-10.23v14.25h-3.69s0-25.29,0-25.29ZM425.41,252.55l-.48-.67h3.22v-1.29l1.4,1.96h-4.14ZM419.55,250.88l.97-1.35h1.49l.97,1.35h-3.43ZM133.5,236c-.2-.06-.38-.17-.41-.24-.11-.45-.17-.94-.17-1.5,0-.42.04-.85.09-1.3.08-.71.19-1.42.31-2.13l.68-1.36s.02.1.04.15c-.04.07-.06.14-.08.21-.07.09-.11.21-.11.33v.06l.02.06-.19.38c-.03.07-.14.3-.14.54,0,.15.05.26.08.33-.03.07-.08.21-.08.39,0,.27.09.74.4.9l-.08.18h-.09c-.22,0-.59.11-.59.86v.5h.5c-.05.13-.05.26-.05.31,0,.08.01.2.03.31,0,.02,0,.04,0,.06-.09.09-.17.24-.17.48,0,0,0,.46,0,.49ZM175.8,229.35c-.68,0-1.46-.62-1.56-.86l-.02-.05-.07-.1c-.04-.17-.06-.31-.06-.43v-.76l.04-.5c.09-.87.32-1.76.62-2.64l.42-.28c.15.23.43.23.44.23h.21l.15-.15s.04-.04.06-.07l.2.6-.11.34v-.06l-.72.36c-.18.09-.55.4-.55.81v1.83l.64-.96c-.15.51-.29,1.03-.32,1.27v.24c0,.42.29.63.59.63h.15l.13-.09c.29-.2.69-.58,1.17-1.09,0,.04-.02.08-.02.13v.5h.03s-.26.51-.26.51c-.18.15-.34.28-.47.36-.25.12-.5.2-.69.2ZM134.07,229.03c-.02-.09-.08-.2-.19-.39l-.1-.16c.06-.27.12-.54.19-.8l.48.96-.23.23c-.06.04-.11.1-.15.17ZM227.06,228.31c-.14-.02-.34-.12-.53-.22-.08-.04-.16-.08-.24-.12l.49-.33c.08.08.2.13.37.13.55,0,1.44-.71,7.85-9.89,1.22-2.47,2.78-4.04,4.43-4.5.76.1,1.8.52,1.8,1.16v.22c-.07,2.41-2.24,3.89-4.08,4.24v-.71c1.49-.39,3.38-2.27,3.38-3.8,0-.11-.03-.36-.29-.52l-.21-.42-.48.37c-.81.61-1.51,1.21-2.3,2.44-.06-.02-.12-.02-.18-.02h-.5v.42c-.09.03-.16.07-.22.12h-.71l.67,1.12-.32.58.58-.14.36.6c-.2.03-.4.04-.59.04h-.33l-.02.04h-.28c-.31,0-.49.27-.55.36l-.04.06-.1.31c-.2.62-.4,1.25-.5,1.94l-.05.09.03.03c-.03.18-.04.37-.05.57l.15.02c-.01.11-.03.25-.05.4l-.16.32-.26-.19v1.86s.52,0,.54,0v.49c.06.96.55,1.94,1.35,1.94,1.61,0,4.76-3.76,5.11-4.19.92-1.09,1.9-2.39,2.86-3.65.44-.58.86-1.14,1.25-1.64v.4l-.03.06c-.05.08-.1.2-.1.37v.16l-1.1,1.56c-1.31,1.84-5.31,7.46-8.21,7.46-1.33,0-2.33-1.66-2.33-3.87,0-.12.01-.26.02-.39.01-.16.02-.32.02-.47.01-.15.03-.35.06-.54l.21-1.28h-.04s.12-.89.12-.89l-.75,1.1-.12.04-.37.1v.02h-.06v.37h0c-.09.15-.18.29-.22.44l-.03-.03c-.09.09-.18.15-.25.2-.17.12-.42.29-.5.67-.04.03-.07.05-.1.08h-.1l-.2.28.03.07c-.14.17-.34.44-.2.75v.02c-.07.1-.22.3-.22.3h-.12l-.19.08-.11.04-.16.12c-.09.09-.16.21-.2.33l-1.11,1.11h.54c-1.15,1.34-1.94,1.7-2.34,1.79ZM116.94,228.22c.28-.04.55-.18.82-.31l2.18-1.09c-.46.36-1,.71-1.59,1.01l-.09.05-.07.08h0s-.2.15-.7.24c0,0-.02,0-.03,0-.06,0-.2.01-.32.03-.07,0-.12.01-.15.01-.01,0-.03,0-.05,0ZM116.76,228.17c-.2-.07-.42-.18-.65-.32l.4.13s.12.04.25.06v.13ZM226.16,227.91c-.46-.29-.5-.42-.58-1.66v-.28s0-.1,0-.13l.05-.11v-.08s-.01-.27-.01-.27c0-.12.03-.41.17-1.12.02-.2.22-.93.38-1.54l.52.52v.46h-.18v.45c-.08.11-.13.24-.13.36v.05l-.09.04v.25h-.03s-.06.37-.06.37v.84l.04.04c-.02.06-.04.13-.04.21v.2l.1.1c-.05.12-.1.28-.1.46v.83s-.03-.01-.04-.02ZM127.25,227.86c-1.33,0-2.33-1.66-2.33-3.87,0-.12.01-.26.02-.39.01-.16.02-.32.02-.47.02-.19.04-.42.07-.66l.15-1.07.04-.08h-.03s.13-.92.13-.92l-.81,1.16-.44.15c-.12.04-.21.11-.28.18h-.1l-.2.28.03.07c-.14.17-.34.43-.2.75l.07.15s-.02.03-.03.04h-.65s-.08.04-.08.04c1.29-1.62,2.53-3.44,3.59-5l.21-.31c1.22-2.48,2.79-4.07,4.44-4.52.76.1,1.8.52,1.8,1.16v.22c-.07,2.41-2.24,3.89-4.08,4.24v-.71c1.49-.39,3.38-2.27,3.38-3.8,0-.11-.03-.36-.29-.52l-.21-.42-.48.37c-.81.61-1.51,1.21-2.3,2.44-.06-.02-.12-.02-.18-.02h-.5v.42c-.09.03-.16.07-.22.12h-.71l.67,1.12-.32.58.58-.14.36.6c-.2.03-.4.04-.59.04h-.33l-.02.04h-.28c-.31,0-.49.27-.55.36l-.04.06-.1.31c-.2.62-.4,1.25-.5,1.94l-.05.09.03.03c-.03.18-.04.37-.05.57l.15.02c-.01.11-.03.25-.05.4l-.16.32-.26-.19v1.87s.52,0,.54,0v.49c.06.96.55,1.94,1.35,1.94,1.61,0,4.76-3.76,5.11-4.19.92-1.09,1.91-2.39,2.86-3.66.59-.78,1.15-1.52,1.64-2.13l.05-.07.21-.61c.78-2.28,1.58-4.64,2.27-6.95.1.19.15.36.18.6l.08.79c-.14,1.18-.3,1.68-.54,2.43l-.2.62c-.04.17-.08.28-.12.36-.02.06-.04.12-.06.17l-1.18,3.56,2.16-3.26c.64-.77,1.64-1.88,2.84-2.26.19.13.37.24.62.24l-.42.23c-1.89,1.04-4.71,4.84-6.44,10.09l-.75,2.28-.58.39c-.26.18-.34.37-.35.54l-.37,1.04h-.47c.51-2.1,1.1-4.06,1.63-5.72l.93-2.92-1.81,2.47c-3.92,5.36-6.25,6.48-7.5,6.48ZM97.14,227.86c-1.33,0-2.33-1.66-2.33-3.87,0-.12.01-.26.02-.39.01-.16.02-.32.02-.47.25-3.39,2.5-8.8,5.92-9.75.76.1,1.8.52,1.8,1.16v.22c-.07,2.41-2.24,3.89-4.08,4.24v-.71c1.49-.39,3.38-2.27,3.38-3.8,0-.11-.03-.36-.29-.52l-.21-.42-.48.37c-.81.61-1.51,1.21-2.3,2.44-.06-.02-.12-.02-.18-.02h-.5v.42c-.09.03-.16.07-.22.12h-.71l.67,1.12-.32.58.58-.14.36.6c-.2.03-.4.04-.59.04h-.33l-.02.04h-.28c-.31,0-.49.27-.55.36l-.04.06-.1.31c-.2.62-.4,1.25-.5,1.94l-.05.09.03.03c-.03.18-.04.37-.05.57l.15.02c-.01.11-.03.25-.05.4l-.16.32-.26-.19v1.86s.52,0,.54,0v.49c.06.96.55,1.94,1.35,1.94,1.61,0,4.76-3.76,5.11-4.19.92-1.09,1.9-2.39,2.85-3.64.56-.74,1.09-1.44,1.55-2.03l.16-.2-.42-1.51c-.05-.21-.17-.58-.31-.97-.15-.43-.35-1.03-.42-1.37.03,0,.07.01.11.01h.2l.18.09h.12c.49,0,.51.01.7.31.1.22.72,2.31,1.25,4.19l.27.96,1.91-2.51c1.82-2.23,3.4-3.77,4.32-4.22.14-.08.23-.16.32-.24,0,0,.02-.02.03-.03,0,0,.11.35.11.35l-1.62,1.45c-.21.14-.42.28-.42.57v.27c-1.86,2.15-4.27,5.11-4.27,5.8v.08l.25.75c.24.71.52,1.54.83,2.38v.08c-.13,0-.32-.07-.32-.18l.03-.16c-.03.05-.08.16-.08.3,0,.1,0,.27.11.43.01.04.03.09.03.12,0,.15.03.35.12.52,0,.02.01.04.02.06-.04.16-.05.33-.05.5v.5h.22l-.26.17.67.45v.13l.1.29s.02.09.03.14l-.46-.73-.28.15c-.5-.99-1.14-2.58-1.51-3.81l-.31-1.01-.59.88c-.87,1.31-2.19,3.1-2.69,3.6l-.5.04h-.05c-.1-.18-.23-.41-.54-.41h-.05c.83-.69,1.72-2,2.68-3.49.22-.34.42-.64.57-.85l.68-1.04v-.37c0-.06,0-.2-.09-.35l-.48-1.75-.61.81-1.24,1.75c-1.31,1.84-5.31,7.46-8.21,7.46ZM196.86,227.44c-.11-.03-.2-.07-.23-.11l-.04-.04-.28-.17c-.07-.03-.16-.09-.31-.24l-.06-.06-.07-.04s-.03-.1-.07-.16l-.15-.33v-.05s-.04-.22-.04-.22c-.03-.13-.04-.2-.04-.38l-.05-.35v-.2s.12-.12.12-.12l-.1-.29s-.01-.03-.02-.04l.04-.04v-.79l.04-.09v-.09s.04-.08.04-.08c.03-.11.05-.22.06-.34l.14-.5v-.07s.04-.27.04-.31l.13-1.9-1.05,1.59c-1.98,2.98-3.57,4.7-4.74,5.09-.01,0-.06.02-.2.02-.21,0-.35-.06-.58-.17-.82-.3-.98-1.37-.98-2.21v-.41c0-1.51.25-2.76.48-3.81l.39-1.77h.86l.02-.07.18-.02.09-.46s0-.08.02-.13c.01-.11.03-.21.03-.27v-2.56l.37-.46h-.37v-.58l.27.07.2-.24c.06-.07.11-.15.17-.24.14-.21.23-.35.5-.39l.11.04c.17.12.22.18.22.19,0,0,0,.03,0,.11-.05.45-.1.96-.3,1.33-.46.72-1.1,3.24-1.57,5.72l-.15-.44h-.36l-.09-.79-.16.79-.16.19-.15.19.05.28c-.11.11-.13.34-.13.52,0,.07,0,.23.08.39l-.19.94s-.02.11-.03.13l-.35.35.36.34c.13.13.28.28.53.28h.22c-.09.69-.14,1.28-.14,1.7v.12c.09.29.2.74.63.74.27,0,.91,0,4.05-4.49.74-1.04,1.76-2.56,2.61-3.83l.28-.42.02-.07c.89-3.02,2.05-6.02,3.17-8.83l.31-.77-.83.09c-1.48.16-3.33.35-5.75.54h-.82c-.71,0-1.5-.04-1.96-.45-.05-.05-.12-.11-.2-.17-.09-.07-.19-.15-.2-.2v-.02c.34.06.76.09,1.19.09,1.03,0,2.51-.11,3.7-.2l.97-.07,4.14-.34,1.37-3.58.23-.48c.1,0,.13.03.13.03-.02.23.02.39.16.56v.08l-.05.36c-.06.5-.12,1.02-.26,1.3l-.51,1.66.71-.04c.84-.04,1.68-.04,3.08-.04,1.56,0,2.73.31,3.33.58h0c-.08.04-.16.08-.23.12-.02,0-.05,0-.07,0-.21-.02-.54-.04-1.12-.07-.5-.05-.96-.05-1.51-.05-1.44,0-2.71.08-4.09.18l-.34.02-.1.32c-.53,1.63-1.19,3.3-1.77,4.78-1.29,3.6-3.2,9.96-3.25,13.01,0,.76.37.91.68.91.07,0,.25,0,.45-.1,1.94-1.03,5.15-5.11,8.27-9.19l.64-.83v.66s-.02.02-.04.04c-.1.09-.21.2-.36.47l-.26.26-.04.11s-.09.11-.37.39c-.12.12-.25.25-.37.45-.12.05-.26.13-.4.27l-.86.85h.33c-.04.07-.06.15-.06.24-.04.05-.15.23-.17.25-.11.1-.18.23-.24.34,0,.01-.01.03-.02.04-.09.04-.19.1-.26.23-.13.09-.23.22-.27.38-.03.02-.19.17-.24.22l-.08.08-.04.11c-.07.05-.16.15-.22.28-.06.03-.1.06-.14.1h-.11l-.11.34s-.02.05-.02.08c-.16.08-.27.17-.34.27-.07.06-.12.13-.17.19-.15.12-.28.3-.36.47l-.15.19c-.09.09-.19.22-.3.36-.09.12-.18.24-.3.36l-1.17,1.17c-.1.03-.21.1-.44.27-.29.2-1.06.74-1.35.82l-.78.19ZM160.28,227.44c-.12-.03-.2-.08-.23-.11l-.04-.04-.28-.17c-.06-.03-.16-.09-.31-.24l-.06-.06-.07-.04s-.03-.1-.07-.16l-.15-.33v-.05s-.04-.22-.04-.22c-.03-.13-.04-.2-.04-.38l-.05-.35v-.2s.12-.12.12-.12l-.1-.29s-.01-.03-.02-.04l.04-.04v-.79l.04-.09v-.09s.04-.08.04-.08c.03-.11.05-.22.06-.34l.14-.5v-.07l.02-.11c.02-.11.03-.22.03-.25l.03-.08.02-.1s.04-.1.04-.22.03-.21.09-.39l.18-.52v-.08c0-.06.02-.11.05-.2.01-.03.02-.06.03-.08.15-.26.17-.61.18-.78.82-3.38,2.12-6.75,3.39-10.02l.45-1.17-.86.14c-.53.09-1.1.18-1.67.22-.42.11-.77.13-1.14.15l-.39.03c-.91,0-1.41-.31-1.44-.92l.14-.49-.6-.1-.18-.02h-.72c-.16,0-.34.01-.53.02-.18.01-.37.02-.55.02-.65.09-1.31.13-1.94.17l-.47.03-.09.35c-.65,2.49-1.4,4.76-2.12,6.96-.42,1.29-.85,2.6-1.26,3.96h-.14c-.08,0-.16.02-.23.04h-.04c-.37,0-.64.41-.64.68v.08l.28.83-.72.18v.38s-.12.04-.12.04c.08-.19.13-.43.17-.69l.05-.22c.18-.25.18-.51.18-.69l.04-.13.04-.22c.15-.32.23-.75.26-.96.06-.18.28-.9.33-1.18l.26-1.54h-.01s0-.01,0-.01l-.97.35c-.83.3-1.6.62-2.31.96,0-.04.02-.09.02-.13l.29-.59c.56-.23,1.17-.47,1.37-.55l.38-.12c.39-.13.77-.25,1.15-.36l.25-.08.08-.25c.04-.13.1-.3.17-.4.12-.12.16-.36.17-.5.54-1.55.99-2.95,1.43-4.31l.52-1.6h-.82s-.26.05-.26.05c-.67.12-1.3.23-2,.31-.41.11-.76.13-1.13.15l-.38.03c-.89,0-1.39-.3-1.43-.89.28.09.49.09.67.09h.31c.11,0,.21-.01.31-.03.07,0,.14-.02.23-.02,1.33-.19,2.92-.37,4.41-.5l.34-.03.33-1.16c.32-1.13.64-2.27.96-3.51.07.03.16.05.25.06.02,0,.04,0,.06,0,.08.1.16.28.16.62v.45c0,.34,0,.66-.08.96l-.54,2.47h.62c1.3,0,2.52,0,3.78.22.46.1.79.3.84.43l.25.5.34-.04c.18-.02.26-.03.36-.03,1.23-.18,2.64-.32,4-.45l.31-.03.12-.29c.37-.94.71-1.88,1.05-2.8l.35-.95.23-.48c.1,0,.13.03.13.03-.02.23.02.39.16.56v.08l-.05.36c-.06.5-.12,1.02-.26,1.3l-.64,2.03h.68c.21,0,.42-.01.63-.02.19-.01.39-.02.58-.02.99,0,1.95.08,3.02.26.28.06.52.17.67.27h-.28c-.15,0-.3-.03-.48-.05l-.21-.03h-.79c-.16,0-.34,0-.53.02-.18.01-.37.02-.55.02-.35.04-.66.06-.98.09-.57.05-1.16.1-1.71.19l-.29.05-.1.28c-.54,1.54-1.14,3.11-1.66,4.44-1.27,3.54-3.18,9.9-3.23,12.95,0,.76.37.91.68.91.07,0,.25,0,.45-.1,1.94-1.03,5.15-5.11,8.27-9.19l.6-.77s.85-2.4.96-2.72h.3c.12,0,.21-.01.28-.04h.4v-.33l.11-.13v-.41s-.14-.31-.14-.31h-.34c-.07,0-.14,0-.2.03,1.29-3.71,2.47-7.23,2.75-9.17,0,0,.1.04.14.06.02.02.04.05.07.07.04.03.08.07.11.11.08.1.14.22.14.76-.22,2.64-1.45,6.67-3.77,13.2v-2.26l-.93,2.98c-.16.05-.27.15-.33.21l-.06.06-.04.07c-.11.2-.28.49-.28.81,0,.14,0,.37.17.55l-.34,1.1.72-.72.05.05h0c-.12.31-1.81,4.96-1.81,4.96-.09-.05-.21-.1-.35-.13-.08-.03-.19-.31-.19-.59.03-.35.14-.71.26-1.13.06-.19.12-.38.17-.58.15-.56.35-1.19.56-1.87l.35-1.08.63-1.83-.08.07v-.04s-.04.08-.04.08l-1.28,1.09c-.13.12-.19.25-.21.37-.11.1-.18.24-.19.4-.04.05-.15.23-.17.25-.11.1-.18.23-.24.34,0,.01-.01.03-.02.04-.09.04-.19.1-.26.23-.13.09-.23.22-.27.38-.02.02-.05.05-.08.08-.05.05-.11.09-.16.15l-.08.08-.04.11c-.07.05-.16.15-.22.28-.06.03-.1.06-.14.1h-.11l-.11.34s-.02.05-.02.08c-.16.08-.27.17-.35.28-.07.06-.12.13-.16.19-.15.13-.28.31-.36.47l-.15.19c-.09.08-.19.22-.3.36-.09.12-.18.24-.3.36l-1.16,1.17c-.11.03-.21.1-.45.27-.29.2-1.06.74-1.35.82l-.78.19ZM111.04,227.1c-.03-.05-.04-.1-.04-.13l.69.03.05.1h-.7ZM115.19,227.01c-.05-.07-.1-.15-.13-.22-.08-.13-.15-.28-.22-.43l.31.16v-.81c0-.34,0-.9-.59-.9h-.08c0-.06,0-.12,0-.18l-.05-.42c0-.57.08-1.33.27-2.23h.92l-.26.52c-.09.16-.17.32-.17.51v.12c.04.11.1.32.21.49l-.29,1.14.58-.2c-.01.17-.02.34-.02.51,0,.57.12,1.38.49,1.93h-.98ZM177.82,226.96c.12-.13.24-.27.36-.42v.08l-.34.34h-.02ZM119.33,226.65c.63-.48,1.28-1.09,1.92-1.79h.74s-.11.13-.11.13l-.02.02c-.16.13-.27.27-.35.38-.07.09-.12.16-.19.21-.27.27-.59.58-.96.89l-1.02.17ZM138.2,226.57s-.1-.02-.16-.02h-.12c-.74-.2-1.08-.57-1.32-.91l-.23-.33,1.05-1.59c.97-1.47,2.26-2.9,3.66-4.1,0,.01-.39.77-.39.77h.18l-.31.33h.49c-1.36,1.31-3.37,3.57-3.55,4.62l-.12.7s.7-.12.7-.12v.1c.18,0,.36-.03.51-.1l-.23.23.18.22s-.04.02-.06.04c-.1.08-.17.11-.29.16ZM88.5,226.56c-.32,0-.62-.28-.62-.58.03-.61.31-.9.89-.9h.08l.18-.06c.12.03.23.05.33.06.01.02.02.04.03.05l.02.05c.02.06.02.15.02.25,0,.29-.08.59-.19.76v.02s-.12.03-.12.03l-.61.31h-.02ZM80.99,226.56c-.32,0-.62-.28-.62-.58.03-.61.31-.9.89-.9h.08l.18-.06c.12.03.23.05.33.06.01.02.02.04.03.05l.02.05c.02.06.02.15.02.25,0,.29-.08.59-.19.76v.02s-.12.03-.12.03l-.61.31h-.02ZM73.48,226.56c-.32,0-.62-.28-.62-.58.03-.61.31-.9.89-.9h.08l.18-.06c.12.03.23.05.33.06.01.02.02.04.03.05l.02.05c.02.06.02.15.02.25,0,.29-.08.59-.19.76v.02s-.12.03-.12.03l-.61.31h-.02ZM179.41,225.47l.52.06c-.17.21-.34.43-.52.64v-.7ZM211.52,226.13c-1.05,0-1.79-.71-1.79-1.68.04-1.51.33-2.61.52-3.34.03-.06.06-.15.06-.26.01,0,.04-.1.04-.22,0,0,0,0,0,0,0,0,.04-.09.06-.18.05-.17.08-.27.1-.34,1.46-4.4,3.57-7.44,5.27-7.59h.23s.07,0,.11,0c-.22.16-.44.34-.64.55l-.54.54.7.28c.31.12.59.43.82.88l.14.28h.32c1.81-.04,3.69-.28,5.13-.48l.34-.05s.22-.93.28-1.18c.02-.06.04-.09.04-.09.17.03.63.03.63,1.1v.22c0,.46-.29,1.51-.54,2.44l-1.09,4.04,1.84-3.07c1.01-1.67,2.89-4.03,3.94-4.03,1.12.42,1.53.68,1.71,1.7v.07s.04.06.04.06c0,0,0,0,0,0,0,0,0,.06,0,.09,0,.91-.21,1.99-.49,3.05h-.27c-.39,0-.54.38-.58.58l-.08.02c-.39.1-.53.4-.59.51l-.07.18c-.05.12-.12.28-.12.47v1.3l-.34-1.03c.57-1.82,1.23-3.98,1.34-4.89l.05-.75c0-.65-.49-.67-.54-.67h-.1l-.09.04c-.86.36-2.46,2.7-3.94,5.24l-.09-.06.08.08c-.5.86-.99,1.74-1.43,2.57-.27.47-.41.88-.55,1.29-.15.43-.29.84-.6,1.34l-.07.12v.14s-.02.03-.04.07c-.03.06-.05.12-.07.18-.07.17-.17.23-.61.24-.05-.36-.31-.48-.48-.5-.01-.02-.03-.04-.04-.05h0c.91-3.35,1.93-7.1,2.61-9.74l.2-.78-.79.17c-.33.07-.68.13-1.13.2,0,0,0,0-.01,0-.04,0-.11.02-.17.03h-.04l-.06.02-.61.11c-.72.13-1.41.26-2.1.33l-.51.05.06.51c.04.36.09.69.09,1.02,0,.06,0,.12,0,.19l-.34.69-.7-.7-.12.16c0-.05.02-.1.03-.16h.46l-.02.06s0,0,0-.01l-.02.11s.05-.1.07-.19c.03-.06.05-.14.05-.24,0-.25-.16-.41-.24-.49l-.21-.21v-.7s-1.31,0-1.31,0c-.19,0-.37-.04-.45-.08l-.45-.22-.22.45c-1.47,2.94-2.46,6.05-2.79,8.76,0,.33.26.74.63.74.13,0,.24-.05.32-.09h.1l.14-.13c.32-.29.64-.65.96-1.07v.11c0,.06,0,.11-.01.17-.01.11-.03.24-.03.42v.54c-.4.3-.82.54-1.25.7l-.1.03h-.05ZM168.01,225.98l2.27-3.61c2.08-3.31,3.95-5.61,5.25-6.46l.04-.03.03-.03h.13l.15-.15s.03-.03.23-.03h.27c.32,0,1.04.16,1.24.29.02.03.09.12.1.13v.09l.15.15c.05.07.16.41.17.51,0,.81-.05,1.49-.16,2.15-.19.1-.31.33-.42.61v-.12c0-.11-.03-.23-.1-.36l-.17-.35s.01-.05.02-.07c.04-.09.07-.2.07-.35v-.5h-.48s.02-.09.02-.13l.02-.18c.02-.13.04-.3.04-.5v-.81l-.72.36c-1.69.85-4.25,4.78-6.12,7.65l-1.04,1.58-.02.06-.12.09c-.13.11-.49.11-.67.11-.06-.04-.11-.08-.18-.13ZM183.59,225.52s-.09-.06-.14-.08c-.19-.11-.34-.21-.46-.34l.8-.27c.06-.02.26-.09.42-.25l.08-.1c.12-.15.3-.38,2.05-3.09l.75-1.17c.93-1.45,1.97-3.06,2.75-4.1l-.54,2.05-1.28,2c-.14.22-.32.53-.53.88-.79,1.34-2.1,3.58-3.38,4.42-.13.09-.22.1-.38.1l-.15-.04ZM147.42,225.45c.02-.17.05-.34.08-.51v-.31s0-.05,0-.08l.21-.67c.13-.41.19-.72.27-1.13.02-.1.04-.21.07-.33l.89.3v-.6s0-.03.01-.04c.05,0,.11-.01.16-.03-.25.94-.49,1.92-.71,2.94l-.1-.21-.49.49c-.07.07-.12.14-.16.2l-.24-.02ZM179.41,225.06c1.45-1.8,3.08-3.97,4.51-5.91.23-.39.43-.73.64-1.05,1.28-2.07,2.59-3.23,4.23-3.75.24-.11.64-.2,1.06-.2.17,0,.36.02.51.05l-.16.62h-.35c-.09,0-.22.01-.33.03-.05,0-.09.01-.12.01-1.41.17-3.55,3.41-3.79,3.78-.88,1.3-1.8,3.33-2.21,4.57-.1.25-.11.47-.12.66l-.37,1.12c-.1-.14-.19-.33-.27-.59,0-.01-.03-.1-.07-.19v-.37l-.08-.16.43-2.25-1.32,1.91c-.12.17-.24.34-.38.53h-.41c-.32,0-.77.45-.77.77v.11l-.62.71v-.39ZM139.41,225.16c1.49-1.27,3.2-3.75,3.49-4.77l.37-1.36-.85.61v-.2l-.04-.03v-.47l-.66.22s-.06.02-.09.04c.61-.48,1.23-.92,1.85-1.29l.17-.1.05-.19c.24-.83.29-1.27.33-2.09v-.52c-.06-.65-.17-1.13-.36-1.55l-.19-.43c.12.1.27.16.41.18.05.02.16.11.25.26l.1.16c.38.59.64,1.4.64,2.02v.76h1l-.02.03s-.06-.01-.11-.01h-.5v.28s-.39.32-.39.32l.09.25c-.07.1-.12.22-.12.35,0,.11.02.2.05.27-.01,0-.2.12-.2.12l-.06.18c-.62,2-1.42,3.63-2.23,4.87-.28,0-.4.15-.89.78l-.1.13v.17c-.05.09-.1.2-.13.35l-.02.08c-.09.1-.18.2-.27.3l-.2-.23-.55.41v-.18l-.38.25h-.28l-.1.04h-.08ZM213.47,223.45c.44-.65.85-1.38,1.22-2.15l.38.38.26-.39h.02s.02-.05.02-.05l.36-.54-.18-.18.19-.74h.12c.09,0,.25,0,.4-.09,0,.07-.03.15-.05.21-.08.24-.21.56-.31.8-.14.34-.17.42-.18.51-.09.06-.19.16-.26.32l-.15.34c-.05.15-.17.39-.22.45l-.34.23.2.35.09.22c-.28.42-.59.82-.91,1.18l-.64-.84ZM175.86,221.02l.19.67-.11.06c-.21.1-.36.3-.4.51-.03.06-.07.13-.08.13l-.34.56c.13-.35.62-1.63.73-1.93ZM227.67,222.28l.36-1.45s.04-.09.08-.16c0,0,.12,0,.15,0-.04.11-.47,1.5-.51,1.61h-.08ZM176.93,222.11h.05c-.02.05-.04.11-.05.16,0-.05,0-.16,0-.16ZM226.41,221.93c.09-.28.19-.59.28-.9v1.09l-.28-.19ZM114.73,221.8c.54-2.36,1.85-5.56,4.6-8.44.36-.28.64-.44,1.05-.67l.16-.08c.12-.04.47-.12.54-.13.25,0,.52.08.75.19l-.52.53h-.05s-.17.09-.17.09c-1.54,1.16-2.69,3.04-3.53,4.8-.25.06-.52.36-.71.65v-.05l-.19.29h-.09l-.13.19h-.12l-.14.28c-.08.17-.1.32-.1.41l-.14.21s-.3.46-.38.79l-.12.48-.71.47ZM177.2,220.93s-.53,0-.54,0v-.6c.02-.07.05-.16.05-.3v-.17l.46.26c.1-.09.17-.2.2-.32l.09-.13s-.08.23-.08.23v.17c-.04.14-.04.26-.04.32,0,.13.02.23.06.32l-.05.38c-.05.13-.09.26-.14.39v-.55ZM176.54,219h0s-.02.04-.02.04c0,0,0-.03,0-.04ZM121.74,217.42c-.1-.01-.2-.06-.26-.12l-.05-.05-.06-.03c-.11-.06-.14-.23-.15-.39.11-.34.24-.66.36-.96.21-.53.43-1.08.57-1.75l.03-.11-.33-1.33c.11.05.21.11.29.17l.43.34c.38.29.49.48.49.82v.08l.03.08c.02.06.02.15.02.25,0,.42-.18.79-.4,1.22-.27.44-.46.79-.62,1.29-.02.02-.06.12-.09.22-.02.06-.05.14-.07.16-.06.01-.14.07-.2.12ZM206.84,216.61s0,.13,0,.13l-.14.04.13-.17ZM175.37,144.02l-.07-3.18h.34c.72,0,1.76-.12,2.52-1.15.2-.25.5-.76.89-2.33l.75-3.06-6.37-20.77h3.8l3.65,13.86h.97l2.79-13.86h3.46l-6.06,25.08c-.3,1.3-.72,3.07-1.84,4.16-1.2,1.16-2.77,1.25-4.15,1.25h-.68ZM197.29,135.2c-2.64,0-4.1-.99-4.85-1.82-.86-.93-1.41-2.33-1.52-3.8h3.52c.09.6.33,1.15.68,1.54.55.61,1.53.89,2.22.89.86,0,1.64-.34,2.14-.94.63-.68.7-1.54.7-2.12,0-1.32-.43-2.39-2.55-3.29l-2.66-1.13c-1.5-.63-2.27-1.37-2.61-1.76-.9-1.07-1.09-2.47-1.09-3.45,0-1.85.56-3.5,1.53-4.51,1.09-1.09,2.59-1.65,4.45-1.65,2.98,0,4.39,1.15,4.86,1.64.88.88,1.45,2.28,1.55,3.75h-3.46c-.12-.58-.38-1.1-.76-1.47-.48-.48-1.16-.73-1.97-.73-1.3,0-2.71.86-2.71,2.75,0,.45.09,1.11.55,1.73.5.7,1.25,1.06,1.98,1.34l2.69,1.12c1.12.45,2.15,1.33,2.68,2.01.38.49,1.02,1.63,1.02,3.79,0,.91-.17,2.64-1.33,4.05-1.09,1.35-2.84,2.07-5.06,2.07ZM162.1,135.2c-1.31,0-2.32-.34-3.08-1.04-1.29-1.21-1.46-3.18-1.46-4.76,0-1.86.15-3.94,1.28-5.26.97-1.15,2.68-1.76,4.93-1.76.31,0,1.15,0,2.52.13l.55.05v-2.89c0-.7-.06-1.51-.72-2.23-.51-.56-1.3-.88-2.17-.88s-1.64.35-2.18.99c-.3.35-.52.79-.63,1.26h-3.34c.1-1.76.91-3.18,1.69-3.96,1.06-1.06,2.82-1.7,4.69-1.7,1.77,0,3.35.59,4.47,1.66,1.52,1.52,1.69,3.52,1.69,4.9v15.11h-3.5v-2.21h-.77l-.24.23c-.3.47-.85,1.14-1.42,1.58-.67.53-1.34.75-2.3.75ZM164.75,124.99c-.84,0-2.05.12-2.9,1.12-.71.82-.79,1.91-.79,2.66,0,.54.05,1.34.52,2.11.54.86,1.26,1.27,2.23,1.27,1.39,0,3.02-.89,3.02-3.38v-3.57l-.42-.07c-.56-.09-1.13-.14-1.66-.14ZM92.07,134.91c-1.14,0-2.27-.47-2.94-1.22-.91-1.01-.91-2.39-.91-3.12v-5.48c0-1.36.4-2.37,1.24-3.08.64-.56,1.54-.86,2.53-.86,1.05,0,2,.32,2.67.91,1.13.97,1.27,2.27,1.27,3.29v3.25h-5.82v2.34c0,.37,0,1.07.52,1.59.3.34.84.55,1.45.55.69,0,1.2-.27,1.57-.83.14-.23.24-.49.29-.76h1.92c-.05.89-.31,1.92-1.39,2.7-.63.45-1.5.71-2.39.71ZM92.07,122.97c-.62,0-1.17.25-1.51.68-.31.37-.46.85-.46,1.47v2.26h3.94v-2.37c0-.4-.06-.98-.55-1.48-.35-.35-.87-.55-1.42-.55ZM70.77,134.91c-.79,0-1.4-.2-1.85-.62-.78-.73-.88-1.94-.88-2.92,0-1.16.09-2.45.77-3.25.59-.7,1.63-1.06,3.02-1.06.2,0,.72,0,1.59.08l.55.05v-2.05c0-.35,0-1-.51-1.55-.36-.39-.91-.62-1.52-.62s-1.15.25-1.54.7c-.18.21-.32.47-.41.75h-1.8c.1-.99.57-1.78,1.02-2.23.65-.65,1.72-1.04,2.88-1.04,1.08,0,2.06.36,2.74,1.01.92.92,1.03,2.16,1.03,3.01v9.5h-1.88v-1.41h-.78l-.21.23c-.18.29-.52.7-.87.97-.46.37-.88.44-1.36.44ZM72.47,128.36c-.33,0-1.34,0-2,.78-.55.63-.55,1.53-.55,1.82,0,.37.04.92.36,1.44.38.6.91.9,1.58.9,1.05,0,2.11-.73,2.11-2.34v-2.44l-.42-.07c-.37-.06-.74-.09-1.09-.09ZM146.8,134.84l-2.7-13.68h-1.05l-2.7,13.68h-3.02l-5.07-21.32h3.55l3.31,16.23,3.05-16.23h2.91l3.15,16.23,3.2-16.23h3.46l-5.07,21.32h-3.02ZM129.11,134.84c-1.89,0-3.3-.57-4.2-1.7-.94-1.17-1.02-2.52-1.02-3.92v-24.88h3.5v24.65c0,.33,0,1.35.79,2.08.42.38,1,.57,1.73.58v3.19h-.81ZM116.42,134.84l-1.49-6.75h-6.56l-1.49,6.75h-3.48l6.67-30.5h3.16l6.67,30.5h-3.48ZM108.62,125.09h5.99l-3.05-15.03-2.94,15.03ZM79.98,134.68v-13.3h1.88v1.33l.63.32.31-.29c.91-1.13,2.07-1.48,2.89-1.57v2c-.07,0-.14,0-.2,0-.85,0-3.63.27-3.63,3.81v7.69h-1.88ZM67.29,88.93c-6.65,0-10.79-5.36-10.79-13.98,0-10.08,5.82-13.68,11.26-13.68,2.55,0,4.18.9,5.26,1.5.63.35,1.09.61,1.55.61,1.08,0,1.33-.98,1.43-1.84h.47v9.2h-.48c-.75-6.53-4.21-8.87-7.25-8.87-4.47,0-4.99,7.27-4.99,12.74,0,7.4,0,13.79,4.75,13.79.42,0,.84-.08,1.21-.14l.41-.07v-9.49c0-.73-.42-1.21-1.14-1.31l-1.34-.15v-.31h11.31v.34l-1.25.12c-.72.11-1.13.6-1.13,1.31v8.27l.37.1c.73.2,1.35.49,1.79.74l-.03.49c-.91-.42-1.83-.62-2.85-.62-1.21,0-2.47.28-3.81.58-1.51.33-3.07.68-4.76.68ZM62.14,87.07c.72.43,1.42.78,2.72,1.2l1.5.49-.95-1.26c-.26-.35-.6-.84-.69-1.06l-.13-.3h-.03l-.2-.52c-.09-.25-.19-.53-.25-.82l-.09-.39h-.09l-.05-.41c-.02-.13-.04-.26-.06-.4-.03-.15-.05-.31-.07-.47l-.05-.45h-.04l-.18-1.55h.06l-.06-.56c-.02-.14-.02-.28-.03-.42,0-.16-.02-.32-.04-.47l-.04-.29h0v-.5c0-.17,0-.33-.02-.5,0-.13-.02-.26-.02-.39v-5.68l.03-.28c.02-.16.03-.32.04-.48,0-.14.01-.28.03-.4l.07-.56h-.07l.18-1.58h0l.05-.44c.02-.16.04-.31.07-.47.02-.14.05-.28.06-.41l.05-.41h.02l.09-.39c.03-.14.07-.28.11-.41.05-.16.09-.31.13-.47l.1-.46h0l.11-.34c.1-.29.19-.55.32-.84l.23-.52h.04l.15-.24c.15-.26.35-.51.52-.74l.96-1.29-1.35.33c-1.09.26-1.9.56-2.71,1l-1.73.94h.31c-.32.26-.64.55-.93.85l-.86.85h.17l-.04.05c-.23.31-.44.63-.62.94l-.33.59h-.02l-.14.28c-.17.34-.31.66-.4.95l-.17.51h-.05l-.09.38c-.03.11-.06.22-.09.33-.05.18-.11.37-.15.56l-.14.61h.03l-.06.23c-.04.16-.07.33-.1.51-.02.13-.04.26-.07.39l-.09.42h-.02v.09l-.02.09h.02v.32c0,.28-.03.57-.06.82l-.07.56h.07v1.58h-.02l.06.55c.02.14.02.28.03.41,0,.15.02.31.04.47l.03.29h-.07l.33,1.73h-.03l.16.62c.03.12.07.24.1.37.05.16.1.33.13.5l.09.39h.04l.16.47c.1.3.23.61.4.95l.06.13h-.06l.41.74c.17.31.35.64.58.94l.04.05h-.11l.74.83c.28.32.59.63.9.9h-.36l1.55.93ZM70.57,88.12l.61-.14c1.39-.33,2.9-.63,4.49-.67h.49v-8.66c0-.18.02-.33.08-.49l.22-.66h-6.18l.22.66c.05.16.08.31.08.49v9.47ZM74.42,64.42c.25.3.53.77.81,1.39l.95,2.04v-5.05l-.82.68c-.08.07-.29.12-.46.12h-1.17l.68.82ZM345.14,88.89c-6.35,0-10.96-5.81-10.96-13.81s4.62-13.81,10.99-13.81,11.06,5.91,11.06,13.75-4.77,13.88-11.09,13.88ZM345.21,61.49c-1.02,0-3.39.62-3.39,6.35v14.42c0,4,1.27,6.38,3.39,6.38,1.03,0,3.42-.62,3.42-6.38v-14.42c0-5.73-2.39-6.35-3.42-6.35ZM348.51,86.18c-.1.3-.23.61-.35.85l-.6,1.19,1.24-.51c.58-.24,1.02-.49,1.72-.97l1.33-.91h-.2c.29-.27.54-.55.79-.83l.74-.83h-.09c.23-.31.44-.63.6-.93l.41-.74h-.03v-.02c.19-.29.35-.62.47-.99l.16-.48h.08l.51-1.67h0v-.06s.06-.15.06-.15h-.02l.32-1.67h-.03l.19-1.67h-.03v-1.45h0v-.07s0-.15,0-.15h-.01l-.13-1.67h-.04l-.28-1.45h.05l-.58-1.88h-.08l-.16-.47c-.12-.37-.28-.7-.46-.99v-.02s.1,0,.1,0l-.52-.78c-.07-.11-.14-.22-.21-.33-.12-.19-.24-.38-.37-.56h.06l-.74-.83c-.26-.29-.51-.57-.79-.83h.18l-1.27-.91c-.75-.54-1.19-.76-1.74-.98l-1.22-.49.59,1.18c.12.24.25.55.35.85l.04.12.15.62c.06.25.13.54.16.82l.05.44h.03l.11,1.45h-.02v15.28h.02l-.11,1.45h-.03l-.05.44c-.03.28-.1.57-.16.82l-.1.4h-.01l-.11.34ZM339.92,86.74c.75.54,1.19.76,1.74.98l1.22.49-.59-1.18c-.12-.24-.24-.55-.35-.85l-.11-.34h0l-.1-.4c-.06-.25-.13-.53-.16-.82l-.05-.45h-.03l-.11-1.45h.02v-15.28h-.02l.13-1.67h-.02l.04-.17c.03-.15.06-.29.08-.44.03-.15.05-.3.08-.43l.1-.4h.01l.11-.34c.1-.3.23-.62.35-.85l.6-1.19-1.23.51c-.65.27-1.11.55-1.72.97l-1.33.91h.2c-.29.27-.54.55-.79.83l-.74.83h.09c-.23.31-.44.62-.6.92l-.41.74h.02l-.68,1.48h-.01l-.03.09-.04.1h.01l-.52,1.7h.05l-.28,1.45h-.04l-.13,1.67h-.01v.22s0,0,0,0v1.45h0v.08s0,.14,0,.14h.01l.13,1.67h.04l.28,1.45h-.02l.05.15v.06h.02l.46,1.48h-.02l.05.1.03.08h.01l.68,1.48h-.02l.41.74c.17.3.37.62.6.92h-.09l.74.83c.25.28.5.57.79.83h-.14l1.27.91ZM176.81,88.83c-4.2,0-5.05-3.48-5.56-7.05-.56-3.88-1.27-7.09-4.3-7.09-.36,0-.49,0-.66.08l-.28.14v10.85c0,1.71.49,2.2,2.2,2.2h.52v.43h-11.92v-.43h.52c1.71,0,2.2-.49,2.2-2.2v-21.45c0-1.71-.49-2.2-2.2-2.2h-.52v-.43h12.01c6.71,0,9.7,1.9,9.7,6.16,0,3.59-2.1,6.06-5.47,6.47.6-.16,1.16-.39,1.76-.73l1.69-.94h-.42c.33-.3.62-.63.84-.96l.52-.78h-.03l.12-.27c.12-.26.24-.54.31-.85l.1-.46h.02l.05-.44c.04-.29.07-.62.07-.91v-.5h-.02s-.05-.47-.05-.47c-.04-.35-.12-.7-.23-1l-.07-.17h.03l-.36-.72c-.2-.4-.47-.71-.72-.99l-.02-.02h.48l-1.71-.94c-1.19-.65-3.39-1.01-4.46-1.01h-1l.6.8c.18.24.37.55.53.87l.14.28h.02l.2.53c.09.25.19.53.25.82l.05.24.15.62c.06.25.09.52.12.79l.04.35h0v.84c0,.14,0,.29-.03.46l-.1.58h.09l-.03.3c-.03.29-.06.54-.13.83l-.14.61h.01l-.55,1.58h0l-.15.24c-.17.28-.41.6-.64.82l-.85.85h1.21c.68,0,1.27-.04,1.81-.15v.71c-.73-.21-1.5-.31-2.39-.31h-1.09l.71.83c.17.2.29.4.44.71l.03.06h-.02l.36.72c.12.25.22.54.31.82l.05.16.43,1.88h.02l.22,1.45h-.02l.26,1.67h-.03l.14.62c.07.32.14.64.26.94l.05.14h-.05l.32.7c.13.3.31.62.51.94v.02s-.29,0-.29,0l1,.88c.81.71,1.73,1.04,2.88,1.04,1.41,0,2.42-.32,3.28-1.03l1.06-.88h-1.4l-.52-.61c-.17-.19-.3-.44-.38-.7l-.08-.27-.11-.51c-.06-.28-.09-.51-.09-.74v-.32h.04l-.36-1.88h-.04l-.09-.39c-.06-.29-.16-.6-.29-.95l-.12-.32h-.05l-.21-.48c-.13-.3-.3-.62-.51-.95l-.03-.05h.07l-.65-.81c-.27-.33-.56-.6-.84-.85h.47c1.74,1.33,2.76,3.64,3.05,6.92.01.12.02.24.03.37.03.64.09,1.82,1.15,1.82,1.25,0,1.59-1.77,1.71-2.84l.46.08c-.26,3.72-2.21,5.85-5.39,5.85ZM159.93,86.47c-.07.35-.13.59-.22.81l-.25.68h6.61l-.25-.68c-.09-.25-.15-.48-.17-.76l-.04-.45h-.02v-23.97h-6.16l.3.7c.09.2.15.5.21.78l.04.22h-.02v22.45h.02l-.04.22ZM167.32,61.87c-.35,0-.67.04-.95.12l-.36.1v12.16l.3.13c.29.12.61.18,1.05.18,2.84,0,4.27-2.12,4.27-6.31,0-5.27-2.34-6.38-4.31-6.38ZM393.83,88.79c-2.28,0-3.91-.86-5.21-1.55-.84-.44-1.5-.79-2.13-.79-1.16,0-1.4,1.04-1.48,1.94h-.5v-9.91h.42c.42,5.7,3.94,9.21,7.07,9.21,1.91,0,3.97-1.34,3.97-4.27,0-3.32-2.62-4.83-5.16-6.29-2.95-1.69-5.99-3.44-5.99-8.06,0-5.43,3.93-7.86,7.83-7.86,2.34,0,3.64.88,4.58,1.52.57.39,1.02.69,1.54.69.94,0,1.17-.94,1.25-1.73h.5v8.38h-.51c-.23-4.06-2.45-8.19-6.29-8.19-2.27,0-3.73,1.54-3.73,3.93,0,2.97,2.51,4.31,5.17,5.72,3.37,1.79,6.86,3.65,6.86,8.96,0,5.71-4.23,8.31-8.17,8.31ZM395.1,86.6c-.22.27-.67.64-1.05.87l-1.89,1.1,2.18-.17c1.35-.1,2.62-.48,3.58-1.06l1.55-.93h-.32c.29-.26.58-.57.85-.93l.63-.81h-.13l.06-.13c.17-.33.3-.65.4-.95l.18-.54h0l.03-.12h0l.07-.26c.07-.29.15-.62.18-.95l.04-.4h.03v-1.73h.02l-.02-.1v-.05h-.01l-.1-.46c-.07-.32-.15-.65-.26-.95l-.07-.17h.06l-.31-.7c-.13-.29-.33-.61-.6-.98l-.04-.05h.2l-.85-.85c-.36-.36-.7-.66-1.05-.91h.23l-1.55-.93c-.46-.28-.95-.55-1.42-.81h.03l-1.77-.94c-.4-.21-.98-.53-1.45-.85l-.13-.09h-.17l-.81-.72c-.33-.29-.59-.57-.79-.82l-.15-.19h-.01l-.39-.62c-.11-.17-.18-.35-.26-.54l-.22-.5-.07-.52-.04-.26c-.03-.18-.06-.37-.06-.56v-.5s.03-.29.03-.29c.03-.28.06-.55.14-.76l.2-.53h.03l.11-.34c.06-.17.3-.52.58-.85l1.09-1.25-1.6.44c-.87.24-1.72.65-2.29,1.11l-1.09.89h.13l-.02.02c-.26.29-.47.61-.68.93l-.52.78h.14s-.07.14-.07.14c-.17.33-.24.69-.31,1l-.11.49h-.05l-.05.44c-.04.29-.07.62-.07.95v.85c0,.35.04.7.12,1.01l.06.23h-.03l.22.66c.12.37.28.7.46.99l.05.09h-.2l.74.83c.29.32.6.64.92.92h.01s-.52.01-.52.01l1.76.94c.42.23.88.49,1.35.79h-.04l1.63.93c.47.27.94.57,1.41.87l.12.08h.12l.82.72c.25.22.5.49.75.82l.15.19h.05l.38.61c.14.22.26.49.36.78l.11.34h.03l.12.47c.06.25.09.53.12.81l.04.33h0v.5c0,.28-.03.57-.06.82l-.06.5-.09.26c-.08.25-.2.52-.35.82l-.29.57h-.08l-.15.19ZM384.8,86.57l.72-.36c.23-.12.54-.18.83-.18h.99l-.58-.8c-.41-.56-.75-1.11-1.01-1.63l-.95-1.9v4.87ZM398.67,64.56c.22.34.54.85.68,1.16l.96,2.31v-5.14l-.81.65c-.07.04-.31.1-.51.1h-.91l.59.93ZM374.08,88.38l-11.78-24.08.23,21.45c0,.29.03.55.07.77-.01-.03-.49-.98-.49-.98l-.25.51c0-.1,0-.2,0-.31v-21.86c0-1.51-.76-1.79-2.17-1.79h-.18v-.43h9.43l9.27,18.36v-15.73c0-.18,0-.34-.01-.49l.33.66.42-.84c-.02.19-.04.4-.04.64l-.2,24.11h-4.63ZM374.34,87.96h3.97v-3.62h-.01l.07-1.7h-.05v-1.7h-.11l-.77-1.55-.94-1.88h-.03l-.78-1.55h.02l-.94-1.88h-.03l-1.62-3.25h.05l-.92-1.7h0l-.87-1.73h.02l-.94-1.88h-.04l-.76-1.52-.94-1.88h-7.22l.6.8c.08.11.14.22.19.33l.28.57h-.03l1.72,3.43h-.05l.85,1.7.87,1.73h-.02l.85,1.7h-.03l1.72,3.43h-.05l.85,1.7,1.72,3.43h-.05l1.7,3.4h-.03l.87,1.73h-.02l.94,1.88ZM359.38,88.38v-.43h.21c.47,0,.85-.04,1.16-.13l-.12.16h2.95l-.19-.26c.33.16.77.23,1.34.23h.35v.43h-5.7ZM318.99,88.38v-.43h.52c1.43,0,2.2-.31,2.2-1.96v-21.69c0-1.69-.52-2.2-2.23-2.2h-.52v-.43h12.09v.43h-.52c-1.71,0-2.2.49-2.2,2.2v21.45c0,1.71.49,2.2,2.2,2.2h.52v.43h-12.05ZM322.07,86.52c-.03.27-.11.5-.21.76l-.25.67h6.78s-.25-.67-.25-.67c-.09-.25-.15-.48-.18-.76l-.04-.45h-.02v-22.08h.02l.04-.45c.03-.3.09-.55.17-.74l.3-.7h-6.85l.3.7c.11.26.18.5.2.74l.03.31v22.36l-.03.31ZM298.45,88.38v-.43h.52c1.71,0,2.2-.49,2.2-2.2v-22.85c0-.38-.15-.84-.87-.84-2.99.04-5.8,6.07-6.03,10.03h-.51v-10.42h21.71v10.42h-.51c-.23-3.96-3.04-9.99-6.02-10.03-.73,0-.88.46-.88.84v22.85c0,1.71.49,2.2,2.2,2.2h.52v.43h-12.33ZM301.53,86.52c-.03.3-.09.55-.17.74l-.3.7h7.09l-.3-.7c-.08-.19-.14-.44-.17-.74l-.04-.45h-.02v-23.16c0-.05,0-.12,0-.15l.22-.66h-6.49l.22.66s0,.09,0,.15v23.16h-.02l-.04.45ZM294.19,68.15l.94-1.74c.38-.71.63-1.04,1.05-1.6l.73-.98h-.03v-.02c.31-.33.56-.61.81-.86l.86-.85h-4.36v6.04ZM313.04,64.81c.43.58.67.89,1.06,1.6l.94,1.73v-6.04h-4.36l.85.85c.26.26.53.56.79.86l.02.02h-.03l.73.97ZM281.76,88.38v-.43h.79c1.12,0,1.52-.75,1.52-1.38,0-.21-.05-.44-.09-.57l-1.73-5.71h-7.03l-1.58,5.06s-.06.23-.07.29l-.09-1.01-.43.86,8-23.99h2.57l8.05,24.88c.31.97,1.11,1.57,2.11,1.57h.08v.43h-12.09ZM284.5,86.52c-.03.28-.09.54-.17.76l-.25.68h7.94l-.43-.75c-.13-.22-.25-.51-.35-.73l-.13-.39-.54-1.75h-.04l-.53-1.73h-.01l-.53-1.73h-.06l-.48-1.55h.05l-.6-1.73h.02l-.59-1.7h.04l-.6-1.73h.02l-.62-1.8-.56-1.82h0l-.53-1.73h-.02l-.52-1.7h-.04l-.53-1.73h0l-.53-1.73h-.05l-.52-1.7h-1.95l-.65,1.88h.04l-.59,1.7h.02l-.6,1.73h.02l-.6,1.73h.22l.48,1.55h-.02l.58,1.88h.01l.53,1.73h.01l.48,1.55h-.01l.58,1.88h.01l.49,1.58h-.03l.58,1.88h.02l.48,1.55h-.03l.58,1.88h0l.53,1.73h.04l-.03.29ZM275.37,79.87h6.73l-3.32-10.86-3.41,10.86ZM270.03,88.38v-.43h.08c.28,0,.54-.03.79-.1l-.18.13h3.93l-.17-.21c.27.11.62.18,1.07.18h.52v.43h-6.04ZM247.87,88.38l.02-.91,12.44-25.37h-4.88c-4.08,0-6.07,7.11-6.29,10h-.45l-.03-10.42h18.46l-.08.8-11.6,25.48,4.41.04c4.37,0,7.02-6.3,7.55-9.89h.48l-.22,10.29h-19.81ZM264.2,86.22c-.3.3-.59.59-.91.84l-1.11.89h5.07l.07-1.88h-.03l.06-1.55h.02v-3.76l-.96,2.14c-.07.16-.21.36-.34.55-.07.11-.15.21-.21.31l-.48.76h.14l-.03.04c-.19.29-.39.58-.61.83l-.73.83h.03ZM248.15,87.96h6.87l.87-1.88h-.05l.8-1.73.78-1.7.78-1.7h-.02l.8-1.73.78-1.7.78-1.7h-.02l.8-1.73.78-1.7.78-1.7h-.02l.72-1.55h0l.74-1.73.78-1.7h.03l.87-1.88h-.04l.79-1.7h-5.95l-.94,1.88h.03l-.85,1.7-.85,1.7h.02l-.87,1.73h.03l-.85,1.7h.02l-1.72,3.43h.03l-.85,1.7h.02l-2.57,5.13h.05l-1.72,3.43-.85,1.7h.05l-.87,1.73ZM249.07,68.65l1.94-3.15h-.26l.04-.07c.17-.3.33-.6.5-.86l.36-.58h.03l.15-.19c.25-.31.47-.57.76-.82l.98-.87h-4.5v6.55ZM231.95,88.38v-.43h.52c1.43,0,2.2-.31,2.2-1.96v-21.69c0-1.69-.52-2.2-2.23-2.2h-.52v-.43h12.09v.43h-.52c-1.71,0-2.2.49-2.2,2.2v21.45c0,1.71.49,2.2,2.2,2.2h.52v.43h-12.05ZM235.03,86.52c-.03.27-.11.5-.21.76l-.25.67h6.78s-.25-.67-.25-.67c-.09-.25-.15-.48-.18-.76l-.04-.45h-.02v-22.08h.02l.04-.45c.03-.3.09-.55.17-.74l.3-.7h-6.85l.3.7c.11.26.18.5.2.74l.03.31v22.36l-.03.31ZM209.92,88.38v-.43h.52c1.71,0,2.2-.49,2.2-2.2v-21.45c0-1.71-.49-2.2-2.2-2.2h-.52v-.43h12.09v.43h-.52c-1.71,0-2.2.49-2.2,2.2v20.81c0,1.49.15,2.95,1.89,2.95,3.38,0,6.83-5.43,7.39-9.93h.46l-.25,10.25h-18.87ZM225.35,86.22c-.29.29-.59.59-.91.85l-1.11.89h5.03l.06-1.67h.02v-1.63h.05l-.12-3.7-.88,1.98c-.09.2-.28.5-.44.73l-.62.99h.13c-.19.28-.38.54-.6.83l-.46.59-.15.15ZM213.04,86.48c-.07.35-.13.58-.22.81l-.25.67h6.88l-.25-.68c-.09-.23-.18-.5-.21-.76l-.05-.44h-.03l-.05-.99v-21.1h.02l.04-.45c.03-.3.09-.55.17-.74l.3-.7h-6.85l.3.7c.09.21.15.51.21.78l.04.22h-.02v22.45h.02l-.04.22ZM195.94,88.38v-.43h.79c1.12,0,1.52-.75,1.52-1.38,0-.21-.05-.44-.09-.57l-1.73-5.71h-7.03l-1.58,5.06s-.06.23-.08.3l-.09-1.01-.42.85,7.99-23.98h2.57l8.05,24.88c.31.97,1.12,1.57,2.11,1.57h.08v.43h-12.09ZM198.68,86.52c-.03.27-.09.54-.18.76l-.25.67h7.94l-.43-.75c-.13-.22-.25-.51-.35-.73l-.13-.38-.54-1.76h-.04l-.53-1.73h0l-.53-1.73h-.05l-.48-1.55h.05l-.6-1.73h.02l-.59-1.7h.04l-.6-1.73h.02l-.64-1.84-.55-1.78h-.01l-.53-1.73h-.02l-.52-1.7h-.04l-.53-1.73h0l-.53-1.73h-.05l-.52-1.7h-1.95l-.65,1.88h.04l-.59,1.7h.02l-.6,1.73h.02l-.6,1.73h.22l.48,1.55h-.02l.58,1.88h.01l.53,1.73h.01l.48,1.55h-.01l.58,1.88h.01l.49,1.58h-.02l.58,1.88h.02l.48,1.55h-.02l.58,1.88h0l.53,1.73h.04l-.03.29ZM189.56,79.87h6.73l-3.32-10.86-3.41,10.86ZM184.21,88.38v-.43h.08c.27,0,.54-.03.79-.1l-.18.13h3.93l-.17-.21c.27.11.62.18,1.07.18h.52v.43h-6.04ZM132.02,88.38v-.43h.52c1.71,0,2.2-.49,2.2-2.2v-21.45c0-1.71-.49-2.2-2.2-2.2h-.52v-.43h19.7v8.11h-.54c-.25-5.23-4.38-7.69-8.23-7.75h-.01c-.44,0-1.55,0-1.55.77v11.62h.5c2.54,0,4.55-2.56,4.74-5.92h.54v12.39h-.54c-.12-2.99-1.34-4.8-2.85-5.59l.58.23c.39.16,1.14.76,1.47,1.27l.92,1.42v-7.38l-.93,1.51c-.34.55-1.05,1.15-1.47,1.33l-2.01.88h-.38l.2.08h0s.89.35.89.35c-.38-.11-.76-.16-1.14-.16h-.5l-.04,10.9c0,1.46.34,2.37,2.03,2.37,4.21,0,7.87-5.24,8.32-9.79h.55l-.31,10.05h-19.92ZM148.05,86.33c-.29.26-.57.51-.86.74l-1.11.89h5.44l.07-1.88h-.03l.05-1.38h.01l.11-3.96-1.01,2.01c-.19.39-.42.78-.68,1.17l-.35.52h-.05l-.15.22c-.21.31-.43.58-.65.81l-.85.85h.05ZM135.1,86.52c-.03.3-.09.55-.17.74l-.3.7h6.75l-.25-.68c-.09-.25-.15-.48-.17-.76l-.03-.31v-5.27h-.01l.07-1.7h-.02v-17.13h-6.32l.3.7c.08.19.14.44.17.74l.04.45h.02v22.08h-.02l-.04.45ZM149.5,64.42c.32.38.61.8.87,1.25l.93,1.63v-5.2h-4.7l1.31.92c.33.23.64.45.92.7l.14.13h.05l.47.57ZM121.97,88.38l-11.78-24.08.23,21.45c0,.29.03.54.07.77-.01-.02-.49-.97-.49-.97l-.26.51c0-.1,0-.2,0-.31v-21.86c0-1.51-.76-1.79-2.17-1.79h-.18v-.43h9.43l9.27,18.36v-15.73c0-.18,0-.35-.02-.5l.33.66.42-.83c-.02.19-.04.4-.04.64l-.2,24.11h-4.63ZM122.23,87.96h3.97v-3.62h-.01l.06-1.7h-.05v-1.7h-.11l-1.72-3.43h-.04l-.77-1.55h.02l-.94-1.88h-.03l-1.63-3.25h.04l-.91-1.7-.87-1.73h.02l-.94-1.88h-.03l-1.7-3.4h-7.23l.61.8c.08.11.13.22.19.33l.29.57h-.03l1.72,3.43h-.05l1.72,3.43h-.02l.85,1.7h-.04l1.72,3.43h-.05l2.57,5.13h-.05l1.7,3.4h-.03l.87,1.73h-.02l.94,1.88ZM107.27,88.38v-.43h.21c.47,0,.85-.04,1.16-.13l-.12.16h2.95l-.19-.26c.33.16.76.22,1.33.22h.35v.43h-5.7ZM82.48,88.38v-.43h.52c1.71,0,2.2-.49,2.2-2.2v-21.45c0-1.71-.49-2.2-2.2-2.2h-.52v-.43h19.7v8.11h-.54c-.25-5.23-4.38-7.69-8.23-7.75h-.01c-.44,0-1.55,0-1.55.77v11.62h.5c2.54,0,4.55-2.56,4.74-5.92h.54v12.39h-.54c-.12-2.99-1.34-4.8-2.85-5.59l.58.23c.39.16,1.14.76,1.47,1.27l.92,1.42v-7.38l-.93,1.51c-.34.55-1.05,1.15-1.47,1.33l-2.01.88h-.38l.2.08h0s.89.35.89.35c-.38-.11-.76-.16-1.14-.16h-.5l-.04,10.9c0,1.46.34,2.37,2.03,2.37,4.21,0,7.87-5.24,8.32-9.79h.55l-.31,10.05h-19.92ZM98.51,86.33c-.29.26-.57.51-.86.74l-1.11.89h5.44l.07-1.88h-.03l.05-1.38h.01l.11-3.96-1.01,2.01c-.19.39-.42.78-.68,1.17l-.35.52h-.05l-.15.22c-.21.31-.43.58-.65.81l-.85.85h.05ZM85.57,86.52c-.03.3-.09.55-.17.74l-.3.7h6.75l-.25-.68c-.09-.25-.15-.48-.17-.76l-.03-.32v-5.27h-.01l.07-1.7h-.02v-17.13h-6.32l.3.7c.08.19.14.44.17.74l.04.45h.02v22.08h-.02l-.04.45ZM99.96,64.42c.32.38.61.8.87,1.25l.93,1.63v-5.2h-4.7l1.31.92c.33.23.65.45.93.7l.14.13h.05l.47.57ZM173.98,75.69s-.02-.01-.04-.02c.69.22,1.32.54,1.87.96l-1.83-.94ZM127.89,62.04h-2.95l.15.19c-.31-.09-.69-.13-1.19-.13h-.18v-.43h5.39v.43h-.18c-.49,0-.9.04-1.22.17l.18-.24ZM380,62.04h-2.95l.15.19c-.31-.09-.69-.13-1.19-.13h-.18v-.43h5.39v.43h-.18c-.49,0-.9.04-1.22.17l.18-.24Z" />
    <path
      d="M314.86,68.86l.11.2v.18c-.03-.13-.07-.26-.11-.38M294.36,68.87c-.04.12-.07.25-.1.37v-.18l.1-.19M126.9,104.85v24.15c0,.39,0,1.57.96,2.45.41.37.93.59,1.56.67v2.22h-.31c-1.73,0-3.01-.51-3.81-1.51-.84-1.05-.91-2.3-.91-3.61v-24.38h2.5M112.83,104.85l6.45,29.5h-2.45l-1.31-5.96-.17-.79h-7.37l-.17.79-1.31,5.96h-2.45l6.45-29.5h2.35M108.01,125.59h7.21l-.24-1.2-2.43-11.97-1-4.92-.96,4.93-2.34,11.97-.23,1.19M197.24,113.67c2.79,0,4.07,1.04,4.51,1.51.68.68,1.16,1.73,1.34,2.88h-2.51c-.17-.51-.44-.97-.79-1.33-.57-.57-1.38-.88-2.33-.88-1.59,0-3.21,1.12-3.21,3.25,0,.52.11,1.3.64,2.02.58.82,1.45,1.23,2.18,1.51l2.71,1.13c.88.35,1.89,1.11,2.46,1.85.34.44.91,1.47.91,3.48,0,.84-.16,2.44-1.22,3.74-1.01,1.25-2.58,1.88-4.67,1.88-2.46,0-3.8-.9-4.49-1.66-.67-.72-1.14-1.8-1.32-2.96h2.55c.14.53.38,1.01.72,1.38.65.73,1.77,1.05,2.59,1.05,1.01,0,1.93-.41,2.49-1.09.85-.92.85-2.09.85-2.48,0-1.8-.83-2.88-2.86-3.76l-2.66-1.13c-1.4-.59-2.12-1.27-2.41-1.61-.81-.96-.98-2.23-.98-3.13,0-1.73.51-3.25,1.37-4.15,1-1,2.38-1.51,4.11-1.51M164.17,113.67c1.64,0,3.1.54,4.11,1.51,1.39,1.39,1.55,3.27,1.55,4.56v14.61h-2.5v-2.21h-1.64l-.29.46c-.27.43-.78,1.05-1.3,1.46-.59.47-1.13.64-1.99.64-1.18,0-2.08-.3-2.74-.9-1.16-1.08-1.3-2.92-1.3-4.4,0-1.07,0-3.58,1.16-4.93.87-1.03,2.45-1.58,4.55-1.58.31,0,1.12,0,2.47.13l1.1.11v-3.44c0-.58,0-1.65-.84-2.56-.6-.67-1.53-1.05-2.54-1.05s-1.93.41-2.55,1.15c-.28.32-.49.69-.64,1.1h-2.41c.2-1.37.86-2.47,1.49-3.11.97-.97,2.59-1.55,4.33-1.55M163.81,132.65c1.75,0,3.52-1.2,3.52-3.88v-4l-.84-.14c-.58-.1-1.18-.15-1.74-.15s-2.19,0-3.28,1.29c-.92,1.06-.92,2.52-.92,2.99,0,.6.06,1.5.6,2.38.62,1,1.52,1.5,2.65,1.5M187.47,114.02l-5.82,24.1-.09.37c-.29,1.24-.69,2.93-1.71,3.92-1.06,1.03-2.52,1.11-3.8,1.11h-.19l-.05-2.19c.59-.01,1.85-.13,2.73-1.32.26-.33.59-.88,1-2.55l.72-2.92.07-.27-.08-.26-6.13-19.99h2.74l3.45,13.11.2.75h1.77l.16-.8,2.63-13.06h2.41M154.26,114.02l-4.83,20.32h-2.21l-2.54-12.87-.16-.81h-1.87l-.16.81-2.54,12.87h-2.21l-4.83-20.32h2.51l2.72,13.33,1.02,5,.94-5.02,2.5-13.31h2.08l2.59,13.32.97,5.01.99-5.01,2.63-13.32h2.41M91.99,121.65c.93,0,1.76.28,2.34.79.96.83,1.09,1.94,1.09,2.9v2.75h-5.82v2.84c0,.41,0,1.26.65,1.93.42.46,1.08.72,1.82.72.85,0,1.52-.35,2.01-1.09.09-.15.17-.32.23-.49h.98c-.14.78-.5,1.34-1.13,1.79-.54.39-1.32.62-2.1.62-1,0-1.99-.4-2.57-1.05-.78-.87-.78-2.12-.78-2.79v-5.48c0-1.2.35-2.09,1.07-2.7.55-.47,1.33-.73,2.2-.73M89.6,127.87h4.94v-2.87c0-.28,0-1.13-.7-1.83-.44-.44-1.09-.7-1.77-.7-.77,0-1.46.32-1.89.85-.39.47-.58,1.05-.58,1.79v2.76M72.1,121.65c.95,0,1.8.31,2.38.86.8.8.89,1.9.89,2.67v9h-.88v-1.41h-.52c.32-.45.52-1.04.52-1.8v-2.86l-.84-.14c-.39-.07-.8-.1-1.17-.1s-1.57,0-2.37.95c-.68.78-.68,1.81-.68,2.15,0,.43.05,1.07.44,1.71.46.74,1.16,1.13,2,1.13.08,0,.17,0,.25-.01-.1.1-.2.19-.3.27-.31.25-.59.33-1.05.33-.67,0-1.15-.15-1.51-.48-.5-.47-.72-1.25-.72-2.56,0-.65,0-2.16.66-2.93.49-.58,1.4-.89,2.64-.89.19,0,.7,0,1.55.08l1.1.11v-2.6c0-.39,0-1.2-.63-1.88-.46-.5-1.15-.79-1.89-.79s-1.44.31-1.91.86c-.15.18-.28.37-.38.58h-.86c.16-.6.47-1.08.77-1.38.56-.56,1.5-.89,2.52-.89M85.19,121.77v.91c-.7.04-1.59.23-2.36.84l.37-.46c.62-.77,1.36-1.13,2-1.29M81.36,121.88v1.15l.55.28.06.03.68.34c-.62.55-1.29,1.56-1.29,3.32v7.19h-.88v-12.3h.88M153.38,205.83l-.16.72-.19.88h-.02s-.18.7-.18.7c-.65,2.48-1.39,4.74-2.11,6.93-.39,1.19-.78,2.39-1.17,3.64,0,0-.01,0-.02,0,0-.04.01-.07.02-.1.1-.31.28-.91.33-1.2l.25-1.52.07-.22h.01s.13-.43.13-.43l.09-.27s.02-.05.03-.06c.17-.23.23-.49.26-.68.53-1.54.98-2.93,1.42-4.27l.31-.95.34-1.17h.02s.19-.67.19-.67l.23-.83c.05-.17.1-.34.14-.51M201.35,207.43l-.04.14h-.01s0,0,0,0h0s.06-.15.06-.15M201.13,208.06l-.05.15c-.52,1.62-1.18,3.28-1.76,4.75l-.03.08c-1.13,3.14-2.75,8.5-3.16,11.87l-.07-.22v-.74s.02-.09.03-.14l.03-.13c.02-.11.05-.23.07-.36l.11-.4.04-.13v-.17c.03-.09.04-.19.04-.23l.23-2.97c.21-.32.42-.62.62-.92l.22-.32.09-.13.04-.15c.88-2.99,2.04-5.98,3.15-8.78l.42-1.05M164.52,208.14l-.02.07h0l-.13.38c-.54,1.53-1.14,3.1-1.66,4.45-1.13,3.14-2.75,8.49-3.16,11.87l-.07-.22v-.74s.02-.09.03-.14l.03-.13c.02-.11.05-.23.07-.36l.11-.4.04-.13v-.17c.03-.14.04-.28.04-.32,0,.09-.01.14,0,.14,0,0,0,0,0,0l.05-.15v-.05c.02-.08.04-.2.04-.33,0-.03.01-.08.07-.22l.06-.18.09-.27.05-.15v-.13s.01-.02.02-.04c0-.02.02-.05.03-.07.17-.32.21-.69.22-.92.81-3.33,2.1-6.67,3.36-9.9l.14-.35.51-1.31h.03s.07-.19.07-.19M173.07,209.52c-.26.92-.57,1.93-.93,3.04h-.1c.37-1.06.72-2.08,1.03-3.04M120.27,213.33c-1.22,1.09-2.17,2.59-2.91,4.06v-.33l-.85,1.27c.76-1.56,1.79-3.15,3.13-4.56.24-.19.43-.31.63-.43M214.39,213.91l1.09.44c.19.08.39.3.56.64l.15.31h-.64l-.65-.65v.65h-.17c-.11,0-.21-.02-.23-.03l-.88-.44c.26-.36.52-.67.77-.92M106.59,214.02c.07,0,.12,0,.15,0,0,0,0,0,0,.01.15.39.73,2.37,1.23,4.11l.54,1.93.52-.68c-.27.45-.43.82-.43,1.05v.17l.05.16.23.67c.27.8.58,1.73.95,2.69l-.05.02c-.08-.04-.15-.08-.21-.14-.07-.18-.14-.36-.2-.54.01-.15.06-.26.08-.3-.02.04-.07.13-.1.25-.12-.34-.23-.67-.33-.98l-.62-2.02-1.17,1.76c-.78,1.17-2.01,2.84-2.53,3.42h-.02s-.01-.01-.02-.02c.72-.76,1.45-1.85,2.26-3.1.22-.34.41-.63.58-.87l.58-.9.16-.25v-.52c0-.2-.04-.38-.12-.54l-.2-.72-.37-1.28v-.02s-.12-.49-.12-.49l-.34-1.23c-.06-.27-.18-.63-.33-1.04-.06-.17-.13-.39-.2-.61M191.43,214.31s0,0,0,0h0s0,0,0,0M122.6,214.4h0c0,.24-.09.47-.21.73.08-.23.15-.47.21-.73M171.41,214.77c-.05.14-.09.27-.14.41v-.4s.09,0,.14-.01M222.83,214.91c-.09.51-.31,1.34-.49,1.98l-.16.59-.24.89h0c.25-.94.48-1.83.68-2.61l.2-.78h0s0-.03,0-.03v-.04M213.55,214.92l-.4.8c-1.49,2.99-2.5,6.15-2.84,8.92v.06s0,.06,0,.06c0,.06,0,.11.01.17-.05-.13-.08-.28-.08-.45.04-1.34.26-2.28.5-3.2.03-.07.06-.17.08-.29.02-.05.03-.12.04-.2.01-.05.04-.12.06-.19.05-.16.08-.26.1-.35.77-2.32,1.67-4.11,2.54-5.33M129.01,215.09c-.19.22-.37.47-.57.75h-.12c.22-.28.45-.53.69-.75M237.54,215.09c-.18.22-.37.47-.56.75h-.12c.22-.27.45-.52.68-.75M98.86,215.14c-.17.21-.35.44-.53.71h-.11c.2-.25.42-.49.64-.71M228.59,215.27c.06.13.1.29.13.49l.03.14h0c0,.76-.16,1.65-.38,2.55-.16.02-.31.07-.43.15.3-1.05.53-1.92.59-2.44v-.03s0-.03,0-.03l.04-.72v-.03s0-.03,0-.03c0-.01,0-.03,0-.04M187.24,215.71c-.91.95-1.72,2.14-2.05,2.64-.65.96-1.32,2.29-1.8,3.44l.31-1.51c.2-.27.41-.55.61-.83l.03-.05.03-.05c.19-.34.39-.67.6-.99.73-1.18,1.46-2.04,2.26-2.65M144.74,216.39v.08l-.33.34c.03-.14.05-.28.06-.43h.27M177.39,216.56l.07.07c.03.07.07.2.09.27,0,.16,0,.32,0,.48h-.17c0-.09.01-.2.01-.31v-.51M144.35,217.11l.05.13c-.04.12-.06.24-.06.37,0,0,0,.01,0,.02l-.07.04-.11.36c-.15.47-.3.91-.46,1.33l.33-1.2.04-.03.11-.37c.07-.24.12-.45.17-.64M127.06,217.81l.05.09.07.11-.38.69c-.2.08-.41.23-.6.51l-.08.12-.04.14-.08.25c-.04.13-.08.26-.12.39l.08-.58c.24-.35.47-.68.69-1.01l.21-.31.04-.06.03-.06c.04-.09.09-.18.13-.26M235.59,217.81l.05.09.07.11-.38.69c-.2.08-.41.23-.6.51l-.08.12-.04.14-.08.24c-.05.14-.09.29-.14.44l.09-.66c.29-.42.6-.86.92-1.32l.04-.06.03-.07c.04-.08.08-.16.12-.23M96.96,217.82l.05.08.07.11-.38.69c-.06.02-.13.06-.19.1.14-.33.3-.66.46-.98M221.75,219.03h0s-1.45,5.36-1.45,5.36l1.05-1.75c-.18.38-.3.72-.41,1.03-.15.42-.28.79-.56,1.25l-.15.24v.09s-.09-.09-.14-.12c.55-2,1.13-4.14,1.65-6.09M137.43,219.71c-.5,1.06-.96,2.21-1.37,3.43l-.7,2.12-.3.2c.35-1.25.71-2.43,1.04-3.48l.16-.51,1.16-1.75M168.56,222.75l-.02.05s0-.03.01-.04h0M214.4,222.91l.06.14c-.11.15-.21.3-.33.44l-.05-.07c.11-.17.21-.34.32-.52M175.17,224.35c.07.04.15.06.23.08l-.22.11s-.06.03-.08.05c.02-.08.05-.16.07-.23M188.95,224.41s.07.03.11.04c-.04.34-.06.64-.07.9-.03-.23-.03-.44-.03-.59v-.35M159.52,225.18c-.02.17-.03.33-.04.49h0v-.18s-.04-.19-.04-.19v-.03l.09-.1M196.1,225.18c-.02.17-.03.33-.04.49,0,0,0,0,0-.01v-.16s-.04-.19-.04-.19v-.03l.09-.1M137.02,225.27v.07s-.03-.02-.03-.02l.03-.04M234.15,225.4v.05c0,.06.01.11.02.17-.02-.07-.04-.15-.06-.22h.04M125.62,225.4v.05c0,.06.01.11.02.17-.02-.07-.04-.15-.06-.22h.04M95.51,225.4v.05c0,.06.01.11.02.17-.02-.07-.04-.15-.06-.22h.04M88.94,225.58c-.01.09-.03.17-.05.23l-.44.22s-.05-.04-.06-.06c.03-.39.16-.39.39-.39h.16M81.42,225.58c-.01.09-.03.17-.05.23l-.44.22s-.05-.04-.06-.06c.03-.39.16-.39.39-.39h.16M73.91,225.58c-.01.09-.03.17-.05.23l-.44.22s-.05-.04-.06-.06c.03-.39.16-.39.39-.39h.16M411.95,228.82l13.75,19.22h-2.93l-6.31-8.76-1.81-2.51v15.3h-2.69s0-23.24,0-23.24M421.75,250.03l.25.35h-1.48l.25-.35h.98M392.64,60.7c-4.52,0-8.33,2.96-8.33,8.36,0,9.08,11.15,7.75,11.15,14.35,0,2.55-1.73,3.77-3.47,3.77-3.06,0-6.36-3.64-6.6-9.21h-1.39v10.91h1.46c.07-1.05.17-1.94,1.02-1.94,1.36,0,3.5,2.35,7.34,2.35,4.08,0,8.67-2.65,8.67-8.81,0-10-12.04-8.6-12.04-14.69,0-2.11,1.26-3.43,3.23-3.43,3.71,0,5.75,4.28,5.81,8.19h1.5v-9.38h-1.46c-.07,1.05-.2,1.73-.78,1.73-1.05,0-2.31-2.21-6.12-2.21h0ZM388.08,63.42c.54-.44,1.36-.82,2.11-1.02-.24.27-.58.71-.68,1.02h-1.43ZM399.81,65.53c-.17-.41-.58-1.02-.82-1.39.24,0,.65-.07.82-.2v1.6h0ZM386.52,65.16c.2-.31.41-.61.65-.88h2.01c-.1.27-.14.58-.17.88h-2.48ZM385.84,66.89c.07-.31.14-.61.27-.88h2.86c0,.31.07.61.1.88h-3.23ZM385.57,68.66c0-.31.03-.61.07-.88h3.64c.14.31.24.61.41.88h-4.11ZM385.67,70.39c-.07-.27-.1-.58-.1-.88h4.69c.24.31.54.61.85.88h-5.44ZM386.32,72.12c-.17-.27-.31-.58-.41-.88h6.36c.44.31.99.61,1.5.88h-7.45ZM387.74,73.86c-.31-.27-.61-.58-.88-.88h8.46c.51.27,1.05.58,1.56.88h-9.15ZM390.4,75.63c-.48-.31-.99-.61-1.5-.88h9.25c.37.27.71.58,1.02.88h-8.77ZM393.29,77.36c-.48-.31-.95-.61-1.43-.88h7.96c.2.27.41.58.54.88h-7.07ZM395.22,79.09c-.24-.31-.51-.61-.82-.88h6.26c.1.27.17.58.24.88h-5.68ZM396.24,80.83c-.1-.31-.24-.61-.41-.88h5.17v.88h-4.76ZM396.65,82.56c-.03-.31-.07-.61-.14-.88h4.42c-.03.31-.1.61-.17.88h-4.11ZM396.62,84.33c.03-.27.07-.58.07-.88h3.81c-.1.31-.24.61-.37.88h-3.5ZM385.3,85.76v-1.94c.31.61.68,1.19,1.05,1.7-.41,0-.78.1-1.05.24h0ZM396.07,86.06c.14-.27.27-.58.37-.88h3.16c-.24.31-.51.61-.82.88h-2.72ZM394.3,87.9c.41-.24.92-.65,1.19-.99h2.18c-.85.51-2.04.88-3.37.99h0ZM345.17,60.77c-6.43,0-11.49,5.85-11.49,14.31s5.07,14.31,11.46,14.31,11.59-6.08,11.59-14.38-5.07-14.25-11.56-14.25h0ZM345.21,88.14c-1.67,0-2.89-1.94-2.89-5.88v-14.42c0-3.98,1.22-5.85,2.89-5.85s2.92,1.94,2.92,5.85v14.42c0,3.94-1.19,5.88-2.92,5.88h0ZM349.02,63.83c-.1-.31-.24-.65-.37-.92.51.2.92.41,1.63.92h-1.26ZM340.18,63.83c.65-.44,1.05-.68,1.63-.92-.14.27-.27.61-.37.92h-1.26ZM349.39,65.5c-.03-.31-.1-.61-.17-.88h2.01c.31.27.58.58.85.88h-2.69ZM338.34,65.5c.27-.31.54-.61.85-.88h2.01c-.07.27-.1.58-.17.88h-2.69ZM349.56,67.16l-.07-.88h3.23c.2.27.37.58.58.88h-3.74ZM337.15,67.16c.17-.31.37-.61.58-.88h3.23l-.07.88h-3.74ZM349.56,68.83v-.88h4.15c.17.27.31.58.41.88h-4.56ZM336.34,68.83l.41-.88h4.15v.88h-4.56ZM349.56,70.53v-.88h4.9l.27.88h-5.17ZM335.72,70.53l.27-.88h4.9v.88h-5.17ZM349.56,72.19v-.88h5.34l.17.88h-5.51ZM335.38,72.19l.17-.88h5.34v.88h-5.51ZM349.56,73.86v-.88h5.64l.07.88h-5.71ZM335.18,73.86l.07-.88h5.64v.88h-5.71ZM349.56,75.52v-.88h5.75v.88h-5.75ZM335.15,75.52v-.88h5.75v.88h-5.75ZM349.56,77.19v-.88h5.71l-.1.88h-5.61ZM335.25,77.19l-.07-.88h5.71v.88h-5.64ZM349.56,78.86v-.88h5.51l-.17.88h-5.34ZM335.55,78.86l-.17-.88h5.51v.88h-5.34ZM349.56,80.52v-.88h5.13l-.27.88h-4.86ZM336.03,80.52l-.27-.88h5.13v.88h-4.86ZM349.56,82.22v-.88h4.52c-.1.31-.24.61-.41.88h-4.11ZM336.78,82.22l-.41-.88h4.52v.88h-4.11ZM349.49,83.89l.07-.88h3.71c-.17.31-.37.61-.58.88h-3.2ZM337.76,83.89c-.2-.27-.41-.58-.58-.88h3.71l.07.88h-3.2ZM349.22,85.55c.07-.27.14-.58.17-.88h2.69c-.27.31-.54.61-.85.88h-2.01ZM339.23,85.55c-.31-.27-.58-.58-.85-.88h2.69c.03.31.1.61.17.88h-2.01ZM348.61,87.25c.14-.27.27-.61.37-.92h1.26c-.65.44-1.05.68-1.63.92h0ZM341.84,87.25c-.51-.2-.92-.41-1.63-.92h1.26c.1.31.24.65.37.92h0ZM67.77,60.77c-6.19,0-11.76,4.25-11.76,14.18,0,8.67,4.25,14.48,11.29,14.48,3.26,0,6.09-1.26,8.57-1.26,1.29,0,2.31.34,3.3.92l.1-1.56c-.54-.34-1.29-.71-2.18-.95v-7.89c0-.48.24-.75.68-.82l1.7-.17v-1.29h-12.31v1.26l1.77.2c.48.07.71.34.71.82v9.08c-.37.07-.75.14-1.12.14-4.18,0-4.25-5.71-4.25-13.29s1.26-12.24,4.49-12.24,6.26,2.99,6.8,8.87h1.43v-10.2h-1.43c-.1,1.22-.27,1.83-.95,1.83,0,0-.02,0-.02,0-.99,0-2.8-2.11-6.81-2.11h0ZM62.84,63.35c.82-.44,1.6-.71,2.58-.95-.2.27-.48.61-.68.95h-1.9ZM75.69,65.6c-.24-.51-.54-1.09-.88-1.5h.1c.24,0,.58-.07.78-.24v1.73h0ZM60.6,65.05c.31-.31.65-.61.99-.88h2.72c-.14.31-.24.58-.34.88h-3.37ZM59.34,66.79c.17-.31.37-.61.58-.88h3.81c-.07.31-.17.58-.24.88h-4.15ZM58.49,68.52c.1-.31.24-.61.37-.88h4.45c-.03.27-.1.58-.14.88h-4.69ZM57.95,70.25c.07-.31.17-.61.24-.88h4.9l-.1.88h-5.03ZM57.61,71.99c.07-.31.1-.61.17-.88h5.17c-.03.27-.03.58-.07.88h-5.27ZM57.44,73.69c.03-.27.07-.58.07-.88h5.34v.88h-5.41ZM57.44,75.42v-.88h5.41v.88h-5.41ZM57.54,77.16c-.03-.31-.03-.58-.07-.88h5.37v.88h-5.3ZM71.07,78.89v-.24c0-.24-.03-.44-.1-.65h4.79c-.07.2-.1.41-.1.65v.24h-4.59ZM57.78,78.89l-.17-.88h5.24c0,.27.03.58.03.88h-5.1ZM71.07,80.62v-.88h4.59v.88h-4.59ZM58.18,80.62c-.07-.31-.17-.61-.24-.88h4.96c.03.27.03.58.07.88h-4.79ZM71.07,82.32v-.88h4.59v.88h-4.59ZM58.83,82.32c-.14-.27-.27-.58-.37-.88h4.56l.1.88h-4.28ZM71.07,84.06v-.88h4.59v.88h-4.59ZM59.78,84.06c-.2-.27-.37-.58-.54-.88h4.01c.03.31.1.61.14.88h-3.6ZM71.07,85.79v-.88h4.59v.88h-4.59ZM61.31,85.79c-.31-.27-.61-.58-.88-.88h3.2c.07.31.17.61.27.88h-2.58ZM71.07,87.49v-.85h4.59v.17c-1.53.03-2.99.31-4.59.68h0ZM65.02,87.8c-1.26-.41-1.94-.75-2.62-1.16h1.87c.14.31.54.88.75,1.16h0ZM283.98,61.01h-3.3l-8.26,24.78c-.34,1.02-1.22,1.67-2.31,1.67h-.58v1.43h7.04v-1.43h-1.02c-1.05,0-1.56-.44-1.56-1.22,0-.24.07-.48.14-.75l1.46-4.69h6.29l1.63,5.37c.03.1.07.27.07.41,0,.44-.24.88-1.02.88h-1.29v1.43h13.09v-1.43h-.58c-.78,0-1.39-.48-1.63-1.22l-8.16-25.23h0ZM281.39,63.32l.31-.88h1.22l.27.88h-1.8ZM280.85,65.02l.31-.88h2.35l.27.88h-2.92ZM280.27,66.75l.31-.88h3.47l.27.88h-4.05ZM279.69,68.49l.31-.88h4.62l.27.88h-5.2ZM280.1,70.19l-.27-.88h5.34l.27.88h-5.34ZM276.05,79.37l2.72-8.67,2.65,8.67h-5.37ZM280.61,71.92l-.27-.88h5.37l.27.88h-5.37ZM281.15,73.65l-.27-.88h5.37l.31.88h-5.41ZM281.7,75.39l-.27-.88h5.41l.31.88h-5.44ZM282.21,77.09l-.27-.88h5.44l.31.88h-5.47ZM282.75,78.82l-.27-.88h5.47l.31.88h-5.51ZM283.26,80.56l-.27-.88h5.51l.27.88h-5.51ZM283.81,82.26l-.27-.88h5.54l.27.88h-5.54ZM284.32,83.99l-.27-.88h5.58l.27.88h-5.58ZM284.86,85.72l-.27-.88h5.61l.27.88h-5.61ZM272.21,87.49c.41-.31.75-.71.92-1.05.03.37.2.71.48,1.05h-1.39ZM284.79,87.46c.1-.27.17-.58.2-.88h5.75l.03.1c.1.24.24.54.37.78h-6.36ZM198.16,61.01h-3.3l-8.26,24.78c-.34,1.02-1.22,1.67-2.31,1.67h-.58v1.43h7.04v-1.43h-1.02c-1.05,0-1.56-.44-1.56-1.22,0-.24.07-.48.14-.75l1.46-4.69h6.29l1.63,5.37c.03.1.07.27.07.41,0,.44-.24.88-1.02.88h-1.29v1.43h13.09v-1.43h-.58c-.78,0-1.39-.48-1.63-1.22l-8.16-25.23h0ZM195.58,63.32l.31-.88h1.22l.27.88h-1.8ZM195.03,65.02l.31-.88h2.35l.27.88h-2.92ZM194.45,66.75l.31-.88h3.47l.27.88h-4.05ZM193.88,68.49l.31-.88h4.62l.27.88h-5.2ZM194.28,70.19l-.27-.88h5.34l.27.88h-5.34ZM190.24,79.37l2.72-8.67,2.65,8.67h-5.37ZM194.79,71.92l-.27-.88h5.37l.27.88h-5.37ZM195.34,73.65l-.27-.88h5.37l.31.88h-5.41ZM195.88,75.39l-.27-.88h5.41l.31.88h-5.44ZM196.39,77.09l-.27-.88h5.44l.31.88h-5.47ZM196.94,78.82l-.27-.88h5.47l.31.88h-5.51ZM197.45,80.56l-.27-.88h5.51l.27.88h-5.51ZM197.99,82.26l-.27-.88h5.54l.27.88h-5.54ZM198.5,83.99l-.27-.88h5.58l.27.88h-5.58ZM199.04,85.72l-.27-.88h5.61l.27.88h-5.61ZM186.4,87.49c.41-.31.75-.71.92-1.05.03.37.2.71.48,1.05h-1.39ZM198.98,87.46c.1-.27.17-.58.2-.88h5.75l.03.1c.1.24.24.54.37.78h-6.36ZM381.72,61.18h-6.39v1.43h.68c1.43,0,1.7.2,1.7,1.7v13.63l-8.46-16.76h-10.23v1.43h.68c1.29,0,1.67.2,1.67,1.29v21.86c0,1.43-.34,1.7-1.77,1.7h-.71v1.43h6.7v-1.43h-.85c-1.33,0-1.67-.31-1.7-1.7l-.2-19.24,10.95,22.37h5.44l.2-24.61c0-1.46.41-1.67,1.63-1.67h.68v-1.43h0ZM378.53,63.35c-.14-.27-.27-.54-.48-.82h.95c-.2.27-.34.54-.48.82h0ZM362.96,63.49l-.24-.48c-.07-.14-.14-.27-.24-.41h5.92l.44.88h-5.88ZM363.77,65.19l-.44-.88h5.92l.44.88h-5.92ZM364.62,66.89l-.44-.88h5.95l.44.88h-5.95ZM365.44,68.62l-.44-.88h5.98l.44.88h-5.98ZM366.29,70.32l-.44-.88h5.98l.48.88h-6.02ZM367.14,72.06l-.44-.88h6.02l.44.88h-6.02ZM367.96,73.76l-.44-.88h6.05l.44.88h-6.05ZM368.8,75.46l-.44-.88h6.08l.44.88h-6.09ZM369.62,77.19l-.44-.88h6.12l.44.88h-6.12ZM370.47,78.89l-.44-.88h6.15l.44.88h-6.15ZM371.32,80.59l-.44-.88h6.15l.44.88h-6.15ZM372.14,82.32l-.44-.88h6.12v.88h-5.68ZM372.99,84.02l-.44-.88h5.3l-.03.88h-4.83ZM373.8,85.72l-.44-.88h4.45v.88h-4.01ZM374.65,87.46l-.44-.88h3.6v.88h-3.16ZM361.63,87.49c.2-.27.34-.54.48-.82.14.27.27.54.48.82h-.95ZM331.54,61.18h-13.09v1.43h1.02c1.43,0,1.73.27,1.73,1.7v21.69c0,1.19-.34,1.46-1.7,1.46h-1.02v1.43h13.05v-1.43h-1.02c-1.43,0-1.7-.27-1.7-1.7v-21.45c0-1.43.27-1.7,1.7-1.7h1.02v-1.43h0ZM322.57,63.49c-.03-.34-.14-.65-.24-.88h5.34c-.1.24-.17.54-.2.88h-4.9ZM322.6,65.19v-.88h4.79v.88h-4.79ZM322.6,66.89v-.88h4.79v.88h-4.79ZM322.6,68.62v-.88h4.79v.88h-4.79ZM322.6,70.32v-.88h4.79v.88h-4.79ZM322.6,72.06v-.88h4.79v.88h-4.79ZM322.6,73.76v-.88h4.79v.88h-4.79ZM322.6,75.46v-.88h4.79v.88h-4.79ZM322.6,77.19v-.88h4.79v.88h-4.79ZM322.6,78.89v-.88h4.79v.88h-4.79ZM322.6,80.59v-.88h4.79v.88h-4.79ZM322.6,82.32v-.88h4.79v.88h-4.79ZM322.6,84.02v-.88h4.79v.88h-4.79ZM322.6,85.72v-.88h4.79v.88h-4.79ZM322.33,87.46c.1-.27.2-.54.24-.88h4.9c.03.34.1.61.2.88h-5.34ZM315.97,61.18h-22.71v11.42h1.5c0-3.77,2.82-10,5.54-10.03.2,0,.37,0,.37.34v22.85c0,1.43-.27,1.7-1.7,1.7h-1.02v1.43h13.33v-1.43h-1.02c-1.43,0-1.7-.27-1.7-1.7v-22.85c0-.34.17-.34.37-.34,2.72.03,5.54,6.26,5.54,10.03h1.5v-11.42h0ZM312.7,63.49c-.27-.31-.54-.61-.82-.88h2.65v.88h-1.84ZM302.1,63.49v-.58c0-.1,0-.2-.03-.31h5.1c-.03.1-.03.2-.03.31v.58h-5.03ZM294.69,63.49v-.88h2.65c-.27.27-.54.58-.82.88h-1.83ZM302.1,65.19v-.88h5.03v.88h-5.03ZM314.54,66.17c-.44-.82-.71-1.16-1.22-1.84h1.22v1.84h0ZM294.69,66.17v-1.84h1.22c-.51.68-.78,1.02-1.22,1.84h0ZM302.1,66.92v-.88h5.03v.88h-5.03ZM302.1,68.62v-.88h5.03v.88h-5.03ZM302.1,70.32v-.88h5.03v.88h-5.03ZM302.1,72.06v-.88h5.03v.88h-5.03ZM302.1,73.76v-.88h5.03v.88h-5.03ZM302.1,75.46v-.88h5.03v.88h-5.03ZM302.1,77.19v-.88h5.03v.88h-5.03ZM302.1,78.89v-.88h5.03v.88h-5.03ZM302.1,80.62v-.88h5.03v.88h-5.03ZM302.1,82.32v-.88h5.03v.88h-5.03ZM302.1,84.02v-.88h5.03v.88h-5.03ZM302.1,85.76v-.88h5.03v.88h-5.03ZM301.83,87.46c.1-.24.17-.54.2-.88h5.17c.03.34.1.65.2.88h-5.58ZM267.69,61.18h-19.51l.03,11.42h1.43c0-2.35,1.94-10,5.81-10h4.08l-12.14,24.75-.03,1.53h20.81l.24-11.29h-1.43c-.37,3.57-3.03,9.89-7.11,9.89l-3.64-.03,11.32-24.85.14-1.43h0ZM260.69,63.49l.44-.88h4.86l-.41.88h-4.9ZM249.57,63.49v-.88h2.69c-.31.27-.54.54-.82.88h-1.87ZM259.87,65.19l.44-.88h4.93l-.41.88h-4.96ZM249.57,65.19v-.88h1.29c-.17.27-.34.58-.51.88h-.78ZM259.02,66.89l.44-.88h4.96l-.41.88h-5ZM249.57,66.89v-.88h.54l-.54.88h0ZM258.17,68.62l.44-.88h5.03l-.37.88h-5.1ZM257.35,70.32l.44-.88h5.1l-.41.88h-5.13ZM256.5,72.06l.44-.88h5.17l-.41.88h-5.2ZM255.65,73.76l.44-.88h5.24l-.41.88h-5.27ZM254.84,75.46l.44-.88h5.27l-.41.88h-5.3ZM253.99,77.19l.44-.88h5.34l-.41.88h-5.37ZM253.14,78.89l.44-.88h5.41l-.41.88h-5.44ZM252.29,80.59l.44-.88h5.47l-.41.88h-5.51ZM251.47,82.32l.44-.88h5.51l-.41.88h-5.54ZM266.29,84.02c.17-.27.44-.61.58-.92v.92h-.58ZM250.62,84.02l.44-.88h5.58l-.41.88h-5.61ZM265.28,85.72c.24-.27.44-.58.65-.88h.92l-.03.88h-1.53ZM249.77,85.72l.44-.88h5.64l-.41.88h-5.68ZM263.61,87.46c.34-.27.65-.58.95-.88h2.24l-.03.88h-3.16ZM248.96,87.46l.44-.88h5.71l-.41.88h-5.75ZM244.5,61.18h-13.09v1.43h1.02c1.43,0,1.73.27,1.73,1.7v21.69c0,1.19-.34,1.46-1.7,1.46h-1.02v1.43h13.05v-1.43h-1.02c-1.43,0-1.7-.27-1.7-1.7v-21.45c0-1.43.27-1.7,1.7-1.7h1.02v-1.43h0ZM235.53,63.49c-.03-.34-.14-.65-.24-.88h5.34c-.1.24-.17.54-.2.88h-4.9ZM235.56,65.19v-.88h4.79v.88h-4.79ZM235.56,66.89v-.88h4.79v.88h-4.79ZM235.56,68.62v-.88h4.79v.88h-4.79ZM235.56,70.32v-.88h4.79v.88h-4.79ZM235.56,72.06v-.88h4.79v.88h-4.79ZM235.56,73.76v-.88h4.79v.88h-4.79ZM235.56,75.46v-.88h4.79v.88h-4.79ZM235.56,77.19v-.88h4.79v.88h-4.79ZM235.56,78.89v-.88h4.79v.88h-4.79ZM235.56,80.59v-.88h4.79v.88h-4.79ZM235.56,82.32v-.88h4.79v.88h-4.79ZM235.56,84.02v-.88h4.79v.88h-4.79ZM235.56,85.72v-.88h4.79v.88h-4.79ZM235.29,87.46c.1-.27.2-.54.24-.88h4.9c.03.34.1.61.2.88h-5.34ZM222.5,61.18h-13.09v1.43h1.02c1.43,0,1.7.27,1.7,1.7v21.45c0,1.43-.27,1.7-1.7,1.7h-1.02v1.43h19.85l.27-11.25h-1.43c-.34,4.25-3.71,9.93-6.94,9.93-1.05,0-1.39-.58-1.39-2.45v-20.81c0-1.43.27-1.7,1.7-1.7h1.02v-1.43h0ZM213.53,63.49c-.07-.34-.14-.65-.24-.88h5.34c-.1.24-.17.54-.2.88h-4.9ZM213.56,65.19v-.88h4.79v.88h-4.79ZM213.56,66.92v-.88h4.79v.88h-4.79ZM213.56,68.62v-.88h4.79v.88h-4.79ZM213.56,70.32v-.88h4.79v.88h-4.79ZM213.56,72.06v-.88h4.79v.88h-4.79ZM213.56,73.76v-.88h4.79v.88h-4.79ZM213.56,75.46v-.88h4.79v.88h-4.79ZM213.56,77.19v-.88h4.79v.88h-4.79ZM213.56,78.89v-.88h4.79v.88h-4.79ZM213.56,80.62v-.88h4.79v.88h-4.79ZM213.56,82.32v-.88h4.79v.88h-4.79ZM227.33,84.16c.17-.27.48-.71.61-1.02l.03,1.02h-.65ZM213.56,84.02v-.88h4.79v.88h-4.79ZM213.56,85.76v-.88h4.79v.24l.03.65h-4.83ZM226.35,85.79c.24-.31.44-.58.65-.88h.95v.88h-1.6ZM224.75,87.46c.34-.27.65-.58.95-.88h2.21l-.03.88h-3.13ZM213.29,87.46c.1-.27.17-.54.24-.88h4.96c.03.31.14.61.24.88h-5.44ZM168.82,61.18h-12.51v1.43h1.02c1.43,0,1.7.27,1.7,1.7v21.45c0,1.43-.27,1.7-1.7,1.7h-1.02v1.43h12.92v-1.43h-1.02c-1.43,0-1.7-.27-1.7-1.7v-10.54c.07-.03.14-.03.44-.03,2.55,0,3.23,2.65,3.81,6.66.41,2.86,1.12,7.48,6.05,7.48,3.84,0,5.78-2.79,5.92-6.77l-1.43-.24c-.14,1.8-.54,2.92-1.26,2.92s-.61-1.09-.68-1.73c-.14-1.56-.68-7.58-6.29-8.57v-.14c3.54-.41,5.95-3.03,5.95-6.97,0-4.73-3.5-6.66-10.2-6.66h0ZM167.36,74.06c-.34,0-.61-.03-.85-.14v-11.46c.24-.07.51-.1.82-.1,2.62,0,3.81,2.11,3.81,5.88s-1.12,5.81-3.77,5.81h0ZM160.42,63.49c-.07-.34-.14-.65-.24-.88h4.9v.88h-4.66ZM171.54,63.59c-.17-.34-.37-.68-.58-.95,1.09,0,3.16.37,4.22.95h-3.64ZM160.46,65.19v-.88h4.62v.88h-4.62ZM172.18,65.33c-.07-.31-.17-.61-.27-.88h4.38c.24.27.48.54.65.88h-4.76ZM160.46,66.92v-.88h4.62v.88h-4.62ZM172.52,67.06c-.03-.31-.07-.61-.14-.88h4.93c.1.27.17.58.2.88h-5ZM160.46,68.62v-.88h4.62v.88h-4.62ZM172.52,68.83c.03-.2.03-.37.03-.54v-.34h5.03v.03c0,.27-.03.58-.07.85h-5ZM160.46,70.32v-.88h4.62v.88h-4.62ZM172.35,70.56c.07-.31.1-.58.14-.88h4.86c-.07.31-.2.58-.34.88h-4.66ZM160.46,72.06v-.88h4.62v.88h-4.62ZM171.84,72.29l.31-.88h4.35c-.2.31-.48.61-.78.88h-3.88ZM160.46,73.76v-.88h4.62v.88h-4.62ZM170.76,74.06c.24-.24.51-.58.71-.92h3.09c-1.22.68-2.24.92-3.81.92h0ZM160.46,75.46v-.88h4.62v.88h-4.62ZM170.69,76.14c-.17-.34-.31-.58-.51-.82,1.29,0,2.38.2,3.57.82h-3.06ZM160.46,77.19v-.88h4.62v.88h-4.62ZM171.4,77.8c-.1-.31-.2-.61-.34-.88h3.84c.31.27.61.54.88.88h-4.39ZM160.46,78.89v-.88h4.62v.88h-4.62ZM171.81,79.5l-.2-.88h4.76c.17.27.34.58.48.88h-5.03ZM160.46,80.62v-.88h4.62v.88h-4.62ZM172.12,81.17l-.14-.88h5.24c.1.27.2.58.27.88h-5.37ZM160.46,82.32v-.88h4.62v.88h-4.62ZM172.35,82.83l-.14-.88h5.47l.17.88h-5.51ZM160.46,84.02v-.88h4.62v.88h-4.62ZM172.73,84.5c-.1-.27-.17-.58-.24-.88h5.44v.03c0,.27.03.54.1.85h-5.3ZM160.46,85.76v-.88h4.62v.88h-4.62ZM173.51,86.2c-.17-.27-.34-.58-.48-.88h5.2c.1.34.27.65.48.88h-5.2ZM160.18,87.46c.1-.27.17-.54.24-.88h4.73c.03.34.1.61.2.88h-5.17ZM176.67,87.9c-.88,0-1.73-.2-2.55-.92h5.51c-.82.68-1.77.92-2.96.92h0ZM152.23,61.18h-20.7v1.43h1.02c1.43,0,1.7.27,1.7,1.7v21.45c0,1.43-.27,1.7-1.7,1.7h-1.02v1.43h20.91l.34-11.05h-1.53c-.2,4.28-3.74,9.79-7.85,9.79-1.26,0-1.53-.51-1.53-1.87l.03-10.4c2.28,0,4.25,2.07,4.25,6.05h1.53v-13.39h-1.53c0,3.43-1.97,5.92-4.25,5.92v-11.12c0-.24.71-.27,1.05-.27,3.98.07,7.75,2.75,7.75,7.75h1.53v-9.11h0ZM149.17,63.35c-.31-.27-.65-.51-.99-.75h2.62v.75h-1.63ZM135.6,63.49c-.03-.34-.1-.65-.2-.88h5.07v.88h-4.86ZM150.8,65.43c-.27-.48-.58-.92-.92-1.33h.92v1.33h0ZM135.67,65.19v-.88h4.79v.88h-4.79ZM135.67,66.92v-.88h4.79v.88h-4.79ZM135.67,68.62v-.88h4.79v.88h-4.79ZM135.67,70.32v-.88h4.79v.88h-4.79ZM135.67,72.06v-.88h4.79v.88h-4.79ZM144.54,74.16c.54-.24,1.33-.92,1.7-1.53v1.53h-1.7ZM135.67,73.76v-.88h4.79v.88h-4.79ZM135.67,75.46v-.88h4.79v.88h-4.79ZM146.24,76.54c-.37-.58-1.19-1.26-1.7-1.46h1.7v1.46h0ZM135.67,77.19v-.88h4.79v.88h-4.79ZM135.67,78.89v-.88h4.79v.88h-4.79ZM135.67,80.62v-.88h4.79l-.03.88h-4.76ZM135.67,82.32v-.88h4.76v.88h-4.76ZM150.46,84.19c.27-.41.51-.82.71-1.22l-.03,1.22h-.68ZM135.67,84.02v-.88h4.76v.88h-4.76ZM135.67,85.76v-.88h4.76v.88h-4.76ZM149.2,85.83c.27-.27.51-.58.71-.88h1.19l-.03.88h-1.87ZM147.5,87.46c.34-.27.68-.58,1.02-.88h2.55l-.03.88h-3.54ZM135.4,87.46c.1-.24.17-.54.2-.88h4.86c.03.34.1.61.2.88h-5.27ZM129.62,61.18h-6.39v1.43h.68c1.43,0,1.7.2,1.7,1.7v13.63l-8.46-16.76h-10.23v1.43h.68c1.29,0,1.67.2,1.67,1.29v21.86c0,1.43-.34,1.7-1.77,1.7h-.71v1.43h6.7v-1.43h-.85c-1.33,0-1.67-.31-1.7-1.7l-.2-19.24,10.95,22.37h5.44l.2-24.61c0-1.46.41-1.67,1.63-1.67h.68v-1.43h0ZM126.42,63.35c-.14-.27-.27-.54-.48-.82h.95c-.2.27-.34.54-.48.82h0ZM110.85,63.49l-.24-.48c-.07-.14-.14-.27-.24-.41h5.92l.44.88h-5.88ZM111.67,65.19l-.44-.88h5.92l.44.88h-5.92ZM112.51,66.89l-.44-.88h5.95l.44.88h-5.95ZM113.33,68.62l-.44-.88h5.98l.44.88h-5.98ZM114.18,70.32l-.44-.88h5.98l.48.88h-6.02ZM115.03,72.06l-.44-.88h6.02l.44.88h-6.02ZM115.85,73.76l-.44-.88h6.05l.44.88h-6.05ZM116.7,75.46l-.44-.88h6.08l.44.88h-6.09ZM117.51,77.19l-.44-.88h6.12l.44.88h-6.12ZM118.36,78.89l-.44-.88h6.15l.44.88h-6.15ZM119.21,80.59l-.44-.88h6.15l.44.88h-6.15ZM120.03,82.32l-.44-.88h6.12v.88h-5.68ZM120.88,84.02l-.44-.88h5.3l-.03.88h-4.83ZM121.69,85.72l-.44-.88h4.45v.88h-4.01ZM122.54,87.46l-.44-.88h3.6v.88h-3.16ZM109.52,87.49c.2-.27.34-.54.48-.82.14.27.27.54.48.82h-.95ZM102.69,61.18h-20.7v1.43h1.02c1.43,0,1.7.27,1.7,1.7v21.45c0,1.43-.27,1.7-1.7,1.7h-1.02v1.43h20.91l.34-11.05h-1.53c-.2,4.28-3.74,9.79-7.85,9.79-1.26,0-1.53-.51-1.53-1.87l.03-10.4c2.28,0,4.25,2.07,4.25,6.05h1.53v-13.39h-1.53c0,3.43-1.97,5.92-4.25,5.92v-11.12c0-.24.71-.27,1.05-.27,3.98.07,7.75,2.75,7.75,7.75h1.53v-9.11h0ZM99.63,63.35c-.31-.27-.65-.51-.99-.75h2.62v.75h-1.63ZM86.06,63.49c-.03-.34-.1-.65-.2-.88h5.07v.88h-4.86ZM101.26,65.43c-.27-.48-.58-.92-.92-1.33h.92v1.33h0ZM86.13,65.19v-.88h4.79v.88h-4.79ZM86.13,66.92v-.88h4.79v.88h-4.79ZM86.13,68.62v-.88h4.79v.88h-4.79ZM86.13,70.32v-.88h4.79v.88h-4.79ZM86.13,72.06v-.88h4.79v.88h-4.79ZM95,74.16c.54-.24,1.33-.92,1.7-1.53v1.53h-1.7ZM86.13,73.76v-.88h4.79v.88h-4.79ZM86.13,75.46v-.88h4.79v.88h-4.79ZM96.71,76.54c-.37-.58-1.19-1.26-1.7-1.46h1.7v1.46h0ZM86.13,77.19v-.88h4.79v.88h-4.79ZM86.13,78.89v-.88h4.79v.88h-4.79ZM86.13,80.62v-.88h4.79l-.03.88h-4.76ZM86.13,82.32v-.88h4.76v.88h-4.76ZM100.92,84.19c.27-.41.51-.82.71-1.22l-.03,1.22h-.68ZM86.13,84.02v-.88h4.76v.88h-4.76ZM86.13,85.76v-.88h4.76v.88h-4.76ZM99.66,85.83c.27-.27.51-.58.71-.88h1.19l-.03.88h-1.87ZM97.96,87.46c.34-.27.68-.58,1.02-.88h2.55l-.03.88h-3.54ZM85.86,87.46c.1-.24.17-.54.2-.88h4.86c.03.34.1.61.2.88h-5.27ZM127.9,103.85h-4.5v25.38c0,1.31.05,2.88,1.12,4.23,1.4,1.75,3.56,1.89,4.59,1.89h1.31v-4.18h-.45c-.36,0-.99-.04-1.44-.45-.54-.5-.63-1.17-.63-1.71v-25.15h0ZM113.63,103.85h-3.96l-6.88,31.5h4.5l1.49-6.75h5.76l1.49,6.75h4.5l-6.88-31.5h0ZM109.22,124.59l2.34-11.97,2.43,11.97h-4.77ZM197.24,112.67c-2.43,0-3.91.9-4.81,1.8-.95.99-1.67,2.65-1.67,4.86,0,1.12.23,2.61,1.21,3.78.27.31,1.08,1.17,2.79,1.89l2.66,1.12c1.89.81,2.25,1.67,2.25,2.83,0,.58-.09,1.26-.58,1.8-.45.54-1.12.76-1.75.76s-1.44-.27-1.85-.72c-.4-.45-.58-1.12-.58-1.71h-4.5c0,1.62.54,3.42,1.66,4.63.9.99,2.52,1.98,5.22,1.98,2.83,0,4.5-1.08,5.44-2.25,1.21-1.49,1.44-3.29,1.44-4.37,0-1.93-.5-3.29-1.12-4.09-.63-.81-1.75-1.71-2.88-2.16l-2.7-1.12c-.58-.22-1.3-.54-1.75-1.17-.36-.5-.45-1.04-.45-1.44,0-1.53,1.08-2.25,2.21-2.25.63,0,1.21.18,1.62.58.36.36.63.95.67,1.62h4.41c0-1.75-.63-3.51-1.71-4.59-.77-.81-2.39-1.8-5.22-1.8h0ZM164.17,112.67c-2.07,0-3.92.72-5.04,1.84-1.04,1.04-1.89,2.79-1.84,4.81h4.27c.04-.58.27-1.08.58-1.44.5-.58,1.17-.81,1.8-.81.67,0,1.35.23,1.8.72.54.58.58,1.26.58,1.89v2.34c-1.39-.13-2.25-.13-2.56-.13-1.3,0-3.83.18-5.31,1.93-1.31,1.53-1.4,3.96-1.4,5.58,0,1.8.23,3.82,1.62,5.13,1.12,1.03,2.52,1.17,3.42,1.17.95,0,1.75-.18,2.61-.86.63-.5,1.21-1.21,1.53-1.71h.09v2.21h4.5v-15.61c0-1.53-.22-3.64-1.84-5.26-1.12-1.08-2.79-1.8-4.81-1.8h0ZM163.81,131.65c-.76,0-1.35-.32-1.8-1.04-.36-.58-.45-1.21-.45-1.84,0-.72.09-1.67.67-2.34.72-.86,1.8-.95,2.52-.95.49,0,1.03.04,1.57.13v3.15c0,1.98-1.17,2.88-2.52,2.88h0ZM188.74,113.02h-4.5l-2.79,13.86h-.18l-3.65-13.86h-4.86l6.52,21.28-.72,2.92c-.36,1.44-.63,1.94-.81,2.16-.63.86-1.48.95-2.11.95h-.86l.09,4.18h1.17c1.39,0,3.15-.09,4.5-1.39,1.35-1.31,1.75-3.46,2.07-4.77l6.12-25.33h0ZM155.53,113.02h-4.5l-2.79,14.13-2.75-14.13h-3.74l-2.65,14.13-2.88-14.13h-4.59l5.31,22.32h3.83l2.7-13.68h.23l2.7,13.68h3.83l5.31-22.32h0ZM91.99,120.65c-1.21,0-2.19.4-2.85.98-1.21,1.04-1.41,2.45-1.41,3.46v5.48c0,.86.03,2.33,1.04,3.46.75.84,1.99,1.38,3.32,1.38.98,0,1.96-.29,2.68-.81,1.41-1.01,1.61-2.42,1.61-3.49v-.12h-2.88c0,.32-.09.69-.26.98-.29.43-.66.6-1.15.6-.46,0-.87-.14-1.1-.4-.35-.35-.38-.81-.38-1.24v-1.84h5.82v-3.75c0-1.12-.17-2.56-1.44-3.66-.72-.63-1.76-1.04-3-1.04h0ZM90.6,126.87v-1.76c0-.37.06-.81.35-1.15.23-.29.63-.49,1.12-.49.46,0,.84.17,1.07.4.35.35.4.75.4,1.12v1.87h-2.94ZM86.19,120.65c-1.01,0-2.59.32-3.78,1.79l-.06-.03v-1.53h-2.88v14.3h2.88v-8.19c0-2.66,1.75-3.31,3.13-3.31.25,0,.49.02.7.06v-3.08h0ZM72.1,120.65c-1.33,0-2.51.46-3.23,1.18-.66.66-1.21,1.79-1.18,3.08h2.74c.03-.38.17-.69.37-.92.32-.38.75-.52,1.15-.52.43,0,.87.14,1.15.46.35.37.37.81.37,1.21v1.5c-.89-.09-1.44-.09-1.64-.09-.84,0-2.45.12-3.4,1.24-.84.98-.89,2.54-.89,3.57,0,1.15.14,2.45,1.04,3.29.72.66,1.61.75,2.19.75.61,0,1.12-.12,1.67-.55.4-.32.78-.78.98-1.1h.06v1.41h2.88v-10c0-.98-.14-2.33-1.18-3.37-.72-.69-1.79-1.15-3.08-1.15h0ZM71.87,132.81c-.49,0-.87-.2-1.15-.66-.23-.38-.29-.78-.29-1.18,0-.46.06-1.07.43-1.5.46-.55,1.15-.61,1.61-.61.32,0,.66.03,1.01.09v2.02c0,1.27-.75,1.84-1.61,1.84h0ZM153.53,202.08s-.23.23-.27.41c-.41,1.58-.81,2.97-1.21,4.41-1.53.13-3.1.31-4.37.5-.22,0-.36.04-.54.04h-.31c-.18,0-.36,0-.58-.09-.09-.04-.13-.09-.18-.09-.23,0-.36.18-.41.5,0,1.35,1.39,1.49,1.98,1.49.54-.04,1.04-.04,1.53-.18.81-.09,1.53-.22,2.29-.36h.04c-.54,1.67-1.08,3.38-1.75,5.31,0,.09-.04.27-.09.32-.1.15-.17.34-.24.54-.51.16-1.01.32-1.56.5-.36.14-2.47.99-2.47,1.04v-.76c0-.76-.32-1.67-.72-2.29l-.09-.13c-.13-.23-.36-.45-.58-.5-.04,0-.18-.04-.18-.09-.13-.09-.27-.14-.41-.14-.22,0-.41-.27-.58-.27-1.35.36-2.47,1.53-3.29,2.52l-.09.14c.04-.14.14-.32.18-.54.36-1.17.58-1.62.76-3.2l-.09-.85c-.04-.36-.13-.63-.32-.9-.04-.09-.04-.13-.04-.18-.04-.04-.04-.09-.22-.09-.32,0-.36.09-.5.22-.76,2.56-1.65,5.13-2.53,7.72-1.26,1.57-3,4-4.49,5.78-.85,1.04-3.55,4-4.72,4-.45,0-.81-.72-.85-1.44v-.5c0-1.89.85-4.59,1.17-5.31,2.34,0,5.31-1.8,5.4-4.82v-.22c0-1.08-1.49-1.58-2.34-1.67-2.06.52-3.71,2.48-4.82,4.75-2.23,3.26-5.67,8.4-8.41,9.43-.09.04-.18.04-.23.04h-.18c-.85,0-1.04-1.49-1.04-2.03,0-1.04.27-2.21.45-3.1l.18-.5c.14-.27.09-.5.18-.76l.18-.45c.9-2.25,2.25-5.09,4.23-6.57.05,0,.14,0,.18-.05l.09.36c-.22,1.04-.63,1.75-.95,2.75,0,.36.09.72.41.9.18.18.45.27.67.27.18,0,.23-.13.36-.18.27-.14.27-.41.4-.68.14-.45.32-.76.58-1.21.23-.45.45-.9.45-1.44,0-.13,0-.27-.04-.41,0-.58-.27-.9-.67-1.21l-.45-.36c-.31-.22-.85-.45-1.39-.45-.04,0-.5.09-.72.18l-.18.09c-.4.22-.72.41-1.17.76-3.64,3.83-5.04,8.55-5.04,11.25l.05.36c0,.77.22,1.71.63,2.39.36.72,1.39,1.48,2.11,1.66.14.04.23.04.27.04.09,0,.4-.04.58-.04.76-.14.99-.41.99-.41,1.26-.63,2.25-1.49,3.06-2.29.22-.18.31-.41.54-.58,0,0,0,0,0,0,.03,0,.24-.28.26-.28,0,0,0,0,0,0l.58-.67c.04-.09.13-.41.36-.45.28-.35.71-.94,1.16-1.58-.03.25-.06.49-.08.73,0,.27-.04.58-.04.85,0,2.39,1.12,4.37,2.83,4.37,2.74,0,6.11-4.23,7.91-6.69-1.18,3.72-2.2,7.47-2.64,11.23-.04.45-.09.9-.09,1.35,0,.54.04,1.08.18,1.62.09.41.77.67,1.17.67.18-.13.23-.36.23-.63v-.41c0-.09,0-.13.04-.13.09,0,.13-.09.13-.22s-.04-.36-.04-.5c0-.04,0-.13.04-.18.09-.32.13-.81.23-1.17l.76-3.83c.58-2.38.85-3.15,1.04-3.55.31.45.76.9,1.67,1.12h.18c.09,0,.13.04.18.04.23-.09.36-.13.54-.27.13-.09.27-.09.41-.22.13-.09.45-.13.45-.13,0,0,.18-.23.22-.23,0-.04,0-.13.09-.13,0-.04.04-.04.13-.09-.04,0-.18-.04-.13-.09.04,0,.23-.04.27-.09.09-.04.13-.18.18-.27l.72-.54s-.04.13-.04.13c-.13.18-.31.27-.5.41-.09.23-.18.36-.36.5-.23.22-.45.41-.68.54-.13.09-.27.22-.31.31l.45-.27s.18-.13.22-.13c.04-.09.13-.13.18-.13.23-.05.36-.32.5-.45,1.12-.86,3.2-3.29,4.54-7.6,1.17-.7,2.48-1.28,3.72-1.73-.06.17-.1.36-.12.56-.22.45-.41.85-.54,1.44-.04.04-.09.13-.09.22s.04.14.04.23l-.09.18c-.13.32-.32.95-.45,1.4-.13.49-.27,1.39-.5,1.89l-.18.76c0,.09,0,.23.04.36l-.27.9s-.04.14-.04.23v.22s0,.09.04.18l-.09.18v.27l-.09.18c-.04.18-.09.4-.09.72v.36l-.09.54c0,.27,0,.32.04.32v.18c0,.09,0,.18.04.27l.13-.14-.04.18s-.13,0-.18.04v.27c.09,0,.18-.04.32-.04.04.04.09.09.09.13s-.04.05-.14.05c-.04,0-.13,0-.18.09v.18c0,.18.09.41.18.45.09.04.14.22.14.31.04.23.18.09.27.27l.23.18v.22s0,0,0,0c.01,0,.05-.11.09-.19l.09.32s0,0,0,0c.03,0,.14-.11.22-.19,0,.09.04.18.09.27l.32.18-.04-.5c1.26-9.4,3.87-14.53,5.8-21.91.67-.04,1.39-.09,2.02-.18.36,0,.77-.04,1.08-.04h.72c.05,0,.09.01.14.02,0,0,0,.01,0,.02,0,1.35,1.39,1.49,1.98,1.49.54-.05,1.04-.05,1.53-.18.58-.04,1.17-.13,1.71-.22-1.31,3.38-2.7,6.93-3.56,10.48,0,.22-.04.5-.13.63-.04.13-.13.27-.13.5l-.09.27c-.09.27-.18.45-.18.72,0,.09-.04.13-.04.22-.04.13-.04.18-.04.18,0,.05-.04.32-.04.36l-.13.5c0,.13-.04.27-.09.5,0,.04-.04.09-.04.18v.58s-.04.27-.04.27c0,.04.04.18.04.18-.04.04-.04.09-.04.13v.41l.04.27c0,.32.04.41.09.67,0,.05,0,.14.04.18l.18.4c.09.05.09.23.27.32.04.04.22.22.4.32l.23.13c.22.22.67.31,1.08.31.31,0,.5-.09.67-.13.36-.09.41-.22.72-.36.32-.23.67-.41.99-.68,0,0,.13,0,.13-.13.32-.27.54-.41.76-.81.68-.32,2.97-3.24,3.42-3.83l.43-.59c-.22.68-.41,1.32-.57,1.89-.18.67-.41,1.21-.45,1.85,0,.36.14.94.58,1.08.41.09.32.32.72.32.27,0,.72,0,.99-.22.14-.09.23-.18.27-.32l.27-.41c1.75-2.65,4.86-7.69,6.66-8.59,0,.27-.04.5-.04.58-.54,2.97-2.38,5.94-2.7,8.96l-.04.54v.76c0,.23.04.45.09.63l.09.14c.18.45,1.17,1.17,2.03,1.17.27,0,.58-.09.95-.27,1.26-.76,4-4.17,5.24-5.96,0,.04-.02.08-.02.11,0,.09.04.13.09.22v.36c.05.09.09.22.09.22.22.77.54,1.04,1.08,1.35.09.04.14.09.14.09l.31.09c.23,0,.45,0,.72-.18,1.71-1.12,3.33-4.32,4.05-5.45-.27,1.21-.5,2.43-.5,3.92v.41c0,1.12.27,2.29,1.26,2.65.27.14.5.23.81.23.04,0,.27,0,.36-.04,1.64-.56,3.59-3.17,4.99-5.29,0,.07-.04.3-.04.34l-.13.5c0,.13-.04.27-.09.5,0,.04-.04.09-.04.18v.58s-.04.27-.04.27c0,.04.04.18.04.18-.04.04-.04.09-.04.13v.41l.04.27c0,.32.04.41.09.67,0,.05,0,.14.04.18l.18.4c.09.05.09.23.27.32.04.04.22.22.41.32l.22.13c.23.22.67.31,1.08.31.32,0,.5-.09.67-.13.36-.09.41-.22.72-.36.32-.23.68-.41.99-.68,0,0,.13,0,.13-.13.32-.27.54-.41.77-.81.67-.32,2.97-3.24,3.42-3.83l2.29-3.1c-.14.09-.36.18-.45.31-.09.09-.04.23-.18.27-.05.04-.18.36-.18.4-.21,0-.35.45-.4.45,0,0,0,0,0,0l-1.4,1.89c-.27.18-.22.18-.31.5,0-.04,0-.09-.05-.18-.09.18-.18.27-.27.41,0,0-.04.04-.04.13,0,.04-.18.13-.27.18-.04.13-.04.27-.18.41,0,0,0,0,0,0-.05,0-.44.28-.44.36-.09.18-.27.36-.4.49-.09.04-.23.32-.27.32-.22,0-.31.32-.54.45.27-.27.41-.54.63-.77l.18-.22c0-.09.27-.41.31-.41.09-.13.13-.18.18-.18,0-.13.22-.18.27-.22.22,0,.13-.18.18-.32.04,0,.09-.09.09-.13s.23-.04.23-.18c.04-.18.22-.27.27-.41.14-.13.27-.23.36-.36,0-.09.04-.22.22-.22,0-.04,0-.14.03-.14,0,0,.01,0,.02,0,.18,0,.27-.41.41-.5.09-.09.27-.45.36-.45,0-.04-.04-.09-.04-.13s.04-.09.13-.09.22-.09.22-.18c0,0,0-.04-.18-.04,0-.13.18-.18.32-.18l.13-.13v-.23s-.04.09-.18.09c.14-.13.27-.18.41-.22.09-.22.23-.36.36-.5.13-.13.45-.45.5-.58l.22-.22c.27-.5.32-.32.5-.67v-.54c.18-.04.22-.18.27-.27v-.22c0-.32-.22-.99-.45-.99,0,0-.05.09-.18.18-.09.09-.13.27-.27.41l-.5.63c-2.21,2.88-6.39,8.46-8.5,9.58-.09.04-.18.04-.22.04-.18,0-.18-.18-.18-.41.05-2.79,1.76-8.77,3.2-12.78.58-1.49,1.26-3.2,1.8-4.86,1.26-.09,2.57-.18,4.05-.18.54,0,.99,0,1.49.04.94.04,1.21.09,1.39.09.09-.18.58-.27.63-.31-.09-.04-.09-.22-.09-.27s.22-.04.27-.13c-.41-.45-1.98-.99-4.1-.99-1.39,0-2.25,0-3.1.05l.27-.9c.22-.45.27-1.21.36-1.89v-.27c-.18-.18-.18-.22-.18-.36,0-.45-.36-.54-.72-.54-.09,0-.18.04-.27.13l-.31.67-1.26,3.29-3.82.31c-1.31.09-3.33.27-4.63.27-.54,0-.95-.04-1.17-.09-.14-.04-.14-.09-.14-.09-.09,0-.31.05-.31.14-.09.13-.13.27-.13.4,0,.27.04.09.09.23.09.27.36.41.54.58.58.54,1.48.59,2.29.59h.85c2.29-.18,4.09-.36,5.76-.54-1.13,2.84-2.3,5.85-3.18,8.87-.89,1.33-2.04,3.04-2.85,4.18-1.58,2.25-3.2,4.27-3.65,4.27,0,0-.04,0-.13-.36,0-2.16,1.4-9.13,2.16-10.35.27-.49.32-1.12.36-1.57,0-.32-.04-.45-.54-.77l-.23-.09c-.76.04-.9.54-1.12.81-.18-.04-.5-.09-.76-.09-.45,0-.95.09-1.21.23-1.98.63-3.33,2.07-4.5,3.96-.21.33-.42.68-.62,1.02-2.58,3.5-6.43,8.57-7.75,9.46-.09,0-.09-.09-.09-.13v-.18c.04-.36.45-1.71.63-2.25.63-1.89.99-3.01,1.53-4.54l.09-.68c-.09,0-.09-.04-.09-.13,0-.04,0-.13.04-.22v-.18c.08-.25.21-.54.26-.54,0,0,0,0,.01,0,.04.09.09.09.09.18-.04,0-.18.22-.22.36l-.04.18c-.04.09-.04.13-.04.18,0,.01,0,.02.02.02.05,0,.21-.16.21-.2.31-1.17.41-2.16.41-3.33,0-.18-.18-.72-.32-.85,0-.09-.18-.27-.22-.36-.27-.27-1.26-.45-1.62-.45h-.27c-.22,0-.4,0-.58.18-.09,0-.22.09-.27.14-1.71,1.12-3.87,4.18-5.4,6.61,3.06-8.41,4.9-13.86,5.17-17.19,0-.5-.05-.85-.23-1.04-.09-.13-.27-.27-.27-.31,0,0-.23-.09-.32-.13-.04,0-.22-.04-.31-.04-.11,0-.22-.06-.26-.06,0,0-.02,0-.02.01-.12,2.22-2.29,8.14-4.13,13.41l-.14.18c-2.21,2.88-6.39,8.46-8.5,9.58-.09.04-.18.04-.22.04-.18,0-.18-.18-.18-.41.04-2.79,1.75-8.77,3.2-12.78.54-1.39,1.12-2.92,1.67-4.46.85-.13,1.8-.18,2.61-.27.36,0,.77-.04,1.08-.04h.72c.32.04.54.09.77.09h.72c.09,0,.41.09.5.09-.09-.04-.23-.27-.27-.27,0-.18.04-.05.04-.18l-.09-.18c-.18-.41-.81-.63-1.21-.72-1.08-.18-2.07-.27-3.1-.27-.41,0-.81.04-1.21.04l.4-1.3c.23-.45.27-1.21.36-1.89v-.27c-.18-.18-.18-.22-.18-.36,0-.45-.36-.54-.72-.54-.09,0-.18.04-.27.13l-.32.67c-.45,1.21-.9,2.47-1.39,3.74-1.39.13-2.79.27-3.96.45-.17,0-.29.02-.41.03l-.08-.17c-.18-.41-.81-.63-1.22-.72-1.3-.23-2.56-.23-3.87-.23l.4-1.84c.09-.36.09-.72.09-1.08v-.45c0-.41-.09-.77-.36-1.04-.04-.09-.45-.09-.45-.13,0,0-.22-.14-.36-.14h0ZM171.21,213.78s.18-.23.31-.23c.05,0-.13.14-.13.18-.04,0-.04.04-.18.04h0ZM137.01,223.46c1.67-5.04,4.41-8.82,6.21-9.81.18.41.27.86.31,1.35v.5c-.04.81-.09,1.21-.31,1.98-2.7,1.62-4.91,4-6.21,5.98h0ZM128.42,217.83l.22-.41c.95-1.71,1.71-2.38,2.66-3.1.04.09.18.04.18.18,0,1.26-1.71,3.01-3.06,3.33h0ZM183.63,224.36l.13-.41c0-.18,0-.36.09-.59.4-1.21,1.3-3.19,2.16-4.45,1.17-1.8,2.66-3.46,3.38-3.56.09,0,.32-.04.45-.04-.99,1.21-2.66,3.87-3.92,5.8-1.98,3.06-1.93,2.92-2.07,3.11-.09.09-.23.13-.23.13h0ZM128.51,217.07v-.22s.13,0,.13.09c0,.04-.04.09-.13.13h0ZM145.56,217.2s-.13,0-.09-.04l.27-.23s0-.02.01-.02c.02,0,.06.02.12.02,0,.04,0,.09-.09.09l-.22.18h0ZM147.05,224.31c.04-.5.23-1.53.41-2.12l.09-.36s.09-.68.27-1.04c.04,0,.09-.04.09-.23,0-.04,0-.09-.04-.13l.4-1.26s.58-1.89.63-1.93c-.04.27-.31,1.12-.31,1.12,0,.09-.22.99-.32,1.03,0,.14-.09.23-.09.32l.09-.13-.04.22c0,.18,0,.32-.13.45,0,0-.04,0-.04.18-.04.18-.13.86-.27.9-.09,0-.09.04-.09.09,0,.09.04.22.04.32-.04.04-.09.13-.09.22-.18.81-.22,1.17-.4,1.75l-.18.59h0ZM128.1,217.61l-.13-.22s.13-.13.18-.13c0,0,.27.04.27.09-.27,0-.32.18-.32.27h0ZM189.8,218.28l.22-.85v.41c0,.09-.04.31-.04.4-.22,0-.13.04-.18.04h0ZM145.43,217.74s-.09,0-.09-.14c0-.04.04-.09.09-.09s.09,0,.13-.04l-.13.27h0ZM176.39,218.78c.04-.09.04-.18.04-.22.09-.04.18-.18.36-.18,0,0,0,.14-.03.14,0,0,0,0-.01,0,0,.18-.09.27-.14.27l.04-.13s-.1-.1-.13-.1c0,0,0,0,0,0,0,0-.04.09-.13.22h0ZM116.76,220.26c.18-.22.32-.76.36-.99,0-.04.46-.69.53-.69,0,0,.01,0,.01.02l-.41.72c-.04.23-.27.81-.4,1.08,0,0-.04-.14-.08-.14,0,0,0,0-.01,0h0ZM170.04,219.86l.22-.72c0,.13,0,.36-.04.36,0,.31-.09.27-.18.36h0ZM169.68,220.22s-.04-.13-.04-.23c0-.22.18-.49.23-.58.04-.04.09-.09.13-.09-.04.04-.09.14-.09.14-.04.04-.04.09-.04.13,0,.09-.09.13-.09.18s.04.09.04.18-.13.27-.13.27h0ZM176.75,219.86l.09-.18c0-.09.04-.22.09-.32,0,0,.04.09.04.14l-.09.13c0,.13-.04.09-.13.22h0ZM116.58,220.08v-.18s0-.13.04-.22c.12,0,.17-.19.21-.19,0,0,0,0,.01,0l-.05.18c-.04.22-.09.31-.22.41h0ZM141.51,219.9c.04-.09.22-.22.36-.27,0,.09.04,0,.04.13-.09.09-.32.13-.41.13h0ZM127.43,219.63c-.36,1.08-.85,2.83-.99,4.14,0-.54.14-1.44.14-1.44,0,0,.04-.23.04-.32,0-.13-.04-.18-.09-.22l-.13.72c.04-.99.36-1.89.63-2.75,0,0,.09-.13.14-.13,0,0-.41,1.21-.5,1.58l-.14.58c.05-.09.09-.09.14-.09s.09-.13.09-.13c0-.13.13-.5.18-.5.04-.04.09-.27.09-.27,0,0-.07.1-.08.1,0,0,0,0,0,0l.23-.58c.04-.18.18-.5.27-.67h0ZM149.66,219.95v-.18s.09-.09.13-.09c0,0,.04.04.04.13,0,0,0,.04-.18.13h0ZM149.43,220.04l-.04-.14s.09-.18.14-.18c0,0,.04.09.04.13s-.14.13-.14.18h0ZM176.16,220.26l-.09-.32s.07-.19.12-.19c0,0,0,0,.01,0v.27c0,.13-.05.18-.05.22h0ZM141.69,220.26s.09-.09.09-.18c.04.04.04.13.04.13-.04,0-.04.04-.13.04h0ZM138,225.44c.18-1.04,2.88-3.96,4.09-4.95l.31-.22c-.36,1.3-3.15,4.95-4.41,5.17h0ZM168.26,220.4s0,0-.02,0c0-.04.02-.07.05-.1-.01.03-.02.07-.03.1h0ZM116.04,220.98c.04-.18.23-.5.32-.63v.27c0,.13-.18.36-.32.36h0ZM167.34,221.79c.18,0,.27-.41.41-.5.09-.09.27-.45.36-.45,0-.04-.05-.09-.05-.13,0-.04.04-.08.12-.09-.05.17-.11.34-.16.5l-.86,1.16c-.27.18-.23.18-.32.5,0-.04,0-.09-.04-.18-.09.18-.18.27-.27.41,0,0-.04.04-.04.13,0,.04-.18.13-.27.18-.04.13-.04.27-.18.41,0,0,0,0,0,0-.05,0-.44.28-.44.36-.09.18-.27.36-.41.49-.09.04-.22.32-.27.32-.22,0-.32.32-.54.45.27-.27.41-.54.63-.77l.18-.22c0-.09.27-.41.32-.41.09-.13.13-.18.18-.18,0-.13.23-.18.27-.22.22,0,.13-.18.18-.32.04,0,.09-.09.09-.13s.23-.04.23-.18c.04-.18.22-.27.27-.41.13-.13.27-.23.36-.36,0-.09.04-.22.22-.22,0-.04,0-.14.03-.14,0,0,.01,0,.02,0h0ZM189.53,221.75s-.04-.14-.04-.18,0-.18.04-.22c.04-.04.09-.18.09-.27,0-.13-.05-.18,0-.18l.09.27c-.09.23-.18.32-.18.59h0ZM116.13,221.48c.14-.09.14-.45.36-.45l.04.18c-.18,0-.18.04-.22.13,0,.09-.14.13-.18.13h0ZM148.94,221.57v-.18l.18-.04-.04.13s-.09.09-.13.09h0ZM176.7,221.61c-.09,0-.13-.04-.13-.04,0-.04.09-.13.13-.13v.18h0ZM148.44,222.02l-.14-.04s.05-.04.18-.09c0,.04-.04.09-.04.13h0ZM176.25,222.83s-.04-.13-.09-.22c0-.09.18-.36.27-.45,0,.09,0,.23-.09.32-.04.04-.09.09-.09.18v.18h0ZM175.89,222.65s.13-.22.13-.27.04-.14.13-.18l.05.18s-.09.13-.18.13c0,.04-.13.13-.13.13h0ZM123.92,222.56c.09-.09.18-.32.31-.36-.04.09-.31.58-.45.58,0,0-.05,0,.13-.22l-.13.04c.08-.04.15-.2.17-.2,0,0,0,0,0,.02,0,.09-.04.09-.04.13h0ZM116.09,223.41c-.04-.09-.04-.22-.04-.4.04-.09.04-.18.04-.27v-.22c0-.18.23-.27.27-.32l-.27,1.21h0ZM115.85,223.37s-.13-.2-.17-.37c0-.09.09-.23.18-.41v.18s0,.14-.04.18l.04.4s0,0-.01,0h0ZM189.39,223.5s-.09-.05-.18-.14c.13-.13.13-.27.18-.5l.04.41s-.04.18-.04.23h0ZM176.52,223.19l-.18-.18s.18-.04.22-.04c-.04.09-.04.18-.04.22h0ZM175.62,223.46s-.05-.09-.05-.13.09-.09.09-.13c0,0,.04-.09.13-.22,0,.13-.04.22-.13.27,0,.09,0,.18-.04.22h0ZM182.1,223.05h0s0,0,0,0h0s0,0,0,0h0ZM126.21,224s0-.04-.09-.31c0-.04.09-.09.13-.18,0,.18,0,.49-.04.49h0ZM141.78,224.58c.04-.22.14-.31.14-.45,0,0,.45-.58.49-.58l-.18.36s-.18.23-.18.32l-.27.36h0ZM115.82,224l.09-.36c.13,0,.04.09.18.13-.04.04-.13.18-.13.18l-.13.04h0ZM122.16,224.36l.36-.36c0-.09.04-.18.09-.22.13-.04.18-.09.22-.09-.09.09-.27.27-.27.36-.09.05-.31.32-.4.32h0ZM126.08,224.4v-.36c.18.14.18.23.18.32,0,0-.13.04-.18.04h0ZM180.53,224.63s.22-.27.27-.27l-.09.13s-.04.13-.18.13h0ZM180.39,225.08s0,0,0,0c.13-.13.27-.5.5-.54-.43.51-.49.54-.49.54h0ZM146.64,227.69l-.05-.23v-.18l.09-.27v-.18c0-.63.13-1.44.18-1.84,0-.13,0-.27.04-.45.09,0,.09.04.09.09v.23c-.13.81-.18,1.58-.31,2.38,0,.18,0,.32.04.36,0,.04-.04.09-.09.09h0ZM138.09,225.53s.09-.04.13-.09l.45-.18c-.09.13-.27.27-.58.27h0ZM114.65,225.71c-.09-.04-.14-.13-.14-.18s.05-.04.05-.22c.09,0,.09.04.09.4h0ZM175.35,225.98v-.18c0-.14.18-.32.27-.36,0,.18-.18.41-.27.54h0ZM147.72,226.02l.09-.5v.32c0,.09-.04.18-.09.18h0ZM148.08,225.98v-.18s0-.09.09-.18c.04.09.04.13.04.18s-.04.09-.13.18h0ZM139.71,225.62c0,.13-.18.27-.18.32.09,0,.09-.04.23-.13,0,.13-.04.27-.23.36-.09,0-.13-.04-.13-.13-.54.41-.67.5-.67.5l.58-.58c.09-.04.22-.13.27-.27.04,0,.09-.04.13-.04h0ZM178.46,227.06l.14-.14c.04-.09.09-.18.09-.27.09-.09.18-.18.22-.27v.36c0,.09-.04.18-.18.18-.04.05-.09.14-.27.14h0ZM135.12,227.24l.22-.63c0-.09,0-.13.13-.22,0,.09,0,.13.09.27-.14.09-.23.54-.45.58h0ZM197.76,227.73c.53-.13,1.74-1.08,1.8-1.08,0,0,0,0,0,0-.04.22-1.4,1.08-1.8,1.08h0ZM161.18,227.73c.53-.13,1.75-1.08,1.8-1.08,0,0,0,0,0,0-.04.22-1.4,1.08-1.8,1.08h0ZM148.22,227.15l-.18-.13s-.18-.04-.22-.09c0,0,.13-.04.18-.09,0-.09,0-.13.04-.18.09.04.18.22.18.27v.23h0ZM147.32,227.46c-.09,0-.23-.13-.27-.27.04-.09.09-.22.23-.27v.27l.13-.09s0,.36-.09.36h0ZM178.32,227.73l.36-.5s.09.04.13.04c-.13,0-.41.36-.5.45h0ZM177.7,227.79s0,0,0,0c0-.09.27-.27.32-.32,0,0,.04,0,.13-.09-.04.04-.09.09-.09.14-.04.04-.13.18-.18.18,0,0-.13.1-.17.1h0ZM116.76,227.73s.14-.04.18-.18c-.14,0-.27-.04-.27-.04.32,0,.58,0,.86-.05-.27.14-.54.27-.77.27h0ZM147.5,228l.04-.31s.09.04.18.04l-.04.27h-.18ZM146.64,228.09l.04-.18s.18-.09.18-.09c.03-.03.09-.06.12-.06.01,0,.02,0,.02.02,0,0-.04.09-.13.13,0,.09-.09.09-.22.18h0ZM134.85,228.32l-.13-.27c.09,0,.22-.18.22-.18v.18c0,.09,0,.18-.09.27h0ZM177.78,228.27s.09-.18.14-.23c.04-.09.09-.09.18-.09,0,.09-.23.27-.32.32h0ZM147.23,228.41l-.05-.18.18.13s-.09.04-.13.04h0ZM147.77,228.86s.09-.13.13-.27c0-.13.04-.27.13-.27,0,.22-.09.31-.09.41-.09,0-.09.13-.18.13h0ZM147.18,229.17v-.27s.09.09.09.13l-.09.13h0ZM133.32,229.71c0-.09.13-.81.13-.81,0,0,.13.22.13.27l-.27.54h0ZM134.27,231.33c.09,0,.09-.9.14-.99l-.05-.18s.05-.09.09-.09c0-.13,0-.18.04-.22.04-.05.09-.14.09-.27-.09-.13-.09-.18-.09-.22,0-.09.04-.09.09-.14,0,.14.04.27.09.36,0,.09-.04.22-.09.32.13-.14.22-.23.31-.23.04.04-.27.36-.27.45,0,.22-.04.41-.09.45s-.04.09-.04.13c0,.13.22.22.13.22,0,0-.04,0-.13.14-.04.04-.04.13-.04.18s0,.09-.04.13v.23c-.09.13-.14.22-.14.27,0,.36-.04.5-.09.5s-.13-.22-.13-.45c0-.18.09-.27.09-.41s-.09-.22-.09-.31.04-.22.09-.32c0,.14,0,.18.04.27,0,0,0,.18.09.18h0ZM134.04,233.76l.13-.27c0,.09.04.13.04.18-.04.04-.09.09-.18.09h0ZM133.68,233.85s0-.36.09-.36v.22c0,.09,0,.14-.09.14h0ZM116.09,211.26c-.22,0-.45.14-.67.14-.27,0-.45.27-.67.4-1.4.67-3.51,3.15-4.5,4.37l-1.3,1.71s-1.12-4-1.31-4.32c-.31-.5-.54-.54-1.12-.54l-.27-.13c-.09,0-.18,0-.22.04-.05,0-.14-.09-.23-.09-.04,0-.41.22-.41.41,0,.54.63,2.07.77,2.65l.35,1.27c-1.25,1.58-2.94,3.93-4.4,5.66-.85,1.04-3.55,4-4.72,4-.45,0-.81-.72-.85-1.44v-.5c0-1.89.85-4.59,1.17-5.31,2.34,0,5.31-1.8,5.4-4.82v-.22c0-1.08-1.49-1.58-2.34-1.67-3.74.95-6.12,6.62-6.39,10.26,0,.27-.04.58-.04.85,0,2.39,1.12,4.37,2.83,4.37,3.24,0,7.38-5.94,8.73-7.83l1.08-1.53s.02-.03.03-.05l.24.86s.04.09.04.13v.23l-.58.9c-.77,1.08-2.66,4.41-3.87,4.63-.04.04-.09.23-.09.27.18.18.27.45.63.45.04.04.09.04.13.04.27,0,.41-.27.41-.27.04,0,.22.45.31.45s.23-.04.27-.04c0,.04.04.22.04.22.04.04.09.04.18.04l.41-.27c.45-.27,2.25-2.79,2.97-3.87.5,1.62,1.58,4.23,2.07,4.77.27.4.45.49.94.49-.04.04.04.04.09.04s.14,0,.18-.04c0,0,.04-.13.09-.13.13,0,.22-.04.22-.18.04,0,.14,0,.14.04.09.09.27.13.27.13v-.22s-.09,0-.13-.04h.27c.09,0,.14-.04.18-.14.09-.09.13-.13.13-.18,0-.09-.18-.18-.23-.22-1.21-2.03-2.07-4.77-2.7-6.62,0-.67,4.9-6.52,6.12-7.65l.36-.27s.04-.04.13-.13h-.18s-.09,0-.13-.18c.04,0,.09,0,.18-.04.41,0,.45-.13.45-.41,0-.13-.09-.36-.13-.45-.14-.04-.23-.04-.32-.04h0ZM114.15,214.14s0,.02-.02.03c-.04.06-.11.17-.11.24-.04,0-.13-.04-.13-.04,0-.04.18-.14.25-.19.01-.02.02-.03.02-.03h0ZM98.31,217.83l.22-.41c.95-1.71,1.71-2.38,2.66-3.1.04.09.18.04.18.18,0,1.26-1.71,3.01-3.06,3.33h0ZM98.4,217.07v-.22s.13,0,.13.09c0,.04-.04.09-.13.13h0ZM98,217.61l-.13-.22s.13-.13.18-.13c0,0,.27.04.27.09-.27,0-.32.18-.32.27h0ZM97.32,219.63c-.36,1.08-.85,2.83-.99,4.14,0-.54.14-1.44.14-1.44,0,0,.04-.23.04-.32,0-.13-.04-.18-.09-.22l-.13.72c.04-.99.36-1.89.63-2.75,0,0,.09-.13.14-.13,0,0-.41,1.21-.5,1.58l-.14.58c.05-.09.09-.09.14-.09s.09-.13.09-.13c0-.13.13-.5.18-.5.04-.04.09-.27.09-.27,0,0-.07.1-.08.1,0,0,0,0,0,0l.23-.58c.04-.18.18-.5.27-.67h0ZM110.55,225.3s.04-.5.09-.5c0-.04-.09-.18-.09-.27-.04,0-.09-.27-.09-.31,0-.09-.04-.27-.09-.36-.04-.04-.04-.09-.04-.18,0-.04.04-.09.04-.13,0-.18-.13-.32-.18-.32.04,0,.13,0,.18.04,0,.18.04.32.09.45,0,.09.04.22.09.31,0,0,.09.09.09.14,0,.22,0,.27.04.31,0,0,.09.13.13.23,0,0,.04.09.04.18,0,.04.09.04.13.04-.04.04-.04.09-.04.13h-.13s.09.09.13.09.22.32.22.36c0,0,0,0,0,0-.03,0-.18-.19-.18-.19-.04,0-.09-.18-.18-.18,0,0,0,.09.18.27-.09,0-.27-.18-.31-.22-.04.04-.09.09-.14.09h0ZM96.11,224s0-.04-.09-.31c0-.04.09-.09.13-.18,0,.18,0,.49-.04.49h0ZM95.97,224.4v-.36c.18.14.18.23.18.32,0,0-.13.04-.18.04h0ZM111.45,226.16s-.09-.04-.13-.04c-.18,0-.23,0-.27-.04l-.13-.09.13-.09.41.27h0ZM111.41,227.06c-.04-.09-.13-.18-.13-.32l-.09-.27c0-.09,0-.14.05-.18h.22v.32s0,.13-.04.18l.22-.04c-.13.13-.13.18-.13.27,0-.09,0-.14-.04-.18-.04,0-.09.04-.09.09s.04.09.04.14h0ZM110.69,227.87s-.04,0-.18-.13c-.09-.04-.36-.5-.36-.72l-.23-.5.63.99.14.09s.13.13.13.22c-.04.04-.09.04-.13.04h0ZM216.34,211.98c-.09,0-.22.04-.31.04h-.27c-2.11.18-4.32,3.73-5.71,7.96,0,.05-.18.59-.18.63,0,.09-.04.13-.04.22,0,.04-.04.09-.04.13-.22.86-.5,1.94-.54,3.46,0,1.3,1.04,2.21,2.29,2.21.09,0,.18-.04.32-.09,3.24-1.21,5.71-6.21,5.71-9.27,0-.36-.05-.72-.09-1.08.9-.09,1.75-.27,2.75-.45.09,0,.18-.04.27-.04.45-.07.82-.13,1.16-.21-.67,2.63-1.7,6.4-2.6,9.7-.04.13-.09.22-.09.31s.18.13.22.22c.05.14.18.18.32.18,0,0,.01,0,.02,0,.09,0-.12.37.43.5.5,0,.94-.04,1.17-.58.04-.14.13-.27.13-.41.63-1.04.63-1.71,1.17-2.66,2.34-4.41,4.37-7.29,5.13-7.6.04,0,.04.04.04.13l-.04.72c-.13,1.08-1.12,4.18-1.71,6.03-.09.32-.54,1.93-.54,2.12-.04.22-.18.9-.18,1.21v.27c-.04.09-.04.23-.04.32v.31c.09,1.31.13,1.62.85,2.07.36.13.77.45,1.17.45.77-.13,1.8-.81,3.11-2.48,1.02-1.24,1.96-2.55,2.86-3.88-.03.23-.06.46-.07.68,0,.27-.04.58-.04.85,0,2.39,1.12,4.37,2.83,4.37,3.24,0,7.38-5.94,8.73-7.83l1.08-1.53c.09-.09.9-1.4.81-1.4-.22,0-.63.9-.81,1.08,0-.13.09-.13.09-.22.04-.09.09-.18.13-.23,0,0,0,0,0,0-.04,0-.08-.42-.08-.72l.13-.22s-.13-.09-.22-.13c.09-.14.22-.27.22-.27,0-.11.06-.29.06-.29,0,0,0,0-.01.02l-.18.22v-.41c-1.26,1.49-3.29,4.37-5,6.39-.85,1.04-3.55,4-4.72,4-.45,0-.81-.72-.85-1.44v-.5c0-1.89.85-4.59,1.17-5.31,2.34,0,5.31-1.8,5.4-4.82v-.22c0-1.08-1.49-1.58-2.34-1.67-2.05.52-3.69,2.47-4.8,4.72-1.95,2.79-6.76,9.68-7.44,9.68-.04,0-.04-.04-.04-.27.09-1.49.99-4.09,1.53-5.85.5-1.53,1.12-3.64,1.12-5.26,0-.09,0-.22-.04-.31-.23-1.26-.81-1.62-1.94-2.07-.09-.04-.18-.04-.27-.04-1.53,0-3.69,3.15-4.37,4.28.32-1.17.72-2.52.72-3.15v-.22c0-.77-.23-1.58-1.22-1.58-.18,0-.36.13-.45.45-.05.24-.12.53-.2.84-1.48.21-3.32.43-5.07.47-.27-.54-.63-.95-1.08-1.12.4-.41.81-.67,1.17-.85.22-.14.22-.32.22-.41,0,0-.58-.09-.72-.09-.04-.04-.09-.09-.18-.09h0ZM236.95,217.83l.22-.41c.95-1.71,1.71-2.38,2.66-3.1.04.09.18.04.18.18,0,1.26-1.71,3.01-3.06,3.33h0ZM211.44,224.94s-.13-.13-.13-.18c.36-2.92,1.44-5.99,2.74-8.59.18.09.45.13.68.13h.81v.22c-.18,2.97-2.16,6.75-3.87,8.33-.04,0-.18.09-.22.09h0ZM237.04,217.07v-.22s.13,0,.13.09c0,.04-.04.09-.13.13h0ZM215.9,217.47v-.41s.09.09.09.14-.04.04-.04.13c0,.04-.04.09-.04.13h0ZM236.64,217.61l-.13-.22s.13-.13.18-.13c0,0,.27.04.27.09-.27,0-.32.18-.32.27h0ZM215.94,218.42l.13-.18.13.14s-.27.04-.27.04h0ZM217.11,219v-.5l.09-.18c0,.09.04.13.04.22,0,.13-.04.27-.13.45h0ZM216.75,219.14s-.04-.09-.04-.13c0,0,.04-.04.13-.04,0,0,0,.13-.09.18h0ZM215.85,219.27s0-.04.04-.13c.04,0,.09,0,.13.09-.04.04-.09.04-.18.04h0ZM216.21,221.25s.32-.77.45-1.17c.09-.23.09-.36.09-.41,0-.18.09-.36.32-.45-.09.09-.18.23-.23.36,0,.09.04.09.09.09-.09.18-.04.41-.22.5,0,.04-.04.18-.04.22,0,.09-.09.18-.09.23,0,0-.32.63-.36.63h0ZM228.18,220.18s0,0,0,0c.04-.09.22-.45.22-.54,0-.04.07-.19.09-.19,0,0,0,0,0,0v.18c0,.18-.04.22-.09.22,0,0-.2.32-.22.32h0ZM235.96,219.63c-.36,1.08-.85,2.83-.99,4.14,0-.54.14-1.44.14-1.44,0,0,.04-.23.04-.32,0-.13-.04-.18-.09-.22l-.13.72c.04-.99.36-1.89.63-2.75,0,0,.09-.13.14-.13,0,0-.41,1.21-.5,1.58l-.14.58c.05-.09.09-.09.14-.09s.09-.13.09-.13c0-.13.13-.5.18-.5.04-.04.09-.27.09-.27,0,0-.07.1-.08.1,0,0,0,0,0,0l.23-.58c.04-.18.18-.5.27-.67h0ZM227.55,220.71c0-.14.09-.27.13-.41.04-.09.09-.22.27-.27-.09.09-.36.49-.41.67h0ZM215.04,220.49l-.13-.09s.09-.04.18-.09l-.04.18h0ZM215,220.89s-.09-.27-.09-.27c0-.05.04-.05.13-.09,0,.14,0,.18.04.23l-.09.13h0ZM215.4,222.7s0,0,0,0c.13-.09.31-.5.36-.63l.14-.31c.04-.09.09-.14.13-.14-.04.04-.04.18-.04.23-.09.36-.27.54-.36.76,0,0-.2.1-.23.1h0ZM232.81,222.65c-.09,0,.23-.41.23-.45.04,0,.04-.04.04-.13,0,0,.02,0,.05-.01-.02.1-.04.2-.05.3-.13.12-.3.3-.27.3h0ZM227.55,222.78s-.04.23-.04.36c-.04.04-.09.09-.13.09-.09,0-.14-.13-.18-.18l.14.09c0-.13.09-.22.13-.27,0-.04.04-.09.09-.09h0ZM232,223.59c0-.45.27-.41.63-.77-.13.14-.23.32-.27.36-.31.36-.36.41-.36.41h0ZM234.75,224s0-.04-.09-.31c0-.04.09-.09.13-.18,0,.18,0,.49-.04.49h0ZM231.55,224.09c.09-.09.18-.32.31-.36-.04.09-.31.59-.45.59,0,0-.04,0,.13-.22l-.13.04c.08-.04.15-.2.17-.2,0,0,0,0,0,.02,0,.09-.04.09-.04.14h0ZM226.88,224.54s.13-.18.18-.18c-.04-.04-.04-.13-.04-.13h.18v-.23l.09.27s.13,0,.13.09c.04,0-.13.13-.13.13,0,.04-.07.14-.09.14,0,0,0,0,0,0,0,.05,0,.23-.09.23,0,.18-.09.18-.09.18,0,.13-.04.18-.04.23s-.13.4-.13.54c0,0,0,0,0,0,.03,0,.13-.1.13-.1.04,0,.04-.13.04-.22.04-.13.13-.18.18-.18v.22c-.13.13-.13.32-.18.45,0,.09,0,.22-.04.22,0,.04-.04.09-.04.18-.04.18-.04.36-.04.49,0,0-.04.09-.04.14l-.13.09c0-.23.13-.45.13-.54,0,0-.09-.18-.13-.23,0-.09.13-.22.13-.27s-.09-.13-.13-.18v-.63s.13-.04.13-.14c0,0-.04-.13-.04-.18.09-.04.09-.09.09-.18,0-.14.18-.18.18-.27l-.18.04h0ZM234.61,224.4v-.36c.18.14.18.23.18.32,0,0-.13.04-.18.04h0ZM213.42,224.85c0-.27.04-.41.04-.58l.14.18c-.04.13-.09.27-.18.41h0ZM227.2,225.14s0,0,0-.02c0-.09,0-.18.09-.31l-.05.22c0,.07-.02.11-.04.11h0ZM230.07,226.02l.36-.36c0-.09.04-.18.09-.22.13-.04.18-.09.23-.09-.09.09-.27.27-.27.36-.09.04-.31.32-.41.32h0ZM89.04,224.49l-.27.09c-.85,0-1.35.5-1.39,1.4,0,.59.54,1.08,1.12,1.08.04,0,.18,0,.22-.04l.63-.32c.18,0,.23-.04.32-.22.18-.27.27-.67.27-1.04,0-.13,0-.27-.04-.41,0-.09-.18-.31-.22-.41-.18-.04-.45-.04-.63-.13h0ZM81.53,224.49l-.27.09c-.85,0-1.35.5-1.39,1.4,0,.59.54,1.08,1.12,1.08.04,0,.18,0,.22-.04l.63-.32c.18,0,.23-.04.32-.22.18-.27.27-.67.27-1.04,0-.13,0-.27-.04-.41,0-.09-.18-.31-.22-.41-.18-.04-.45-.04-.63-.13h0ZM74.02,224.49l-.27.09c-.85,0-1.35.5-1.39,1.4,0,.59.54,1.08,1.12,1.08.04,0,.18,0,.22-.04l.63-.32c.18,0,.23-.04.32-.22.18-.27.27-.67.27-1.04,0-.13,0-.27-.04-.41,0-.09-.18-.31-.22-.41-.18-.04-.45-.04-.63-.13h0ZM410.95,225.7v27.35h4.69v-13.2l6.61,9.18h5.39v2.35h-3.7l1.2,1.67h5.37l-19.57-27.35h0ZM422.26,249.03h-2.01l-1.68,2.35h5.38l-1.69-2.35h0ZM436.76,253.9h-1.1v1.36l-.97-1.36h-.92v3.52h1.1v-1.35l.97,1.35h.93v-3.52h0ZM436.13,256.76v-2.44h.14v2.68h-.14l-1.74-2.44v2.44h-.14v-2.68h.14l1.74,2.44h0ZM431.83,253.9h-2.07v3.52h2.11v-.92h-.99v-.41h.93v-.88h-.93v-.39h.95v-.92h0ZM430.28,257v-2.68h1.19v.13h-1.06v1.14h1v.13h-1v1.16h1.06v.13h-1.19ZM425.8,253.9h-.98v3.52h.98c.33,0,.62-.04.88-.11.26-.08.48-.19.65-.33.18-.15.31-.33.41-.55.09-.22.14-.47.14-.76s-.05-.54-.14-.76c-.09-.22-.23-.4-.41-.55-.18-.15-.4-.26-.65-.33-.26-.07-.55-.11-.88-.11h0ZM425.35,257v-2.68h.45c.51,0,.9.12,1.16.35.26.23.39.56.39.99s-.13.76-.39.99c-.26.23-.65.35-1.16.35h-.45ZM420.86,253.9h-.98v3.52h.98c.33,0,.62-.04.88-.11.26-.08.48-.19.65-.33.18-.15.31-.33.41-.55.09-.22.14-.47.14-.76s-.05-.54-.14-.76c-.09-.22-.23-.4-.41-.55-.18-.15-.4-.26-.65-.33-.26-.07-.55-.11-.88-.11h0ZM420.41,257v-2.68h.45c.51,0,.9.12,1.16.35.26.23.39.56.39.99s-.13.76-.39.99c-.26.23-.65.35-1.16.35h-.45ZM417.95,253.9h-1.13v2.19c0,.12-.03.22-.08.28-.05.07-.14.1-.26.1s-.21-.03-.26-.1c-.05-.06-.08-.16-.08-.28v-2.19h-1.12v2.24c0,.23.03.43.1.61.07.17.17.32.29.43.13.11.28.2.46.25.18.06.38.08.6.08s.42-.03.6-.08c.18-.06.33-.14.46-.25.13-.11.23-.25.29-.43.07-.17.1-.37.1-.61v-2.24h0ZM416.49,256.87c.53,0,.79-.26.79-.78v-1.78h.14v1.78c0,.3-.08.52-.24.68-.16.16-.39.24-.69.24s-.53-.08-.69-.24c-.16-.16-.24-.38-.24-.68v-1.78h.14v1.78c0,.52.26.78.79.78h0ZM412.31,253.9h-1.17v3.52h2.14v-.92h-.97v-2.6h0ZM411.67,257v-2.68h.14v2.55h1.18v.13h-1.32ZM425.8,254.45h-.31v2.42h.31c.45,0,.79-.1,1.04-.31.25-.2.37-.51.37-.91s-.12-.7-.37-.91-.6-.3-1.04-.3h0ZM425.94,256.42v-1.51c.26,0,.47.06.61.18s.22.31.22.57-.07.45-.22.57-.35.19-.61.19h0ZM420.86,254.45h-.31v2.42h.31c.45,0,.79-.1,1.04-.31.25-.2.37-.51.37-.91s-.12-.7-.37-.91-.6-.3-1.04-.3h0ZM421.01,256.42v-1.51c.26,0,.47.06.61.18s.22.31.22.57-.07.45-.22.57-.35.19-.61.19h0Z" />
  </g>
  <path id="grey" class="grey"
    d="M417.38,253.05h5.37l1.2-1.67h-5.38l1.64-2.29-2.83,3.96ZM420.25,249.03l-.04.06.04-.06ZM425.65,249.03l-1.69,2.35h3.7v-2.35h-2.01ZM436.95,225.7l-16.7,23.33h5.39l6.61-9.18v13.2h4.69s0-27.35,0-27.35Z" />
</svg>
