<?xml version="1.0" encoding="UTF-8"?>
<svg id="Layer_1" data-name="Layer 1" xmlns="http://www.w3.org/2000/svg" viewBox="0 0 590 541">
  <style>
    #textblob-logo {
      fill: #000;
    }

    @media (prefers-color-scheme: dark) {
      #textblob-logo {
        fill: #cccccc;
      }
    }
  </style>
  <path id="textblob-logo" d="M372.47,92.46l-.82,1.81c2.68.57,4.42,4.29,2.77,6.56-1.04,1.43-3,1.07-2.95,2.61,6.39,1.14,10.56,3.21,13.5,9.01,3.24-6.09,6.1,2.65.5,1,1.35,2.4.77,8.17,3.98,8.02-3.92,2.47-1.87,5.96-2.19,6.84-.2.56-6.53,7.57-7.87,8.58-1.88,1.43-5,1.64-5.93,3.55,4.83,1.29,9.86,1.12,14.77,1.79,2.14.29,2.77-1.99,3.81,1.3,4.79-2.63,4.75,2.2,9.9,1.94.22-5.46,5.39-2.54,1.52.97l10.99,4.02c-.94-4.98,2.68-4.82,6-7-1.33,1.89.78,4.1.57,5.04-.61,2.65-3.09,2.1-3.55,3.94,4.44.43,6.56,5.25,10.99,3.02l-.95,2.92c5.69,1.29,8.98,6.27,13.46,10.07.23-4.14-.84-8.07,2.98-11.05,1.76-1.37,4.37.05,3.52-3.94h.98c-1.06,1.64,5.88,3.75,6.7,3.83,1.82.16,3.19-3.68,5.31-.32.48,2.15-2.92,1.97-3.07,3.13-.19,1.48,1.25,3.71.67,6.37-1.45,6.62-7.31,5.81-12.59,6.47,1.96,2.4,4.69,4.68,6.67,6.89.8.9-.6,3.36,3.22,2.7l1.11,5.91c.47.38,3-3.09,3.98-1.99,1.82,2.03-2.05,3.29-2.05,3.51.01,2.36,5.04,9.2,5.07,12.48,2.34-3.01,4.24-3.87,7.91-4.97l2.22,4.85,1.84-.87-3.12,5.87-6.88-.35c1.11,2.94.15,9.33,4,9.5l-2.08,1.59,1.09,7.4,4.93-.91,2.06,3.9h-6.98c.32,2.76-1.54,7.87-1.06,10.3.28,1.39,3.83,1.08,3.05,3.71l-3.98-1-2.07,7.45,2.04.57v1.99s-3.04-.54-3.04-.54l-6.27,11.16-11.06,7.32-.62,2.05c6.43,1.46,10.59,6.41,14.13,11.41.75,1.06,2.43,1.46,2.63,1.78.38.63-1.78,7.37,4.23,4.82,1.24,2.52-1.95,1.68-2.07,2.6-.63,4.95,2.59,5.62,6.07,6.91l-3.99,1.49,2.01,11.99c2.31-1.28,4.95-1.32,7,.5-3.54,1.97-.79,5.46-7,2.5l-1.06,7.35,2.05,1.64c-3.84.2-3.1,6.99-3.98,10.01l6.31-1.11,3.69,5.6-1.86-.37c-.71,2.28-1.88,4.2-4.6,3.93l-5.53-4.04-4.96,11.58,1.94,2.9c-1.88,2.72-2.06.24-3.98-.48-2.15,1.97-.77,5.79-1.03,5.98-.33.24-2.02-.39-2.77.24-.45.38-.09,1.91-.54,2.4-2.11,2.29-4.65,4.46-6.67,6.89,3.72.13,5.9-.46,9.41,1.63,1.49.89,1.37,3.81,4.59,2.88-1.22,1.4-2.25,6.73-2.07,8.34.14,1.2,3.88,1.03,3.06,3.65-2.33,1.55-3.99-.91-5.31-.8-.86.07-7.75,2.14-6.7,3.8h-.98c.99-4.34-3.57-2.88-5.47-6.05-1.76-2.94-.19-6-1.04-8.94-1.96,2.54-4.57,4.09-7.04,6-.9.7-1.14,2.27-1.69,2.66-1.45,1.05-6.49-.44-3.78,4.32l-2.49-1.99-8.5,5.5c4.59,1.58,2.05,3.98,2.99,7.49-3.92-.45-6.78-1.42-6-6l-10.58,3.95.58,4.05c-3.65-6.78-8.02,0-8.58,0-1.03,0-2.4-1.13-3.83-.96-5.87.7-11.95,3.34-18.57,1.96-.5,2.33.27,1.6,1.28,2.24,6.28,3.96,6.71,3.12,10.73,10.04.99,1.71,2.52-.1.99,5.7h2.99s-.02,2-.02,2c-3.35-.09-2.83,4.95-4,7.5,5.12.05,3.29,4.94-.99,1.94l-3.17,5.34-9.82,3.25c-.05,1.53,1.92,1.14,2.94,2.6s.55,3.08.05,4.58c-2.34.24-1.9,4.51-3.49,3.81-.89-.39-.32-1.43-1.18-2.06-2.16-1.58-4.6.44-3.1-5.21.36-1.37,2.25-1.94,1.76-3.74-2.35.17-7.85-.2-9.75-1.38-.86-.53-2.12-3.45-4.27-4.15-1.17-.38-3.66,3.28-4.97.01-1.49-3.73,3.21-1.95,2.98-2.98-1.92-2.31-1.48-7.43-4.97-7.53l.1-1.89c2.72.05,1.64-2.83,2.79-4.68l-1.9-1.4c3.79-.03,3.02-3.98,4.36-5.66,2.31-2.88,6.81-6.31,10.63-6.37,3.08-2.89-15.66-2-16.51-2.17-.33-.06-3.69-5.17-4.5.17h-.98c.95-4.28-2.42-2.69-5.5-4.01l-2.51,3.02-.09-3.92c-3.39.25-6.03-2.3-8.43-3.07-3.02-.97.45,2.52-.9,4.05l-4.57,2.93c-1.4-4.08-.59-5.36.99-8.99l-6.52-3-1.98,1.99c-1.74-5.1-8.04-6.46-12.01-9.99-1.15,1.89.82,3.87.36,6.26s-3.44,4.06-3.97,6.62l-7.88-1.89v2.25s-3,.75-3,.75c-.35-2.53-.05-2.58,2-3.47l-3.94-7.44c3.35.28,1.89-3.63,2.14-3.92,1.4-1.6,6.79-1.96,8.79-2.65l-11.51-10.5c-2.02-.98-1.21,4.02-2.99,1s1.94-1.64,1.5-2.5c-1.04-1.45-2.87-1.97-4-3.28-3.99-4.65-2.72-8.82-7.01-.65l-6.98.43c-.98-2.67,1.8-1.62,1.96-2.62s-1.26-2.77.48-4.39c1.62-1.52,5.52-.15,4.55-2.47-.12-.29-3.71-4.77-3.98-4.94-.58-.34-1.95.51-2,.42-.27-.4.78-1.84.4-3.02-.43-1.34-2.65-2.94-2.42-4.97l-2.6,2.95-4.39-.97c.85-2.92,2.22-3.7,4.99-4.48l-4.01-8.52-4.99,1c4.46-4.44,3.73-7.47-2-9.5l2.04-1.92c-.21-3.28-2.95-3.74-2.93-4.01.19-2.15,2.59-3.67-.85-5.08l-4.27-29.48-9.13,22.13c-2.26,4.68-8.36,6.95-8.87,11.86l-1.48-1.99c-2.93,2.57-5.62,2.48-3.51,6.99l-3.47-2.03-7.52,3.05,1.99.99c.26,3.81-4.7,4.06-2.99,0l-14,2c2.88,3.01,1.61,3.96-.49,6.98l-3.58-2.57,2.07-4.42-9.36-1.06-1.63,2.05c1.25-4.27-6.28-3.46-9.51-6.01-3.11-.45-.17,4.2-2.48,6.53-8.3,5.25-14.18-7.39-3.67-8.54l.64-1.96c-5-1.99-10.31-5.74-12.01-11.02-2.56,2.38-6.96,3.39-4.22-1.01l2.24-.48-3-6.52-2.98,1.01,2-2.48c-3.15-2.64-1.9-3.29-2.47-5.52-1.02-3.99-2.18-7.87-2.55-12l-5.43,7.05c-2.25,2.11-7.06-.79-6.57,2.93h-.97c.44-2.82-2.67-1.74-4.6-2.9l-.43,1.89h-1.99c1.88-4.29-4.24-5.85-3.01-10.98-7.91,3.64-7.91-5.64,0-2-1.23-5.14,4.89-6.69,3.01-10.99h1.99s.43,1.9.43,1.9c2.2-1.08,4.28-.19,5.05-2.9l7.06,2.96,5.46,7.03c.35-4.12,1.55-8.01,2.55-12,.26-1.05-.47-2.32-.25-2.8.35-.77,4.57-1.35.71-5.19,4.09.42,4.13-2.89,5.98-5.53l-2.98-3.48,4.98,2c1.66-6.22,8.13-8.07,12.01-12.51-9.39-1.56-7.81-10.98,1.29-10.32l2.22,1.82c1.37,1.53-.92,6.54,1.88,5.91,3.19-2.61,10.89-1.43,9.62-5.9l1.63,2.05,9.36-1.06-1.95-4.37,3.48-2.62,2.52,2.61-2.05,4.38,14,2c-1.63-5.02,5.41-3.11,1,1l8.48,3.07,2.52-2.05-.92,3.86,4.43,3.13,1.48-1.99c.52,4.9,6.61,7.18,8.87,11.86l9.13,22.13c.76-9.2,2.71-17.99,4.55-26.99.71-3.49.9-3.82.57-7.57-.04-.42,6.41-3.81.89-5.93.72-1.62,2.71-.38,3.47-1.47,1.02-1.47.91-4.16,2.52-5.55l-3.99-2.48c1.05-.77,4.66.06,4.85-.09.37-.29,3.46-7.13,4.16-8.41l-2.39.32-1.61-3.32c1.83-2.62,3.77-1.46,5.5.45l8.48-11.47c1.02-2.35-3.66-1.38-4.78-2.72l-2.2-6.77,8.41.88,1.07,4.11,8.5-8.5c.08-.2-3.74-1.33-1.99-3.49s1.83,3.07,3.48,1.99l11.51-10.5c-7.02.32-6.85-3.93-10.95-6.56l3.95-7.45c-5.42-2.41.61-5.33,1.01-2.73v2.25s7.87-1.88,7.87-1.88c3.29,4.64,4.06,7.19,3.61,12.87,3.05-3.6,11.8-5.34,11.51-9.99l2.47,1.98,6.52-3-2.04-4.49c-.06-2.52,3.18-3.28,5.08-2.04,2.42,1.59-1.7,5.52,1.44,4.53,2.44-.77,4.95-3.82,8.48-3.02l.04-3.97,2.51,3.02c3.08-1.32,6.44.27,5.5-4.01l1.59,2.03c3.42,1.05,3.47-1.77,3.89-1.86,2.4-.46,8.91.22,12.02-.18,1.56-.2,2.98-.65,4.48-1.01l-10.69-7.29c-.94-2.54-.92-5.44-4.3-5.71l1.9-1.4-.92-5.59-1.98,1.02v-1.99c4.16-.22,2.41-5.07,4.97-7.53.23-.83-3.44-.67-2.98-2.97.66-3.24,4.25.24,4.51.24,1.23-.04,4.09-3.97,4.76-4.34,2.31-1.28,7.05-1.59,9.73-1.41l-2.06-7.36,6.07-3.63Z"/>
</svg>
