<?xml version="1.0" standalone="no"?><!DOCTYPE svg PUBLIC "-//W3C//DTD SVG 1.1//EN" "http://www.w3.org/Graphics/SVG/1.1/DTD/svg11.dtd"><svg xmlns:xlink="http://www.w3.org/1999/xlink" version="1.1" class="highcharts-root" style="font-family:&quot;Lucida Grande&quot;, &quot;Lucida Sans Unicode&quot;, Arial, Helvetica, sans-serif;font-size:12px;" xmlns="http://www.w3.org/2000/svg" width="600" height="400" viewBox="0 0 600 400"><desc>Created with Highcharts 6.2.0</desc><defs><clipPath id="highcharts-fq3wvtk-51"><rect x="0" y="0" width="520" height="254" fill="none"></rect></clipPath></defs><rect fill="#ffffff" class="highcharts-background" x="0" y="0" width="600" height="400" rx="0" ry="0"></rect><rect fill="none" class="highcharts-plot-background" x="70" y="46" width="520" height="254"></rect><g class="highcharts-pane-group" data-z-index="0"></g><g class="highcharts-grid highcharts-xaxis-grid " data-z-index="1"><path fill="none" data-z-index="1" class="highcharts-grid-line" d="M 199.5 46 L 199.5 300" opacity="1"></path><path fill="none" data-z-index="1" class="highcharts-grid-line" d="M 329.5 46 L 329.5 300" opacity="1"></path><path fill="none" data-z-index="1" class="highcharts-grid-line" d="M 459.5 46 L 459.5 300" opacity="1"></path><path fill="none" data-z-index="1" class="highcharts-grid-line" d="M 589.5 46 L 589.5 300" opacity="1"></path><path fill="none" data-z-index="1" class="highcharts-grid-line" d="M 69.5 46 L 69.5 300" opacity="1"></path></g><g class="highcharts-grid highcharts-yaxis-grid " data-z-index="1"><path fill="none" stroke="#e6e6e6" stroke-width="1" data-z-index="1" class="highcharts-grid-line" d="M 70 300.5 L 590 300.5" opacity="1"></path><path fill="none" stroke="#e6e6e6" stroke-width="1" data-z-index="1" class="highcharts-grid-line" d="M 70 237.5 L 590 237.5" opacity="1"></path><path fill="none" stroke="#e6e6e6" stroke-width="1" data-z-index="1" class="highcharts-grid-line" d="M 70 173.5 L 590 173.5" opacity="1"></path><path fill="none" stroke="#e6e6e6" stroke-width="1" data-z-index="1" class="highcharts-grid-line" d="M 70 110.5 L 590 110.5" opacity="1"></path><path fill="none" stroke="#e6e6e6" stroke-width="1" data-z-index="1" class="highcharts-grid-line" d="M 70 45.5 L 590 45.5" opacity="1"></path></g><rect fill="none" class="highcharts-plot-border" data-z-index="1" x="70" y="46" width="520" height="254"></rect><g class="highcharts-axis highcharts-xaxis " data-z-index="2"><path fill="none" class="highcharts-tick" stroke="#ccd6eb" stroke-width="1" d="M 199.5 300 L 199.5 310" opacity="1"></path><path fill="none" class="highcharts-tick" stroke="#ccd6eb" stroke-width="1" d="M 329.5 300 L 329.5 310" opacity="1"></path><path fill="none" class="highcharts-tick" stroke="#ccd6eb" stroke-width="1" d="M 459.5 300 L 459.5 310" opacity="1"></path><path fill="none" class="highcharts-tick" stroke="#ccd6eb" stroke-width="1" d="M 590.5 300 L 590.5 310" opacity="1"></path><path fill="none" class="highcharts-tick" stroke="#ccd6eb" stroke-width="1" d="M 69.5 300 L 69.5 310" opacity="1"></path><path fill="none" class="highcharts-axis-line" stroke="#ccd6eb" stroke-width="1" data-z-index="7" d="M 70 300.5 L 590 300.5"></path></g><g class="highcharts-axis highcharts-yaxis " data-z-index="2"><text x="23.203125" data-z-index="7" text-anchor="middle" transform="translate(0,0) rotate(270 23.203125 173)" class="highcharts-axis-title" style="color:#666666;fill:#666666;" y="173"><tspan>Money</tspan></text><path fill="none" class="highcharts-axis-line" data-z-index="7" d="M 70 46 L 70 300"></path></g><g class="highcharts-series-group" data-z-index="3"><g data-z-index="0.1" class="highcharts-series highcharts-series-0 highcharts-column-series " transform="translate(70,46) scale(1 1)" clip-path="url(#highcharts-fq3wvtk-51)"><rect x="25.5" y="179.5" width="39" height="75" fill="rgb(67,162,202)" stroke="white" stroke-width="1" class="highcharts-point"></rect><rect x="155.5" y="189.5" width="39" height="65" fill="rgb(67,162,202)" stroke="white" stroke-width="1" class="highcharts-point"></rect><rect x="285.5" y="190.5" width="39" height="64" fill="rgb(67,162,202)" stroke="white" stroke-width="1" class="highcharts-point"></rect><rect x="415.5" y="179.5" width="39" height="75" fill="rgb(67,162,202)" stroke="white" stroke-width="1" class="highcharts-point"></rect></g><g data-z-index="0.1" class="highcharts-markers highcharts-series-0 highcharts-column-series " transform="translate(70,46) scale(1 1)" clip-path="none"></g><g data-z-index="0.1" class="highcharts-series highcharts-series-1 highcharts-column-series " transform="translate(70,46) scale(1 1)" clip-path="url(#highcharts-fq3wvtk-51)"><rect x="25.5" y="154.5" width="39" height="25" fill="rgb(168,221,181)" stroke="white" stroke-width="1" class="highcharts-point"></rect><rect x="155.5" y="157.5" width="39" height="32" fill="rgb(168,221,181)" stroke="white" stroke-width="1" class="highcharts-point"></rect><rect x="285.5" y="154.5" width="39" height="36" fill="rgb(168,221,181)" stroke="white" stroke-width="1" class="highcharts-point"></rect><rect x="415.5" y="152.5" width="39" height="27" fill="rgb(168,221,181)" stroke="white" stroke-width="1" class="highcharts-point"></rect></g><g data-z-index="0.1" class="highcharts-markers highcharts-series-1 highcharts-column-series " transform="translate(70,46) scale(1 1)" clip-path="none"></g><g data-z-index="0.1" class="highcharts-series highcharts-series-2 highcharts-column-series " transform="translate(70,46) scale(1 1)" clip-path="url(#highcharts-fq3wvtk-51)"><rect x="25.5" y="117.5" width="39" height="37" fill="rgb(224,243,219)" stroke="white" stroke-width="1" class="highcharts-point"></rect><rect x="155.5" y="123.5" width="39" height="34" fill="rgb(224,243,219)" stroke="white" stroke-width="1" class="highcharts-point"></rect><rect x="285.5" y="133.5" width="39" height="21" fill="rgb(224,243,219)" stroke="white" stroke-width="1" class="highcharts-point"></rect><rect x="415.5" y="123.5" width="39" height="29" fill="rgb(224,243,219)" stroke="white" stroke-width="1" class="highcharts-point"></rect></g><g data-z-index="0.1" class="highcharts-markers highcharts-series-2 highcharts-column-series " transform="translate(70,46) scale(1 1)" clip-path="none"></g><g data-z-index="0.1" class="highcharts-series highcharts-series-3 highcharts-column-series " transform="translate(70,46) scale(1 1)" clip-path="url(#highcharts-fq3wvtk-51)"><rect x="64.5" y="228.5" width="39" height="26" fill="rgb(179,0,0)" stroke="white" stroke-width="1" class="highcharts-point"></rect><rect x="194.5" y="232.5" width="39" height="22" fill="rgb(179,0,0)" stroke="white" stroke-width="1" class="highcharts-point"></rect><rect x="324.5" y="233.5" width="39" height="21" fill="rgb(179,0,0)" stroke="white" stroke-width="1" class="highcharts-point"></rect><rect x="454.5" y="229.5" width="39" height="25" fill="rgb(179,0,0)" stroke="white" stroke-width="1" class="highcharts-point"></rect></g><g data-z-index="0.1" class="highcharts-markers highcharts-series-3 highcharts-column-series " transform="translate(70,46) scale(1 1)" clip-path="none"></g><g data-z-index="0.1" class="highcharts-series highcharts-series-4 highcharts-column-series " transform="translate(70,46) scale(1 1)" clip-path="url(#highcharts-fq3wvtk-51)"><rect x="64.5" y="216.5" width="39" height="12" fill="rgb(227,74,51)" stroke="white" stroke-width="1" class="highcharts-point"></rect><rect x="194.5" y="214.5" width="39" height="18" fill="rgb(227,74,51)" stroke="white" stroke-width="1" class="highcharts-point"></rect><rect x="324.5" y="219.5" width="39" height="14" fill="rgb(227,74,51)" stroke="white" stroke-width="1" class="highcharts-point"></rect><rect x="454.5" y="216.5" width="39" height="13" fill="rgb(227,74,51)" stroke="white" stroke-width="1" class="highcharts-point"></rect></g><g data-z-index="0.1" class="highcharts-markers highcharts-series-4 highcharts-column-series " transform="translate(70,46) scale(1 1)" clip-path="none"></g><g data-z-index="0.1" class="highcharts-series highcharts-series-5 highcharts-column-series " transform="translate(70,46) scale(1 1)" clip-path="url(#highcharts-fq3wvtk-51)"><rect x="64.5" y="201.5" width="39" height="15" fill="rgb(252,141,89)" stroke="white" stroke-width="1" class="highcharts-point"></rect><rect x="194.5" y="203.5" width="39" height="11" fill="rgb(252,141,89)" stroke="white" stroke-width="1" class="highcharts-point"></rect><rect x="324.5" y="207.5" width="39" height="12" fill="rgb(252,141,89)" stroke="white" stroke-width="1" class="highcharts-point"></rect><rect x="454.5" y="200.5" width="39" height="16" fill="rgb(252,141,89)" stroke="white" stroke-width="1" class="highcharts-point"></rect></g><g data-z-index="0.1" class="highcharts-markers highcharts-series-5 highcharts-column-series " transform="translate(70,46) scale(1 1)" clip-path="none"></g><g data-z-index="0.1" class="highcharts-series highcharts-series-6 highcharts-column-series " transform="translate(70,46) scale(1 1)" clip-path="url(#highcharts-fq3wvtk-51)"><rect x="64.5" y="195.5" width="39" height="6" fill="rgb(253,204,138)" stroke="white" stroke-width="1" class="highcharts-point"></rect><rect x="194.5" y="193.5" width="39" height="10" fill="rgb(253,204,138)" stroke="white" stroke-width="1" class="highcharts-point"></rect><rect x="324.5" y="187.5" width="39" height="20" fill="rgb(253,204,138)" stroke="white" stroke-width="1" class="highcharts-point"></rect><rect x="454.5" y="191.5" width="39" height="9" fill="rgb(253,204,138)" stroke="white" stroke-width="1" class="highcharts-point"></rect></g><g data-z-index="0.1" class="highcharts-markers highcharts-series-6 highcharts-column-series " transform="translate(70,46) scale(1 1)" clip-path="none"></g><g data-z-index="0.1" class="highcharts-series highcharts-series-7 highcharts-column-series " transform="translate(70,46) scale(1 1)" clip-path="url(#highcharts-fq3wvtk-51)"><rect x="64.5" y="187.5" width="39" height="8" fill="rgb(254,240,217)" stroke="white" stroke-width="1" class="highcharts-point"></rect><rect x="194.5" y="178.5" width="39" height="15" fill="rgb(254,240,217)" stroke="white" stroke-width="1" class="highcharts-point"></rect><rect x="324.5" y="179.5" width="39" height="8" fill="rgb(254,240,217)" stroke="white" stroke-width="1" class="highcharts-point"></rect><rect x="454.5" y="181.5" width="39" height="10" fill="rgb(254,240,217)" stroke="white" stroke-width="1" class="highcharts-point"></rect></g><g data-z-index="0.1" class="highcharts-markers highcharts-series-7 highcharts-column-series " transform="translate(70,46) scale(1 1)" clip-path="none"></g><g data-z-index="0.1" class="highcharts-series highcharts-series-8 highcharts-line-series " transform="translate(70,46) scale(1 1)" clip-path="url(#highcharts-fq3wvtk-51)"><path fill="none" d="M 65 183.9214 L 195 128.8288 L 325 83.46440000000001 L 455 25.146000000000015" class="highcharts-graph" data-z-index="1" stroke="#555" stroke-width="2" stroke-linejoin="round" stroke-linecap="round"></path></g><g data-z-index="0.1" class="highcharts-markers highcharts-series-8 highcharts-line-series " transform="translate(70,46) scale(1 1)" clip-path="none"><path fill="#555" d="M 69 184 A 4 4 0 1 1 68.99999800000016 183.99600000066667 Z" class="highcharts-point"></path><path fill="#555" d="M 199 129 A 4 4 0 1 1 198.99999800000018 128.99600000066667 Z" class="highcharts-point"></path><path fill="#555" d="M 329 83 A 4 4 0 1 1 328.9999980000002 82.99600000066667 Z" class="highcharts-point"></path><path fill="#555" d="M 459 25 A 4 4 0 1 1 458.9999980000002 24.996000000666665 Z" class="highcharts-point"></path></g></g><text x="300" text-anchor="middle" class="highcharts-title" data-z-index="4" style="color:#333333;font-size:18px;fill:#333333;" y="24"><tspan>Account Summary</tspan></text><text x="300" text-anchor="middle" class="highcharts-subtitle" data-z-index="4" style="color:#666666;fill:#666666;" y="45"></text><g class="highcharts-legend" data-z-index="7" transform="translate(56,332)"><rect fill="none" class="highcharts-legend-box" rx="0" ry="0" x="0" y="0" width="487" height="53" visibility="visible"></rect><g data-z-index="1"><g><g class="highcharts-legend-item highcharts-column-series highcharts-color-undefined highcharts-series-0" data-z-index="1" transform="translate(8,3)"><text x="21" style="color:#333333;font-size:12px;font-weight:bold;cursor:pointer;fill:#333333;" text-anchor="start" data-z-index="2" y="15"><tspan>Income programming</tspan></text><rect x="2" y="4" width="12" height="12" fill="rgb(67,162,202)" rx="6" ry="6" class="highcharts-point" data-z-index="3"></rect></g><g class="highcharts-legend-item highcharts-column-series highcharts-color-undefined highcharts-series-1" data-z-index="1" transform="translate(171.859375,3)"><text x="21" y="15" style="color:#333333;font-size:12px;font-weight:bold;cursor:pointer;fill:#333333;" text-anchor="start" data-z-index="2"><tspan>Income reiki</tspan></text><rect x="2" y="4" width="12" height="12" fill="rgb(168,221,181)" rx="6" ry="6" class="highcharts-point" data-z-index="3"></rect></g><g class="highcharts-legend-item highcharts-column-series highcharts-color-undefined highcharts-series-2" data-z-index="1" transform="translate(335.71875,3)"><text x="21" y="15" style="color:#333333;font-size:12px;font-weight:bold;cursor:pointer;fill:#333333;" text-anchor="start" data-z-index="2"><tspan>Income investing</tspan></text><rect x="2" y="4" width="12" height="12" fill="rgb(224,243,219)" rx="6" ry="6" class="highcharts-point" data-z-index="3"></rect></g><g class="highcharts-legend-item highcharts-column-series highcharts-color-undefined highcharts-series-3" data-z-index="1" transform="translate(8,17)"><text x="21" y="15" style="color:#333333;font-size:12px;font-weight:bold;cursor:pointer;fill:#333333;" text-anchor="start" data-z-index="2"><tspan>Expense shelter</tspan></text><rect x="2" y="4" width="12" height="12" fill="rgb(179,0,0)" rx="6" ry="6" class="highcharts-point" data-z-index="3"></rect></g><g class="highcharts-legend-item highcharts-column-series highcharts-color-undefined highcharts-series-4" data-z-index="1" transform="translate(171.859375,17)"><text x="21" y="15" style="color:#333333;font-size:12px;font-weight:bold;cursor:pointer;fill:#333333;" text-anchor="start" data-z-index="2"><tspan>Expense healthcare</tspan></text><rect x="2" y="4" width="12" height="12" fill="rgb(227,74,51)" rx="6" ry="6" class="highcharts-point" data-z-index="3"></rect></g><g class="highcharts-legend-item highcharts-column-series highcharts-color-undefined highcharts-series-5" data-z-index="1" transform="translate(335.71875,17)"><text x="21" y="15" style="color:#333333;font-size:12px;font-weight:bold;cursor:pointer;fill:#333333;" text-anchor="start" data-z-index="2"><tspan>Expense soil testing</tspan></text><rect x="2" y="4" width="12" height="12" fill="rgb(252,141,89)" rx="6" ry="6" class="highcharts-point" data-z-index="3"></rect></g><g class="highcharts-legend-item highcharts-column-series highcharts-color-undefined highcharts-series-6" data-z-index="1" transform="translate(8,31)"><text x="21" y="15" style="color:#333333;font-size:12px;font-weight:bold;cursor:pointer;fill:#333333;" text-anchor="start" data-z-index="2"><tspan>Expense transport</tspan></text><rect x="2" y="4" width="12" height="12" fill="rgb(253,204,138)" rx="6" ry="6" class="highcharts-point" data-z-index="3"></rect></g><g class="highcharts-legend-item highcharts-column-series highcharts-color-undefined highcharts-series-7" data-z-index="1" transform="translate(171.859375,31)"><text x="21" y="15" style="color:#333333;font-size:12px;font-weight:bold;cursor:pointer;fill:#333333;" text-anchor="start" data-z-index="2"><tspan>Expense food</tspan></text><rect x="2" y="4" width="12" height="12" fill="rgb(254,240,217)" rx="6" ry="6" class="highcharts-point" data-z-index="3"></rect></g><g class="highcharts-legend-item highcharts-line-series highcharts-color-undefined highcharts-series-8" data-z-index="1" transform="translate(335.71875,31)"><path fill="none" d="M 0 11 L 16 11" class="highcharts-graph" stroke="#555" stroke-width="2"></path><path fill="#555" d="M 12 11 A 4 4 0 1 1 11.999998000000167 10.996000000666664 Z" class="highcharts-point"></path><text x="21" y="15" style="color:#333333;font-size:12px;font-weight:bold;cursor:pointer;fill:#333333;" text-anchor="start" data-z-index="2"><tspan>Balance</tspan></text></g></g></g></g><g class="highcharts-axis-labels highcharts-xaxis-labels " data-z-index="7"><text x="135" style="color:#666666;cursor:default;font-size:11px;fill:#666666;" text-anchor="middle" transform="translate(0,0)" y="319" opacity="1">2020-01-01</text><text x="265" style="color:#666666;cursor:default;font-size:11px;fill:#666666;" text-anchor="middle" transform="translate(0,0)" y="319" opacity="1">2020-04-01</text><text x="395" style="color:#666666;cursor:default;font-size:11px;fill:#666666;" text-anchor="middle" transform="translate(0,0)" y="319" opacity="1">2020-07-01</text><text x="525" style="color:#666666;cursor:default;font-size:11px;fill:#666666;" text-anchor="middle" transform="translate(0,0)" y="319" opacity="1">2020-10-01</text></g><g class="highcharts-axis-labels highcharts-yaxis-labels " data-z-index="7"><text x="55" style="color:#666666;cursor:default;font-size:11px;fill:#666666;" text-anchor="end" transform="translate(0,0)" y="305" opacity="1">0</text><text x="55" style="color:#666666;cursor:default;font-size:11px;fill:#666666;" text-anchor="end" transform="translate(0,0)" y="241" opacity="1">2.5k</text><text x="55" style="color:#666666;cursor:default;font-size:11px;fill:#666666;" text-anchor="end" transform="translate(0,0)" y="178" opacity="1">5k</text><text x="55" style="color:#666666;cursor:default;font-size:11px;fill:#666666;" text-anchor="end" transform="translate(0,0)" y="114" opacity="1">7.5k</text><text x="55" style="color:#666666;cursor:default;font-size:11px;fill:#666666;" text-anchor="end" transform="translate(0,0)" y="51" opacity="1">10k</text></g></svg>