<svg width="256" height="256" viewBox="0 0 256 256" fill="none" xmlns="http://www.w3.org/2000/svg" role="img" aria-label="koffer logo (flat)">
  <clipPath id="b">
    <rect x="32" y="72" width="192" height="160" rx="26"/>
  </clipPath>

  <rect x="32" y="72" width="192" height="160" rx="26" fill="#0F172A" stroke="#07101E" stroke-width="8"/>
  <rect x="46" y="86" width="164" height="132" rx="20" stroke="#111C2E" stroke-width="3" opacity="0.65"/>

  <g clip-path="url(#b)">
    <path d="M32 136H224" stroke="#0B1628" stroke-width="6" opacity="0.75"/>
    <path d="M84 92V228" stroke="#334155" stroke-width="8" stroke-linecap="round"/>
    <path d="M172 92V228" stroke="#334155" stroke-width="8" stroke-linecap="round"/>
    <path d="M46 106V90H62" stroke="#64748B" stroke-width="4" stroke-linecap="round" stroke-linejoin="round" opacity="0.8"/>
    <path d="M210 106V90H194" stroke="#64748B" stroke-width="4" stroke-linecap="round" stroke-linejoin="round" opacity="0.8"/>
    <path d="M46 198V214H62" stroke="#64748B" stroke-width="4" stroke-linecap="round" stroke-linejoin="round" opacity="0.8"/>
    <path d="M210 198V214H194" stroke="#64748B" stroke-width="4" stroke-linecap="round" stroke-linejoin="round" opacity="0.8"/>
  </g>

  <rect x="72" y="62" width="36" height="22" rx="11" fill="#0B1220" opacity="0.85"/>
  <rect x="148" y="62" width="36" height="22" rx="11" fill="#0B1220" opacity="0.85"/>

  <path d="M92 72V56C92 43.8497 101.85 34 114 34H142C154.15 34 164 43.8497 164 56V72"
        stroke="#94A3B8" stroke-width="14" stroke-linecap="round"/>
  <path d="M100 72V57C100 49.8203 105.82 44 113 44H143C150.18 44 156 49.8203 156 57V72"
        stroke="#475569" stroke-width="8" stroke-linecap="round" opacity="0.85"/>

  <rect x="102" y="116" width="52" height="78" rx="12" fill="#F59E0B" stroke="#92400E" stroke-width="4"/>
  <path d="M116 158L128 170L116 182" stroke="#451A03" stroke-width="8" stroke-linecap="round" stroke-linejoin="round"/>
  <path d="M136 184H150" stroke="#451A03" stroke-width="8" stroke-linecap="round"/>
  <circle cx="144" cy="160" r="4" fill="#451A03" opacity="0.7"/>
</svg>
