<svg xmlns="http://www.w3.org/2000/svg" width="600" height="229" viewBox="0 0 600 229" version="1.1"><path d="M 0 114.502 L 0 229.003 300.250 228.752 L 600.500 228.500 600.754 114.250 L 601.008 0 300.504 0 L 0 0 0 114.502 M 0.483 115 C 0.483 177.975, 0.603 203.738, 0.750 172.250 C 0.896 140.763, 0.896 89.238, 0.750 57.750 C 0.603 26.263, 0.483 52.025, 0.483 115 M 155.200 50.200 C 153.466 51.934, 153.466 176.066, 155.200 177.800 C 156.944 179.544, 441.056 179.544, 442.800 177.800 C 444.534 176.066, 444.534 51.934, 442.800 50.200 C 441.056 48.456, 156.944 48.456, 155.200 50.200 M 163 114 L 163 170 299 170 L 435 170 435 114 L 435 58 299 58 L 163 58 163 114 M 378 69.895 C 364.575 72.044, 351.683 84.055, 346.018 99.691 C 344.083 105.031, 343.829 107.370, 344.168 116.691 C 344.533 126.718, 344.830 128.053, 348.271 135.151 C 352.801 144.495, 360.259 152.357, 368.521 156.494 C 374.125 159.301, 375.220 159.489, 386 159.485 C 397.104 159.480, 397.707 159.367, 403.500 156.202 C 419.265 147.590, 427.863 133.177, 427.964 115.193 C 427.984 111.724, 427.509 106.774, 426.910 104.193 C 425.636 98.711, 420.923 88, 419.784 88 C 419.353 88, 419 87.387, 419 86.637 C 419 84.394, 409.673 76.369, 403.369 73.186 C 396.915 69.928, 386.351 68.558, 378 69.895 M 174 114.500 L 174 159 179.500 159 L 185 159 185 143 L 185 127 197.090 127 C 208.404 127, 209.300 127.144, 211.056 129.250 C 212.089 130.488, 212.948 131.842, 212.967 132.260 C 212.985 132.678, 214.575 135.261, 216.500 138 C 218.425 140.739, 220 143.171, 220 143.406 C 220 143.641, 222.283 147.245, 225.072 151.416 L 230.145 159 236.072 159 C 239.333 159, 242 158.687, 242 158.304 C 242 157.921, 240.930 156.008, 239.622 154.054 C 237.682 151.155, 227.979 136.080, 222.589 127.592 C 221.502 125.879, 221.894 125.414, 226.419 123.050 C 232.256 120, 236.249 114.796, 238.466 107.346 C 240.354 101.004, 240.383 97.027, 238.592 90.300 C 236.404 82.082, 232.150 76.956, 223.613 72.250 C 219.716 70.102, 218.498 70, 196.765 70 L 174 70 174 114.500 M 255.243 100.750 C 255.594 129.763, 255.741 131.800, 257.830 136.819 C 260.840 144.048, 262.698 146.853, 267.379 151.226 C 274.768 158.130, 278.827 159.431, 293 159.442 C 304.714 159.451, 305.817 159.281, 310.544 156.729 C 319.159 152.078, 324.579 145.129, 328.660 133.500 C 330.140 129.284, 330.473 123.911, 330.787 99.250 L 331.158 70 325.690 70 L 320.221 70 319.771 98.750 C 319.348 125.818, 319.187 127.835, 317.028 133.233 C 312.682 144.101, 303.729 150.348, 292.500 150.348 C 285.283 150.348, 278.907 147.756, 274.188 142.905 C 266.807 135.316, 265 125.374, 265 92.341 L 265 70 259.935 70 L 254.870 70 255.243 100.750 M 185 98.066 L 185 117.132 201.750 116.816 C 217.199 116.525, 218.743 116.327, 221.627 114.270 C 230.472 107.960, 231.264 92.554, 223.149 84.659 C 218.443 80.080, 213.823 79.055, 197.750 79.024 L 185 79 185 98.066 M 378.500 80.247 C 369.922 82.479, 361.322 90.769, 357.081 100.893 C 355.150 105.500, 354.871 107.685, 355.163 115.893 C 355.452 124.003, 355.943 126.379, 358.316 131.139 C 363.335 141.211, 369.848 146.837, 379.635 149.558 C 385.171 151.097, 386.064 151.099, 391.978 149.584 C 404.371 146.409, 413.425 136.208, 416.337 122.138 C 420.067 104.117, 409.866 85.304, 393.774 80.526 C 387.978 78.804, 384.303 78.738, 378.500 80.247" stroke="none" fill="#ffffff" fill-rule="evenodd"/><path d="M 154.975 52.565 C 153.606 56.168, 153.662 173.501, 155.035 176.066 C 156.051 177.964, 158.712 178, 298.928 178 C 428.273 178, 441.843 177.850, 442.393 176.418 C 442.727 175.548, 443 147.288, 443 113.618 C 443 67.337, 442.707 52.107, 441.800 51.200 C 440.878 50.278, 407.639 50, 298.275 50 L 155.950 50 154.975 52.565 M 162.242 114.250 L 162.500 170.500 298.750 170.754 L 435 171.007 435 114.504 L 435 58 298.492 58 L 161.983 58 162.242 114.250 M 375.500 71.344 C 359.315 76.712, 347.795 90.558, 345.065 107.922 C 342.132 126.582, 351.733 146.155, 368.197 155.083 C 374.285 158.383, 374.875 158.500, 385.500 158.500 C 395.639 158.500, 396.967 158.271, 402.468 155.570 C 417.670 148.106, 427.016 132.669, 426.988 115.068 C 426.959 96.670, 417.861 81.487, 402.260 73.807 C 396.911 71.174, 394.416 70.579, 387.655 70.324 C 382.727 70.139, 377.917 70.542, 375.500 71.344 M 175.239 114.750 L 175.500 158.500 180 158.500 L 184.500 158.500 184.775 142.220 L 185.050 125.941 197.659 126.220 L 210.268 126.500 220.450 142.500 L 230.631 158.500 235.815 158.802 C 238.667 158.969, 241 158.880, 241 158.606 C 241 158.331, 236.592 151.220, 231.204 142.803 C 225.816 134.386, 221.068 126.943, 220.653 126.262 C 220.142 125.426, 221.216 124.497, 223.965 123.397 C 236.459 118.398, 242.633 100.367, 236.427 87 C 233.251 80.159, 229.850 76.503, 223.783 73.407 C 219.223 71.080, 218.335 71, 197.023 71 L 174.979 71 175.239 114.750 M 255.306 98.250 C 255.600 113.238, 256.319 127.669, 256.904 130.321 C 259.299 141.191, 266.463 151.136, 275 155.443 C 281.186 158.565, 284.079 159.135, 293.553 159.099 C 308.775 159.043, 318.264 153.391, 324.451 140.696 C 329.204 130.943, 329.984 124.617, 329.992 95.750 L 330 71 325.582 71 L 321.165 71 320.759 98.750 C 320.308 129.563, 319.682 133.328, 313.706 141.163 C 311.842 143.607, 308.133 146.642, 304.982 148.301 C 299.966 150.943, 298.813 151.154, 291.408 150.782 C 281.327 150.275, 275.335 147.174, 270.887 140.162 C 265.361 131.450, 264.807 127.947, 264.258 98.250 L 263.754 71 259.262 71 L 254.771 71 255.306 98.250 M 380 78.892 C 369.536 81.154, 359.650 90.647, 356.028 101.913 C 351.345 116.476, 354.673 131.788, 364.688 141.765 C 370.767 147.820, 375.897 150.281, 383.516 150.796 C 398.732 151.826, 410.878 142.853, 416.076 126.742 C 421.778 109.069, 414.028 88.985, 398.642 81.560 C 392.958 78.817, 385.371 77.732, 380 78.892 M 185 98.500 L 185 118 201.050 118 C 218.854 118, 221.087 117.425, 225.325 111.751 C 230.905 104.279, 231.292 95.215, 226.368 87.314 C 221.702 79.826, 219.158 79, 200.766 79 L 185 79 185 98.500" stroke="none" fill="#080830" fill-rule="evenodd"/><path d="M 155.200 50.200 C 154.540 50.860, 154.029 52.097, 154.063 52.950 C 154.102 53.901, 154.476 53.630, 155.031 52.250 L 155.936 50 298.268 50 C 407.637 50, 440.878 50.278, 441.800 51.200 C 442.707 52.107, 443 67.337, 443 113.618 C 443 147.288, 442.727 175.548, 442.393 176.418 C 441.843 177.850, 428.275 178, 298.943 178 C 163.956 178, 156.043 177.904, 155.080 176.250 C 154.519 175.287, 154.047 174.972, 154.030 175.550 C 153.931 178.999, 153.968 179, 299 179 C 408.578 179, 441.878 178.722, 442.800 177.800 C 444.534 176.066, 444.534 51.934, 442.800 50.200 C 441.056 48.456, 156.944 48.456, 155.200 50.200 M 162.487 114.250 L 162.500 170.500 298.750 170.505 L 435 170.511 299.008 170.252 L 163.017 169.993 162.746 113.996 L 162.475 58 162.487 114.250 M 383.750 69.706 C 384.988 69.944, 387.012 69.944, 388.250 69.706 C 389.488 69.467, 388.475 69.272, 386 69.272 C 383.525 69.272, 382.512 69.467, 383.750 69.706 M 174 114.500 C 174 138.975, 174.338 159, 174.750 159 C 175.162 159, 175.378 139.200, 175.230 115 L 174.959 71 197.013 71 C 218.336 71, 219.223 71.080, 223.783 73.407 C 229.269 76.206, 232.942 79.889, 235.843 85.500 C 236.981 87.700, 237.931 88.817, 237.956 87.982 C 238.013 86.007, 233.288 79.057, 230.149 76.500 C 228.799 75.400, 225.858 73.487, 223.613 72.250 C 219.716 70.102, 218.498 70, 196.765 70 L 174 70 174 114.500 M 259.232 70.734 L 263.963 71.108 264.251 94.304 L 264.539 117.500 264.769 93.750 L 265 70 259.750 70.180 L 254.500 70.360 259.232 70.734 M 320 92.853 C 320 105.423, 319.789 118.585, 319.531 122.103 C 319.130 127.571, 319.194 127.919, 319.973 124.500 C 320.474 122.300, 320.911 109.363, 320.942 95.750 L 321 71 325.591 71 L 330.182 71 329.747 99.750 C 329.480 117.381, 328.872 129.828, 328.173 131.934 C 327.547 133.822, 327.219 135.552, 327.444 135.778 C 327.670 136.003, 328.411 134.458, 329.092 132.344 C 329.913 129.792, 330.468 118.667, 330.744 99.250 L 331.158 70 325.579 70 L 320 70 320 92.853 M 368.049 73.521 C 364.501 75.433, 360.085 78.460, 358.236 80.249 C 350.759 87.479, 343.884 101.376, 344.117 108.788 C 344.218 111.997, 344.356 111.755, 345.136 107 C 347.841 90.498, 359.914 76.344, 375.500 71.402 C 378.593 70.421, 378.933 70.124, 377 70.090 C 375.625 70.065, 371.597 71.610, 368.049 73.521 M 396.714 71.451 C 402.860 73.372, 409.191 77.349, 414.411 82.569 C 416.935 85.093, 419 86.734, 419 86.216 C 419 85.698, 416.807 83.222, 414.126 80.715 C 408.760 75.695, 398.343 69.962, 394.779 70.067 C 393.276 70.111, 393.936 70.583, 396.714 71.451 M 215.494 80.135 C 217.826 80.681, 221.118 82.616, 223.406 84.785 C 227.192 88.374, 227.252 88.394, 225.182 85.373 C 222.806 81.905, 217.459 78.946, 213.849 79.100 C 212.333 79.165, 212.917 79.532, 215.494 80.135 M 376 80 C 374.667 80.862, 374.667 80.960, 376 80.885 C 376.825 80.839, 378.625 80.440, 380 80 L 382.500 79.199 380 79.115 C 378.625 79.069, 376.825 79.467, 376 80 M 394.795 80.894 C 406.613 84.976, 414.548 95.586, 417.311 111 C 417.558 112.375, 417.606 111.328, 417.418 108.673 C 416.967 102.312, 413.173 94.227, 408.007 88.623 C 403.700 83.951, 395.164 78.975, 391.554 79.033 C 390.424 79.051, 391.883 79.888, 394.795 80.894 M 370.500 82.850 C 366.156 85.518, 359.331 93.271, 357.528 97.586 C 356.673 99.633, 356.148 101.482, 356.362 101.695 C 356.575 101.908, 357.476 100.268, 358.363 98.050 C 359.969 94.038, 367.231 85.890, 372 82.751 C 375.431 80.492, 374.207 80.573, 370.500 82.850 M 420.778 90.935 C 421.704 92.550, 422.600 93.733, 422.769 93.565 C 423.310 93.023, 420.708 88, 419.886 88 C 419.450 88, 419.851 89.321, 420.778 90.935 M 227.760 91 C 229.112 95.569, 228.524 104.360, 226.604 108.270 C 222.994 115.623, 220.693 116.428, 201.500 117.056 L 184.500 117.612 200.800 117.806 C 218.925 118.022, 221.043 117.498, 225.310 111.751 C 229.992 105.445, 231.260 97.304, 228.465 91.500 C 227.372 89.231, 227.200 89.109, 227.760 91 M 239.300 99 C 239.300 102.025, 239.487 103.263, 239.716 101.750 C 239.945 100.237, 239.945 97.763, 239.716 96.250 C 239.487 94.737, 239.300 95.975, 239.300 99 M 423.533 95.828 C 423.908 96.559, 424.578 98.359, 425.021 99.828 C 425.669 101.972, 425.845 102.093, 425.914 100.441 C 425.961 99.309, 425.292 97.509, 424.426 96.441 C 423.560 95.374, 423.158 95.098, 423.533 95.828 M 354.349 115 C 354.349 119.675, 354.522 121.587, 354.732 119.250 C 354.943 116.912, 354.943 113.087, 354.732 110.750 C 354.522 108.412, 354.349 110.325, 354.349 115 M 427.349 115 C 427.349 119.675, 427.522 121.587, 427.732 119.250 C 427.943 116.912, 427.943 113.087, 427.732 110.750 C 427.522 108.412, 427.349 110.325, 427.349 115 M 236.692 110.091 C 235.697 114.054, 228.498 121.583, 223.972 123.395 C 221.072 124.555, 220.138 125.400, 220.706 126.352 C 225.879 135.032, 241.537 158.797, 241.865 158.468 C 242.103 158.231, 241.159 156.341, 239.767 154.268 C 237.136 150.349, 228.290 136.617, 223.651 129.250 C 221.871 126.423, 221.416 125, 222.292 125 C 223.016 125, 225.644 123.709, 228.132 122.131 C 232.665 119.257, 238.524 111.072, 237.738 108.713 C 237.518 108.054, 237.048 108.674, 236.692 110.091 M 416.284 122.174 C 415.630 125.614, 415.259 128.592, 415.459 128.792 C 416.039 129.373, 418.298 118.394, 417.865 117.096 C 417.649 116.448, 416.938 118.734, 416.284 122.174 M 344.465 122.201 C 344.674 125.336, 345.352 128.711, 345.970 129.701 C 346.933 131.240, 346.997 131.143, 346.412 129.036 C 346.037 127.681, 345.359 124.306, 344.907 121.536 L 344.085 116.500 344.465 122.201 M 255.484 124.732 C 255.702 128.710, 256.364 132.760, 256.954 133.732 C 257.860 135.224, 257.941 135.110, 257.474 133 C 257.170 131.625, 256.509 127.575, 256.005 124 L 255.088 117.500 255.484 124.732 M 265.100 122.083 C 265.155 124.513, 265.577 127.625, 266.039 129 C 266.566 130.568, 266.666 129.076, 266.307 125 C 265.637 117.390, 264.957 115.745, 265.100 122.083 M 355.089 125 C 354.942 128.177, 360.122 137.217, 364.705 141.782 C 369.838 146.894, 374.814 149.708, 380.170 150.527 C 382.455 150.877, 381.937 150.529, 378.516 149.420 C 367.927 145.985, 360.201 137.720, 355.690 125 C 355.217 123.667, 355.150 123.667, 355.089 125 M 196.865 126.732 C 208.144 127.034, 209.406 127.258, 211.228 129.282 L 213.226 131.500 211.743 129 C 210.286 126.544, 210.033 126.499, 197.380 126.450 L 184.500 126.401 196.865 126.732 M 424.655 130.237 C 423.690 134.082, 418.395 142.888, 414.659 146.859 C 410.796 150.967, 404.987 154.779, 399 157.135 C 396.525 158.109, 395.337 158.927, 396.360 158.953 C 398.817 159.015, 408.717 153.639, 412.500 150.188 C 419.080 144.187, 426.779 131.837, 425.790 128.870 C 425.537 128.112, 425.038 128.714, 424.655 130.237 M 316.653 133.845 C 313.759 141.893, 306.917 147.875, 298.282 149.908 C 295.348 150.599, 295.073 150.822, 297.054 150.900 C 300.695 151.043, 309.480 146.404, 312.635 142.672 C 315.629 139.130, 319.320 131.460, 318.792 129.877 C 318.604 129.311, 317.641 131.097, 316.653 133.845 M 412.061 133.880 C 410.239 137.452, 407.582 140.365, 401 146.009 C 397.909 148.659, 400.356 147.551, 404.723 144.322 C 407.880 141.988, 413.038 135.217, 414.300 131.750 C 415.440 128.619, 414.090 129.903, 412.061 133.880 M 213.022 132.200 C 212.993 133.105, 218.989 142, 219.627 142 C 220.230 142, 217.426 137.201, 214.915 133.934 C 213.886 132.595, 213.034 131.815, 213.022 132.200 M 347.056 132.500 C 346.988 134.332, 352.747 143.445, 356.649 147.680 C 361.079 152.488, 369.829 157.875, 374.381 158.597 C 377.365 159.070, 377.342 159.031, 373.844 157.696 C 363.828 153.872, 354.380 145.484, 349.464 136.050 C 348.160 133.548, 347.076 131.950, 347.056 132.500 M 258.563 138 C 259.653 142.099, 263.085 147.262, 267.355 151.226 C 271.639 155.205, 278.844 159.055, 281.739 158.914 C 282.891 158.858, 282.635 158.564, 281 158.065 C 272.487 155.466, 265.009 149.052, 260.521 140.500 C 259.078 137.750, 258.197 136.625, 258.563 138 M 323.578 142.608 C 321.997 145.628, 318.889 149.651, 316.672 151.549 C 314.454 153.447, 313.077 155, 313.612 155 C 316.240 155, 328.395 139.062, 326.904 137.570 C 326.655 137.322, 325.159 139.589, 323.578 142.608 M 271.914 141.746 C 274.168 145.047, 281.520 150.018, 284.088 149.978 C 284.865 149.966, 283.700 149.135, 281.500 148.131 C 279.300 147.127, 275.745 144.550, 273.599 142.403 C 269.915 138.718, 269.822 138.681, 271.914 141.746 M 220.022 143.200 C 219.993 144.105, 225.989 153, 226.627 153 C 227.230 153, 224.426 148.201, 221.915 144.934 C 220.886 143.595, 220.034 142.815, 220.022 143.200 M 307 157.049 C 304.525 158.062, 303.310 158.916, 304.300 158.946 C 306.119 159.001, 312 156.350, 312 155.474 C 312 155.213, 311.887 155.047, 311.750 155.104 C 311.613 155.161, 309.475 156.036, 307 157.049 M 286.762 159.707 C 288.006 159.946, 289.806 159.937, 290.762 159.687 C 291.718 159.437, 290.700 159.241, 288.500 159.252 C 286.300 159.263, 285.518 159.468, 286.762 159.707 M 294.750 159.706 C 295.988 159.944, 298.012 159.944, 299.250 159.706 C 300.488 159.467, 299.475 159.272, 297 159.272 C 294.525 159.272, 293.512 159.467, 294.750 159.706 M 382.250 159.728 C 384.313 159.944, 387.688 159.944, 389.750 159.728 C 391.813 159.513, 390.125 159.336, 386 159.336 C 381.875 159.336, 380.188 159.513, 382.250 159.728" stroke="none" fill="#fafafb" fill-rule="evenodd"/></svg>
