<svg width="17" height="16" viewBox="0 0 17 16" fill="none" xmlns="http://www.w3.org/2000/svg">
<path d="M1.57075 12.6997L9.41956 4.85084C10.5951 5.41666 11.544 6.36557 12.1098 7.54111L4.26102 15.3899L1.76393 15.1967L1.57075 12.6997Z" fill="#282828" stroke="#282828" stroke-width="1.2" stroke-linecap="round"/>
<path d="M12.767 0.654909C12.7704 0.651489 12.7755 0.650393 12.78 0.65211C14.4067 1.26953 15.6911 2.55397 16.3086 4.18066C16.3103 4.18518 16.3092 4.19029 16.3058 4.19371L13.8435 6.65599C13.8372 6.66227 13.8265 6.65999 13.8234 6.65168C13.2084 5.03152 11.9292 3.75223 10.309 3.13729C10.3007 3.13414 10.2984 3.12347 10.3047 3.11719L12.767 0.654909Z" fill="#282828"/>
</svg>
