<svg width="151" height="36" viewBox="0 0 151 36" fill="none" xmlns="http://www.w3.org/2000/svg">
<rect width="150.542" height="36" rx="5" fill="#EBECF0"/>
<path d="M13.2958 19.2168C13.2958 19.2168 12.5581 17.6516 12.9013 15.9781C13.2445 14.3047 14.1914 13.0244 15.8075 12.1632C18.7033 10.6201 22.3141 11.7399 23.8724 14.6643C25.1104 16.9874 24.6807 19.7506 23 21.5622" stroke="#151515" stroke-width="1.6" stroke-linecap="square"/>
<path d="M14.5788 21.6414C14.4803 21.8758 14.1911 21.9601 13.9821 21.8152L10.5433 19.4314C10.2666 19.2397 10.3361 18.8128 10.6593 18.7187L15.7187 17.2447C16.0418 17.1506 16.3297 17.4734 16.1993 17.7837L14.5788 21.6414Z" fill="#151515"/>
<path d="M32.747 23V13.466C33.139 13.3727 33.573 13.3073 34.049 13.27C34.525 13.2233 34.959 13.2 35.351 13.2C36.723 13.2 37.7683 13.4567 38.487 13.97C39.2056 14.4833 39.565 15.2533 39.565 16.28C39.565 16.98 39.3876 17.5447 39.033 17.974C38.6876 18.4033 38.207 18.7207 37.591 18.926C37.759 19.1407 37.955 19.402 38.179 19.71C38.403 20.018 38.6316 20.3587 38.865 20.732C39.1076 21.096 39.341 21.474 39.565 21.866C39.789 22.258 39.985 22.636 40.153 23H38.557C38.3143 22.5333 38.0436 22.0667 37.745 21.6C37.4556 21.124 37.1663 20.6807 36.877 20.27C36.597 19.85 36.3403 19.4953 36.107 19.206C36.0136 19.206 35.9203 19.2107 35.827 19.22C35.743 19.2293 35.6543 19.234 35.561 19.234H34.189V23H32.747ZM34.189 18.058H35.225C35.8036 18.058 36.303 18.016 36.723 17.932C37.1523 17.8387 37.4836 17.6613 37.717 17.4C37.9503 17.1387 38.067 16.7607 38.067 16.266C38.067 15.79 37.9503 15.4213 37.717 15.16C37.493 14.8987 37.1803 14.7167 36.779 14.614C36.387 14.502 35.9483 14.446 35.463 14.446C35.1923 14.446 34.9496 14.4553 34.735 14.474C34.5203 14.4927 34.3383 14.5113 34.189 14.53V18.058ZM44.744 23.168C43.8853 23.168 43.1807 23.0047 42.63 22.678C42.0887 22.342 41.6873 21.8893 41.426 21.32C41.174 20.7507 41.048 20.102 41.048 19.374C41.048 18.5153 41.2067 17.806 41.524 17.246C41.8413 16.6767 42.252 16.252 42.756 15.972C43.2693 15.6827 43.806 15.538 44.366 15.538C45.0007 15.538 45.5467 15.6733 46.004 15.944C46.4707 16.2053 46.83 16.6067 47.082 17.148C47.334 17.68 47.46 18.3567 47.46 19.178C47.46 19.262 47.4553 19.3553 47.446 19.458C47.446 19.5607 47.4413 19.6587 47.432 19.752H42.476C42.5227 20.4427 42.7373 20.984 43.12 21.376C43.512 21.7587 44.0953 21.95 44.87 21.95C45.318 21.95 45.7007 21.908 46.018 21.824C46.3447 21.74 46.592 21.6607 46.76 21.586L46.97 22.734C46.8113 22.818 46.522 22.9113 46.102 23.014C45.6913 23.1167 45.2387 23.168 44.744 23.168ZM42.504 18.702H46.088C46.0787 18.31 46.0087 17.9647 45.878 17.666C45.7473 17.3673 45.556 17.134 45.304 16.966C45.0613 16.798 44.7533 16.714 44.38 16.714C43.9973 16.714 43.6707 16.8073 43.4 16.994C43.1293 17.1807 42.9193 17.428 42.77 17.736C42.6207 18.0347 42.532 18.3567 42.504 18.702ZM51.0373 23.182C50.4026 23.182 49.894 23.126 49.5113 23.014C49.138 22.902 48.886 22.818 48.7553 22.762L49.0353 21.586C49.222 21.6513 49.4833 21.74 49.8193 21.852C50.1553 21.9547 50.5613 22.006 51.0373 22.006C51.5133 22.006 51.882 21.9407 52.1433 21.81C52.414 21.6793 52.5493 21.446 52.5493 21.11C52.5493 20.9047 52.4933 20.7367 52.3813 20.606C52.2786 20.4753 52.1153 20.354 51.8913 20.242C51.6673 20.1207 51.364 19.9853 50.9813 19.836C50.5986 19.6773 50.2486 19.514 49.9313 19.346C49.614 19.1687 49.362 18.9447 49.1753 18.674C48.9886 18.4033 48.8953 18.0487 48.8953 17.61C48.8953 17.19 49.0026 16.826 49.2173 16.518C49.432 16.21 49.7353 15.972 50.1273 15.804C50.5286 15.6267 51 15.538 51.5413 15.538C52.0173 15.538 52.4326 15.58 52.7873 15.664C53.1513 15.7387 53.422 15.8133 53.5993 15.888L53.3193 17.036C53.1606 16.9613 52.9413 16.8867 52.6613 16.812C52.3906 16.728 52.0313 16.686 51.5833 16.686C51.21 16.686 50.8973 16.756 50.6453 16.896C50.4026 17.036 50.2813 17.2553 50.2813 17.554C50.2813 17.7593 50.328 17.9273 50.4213 18.058C50.524 18.1887 50.6826 18.31 50.8973 18.422C51.112 18.534 51.392 18.6553 51.7373 18.786C52.204 18.9633 52.6006 19.1453 52.9273 19.332C53.254 19.5187 53.5013 19.752 53.6693 20.032C53.8466 20.3027 53.9353 20.6573 53.9353 21.096C53.9353 21.5533 53.8186 21.936 53.5853 22.244C53.3613 22.552 53.03 22.7853 52.5913 22.944C52.162 23.1027 51.644 23.182 51.0373 23.182ZM58.9217 23.168C58.0631 23.168 57.3584 23.0047 56.8077 22.678C56.2664 22.342 55.8651 21.8893 55.6037 21.32C55.3517 20.7507 55.2257 20.102 55.2257 19.374C55.2257 18.5153 55.3844 17.806 55.7017 17.246C56.0191 16.6767 56.4297 16.252 56.9337 15.972C57.4471 15.6827 57.9837 15.538 58.5437 15.538C59.1784 15.538 59.7244 15.6733 60.1817 15.944C60.6484 16.2053 61.0077 16.6067 61.2597 17.148C61.5117 17.68 61.6377 18.3567 61.6377 19.178C61.6377 19.262 61.6331 19.3553 61.6237 19.458C61.6237 19.5607 61.6191 19.6587 61.6097 19.752H56.6537C56.7004 20.4427 56.9151 20.984 57.2977 21.376C57.6897 21.7587 58.2731 21.95 59.0477 21.95C59.4957 21.95 59.8784 21.908 60.1957 21.824C60.5224 21.74 60.7697 21.6607 60.9377 21.586L61.1477 22.734C60.9891 22.818 60.6997 22.9113 60.2797 23.014C59.8691 23.1167 59.4164 23.168 58.9217 23.168ZM56.6817 18.702H60.2657C60.2564 18.31 60.1864 17.9647 60.0557 17.666C59.9251 17.3673 59.7337 17.134 59.4817 16.966C59.2391 16.798 58.9311 16.714 58.5577 16.714C58.1751 16.714 57.8484 16.8073 57.5777 16.994C57.3071 17.1807 57.0971 17.428 56.9477 17.736C56.7984 18.0347 56.7097 18.3567 56.6817 18.702ZM63.479 23V15.958C63.7964 15.874 64.2024 15.79 64.697 15.706C65.1917 15.6127 65.761 15.566 66.405 15.566C67.189 15.566 67.7957 15.706 68.225 15.986C68.6637 16.266 68.9717 16.658 69.149 17.162C69.3264 17.6567 69.415 18.24 69.415 18.912V23H68.029V19.192C68.029 18.5947 67.973 18.1233 67.861 17.778C67.7584 17.4233 67.581 17.1667 67.329 17.008C67.077 16.8493 66.7224 16.77 66.265 16.77C65.957 16.77 65.6724 16.7887 65.411 16.826C65.159 16.854 64.9817 16.882 64.879 16.91V23H63.479ZM74.8351 23.168C74.0885 23.168 73.4398 23.0187 72.8891 22.72C72.3385 22.412 71.9138 21.9733 71.6151 21.404C71.3165 20.8347 71.1671 20.158 71.1671 19.374C71.1671 18.6087 71.2931 17.9413 71.5451 17.372C71.8065 16.8027 72.1798 16.3593 72.6651 16.042C73.1598 15.7153 73.7525 15.552 74.4431 15.552C74.8445 15.552 75.1945 15.608 75.4931 15.72C75.8011 15.8227 76.0485 15.93 76.2351 16.042V12.374L77.6211 12.136V22.776C77.4158 22.832 77.1685 22.8927 76.8791 22.958C76.5991 23.0233 76.2865 23.0747 75.9411 23.112C75.5958 23.1493 75.2271 23.168 74.8351 23.168ZM74.8491 21.964C75.1851 21.964 75.4698 21.95 75.7031 21.922C75.9365 21.8847 76.1138 21.8473 76.2351 21.81V17.26C76.0858 17.148 75.8665 17.0407 75.5771 16.938C75.2878 16.826 74.9705 16.77 74.6251 16.77C74.2611 16.77 73.9485 16.8307 73.6871 16.952C73.4351 17.0733 73.2251 17.2507 73.0571 17.484C72.8985 17.7173 72.7818 17.9927 72.7071 18.31C72.6325 18.618 72.5951 18.9587 72.5951 19.332C72.5951 19.8827 72.6885 20.354 72.8751 20.746C73.0618 21.138 73.3231 21.4413 73.6591 21.656C73.9951 21.8613 74.3918 21.964 74.8491 21.964ZM82.9442 23C82.9815 22.1693 83.0235 21.3293 83.0702 20.48C83.1169 19.6213 83.1682 18.7767 83.2242 17.946C83.2895 17.106 83.3549 16.294 83.4202 15.51C83.4949 14.726 83.5742 13.9887 83.6582 13.298H85.0022C85.2355 13.6993 85.4875 14.1753 85.7582 14.726C86.0382 15.2673 86.3182 15.846 86.5982 16.462C86.8875 17.0687 87.1675 17.6753 87.4382 18.282C87.7089 18.8793 87.9515 19.4253 88.1662 19.92C88.3902 19.4253 88.6329 18.8793 88.8942 18.282C89.1649 17.6753 89.4402 17.0687 89.7202 16.462C90.0095 15.846 90.2942 15.2673 90.5742 14.726C90.8542 14.1753 91.1109 13.6993 91.3442 13.298H92.6042C92.6975 13.9887 92.7769 14.726 92.8422 15.51C92.9169 16.294 92.9822 17.106 93.0382 17.946C93.0942 18.7767 93.1455 19.6213 93.1922 20.48C93.2482 21.3293 93.2949 22.1693 93.3322 23H91.9042C91.8762 22.1507 91.8435 21.3013 91.8062 20.452C91.7689 19.6027 91.7222 18.7673 91.6662 17.946C91.6195 17.1153 91.5589 16.322 91.4842 15.566C91.3815 15.79 91.2369 16.098 91.0502 16.49C90.8635 16.882 90.6582 17.3207 90.4342 17.806C90.2102 18.282 89.9862 18.7673 89.7622 19.262C89.5382 19.7567 89.3282 20.2187 89.1322 20.648C88.9455 21.068 88.8009 21.4087 88.6982 21.67H87.5642C87.4522 21.4087 87.3029 21.068 87.1162 20.648C86.9295 20.2187 86.7242 19.7567 86.5002 19.262C86.2762 18.7673 86.0522 18.282 85.8282 17.806C85.6042 17.3207 85.3989 16.882 85.2122 16.49C85.0255 16.098 84.8809 15.79 84.7782 15.566C84.7035 16.322 84.6382 17.1153 84.5822 17.946C84.5355 18.7673 84.4935 19.6027 84.4562 20.452C84.4189 21.3013 84.3862 22.1507 84.3582 23H82.9442ZM98.6932 23.168C97.8345 23.168 97.1299 23.0047 96.5792 22.678C96.0379 22.342 95.6365 21.8893 95.3752 21.32C95.1232 20.7507 94.9972 20.102 94.9972 19.374C94.9972 18.5153 95.1559 17.806 95.4732 17.246C95.7905 16.6767 96.2012 16.252 96.7052 15.972C97.2185 15.6827 97.7552 15.538 98.3152 15.538C98.9499 15.538 99.4959 15.6733 99.9532 15.944C100.42 16.2053 100.779 16.6067 101.031 17.148C101.283 17.68 101.409 18.3567 101.409 19.178C101.409 19.262 101.405 19.3553 101.395 19.458C101.395 19.5607 101.391 19.6587 101.381 19.752H96.4252C96.4719 20.4427 96.6865 20.984 97.0692 21.376C97.4612 21.7587 98.0445 21.95 98.8192 21.95C99.2672 21.95 99.6499 21.908 99.9672 21.824C100.294 21.74 100.541 21.6607 100.709 21.586L100.919 22.734C100.761 22.818 100.471 22.9113 100.051 23.014C99.6405 23.1167 99.1879 23.168 98.6932 23.168ZM96.4532 18.702H100.037C100.028 18.31 99.9579 17.9647 99.8272 17.666C99.6965 17.3673 99.5052 17.134 99.2532 16.966C99.0105 16.798 98.7025 16.714 98.3292 16.714C97.9465 16.714 97.6199 16.8073 97.3492 16.994C97.0785 17.1807 96.8685 17.428 96.7192 17.736C96.5699 18.0347 96.4812 18.3567 96.4532 18.702ZM104.987 23.182C104.352 23.182 103.843 23.126 103.461 23.014C103.087 22.902 102.835 22.818 102.705 22.762L102.985 21.586C103.171 21.6513 103.433 21.74 103.769 21.852C104.105 21.9547 104.511 22.006 104.987 22.006C105.463 22.006 105.831 21.9407 106.093 21.81C106.363 21.6793 106.499 21.446 106.499 21.11C106.499 20.9047 106.443 20.7367 106.331 20.606C106.228 20.4753 106.065 20.354 105.841 20.242C105.617 20.1207 105.313 19.9853 104.931 19.836C104.548 19.6773 104.198 19.514 103.881 19.346C103.563 19.1687 103.311 18.9447 103.125 18.674C102.938 18.4033 102.845 18.0487 102.845 17.61C102.845 17.19 102.952 16.826 103.167 16.518C103.381 16.21 103.685 15.972 104.077 15.804C104.478 15.6267 104.949 15.538 105.491 15.538C105.967 15.538 106.382 15.58 106.737 15.664C107.101 15.7387 107.371 15.8133 107.549 15.888L107.269 17.036C107.11 16.9613 106.891 16.8867 106.611 16.812C106.34 16.728 105.981 16.686 105.533 16.686C105.159 16.686 104.847 16.756 104.595 16.896C104.352 17.036 104.231 17.2553 104.231 17.554C104.231 17.7593 104.277 17.9273 104.371 18.058C104.473 18.1887 104.632 18.31 104.847 18.422C105.061 18.534 105.341 18.6553 105.687 18.786C106.153 18.9633 106.55 19.1453 106.877 19.332C107.203 19.5187 107.451 19.752 107.619 20.032C107.796 20.3027 107.885 20.6573 107.885 21.096C107.885 21.5533 107.768 21.936 107.535 22.244C107.311 22.552 106.979 22.7853 106.541 22.944C106.111 23.1027 105.593 23.182 104.987 23.182ZM111.303 23.182C110.668 23.182 110.16 23.126 109.777 23.014C109.404 22.902 109.152 22.818 109.021 22.762L109.301 21.586C109.488 21.6513 109.749 21.74 110.085 21.852C110.421 21.9547 110.827 22.006 111.303 22.006C111.779 22.006 112.148 21.9407 112.409 21.81C112.68 21.6793 112.815 21.446 112.815 21.11C112.815 20.9047 112.759 20.7367 112.647 20.606C112.544 20.4753 112.381 20.354 112.157 20.242C111.933 20.1207 111.63 19.9853 111.247 19.836C110.864 19.6773 110.514 19.514 110.197 19.346C109.88 19.1687 109.628 18.9447 109.441 18.674C109.254 18.4033 109.161 18.0487 109.161 17.61C109.161 17.19 109.268 16.826 109.483 16.518C109.698 16.21 110.001 15.972 110.393 15.804C110.794 15.6267 111.266 15.538 111.807 15.538C112.283 15.538 112.698 15.58 113.053 15.664C113.417 15.7387 113.688 15.8133 113.865 15.888L113.585 17.036C113.426 16.9613 113.207 16.8867 112.927 16.812C112.656 16.728 112.297 16.686 111.849 16.686C111.476 16.686 111.163 16.756 110.911 16.896C110.668 17.036 110.547 17.2553 110.547 17.554C110.547 17.7593 110.594 17.9273 110.687 18.058C110.79 18.1887 110.948 18.31 111.163 18.422C111.378 18.534 111.658 18.6553 112.003 18.786C112.47 18.9633 112.866 19.1453 113.193 19.332C113.52 19.5187 113.767 19.752 113.935 20.032C114.112 20.3027 114.201 20.6573 114.201 21.096C114.201 21.5533 114.084 21.936 113.851 22.244C113.627 22.552 113.296 22.7853 112.857 22.944C112.428 23.1027 111.91 23.182 111.303 23.182ZM118.249 23.154C117.689 23.154 117.19 23.0793 116.751 22.93C116.322 22.7807 115.986 22.5333 115.743 22.188C115.501 21.8427 115.379 21.39 115.379 20.83C115.379 20.2793 115.515 19.8407 115.785 19.514C116.056 19.178 116.425 18.9353 116.891 18.786C117.358 18.6367 117.876 18.562 118.445 18.562C118.707 18.562 118.968 18.5807 119.229 18.618C119.5 18.6553 119.677 18.6927 119.761 18.73V18.394C119.761 18.0953 119.719 17.82 119.635 17.568C119.551 17.316 119.393 17.1107 119.159 16.952C118.935 16.7933 118.599 16.714 118.151 16.714C117.685 16.714 117.302 16.7467 117.003 16.812C116.714 16.8773 116.485 16.9427 116.317 17.008L116.135 15.86C116.322 15.7853 116.607 15.7153 116.989 15.65C117.372 15.5753 117.801 15.538 118.277 15.538C118.987 15.538 119.547 15.6547 119.957 15.888C120.377 16.1213 120.676 16.4527 120.853 16.882C121.031 17.302 121.119 17.7873 121.119 18.338V22.818C120.886 22.874 120.513 22.944 119.999 23.028C119.486 23.112 118.903 23.154 118.249 23.154ZM118.389 22.02C118.679 22.02 118.94 22.0107 119.173 21.992C119.416 21.9733 119.612 21.95 119.761 21.922V19.766C119.677 19.7287 119.533 19.6913 119.327 19.654C119.122 19.6167 118.875 19.598 118.585 19.598C118.296 19.598 118.011 19.6307 117.731 19.696C117.461 19.752 117.232 19.864 117.045 20.032C116.868 20.2 116.779 20.4567 116.779 20.802C116.779 21.2593 116.924 21.5767 117.213 21.754C117.503 21.9313 117.895 22.02 118.389 22.02ZM125.66 25.632C125.203 25.632 124.769 25.5947 124.358 25.52C123.947 25.4453 123.588 25.352 123.28 25.24L123.532 24.05C123.803 24.1527 124.125 24.2413 124.498 24.316C124.871 24.4 125.268 24.442 125.688 24.442C126.192 24.442 126.598 24.3767 126.906 24.246C127.223 24.1153 127.452 23.91 127.592 23.63C127.741 23.35 127.816 22.9953 127.816 22.566V22.174C127.657 22.2673 127.429 22.37 127.13 22.482C126.841 22.5847 126.486 22.636 126.066 22.636C125.459 22.636 124.913 22.5147 124.428 22.272C123.943 22.02 123.56 21.6373 123.28 21.124C123.009 20.6107 122.874 19.9573 122.874 19.164C122.874 18.464 123.014 17.8433 123.294 17.302C123.583 16.7607 123.994 16.336 124.526 16.028C125.058 15.72 125.693 15.566 126.43 15.566C127.027 15.566 127.559 15.608 128.026 15.692C128.493 15.776 128.88 15.8647 129.188 15.958V22.412C129.188 23.5413 128.894 24.358 128.306 24.862C127.727 25.3753 126.845 25.632 125.66 25.632ZM126.22 21.474C126.547 21.474 126.85 21.4273 127.13 21.334C127.419 21.2407 127.643 21.1287 127.802 20.998V16.882C127.671 16.8447 127.499 16.812 127.284 16.784C127.079 16.7467 126.799 16.728 126.444 16.728C125.987 16.728 125.599 16.8307 125.282 17.036C124.965 17.2413 124.722 17.5307 124.554 17.904C124.386 18.268 124.302 18.6927 124.302 19.178C124.302 19.5793 124.353 19.9247 124.456 20.214C124.559 20.5033 124.699 20.7413 124.876 20.928C125.053 21.1147 125.254 21.2547 125.478 21.348C125.711 21.432 125.959 21.474 126.22 21.474ZM134.705 23.168C133.846 23.168 133.142 23.0047 132.591 22.678C132.05 22.342 131.648 21.8893 131.387 21.32C131.135 20.7507 131.009 20.102 131.009 19.374C131.009 18.5153 131.168 17.806 131.485 17.246C131.802 16.6767 132.213 16.252 132.717 15.972C133.23 15.6827 133.767 15.538 134.327 15.538C134.962 15.538 135.508 15.6733 135.965 15.944C136.432 16.2053 136.791 16.6067 137.043 17.148C137.295 17.68 137.421 18.3567 137.421 19.178C137.421 19.262 137.416 19.3553 137.407 19.458C137.407 19.5607 137.402 19.6587 137.393 19.752H132.437C132.484 20.4427 132.698 20.984 133.081 21.376C133.473 21.7587 134.056 21.95 134.831 21.95C135.279 21.95 135.662 21.908 135.979 21.824C136.306 21.74 136.553 21.6607 136.721 21.586L136.931 22.734C136.772 22.818 136.483 22.9113 136.063 23.014C135.652 23.1167 135.2 23.168 134.705 23.168ZM132.465 18.702H136.049C136.04 18.31 135.97 17.9647 135.839 17.666C135.708 17.3673 135.517 17.134 135.265 16.966C135.022 16.798 134.714 16.714 134.341 16.714C133.958 16.714 133.632 16.8073 133.361 16.994C133.09 17.1807 132.88 17.428 132.731 17.736C132.582 18.0347 132.493 18.3567 132.465 18.702Z" fill="#151515"/>
</svg>
