<svg width="18" height="18" viewBox="0 0 18 18" fill="none" xmlns="http://www.w3.org/2000/svg">
<path d="M2.45508 4.69995C2.45508 4.69995 4.90962 5.45289 9.00053 5.45289C13.0914 5.45289 15.546 4.69995 15.546 4.69995L14.8039 15.2854C14.7564 15.962 14.3659 16.5666 13.7236 16.7847C12.7745 17.107 11.1722 17.5 9.00053 17.5C6.8289 17.5 5.22655 17.107 4.27743 16.7847C3.63516 16.5666 3.24462 15.962 3.19718 15.2854L2.45508 4.69995Z" fill="#151515"/>
<path d="M10.6387 3.63232C10.6387 3.63232 10.3316 3.47155 9.00202 3.47382C7.67248 3.47609 7.36595 3.63791 7.36595 3.63791L8.12085 1.57616C8.22681 1.28678 8.39902 1.00493 8.69788 0.929735C8.78503 0.907807 8.88512 0.893233 8.99742 0.893041C9.10971 0.892849 9.20985 0.907082 9.29708 0.928713C9.59621 1.00288 9.76942 1.28415 9.87641 1.57316L10.6387 3.63232Z" fill="#151515"/>
<path d="M1.63672 2.30005C1.63672 2.30005 4.58217 3.42005 9.00035 3.42005C13.4185 3.42005 16.364 2.30005 16.364 2.30005" stroke="black" stroke-width="1.8"/>
</svg>
