<svg width="28" height="28" viewBox="0 0 28 28" fill="none" xmlns="http://www.w3.org/2000/svg">
<rect x="0.7" y="0.7" width="26.6" height="26.6" rx="9.3" fill="#213547"/>
<rect x="0.7" y="0.7" width="26.6" height="26.6" rx="9.3" stroke="#213547" stroke-width="1.4"/>
<path d="M14 10.6602C14.9889 10.6602 15.9556 10.9534 16.7778 11.5028C17.6001 12.0522 18.241 12.8331 18.6194 13.7467C18.9978 14.6604 19.0969 15.6657 18.9039 16.6356C18.711 17.6055 18.2348 18.4964 17.5355 19.1957C16.8363 19.895 15.9454 20.3712 14.9754 20.5641C14.0055 20.757 13.0002 20.658 12.0866 20.2796C11.173 19.9011 10.3921 19.2603 9.84265 18.438C9.29324 17.6158 9 16.6491 9 15.6602" stroke="white" stroke-width="1.4"/>
<path d="M10.4782 11.0554C10.357 10.9376 10.357 10.743 10.4782 10.6252L13.5913 7.59862C13.7814 7.41373 14.1004 7.54848 14.1004 7.81372V10.8403L14.1004 13.8669C14.1004 14.1322 13.7814 14.2669 13.5913 14.082L10.4782 11.0554Z" fill="white" stroke="white" stroke-width="0.2"/>
</svg>
