<svg width="181" height="38" viewBox="0 0 181 38" fill="none" xmlns="http://www.w3.org/2000/svg">
<path d="M0 6C0 2.68629 2.68629 0 6 0H175C178.314 0 181 2.68629 181 6V32C181 35.3137 178.314 38 175 38H6C2.68629 38 0 35.3137 0 32V6Z" fill="#005C3F"/>
<path d="M20.4056 25C23.9212 25 26.7712 22.3137 26.7712 19C26.7712 15.6863 23.9212 13 20.4056 13C18.4436 13 16.9031 13.6846 15.7354 15C14.5677 16.3154 14.4766 18.0438 14.4766 18.0438" stroke="white" stroke-width="1.6" stroke-linecap="square"/>
<path d="M14.1161 20.9904C13.9231 21.1276 13.6569 21.0756 13.5389 20.8777L11.3906 17.2727C11.2146 16.9774 11.4837 16.6073 11.8259 16.674L17.4902 17.7795C17.8324 17.8462 17.9201 18.286 17.632 18.4908L14.1161 20.9904Z" fill="white"/>
<path d="M32.1186 24V13.8182H35.7479C36.5367 13.8182 37.1913 13.9541 37.7116 14.2259C38.2353 14.4976 38.6264 14.8738 38.8849 15.3544C39.1435 15.8317 39.2727 16.3835 39.2727 17.0099C39.2727 17.633 39.1418 18.1816 38.88 18.6555C38.6214 19.1262 38.2304 19.4924 37.7067 19.7543C37.1863 20.0161 36.5317 20.147 35.7429 20.147H32.9936V18.8246H35.6037C36.1009 18.8246 36.5052 18.7533 36.8168 18.6108C37.1316 18.4683 37.362 18.2611 37.5078 17.9893C37.6536 17.7176 37.7266 17.3911 37.7266 17.0099C37.7266 16.6255 37.652 16.2924 37.5028 16.0107C37.357 15.7289 37.1267 15.5135 36.8118 15.3643C36.5002 15.2119 36.0909 15.1357 35.5838 15.1357H33.6548V24H32.1186ZM37.1449 19.4062L39.6605 24H37.9105L35.4446 19.4062H37.1449ZM44.2182 24.1541C43.4658 24.1541 42.8179 23.9934 42.2743 23.6719C41.7341 23.3471 41.3165 22.8913 41.0215 22.3047C40.7298 21.7147 40.584 21.0237 40.584 20.2315C40.584 19.4493 40.7298 18.7599 41.0215 18.1634C41.3165 17.5668 41.7275 17.1011 42.2544 16.7663C42.7847 16.4316 43.4045 16.2642 44.1138 16.2642C44.5447 16.2642 44.9623 16.3355 45.3667 16.478C45.771 16.6205 46.1339 16.8442 46.4554 17.1491C46.7769 17.4541 47.0305 17.8501 47.2161 18.3374C47.4017 18.8213 47.4945 19.4096 47.4945 20.1023V20.6293H41.4242V19.5156H46.0378C46.0378 19.1245 45.9583 18.7782 45.7992 18.4766C45.6401 18.1716 45.4164 17.9313 45.128 17.7557C44.843 17.58 44.5082 17.4922 44.1238 17.4922C43.7061 17.4922 43.3416 17.5949 43.03 17.8004C42.7218 18.0026 42.4831 18.2678 42.3141 18.5959C42.1484 18.9207 42.0655 19.2737 42.0655 19.6548V20.5249C42.0655 21.0353 42.155 21.4695 42.334 21.8274C42.5163 22.1854 42.7698 22.4588 43.0946 22.6477C43.4194 22.8333 43.7989 22.9261 44.2331 22.9261C44.5149 22.9261 44.7717 22.8864 45.0037 22.8068C45.2357 22.724 45.4363 22.6013 45.6053 22.4389C45.7743 22.2765 45.9036 22.076 45.9931 21.8374L47.4 22.0909C47.2873 22.5052 47.0852 22.8681 46.7935 23.1797C46.5051 23.4879 46.1422 23.7282 45.7047 23.9006C45.2705 24.0696 44.775 24.1541 44.2182 24.1541ZM52.3455 27.0227C51.739 27.0227 51.217 26.9432 50.7795 26.7841C50.3453 26.625 49.9906 26.4145 49.7156 26.1527C49.4405 25.8909 49.235 25.6042 49.0991 25.2926L50.3768 24.7656C50.4663 24.9115 50.5856 25.0656 50.7347 25.228C50.8872 25.3937 51.0927 25.5346 51.3512 25.6506C51.613 25.7666 51.9495 25.8246 52.3604 25.8246C52.9239 25.8246 53.3896 25.687 53.7575 25.4119C54.1254 25.1402 54.3093 24.706 54.3093 24.1094V22.608H54.2148C54.1254 22.7704 53.9961 22.951 53.8271 23.1499C53.6613 23.3487 53.4326 23.5211 53.141 23.6669C52.8493 23.8127 52.4698 23.8857 52.0025 23.8857C51.3993 23.8857 50.8557 23.7448 50.3718 23.4631C49.8912 23.178 49.5101 22.7588 49.2283 22.2053C48.9499 21.6484 48.8107 20.964 48.8107 20.152C48.8107 19.34 48.9483 18.6439 49.2234 18.0639C49.5018 17.4839 49.8829 17.0398 50.3668 16.7315C50.8507 16.42 51.3993 16.2642 52.0124 16.2642C52.4864 16.2642 52.8692 16.3438 53.1609 16.5028C53.4525 16.6586 53.6796 16.8409 53.842 17.0497C54.0077 17.2585 54.1353 17.4425 54.2248 17.6016H54.3342V16.3636H55.7908V24.169C55.7908 24.8253 55.6384 25.3639 55.3335 25.7848C55.0285 26.2057 54.6159 26.5173 54.0955 26.7195C53.5785 26.9216 52.9951 27.0227 52.3455 27.0227ZM52.3306 22.6527C52.7582 22.6527 53.1194 22.5533 53.4144 22.3544C53.7127 22.1522 53.9381 21.8639 54.0906 21.4893C54.2463 21.1115 54.3242 20.6591 54.3242 20.1321C54.3242 19.6184 54.248 19.166 54.0955 18.7749C53.9431 18.3838 53.7193 18.0788 53.4244 17.8601C53.1294 17.638 52.7648 17.527 52.3306 17.527C51.8832 17.527 51.5103 17.643 51.212 17.875C50.9137 18.1037 50.6883 18.4152 50.5359 18.8097C50.3867 19.2041 50.3121 19.6449 50.3121 20.1321C50.3121 20.6326 50.3884 21.0717 50.5408 21.4496C50.6933 21.8274 50.9187 22.1224 51.217 22.3345C51.5186 22.5466 51.8898 22.6527 52.3306 22.6527ZM61.0756 24.1541C60.3233 24.1541 59.6753 23.9934 59.1317 23.6719C58.5915 23.3471 58.1739 22.8913 57.8789 22.3047C57.5872 21.7147 57.4414 21.0237 57.4414 20.2315C57.4414 19.4493 57.5872 18.7599 57.8789 18.1634C58.1739 17.5668 58.5849 17.1011 59.1119 16.7663C59.6422 16.4316 60.262 16.2642 60.9712 16.2642C61.4021 16.2642 61.8197 16.3355 62.2241 16.478C62.6284 16.6205 62.9914 16.8442 63.3129 17.1491C63.6344 17.4541 63.8879 17.8501 64.0735 18.3374C64.2591 18.8213 64.3519 19.4096 64.3519 20.1023V20.6293H58.2816V19.5156H62.8952C62.8952 19.1245 62.8157 18.7782 62.6566 18.4766C62.4975 18.1716 62.2738 17.9313 61.9854 17.7557C61.7004 17.58 61.3656 17.4922 60.9812 17.4922C60.5636 17.4922 60.199 17.5949 59.8874 17.8004C59.5792 18.0026 59.3406 18.2678 59.1715 18.5959C59.0058 18.9207 58.9229 19.2737 58.9229 19.6548V20.5249C58.9229 21.0353 59.0124 21.4695 59.1914 21.8274C59.3737 22.1854 59.6272 22.4588 59.9521 22.6477C60.2769 22.8333 60.6564 22.9261 61.0906 22.9261C61.3723 22.9261 61.6291 22.8864 61.8612 22.8068C62.0932 22.724 62.2937 22.6013 62.4627 22.4389C62.6317 22.2765 62.761 22.076 62.8505 21.8374L64.2575 22.0909C64.1448 22.5052 63.9426 22.8681 63.6509 23.1797C63.3626 23.4879 62.9996 23.7282 62.5621 23.9006C62.128 24.0696 61.6325 24.1541 61.0756 24.1541ZM67.4877 19.4659V24H66.0012V16.3636H67.4281V17.6065H67.5225C67.6982 17.2022 67.9733 16.8774 68.3478 16.6321C68.7257 16.3868 69.2013 16.2642 69.7747 16.2642C70.295 16.2642 70.7508 16.3736 71.1419 16.5923C71.533 16.8078 71.8362 17.1293 72.0517 17.5568C72.2671 17.9844 72.3748 18.513 72.3748 19.1428V24H70.8883V19.3217C70.8883 18.7682 70.7441 18.3357 70.4558 18.0241C70.1674 17.7093 69.7714 17.5518 69.2676 17.5518C68.9229 17.5518 68.6163 17.6264 68.3478 17.7756C68.0827 17.9247 67.8722 18.1435 67.7164 18.4318C67.564 18.7169 67.4877 19.0616 67.4877 19.4659ZM77.6596 24.1541C76.9073 24.1541 76.2593 23.9934 75.7157 23.6719C75.1755 23.3471 74.7579 22.8913 74.4629 22.3047C74.1712 21.7147 74.0254 21.0237 74.0254 20.2315C74.0254 19.4493 74.1712 18.7599 74.4629 18.1634C74.7579 17.5668 75.1689 17.1011 75.6958 16.7663C76.2261 16.4316 76.8459 16.2642 77.5552 16.2642C77.9861 16.2642 78.4037 16.3355 78.8081 16.478C79.2124 16.6205 79.5753 16.8442 79.8968 17.1491C80.2183 17.4541 80.4719 17.8501 80.6575 18.3374C80.8431 18.8213 80.9359 19.4096 80.9359 20.1023V20.6293H74.8656V19.5156H79.4792C79.4792 19.1245 79.3997 18.7782 79.2406 18.4766C79.0815 18.1716 78.8578 17.9313 78.5694 17.7557C78.2844 17.58 77.9496 17.4922 77.5652 17.4922C77.1475 17.4922 76.783 17.5949 76.4714 17.8004C76.1632 18.0026 75.9245 18.2678 75.7555 18.5959C75.5898 18.9207 75.5069 19.2737 75.5069 19.6548V20.5249C75.5069 21.0353 75.5964 21.4695 75.7754 21.8274C75.9577 22.1854 76.2112 22.4588 76.536 22.6477C76.8609 22.8333 77.2404 22.9261 77.6745 22.9261C77.9563 22.9261 78.2131 22.8864 78.4451 22.8068C78.6771 22.724 78.8777 22.6013 79.0467 22.4389C79.2157 22.2765 79.345 22.076 79.4345 21.8374L80.8414 22.0909C80.7288 22.5052 80.5266 22.8681 80.2349 23.1797C79.9466 23.4879 79.5836 23.7282 79.1461 23.9006C78.7119 24.0696 78.2164 24.1541 77.6596 24.1541ZM82.5852 24V16.3636H84.022V17.5767H84.1016C84.2408 17.1657 84.486 16.8426 84.8374 16.6072C85.192 16.3686 85.593 16.2493 86.0405 16.2493C86.1333 16.2493 86.2427 16.2526 86.3686 16.2592C86.4979 16.2659 86.599 16.2741 86.6719 16.2841V17.706C86.6122 17.6894 86.5062 17.6712 86.3537 17.6513C86.2012 17.6281 86.0488 17.6165 85.8963 17.6165C85.545 17.6165 85.2318 17.6911 84.9567 17.8402C84.6849 17.986 84.4695 18.1899 84.3104 18.4517C84.1513 18.7102 84.0717 19.0052 84.0717 19.3366V24H82.5852ZM90.1122 24.169C89.6283 24.169 89.1908 24.0795 88.7997 23.9006C88.4086 23.7183 88.0987 23.4548 87.87 23.1101C87.6446 22.7654 87.532 22.3428 87.532 21.8423C87.532 21.4115 87.6148 21.0568 87.7805 20.7784C87.9463 20.5 88.17 20.2796 88.4517 20.1172C88.7334 19.9548 89.0483 19.8321 89.3963 19.7493C89.7443 19.6664 90.099 19.6035 90.4602 19.5604C90.9176 19.5073 91.2888 19.4643 91.5739 19.4311C91.8589 19.3946 92.0661 19.3366 92.1953 19.2571C92.3246 19.1776 92.3892 19.0483 92.3892 18.8693V18.8345C92.3892 18.4003 92.2666 18.0639 92.0213 17.8253C91.7794 17.5866 91.4181 17.4673 90.9375 17.4673C90.437 17.4673 90.0426 17.5784 89.7543 17.8004C89.4692 18.0192 89.272 18.2628 89.1626 18.5312L87.7656 18.2131C87.9313 17.7491 88.1733 17.3745 88.4915 17.0895C88.813 16.8011 89.1825 16.5923 89.6001 16.4631C90.0178 16.3305 90.4569 16.2642 90.9176 16.2642C91.2225 16.2642 91.5457 16.3007 91.8871 16.3736C92.2318 16.4432 92.5533 16.5724 92.8516 16.7614C93.1532 16.9503 93.4001 17.2204 93.5923 17.5717C93.7846 17.9197 93.8807 18.3722 93.8807 18.929V24H92.429V22.956H92.3693C92.2732 23.1482 92.129 23.3371 91.9368 23.5227C91.7446 23.7083 91.4976 23.8625 91.196 23.9851C90.8944 24.1077 90.5331 24.169 90.1122 24.169ZM90.4354 22.9759C90.8464 22.9759 91.1977 22.8946 91.4893 22.7322C91.7843 22.5698 92.008 22.3577 92.1605 22.0959C92.3163 21.8307 92.3942 21.5473 92.3942 21.2457V20.2614C92.3411 20.3144 92.2384 20.3641 92.0859 20.4105C91.9368 20.4536 91.7661 20.4917 91.5739 20.5249C91.3816 20.5547 91.1944 20.5829 91.0121 20.6094C90.8298 20.6326 90.6773 20.6525 90.5547 20.669C90.2663 20.7055 90.0028 20.7668 89.7642 20.853C89.5289 20.9392 89.34 21.0634 89.1974 21.2259C89.0582 21.3849 88.9886 21.5971 88.9886 21.8622C88.9886 22.2301 89.1245 22.5085 89.3963 22.6974C89.6681 22.883 90.0144 22.9759 90.4354 22.9759ZM99.4252 16.3636V17.5568H95.2541V16.3636H99.4252ZM96.3727 14.5341H97.8592V21.7578C97.8592 22.0462 97.9023 22.2633 97.9885 22.4091C98.0746 22.5516 98.1857 22.6494 98.3216 22.7024C98.4608 22.7521 98.6116 22.777 98.774 22.777C98.8933 22.777 98.9977 22.7687 99.0872 22.7521C99.1767 22.7356 99.2463 22.7223 99.296 22.7124L99.5645 23.9403C99.4783 23.9735 99.3556 24.0066 99.1966 24.0398C99.0375 24.0762 98.8386 24.0961 98.6 24.0994C98.2089 24.1061 97.8443 24.0365 97.5062 23.8906C97.1681 23.7448 96.8947 23.5194 96.6859 23.2145C96.4771 22.9096 96.3727 22.5268 96.3727 22.0661V14.5341ZM104.279 24.1541C103.526 24.1541 102.878 23.9934 102.335 23.6719C101.795 23.3471 101.377 22.8913 101.082 22.3047C100.79 21.7147 100.645 21.0237 100.645 20.2315C100.645 19.4493 100.79 18.7599 101.082 18.1634C101.377 17.5668 101.788 17.1011 102.315 16.7663C102.845 16.4316 103.465 16.2642 104.174 16.2642C104.605 16.2642 105.023 16.3355 105.427 16.478C105.832 16.6205 106.194 16.8442 106.516 17.1491C106.837 17.4541 107.091 17.8501 107.277 18.3374C107.462 18.8213 107.555 19.4096 107.555 20.1023V20.6293H101.485V19.5156H106.098C106.098 19.1245 106.019 18.7782 105.86 18.4766C105.701 18.1716 105.477 17.9313 105.189 17.7557C104.904 17.58 104.569 17.4922 104.184 17.4922C103.767 17.4922 103.402 17.5949 103.091 17.8004C102.782 18.0026 102.544 18.2678 102.375 18.5959C102.209 18.9207 102.126 19.2737 102.126 19.6548V20.5249C102.126 21.0353 102.216 21.4695 102.395 21.8274C102.577 22.1854 102.83 22.4588 103.155 22.6477C103.48 22.8333 103.859 22.9261 104.294 22.9261C104.575 22.9261 104.832 22.8864 105.064 22.8068C105.296 22.724 105.497 22.6013 105.666 22.4389C105.835 22.2765 105.964 22.076 106.054 21.8374L107.461 22.0909C107.348 22.5052 107.146 22.8681 106.854 23.1797C106.566 23.4879 106.203 23.7282 105.765 23.9006C105.331 24.0696 104.836 24.1541 104.279 24.1541ZM113.029 13.8182H114.893L118.135 21.733H118.254L121.495 13.8182H123.36V24H121.898V16.6321H121.804L118.801 23.9851H117.588L114.585 16.6271H114.49V24H113.029V13.8182ZM128.765 24.1541C128.013 24.1541 127.365 23.9934 126.821 23.6719C126.281 23.3471 125.863 22.8913 125.568 22.3047C125.277 21.7147 125.131 21.0237 125.131 20.2315C125.131 19.4493 125.277 18.7599 125.568 18.1634C125.863 17.5668 126.274 17.1011 126.801 16.7663C127.332 16.4316 127.951 16.2642 128.661 16.2642C129.092 16.2642 129.509 16.3355 129.914 16.478C130.318 16.6205 130.681 16.8442 131.002 17.1491C131.324 17.4541 131.577 17.8501 131.763 18.3374C131.949 18.8213 132.041 19.4096 132.041 20.1023V20.6293H125.971V19.5156H130.585C130.585 19.1245 130.505 18.7782 130.346 18.4766C130.187 18.1716 129.963 17.9313 129.675 17.7557C129.39 17.58 129.055 17.4922 128.671 17.4922C128.253 17.4922 127.888 17.5949 127.577 17.8004C127.269 18.0026 127.03 18.2678 126.861 18.5959C126.695 18.9207 126.612 19.2737 126.612 19.6548V20.5249C126.612 21.0353 126.702 21.4695 126.881 21.8274C127.063 22.1854 127.317 22.4588 127.642 22.6477C127.966 22.8333 128.346 22.9261 128.78 22.9261C129.062 22.9261 129.319 22.8864 129.551 22.8068C129.783 22.724 129.983 22.6013 130.152 22.4389C130.321 22.2765 130.45 22.076 130.54 21.8374L131.947 22.0909C131.834 22.5052 131.632 22.8681 131.34 23.1797C131.052 23.4879 130.689 23.7282 130.252 23.9006C129.817 24.0696 129.322 24.1541 128.765 24.1541ZM139.413 18.228L138.066 18.4666C138.009 18.2943 137.92 18.1302 137.797 17.9744C137.678 17.8187 137.516 17.6911 137.31 17.5916C137.105 17.4922 136.848 17.4425 136.539 17.4425C136.118 17.4425 135.767 17.5369 135.485 17.7259C135.204 17.9115 135.063 18.1518 135.063 18.4467C135.063 18.7019 135.157 18.9074 135.346 19.0632C135.535 19.219 135.84 19.3466 136.261 19.446L137.474 19.7244C138.177 19.8868 138.7 20.1371 139.045 20.4751C139.39 20.8132 139.562 21.2524 139.562 21.7926C139.562 22.25 139.43 22.6577 139.164 23.0156C138.903 23.3703 138.536 23.6487 138.066 23.8509C137.598 24.053 137.056 24.1541 136.44 24.1541C135.585 24.1541 134.887 23.9718 134.347 23.6072C133.807 23.2393 133.475 22.7173 133.353 22.0412L134.789 21.8224C134.879 22.197 135.063 22.4804 135.341 22.6726C135.62 22.8615 135.983 22.956 136.43 22.956C136.917 22.956 137.307 22.8549 137.598 22.6527C137.89 22.4472 138.036 22.197 138.036 21.902C138.036 21.6634 137.946 21.4628 137.767 21.3004C137.592 21.138 137.322 21.0154 136.957 20.9325L135.664 20.6491C134.952 20.4867 134.425 20.2282 134.083 19.8736C133.745 19.5189 133.576 19.0698 133.576 18.5263C133.576 18.0755 133.702 17.6811 133.954 17.343C134.206 17.005 134.554 16.7415 134.998 16.5526C135.442 16.3603 135.951 16.2642 136.525 16.2642C137.35 16.2642 137.999 16.4432 138.473 16.8011C138.947 17.1558 139.261 17.6314 139.413 18.228ZM146.919 18.228L145.572 18.4666C145.515 18.2943 145.426 18.1302 145.303 17.9744C145.184 17.8187 145.021 17.6911 144.816 17.5916C144.61 17.4922 144.354 17.4425 144.045 17.4425C143.624 17.4425 143.273 17.5369 142.991 17.7259C142.71 17.9115 142.569 18.1518 142.569 18.4467C142.569 18.7019 142.663 18.9074 142.852 19.0632C143.041 19.219 143.346 19.3466 143.767 19.446L144.98 19.7244C145.683 19.8868 146.206 20.1371 146.551 20.4751C146.896 20.8132 147.068 21.2524 147.068 21.7926C147.068 22.25 146.935 22.6577 146.67 23.0156C146.408 23.3703 146.042 23.6487 145.572 23.8509C145.104 24.053 144.562 24.1541 143.946 24.1541C143.091 24.1541 142.393 23.9718 141.853 23.6072C141.313 23.2393 140.981 22.7173 140.858 22.0412L142.295 21.8224C142.385 22.197 142.569 22.4804 142.847 22.6726C143.126 22.8615 143.488 22.956 143.936 22.956C144.423 22.956 144.813 22.8549 145.104 22.6527C145.396 22.4472 145.542 22.197 145.542 21.902C145.542 21.6634 145.452 21.4628 145.273 21.3004C145.098 21.138 144.827 21.0154 144.463 20.9325L143.17 20.6491C142.458 20.4867 141.931 20.2282 141.589 19.8736C141.251 19.5189 141.082 19.0698 141.082 18.5263C141.082 18.0755 141.208 17.6811 141.46 17.343C141.712 17.005 142.06 16.7415 142.504 16.5526C142.948 16.3603 143.457 16.2642 144.03 16.2642C144.856 16.2642 145.505 16.4432 145.979 16.8011C146.453 17.1558 146.766 17.6314 146.919 18.228ZM150.925 24.169C150.441 24.169 150.003 24.0795 149.612 23.9006C149.221 23.7183 148.911 23.4548 148.683 23.1101C148.457 22.7654 148.344 22.3428 148.344 21.8423C148.344 21.4115 148.427 21.0568 148.593 20.7784C148.759 20.5 148.982 20.2796 149.264 20.1172C149.546 19.9548 149.861 19.8321 150.209 19.7493C150.557 19.6664 150.911 19.6035 151.273 19.5604C151.73 19.5073 152.101 19.4643 152.386 19.4311C152.671 19.3946 152.879 19.3366 153.008 19.2571C153.137 19.1776 153.202 19.0483 153.202 18.8693V18.8345C153.202 18.4003 153.079 18.0639 152.834 17.8253C152.592 17.5866 152.231 17.4673 151.75 17.4673C151.25 17.4673 150.855 17.5784 150.567 17.8004C150.282 18.0192 150.085 18.2628 149.975 18.5312L148.578 18.2131C148.744 17.7491 148.986 17.3745 149.304 17.0895C149.625 16.8011 149.995 16.5923 150.413 16.4631C150.83 16.3305 151.269 16.2642 151.73 16.2642C152.035 16.2642 152.358 16.3007 152.7 16.3736C153.044 16.4432 153.366 16.5724 153.664 16.7614C153.966 16.9503 154.213 17.2204 154.405 17.5717C154.597 17.9197 154.693 18.3722 154.693 18.929V24H153.241V22.956H153.182C153.086 23.1482 152.942 23.3371 152.749 23.5227C152.557 23.7083 152.31 23.8625 152.009 23.9851C151.707 24.1077 151.346 24.169 150.925 24.169ZM151.248 22.9759C151.659 22.9759 152.01 22.8946 152.302 22.7322C152.597 22.5698 152.821 22.3577 152.973 22.0959C153.129 21.8307 153.207 21.5473 153.207 21.2457V20.2614C153.154 20.3144 153.051 20.3641 152.898 20.4105C152.749 20.4536 152.579 20.4917 152.386 20.5249C152.194 20.5547 152.007 20.5829 151.825 20.6094C151.642 20.6326 151.49 20.6525 151.367 20.669C151.079 20.7055 150.815 20.7668 150.577 20.853C150.341 20.9392 150.152 21.0634 150.01 21.2259C149.871 21.3849 149.801 21.5971 149.801 21.8622C149.801 22.2301 149.937 22.5085 150.209 22.6974C150.481 22.883 150.827 22.9759 151.248 22.9759ZM159.875 27.0227C159.268 27.0227 158.746 26.9432 158.309 26.7841C157.875 26.625 157.52 26.4145 157.245 26.1527C156.97 25.8909 156.764 25.6042 156.628 25.2926L157.906 24.7656C157.996 24.9115 158.115 25.0656 158.264 25.228C158.416 25.3937 158.622 25.5346 158.881 25.6506C159.142 25.7666 159.479 25.8246 159.89 25.8246C160.453 25.8246 160.919 25.687 161.287 25.4119C161.655 25.1402 161.839 24.706 161.839 24.1094V22.608H161.744C161.655 22.7704 161.525 22.951 161.356 23.1499C161.191 23.3487 160.962 23.5211 160.67 23.6669C160.379 23.8127 159.999 23.8857 159.532 23.8857C158.929 23.8857 158.385 23.7448 157.901 23.4631C157.421 23.178 157.039 22.7588 156.758 22.2053C156.479 21.6484 156.34 20.964 156.34 20.152C156.34 19.34 156.478 18.6439 156.753 18.0639C157.031 17.4839 157.412 17.0398 157.896 16.7315C158.38 16.42 158.929 16.2642 159.542 16.2642C160.016 16.2642 160.398 16.3438 160.69 16.5028C160.982 16.6586 161.209 16.8409 161.371 17.0497C161.537 17.2585 161.665 17.4425 161.754 17.6016H161.863V16.3636H163.32V24.169C163.32 24.8253 163.168 25.3639 162.863 25.7848C162.558 26.2057 162.145 26.5173 161.625 26.7195C161.108 26.9216 160.524 27.0227 159.875 27.0227ZM159.86 22.6527C160.287 22.6527 160.649 22.5533 160.944 22.3544C161.242 22.1522 161.467 21.8639 161.62 21.4893C161.776 21.1115 161.854 20.6591 161.854 20.1321C161.854 19.6184 161.777 19.166 161.625 18.7749C161.472 18.3838 161.249 18.0788 160.954 17.8601C160.659 17.638 160.294 17.527 159.86 17.527C159.412 17.527 159.04 17.643 158.741 17.875C158.443 18.1037 158.218 18.4152 158.065 18.8097C157.916 19.2041 157.841 19.6449 157.841 20.1321C157.841 20.6326 157.918 21.0717 158.07 21.4496C158.223 21.8274 158.448 22.1224 158.746 22.3345C159.048 22.5466 159.419 22.6527 159.86 22.6527ZM168.605 24.1541C167.853 24.1541 167.205 23.9934 166.661 23.6719C166.121 23.3471 165.703 22.8913 165.408 22.3047C165.117 21.7147 164.971 21.0237 164.971 20.2315C164.971 19.4493 165.117 18.7599 165.408 18.1634C165.703 17.5668 166.114 17.1011 166.641 16.7663C167.171 16.4316 167.791 16.2642 168.501 16.2642C168.931 16.2642 169.349 16.3355 169.753 16.478C170.158 16.6205 170.521 16.8442 170.842 17.1491C171.164 17.4541 171.417 17.8501 171.603 18.3374C171.788 18.8213 171.881 19.4096 171.881 20.1023V20.6293H165.811V19.5156H170.425C170.425 19.1245 170.345 18.7782 170.186 18.4766C170.027 18.1716 169.803 17.9313 169.515 17.7557C169.23 17.58 168.895 17.4922 168.51 17.4922C168.093 17.4922 167.728 17.5949 167.417 17.8004C167.108 18.0026 166.87 18.2678 166.701 18.5959C166.535 18.9207 166.452 19.2737 166.452 19.6548V20.5249C166.452 21.0353 166.542 21.4695 166.721 21.8274C166.903 22.1854 167.157 22.4588 167.481 22.6477C167.806 22.8333 168.186 22.9261 168.62 22.9261C168.902 22.9261 169.158 22.8864 169.39 22.8068C169.622 22.724 169.823 22.6013 169.992 22.4389C170.161 22.2765 170.29 22.076 170.38 21.8374L171.787 22.0909C171.674 22.5052 171.472 22.8681 171.18 23.1797C170.892 23.4879 170.529 23.7282 170.091 23.9006C169.657 24.0696 169.162 24.1541 168.605 24.1541Z" fill="white"/>
</svg>
