<svg width="151" height="36" viewBox="0 0 151 36" fill="none" xmlns="http://www.w3.org/2000/svg">
<path d="M18.8463 24C22.1275 24 24.7875 21.3137 24.7875 18C24.7875 14.6863 22.1275 12 18.8463 12C17.0151 12 15.5773 12.6846 14.4874 14C13.3976 15.3154 13.3125 17.0438 13.3125 17.0438" stroke="#151515" stroke-width="1.6" stroke-linecap="square"/>
<path d="M13.3065 19.7856C13.1094 19.9461 12.8144 19.8845 12.6982 19.6584L10.7844 15.9374C10.6304 15.6381 10.8925 15.2941 11.222 15.363L16.3801 16.4415C16.7096 16.5104 16.8118 16.9306 16.5508 17.1432L13.3065 19.7856Z" fill="#151515"/>
<path d="M32.9911 23V13.466C33.3831 13.3727 33.8171 13.3073 34.2931 13.27C34.7691 13.2233 35.2031 13.2 35.5951 13.2C36.9671 13.2 38.0124 13.4567 38.7311 13.97C39.4498 14.4833 39.8091 15.2533 39.8091 16.28C39.8091 16.98 39.6318 17.5447 39.2771 17.974C38.9318 18.4033 38.4511 18.7207 37.8351 18.926C38.0031 19.1407 38.1991 19.402 38.4231 19.71C38.6471 20.018 38.8758 20.3587 39.1091 20.732C39.3518 21.096 39.5851 21.474 39.8091 21.866C40.0331 22.258 40.2291 22.636 40.3971 23H38.8011C38.5584 22.5333 38.2878 22.0667 37.9891 21.6C37.6998 21.124 37.4104 20.6807 37.1211 20.27C36.8411 19.85 36.5844 19.4953 36.3511 19.206C36.2578 19.206 36.1644 19.2107 36.0711 19.22C35.9871 19.2293 35.8984 19.234 35.8051 19.234H34.4331V23H32.9911ZM34.4331 18.058H35.4691C36.0478 18.058 36.5471 18.016 36.9671 17.932C37.3964 17.8387 37.7278 17.6613 37.9611 17.4C38.1944 17.1387 38.3111 16.7607 38.3111 16.266C38.3111 15.79 38.1944 15.4213 37.9611 15.16C37.7371 14.8987 37.4244 14.7167 37.0231 14.614C36.6311 14.502 36.1924 14.446 35.7071 14.446C35.4364 14.446 35.1938 14.4553 34.9791 14.474C34.7644 14.4927 34.5824 14.5113 34.4331 14.53V18.058ZM44.9881 23.168C44.1295 23.168 43.4248 23.0047 42.8741 22.678C42.3328 22.342 41.9315 21.8893 41.6701 21.32C41.4181 20.7507 41.2921 20.102 41.2921 19.374C41.2921 18.5153 41.4508 17.806 41.7681 17.246C42.0855 16.6767 42.4961 16.252 43.0001 15.972C43.5135 15.6827 44.0501 15.538 44.6101 15.538C45.2448 15.538 45.7908 15.6733 46.2481 15.944C46.7148 16.2053 47.0741 16.6067 47.3261 17.148C47.5781 17.68 47.7041 18.3567 47.7041 19.178C47.7041 19.262 47.6995 19.3553 47.6901 19.458C47.6901 19.5607 47.6855 19.6587 47.6761 19.752H42.7201C42.7668 20.4427 42.9815 20.984 43.3641 21.376C43.7561 21.7587 44.3395 21.95 45.1141 21.95C45.5621 21.95 45.9448 21.908 46.2621 21.824C46.5888 21.74 46.8361 21.6607 47.0041 21.586L47.2141 22.734C47.0555 22.818 46.7661 22.9113 46.3461 23.014C45.9355 23.1167 45.4828 23.168 44.9881 23.168ZM42.7481 18.702H46.3321C46.3228 18.31 46.2528 17.9647 46.1221 17.666C45.9915 17.3673 45.8001 17.134 45.5481 16.966C45.3055 16.798 44.9975 16.714 44.6241 16.714C44.2415 16.714 43.9148 16.8073 43.6441 16.994C43.3735 17.1807 43.1635 17.428 43.0141 17.736C42.8648 18.0347 42.7761 18.3567 42.7481 18.702ZM51.2815 23.182C50.6468 23.182 50.1381 23.126 49.7555 23.014C49.3821 22.902 49.1301 22.818 48.9995 22.762L49.2795 21.586C49.4661 21.6513 49.7275 21.74 50.0635 21.852C50.3995 21.9547 50.8055 22.006 51.2815 22.006C51.7575 22.006 52.1261 21.9407 52.3875 21.81C52.6581 21.6793 52.7935 21.446 52.7935 21.11C52.7935 20.9047 52.7375 20.7367 52.6255 20.606C52.5228 20.4753 52.3595 20.354 52.1355 20.242C51.9115 20.1207 51.6081 19.9853 51.2255 19.836C50.8428 19.6773 50.4928 19.514 50.1755 19.346C49.8581 19.1687 49.6061 18.9447 49.4195 18.674C49.2328 18.4033 49.1395 18.0487 49.1395 17.61C49.1395 17.19 49.2468 16.826 49.4615 16.518C49.6761 16.21 49.9795 15.972 50.3715 15.804C50.7728 15.6267 51.2441 15.538 51.7855 15.538C52.2615 15.538 52.6768 15.58 53.0315 15.664C53.3955 15.7387 53.6661 15.8133 53.8435 15.888L53.5635 17.036C53.4048 16.9613 53.1855 16.8867 52.9055 16.812C52.6348 16.728 52.2755 16.686 51.8275 16.686C51.4541 16.686 51.1415 16.756 50.8895 16.896C50.6468 17.036 50.5255 17.2553 50.5255 17.554C50.5255 17.7593 50.5721 17.9273 50.6655 18.058C50.7681 18.1887 50.9268 18.31 51.1415 18.422C51.3561 18.534 51.6361 18.6553 51.9815 18.786C52.4481 18.9633 52.8448 19.1453 53.1715 19.332C53.4981 19.5187 53.7455 19.752 53.9135 20.032C54.0908 20.3027 54.1795 20.6573 54.1795 21.096C54.1795 21.5533 54.0628 21.936 53.8295 22.244C53.6055 22.552 53.2741 22.7853 52.8355 22.944C52.4061 23.1027 51.8881 23.182 51.2815 23.182ZM59.1659 23.168C58.3072 23.168 57.6025 23.0047 57.0519 22.678C56.5105 22.342 56.1092 21.8893 55.8479 21.32C55.5959 20.7507 55.4699 20.102 55.4699 19.374C55.4699 18.5153 55.6285 17.806 55.9459 17.246C56.2632 16.6767 56.6739 16.252 57.1779 15.972C57.6912 15.6827 58.2279 15.538 58.7879 15.538C59.4225 15.538 59.9685 15.6733 60.4259 15.944C60.8925 16.2053 61.2519 16.6067 61.5039 17.148C61.7559 17.68 61.8819 18.3567 61.8819 19.178C61.8819 19.262 61.8772 19.3553 61.8679 19.458C61.8679 19.5607 61.8632 19.6587 61.8539 19.752H56.8979C56.9445 20.4427 57.1592 20.984 57.5419 21.376C57.9339 21.7587 58.5172 21.95 59.2919 21.95C59.7399 21.95 60.1225 21.908 60.4399 21.824C60.7665 21.74 61.0139 21.6607 61.1819 21.586L61.3919 22.734C61.2332 22.818 60.9439 22.9113 60.5239 23.014C60.1132 23.1167 59.6605 23.168 59.1659 23.168ZM56.9259 18.702H60.5099C60.5005 18.31 60.4305 17.9647 60.2999 17.666C60.1692 17.3673 59.9779 17.134 59.7259 16.966C59.4832 16.798 59.1752 16.714 58.8019 16.714C58.4192 16.714 58.0925 16.8073 57.8219 16.994C57.5512 17.1807 57.3412 17.428 57.1919 17.736C57.0425 18.0347 56.9539 18.3567 56.9259 18.702ZM63.7232 23V15.958C64.0405 15.874 64.4465 15.79 64.9412 15.706C65.4359 15.6127 66.0052 15.566 66.6492 15.566C67.4332 15.566 68.0399 15.706 68.4692 15.986C68.9079 16.266 69.2159 16.658 69.3932 17.162C69.5705 17.6567 69.6592 18.24 69.6592 18.912V23H68.2732V19.192C68.2732 18.5947 68.2172 18.1233 68.1052 17.778C68.0025 17.4233 67.8252 17.1667 67.5732 17.008C67.3212 16.8493 66.9665 16.77 66.5092 16.77C66.2012 16.77 65.9165 16.7887 65.6552 16.826C65.4032 16.854 65.2259 16.882 65.1232 16.91V23H63.7232ZM75.0793 23.168C74.3326 23.168 73.6839 23.0187 73.1333 22.72C72.5826 22.412 72.1579 21.9733 71.8593 21.404C71.5606 20.8347 71.4113 20.158 71.4113 19.374C71.4113 18.6087 71.5373 17.9413 71.7893 17.372C72.0506 16.8027 72.4239 16.3593 72.9093 16.042C73.4039 15.7153 73.9966 15.552 74.6873 15.552C75.0886 15.552 75.4386 15.608 75.7373 15.72C76.0453 15.8227 76.2926 15.93 76.4793 16.042V12.374L77.8653 12.136V22.776C77.6599 22.832 77.4126 22.8927 77.1233 22.958C76.8433 23.0233 76.5306 23.0747 76.1853 23.112C75.8399 23.1493 75.4713 23.168 75.0793 23.168ZM75.0933 21.964C75.4293 21.964 75.7139 21.95 75.9473 21.922C76.1806 21.8847 76.3579 21.8473 76.4793 21.81V17.26C76.3299 17.148 76.1106 17.0407 75.8213 16.938C75.5319 16.826 75.2146 16.77 74.8693 16.77C74.5053 16.77 74.1926 16.8307 73.9313 16.952C73.6793 17.0733 73.4693 17.2507 73.3013 17.484C73.1426 17.7173 73.0259 17.9927 72.9513 18.31C72.8766 18.618 72.8393 18.9587 72.8393 19.332C72.8393 19.8827 72.9326 20.354 73.1193 20.746C73.3059 21.138 73.5673 21.4413 73.9033 21.656C74.2393 21.8613 74.6359 21.964 75.0933 21.964ZM83.1883 23C83.2257 22.1693 83.2677 21.3293 83.3143 20.48C83.361 19.6213 83.4123 18.7767 83.4683 17.946C83.5337 17.106 83.599 16.294 83.6643 15.51C83.739 14.726 83.8183 13.9887 83.9023 13.298H85.2463C85.4797 13.6993 85.7317 14.1753 86.0023 14.726C86.2823 15.2673 86.5623 15.846 86.8423 16.462C87.1317 17.0687 87.4117 17.6753 87.6823 18.282C87.953 18.8793 88.1957 19.4253 88.4103 19.92C88.6343 19.4253 88.877 18.8793 89.1383 18.282C89.409 17.6753 89.6843 17.0687 89.9643 16.462C90.2537 15.846 90.5383 15.2673 90.8183 14.726C91.0983 14.1753 91.355 13.6993 91.5883 13.298H92.8483C92.9417 13.9887 93.021 14.726 93.0863 15.51C93.161 16.294 93.2263 17.106 93.2823 17.946C93.3383 18.7767 93.3897 19.6213 93.4363 20.48C93.4923 21.3293 93.539 22.1693 93.5763 23H92.1483C92.1203 22.1507 92.0877 21.3013 92.0503 20.452C92.013 19.6027 91.9663 18.7673 91.9103 17.946C91.8637 17.1153 91.803 16.322 91.7283 15.566C91.6257 15.79 91.481 16.098 91.2943 16.49C91.1077 16.882 90.9023 17.3207 90.6783 17.806C90.4543 18.282 90.2303 18.7673 90.0063 19.262C89.7823 19.7567 89.5723 20.2187 89.3763 20.648C89.1897 21.068 89.045 21.4087 88.9423 21.67H87.8083C87.6963 21.4087 87.547 21.068 87.3603 20.648C87.1737 20.2187 86.9683 19.7567 86.7443 19.262C86.5203 18.7673 86.2963 18.282 86.0723 17.806C85.8483 17.3207 85.643 16.882 85.4563 16.49C85.2697 16.098 85.125 15.79 85.0223 15.566C84.9477 16.322 84.8823 17.1153 84.8263 17.946C84.7797 18.7673 84.7377 19.6027 84.7003 20.452C84.663 21.3013 84.6303 22.1507 84.6023 23H83.1883ZM98.9373 23.168C98.0787 23.168 97.374 23.0047 96.8233 22.678C96.282 22.342 95.8807 21.8893 95.6193 21.32C95.3673 20.7507 95.2413 20.102 95.2413 19.374C95.2413 18.5153 95.4 17.806 95.7173 17.246C96.0347 16.6767 96.4453 16.252 96.9493 15.972C97.4627 15.6827 97.9993 15.538 98.5593 15.538C99.194 15.538 99.74 15.6733 100.197 15.944C100.664 16.2053 101.023 16.6067 101.275 17.148C101.527 17.68 101.653 18.3567 101.653 19.178C101.653 19.262 101.649 19.3553 101.639 19.458C101.639 19.5607 101.635 19.6587 101.625 19.752H96.6693C96.716 20.4427 96.9307 20.984 97.3133 21.376C97.7053 21.7587 98.2887 21.95 99.0633 21.95C99.5113 21.95 99.894 21.908 100.211 21.824C100.538 21.74 100.785 21.6607 100.953 21.586L101.163 22.734C101.005 22.818 100.715 22.9113 100.295 23.014C99.8847 23.1167 99.432 23.168 98.9373 23.168ZM96.6973 18.702H100.281C100.272 18.31 100.202 17.9647 100.071 17.666C99.9407 17.3673 99.7493 17.134 99.4973 16.966C99.2547 16.798 98.9467 16.714 98.5733 16.714C98.1907 16.714 97.864 16.8073 97.5933 16.994C97.3227 17.1807 97.1127 17.428 96.9633 17.736C96.814 18.0347 96.7253 18.3567 96.6973 18.702ZM105.231 23.182C104.596 23.182 104.087 23.126 103.705 23.014C103.331 22.902 103.079 22.818 102.949 22.762L103.229 21.586C103.415 21.6513 103.677 21.74 104.013 21.852C104.349 21.9547 104.755 22.006 105.231 22.006C105.707 22.006 106.075 21.9407 106.337 21.81C106.607 21.6793 106.743 21.446 106.743 21.11C106.743 20.9047 106.687 20.7367 106.575 20.606C106.472 20.4753 106.309 20.354 106.085 20.242C105.861 20.1207 105.557 19.9853 105.175 19.836C104.792 19.6773 104.442 19.514 104.125 19.346C103.807 19.1687 103.555 18.9447 103.369 18.674C103.182 18.4033 103.089 18.0487 103.089 17.61C103.089 17.19 103.196 16.826 103.411 16.518C103.625 16.21 103.929 15.972 104.321 15.804C104.722 15.6267 105.193 15.538 105.735 15.538C106.211 15.538 106.626 15.58 106.981 15.664C107.345 15.7387 107.615 15.8133 107.793 15.888L107.513 17.036C107.354 16.9613 107.135 16.8867 106.855 16.812C106.584 16.728 106.225 16.686 105.777 16.686C105.403 16.686 105.091 16.756 104.839 16.896C104.596 17.036 104.475 17.2553 104.475 17.554C104.475 17.7593 104.521 17.9273 104.615 18.058C104.717 18.1887 104.876 18.31 105.091 18.422C105.305 18.534 105.585 18.6553 105.931 18.786C106.397 18.9633 106.794 19.1453 107.121 19.332C107.447 19.5187 107.695 19.752 107.863 20.032C108.04 20.3027 108.129 20.6573 108.129 21.096C108.129 21.5533 108.012 21.936 107.779 22.244C107.555 22.552 107.223 22.7853 106.785 22.944C106.355 23.1027 105.837 23.182 105.231 23.182ZM111.547 23.182C110.912 23.182 110.404 23.126 110.021 23.014C109.648 22.902 109.396 22.818 109.265 22.762L109.545 21.586C109.732 21.6513 109.993 21.74 110.329 21.852C110.665 21.9547 111.071 22.006 111.547 22.006C112.023 22.006 112.392 21.9407 112.653 21.81C112.924 21.6793 113.059 21.446 113.059 21.11C113.059 20.9047 113.003 20.7367 112.891 20.606C112.788 20.4753 112.625 20.354 112.401 20.242C112.177 20.1207 111.874 19.9853 111.491 19.836C111.108 19.6773 110.758 19.514 110.441 19.346C110.124 19.1687 109.872 18.9447 109.685 18.674C109.498 18.4033 109.405 18.0487 109.405 17.61C109.405 17.19 109.512 16.826 109.727 16.518C109.942 16.21 110.245 15.972 110.637 15.804C111.038 15.6267 111.51 15.538 112.051 15.538C112.527 15.538 112.942 15.58 113.297 15.664C113.661 15.7387 113.932 15.8133 114.109 15.888L113.829 17.036C113.67 16.9613 113.451 16.8867 113.171 16.812C112.9 16.728 112.541 16.686 112.093 16.686C111.72 16.686 111.407 16.756 111.155 16.896C110.912 17.036 110.791 17.2553 110.791 17.554C110.791 17.7593 110.838 17.9273 110.931 18.058C111.034 18.1887 111.192 18.31 111.407 18.422C111.622 18.534 111.902 18.6553 112.247 18.786C112.714 18.9633 113.11 19.1453 113.437 19.332C113.764 19.5187 114.011 19.752 114.179 20.032C114.356 20.3027 114.445 20.6573 114.445 21.096C114.445 21.5533 114.328 21.936 114.095 22.244C113.871 22.552 113.54 22.7853 113.101 22.944C112.672 23.1027 112.154 23.182 111.547 23.182ZM118.493 23.154C117.933 23.154 117.434 23.0793 116.995 22.93C116.566 22.7807 116.23 22.5333 115.987 22.188C115.745 21.8427 115.623 21.39 115.623 20.83C115.623 20.2793 115.759 19.8407 116.029 19.514C116.3 19.178 116.669 18.9353 117.135 18.786C117.602 18.6367 118.12 18.562 118.689 18.562C118.951 18.562 119.212 18.5807 119.473 18.618C119.744 18.6553 119.921 18.6927 120.005 18.73V18.394C120.005 18.0953 119.963 17.82 119.879 17.568C119.795 17.316 119.637 17.1107 119.403 16.952C119.179 16.7933 118.843 16.714 118.395 16.714C117.929 16.714 117.546 16.7467 117.247 16.812C116.958 16.8773 116.729 16.9427 116.561 17.008L116.379 15.86C116.566 15.7853 116.851 15.7153 117.233 15.65C117.616 15.5753 118.045 15.538 118.521 15.538C119.231 15.538 119.791 15.6547 120.201 15.888C120.621 16.1213 120.92 16.4527 121.097 16.882C121.275 17.302 121.363 17.7873 121.363 18.338V22.818C121.13 22.874 120.757 22.944 120.243 23.028C119.73 23.112 119.147 23.154 118.493 23.154ZM118.633 22.02C118.923 22.02 119.184 22.0107 119.417 21.992C119.66 21.9733 119.856 21.95 120.005 21.922V19.766C119.921 19.7287 119.777 19.6913 119.571 19.654C119.366 19.6167 119.119 19.598 118.829 19.598C118.54 19.598 118.255 19.6307 117.975 19.696C117.705 19.752 117.476 19.864 117.289 20.032C117.112 20.2 117.023 20.4567 117.023 20.802C117.023 21.2593 117.168 21.5767 117.457 21.754C117.747 21.9313 118.139 22.02 118.633 22.02ZM125.904 25.632C125.447 25.632 125.013 25.5947 124.602 25.52C124.192 25.4453 123.832 25.352 123.524 25.24L123.776 24.05C124.047 24.1527 124.369 24.2413 124.742 24.316C125.116 24.4 125.512 24.442 125.932 24.442C126.436 24.442 126.842 24.3767 127.15 24.246C127.468 24.1153 127.696 23.91 127.836 23.63C127.986 23.35 128.06 22.9953 128.06 22.566V22.174C127.902 22.2673 127.673 22.37 127.374 22.482C127.085 22.5847 126.73 22.636 126.31 22.636C125.704 22.636 125.158 22.5147 124.672 22.272C124.187 22.02 123.804 21.6373 123.524 21.124C123.254 20.6107 123.118 19.9573 123.118 19.164C123.118 18.464 123.258 17.8433 123.538 17.302C123.828 16.7607 124.238 16.336 124.77 16.028C125.302 15.72 125.937 15.566 126.674 15.566C127.272 15.566 127.804 15.608 128.27 15.692C128.737 15.776 129.124 15.8647 129.432 15.958V22.412C129.432 23.5413 129.138 24.358 128.55 24.862C127.972 25.3753 127.09 25.632 125.904 25.632ZM126.464 21.474C126.791 21.474 127.094 21.4273 127.374 21.334C127.664 21.2407 127.888 21.1287 128.046 20.998V16.882C127.916 16.8447 127.743 16.812 127.528 16.784C127.323 16.7467 127.043 16.728 126.688 16.728C126.231 16.728 125.844 16.8307 125.526 17.036C125.209 17.2413 124.966 17.5307 124.798 17.904C124.63 18.268 124.546 18.6927 124.546 19.178C124.546 19.5793 124.598 19.9247 124.7 20.214C124.803 20.5033 124.943 20.7413 125.12 20.928C125.298 21.1147 125.498 21.2547 125.722 21.348C125.956 21.432 126.203 21.474 126.464 21.474ZM134.949 23.168C134.09 23.168 133.386 23.0047 132.835 22.678C132.294 22.342 131.892 21.8893 131.631 21.32C131.379 20.7507 131.253 20.102 131.253 19.374C131.253 18.5153 131.412 17.806 131.729 17.246C132.046 16.6767 132.457 16.252 132.961 15.972C133.474 15.6827 134.011 15.538 134.571 15.538C135.206 15.538 135.752 15.6733 136.209 15.944C136.676 16.2053 137.035 16.6067 137.287 17.148C137.539 17.68 137.665 18.3567 137.665 19.178C137.665 19.262 137.66 19.3553 137.651 19.458C137.651 19.5607 137.646 19.6587 137.637 19.752H132.681C132.728 20.4427 132.942 20.984 133.325 21.376C133.717 21.7587 134.3 21.95 135.075 21.95C135.523 21.95 135.906 21.908 136.223 21.824C136.55 21.74 136.797 21.6607 136.965 21.586L137.175 22.734C137.016 22.818 136.727 22.9113 136.307 23.014C135.896 23.1167 135.444 23.168 134.949 23.168ZM132.709 18.702H136.293C136.284 18.31 136.214 17.9647 136.083 17.666C135.952 17.3673 135.761 17.134 135.509 16.966C135.266 16.798 134.958 16.714 134.585 16.714C134.202 16.714 133.876 16.8073 133.605 16.994C133.334 17.1807 133.124 17.428 132.975 17.736C132.826 18.0347 132.737 18.3567 132.709 18.702Z" fill="#151515"/>
</svg>
