<?xml version="1.0" encoding="UTF-8"?>
<svg xmlns="http://www.w3.org/2000/svg" xmlns:xlink="http://www.w3.org/1999/xlink"
     width="351.0" height="311.1" viewBox="-175.5 -155.55 351.0 311.1" class="synoptic">
<defs>
<filter id="drop_shadow" width="200%" height="200%">
    <feOffset result="offOut" in="SourceGraphic" dx="2" dy="2" />
      <feColorMatrix result="matrixOut" in="offOut" type="matrix"
      values="0.4 0 0 0 0 0 0.4 0 0 0 0 0 0.4 0 0 0 0 0 1 0" />
      <feGaussianBlur result="blurOut" in="matrixOut" stdDeviation="2" />
      <feBlend in="SourceGraphic" in2="blurOut" mode="normal" />
</filter>
</defs>
<g class="element beam beam" transform="translate(-175.5,0)">
<rect x="0" y="-2" width="351.0" height="2" rx="2" ry="2" stroke-width="1" stroke="#000" fill="cyan" font-family="Poppins" />
</g>
<g class="component slits s1" transform="translate(-143.0,0)">
<rect x="-25.0" y="-25.0" width="50" height="50.0" rx="5" ry="5" stroke-width="1" stroke="#000" fill="none" font-family="Poppins" />
<g class="icon">
<rect x="-18.75" y="-4.166666666666667" width="12.5" height="8.333333333333334" stroke-width="1" stroke="#000" fill="none" font-family="Poppins" />
<rect x="6.25" y="-4.166666666666667" width="12.5" height="8.333333333333334" stroke-width="1" stroke="#000" fill="none" font-family="Poppins" />
<rect x="-4.166666666666667" y="-18.75" width="8.333333333333334" height="12.5" stroke-width="1" stroke="#000" fill="none" font-family="Poppins" />
<rect x="-4.166666666666667" y="6.25" width="8.333333333333334" height="12.5" stroke-width="1" stroke="#000" fill="none" font-family="Poppins" />
</g>
<circle cx="25.0" cy="-25.0" r="8" class="status" stroke-width="1" stroke="#000" fill="none" font-family="Poppins" />
<text x="0" y="45.0" font-size="13" text-anchor="middle" fill="#000" font-family="Poppins">S1</text>
<text x="0" y="-40.0" font-size="11" text-anchor="middle" fill="#aaa" font-family="Poppins" class="value"></text>
</g>
<g class="component valve rv1" transform="translate(-94.25,0)">
<rect x="-12.5" y="-25.0" width="25" height="50.0" rx="5" ry="5" stroke-width="1" stroke="#000" fill="none" font-family="Poppins" />
<g class="icon">
<path d="M-3.125,5.0 L3.125,-5.0" stroke-width="1" stroke="#000" fill="none" font-family="Poppins" />
<path d="M-3.125,-5.0 L3.125,5.0" stroke-width="1" stroke="#000" fill="none" font-family="Poppins" />
<path d="M-3.125,5.0 L-3.125,-5.0" stroke-width="1" stroke="#000" fill="none" font-family="Poppins" />
<path d="M3.125,5.0 L3.125,-5.0" stroke-width="1" stroke="#000" fill="none" font-family="Poppins" />
</g>
<circle cx="12.5" cy="-25.0" r="8" class="status" stroke-width="1" stroke="#000" fill="none" font-family="Poppins" />
<text x="0" y="45.0" font-size="13" text-anchor="middle" fill="#000" font-family="Poppins">RV1</text>
<text x="0" y="-40.0" font-size="11" text-anchor="middle" fill="#aaa" font-family="Poppins" class="value"></text>
</g>
<g class="component dcm virtual" transform="translate(-45.5,0)">
<rect x="-25.0" y="-25.0" width="50" height="50.0" rx="5" ry="5" stroke-width="1" stroke="#000" fill="none" font-family="Poppins" />
<g class="icon">
<path d="M-10,-3.0 L4,-17.0" stroke-width="2" stroke="#000" fill="none" font-family="Poppins" />
<path d="M-4,17.0 L10,3.0" stroke-width="2" stroke="#000" fill="none" font-family="Poppins" />
<path d="M-15.0,10.0 L3,10.0" stroke-width="1" stroke="#000" fill="none" font-family="Poppins" />
<path d="M-3,-10.0 L15.0,-10.0" stroke-width="1" stroke="#000" fill="none" font-family="Poppins" />
<path d="M-3,-10.0 L3,10.0" stroke-width="1" stroke="#000" fill="none" font-family="Poppins" />
</g>
<circle cx="25.0" cy="-25.0" r="8" class="status" stroke-width="1" stroke="#000" fill="none" font-family="Poppins" />
<text x="0" y="45.0" font-size="13" text-anchor="middle" fill="#000" font-family="Poppins">Virtual</text>
<text x="0" y="-40.0" font-size="11" text-anchor="middle" fill="#aaa" font-family="Poppins" class="value"></text>
</g>
<g class="element wall after_oh1" transform="translate(0.0,0)">
<rect x="-2.5" y="-50" width="5.0" height="100" rx="2" ry="2" stroke-width="1" stroke="#000" fill="#000" font-family="Poppins" />
</g>
<g class="component slits s2" transform="translate(45.5,0)">
<rect x="-25.0" y="-25.0" width="50" height="50.0" rx="5" ry="5" stroke-width="1" stroke="#000" fill="none" font-family="Poppins" />
<g class="icon">
<rect x="-18.75" y="-4.166666666666667" width="12.5" height="8.333333333333334" stroke-width="1" stroke="#000" fill="none" font-family="Poppins" />
<rect x="6.25" y="-4.166666666666667" width="12.5" height="8.333333333333334" stroke-width="1" stroke="#000" fill="none" font-family="Poppins" />
<rect x="-4.166666666666667" y="-18.75" width="8.333333333333334" height="12.5" stroke-width="1" stroke="#000" fill="none" font-family="Poppins" />
<rect x="-4.166666666666667" y="6.25" width="8.333333333333334" height="12.5" stroke-width="1" stroke="#000" fill="none" font-family="Poppins" />
</g>
<circle cx="25.0" cy="-25.0" r="8" class="status" stroke-width="1" stroke="#000" fill="none" font-family="Poppins" />
<text x="0" y="45.0" font-size="13" text-anchor="middle" fill="#000" font-family="Poppins">S2</text>
<text x="0" y="-40.0" font-size="11" text-anchor="middle" fill="#aaa" font-family="Poppins" class="value"></text>
</g>
<g class="component valve rv1" transform="translate(94.25,0)">
<rect x="-12.5" y="-25.0" width="25" height="50.0" rx="5" ry="5" stroke-width="1" stroke="#000" fill="none" font-family="Poppins" />
<g class="icon">
<path d="M-3.125,5.0 L3.125,-5.0" stroke-width="1" stroke="#000" fill="none" font-family="Poppins" />
<path d="M-3.125,-5.0 L3.125,5.0" stroke-width="1" stroke="#000" fill="none" font-family="Poppins" />
<path d="M-3.125,5.0 L-3.125,-5.0" stroke-width="1" stroke="#000" fill="none" font-family="Poppins" />
<path d="M3.125,5.0 L3.125,-5.0" stroke-width="1" stroke="#000" fill="none" font-family="Poppins" />
</g>
<circle cx="12.5" cy="-25.0" r="8" class="status" stroke-width="1" stroke="#000" fill="none" font-family="Poppins" />
<text x="0" y="45.0" font-size="13" text-anchor="middle" fill="#000" font-family="Poppins">RV1</text>
<text x="0" y="-40.0" font-size="11" text-anchor="middle" fill="#aaa" font-family="Poppins" class="value"></text>
</g>
<g class="component microscope diff" transform="translate(143.0,0)">
<rect x="-25.0" y="-25.0" width="50" height="50.0" rx="5" ry="5" stroke-width="1" stroke="#000" fill="none" font-family="Poppins" />
<g class="icon">
<path d="M-11.111111111111112,12.5 L11.111111111111112,12.5" stroke-width="1" stroke="#000" fill="none" font-family="Poppins" />
<path d="M0,-6.25 L11.111111111111112,0" stroke-width="1" stroke="#000" fill="none" font-family="Poppins" />
<path d="M8.333333333333334,12.5 L11.111111111111112,0" stroke-width="1" stroke="#000" fill="none" font-family="Poppins" />
<rect x="-1.6666666666666667" y="-12.5" width="3.3333333333333335" height="12.5" />
</g>
<circle cx="25.0" cy="-25.0" r="8" class="status" stroke-width="1" stroke="#000" fill="none" font-family="Poppins" />
<text x="0" y="45.0" font-size="13" text-anchor="middle" fill="#000" font-family="Poppins">Diff</text>
<text x="0" y="-40.0" font-size="11" text-anchor="middle" fill="#aaa" font-family="Poppins" class="value"></text>
</g>
<g class="component microscope robot" transform="translate(143.0,-110.00000000000001)">
<rect x="-25.0" y="-25.0" width="50" height="50.0" rx="5" ry="5" stroke-width="1" stroke="#000" fill="none" font-family="Poppins" />
<g class="icon">
<path d="M-11.111111111111112,12.5 L11.111111111111112,12.5" stroke-width="1" stroke="#000" fill="none" font-family="Poppins" />
<path d="M0,-6.25 L11.111111111111112,0" stroke-width="1" stroke="#000" fill="none" font-family="Poppins" />
<path d="M8.333333333333334,12.5 L11.111111111111112,0" stroke-width="1" stroke="#000" fill="none" font-family="Poppins" />
<rect x="-1.6666666666666667" y="-12.5" width="3.3333333333333335" height="12.5" />
</g>
<circle cx="25.0" cy="-25.0" r="8" class="status" stroke-width="1" stroke="#000" fill="none" font-family="Poppins" />
<text x="0" y="45.0" font-size="13" text-anchor="middle" fill="#000" font-family="Poppins">Robot</text>
<text x="0" y="-40.0" font-size="11" text-anchor="middle" fill="#aaa" font-family="Poppins" class="value"></text>
</g>
<g class="component diode d1" transform="translate(-45.5,110.00000000000001)">
<rect x="-25.0" y="-17.5" width="50" height="35.0" rx="5" ry="5" stroke-width="1" stroke="#000" fill="none" font-family="Poppins" />
<g class="icon">
<path d="M-6.25,8.333333333333334 L6.25,0 L-6.25,-8.333333333333334 L-6.25,8.333333333333334" stroke-width="1" stroke="#000" fill="none" font-family="Poppins" />
<path d="M6.25,8.333333333333334 L6.25,-8.333333333333334" stroke-width="1" stroke="#000" fill="none" font-family="Poppins" />
<path d="M-12.5,0 L-6.25,0" stroke-width="1" stroke="#000" fill="none" font-family="Poppins" />
<path d="M12.5,0 L6.25,0" stroke-width="1" stroke="#000" fill="none" font-family="Poppins" />
</g>
<circle cx="25.0" cy="-17.5" r="8" class="status" stroke-width="1" stroke="#000" fill="none" font-family="Poppins" />
<text x="0" y="34.285714285714285" font-size="13" text-anchor="middle" fill="#000" font-family="Poppins">d1</text>
<text x="0" y="-29.285714285714285" font-size="11" text-anchor="middle" fill="#aaa" font-family="Poppins" class="value"></text>
</g>
</svg>