<?xml version="1.0" encoding="UTF-8"?>
<svg xmlns="http://www.w3.org/2000/svg" width="600" height="300" viewBox="0 0 600 300" fill="none">
  <g clip-path="url(#clip0_4_516)">
    <path d="M234.951 136.26C230.691 129.646 224.168 125.973 215.282 125.973C206.296 125.973 198.89 129.463 193.216 135.695C187.541 141.926 184.696 149.686 184.696 158.942C184.696 168.115 187.608 175.858 193.432 182.19C199.256 188.521 206.828 191.313 216.114 191.313C224.068 191.313 230.325 188.388 234.968 181.774V189.717H252.291V128.316H234.968V136.26H234.951ZM231.839 171.339C228.627 174.695 224.55 176.374 219.625 176.374C214.699 176.374 210.639 174.695 207.41 171.339C204.199 167.982 202.585 163.844 202.585 158.925C202.585 154.007 204.199 149.902 207.41 146.595C210.622 143.289 214.699 141.627 219.625 141.627C224.55 141.627 228.611 143.289 231.839 146.595C235.051 149.902 236.665 154.023 236.665 158.925C236.665 163.861 235.051 167.999 231.839 171.339Z" fill="#09ADB0"></path>
    <path d="M281.429 104.487H264.106V189.701H281.429V104.487Z" fill="#09ADB0"></path>
    <path d="M316.241 104.487H298.918V128.449H292.096V143.206H298.918V189.85H316.241V143.206H328.156V128.449H316.241V104.487Z" fill="#09ADB0"></path>
    <path d="M363.584 129.014C360.556 130.709 357.993 133.55 355.913 137.522V128.299H338.59V189.7H355.913V165.738C355.913 147.177 373.802 143.471 373.802 143.471V125.956C369.841 125.956 366.43 127.219 363.584 129.014Z" fill="#09ADB0"></path>
    <path d="M400.661 128.316H383.338V189.717H400.661V128.316Z" fill="#09ADB0"></path>
    <path d="M460.434 155.967C458.005 154.638 455.326 153.624 452.414 152.96C449.502 152.295 446.573 151.78 443.661 151.414C440.748 151.049 438.069 150.65 435.64 150.234C433.21 149.819 431.247 149.154 429.765 148.29C428.284 147.426 427.552 146.13 427.552 144.435C427.552 141.76 428.434 140.231 430.198 139.068C431.962 137.904 434.325 137.306 437.287 137.306C439.8 137.306 441.863 137.655 443.494 138.37C445.108 139.084 446.373 139.699 447.255 141.012C448.137 142.325 448.753 143.903 449.085 145.715C449.269 146.795 449.069 146.629 450.117 146.629H465.194C466.359 146.629 466.275 146.795 466.159 145.598C465.793 141.195 464.378 137.522 461.932 134.614C459.486 131.706 456.174 129.513 452.014 128.05C447.854 126.588 443.028 125.857 437.52 125.857C429.083 125.857 422.427 127.552 417.518 130.925C412.609 134.298 410.163 139.25 410.163 145.764C410.163 149.537 410.895 152.578 412.376 154.937C413.857 157.28 415.804 159.125 418.25 160.471C420.68 161.8 423.359 162.814 426.271 163.512C429.183 164.21 432.112 164.741 435.024 165.157C437.936 165.556 440.615 166.004 443.045 166.47C445.474 166.935 447.438 167.616 448.919 168.497C450.4 169.378 451.132 170.69 451.132 172.385C451.132 174.811 450.184 175.626 448.303 176.972C446.423 178.318 443.677 178.982 440.066 178.982C435.773 178.982 432.478 178.168 430.182 176.556C427.885 174.944 426.754 173.399 426.437 169.843C426.337 168.729 426.62 168.862 425.472 168.879H409.663C408.698 168.879 408.698 168.879 408.698 169.843C408.698 174.545 410.163 178.484 412.592 181.674C415.022 184.865 418.466 187.274 422.926 188.903C427.386 190.515 432.694 191.329 438.851 191.329C444.609 191.329 449.718 190.531 454.178 188.936C458.637 187.341 462.148 185.014 464.695 181.957C467.241 178.899 468.522 175.194 468.522 170.823C468.522 167.018 467.773 163.927 466.309 161.567C464.811 159.158 462.864 157.313 460.434 155.967Z" fill="#09ADB0"></path>
    <path d="M544.986 116.003H531.907L498.658 193.157H517.196L523.803 177.487H552.292L558.898 193.157H577.286L545.286 116.767L544.986 116.003ZM529.411 163.13L538.23 140.896L547.05 163.13H529.411Z" fill="#09ADB0"></path>
    <path d="M600 116.003H582.927V193.157H600V116.003Z" fill="#09ADB0"></path>
    <path d="M399.491 120.879C403.338 117.037 403.338 110.809 399.491 106.967C395.644 103.125 389.406 103.125 385.559 106.967C381.712 110.809 381.712 117.037 385.559 120.879C389.406 124.721 395.644 124.721 399.491 120.879Z" fill="#09ADB0"></path>
    <path d="M78.6111 229C35.2619 229 0 193.788 0 150.5C0 107.212 35.2619 72 78.6111 72C121.96 72 157.222 107.212 157.222 150.5C157.222 193.788 121.944 229 78.6111 229ZM78.6111 76.1543C37.5583 76.1543 4.1602 109.505 4.1602 150.5C4.1602 191.495 37.5583 224.846 78.6111 224.846C119.664 224.846 153.062 191.495 153.062 150.5C153.062 109.505 119.664 76.1543 78.6111 76.1543Z" fill="#352B45"></path>
    <path d="M78.6111 224.862C37.5582 224.862 4.16016 191.511 4.16016 150.516C4.16016 109.522 37.5582 76.1707 78.6111 76.1707C119.664 76.1707 153.062 109.522 153.062 150.516C153.062 191.511 119.664 224.862 78.6111 224.862ZM78.6111 80.3084C39.8547 80.3084 8.32035 111.798 8.32035 150.5C8.32035 189.201 39.8547 220.691 78.6111 220.691C117.367 220.691 148.902 189.201 148.902 150.5C148.902 111.798 117.367 80.3084 78.6111 80.3084Z" fill="#428AA3"></path>
    <path d="M78.6109 103.34C104.654 103.34 125.837 124.494 125.837 150.5C125.837 176.506 104.654 197.66 78.6109 197.66C52.5681 197.66 31.3844 176.506 31.3844 150.5C31.3677 124.494 52.5681 103.34 78.6109 103.34ZM78.6109 95.0315C47.9253 95.0315 23.064 119.874 23.064 150.5C23.064 181.142 47.942 205.968 78.6109 205.968C109.28 205.968 134.158 181.126 134.158 150.5C134.158 119.874 109.28 95.0315 78.6109 95.0315Z" fill="#09ADB0"></path>
    <path d="M78.6109 122.2C94.2366 122.2 106.95 134.896 106.95 150.499C106.95 166.103 94.2366 178.799 78.6109 178.799C62.9852 178.799 50.2716 166.103 50.2716 150.499C50.2716 134.896 62.9852 122.2 78.6109 122.2ZM78.6109 110.568C56.5285 110.568 38.623 128.448 38.623 150.499C38.623 172.55 56.5285 190.431 78.6109 190.431C100.693 190.431 118.599 172.55 118.599 150.499C118.599 128.448 100.693 110.568 78.6109 110.568Z" fill="#26AECD"></path>
    <path d="M78.611 126.355C91.9403 126.355 102.79 137.19 102.79 150.5C102.79 163.811 91.9403 174.645 78.611 174.645C65.2817 174.645 54.4319 163.811 54.4319 150.5C54.4319 137.19 65.2817 126.355 78.611 126.355ZM78.611 122.201C62.952 122.201 50.2717 134.863 50.2717 150.5C50.2717 166.137 62.952 178.799 78.611 178.799C94.27 178.799 106.95 166.137 106.95 150.5C106.95 134.88 94.2533 122.201 78.611 122.201Z" fill="#0E679E"></path>
    <path d="M78.6112 174.728C65.232 174.728 54.3489 163.86 54.3489 150.5C54.3489 137.14 65.232 126.272 78.6112 126.272C91.9904 126.272 102.873 137.14 102.873 150.5C102.873 163.86 91.9904 174.728 78.6112 174.728ZM78.6112 127.934C66.1472 127.934 56.013 138.054 56.013 150.5C56.013 162.946 66.1472 173.066 78.6112 173.066C91.0751 173.066 101.209 162.946 101.209 150.5C101.209 138.054 91.0751 127.934 78.6112 127.934Z" fill="#428AA3"></path>
    <path d="M78.6114 173.066C91.092 173.066 101.21 162.963 101.21 150.5C101.21 138.037 91.092 127.933 78.6114 127.933C66.1307 127.933 56.0132 138.037 56.0132 150.5C56.0132 162.963 66.1307 173.066 78.6114 173.066Z" fill="#342C44"></path>
    <path d="M72.0045 142.574C68.0107 146.546 63.8173 148.207 61.5208 145.914C59.2244 143.621 60.5057 139.732 64.1833 135.462C68.3435 130.643 73.2359 129.43 75.549 132.404C78.7274 136.509 75.9817 138.602 72.0045 142.574Z" fill="white"></path>
    <path d="M77.6285 88.3348C77.9447 88.3348 78.2775 88.3181 78.5937 88.3181C82.5875 88.3181 86.4981 88.717 90.2922 89.4315L90.4087 85.2273C86.5647 84.5294 82.6374 84.1638 78.5937 84.1638C78.2609 84.1638 77.9447 84.1805 77.6285 84.1805V88.3348Z" fill="#09ADB0"></path>
    <path d="M97.8638 91.3762C106.767 94.2676 114.771 99.1198 121.411 105.418L124.722 102.825C117.467 95.8296 108.647 90.4622 98.8289 87.3215L97.8638 91.3762Z" fill="#09ADB0"></path>
    <path d="M133.925 113.826L130.63 116.401C137.087 126.206 140.864 137.921 140.864 150.5C140.864 167.034 134.358 182.073 123.791 193.223L126.736 196.164C138.068 184.266 145.041 168.197 145.041 150.517C145.041 136.957 140.947 124.344 133.925 113.826Z" fill="#09ADB0"></path>
    <path d="M69.1419 84.8464C66.4128 85.2286 63.7503 85.7936 61.1377 86.5082L61.6702 90.6791C64.1164 89.9978 66.5959 89.4328 69.1419 89.034V84.8464Z" fill="#09ADB0"></path>
    <path d="M110.944 203.643C101.509 209.392 90.4427 212.699 78.6111 212.699C71.8882 212.699 65.415 211.619 59.3411 209.642L57.9932 213.58C64.4831 215.707 71.4223 216.87 78.6111 216.87C91.5909 216.87 103.705 213.115 113.956 206.667L110.944 203.643Z" fill="#09ADB0"></path>
    <path d="M42.2668 200.95C32.9812 194.253 25.6094 185.097 21.133 174.412L17.2224 175.825C22.0316 187.424 30.0691 197.377 40.1867 204.573L42.2668 200.95Z" fill="#09ADB0"></path>
    <path d="M17.1731 160.604C16.624 157.314 16.3411 153.94 16.3411 150.501C16.3411 124.76 32.0999 102.61 54.4818 93.171L53.1672 89.2161C29.1212 99.203 12.1809 122.899 12.1809 150.484C12.1809 154.422 12.547 158.261 13.2126 162.016L17.1731 160.604Z" fill="#09ADB0"></path>
  </g>
  <defs>
    <clipPath id="clip0_4_516">
      <rect width="600" height="300" fill="white"></rect>
    </clipPath>
  </defs>
</svg>
