<?xml version="1.0" encoding="UTF-8"?><svg id="Logos" xmlns="http://www.w3.org/2000/svg" viewBox="0 0 341 120"><defs><style>.cls-1{fill:#fff;}</style></defs><g><path class="cls-1" d="M75.41327,14.14683h-13.146V49.74785h5.83299v-13.97205h7.36101c7.965,0,12.35199-3.89099,12.35199-10.95898,0-3.20801-1.20999-10.66998-12.39999-10.66998Zm6.46899,10.76801c0,4.01495-2.08299,5.65198-7.19099,5.65198h-6.591v-11.16302h7.36101c4.323,0,6.42099,1.80402,6.42099,5.51105Zm23.29401-1.10504l.44099,.21301-.98999,5.26202-.681-.21002c-.558-.172-1.125-.25897-1.68501-.25897-5.44899,0-5.894,4.33997-5.894,9.58899v11.34302h-5.40199V23.60484h5.065v3.15399c1.37799-2.12103,3.04599-3.216,5.23999-3.48499,1.438-.16602,2.839,.02997,3.90601,.53595Zm13.278-.73199c-4.252,0-7.65601,1.61902-9.849,4.68103-2.302,3.216-2.64301,6.99701-2.64301,8.96399,0,8.26202,4.901,13.599,12.492,13.599,9.22299,0,12.495-7.42999,12.495-13.79102,0-3.65997-1.08501-6.98096-3.05-9.35297-2.226-2.68201-5.493-4.10004-9.44499-4.10004Zm0,22.41901c-4.22701,0-6.853-3.36298-6.853-8.77399,0-5.46899,2.62599-8.86798,6.853-8.86798,4.194,0,6.90199,3.44098,6.90199,8.77295,0,5.46906-2.646,8.86902-6.90199,8.86902Zm57.88898-21.68701l.44101,.21301-.99301,5.26202-.68198-.21002c-.55502-.172-1.12201-.25897-1.68402-.25897-5.448,0-5.88998,4.33997-5.88998,9.58899v11.34302h-5.40201V23.60484h5.06601v3.15399c1.37698-2.12103,3.04599-3.216,5.23999-3.48499,1.43701-.16602,2.836,.02997,3.90399,.53595Zm19.39902,17.55701l-.10001,.28699c-1.12701,3.21405-3.82199,3.888-5.88699,3.888-4.08701,0-6.71802-2.71295-6.974-7.12h18.48398l.06802-.513c.082-.60498,.06799-1.45697,.05899-2.07996-.00101-.17004-.00601-.323-.00601-.47205-.26999-7.31799-5.03998-12.23395-11.871-12.23395-3.98999,0-7.26099,1.56696-9.45999,4.53595-1.77701,2.401-2.798,5.72302-2.798,9.112,0,8.078,5.02402,13.50702,12.49802,13.50702,5.78198,0,9.76398-2.93896,11.216-8.27301l.17398-.638h-5.40298Zm-12.78201-7.63397c.45401-3.62201,2.935-5.92401,6.45901-5.92401,2.69299,0,5.88098,1.56598,6.327,5.92401h-12.78601Zm-30.664-7.93402c-1.74298-1.80701-4.07199-2.72101-6.94998-2.72101-7.925,0-11.533,6.974-11.533,13.453,0,6.64899,3.56599,13.35901,11.533,13.35901,2.65799,0,5.03299-.97797,6.74399-2.737-.01901,1.151-.04901,2.25-.08099,2.71698-.29401,4.31305-2.366,6.32104-6.52,6.32104-2.25999,0-4.853-.802-5.35399-3.05402l-.11-.49701-5.323,.00098,.086,.71301c.55699,4.60901,4.60399,7.47302,10.558,7.47302,5.22498,0,8.94299-1.96899,10.75-5.69,.87198-1.79303,1.31299-4.40698,1.31299-7.76501V23.60484h-5.11301v2.19397Zm-6.61198,19.26703c-1.88901,0-6.27701-.85602-6.27701-8.77405,0-5.20398,2.46001-8.43695,6.41901-8.43695,3.05901,0,6.32698,2.216,6.32698,8.43695,0,5.492-2.41898,8.77405-6.46898,8.77405Zm80.657-3.18805c0,4.15704-3.45102,8.35205-11.16101,8.35205-6.81799,0-10.87601-2.953-11.42099-8.31201l-.05801-.55103h5.31601l.08099,.40002c.65201,3.22198,3.72101,3.89801,6.18301,3.89801,2.69598,0,5.577-.87,5.577-3.30603,0-1.23499-.80402-2.11096-2.38699-2.60498-.94-.27899-2.09402-.604-3.315-.94501-2.103-.58801-4.27902-1.20099-5.61801-1.66199-3.31601-1.18799-5.21899-3.50104-5.21899-6.34601,0-5.271,5.13199-7.63098,10.215-7.63098,6.79901,0,10.31699,2.56097,10.759,7.82697l.04498,.54303-5.23898-.00403-.073-.41498c-.52701-3.03198-3.54102-3.48499-5.293-3.48499-1.51102,0-5.02701,.26996-5.02701,2.776,0,1.13898,.97299,1.97595,2.97601,2.55695,.59698,.16803,1.487,.39606,2.51398,.66205,2.13303,.552,4.79001,1.24097,6.12701,1.703,3.33099,1.17096,5.01801,3.37195,5.01801,6.54395Zm24.94901,0c0,4.15704-3.45102,8.35205-11.15802,8.35205-6.82001,0-10.87799-2.953-11.423-8.31201l-.05698-.55103h5.31699l.07901,.40002c.651,3.22198,3.72198,3.89801,6.18399,3.89801,2.69598,0,5.57501-.87,5.57501-3.30603,0-1.23499-.80402-2.11096-2.38501-2.60498-.94202-.27899-2.09601-.604-3.31799-.94501-2.10001-.58801-4.276-1.20099-5.61401-1.66199-3.31699-1.18799-5.21899-3.50104-5.21899-6.34601,0-5.271,5.13-7.63098,10.21399-7.63098,6.79901,0,10.31601,2.56097,10.75702,7.82697l.04599,.54303-5.23801-.00403-.073-.41498c-.52798-3.03198-3.54001-3.48499-5.29401-3.48499-1.509,0-5.026,.26996-5.026,2.776,0,1.13898,.974,1.97595,2.97501,2.55695,.59799,.16803,1.48502,.39606,2.51599,.66205,2.13202,.552,4.78802,1.24097,6.12701,1.703,3.32599,1.17096,5.01501,3.37195,5.01501,6.54395Z"/><path class="cls-1" d="M255.56452,26.40876c-2.01429,0-3.68265-1.56684-3.68265-3.72343,0-2.1569,1.66836-3.72343,3.68265-3.72343s3.68295,1.56654,3.68295,3.72343c0,2.15659-1.66866,3.72343-3.68295,3.72343Zm0-6.81602c-1.66836,0-3.01133,1.28163-3.01133,3.09259s1.34296,3.09259,3.01133,3.09259c1.66866,0,3.01131-1.28163,3.01131-3.09259s-1.34265-3.09259-3.01131-3.09259Zm-.42721,3.78446v1.24114h-1.09854v-3.90652h1.83119c.87467,0,1.44448,.50848,1.44448,1.3632,0,.6103-.28522,1.01727-.75291,1.18011l.8949,1.3632h-1.2203l-.75289-1.24114h-.34594Zm.61031-1.74993h-.61031v.87497h.61031c.32568,0,.50877-.16285,.50877-.42721,0-.26466-.1831-.44776-.50877-.44776Z"/></g><path class="cls-1" d="M48.87841,40.98734c0,.573-.405,1.271-.89799,1.55402l-12.507,7.22198V21.90634L11.35041,7.97831,23.85741,.75931c.493-.28595,1.304-.28595,1.798,0l23.22299,13.409v26.81903Zm-18.771-15.987L13.58741,15.45731c-.494-.284-1.301-.284-1.79601,0L.62741,21.90433l17.423,10.06,.003,20.12201,11.15601-6.44598c.495-.28601,.89799-.98602,.89799-1.55603V25.00034ZM.62741,42.0253l12.05399,6.96301v-13.92999L.62741,42.0253Z"/><g><path class="cls-1" d="M80.63937,74.76277l8.20898,30.09961,8.09473-30.09961h2.85059l-9.52051,35.00244h-2.62207l-8.26562-29.81445-8.20898,29.81445h-2.56543l-9.57715-35.00244h2.90723l8.09473,30.09961,8.20898-30.09961h2.39453Z"/><path class="cls-1" d="M102.98605,72.71101h2.85059v15.79053c1.53906-2.39404,4.50293-4.56055,8.09473-4.56055,5.75781,0,8.77832,3.70557,8.77832,9.06396v16.76025h-2.79297v-16.36084c0-3.93359-1.99512-6.84082-6.49805-6.84082-3.47852,0-6.32812,2.45117-7.58203,5.47266v17.729h-2.85059v-37.0542Z"/><path class="cls-1" d="M142.51632,92.2071c0-3.42041-2.39453-5.64355-6.27051-5.64355-2.90723,0-5.30176,.85498-7.35449,2.22314v-2.73633c1.71094-1.14014,4.50391-2.10938,7.63965-2.10938,5.3584,0,8.72168,3.07861,8.72168,8.09521v17.729h-2.73633v-2.39404c-1.08301,1.31104-3.87695,2.79297-7.01172,2.79297-5.13086,0-9.34961-2.96436-9.34961-7.80957,0-4.6748,4.21875-7.75293,9.46387-7.75293,3.02051,0,5.75684,1.4248,6.89746,2.6792v-5.07373Zm0,8.55078c-.79785-2.16602-3.64844-3.76221-6.72656-3.76221-3.5918,0-6.89844,1.76709-6.89844,5.35889,0,3.59131,3.30664,5.41553,6.89844,5.41553,3.07812,0,5.92871-1.59619,6.72656-3.7627v-3.24951Z"/><path class="cls-1" d="M155.90988,109.76521h-2.85059v-22.85986h-5.41504v-2.45117h5.41504v-6.49902h2.85059v6.49902h5.98535v2.45117h-5.98535v22.85986Z"/><path class="cls-1" d="M163.78,104.69148c2.22363,1.93848,4.78906,3.07861,8.0957,3.07861,3.13477,0,6.04297-1.25439,6.04297-4.50342,0-2.1665-1.42578-3.47754-3.99023-4.38965l-4.21875-1.53906c-3.4209-1.25439-5.87207-2.85059-5.87207-6.72705,0-4.27539,3.7627-6.66992,8.37988-6.66992,2.67969,0,5.35938,.79834,7.41113,2.28027v3.07861c-2.10938-1.65332-4.27539-2.85059-7.41113-2.85059-3.02148,0-5.58594,1.42529-5.58594,4.10449,0,2.39453,1.5957,3.30664,4.33203,4.33252l4.38965,1.65332c3.47754,1.19727,5.3584,3.36328,5.3584,6.61279,0,4.56055-3.99023,7.12598-8.89258,7.12598-3.36328,0-6.38477-1.14014-8.03906-2.5083v-3.07861Z"/><path class="cls-1" d="M184.27804,95.9698v-21.20703h2.90723v20.80762c0,8.20898,4.44629,12.02832,10.48926,12.02832s10.54688-3.81934,10.54688-12.02832v-20.80762h2.90625v21.20703c0,9.63379-5.92773,14.30859-13.45312,14.30859s-13.39648-4.6748-13.39648-14.30859Z"/><path class="cls-1" d="M219.73703,119.45613h-2.84961v-35.00195h2.84961v3.7627c1.42578-2.1665,4.39062-4.27588,7.86719-4.27588,7.46875,0,11.05957,6.21387,11.05957,13.16846,0,6.95508-3.59082,13.16895-11.05957,13.16895-3.47656,0-6.44141-2.10938-7.86719-4.27539v13.45312Zm0-16.81689c1.71094,3.24951,4.50391,5.0166,7.58203,5.0166,5.35938,0,8.49414-4.44629,8.49414-10.54639,0-6.09961-3.13477-10.5459-8.49414-10.5459-3.07812,0-5.87109,1.76709-7.58203,5.0166v11.05908Z"/><path class="cls-1" d="M242.91574,86.50203c-2.02051,0-3.69238-1.57129-3.69238-3.7334,0-2.1626,1.67188-3.7334,3.69238-3.7334,2.01953,0,3.69238,1.5708,3.69238,3.7334,0,2.16211-1.67285,3.7334-3.69238,3.7334Zm0-6.83447c-1.67285,0-3.01953,1.28516-3.01953,3.10107,0,1.81543,1.34668,3.10059,3.01953,3.10059s3.01855-1.28516,3.01855-3.10059c0-1.81592-1.3457-3.10107-3.01855-3.10107Zm-.42871,3.79443v1.24463h-1.10156v-3.91699h1.83594c.87695,0,1.44922,.50977,1.44922,1.3667,0,.6123-.28613,1.02002-.75586,1.18311l.89844,1.36719h-1.22461l-.75488-1.24463h-.34668Zm.6123-1.75439h-.6123v.87744h.6123c.32617,0,.50977-.16357,.50977-.42871s-.18359-.44873-.50977-.44873Z"/><path class="cls-1" d="M278.18527,104.46345v-9.97607h-8.83594v-2.45117h11.51465v13.33936c-3.24902,3.81982-7.80957,4.90283-12.02734,4.90283-9.12109,0-15.90527-6.95508-15.90527-18.01416,0-11.1167,7.01172-18.01416,16.24707-18.01416,4.10449,0,7.75293,1.31104,10.26074,3.36328v3.24951c-2.96387-2.73633-6.55566-3.87646-10.26074-3.87646-7.81055,0-13.2832,5.81445-13.2832,15.27783,0,9.46289,5.35938,15.33447,12.99805,15.33447,3.81934,0,6.61328-.85498,9.29199-3.13525Z"/><path class="cls-1" d="M295.91574,110.27839c-6.66992,0-11.17285-5.35889-11.17285-13.16895,0-7.80957,4.50293-13.16846,11.17285-13.16846,6.72754,0,11.23047,5.35889,11.23047,13.16846,0,7.81006-4.50293,13.16895-11.23047,13.16895Zm0-23.8291c-5.0166,0-8.32324,4.27539-8.32324,10.66016s3.30664,10.66064,8.32324,10.66064c5.07324,0,8.37988-4.27588,8.37988-10.66064s-3.30664-10.66016-8.37988-10.66016Z"/><path class="cls-1" d="M314.33078,109.76521h-2.84961v-37.0542h2.84961v37.0542Z"/><path class="cls-1" d="M337.58273,106.003c-1.42578,2.16602-4.38965,4.27539-7.86719,4.27539-7.46777,0-11.05859-6.15674-11.05859-13.16895,0-7.01172,3.59082-13.16846,11.05859-13.16846,3.47754,0,6.44141,2.10938,7.86719,4.27588v-15.50586h2.79297v37.0542h-2.79297v-3.76221Zm0-14.42285c-1.71094-3.24951-4.56055-5.0166-7.63867-5.0166-5.30176,0-8.4375,4.44629-8.4375,10.5459,0,6.1001,3.13574,10.54639,8.4375,10.54639,3.07812,0,5.92773-1.76709,7.63867-5.0166v-11.05908Z"/></g></svg>