<svg width="28" height="25" viewBox="0 0 28 25" fill="none" xmlns="http://www.w3.org/2000/svg">
<path fill-rule="evenodd" clip-rule="evenodd" d="M2.6879 1.74259C1.40594 1.96496 0.441474 3.01193 0.325347 4.30785C0.176754 5.96606 0.00575772 8.30642 -0.000773414 10.3519C-0.00771519 12.5259 0.164552 15.1209 0.316016 16.9698C0.43138 18.378 1.54048 19.4881 2.94541 19.6384L7.97482 20.1764C9.90385 20.3828 11.6607 21.3805 12.8262 22.9314L14.0049 24.5L15.1717 22.9412C16.337 21.3844 18.0974 20.3825 20.031 20.1756L25.0526 19.6384C26.4576 19.4881 27.5667 18.378 27.682 16.9698C27.8335 15.1209 28.0058 12.5259 27.9988 10.3519C27.9923 8.30896 27.8254 5.97186 27.6802 4.31402C27.5665 3.01507 26.601 1.9644 25.3163 1.74161C22.5239 1.25738 17.5843 0.5 14.0049 0.5C10.4232 0.5 5.47925 1.25841 2.6879 1.74259ZM5.48531 6.46296C5.485 6.46302 5.48526 6.46317 5.48522 6.46348C5.16205 9.02346 5.11799 11.611 5.35384 14.1805L5.48511 15.6107C5.48512 15.6108 5.48521 15.611 5.48533 15.611C5.48541 15.6111 5.4855 15.6111 5.48559 15.6111H8.81821C10.9956 15.6111 13.0304 16.694 14.2467 18.5C15.4631 16.694 17.4979 15.6111 19.6753 15.6111H23.0257C23.026 15.6111 23.0262 15.6109 23.0262 15.6107L23.1056 14.7713C23.3672 12.0068 23.3406 9.22259 23.0264 6.46355C23.0263 6.4632 23.0266 6.46302 23.0263 6.46296C23.0137 6.46063 17.8114 5.5 14.2469 5.5C10.6818 5.5 5.49636 6.46091 5.48531 6.46296Z" fill="url(#paint0_linear_5385_771)"/>
<defs>
<linearGradient id="paint0_linear_5385_771" x1="-32.8955" y1="26.1852" x2="-14.5725" y2="51.3778" gradientUnits="userSpaceOnUse">
<stop stop-color="#FFB800"/>
<stop offset="0.232579" stop-color="#B4E64A"/>
<stop offset="0.511397" stop-color="#87DAC6"/>
<stop offset="0.75" stop-color="#FF68C3"/>
<stop offset="1" stop-color="#005CE7"/>
</linearGradient>
</defs>
</svg>
