<?xml version="1.0" encoding="UTF-8"?><svg id="a" xmlns="http://www.w3.org/2000/svg" width="20" height="16" viewBox="0 0 20 16"><path d="M17.764,10.049l-1.195,1.195,1.195,1.195c.293.293.293.768,0,1.061-.146.146-.338.22-.53.22s-.384-.073-.53-.22l-1.195-1.195-1.195,1.195c-.146.146-.338.22-.53.22s-.384-.073-.53-.22c-.293-.293-.293-.768,0-1.061l1.195-1.195-1.195-1.195c-.293-.293-.293-.768,0-1.061s.768-.293,1.061,0l1.195,1.195,1.195-1.195c.293-.293.768-.293,1.061,0s.293.768,0,1.061ZM11.744,10.495h-1V3.439c0-.278-.154-.533-.399-.663-.245-.13-.542-.112-.773.043l-2,1.362c-.342.233-.431.7-.197,1.042.233.344.7.432,1.042.198l.828-.564v5.638h-1c-.414,0-.75.336-.75.75s.336.75.75.75h3.5c.414,0,.75-.336.75-.75s-.336-.75-.75-.75ZM17.234,1.009c-.414,0-.75.336-.75.75v2.042C15.078,1.632,12.663.25,9.995.25,5.722.25,2.245,3.727,2.245,8s3.477,7.75,7.75,7.75c.555,0,1.106-.059,1.64-.174.405-.088.662-.487.574-.893-.087-.403-.488-.656-.892-.574-.429.094-.874.141-1.322.141-3.446,0-6.25-2.804-6.25-6.25S6.549,1.75,9.995,1.75c2.498,0,4.724,1.496,5.712,3.756h-2.961c-.414,0-.75.336-.75.75s.336.75.75.75h4.488c.414,0,.75-.336.75-.75V1.759c0-.414-.336-.75-.75-.75Z"/></svg>