<svg xmlns="http://www.w3.org/2000/svg" viewBox="0 0 232 64">
    <style>
        .a { fill: #000000; }
        @media (prefers-color-scheme: dark) {
            .a { fill: #ffffff; }
        }
    </style>
    <path class="a" d="M36.92041,50.17834a11.96515,11.96515,0,0,1-2.36664,7.453,14.81485,14.81485,0,0,1-6.3219,4.74237A22.45656,22.45656,0,0,1,19.61041,64a22.34849,22.34849,0,0,1-9.738-2.0329,17.3808,17.3808,0,0,1-6.863-5.72473A17.02441,17.02441,0,0,1,0,47.67163l7.50574-.47382A12.90494,12.90494,0,0,0,9.67,52.58417a10.59736,10.59736,0,0,0,4.26032,3.48907A14.176,14.176,0,0,0,19.94812,57.293a15.71715,15.71715,0,0,0,4.97021-.71124,6.57563,6.57563,0,0,0,3.27894-2.2367,5.848,5.848,0,0,0,1.15026-3.62457,6.532,6.532,0,0,0-3.0094-5.48731q-3.00942-2.16788-9.63537-3.7937a30.54869,30.54869,0,0,1-11.462-5.149A10.57351,10.57351,0,0,1,1.015,27.55054a12.404,12.404,0,0,1,2.09613-7.1482,13.4879,13.4879,0,0,1,5.81543-4.74243A20.89118,20.89118,0,0,1,17.51337,14a20.33686,20.33686,0,0,1,9.16241,1.99921,16.49625,16.49625,0,0,1,6.42462,5.52093,17.26991,17.26991,0,0,1,2.87311,8.06232l-7.50568.47479a10.725,10.725,0,0,0-1.82562-4.91254,10.17675,10.17675,0,0,0-3.85455-3.31884,11.9161,11.9161,0,0,0-5.40961-1.1861,10.09736,10.09736,0,0,0-6.35547,1.931A5.90134,5.90134,0,0,0,8.58783,27.6178a5.31138,5.31138,0,0,0,1.52148,3.862,10.15905,10.15905,0,0,0,3.78644,2.40484,61.48608,61.48608,0,0,0,5.91712,1.79547q.20287.06822.81158.2038a32.82377,32.82377,0,0,1,11.90131,5.52094A10.76185,10.76185,0,0,1,36.92041,50.17834ZM86,20H80v8H74v6h6V54c0,3.278.70142,5.681,2.50427,7.40875Q85.20856,64.00053,90.41577,64H96V58H91.0921c-1.35266,0-3.16907-.14569-3.86712-.87622A4.3034,4.3034,0,0,1,86,54V34H96V28H86ZM74,58v5.24756l-2.9884-.00275a9.87757,9.87757,0,0,1-4.88013-1.26892Q64.104,60.777,63.97308,57.55212a10.43161,10.43161,0,0,1-4.21692,4.63007A13.37752,13.37752,0,0,1,52.61676,64a14.07272,14.07272,0,0,1-9.03113-2.84637A9.11934,9.11934,0,0,1,40,53.64215a9.29135,9.29135,0,0,1,1.56012-5.62457,10.06918,10.06918,0,0,1,4.34973-3.29206,36.22613,36.22613,0,0,1,7.37116-1.989L64,40.53448a9.77036,9.77036,0,0,0-2.61676-6.47521Q59.45606,31.899,55.60516,31.899a7.87451,7.87451,0,0,0-5.11279,1.61145,8.21979,8.21979,0,0,0-2.72272,4.63006l-7.17242-.41162a13.57585,13.57585,0,0,1,4.981-8.60815A15.76682,15.76682,0,0,1,55.60516,26c4.78125,0,8.04364,1.327,10.61127,3.97809C68.784,32.6311,70,36.44989,70,41.43353V55.462a2.88848,2.88848,0,0,0,.59912,1.92A1.98791,1.98791,0,0,0,72.19324,58ZM64,46.02185l-9.058,1.6532a36.96577,36.96577,0,0,0-4.25086,1.06262,5.62127,5.62127,0,0,0-2.49,1.61249,4.64146,4.64146,0,0,0-.96283,3.15478,4.31444,4.31444,0,0,0,1.76,3.56745,7.96534,7.96534,0,0,0,5.14673,1.303,8.78875,8.78875,0,0,0,4.78131-1.33808,10.15191,10.15191,0,0,0,3.83417-4.01983A16.13816,16.13816,0,0,0,64,46.57074Zm42.89752,11.32977A2.66023,2.66023,0,0,1,106,55.52582V16h-6V55.93921A7.61469,7.61469,0,0,0,108,64h4V58.00647h-3.31049A2.39331,2.39331,0,0,1,106.89752,57.35162ZM116,64h6V28h-6Zm65.51178-29.66632A23.79284,23.79284,0,0,1,184,44.65643V48H157.6781a10.23942,10.23942,0,0,0,2.86011,6.98022,8.717,8.717,0,0,0,6.87652,2.84632,8.8344,8.8344,0,0,0,4.97547-1.50928,9.0456,9.0456,0,0,0,3.38629-4.11529l7.67053.54882a15.11393,15.11393,0,0,1-6.01269,8.19654A17.22018,17.22018,0,0,1,167.41473,64a17.70334,17.70334,0,0,1-9.19122-2.33258,15.54514,15.54514,0,0,1-6.08136-6.65314A22.26251,22.26251,0,0,1,150,44.99994a22.26473,22.26473,0,0,1,2.14215-10.01422,15.54456,15.54456,0,0,1,6.08136-6.6532A17.70274,17.70274,0,0,1,167.41473,26a16.549,16.549,0,0,1,8.18818,2.05811A14.80675,14.80675,0,0,1,181.51178,34.33368ZM176.25977,42c-.41468-3.246-1.42878-5.99677-3.04017-7.52911A8.30024,8.30024,0,0,0,167.41473,32a8.94748,8.94748,0,0,0-6.49609,2.64221c-1.65881,1.64649-2.69513,4.34021-3.1098,7.35779Zm54.57037,1.5332-8.47272-8.47265a3.99407,3.99407,0,0,0-5.64844,0l-1.412,1.41211-4.23639-4.23639,5.64843-5.64838a7.984,7.984,0,0,0,1.227-9.69971l5.83362-5.83361a1.997,1.997,0,1,0-2.82422-2.82422L215.11176,14.064a7.984,7.984,0,0,0-9.69965,1.227l-5.64844,5.6485-4.23639-4.23639,1.41217-1.41211a3.99406,3.99406,0,0,0,0-5.64843L188.46674,1.1698a3.99409,3.99409,0,0,0-5.64844,0l-5.64844,5.64844a3.99411,3.99411,0,0,0,0,5.6485l8.47266,8.47271a3.99415,3.99415,0,0,0,5.6485,0l1.412-1.41217,4.23639,4.23639-1.41217,1.412a7.98414,7.98414,0,0,0-1.227,9.69971L191.291,37.88477a1.997,1.997,0,0,0,2.82421,2.82421l3.00928-3.00933a7.98412,7.98412,0,0,0,9.69971-1.227l1.41211-1.41211,4.23633,4.23633-1.41211,1.4121a3.99407,3.99407,0,0,0,0,5.64844l8.47265,8.47272a3.99411,3.99411,0,0,0,5.6485,0l5.64844-5.64844A3.99406,3.99406,0,0,0,230.83014,43.5332ZM138,20h-6v8h-6v6h6V53.71088c0,3.33978.85144,5.88885,2.6543,7.64911S139.09436,64,142.56586,64H148V58h-5.83832a3.97571,3.97571,0,0,1-3.07647-1.00574,4.63008,4.63008,0,0,1-1.04859-3.28338L138,34h10V28H138Zm-22,2h6V16h-6Z"/>
</svg>