<svg width="17" height="17" viewBox="0 0 17 17" fill="none" xmlns="http://www.w3.org/2000/svg">
<path d="M1.57075 13.0328L9.41956 5.18397C10.5951 5.74979 11.544 6.6987 12.1098 7.87424L4.26102 15.7231L1.76393 15.5299L1.57075 13.0328Z" stroke="white" stroke-width="1.2" stroke-linecap="round"/>
<path d="M12.767 0.989016C12.7704 0.985596 12.7755 0.9845 12.78 0.986216C14.4067 1.60364 15.6911 2.88808 16.3086 4.51477C16.3103 4.51929 16.3092 4.5244 16.3058 4.52782L13.8435 6.9901C13.8372 6.99638 13.8265 6.99409 13.8234 6.98579C13.2084 5.36563 11.9292 4.08634 10.309 3.4714C10.3007 3.46825 10.2984 3.45758 10.3047 3.4513L12.767 0.989016Z" fill="white"/>
</svg>
