<?xml version="1.0" encoding="UTF-8"?>
<svg id="Camada_2" data-name="Camada 2" xmlns="http://www.w3.org/2000/svg" viewBox="0 0 45 45">
  <defs>
    <style>
      .cls-1 {
        fill: #478eff;
      }

      .cls-1, .cls-2 {
        stroke-width: 0px;
      }

      .cls-2 {
        fill: #fff;
      }
    </style>
  </defs>
  <g id="Camada_3" data-name="Camada 3">
    <g>
      <rect class="cls-2" width="45" height="45"/>
      <g>
        <path class="cls-1" d="M12.5,25.81h3c.55,0,1,.45,1,1v6.19c0,.28-.22.5-.5.5h-4c-.28,0-.5-.22-.5-.5v-6.19c0-.55.45-1,1-1Z"/>
        <path class="cls-1" d="M21,11.5h3c.55,0,1,.45,1,1v20.5c0,.28-.22.5-.5.5h-4c-.28,0-.5-.22-.5-.5V12.5c0-.55.45-1,1-1Z"/>
        <path class="cls-1" d="M29.5,19.5h3c.55,0,1,.45,1,1v12.5c0,.28-.22.5-.5.5h-4c-.28,0-.5-.22-.5-.5v-12.5c0-.55.45-1,1-1Z"/>
      </g>
    </g>
  </g>
</svg>