<svg width="271" height="110" viewBox="0 0 271 110" fill="none" xmlns="http://www.w3.org/2000/svg">
<path d="M178.27 4.99805H141.899C131.493 4.99805 123.057 13.434 123.057 23.8403V26.9983V59.1819C123.057 67.4439 129.754 74.1416 138.016 74.1416H182.713L214.121 74.1416C214.629 74.1416 214.777 73.4493 214.314 73.241L204.994 69.046C200.197 66.8871 197.113 62.1159 197.113 56.8557V39.5698V23.8403C197.113 13.434 188.677 4.99805 178.27 4.99805Z" fill="#3C8C71" stroke="#3C8C71" stroke-width="9" stroke-linecap="square"/>
<path d="M91.5362 29.5898H127.908C138.314 29.5898 146.75 38.0258 146.75 48.4321V51.5901V83.7737C146.75 92.0357 140.052 98.7334 131.79 98.7334H87.0937L55.6856 98.7334C55.1781 98.7334 55.0295 98.0411 55.4923 97.8328L64.8125 93.6378C69.6092 91.4789 72.6939 86.7077 72.6939 81.4475V64.1616V48.4321C72.6939 38.0258 81.1299 29.5898 91.5362 29.5898Z" stroke="#F3F9F6" stroke-width="22" stroke-linecap="square"/>
<path d="M91.8584 30.8867H126.865C136.881 30.8867 145 39.0061 145 49.0218V52.0613V83.037C145 90.989 138.554 97.4353 130.602 97.4353H87.5826L57.3533 97.4353C56.8648 97.4353 56.7217 96.769 57.1672 96.5685L66.1376 92.531C70.7543 90.4531 73.7233 85.8609 73.7233 80.7982V64.161V49.0218C73.7233 39.0061 81.8426 30.8867 91.8584 30.8867Z" fill="#F3F9F6" stroke="#3C8C71" stroke-width="11" stroke-linecap="square"/>
<path d="M41.5001 102.949C44.1234 102.949 46.2501 100.823 46.2501 98.1992C46.2501 95.5759 44.1234 93.4492 41.5001 93.4492V102.949ZM20.0215 93.4492H15.2715V102.949H20.0215V93.4492ZM41.5001 93.4492H20.0215V102.949H41.5001V93.4492Z" fill="#3C8C71"/>
<path d="M6.62111 102.949H11.3711V93.4492H6.62111V102.949ZM5.02148 93.4492C2.39813 93.4492 0.271484 95.5759 0.271484 98.1992C0.271484 100.823 2.39813 102.949 5.02148 102.949V93.4492ZM6.62111 93.4492H5.02148V102.949H6.62111V93.4492Z" fill="#3C8C71"/>
<path d="M229.021 78.9492C226.398 78.9492 224.271 76.8226 224.271 74.1992C224.271 71.5759 226.398 69.4492 229.021 69.4492V78.9492ZM250.5 69.4492H255.25V78.9492H250.5V69.4492ZM229.021 69.4492H250.5V78.9492H229.021V69.4492Z" fill="#3C8C71"/>
<path d="M263.9 78.9492H259.15V69.4492H263.9V78.9492ZM265.5 69.4492C268.123 69.4492 270.25 71.5759 270.25 74.1992C270.25 76.8226 268.123 78.9492 265.5 78.9492V69.4492ZM263.9 69.4492H265.5V78.9492H263.9V69.4492Z" fill="#3C8C71"/>
</svg>
