<svg width="28" height="30" viewBox="0 0 28 30" fill="none" xmlns="http://www.w3.org/2000/svg">
<path d="M11.4097 0.578579L2.1593 5.91928C1.50279 6.29832 0.957619 6.84349 0.578583 7.5C0.199547 8.15651 4.3031e-07 8.90122 4.05834e-07 9.6593L0 20.3407C-1.9343e-08 21.0988 0.199546 21.8435 0.578582 22.5C0.957618 23.1565 1.50279 23.7017 2.1593 24.0807L11.4097 29.4214C12.0662 29.8005 12.8109 30 13.569 30C14.327 30 15.0718 29.8005 15.7283 29.4214L24.9786 24.0807C25.6351 23.7017 26.1803 23.1565 26.5593 22.5C26.9384 21.8435 27.1379 21.0988 27.1379 20.3407V9.6593C27.1379 8.90123 26.9384 8.15651 26.5593 7.5C26.1803 6.84349 25.6351 6.29832 24.9786 5.91928L15.7283 0.578579C15.0718 0.199543 14.327 0 13.569 0C12.8109 0 12.0662 0.199543 11.4097 0.578579Z" fill="#105FB9"/>
<path d="M11.6864 2.42743L3.62197 7.08343C3.04963 7.41387 2.57435 7.88915 2.24391 8.46149C1.91347 9.03383 1.7395 9.68307 1.7395 10.344L1.7395 19.6559C1.7395 20.3168 1.91347 20.9661 2.24391 21.5384C2.57435 22.1108 3.04963 22.586 3.62197 22.9165L11.6864 27.5725C12.2587 27.9029 12.908 28.0769 13.5689 28.0769C14.2297 28.0769 14.879 27.9029 15.4513 27.5725L23.5157 22.9165C24.0881 22.586 24.5634 22.1108 24.8938 21.5384C25.2242 20.9661 25.3982 20.3168 25.3982 19.6559V10.344C25.3982 9.68307 25.2242 9.03383 24.8938 8.46149C24.5634 7.88915 24.0881 7.41387 23.5157 7.08343L15.4513 2.42743C14.879 2.09699 14.2297 1.92303 13.5689 1.92303C12.908 1.92303 12.2587 2.09699 11.6864 2.42743Z" fill="white"/>
<path d="M14.6028 6.63973L13.0152 20.7192C12.9915 20.9302 12.8908 21.125 12.7325 21.2664C12.5742 21.4079 12.3694 21.4861 12.1571 21.4861H11.7474C11.5712 21.4861 11.4012 21.4217 11.2692 21.305C11.1372 21.1883 11.0525 21.0274 11.0309 20.8526L10.3512 15.3501C10.339 15.2517 10.2918 15.1609 10.2181 15.0944C10.1445 15.028 10.0493 14.9903 9.95014 14.9883C9.85095 14.9863 9.75438 15.0202 9.67812 15.0836C9.60185 15.147 9.55101 15.2359 9.53491 15.3337L8.64523 20.7426C8.60903 20.9626 8.49525 21.1624 8.32447 21.3058C8.15369 21.4492 7.93721 21.5268 7.71422 21.5244L6.41642 21.5104C5.16723 21.497 5.0201 22.0118 6.08972 22.6573C8.04986 23.84 10.0087 25.0084 11.9846 26.1489C13.0125 26.7423 14.2788 26.7423 15.3067 26.1489L22.4223 22.0407C23.2039 21.5894 23.7578 20.8468 23.9779 19.9941C24.0881 19.5674 23.7249 19.2031 23.2832 19.2031H22.4258C22.1664 19.2031 21.9156 19.1093 21.7198 18.9391C21.524 18.7688 21.3963 18.5336 21.3603 18.2766L20.4959 12.1161C20.4839 12.031 20.4416 11.953 20.3767 11.8966C20.3119 11.8402 20.2288 11.8092 20.1428 11.8092C20.0568 11.8092 19.9738 11.8402 19.9089 11.8966C19.844 11.953 19.8017 12.031 19.7897 12.1161L18.903 18.4349C18.8731 18.648 18.7673 18.8431 18.6049 18.9842C18.4426 19.1254 18.2347 19.2031 18.0195 19.2031H17.4156C17.228 19.2031 17.047 19.1333 16.908 19.0074C16.7689 18.8814 16.6817 18.7082 16.6632 18.5215L15.4881 6.64578C15.4773 6.53637 15.4263 6.43483 15.3451 6.36074C15.2639 6.28664 15.1581 6.24523 15.0482 6.24448C14.9382 6.24373 14.8319 6.28369 14.7497 6.35667C14.6674 6.42965 14.6151 6.53048 14.6028 6.63973Z" fill="#105FB9"/>
<rect x="3.16705" y="9.63348" width="0.7" height="6.78574" rx="0.35" fill="#105FB9"/>
<rect x="4.46466" y="8.33005" width="5.68555" height="0.7" rx="0.35" fill="#105FB9"/>
<rect x="4.46466" y="9.63348" width="1.98767" height="6.78574" rx="0.35" fill="#105FB9"/>
<rect x="9.14703" y="9.63348" width="1.00317" height="3.99588" rx="0.35" fill="#105FB9"/>
<rect x="7.05035" y="9.63348" width="1.49866" height="5.13324" rx="0.35" fill="#105FB9"/>
</svg>
