<svg width="86" height="30" viewBox="0 0 86 30" fill="none" xmlns="http://www.w3.org/2000/svg">
<path d="M11.4097 0.578579L2.1593 5.91928C1.50279 6.29832 0.957619 6.84349 0.578583 7.5C0.199547 8.15651 4.3031e-07 8.90122 4.05834e-07 9.6593L0 20.3407C-1.9343e-08 21.0988 0.199546 21.8435 0.578582 22.5C0.957618 23.1565 1.50279 23.7017 2.1593 24.0807L11.4097 29.4214C12.0662 29.8005 12.8109 30 13.569 30C14.327 30 15.0718 29.8005 15.7283 29.4214L24.9786 24.0807C25.6351 23.7017 26.1803 23.1565 26.5593 22.5C26.9384 21.8435 27.1379 21.0988 27.1379 20.3407V9.6593C27.1379 8.90123 26.9384 8.15651 26.5593 7.5C26.1803 6.84349 25.6351 6.29832 24.9786 5.91928L15.7283 0.578579C15.0718 0.199543 14.327 0 13.569 0C12.8109 0 12.0662 0.199543 11.4097 0.578579Z" fill="#105FB9"/>
<path d="M11.6864 2.42743L3.62197 7.08343C3.04963 7.41387 2.57435 7.88915 2.24391 8.46149C1.91347 9.03383 1.7395 9.68307 1.7395 10.344L1.7395 19.6559C1.7395 20.3168 1.91347 20.9661 2.24391 21.5384C2.57435 22.1108 3.04963 22.586 3.62197 22.9165L11.6864 27.5725C12.2587 27.9029 12.908 28.0769 13.5689 28.0769C14.2297 28.0769 14.879 27.9029 15.4513 27.5725L23.5157 22.9165C24.0881 22.586 24.5634 22.1108 24.8938 21.5384C25.2242 20.9661 25.3982 20.3168 25.3982 19.6559V10.344C25.3982 9.68307 25.2242 9.03383 24.8938 8.46149C24.5634 7.88915 24.0881 7.41387 23.5157 7.08343L15.4513 2.42743C14.879 2.09699 14.2297 1.92303 13.5689 1.92303C12.908 1.92303 12.2587 2.09699 11.6864 2.42743Z" fill="white"/>
<path d="M14.6028 6.63973L13.0152 20.7192C12.9915 20.9302 12.8908 21.125 12.7325 21.2664C12.5742 21.4079 12.3694 21.4861 12.1571 21.4861H11.7474C11.5712 21.4861 11.4012 21.4217 11.2692 21.305C11.1372 21.1883 11.0525 21.0274 11.0309 20.8526L10.3512 15.3501C10.339 15.2517 10.2918 15.1609 10.2181 15.0944C10.1445 15.028 10.0493 14.9903 9.95014 14.9883C9.85095 14.9863 9.75438 15.0202 9.67812 15.0836C9.60185 15.147 9.55101 15.2359 9.53491 15.3337L8.64523 20.7426C8.60903 20.9626 8.49525 21.1624 8.32447 21.3058C8.15369 21.4492 7.93721 21.5268 7.71422 21.5244L6.41642 21.5104C5.16723 21.497 5.0201 22.0118 6.08972 22.6573C8.04986 23.84 10.0087 25.0084 11.9846 26.1489C13.0125 26.7423 14.2788 26.7423 15.3067 26.1489L22.4223 22.0407C23.2039 21.5894 23.7578 20.8468 23.9779 19.9941C24.0881 19.5674 23.7249 19.2031 23.2832 19.2031H22.4258C22.1664 19.2031 21.9156 19.1093 21.7198 18.9391C21.524 18.7688 21.3963 18.5336 21.3603 18.2766L20.4959 12.1161C20.4839 12.031 20.4416 11.953 20.3767 11.8966C20.3119 11.8402 20.2288 11.8092 20.1428 11.8092C20.0568 11.8092 19.9738 11.8402 19.9089 11.8966C19.844 11.953 19.8017 12.031 19.7897 12.1161L18.903 18.4349C18.8731 18.648 18.7673 18.8431 18.6049 18.9842C18.4426 19.1254 18.2347 19.2031 18.0195 19.2031H17.4156C17.228 19.2031 17.047 19.1333 16.908 19.0074C16.7689 18.8814 16.6817 18.7082 16.6632 18.5215L15.4881 6.64578C15.4773 6.53637 15.4263 6.43483 15.3451 6.36074C15.2639 6.28664 15.1581 6.24523 15.0482 6.24448C14.9382 6.24373 14.8319 6.28369 14.7497 6.35667C14.6674 6.42965 14.6151 6.53048 14.6028 6.63973Z" fill="#105FB9"/>
<rect x="3.16705" y="9.63348" width="0.7" height="6.78574" rx="0.35" fill="#105FB9"/>
<rect x="4.46466" y="8.33005" width="5.68555" height="0.7" rx="0.35" fill="#105FB9"/>
<rect x="4.46466" y="9.63348" width="1.98767" height="6.78574" rx="0.35" fill="#105FB9"/>
<rect x="9.14703" y="9.63348" width="1.00317" height="3.99588" rx="0.35" fill="#105FB9"/>
<rect x="7.05035" y="9.63348" width="1.49866" height="5.13324" rx="0.35" fill="#105FB9"/>
<path d="M32.8787 22V12H34.4187V12.7C34.6321 12.5667 34.8987 12.4333 35.2187 12.3C35.5387 12.1667 35.8787 12.0533 36.2387 11.96C36.6121 11.8533 36.9654 11.8 37.2987 11.8C37.9654 11.8 38.4987 11.88 38.8987 12.04C39.3121 12.2 39.6454 12.46 39.8987 12.82C40.1654 12.6733 40.4921 12.52 40.8787 12.36C41.2654 12.2 41.6787 12.0667 42.1187 11.96C42.5721 11.8533 43.0121 11.8 43.4387 11.8C44.1187 11.8 44.6787 11.8867 45.1187 12.06C45.5587 12.2333 45.8987 12.5133 46.1387 12.9C46.3921 13.2867 46.5654 13.7933 46.6587 14.42C46.7654 15.0333 46.8187 15.7933 46.8187 16.7V22H45.2787V16.76C45.2787 15.8933 45.2254 15.2 45.1187 14.68C45.0254 14.16 44.8321 13.7867 44.5387 13.56C44.2454 13.32 43.7987 13.2 43.1987 13.2C42.8521 13.2 42.4987 13.24 42.1387 13.32C41.7921 13.3867 41.4654 13.48 41.1587 13.6C40.8654 13.7067 40.6254 13.8133 40.4387 13.92C40.5321 14.2667 40.5921 14.7 40.6187 15.22C40.6587 15.7267 40.6787 16.2533 40.6787 16.8V22H39.1387V16.84C39.1387 15.9333 39.0921 15.22 38.9987 14.7C38.9054 14.1667 38.7054 13.7867 38.3987 13.56C38.1054 13.32 37.6587 13.2 37.0587 13.2C36.7254 13.2 36.3854 13.24 36.0387 13.32C35.7054 13.3867 35.3987 13.48 35.1187 13.6C34.8387 13.7067 34.6054 13.8133 34.4187 13.92V22H32.8787ZM52.7175 22.2C52.4108 22.2 52.0375 22.18 51.5975 22.14C51.1708 22.1 50.7441 22.0533 50.3175 22C49.8908 21.9333 49.5108 21.8733 49.1775 21.82L49.2575 20.48C49.5908 20.52 49.9641 20.5667 50.3775 20.62C50.8041 20.6733 51.2175 20.72 51.6175 20.76C52.0175 20.7867 52.3375 20.8 52.5775 20.8C53.1241 20.8 53.5775 20.7533 53.9375 20.66C54.2975 20.5533 54.5708 20.38 54.7575 20.14C54.9441 19.9 55.0375 19.56 55.0375 19.12C55.0375 18.7867 54.9641 18.5267 54.8175 18.34C54.6841 18.1533 54.4241 18 54.0375 17.88C53.6641 17.76 53.1175 17.6467 52.3975 17.54C51.6508 17.42 51.0241 17.2733 50.5175 17.1C50.0241 16.9133 49.6575 16.64 49.4175 16.28C49.1775 15.92 49.0575 15.4067 49.0575 14.74C49.0575 13.9933 49.2308 13.4067 49.5775 12.98C49.9241 12.5533 50.3708 12.2533 50.9175 12.08C51.4775 11.8933 52.0575 11.8 52.6575 11.8C53.0308 11.8 53.4375 11.82 53.8775 11.86C54.3308 11.9 54.7708 11.9533 55.1975 12.02C55.6241 12.0733 55.9908 12.1267 56.2975 12.18L56.2575 13.52C55.9375 13.4667 55.5641 13.42 55.1375 13.38C54.7108 13.3267 54.2841 13.2867 53.8575 13.26C53.4308 13.22 53.0575 13.2 52.7375 13.2C52.3375 13.2 51.9775 13.2467 51.6575 13.34C51.3375 13.42 51.0841 13.5667 50.8975 13.78C50.7108 13.9933 50.6175 14.2933 50.6175 14.68C50.6175 14.9733 50.6841 15.2133 50.8175 15.4C50.9508 15.5733 51.2041 15.72 51.5775 15.84C51.9508 15.96 52.4908 16.08 53.1975 16.2C54.0241 16.3333 54.6841 16.5 55.1775 16.7C55.6841 16.9 56.0508 17.18 56.2775 17.54C56.5041 17.9 56.6175 18.4067 56.6175 19.06C56.6175 19.8333 56.4575 20.4533 56.1375 20.92C55.8308 21.3733 55.3841 21.7 54.7975 21.9C54.2241 22.1 53.5308 22.2 52.7175 22.2ZM58.9139 22V12H60.4539V12.7C60.6672 12.5667 60.9339 12.4333 61.2539 12.3C61.5739 12.1667 61.9139 12.0533 62.2739 11.96C62.6472 11.8533 63.0005 11.8 63.3339 11.8C64.0005 11.8 64.5339 11.88 64.9339 12.04C65.3472 12.2 65.6805 12.46 65.9339 12.82C66.2005 12.6733 66.5272 12.52 66.9139 12.36C67.3005 12.2 67.7139 12.0667 68.1539 11.96C68.6072 11.8533 69.0472 11.8 69.4739 11.8C70.1539 11.8 70.7139 11.8867 71.1539 12.06C71.5939 12.2333 71.9339 12.5133 72.1739 12.9C72.4272 13.2867 72.6005 13.7933 72.6939 14.42C72.8005 15.0333 72.8539 15.7933 72.8539 16.7V22H71.3139V16.76C71.3139 15.8933 71.2605 15.2 71.1539 14.68C71.0605 14.16 70.8672 13.7867 70.5739 13.56C70.2805 13.32 69.8339 13.2 69.2339 13.2C68.8872 13.2 68.5339 13.24 68.1739 13.32C67.8272 13.3867 67.5005 13.48 67.1939 13.6C66.9005 13.7067 66.6605 13.8133 66.4739 13.92C66.5672 14.2667 66.6272 14.7 66.6539 15.22C66.6939 15.7267 66.7139 16.2533 66.7139 16.8V22H65.1739V16.84C65.1739 15.9333 65.1272 15.22 65.0339 14.7C64.9405 14.1667 64.7405 13.7867 64.4339 13.56C64.1405 13.32 63.6939 13.2 63.0939 13.2C62.7605 13.2 62.4205 13.24 62.0739 13.32C61.7405 13.3867 61.4339 13.48 61.1539 13.6C60.8739 13.7067 60.6405 13.8133 60.4539 13.92V22H58.9139ZM78.6726 22.2C77.8193 22.2 77.166 22.0267 76.7126 21.68C76.2593 21.3333 75.946 20.7933 75.7726 20.06C75.6126 19.3267 75.5326 18.38 75.5326 17.22V12H77.0726V17.22C77.0726 18.1 77.1126 18.8 77.1926 19.32C77.286 19.84 77.4793 20.22 77.7726 20.46C78.066 20.6867 78.506 20.8 79.0926 20.8C79.6793 20.8 80.2126 20.72 80.6926 20.56C81.1726 20.4 81.5593 20.24 81.8526 20.08V12H83.3926V22H81.8526V21.3C81.426 21.54 80.9593 21.7533 80.4526 21.94C79.9593 22.1133 79.366 22.2 78.6726 22.2Z" fill="#105FB9"/>
</svg>
