<?xml version="1.0" encoding="UTF-8"?><svg id="a" xmlns="http://www.w3.org/2000/svg" width="20" height="16" viewBox="0 0 20 16"><path d="M15.556,3.11L12.881.442C12.6.161,12.209,0,11.81,0h-5.807C4.898,0,4,.896,4,1.997v12.006c0,1.101.898,1.996,2.003,1.996h7.993c1.105,0,2.004-.895,2.004-1.996V4.178c0-.403-.157-.782-.444-1.068ZM12.38,2.059l1.566,1.562-1.566.014v-1.576ZM14.498,14.004c0,.276-.226.5-.503.5h-7.993c-.277,0-.502-.224-.502-.5V1.997c0-.276.225-.501.502-.501l4.875.003v2.135c0,.811.661,1.47,1.474,1.47h2.146v8.898ZM11.629,6.089h1.368c.414,0,.751.335.751.748s-.336.748-.751.748h-1.368c-.414,0-.751-.335-.751-.748s.336-.748.751-.748ZM9.907,5.281c.293.292.293.766,0,1.058l-1.581,1.576c-.147.146-.338.219-.531.219s-.384-.073-.531-.219l-.805-.802c-.293-.292-.293-.766,0-1.058s.768-.292,1.062,0l.274.273,1.05-1.046c.293-.292.768-.292,1.062,0ZM13.748,9.808c0,.413-.336.748-.751.748h-1.368c-.414,0-.751-.335-.751-.748s.336-.748.751-.748h1.368c.414,0,.751.335.751.748ZM9.907,8.252c.293.292.293.766,0,1.058l-1.581,1.574c-.147.146-.339.219-.531.219-.193,0-.384-.073-.531-.219l-.805-.802c-.293-.292-.293-.766,0-1.058s.768-.292,1.062,0l.274.273,1.05-1.045c.294-.292.769-.292,1.062,0ZM13.748,12.779c0,.413-.336.748-.751.748h-1.368c-.414,0-.751-.335-.751-.748s.336-.748.751-.748h1.368c.414,0,.751.335.751.748ZM9.907,11.223c.293.292.293.766,0,1.058l-1.581,1.575c-.147.146-.338.219-.531.219s-.384-.073-.531-.219l-.805-.802c-.293-.292-.293-.766,0-1.058.293-.292.768-.292,1.062,0l.274.273,1.05-1.046c.293-.292.768-.292,1.062,0Z"/></svg>