<?xml version="1.0" encoding="UTF-8"?><svg id="a" xmlns="http://www.w3.org/2000/svg" width="20" height="16" viewBox="0 0 20 16"><path d="M14.514,4c.552,0,1-.448,1-1V1c0-.552-.448-1-1-1H6c-.552,0-1,.448-1,1v2c0,.552.448,1,1,1h.991v1.001c-1.1.005-1.991.898-1.991,1.999v7c0,1.105.895,2,2,2h6.514c1.105,0,2-.895,2-2v-7c0-1.024-.772-1.858-1.764-1.976v-1.024h.764ZM6.5,1.5h7.514v1h-7.514v-1ZM6.5,14v-.25h2.231c.414,0,.75-.336.75-.75s-.336-.75-.75-.75h-2.231v-.75h3.231c.414,0,.75-.336.75-.75s-.336-.75-.75-.75h-3.231v-.998h4.9c.054,0,.097.044.097.098v5.4h-4.497c-.276,0-.5-.224-.5-.5ZM14.014,7v7c0,.276-.224.5-.5.5h-.517v-5.4c0-.881-.716-1.598-1.597-1.598h-4.9v-.502c0-.276.224-.5.5-.5h6.514c.276,0,.5.224.5.5ZM12.25,5h-3.759v-1h3.759v1Z"/></svg>