<?xml version="1.0" encoding="UTF-8"?><svg id="a" xmlns="http://www.w3.org/2000/svg" width="20" height="16" viewBox="0 0 20 16"><path d="M15.556,3.11L12.881.442C12.6.161,12.209,0,11.81,0h-5.807C4.898,0,4,.896,4,1.997v12.006c0,1.101.898,1.996,2.003,1.996h7.993c1.105,0,2.004-.895,2.004-1.996V4.178c0-.403-.157-.782-.444-1.068ZM12.38,2.059l1.566,1.562-1.566.014v-1.576ZM14.498,14.004c0,.276-.226.5-.503.5h-7.993c-.277,0-.502-.224-.502-.5V1.997c0-.276.225-.501.502-.501l4.875.003v2.135c0,.811.661,1.47,1.474,1.47h2.146v8.898Z"/><rect x="7" y="6.625" width="6" height="6.375" rx=".654" ry=".654" fill="none" stroke="#000" stroke-linecap="round" stroke-linejoin="round" stroke-width="1.5"/><line x1="7" y1="8.75" x2="13" y2="8.75" fill="none" stroke="#000" stroke-linecap="round" stroke-linejoin="round" stroke-width="1.5"/><line x1="7" y1="10.875" x2="13" y2="10.875" fill="none" stroke="#000" stroke-linecap="round" stroke-linejoin="round" stroke-width="1.5"/><line x1="10" y1="6.625" x2="10" y2="13" fill="none" stroke="#000" stroke-linecap="round" stroke-linejoin="round" stroke-width="1.5"/></svg>