<svg width="24" height="24" viewBox="0 0 24 24" fill="none" xmlns="http://www.w3.org/2000/svg">
<rect width="24" height="24" fill="white"/>
<path fill-rule="evenodd" clip-rule="evenodd" d="M5.79722 5C5.29753 5 4.89246 5.40507 4.89246 5.90476V8.65449C4.89246 9.15418 5.29753 9.55925 5.79722 9.55925H10.6747C11.1744 9.55925 11.5795 9.97125 11.5795 10.4709V10.4709C11.5795 10.9706 11.1744 11.3826 10.6747 11.3826H7.0132C6.51351 11.3826 6.10844 11.7877 6.10844 12.2874V15.0371C6.10844 15.5368 6.51351 15.9419 7.0132 15.9419H10.6747C11.1744 15.9419 11.5795 16.3469 11.5795 16.8466V18.229C11.5795 18.7287 11.9846 19.1338 12.4842 19.1338H17.3616C17.8613 19.1338 18.2664 18.7287 18.2664 18.229V15.4793C18.2664 14.9796 17.8613 14.5745 17.3616 14.5745H13.7001C13.2004 14.5745 12.7953 14.1623 12.7953 13.6626V13.6626C12.7953 13.1629 13.2004 12.7508 13.7001 12.7508H17.3616C17.8613 12.7508 18.2664 12.3457 18.2664 11.846V9.09626C18.2664 8.59658 17.8613 8.1915 17.3616 8.1915H13.6999C13.2002 8.1915 12.7952 7.78643 12.7952 7.28674V5.90476C12.7952 5.40507 12.3901 5 11.8904 5H5.79722Z" fill="#111928"/>
</svg>
