<?xml version="1.0" encoding="utf-8"?>
<!-- Generator: Adobe Illustrator 22.1.0, SVG Export Plug-In . SVG Version: 6.00 Build 0)  -->
<svg version="1.1" id="Ebene_1" xmlns="http://www.w3.org/2000/svg" xmlns:xlink="http://www.w3.org/1999/xlink" x="0px" y="0px"
	 viewBox="0 0 522 76" style="enable-background:new 0 0 522 76;" xml:space="preserve">
<style type="text/css">
	.st0{fill:#0066B3;}
	.st1{fill:#FFFFFF;}
	.st2{fill:#FF6600;}
</style>
<title>VRPayment-Logo_sRGB</title>
<desc>Created with Sketch.</desc>
<g id="Logo" transform="translate(56.000000, 56.000000)">
	<path id="Shape" class="st0" d="M69.8-24.3c0.5,1.5,0.9,2.8,1.3,4c0.4,1.2,0.8,2.4,1.2,3.9c0.4,1.4,0.8,2.7,1.1,3.8
		c0.3,1.2,0.7,2.4,1.1,3.8c0.4-1.4,0.8-2.7,1.2-3.9c0.4-1.2,0.7-2.4,1.1-3.6c0.3-1.2,0.7-2.4,1.1-3.6c0.4-1.2,0.8-2.5,1.2-3.9
		l10.1-31.6h11.2L81.2,1.4h-14L47.6-55.3h12.1L69.8-24.3z"/>
	<path id="Shape_1_" class="st0" d="M145.7,1.4H133l-5.5-14.2c-0.9-2-1.6-3.7-2.2-5c-0.6-1.3-1.4-2.3-2.5-3.1
		c-0.4-0.3-0.8-0.5-1.2-0.7c-0.3-0.1-0.7-0.3-1.2-0.4c-0.5-0.1-1.3-0.2-2.4-0.2c-1.1,0-2.3,0-3.7,0V1.4H103v-56.7h17.4
		c1.2,0,2.6,0,4.2,0.1c1.6,0.1,3.2,0.2,4.8,0.6c1.6,0.3,3.2,0.8,4.8,1.5c1.6,0.7,2.9,1.6,4.1,2.9c0.4,0.4,0.7,0.8,1,1.2
		c0.3,0.5,0.6,0.9,0.8,1.3c0.4,0.8,0.8,1.6,1,2.4c0.2,0.8,0.4,1.5,0.5,2.2c0.1,0.7,0.2,1.3,0.2,1.8c0,0.5,0,0.9,0,1.1
		c0,2.7-0.5,5-1.6,6.7c-1,1.8-2.3,3.2-3.7,4.2c-0.3,0.2-0.5,0.3-0.8,0.5c-0.2,0.2-0.6,0.3-1,0.6c-0.9,0.4-1.8,0.7-2.7,0.9
		c-0.9,0.2-1.8,0.3-2.7,0.4c0.1,0.1,0.4,0.1,0.8,0.2c0.4,0.1,0.9,0.1,1.3,0.2c0.7,0.3,1.3,0.7,1.9,1.2c0.6,0.5,1.1,1.1,1.5,1.8
		c0.5,0.6,0.8,1.3,1.1,2c0.3,0.7,0.6,1.3,0.8,1.8L145.7,1.4z M114.3-31.1c0.9,0.1,1.8,0.1,2.6,0.1c0.9,0,1.7,0,2.6,0
		c0.7,0,1.5,0,2.3,0c0.8,0,1.7-0.2,2.5-0.4c0.8-0.2,1.6-0.6,2.4-1.1c0.8-0.5,1.5-1.2,2.1-2.1c0.3-0.4,0.5-1,0.8-1.8
		c0.3-0.7,0.4-1.6,0.4-2.7c0-1-0.1-1.8-0.4-2.5c-0.3-0.7-0.5-1.3-0.8-1.7c-0.7-1-1.6-1.7-2.7-2.2c-1.1-0.5-2.6-0.8-4.3-0.9
		c-0.4,0-0.8,0-1,0c-0.3,0-0.6,0-1,0h-5.5L114.3-31.1L114.3-31.1z"/>
	<path id="Shape_2_" class="st0" d="M183.3-55.3c2.3,0,4.6,0.1,7,0.4c2.4,0.2,4.7,1,7,2.4c1.1,0.7,2.1,1.4,3,2.2
		c0.9,0.8,1.7,1.8,2.4,2.9c0.7,1.1,1.2,2.1,1.6,3.1c0.4,1,0.6,2,0.8,2.8c0.2,0.9,0.3,1.6,0.3,2.3c0,0.7,0,1.2,0,1.5s0,1-0.1,1.9
		c-0.1,1-0.3,2.1-0.7,3.3c-0.4,1.3-1,2.6-1.8,4c-0.8,1.4-2,2.8-3.6,4.1c-0.4,0.3-1.1,0.8-2.1,1.4c-2.2,1.3-4.5,2.2-6.9,2.5
		c-2.4,0.3-4.8,0.5-6.9,0.4c-0.8,0-1.5,0-2.3,0c-0.8,0-1.5,0-2.3,0V1.4h-11.5v-56.7H183.3z M178.5-29.1c0.6,0.1,1.2,0.1,1.7,0.1
		c0.5,0,1.1,0,1.7,0c0.9,0,1.8,0,2.6-0.1c0.9-0.1,1.7-0.2,2.6-0.5c1.6-0.4,2.9-1.2,4.1-2.2c1.5-1.7,2.2-3.7,2.2-6.2
		c0-1.6-0.4-3.1-1.1-4.5c-0.8-1.5-2.1-2.6-4-3.3c-0.8-0.3-1.6-0.5-2.6-0.6c-1-0.2-2.3-0.2-4-0.2c-0.5,0-1.1,0-1.6,0
		c-0.5,0-1.1,0-1.6,0L178.5-29.1L178.5-29.1z"/>
	<path id="Shape_3_" class="st0" d="M231.6,1.4v-6.2c-0.3,0.6-0.8,1.3-1.5,2.1c-0.7,0.8-1.7,1.7-3.1,2.5c-1.6,0.9-3.1,1.5-4.7,1.8
		c-1.6,0.3-3.1,0.4-4.7,0.4c-2.9,0-5.3-0.4-7.1-1.3c-1.8-0.9-3.3-1.9-4.4-3.3c-1.1-1.3-1.8-2.7-2.2-4.2c-0.4-1.5-0.6-2.9-0.6-4.2
		c0.1-2.2,0.5-4.1,1.2-5.6c0.8-1.5,1.7-2.7,2.8-3.6c1.7-1.6,4-2.7,6.9-3.5c2.9-0.7,6.4-1.1,10.6-1.2h0.5c1.1,0,2,0,2.9,0
		c0.8,0,1.8,0.1,2.8,0.2c-0.1-1-0.2-2-0.3-3.1c-0.1-1.1-0.5-2.1-1.2-3.1c-0.6-0.9-1.5-1.6-2.6-2.2c-1.1-0.5-2.5-0.9-4.3-1h-1
		c-2,0.1-3.8,0.3-5.2,0.7c-1.4,0.4-2.6,0.8-3.4,1.2c-0.4,0.2-1,0.5-1.7,0.8c-0.7,0.3-1.5,0.9-2.6,1.7l-0.3-9.5
		c0.9-0.3,1.8-0.6,2.7-1s2-0.6,3.1-0.9c1.1-0.3,2.4-0.5,3.8-0.7c1.4-0.2,3-0.3,4.8-0.3c1,0,2.1,0,3.3,0.1c1.2,0.1,2.3,0.2,3.5,0.5
		c1.1,0.3,2.3,0.7,3.4,1.2c1.1,0.5,2.2,1.2,3.2,2.1c0.5,0.5,1.2,1.2,1.9,2c0.7,0.9,1.3,2,1.7,3.3c0.5,1.4,0.8,3.1,0.9,5
		c0.1,1.9,0.1,3.6,0.1,5v10c0,2.5,0,4.8,0.1,6.9c0.1,2.1,0.1,4.4,0.2,6.9L231.6,1.4L231.6,1.4z M231.4-17.7c-0.7-0.1-1.4-0.1-2-0.1
		c-0.7,0-1.4,0-2.1,0c-2.9,0-5.4,0.3-7.4,0.8c-2.1,0.6-3.6,1.6-4.5,3.3c-0.4,0.8-0.6,1.7-0.6,2.7c0,0.6,0.1,1.2,0.3,1.9
		c0.2,0.7,0.6,1.3,1.1,1.9c0.5,0.6,1.2,1.1,2,1.4c0.8,0.4,1.9,0.6,3.2,0.6c0.6,0,1.4-0.1,2.4-0.4c1-0.2,2-0.7,3-1.4
		c1-0.7,1.9-1.6,2.8-2.8c0.8-1.2,1.4-2.8,1.7-4.7c0.1-0.6,0.2-1.3,0.2-2C231.3-17.2,231.4-17.6,231.4-17.7z"/>
	<path id="Shape_4_" class="st0" d="M258.8-21.6c0.4,1.3,0.7,2.5,1.1,3.7c0.3,1.2,0.7,2.3,1,3.4c0.3,1.1,0.6,2.3,1,3.4
		c0.3,1.2,0.7,2.4,1,3.7c0.6-2.4,1.2-4.6,1.8-6.5c0.6-1.9,1.3-4.1,2-6.4l6.4-20.3h11.1L268.1,2.4c-1.1,2.9-2.1,5.4-3,7.4
		c-0.9,2-2,3.6-3.1,4.8c-0.6,0.7-1.3,1.4-1.9,1.8c-0.6,0.5-1,0.7-1.2,0.8c-1.4,0.8-2.8,1.4-4.3,1.6c-1.5,0.3-2.9,0.4-4.2,0.4
		c-0.9,0-1.9-0.1-2.9-0.2c-1-0.1-2.5-0.4-4.3-0.9l0.8-8.3c0.9,0.3,1.7,0.5,2.3,0.6c0.6,0.1,1.4,0.2,2.2,0.2c1.5,0,2.7-0.3,3.7-0.8
		c1-0.5,1.8-1.2,2.4-2c0.6-0.8,1.1-1.6,1.4-2.4c0.3-0.8,0.6-1.5,0.8-2l-16.4-44.4h11.9L258.8-21.6z"/>
	<path id="Shape_5_" class="st0" d="M349.4,1.4h-10.8v-21.6c0-2.6-0.1-4.8-0.3-6.6c-0.2-1.8-1-3.2-2.3-4.3c-0.9-0.6-1.7-0.9-2.4-1
		c-0.8-0.1-1.3-0.2-1.5-0.2c-1.1,0-2.1,0.2-2.8,0.6c-0.8,0.4-1.3,0.8-1.8,1.1c-0.9,0.8-1.6,1.8-2.1,2.9c-0.5,1.1-0.9,2.3-1.1,3.5
		c-0.2,1.2-0.4,2.3-0.4,3.5c-0.1,1.2-0.1,2.2-0.1,3c-0.1,0.5-0.1,1-0.1,1.4c0,0.4,0,0.9,0,1.5V1.4h-10.8v-23.9c0-0.6,0-1.3,0-2
		c0-0.8-0.1-1.6-0.3-2.3c-0.2-0.8-0.4-1.5-0.8-2.2c-0.3-0.7-0.9-1.4-1.6-2c-0.8-0.6-1.5-1-2.3-1.1c-0.8-0.1-1.3-0.2-1.5-0.2
		c-0.3,0-0.9,0.1-1.8,0.3c-0.9,0.2-1.8,0.7-2.8,1.4c-1.6,1.2-2.6,2.8-3.1,4.7c-0.5,1.9-0.8,4.4-0.8,7.4v20h-10.9v-34.2
		c-0.1-1.4-0.1-2.8-0.1-3.9c0-1.2-0.1-2.5-0.1-3.9h10.4v6.4c0.6-0.9,1.2-1.6,1.6-2c0.4-0.5,0.8-0.9,1.2-1.2c1.1-1,2.2-1.7,3.3-2.2
		c1.1-0.5,2.2-0.9,3.2-1.1c1-0.2,1.8-0.4,2.6-0.4c0.7-0.1,1.2-0.1,1.5-0.1c0.9,0,1.7,0.1,2.6,0.2c0.9,0.2,1.8,0.4,2.8,0.8
		c0.9,0.4,1.8,0.9,2.7,1.6c0.9,0.7,1.7,1.5,2.4,2.6c0.3,0.5,0.6,1,0.7,1.3c0.2,0.3,0.4,0.8,0.6,1.3c0.5-0.8,0.9-1.4,1.3-1.9
		c0.4-0.5,0.7-0.8,1-1.2c1.1-1.3,2.3-2.2,3.6-2.9c1.3-0.6,2.5-1.1,3.6-1.4c1.1-0.3,2.1-0.5,2.9-0.5c0.8,0,1.4,0,1.6,0
		c0.3,0,0.9,0,1.8,0.1c0.9,0.1,1.8,0.3,2.9,0.7c1.1,0.4,2.2,1.1,3.4,2c1.2,0.9,2.2,2.2,3.1,3.9c1,1.9,1.5,3.7,1.7,5.5
		c0.2,1.8,0.3,3.6,0.3,5.4L349.4,1.4L349.4,1.4z"/>
	<path id="Shape_6_" class="st0" d="M363.7-15.9c0.1,0.1,0.2,0.6,0.4,1.6c0.2,0.9,0.6,1.8,1.1,2.6c0.7,1.2,1.5,2.1,2.4,2.8
		c0.9,0.7,1.9,1.3,2.9,1.7c1,0.4,2,0.7,3,0.8c1,0.2,2,0.2,2.9,0.2c1.6,0,3.3-0.2,4.9-0.6c1.7-0.4,3.3-1,4.9-1.8c0.6-0.3,1.3-0.6,2-1
		c0.7-0.4,1.1-0.7,1.2-0.8l0.2,9.4c-1.6,0.7-3.5,1.4-5.8,2.1c-2.3,0.7-5.2,1-8.7,1c-0.3,0-0.8,0-1.4,0c-0.6,0-1.4,0-2.2-0.1
		c-0.8-0.1-1.8-0.2-2.8-0.4c-1-0.2-2-0.5-3.1-0.9c-1.7-0.6-3.3-1.5-4.8-2.6c-1.5-1.1-2.9-2.5-4-4.1c-1.2-1.6-2.1-3.5-2.8-5.7
		c-0.7-2.2-1-4.7-1-7.5c0-2.6,0.2-4.8,0.7-6.7c0.5-1.8,1-3.3,1.4-4.3c0.3-0.5,0.5-1,0.8-1.5c0.3-0.5,0.4-0.9,0.5-1
		c0.3-0.4,0.5-0.7,0.8-1.1c0.2-0.3,0.5-0.7,0.8-1c1.6-1.9,3.6-3.5,6-4.8c2.5-1.3,5.6-2,9.3-2c3.4,0,6.3,0.6,8.7,1.8
		c2.4,1.2,4.3,2.7,5.9,4.7c1.5,2,2.6,4.2,3.3,6.8c0.7,2.6,1,5.3,1,8.1c0,0.8,0,1.5,0,2.2c0,0.6,0,1.3-0.1,2.1L363.7-15.9L363.7-15.9
		z M382.4-23.5c-0.1-1.2-0.3-2.3-0.5-3.5c-0.2-1.2-0.8-2.3-1.6-3.4c-0.6-0.9-1.3-1.5-2-2c-0.7-0.5-1.4-0.8-2-1
		c-0.6-0.2-1.2-0.3-1.7-0.4c-0.5-0.1-0.9-0.1-1.1-0.1c-0.2,0-0.5,0-1.1,0.1c-0.6,0.1-1.3,0.2-2,0.4s-1.6,0.6-2.4,1.2
		c-0.8,0.6-1.6,1.4-2.3,2.4c-0.9,1.4-1.4,2.7-1.6,3.9c-0.2,1.2-0.3,2-0.4,2.4H382.4z"/>
	<path id="Shape_7_" class="st0" d="M424.7,1.4v-20.3c-0.1-2.5-0.2-4.5-0.3-6c-0.2-1.5-0.5-2.8-1.1-4c-0.4-0.7-0.8-1.3-1.3-1.7
		c-0.5-0.5-1.1-0.9-1.8-1.2c-0.3-0.1-0.7-0.2-1.2-0.4c-0.6-0.2-1.2-0.2-2-0.2c-0.4-0.1-1.1,0-2.1,0.2c-1,0.2-2.2,0.7-3.3,1.6
		c-1,0.8-1.7,1.6-2.3,2.5c-0.6,0.9-1,1.9-1.2,3c-0.3,1.1-0.5,2.2-0.6,3.3c-0.1,1.2-0.2,2.3-0.2,3.6V1.4h-11v-32c0-1.9,0-3.6-0.1-5.1
		c-0.1-1.5-0.1-3.2-0.2-5.1h10.5v6.5c0.5-0.6,1-1.3,1.6-1.9c0.8-0.9,1.6-1.6,2.4-2.1c0.8-0.5,1.3-0.8,1.6-1c1.6-0.9,3.1-1.5,4.5-1.8
		c1.4-0.3,2.9-0.4,4.4-0.4c2,0,3.7,0.2,5,0.6c1.3,0.4,2.4,0.9,3.3,1.4c0.4,0.3,0.9,0.7,1.6,1.2c0.6,0.5,1.3,1.3,2,2.4
		c0.6,0.9,1.1,1.8,1.5,2.8c0.3,1,0.6,2.1,0.8,3.4c0.2,1.2,0.3,2.6,0.3,4.2c0.1,1.6,0.1,3.3,0.2,5.2V1.4H424.7z"/>
	<path id="Shape_8_" class="st0" d="M455.1-40.7h9.9v8.2h-9.9V-14c0.1,2,0.6,3.7,1.5,5c0.9,1.3,2.5,2,4.9,2c0.9,0,1.7-0.1,2.4-0.2
		c0.7-0.2,1.2-0.3,1.5-0.4l0.2,8.6c-1.7,0.4-3.1,0.7-4.1,0.9c-1,0.2-2,0.2-2.8,0.2c-2.4,0-4.4-0.3-6-0.9c-1.6-0.6-2.9-1.3-3.9-2.2
		c-1.1-0.9-1.9-2.1-2.6-3.5c-0.7-1.4-1.1-3.3-1.4-5.5c-0.1-1.1-0.2-2-0.2-2.8c0-0.9,0-1.5,0-1.9v-17.7h-8.1v-8.2h8.1v-8.4l10.5-3.4
		L455.1-40.7L455.1-40.7z"/>
	<polygon id="Rectangle-path_1_" class="st1" points="-55.3,-55.3 28.9,-55.3 28.9,1.4 -55.3,1.4 	"/>
	<path id="Shape_9_" class="st2" d="M28.9,1.4v-10H-3.2C-4.1-4-4.8-0.1-5.1,1.4H28.9z"/>
	<polygon id="Shape_10_" class="st2" points="-55.3,-8.6 -55.3,1.4 -21.5,1.4 -23.8,-8.6 	"/>
	<path id="Shape_11_" class="st0" d="M-38.7-32.1l-2.5-10.3h21l6.9,30.3l4.4-19.7c2.2-8.6,3-10.6,15.1-10.6c2.6,0,8.7,0,8.7,0
		s-1.8,7.9-4,16.5c-0.8,3.3-8.1,2.9-7.8-0.2c0-0.3,0.4-2.6,0.7-4.3c0.4-2.4-2.4-2.7-2.9-0.3c-0.4,1.7-2,10.1-3.5,17.9h31.3v-42.5
		h-84.2v42.5h30.6l-4.4-19.3L-38.7-32.1z"/>
</g>
</svg>
