<?xml version="1.0" encoding="UTF-8"?>
<svg fill="#000000" width="800px" height="800px" version="1.1" viewBox="144 144 512 512" xmlns="http://www.w3.org/2000/svg">
 <path d="m400 174.33c-59.852 0-117.25 23.777-159.57 66.098-42.32 42.32-66.098 99.719-66.098 159.57 0 59.848 23.777 117.25 66.098 159.57 42.32 42.32 99.719 66.098 159.57 66.098 59.848 0 117.25-23.777 159.57-66.098 42.32-42.32 66.098-99.719 66.098-159.57-0.066406-59.832-23.863-117.19-66.172-159.5-42.305-42.309-99.664-66.102-159.49-66.172zm0 372.61c-5.5703 0-10.91-2.2109-14.844-6.1484-3.9375-3.9336-6.1484-9.2734-6.1484-14.844 0-5.5664 2.2109-10.906 6.1484-14.844 3.9336-3.9336 9.2734-6.1484 14.844-6.1484 5.5664 0 10.906 2.2148 14.844 6.1484 3.9336 3.9375 6.1484 9.2773 6.1484 14.844 0 5.5703-2.2148 10.91-6.1484 14.844-3.9375 3.9375-9.2773 6.1484-14.844 6.1484zm30.062-137.14h-0.003906c-4.4023 2.0781-8.1055 5.3945-10.648 9.5469-2.543 4.1484-3.8164 8.9531-3.668 13.816v29.812c0 5.6211-3 10.82-7.8711 13.633s-10.875 2.8125-15.746 0-7.8711-8.0117-7.8711-13.633v-29.812c-0.20312-11.105 2.8945-22.023 8.9023-31.367 6.0117-9.3438 14.66-16.691 24.852-21.109 10.598-4.3711 19.242-12.449 24.328-22.723 5.082-10.273 6.2539-22.047 3.2969-33.121-2.957-11.078-9.8398-20.699-19.363-27.074-9.5273-6.375-21.047-9.0703-32.414-7.5781-11.363 1.4922-21.801 7.0625-29.359 15.68-7.5625 8.6172-11.73 19.688-11.73 31.152 0 5.625-3 10.82-7.8711 13.633-4.8711 2.8125-10.871 2.8125-15.746 0-4.8711-2.8125-7.8711-8.0078-7.8711-13.633 0-19.109 6.9453-37.57 19.551-51.934 12.602-14.367 29.996-23.66 48.941-26.145 18.949-2.4883 38.152 2 54.035 12.625 15.883 10.629 27.359 26.668 32.289 45.129 4.9297 18.461 2.9805 38.086-5.4883 55.219-8.4727 17.129-22.883 30.594-40.547 37.883z"/>
</svg>