<?xml version="1.0" encoding="UTF-8"?>
<svg width="400" height="400" viewBox="390 100 420 420" xmlns="http://www.w3.org/2000/svg">
  <defs>
    <!-- Outer metallic ring -->
    <radialGradient id="ringGrad" cx="35%" cy="25%" r="80%">
      <stop offset="0%" stop-color="#f1f4f7"/>
      <stop offset="35%" stop-color="#cdd4da"/>
      <stop offset="70%" stop-color="#aeb7bf"/>
      <stop offset="100%" stop-color="#8f99a3"/>
    </radialGradient>

    <!-- Inner face -->
    <radialGradient id="faceGrad" cx="50%" cy="40%" r="75%">
      <stop offset="0%" stop-color="#0b2236"/>
      <stop offset="100%" stop-color="#071a2b"/>
    </radialGradient>

    <!-- Grid line style -->
    <pattern id="grid" width="26" height="26" patternUnits="userSpaceOnUse">
      <path d="M 26 0 L 0 0 0 26" fill="none" stroke="#e6eef7" stroke-opacity="0.10" stroke-width="1"/>
    </pattern>

    <!-- Dot glows -->
    <filter id="glowBlue" x="-50%" y="-50%" width="200%" height="200%">
      <feGaussianBlur stdDeviation="4" result="b"/>
      <feMerge>
        <feMergeNode in="b"/>
        <feMergeNode in="SourceGraphic"/>
      </feMerge>
    </filter>

    <filter id="glowGreen" x="-50%" y="-50%" width="200%" height="200%">
      <feGaussianBlur stdDeviation="4" result="b"/>
      <feMerge>
        <feMergeNode in="b"/>
        <feMergeNode in="SourceGraphic"/>
      </feMerge>
    </filter>

    <filter id="glowYellow" x="-50%" y="-50%" width="200%" height="200%">
      <feGaussianBlur stdDeviation="4" result="b"/>
      <feMerge>
        <feMergeNode in="b"/>
        <feMergeNode in="SourceGraphic"/>
      </feMerge>
    </filter>

    <filter id="glowOrange" x="-50%" y="-50%" width="200%" height="200%">
      <feGaussianBlur stdDeviation="4" result="b"/>
      <feMerge>
        <feMergeNode in="b"/>
        <feMergeNode in="SourceGraphic"/>
      </feMerge>
    </filter>

    <!-- Soft drop shadow for emblem -->
    <filter id="shadow" x="-30%" y="-30%" width="160%" height="160%">
      <feGaussianBlur in="SourceAlpha" stdDeviation="10" result="blur"/>
      <feOffset in="blur" dx="0" dy="10" result="off"/>
      <feColorMatrix in="off" type="matrix"
        values="0 0 0 0 0
                0 0 0 0 0
                0 0 0 0 0
                0 0 0 0.35 0" result="shadow"/>
      <feMerge>
        <feMergeNode in="shadow"/>
        <feMergeNode in="SourceGraphic"/>
      </feMerge>
    </filter>

    <!-- Clip circle for grid contents -->
    <clipPath id="clipFace">
      <circle cx="600" cy="310" r="150"/>
    </clipPath>
  </defs>

  <!-- Emblem group (no background) -->
  <g filter="url(#shadow)">
    <!-- Outer ring -->
    <circle cx="600" cy="310" r="185" fill="none" stroke="url(#ringGrad)" stroke-width="18"/>

    <!-- Inner bezel -->
    <circle cx="600" cy="310" r="165" fill="none" stroke="#0f2a40" stroke-opacity="0.55" stroke-width="10"/>

    <!-- Face -->
    <circle cx="600" cy="310" r="150" fill="url(#faceGrad)"/>

    <!-- Grid + axes inside face -->
    <g clip-path="url(#clipFace)">
      <rect x="450" y="160" width="300" height="300" fill="url(#grid)"/>

      <!-- Crosshair axes (plus sign), no arrowheads -->
      <line x1="450" y1="310" x2="750" y2="310" stroke="#e9f2fb" stroke-opacity="0.28" stroke-width="2"/>
      <line x1="600" y1="160" x2="600" y2="460" stroke="#e9f2fb" stroke-opacity="0.28" stroke-width="2"/>

      <!-- Tick marks (light) -->
      <g stroke="#e9f2fb" stroke-opacity="0.25" stroke-width="2">
        <!-- horizontal ticks -->
        <line x1="476" y1="305" x2="476" y2="315"/>
        <line x1="502" y1="305" x2="502" y2="315"/>
        <line x1="528" y1="305" x2="528" y2="315"/>
        <line x1="554" y1="305" x2="554" y2="315"/>
        <line x1="580" y1="305" x2="580" y2="315"/>
        <line x1="620" y1="305" x2="620" y2="315"/>
        <line x1="646" y1="305" x2="646" y2="315"/>
        <line x1="672" y1="305" x2="672" y2="315"/>
        <line x1="698" y1="305" x2="698" y2="315"/>
        <line x1="724" y1="305" x2="724" y2="315"/>

        <!-- vertical ticks -->
        <line x1="595" y1="186" x2="605" y2="186"/>
        <line x1="595" y1="212" x2="605" y2="212"/>
        <line x1="595" y1="238" x2="605" y2="238"/>
        <line x1="595" y1="264" x2="605" y2="264"/>
        <line x1="595" y1="290" x2="605" y2="290"/>
        <line x1="595" y1="330" x2="605" y2="330"/>
        <line x1="595" y1="356" x2="605" y2="356"/>
        <line x1="595" y1="382" x2="605" y2="382"/>
        <line x1="595" y1="408" x2="605" y2="408"/>
        <line x1="595" y1="434" x2="605" y2="434"/>
      </g>

      <!-- Scatter dots (no connecting lines) -->
      <!-- Blue -->
      <circle cx="535" cy="255" r="7" fill="#4cc7ff" filter="url(#glowBlue)"/>
      <circle cx="655" cy="355" r="6" fill="#4cc7ff" filter="url(#glowBlue)"/>
      <!-- Green -->
      <circle cx="520" cy="345" r="7" fill="#47ff9a" filter="url(#glowGreen)"/>
      <circle cx="595" cy="305" r="6" fill="#47ff9a" filter="url(#glowGreen)"/>
      <circle cx="610" cy="235" r="6" fill="#47ff9a" filter="url(#glowGreen)"/>
      <!-- Yellow -->
      <circle cx="675" cy="235" r="8" fill="#ffe066" filter="url(#glowYellow)"/>
      <circle cx="625" cy="295" r="6" fill="#ffe066" filter="url(#glowYellow)"/>
      <!-- Orange -->
      <circle cx="710" cy="265" r="7" fill="#ff9f43" filter="url(#glowOrange)"/>
      <circle cx="705" cy="325" r="6" fill="#ff9f43" filter="url(#glowOrange)"/>

      <!-- A few faint "dust" points near center -->
      <g fill="#9fe7ff" fill-opacity="0.25">
        <circle cx="585" cy="290" r="2"/>
        <circle cx="610" cy="320" r="2"/>
        <circle cx="570" cy="330" r="1.8"/>
        <circle cx="630" cy="270" r="1.8"/>
      </g>
    </g>
  </g>
</svg>
