<svg width="15" height="16" viewBox="0 0 15 16" fill="none" xmlns="http://www.w3.org/2000/svg">
<path d="M14 5.08333V4.58333H13.5H9.8V2.8C9.8 1.52974 8.77025 0.5 7.5 0.5C6.22975 0.5 5.2 1.52975 5.2 2.8V4.58333H1.5H1V5.08333V6.25V7.41667V7.82881L1.40457 7.90747L2.68674 8.15679C3.4494 8.30508 4 8.97306 4 9.75C4 10.5269 3.4494 11.1949 2.68674 11.3432L1.40457 11.5925L1 11.6712V12.0833V15V15.5H1.5H4.5H4.90761L4.98974 15.1007L5.10616 14.5349C5.33988 13.3987 6.34005 12.5833 7.5 12.5833C8.65995 12.5833 9.66012 13.3987 9.89384 14.5349L10.0103 15.1007L10.0924 15.5H10.5H13.5H14V15V12.0833V11.6712L13.5954 11.5925L12.3133 11.3432C11.5506 11.1949 11 10.5269 11 9.75C11 8.97306 11.5506 8.30508 12.3133 8.15679L13.5954 7.90747L14 7.82881V7.41667V5.08333Z" fill="#656565" stroke="#656565"/>
</svg>
