<?xml version="1.0" encoding="UTF-8" standalone="no"?>
<!-- Created with Inkscape (http://www.inkscape.org/) -->

<svg
   width="64"
   height="64"
   viewBox="0 0 16.933333 16.933334"
   version="1.1"
   id="svg5"
   xmlns="http://www.w3.org/2000/svg"
   xmlns:svg="http://www.w3.org/2000/svg">
  <defs
     id="defs2" />
  <g
     id="layer1">
    <rect
       style="fill:none;fill-opacity:1;stroke:#d3c549;stroke-width:1.00000003;stroke-linecap:square;stroke-miterlimit:4;stroke-dasharray:none;stroke-dashoffset:0;stroke-opacity:1"
       id="rect846"
       width="15.652667"
       height="15.467634"
       x="0.70662987"
       y="0.89693815"
       ry="1.8506254" />
    <path
       style="fill:#000000;fill-opacity:0;stroke:#d3c549;stroke-width:0.75;stroke-linecap:butt;stroke-linejoin:miter;stroke-miterlimit:4;stroke-dasharray:none;stroke-opacity:1"
       d="M 0.72272324,4.5635321 H 16.346414"
       id="path1519" />
    <rect
       style="fill:#d3c549;fill-opacity:1;stroke:#d3c549;stroke-width:0.264466;stroke-linecap:square;stroke-miterlimit:4;stroke-dasharray:none;stroke-dashoffset:0;stroke-opacity:1"
       id="rect19329"
       width="3.6898909"
       height="2.4295335"
       x="1.8045003"
       y="2.1822331"
       ry="0.59486121" />
    <rect
       style="fill:#d3c549;fill-opacity:0.40000001;stroke:#d3c549;stroke-width:0.264466;stroke-linecap:square;stroke-miterlimit:4;stroke-dasharray:none;stroke-dashoffset:0;stroke-opacity:1"
       id="rect19329-3"
       width="3.6898909"
       height="2.4295335"
       x="6.5523105"
       y="2.1822333"
       ry="0.59486121" />
    <rect
       style="fill:#d3c549;fill-opacity:0.40000001;stroke:#d3c549;stroke-width:0.264466;stroke-linecap:square;stroke-miterlimit:4;stroke-dasharray:none;stroke-dashoffset:0;stroke-opacity:1"
       id="rect19329-5"
       width="3.6898909"
       height="2.4295335"
       x="11.300119"
       y="2.1822333"
       ry="0.59486121" />
    <g
       id="g75893"
       transform="matrix(0.38450387,0,0,0.38675931,-6.1442194,3.0862537)">
      <path
         style="fill:none;stroke:#000000;stroke-width:0.264583px;stroke-linecap:butt;stroke-linejoin:miter;stroke-opacity:1"
         d="m 51.267881,16.775457 c 0.841185,-3.1988 1.790865,-6.37992 1.886346,-9.7002318 C 49.397793,6.9924509 46.816031,8.2522091 44.047372,9.2983626 39.953531,8.1661468 35.966235,8.1406023 32.171087,10.110867 29.511448,9.1862448 26.998652,7.718862 24.081852,7.7447599 c 0.429125,3.0072881 1.727953,6.0145771 2.725456,9.0218651 -0.766002,1.966976 -1.94114,3.65138 -1.909892,6.16898 2.168259,2.5871 4.943511,4.270983 7.933777,5.634923 3.467932,4.912932 5.756889,2.408128 8.370692,0.126841 l 1.673764,-1.91866 c 3.164386,-1.282553 6.518564,-0.711123 9.469287,-4.080838 0.918702,-1.974138 -0.565072,-3.948276 -1.077055,-5.922414 z"
         id="path8955" />
      <path
         style="fill:none;stroke:#000000;stroke-width:0.264583px;stroke-linecap:butt;stroke-linejoin:miter;stroke-opacity:1"
         d="m 49.840999,15.776372 c 1.380372,-2.434469 1.733039,-4.868938 2.566265,-7.3034068 -1.371403,1.4974359 -2.736796,2.9020678 -4.146066,4.6081578 0.718203,0.68973 1.074755,1.773357 1.579801,2.695249 z"
         id="path10453" />
      <path
         style="fill:none;stroke:#000000;stroke-width:0.264583px;stroke-linecap:butt;stroke-linejoin:miter;stroke-opacity:1"
         d="m 27.180315,15.650225 c 0.47643,-0.993396 0.866603,-1.347469 1.255718,-1.693695 -1.056452,-2.201008 -2.112905,-3.048316 -3.169357,-4.4293076 0.469012,1.9545226 0.870631,3.8745316 1.913639,6.1230026 z"
         id="path12635" />
      <path
         style="fill:none;stroke:#000000;stroke-width:0.264583px;stroke-linecap:butt;stroke-linejoin:miter;stroke-opacity:1"
         d="m 32.831193,28.570528 c 4.204623,-5.7794 6.045685,-1.830315 8.370692,0.126841"
         id="path12993" />
      <path
         style="fill:none;stroke:#000000;stroke-width:0.264583px;stroke-linecap:butt;stroke-linejoin:miter;stroke-opacity:1"
         d="m 43.608595,19.033101 c -2.157708,1.474017 -3.916874,3.08868 -3.802832,5.3644"
         id="path13427" />
      <path
         style="fill:none;stroke:#000000;stroke-width:0.264583px;stroke-linecap:butt;stroke-linejoin:miter;stroke-opacity:1"
         d="M 34.05709,24.785654 C 32.950855,20.828662 31.988386,20.899552 31.036905,19.577796"
         id="path13633" />
      <path
         style="fill:#000000;fill-opacity:1;fill-rule:evenodd"
         id="path13904"
         d="m 38.041901,29.457042 a 0.34403685,0.33605385 0 0 1 0.35713,0.321775 0.34403685,0.33605385 0 0 1 -0.328415,0.349744 0.34403685,0.33605385 0 0 1 -0.358973,-0.319812 0.34403685,0.33605385 0 0 1 0.326401,-0.351539 l 0.01725,0.335631 z" />
      <path
         style="fill:#000000;fill-opacity:1;fill-rule:evenodd"
         id="path13904-2"
         d="m 35.617673,29.492826 a 0.34403685,0.33605385 0 0 1 0.35713,0.321775 0.34403685,0.33605385 0 0 1 -0.328416,0.349744 0.34403685,0.33605385 0 0 1 -0.358973,-0.319812 0.34403685,0.33605385 0 0 1 0.326401,-0.351539 l 0.01725,0.335631 z" />
      <path
         style="fill:#d3c549;fill-opacity:1;stroke:none;stroke-width:0.515431;stroke-linecap:square;stroke-dasharray:0.515431, 0.515431"
         d="m 151.12133,103.01386 c -5.71125,-5.559979 -8.14258,-6.982305 -11.94468,-6.987644 -3.71717,-0.0052 -6.12724,1.256931 -10.27587,5.381444 -1.77491,1.76459 -3.64331,3.77879 -4.15201,4.476 l -0.9249,1.26766 -4.50797,-2.2983 c -8.78423,-4.47847 -15.58322,-9.270028 -21.200454,-14.940933 l -3.324715,-3.356485 0.209292,-2.925912 c 0.262401,-3.66839 1.473633,-7.487647 4.618073,-14.561714 l 2.467484,-5.551116 -0.75363,-2.241772 C 100.91746,60.042114 99.204767,55.082195 97.525978,50.253045 94.636786,41.942092 92.697962,35.283585 92.096505,31.606587 l -0.2693,-1.646356 2.757115,0.233061 c 4.285497,0.362257 9.21106,1.813245 18.44108,5.432426 l 8.49908,3.332577 2.69472,-1.228024 c 7.1686,-3.266838 13.90149,-4.664213 22.43002,-4.655237 6.27358,0.0066 8.78982,0.28681 15.40262,1.715227 l 4.5674,0.986593 7.01509,-2.634108 c 10.54855,-3.96089 17.82423,-5.673378 24.12715,-5.678842 l 2.54055,-0.0022 -0.2271,2.335179 c -0.81486,8.378875 -2.00933,14.520854 -5.13924,26.426159 l -1.91331,7.277694 1.22195,3.370721 c 3.82545,10.552389 3.87803,10.736505 3.89387,13.634754 0.0201,3.685397 -0.67786,5.09988 -3.87416,7.850844 -5.5602,4.785525 -10.27557,6.750467 -22.39489,9.332177 -1.95221,0.415868 -5.03081,1.207377 -6.84133,1.758913 l -3.29187,1.002795 -3.02025,3.48364 c -1.66114,1.916 -3.03806,3.47724 -3.05982,3.46942 -0.0217,-0.008 -2.06231,-1.98338 -4.53455,-4.39014 z m -22.01096,-9.528501 c 0.51074,-1.330992 -3.30371,-10.47195 -5.6726,-13.593819 -2.16584,-2.854265 -5.75368,-6.512115 -6.14827,-6.268244 -0.75619,0.46735 -0.21079,1.371793 2.79204,4.630073 3.39784,3.6869 5.07236,6.606691 6.76228,11.791121 0.53587,1.643965 1.04474,3.199194 1.13082,3.456064 0.20423,0.609411 0.89961,0.600107 1.13573,-0.01521 z m 22.14243,-3.687901 c 0.7849,-5.288362 4.13083,-9.961495 10.58117,-14.778322 3.09905,-2.314237 3.67327,-3.036771 2.67725,-3.368774 -0.6543,-0.218102 -6.12207,4.120645 -8.96632,7.114908 -3.46068,3.6432 -5.28495,7.227685 -5.60178,11.006923 -0.1903,2.26982 -0.13554,2.700882 0.34306,2.700882 0.42025,0 0.67356,-0.701162 0.96662,-2.675617 z m 38.86384,-31.978434 c 0.79339,-1.592592 1.88617,-4.072552 2.42838,-5.511022 1.38592,-3.676798 6.19283,-20.113165 5.98198,-20.454324 -0.0959,-0.155134 -0.37457,-0.281294 -0.61931,-0.280354 -0.54346,0.0021 -10.60289,10.937904 -15.88399,17.267844 -0.47789,0.572803 -0.40662,0.791035 0.65219,1.996961 0.6538,0.744635 2.14325,3.271474 3.3099,5.615199 1.16664,2.343724 2.24877,4.261317 2.40474,4.261317 0.15596,0 0.93271,-1.303029 1.72611,-2.895621 z m -86.09411,0.438315 c 0.59832,-1.145046 1.81737,-2.832513 2.70899,-3.749926 l 1.62113,-1.668024 -0.79428,-1.573394 c -3.2303,-6.398907 -12.656709,-17.731769 -12.656709,-15.216486 0,0.990872 2.292192,9.889773 3.548117,13.774737 1.517941,4.695462 3.866422,10.517256 4.242042,10.515883 0.13357,-4.86e-4 0.73239,-0.937744 1.33071,-2.08279 z"
         id="path50042"
         transform="scale(0.26458333)" />
      <path
         style="fill:#f1e6bb;fill-opacity:1;stroke:none;stroke-width:0.515431;stroke-linecap:square;stroke-dasharray:0.515431, 0.515431"
         d="m 134.09893,116.68799 c -2.4371,-1.21287 -7.42562,-5.82936 -8.52125,-7.88579 -0.50041,-0.93924 -0.43228,-1.08932 1.64981,-3.63425 4.16641,-5.0926 8.34674,-7.837703 11.93548,-7.837703 3.0972,0 5.3362,1.381856 10.72031,6.616313 l 4.72857,4.59714 -2.86043,2.47454 c -7.87342,6.81122 -12.42274,8.2724 -17.65249,5.66975 z m 1.84395,-3.64441 c 0.16636,-1.17858 -0.8789,-2.01387 -1.86183,-1.48782 -0.68392,0.36602 -0.95146,1.83379 -0.42941,2.35584 0.14644,0.14643 0.69287,0.21649 1.2143,0.15568 0.68147,-0.0795 0.98429,-0.36733 1.07694,-1.0237 z m 8.80741,0.60822 c 0.79371,-0.58037 0.67188,-1.68832 -0.24943,-2.26852 -1.29459,-0.81527 -2.75237,1.02184 -1.75984,2.21776 0.55829,0.6727 1.13867,0.68736 2.00927,0.0508 z"
         id="path69501"
         transform="scale(0.26458333)" />
      <path
         style="fill:#f1e6bb;fill-opacity:1;stroke:none;stroke-width:0.207753;stroke-linecap:square;stroke-dasharray:0.207753, 0.207753"
         d="m 102.0536,56.137452 c -1.77302,-4.203783 -3.195959,-8.702257 -4.696298,-14.846914 -0.365547,-1.497103 -0.649804,-2.735964 -0.631681,-2.753024 0.05286,-0.04976 4.170999,4.853127 5.060709,6.025064 1.63091,2.148254 3.58462,5.262463 4.72933,7.538551 l 0.22449,0.44636 -1.15057,1.233268 c -0.63281,0.678298 -1.53342,1.85084 -2.00135,2.605652 l -0.8508,1.372383 z"
         id="path75503"
         transform="scale(0.26458333)" />
      <path
         style="fill:#f1e6bb;fill-opacity:1;stroke:none;stroke-width:0.207753;stroke-linecap:square;stroke-dasharray:0.207753, 0.207753"
         d="m 186.70388,55.00421 c -0.88971,-1.759363 -1.97401,-3.666926 -2.40955,-4.239026 -0.43554,-0.572099 -0.85514,-1.124584 -0.93246,-1.227744 -0.15153,-0.202198 8.8e-4,-0.393714 3.47275,-4.363896 2.73709,-3.129934 9.55693,-10.498064 9.63999,-10.415005 0.0959,0.09586 -3.12669,11.321154 -4.00751,13.95959 -0.40095,1.201011 -1.01029,2.895227 -1.35409,3.764924 -0.69727,1.763865 -2.56877,5.723429 -2.70421,5.721343 -0.048,-7.53e-4 -0.8152,-1.440822 -1.70492,-3.200186 z"
         id="path75542"
         transform="scale(0.26458333)" />
    </g>
  </g>
</svg>
