<?xml version="1.0" encoding="UTF-8"?>
<svg fill="#000000" width="800px" height="800px" version="1.1" viewBox="144 144 512 512" xmlns="http://www.w3.org/2000/svg">
 <g>
  <path d="m342.53 447.86c4.7266-0.62891 9.6055 1.1016 13.07 4.4102 3.3047 3.4609 5.0352 8.3438 4.4062 13.066l-3.3047 27.238c13.227 6.2969 27.867 9.7617 43.297 9.7617 56.363 0 102.34-45.973 102.34-102.34s-45.973-102.34-102.34-102.34c-56.367 0-102.34 45.969-102.34 102.34 0 18.734 5.1953 36.527 14.172 51.641zm57.469-106.9c32.59 0 59.039 26.449 59.039 59.039s-26.449 59.039-59.039 59.039-59.039-26.449-59.039-59.039c-0.003907-32.586 26.449-59.039 59.039-59.039z"/>
  <path d="m541.7 179.58h-283.39c-25.977 0-47.23 21.254-47.23 47.23v346.37c0 25.977 21.254 47.23 47.23 47.23h283.39c25.977 0 47.23-21.254 47.23-47.23v-346.37c0-25.977-21.254-47.23-47.23-47.23zm-267.49 362.11h0.15625c8.6602 0 15.742 7.0859 15.742 15.742 0 8.6602-7.0859 15.742-15.742 15.742-8.6602 0-15.742-7.0859-15.742-15.742s6.9258-15.742 15.586-15.742zm-15.586-299.14c0-8.6602 6.9258-15.742 15.586-15.742h0.15625c8.6602 0 15.742 7.0859 15.742 15.742 0 8.6602-7.0859 15.742-15.742 15.742s-15.742-7.082-15.742-15.742zm20.469 286.23c-11.336-11.18-15.742-27.082-12.125-42.508 2.2031-9.6055 7.3984-17.949 14.641-23.93-9.918-18.582-15.426-39.836-15.426-62.348 0-73.84 59.984-133.82 133.82-133.82s133.82 59.984 133.82 133.82-59.984 133.82-133.82 133.82c-18.422 0-36.055-3.7773-52.113-10.551-7.9219 11.727-22.527 18.941-36.84 18.895-11.969 0-23.461-4.7227-31.961-13.383zm231.44-286.23c0-8.6602 6.9258-15.742 15.586-15.742h0.15625c8.6602 0 15.742 7.0859 15.742 15.742 0 8.6602-7.0859 15.742-15.742 15.742-8.6602 0-15.742-7.082-15.742-15.742zm15.586 299.14h0.15625c8.6602 0 15.742 7.0859 15.742 15.742 0 8.6602-7.0859 15.742-15.742 15.742-8.6602 0-15.742-7.0859-15.742-15.742s6.9258-15.742 15.586-15.742z"/>
  <path d="m400.31 415.74c8.6602 0 15.742-7.0859 15.742-15.742 0-8.6602-7.0859-15.742-15.742-15.742h-0.15625c-8.6602 0-15.586 7.0859-15.586 15.742s7.082 15.742 15.742 15.742z"/>
  <path d="m314.35 510.36c3.1172-0.66406 8.0312-3.9062 9.4453-8.0273l2.5195-20.781-20.781 2.5156c-4.2617 1.6406-7.1641 6.0547-8.0312 9.4453-0.47266 2.3594-1.1016 8.1875 3.7773 13.066 4.8828 4.8828 10.707 4.2539 13.07 3.7812z"/>
 </g>
</svg>