<svg width="70" height="38" viewBox="0 0 70 38" fill="none" xmlns="http://www.w3.org/2000/svg">
<rect x="0.5" y="0.5" width="69" height="37" rx="5.5" fill="#fbfbfb"/>
<rect x="0.5" y="0.5" width="69" height="37" rx="5.5" stroke="#E4E6EA"/>
<path d="M19.972 24H16.3324L11.3982 24C11.2903 24 11.2589 23.8526 11.3576 23.8086L12.7602 23.1842C13.5241 22.8441 14.0163 22.0862 14.0163 21.25V21.25V18.5V17C14.0163 14.7909 15.8072 13 18.0163 13H22.4277C24.3607 13 25.9277 14.567 25.9277 16.5V16.5" stroke="#282828" stroke-width="1.6" stroke-linecap="square"/>
<path d="M25.3926 20V24" stroke="#282828" stroke-width="1.6" stroke-linecap="square"/>
<path d="M23.25 22H27.5357" stroke="#282828" stroke-width="1.6" stroke-linecap="square"/>
<path d="M40.3366 13.8182V24H38.9247L33.7493 16.5327H33.6548V24H32.1186V13.8182H33.5405L38.7209 21.2955H38.8153V13.8182H40.3366ZM45.7495 24.1541C44.9971 24.1541 44.3491 23.9934 43.8056 23.6719C43.2653 23.3471 42.8477 22.8913 42.5527 22.3047C42.2611 21.7147 42.1152 21.0237 42.1152 20.2315C42.1152 19.4493 42.2611 18.7599 42.5527 18.1634C42.8477 17.5668 43.2587 17.1011 43.7857 16.7663C44.316 16.4316 44.9358 16.2642 45.6451 16.2642C46.0759 16.2642 46.4935 16.3355 46.8979 16.478C47.3023 16.6205 47.6652 16.8442 47.9867 17.1491C48.3082 17.4541 48.5617 17.8501 48.7473 18.3374C48.9329 18.8213 49.0257 19.4096 49.0257 20.1023V20.6293H42.9554V19.5156H47.5691C47.5691 19.1245 47.4895 18.7782 47.3304 18.4766C47.1713 18.1716 46.9476 17.9313 46.6593 17.7557C46.3742 17.58 46.0395 17.4922 45.655 17.4922C45.2374 17.4922 44.8728 17.5949 44.5613 17.8004C44.253 18.0026 44.0144 18.2678 43.8453 18.5959C43.6796 18.9207 43.5968 19.2737 43.5968 19.6548V20.5249C43.5968 21.0353 43.6863 21.4695 43.8652 21.8274C44.0475 22.1854 44.3011 22.4588 44.6259 22.6477C44.9507 22.8333 45.3302 22.9261 45.7644 22.9261C46.0461 22.9261 46.303 22.8864 46.535 22.8068C46.767 22.724 46.9675 22.6013 47.1365 22.4389C47.3056 22.2765 47.4348 22.076 47.5243 21.8374L48.9313 22.0909C48.8186 22.5052 48.6164 22.8681 48.3248 23.1797C48.0364 23.4879 47.6735 23.7282 47.236 23.9006C46.8018 24.0696 46.3063 24.1541 45.7495 24.1541ZM52.3169 24L50.0698 16.3636H51.606L53.1025 21.9716H53.177L54.6784 16.3636H56.2147L57.7061 21.9467H57.7807L59.2672 16.3636H60.8034L58.5613 24H57.0449L55.4938 18.4865H55.3794L53.8283 24H52.3169Z" fill="#282828"/>
</svg>
