<?xml version="1.0" encoding="UTF-8" standalone="no"?>
<!DOCTYPE svg PUBLIC "-//W3C//DTD SVG 1.1//EN"
 "http://www.w3.org/Graphics/SVG/1.1/DTD/svg11.dtd">
<!-- Generated by graphviz version 2.43.0 (0)
 -->
<!-- Title: %3 Pages: 1 -->
<svg width="982pt" height="751pt"
 viewBox="0.00 0.00 982.00 751.00" xmlns="http://www.w3.org/2000/svg" xmlns:xlink="http://www.w3.org/1999/xlink">
<g id="graph0" class="graph" transform="scale(1 1) rotate(0) translate(4 747)">
<title>%3</title>
<polygon fill="white" stroke="transparent" points="-4,4 -4,-747 978,-747 978,4 -4,4"/>
<g id="clust1" class="cluster">
<title>cluster0</title>
<polygon fill="none" stroke="black" points="8,-8 8,-735 966,-735 966,-8 8,-8"/>
<text text-anchor="middle" x="114" y="-719.8" font-family="Times,serif" font-size="14.00">Schema: facilityCobot&#45;v022</text>
</g>
<g id="clust2" class="cluster">
<title>cluster1</title>
<polygon fill="none" stroke="black" points="16,-16 16,-704 958,-704 958,-16 16,-16"/>
<text text-anchor="middle" x="70.5" y="-688.8" font-family="Times,serif" font-size="14.00">Cluster: core</text>
</g>
<!-- Thing -->
<g id="node1" class="node">
<title>Thing</title>
<polygon fill="white" stroke="transparent" points="355,-640.5 355,-659.5 414,-659.5 414,-640.5 355,-640.5"/>
<text text-anchor="start" x="357" y="-646.3" font-family="Times,serif" font-size="14.00"> &#160;Thing </text>
<polygon fill="none" stroke="pink" stroke-width="2" points="352.5,-639 352.5,-662 415.5,-662 415.5,-639 352.5,-639"/>
</g>
<!-- CommonEntity -->
<g id="node3" class="node">
<title>CommonEntity</title>
<polygon fill="white" stroke="transparent" points="121,-569.5 121,-588.5 246,-588.5 246,-569.5 121,-569.5"/>
<text text-anchor="start" x="123" y="-575.3" font-family="Times,serif" font-size="14.00"> &#160;CommonEntity </text>
<text text-anchor="start" x="123" y="-555.3" font-family="Times,serif" font-size="14.00">name: </text>
<text text-anchor="start" x="255" y="-555.3" font-family="Times,serif" font-size="14.00">xsd:string</text>
<text text-anchor="start" x="123" y="-535.3" font-family="Times,serif" font-size="14.00">value: </text>
<text text-anchor="start" x="255" y="-535.3" font-family="Times,serif" font-size="14.00">xsd:string</text>
<text text-anchor="start" x="123" y="-515.3" font-family="Times,serif" font-size="14.00">number: </text>
<text text-anchor="start" x="249" y="-515.3" font-family="Times,serif" font-size="14.00">xsd:decimal</text>
<text text-anchor="start" x="123" y="-495.3" font-family="Times,serif" font-size="14.00">description: </text>
<text text-anchor="start" x="255" y="-495.3" font-family="Times,serif" font-size="14.00">xsd:string</text>
<text text-anchor="start" x="123" y="-475.3" font-family="Times,serif" font-size="14.00">notation: </text>
<text text-anchor="start" x="255" y="-475.3" font-family="Times,serif" font-size="14.00">xsd:string</text>
<polygon fill="none" stroke="pink" stroke-width="2" points="118.5,-468 118.5,-591 337.5,-591 337.5,-468 118.5,-468"/>
</g>
<!-- Thing&#45;&gt;CommonEntity -->
<g id="Thing&#45;CommonEntity" class="edge">
<title>Thing&#45;&gt;CommonEntity</title>
<path fill="none" stroke="pink" stroke-dasharray="5,2" d="M368.76,-637.87C356.1,-628.22 336.97,-613.63 316.86,-598.29"/>
<polygon fill="pink" stroke="pink" points="318.89,-595.43 308.81,-592.15 314.64,-600.99 318.89,-595.43"/>
</g>
<!-- IndexedEntity -->
<g id="node2" class="node">
<title>IndexedEntity</title>
<polygon fill="white" stroke="transparent" points="76,-650.5 76,-669.5 195,-669.5 195,-650.5 76,-650.5"/>
<text text-anchor="start" x="78" y="-656.3" font-family="Times,serif" font-size="14.00"> &#160;IndexedEntity </text>
<text text-anchor="start" x="78" y="-636.3" font-family="Times,serif" font-size="14.00">index: </text>
<text text-anchor="start" x="198" y="-636.3" font-family="Times,serif" font-size="14.00">xsd:unsignedLong</text>
<polygon fill="none" stroke="pink" stroke-width="2" points="74,-629 74,-672 332,-672 332,-629 74,-629"/>
</g>
<!-- IndexedEntity&#45;&gt;CommonEntity -->
<g id="IndexedEntity&#45;CommonEntity" class="edge">
<title>IndexedEntity&#45;&gt;CommonEntity</title>
<path fill="none" stroke="pink" stroke-dasharray="5,2" d="M207.53,-627.95C209.11,-620.39 211,-611.44 212.97,-602.06"/>
<polygon fill="pink" stroke="pink" points="216.41,-602.69 215.04,-592.18 209.56,-601.25 216.41,-602.69"/>
</g>
<!-- Label -->
<g id="node4" class="node">
<title>Label</title>
<polygon fill="white" stroke="transparent" points="106,-408.5 106,-427.5 171,-427.5 171,-408.5 106,-408.5"/>
<text text-anchor="start" x="112" y="-414.3" font-family="Times,serif" font-size="14.00"> &#160;Label </text>
<text text-anchor="start" x="108" y="-394.3" font-family="Times,serif" font-size="14.00">labelOf: </text>
<text text-anchor="start" x="174" y="-394.3" font-family="Times,serif" font-size="14.00">CommonEntity</text>
<polygon fill="none" stroke="pink" stroke-width="2" points="104,-387 104,-430 286,-430 286,-387 104,-387"/>
</g>
<!-- CommonEntity&#45;&gt;Label -->
<g id="CommonEntity&#45;Label" class="edge">
<title>CommonEntity&#45;&gt;Label</title>
<path fill="none" stroke="pink" stroke-dasharray="5,2" d="M210.92,-466.91C208.42,-457.9 205.94,-448.95 203.71,-440.89"/>
<polygon fill="pink" stroke="pink" points="207.07,-439.93 201.03,-431.23 200.33,-441.8 207.07,-439.93"/>
</g>
<!-- AbstractEntity -->
<g id="node5" class="node">
<title>AbstractEntity</title>
<polygon fill="white" stroke="transparent" points="309,-398.5 309,-417.5 432,-417.5 432,-398.5 309,-398.5"/>
<text text-anchor="start" x="311" y="-404.3" font-family="Times,serif" font-size="14.00"> &#160;AbstractEntity </text>
<polygon fill="none" stroke="aquamarine" stroke-width="2" points="306.5,-397 306.5,-420 433.5,-420 433.5,-397 306.5,-397"/>
</g>
<!-- CommonEntity&#45;&gt;AbstractEntity -->
<g id="CommonEntity&#45;AbstractEntity" class="edge">
<title>CommonEntity&#45;&gt;AbstractEntity</title>
<path fill="none" stroke="pink" stroke-dasharray="5,2" d="M301.5,-466.91C318.7,-452.49 335.72,-438.23 348.49,-427.53"/>
<polygon fill="pink" stroke="pink" points="350.8,-430.15 356.22,-421.05 346.31,-424.79 350.8,-430.15"/>
</g>
<!-- Label&#45;&gt;CommonEntity -->
<g id="Label&#45;labelOf&#45;CommonEntity" class="edge">
<title>Label:labelOf&#45;&gt;CommonEntity</title>
<path fill="none" stroke="pink" d="M228,-387.5C228,-361.27 268.61,-369.8 287,-388.5 300.24,-401.97 292.08,-412.81 287,-431 284.47,-440.05 280.85,-449.1 276.63,-457.84"/>
<polygon fill="pink" stroke="pink" points="273.48,-456.32 272.04,-466.82 279.71,-459.51 273.48,-456.32"/>
</g>
<!-- PhysicalEntity -->
<g id="node6" class="node">
<title>PhysicalEntity</title>
<polygon fill="white" stroke="transparent" points="182,-85.5 182,-104.5 304,-104.5 304,-85.5 182,-85.5"/>
<text text-anchor="start" x="184" y="-91.3" font-family="Times,serif" font-size="14.00"> &#160;PhysicalEntity </text>
<polygon fill="none" stroke="#1e8449" stroke-width="2" points="180,-84 180,-107 306,-107 306,-84 180,-84"/>
</g>
<!-- AbstractEntity&#45;&gt;PhysicalEntity -->
<g id="AbstractEntity&#45;PhysicalEntity" class="edge">
<title>AbstractEntity&#45;&gt;PhysicalEntity</title>
<path fill="none" stroke="aquamarine" stroke-dasharray="5,2" d="M320.37,-395.96C295.78,-387.52 268.18,-373.34 253,-350 228.39,-312.17 236.77,-172.47 241.1,-118.23"/>
<polygon fill="aquamarine" stroke="aquamarine" points="244.6,-118.27 241.94,-108.02 237.63,-117.7 244.6,-118.27"/>
</g>
<!-- Set -->
<g id="node7" class="node">
<title>Set</title>
<polygon fill="white" stroke="transparent" points="27,-307.5 27,-326.5 100,-326.5 100,-307.5 27,-307.5"/>
<text text-anchor="start" x="44.5" y="-313.3" font-family="Times,serif" font-size="14.00"> &#160;Set </text>
<text text-anchor="start" x="29" y="-293.3" font-family="Times,serif" font-size="14.00">includes: </text>
<text text-anchor="start" x="103" y="-293.3" font-family="Times,serif" font-size="14.00">[AbstractEntity]</text>
<polygon fill="none" stroke="aquamarine" stroke-width="2" points="25,-286 25,-329 223,-329 223,-286 25,-286"/>
</g>
<!-- AbstractEntity&#45;&gt;Set -->
<g id="AbstractEntity&#45;Set" class="edge">
<title>AbstractEntity&#45;&gt;Set</title>
<path fill="none" stroke="aquamarine" stroke-dasharray="5,2" d="M341.3,-395.95C303.67,-380.81 236.63,-353.83 186.93,-333.82"/>
<polygon fill="aquamarine" stroke="aquamarine" points="188.13,-330.53 177.54,-330.05 185.51,-337.03 188.13,-330.53"/>
</g>
<!-- SampledEntity -->
<g id="node9" class="node">
<title>SampledEntity</title>
<polygon fill="white" stroke="transparent" points="265,-317.5 265,-336.5 390,-336.5 390,-317.5 265,-317.5"/>
<text text-anchor="start" x="267" y="-323.3" font-family="Times,serif" font-size="14.00"> &#160;SampledEntity </text>
<text text-anchor="start" x="267" y="-303.3" font-family="Times,serif" font-size="14.00">timeStamp: </text>
<text text-anchor="start" x="421.5" y="-303.3" font-family="Times,serif" font-size="14.00">xsd:string</text>
<text text-anchor="start" x="267" y="-283.3" font-family="Times,serif" font-size="14.00">sampleIndex: </text>
<text text-anchor="start" x="393" y="-283.3" font-family="Times,serif" font-size="14.00">xsd:unsignedLong</text>
<polygon fill="none" stroke="cornflowerblue" stroke-width="2" points="263,-276 263,-339 527,-339 527,-276 263,-276"/>
</g>
<!-- AbstractEntity&#45;&gt;SampledEntity -->
<g id="AbstractEntity&#45;SampledEntity" class="edge">
<title>AbstractEntity&#45;&gt;SampledEntity</title>
<path fill="none" stroke="aquamarine" stroke-dasharray="5,2" d="M372.97,-395.75C375.82,-384.47 380.29,-366.75 384.47,-350.21"/>
<polygon fill="aquamarine" stroke="aquamarine" points="387.96,-350.69 387.01,-340.14 381.17,-348.98 387.96,-350.69"/>
</g>
<!-- TemporalEntity -->
<g id="node10" class="node">
<title>TemporalEntity</title>
<polygon fill="white" stroke="transparent" points="549,-327.5 549,-346.5 678,-346.5 678,-327.5 549,-327.5"/>
<text text-anchor="start" x="551" y="-333.3" font-family="Times,serif" font-size="14.00"> &#160;TemporalEntity </text>
<text text-anchor="start" x="551" y="-313.3" font-family="Times,serif" font-size="14.00">first: </text>
<text text-anchor="start" x="685.5" y="-313.3" font-family="Times,serif" font-size="14.00">xsd:string</text>
<text text-anchor="start" x="551" y="-293.3" font-family="Times,serif" font-size="14.00">last: </text>
<text text-anchor="start" x="685.5" y="-293.3" font-family="Times,serif" font-size="14.00">xsd:string</text>
<text text-anchor="start" x="551" y="-273.3" font-family="Times,serif" font-size="14.00">count: </text>
<text text-anchor="start" x="681" y="-273.3" font-family="Times,serif" font-size="14.00">xsd:integer</text>
<polygon fill="none" stroke="cornflowerblue" stroke-width="2" points="547,-266 547,-349 767,-349 767,-266 547,-266"/>
</g>
<!-- AbstractEntity&#45;&gt;TemporalEntity -->
<g id="AbstractEntity&#45;TemporalEntity" class="edge">
<title>AbstractEntity&#45;&gt;TemporalEntity</title>
<path fill="none" stroke="aquamarine" stroke-dasharray="5,2" d="M403.59,-395.95C435.34,-385.03 484.57,-368.09 536.19,-350.28"/>
<polygon fill="aquamarine" stroke="aquamarine" points="537.55,-353.51 545.86,-346.94 535.26,-346.9 537.55,-353.51"/>
</g>
<!-- CyberPhysicalActor -->
<g id="node11" class="node">
<title>CyberPhysicalActor</title>
<polygon fill="white" stroke="transparent" points="789,-297.5 789,-316.5 947,-316.5 947,-297.5 789,-297.5"/>
<text text-anchor="start" x="791" y="-303.3" font-family="Times,serif" font-size="14.00"> &#160;CyberPhysicalActor </text>
<polygon fill="none" stroke="purple" stroke-width="2" points="787,-296 787,-319 949,-319 949,-296 787,-296"/>
</g>
<!-- AbstractEntity&#45;&gt;CyberPhysicalActor -->
<g id="AbstractEntity&#45;CyberPhysicalActor" class="edge">
<title>AbstractEntity&#45;&gt;CyberPhysicalActor</title>
<path fill="none" stroke="aquamarine" stroke-dasharray="5,2" d="M434.65,-404.1C515.95,-398.53 659.18,-384.4 777,-350 798.24,-343.8 820.87,-333.49 838.26,-324.7"/>
<polygon fill="aquamarine" stroke="aquamarine" points="840.06,-327.71 847.33,-320.01 836.84,-321.49 840.06,-327.71"/>
</g>
<!-- EntitySet -->
<g id="node8" class="node">
<title>EntitySet</title>
<polygon fill="white" stroke="transparent" points="149,-25.5 149,-44.5 235,-44.5 235,-25.5 149,-25.5"/>
<text text-anchor="start" x="151" y="-31.3" font-family="Times,serif" font-size="14.00"> &#160;EntitySet </text>
<polygon fill="none" stroke="black" points="147,-24 147,-47 237,-47 237,-24 147,-24"/>
</g>
<!-- PhysicalEntity&#45;&gt;EntitySet -->
<g id="PhysicalEntity&#45;EntitySet" class="edge">
<title>PhysicalEntity&#45;&gt;EntitySet</title>
<path fill="none" stroke="#1e8449" stroke-dasharray="5,2" d="M232.68,-82.76C225.57,-74.67 215.97,-63.76 207.89,-54.57"/>
<polygon fill="#1e8449" stroke="#1e8449" points="210.51,-52.25 201.28,-47.05 205.25,-56.87 210.51,-52.25"/>
</g>
<!-- Set&#45;&gt;AbstractEntity -->
<g id="Set&#45;includes&#45;AbstractEntity" class="edge">
<title>Set:includes&#45;&gt;AbstractEntity</title>
<path fill="none" stroke="aquamarine" d="M222,-296.5C246.82,-296.5 221.54,-331.43 238,-350 250.19,-363.75 291.9,-380.66 325.21,-392.58"/>
<polygon fill="aquamarine" stroke="aquamarine" points="324.2,-395.93 334.79,-395.95 326.52,-389.33 324.2,-395.93"/>
</g>
<!-- Set&#45;&gt;EntitySet -->
<g id="Set&#45;EntitySet" class="edge">
<title>Set&#45;&gt;EntitySet</title>
<path fill="none" stroke="aquamarine" stroke-dasharray="5,2" d="M126.71,-284.79C132.15,-244.32 145.96,-154.95 170,-83 173.02,-73.97 177.34,-64.39 181.35,-56.29"/>
<polygon fill="aquamarine" stroke="aquamarine" points="184.53,-57.77 185.99,-47.28 178.3,-54.57 184.53,-57.77"/>
</g>
<!-- SampledData -->
<g id="node12" class="node">
<title>SampledData</title>
<polygon fill="white" stroke="transparent" points="266,-206.5 266,-225.5 390,-225.5 390,-206.5 266,-206.5"/>
<text text-anchor="start" x="273" y="-212.3" font-family="Times,serif" font-size="14.00"> &#160;SampledData </text>
<text text-anchor="start" x="268" y="-192.3" font-family="Times,serif" font-size="14.00">sampledDataOf: </text>
<text text-anchor="start" x="393" y="-192.3" font-family="Times,serif" font-size="14.00">PhysicalEntity</text>
<text text-anchor="start" x="268" y="-172.3" font-family="Times,serif" font-size="14.00">unit: </text>
<text text-anchor="start" x="408.5" y="-172.3" font-family="Times,serif" font-size="14.00">xsd:string</text>
<text text-anchor="start" x="268" y="-152.3" font-family="Times,serif" font-size="14.00">dataValue: </text>
<text text-anchor="start" x="402.5" y="-152.3" font-family="Times,serif" font-size="14.00">xsd:decimal</text>
<polygon fill="none" stroke="cornflowerblue" stroke-width="2" points="263.5,-145 263.5,-228 500.5,-228 500.5,-145 263.5,-145"/>
</g>
<!-- SampledEntity&#45;&gt;SampledData -->
<g id="SampledEntity&#45;SampledData" class="edge">
<title>SampledEntity&#45;&gt;SampledData</title>
<path fill="none" stroke="cornflowerblue" stroke-dasharray="5,2" d="M391.55,-274.92C390.35,-263.95 388.97,-251.34 387.64,-239.17"/>
<polygon fill="cornflowerblue" stroke="cornflowerblue" points="391.11,-238.66 386.54,-229.1 384.15,-239.42 391.11,-238.66"/>
</g>
<!-- VisionData -->
<g id="node13" class="node">
<title>VisionData</title>
<polygon fill="white" stroke="transparent" points="523,-176.5 523,-195.5 618,-195.5 618,-176.5 523,-176.5"/>
<text text-anchor="start" x="525" y="-182.3" font-family="Times,serif" font-size="14.00"> &#160;VisionData </text>
<polygon fill="none" stroke="lightblue" stroke-width="2" points="520.5,-175 520.5,-198 619.5,-198 619.5,-175 520.5,-175"/>
</g>
<!-- SampledEntity&#45;&gt;VisionData -->
<g id="SampledEntity&#45;VisionData" class="edge">
<title>SampledEntity&#45;&gt;VisionData</title>
<path fill="none" stroke="cornflowerblue" stroke-dasharray="5,2" d="M442.86,-274.89C463.85,-260.94 488.73,-244.27 511,-229 522.38,-221.2 534.89,-212.43 545.45,-204.97"/>
<polygon fill="cornflowerblue" stroke="cornflowerblue" points="547.66,-207.69 553.8,-199.06 543.61,-201.98 547.66,-207.69"/>
</g>
<!-- ActionEntity -->
<g id="node14" class="node">
<title>ActionEntity</title>
<polygon fill="white" stroke="transparent" points="642,-176.5 642,-195.5 749,-195.5 749,-176.5 642,-176.5"/>
<text text-anchor="start" x="644" y="-182.3" font-family="Times,serif" font-size="14.00"> &#160;ActionEntity </text>
<polygon fill="none" stroke="red" stroke-width="2" points="639.5,-175 639.5,-198 750.5,-198 750.5,-175 639.5,-175"/>
</g>
<!-- TemporalEntity&#45;&gt;ActionEntity -->
<g id="TemporalEntity&#45;ActionEntity" class="edge">
<title>TemporalEntity&#45;&gt;ActionEntity</title>
<path fill="none" stroke="cornflowerblue" stroke-dasharray="5,2" d="M670.29,-264.88C676.34,-245.93 683.25,-224.31 688.21,-208.75"/>
<polygon fill="cornflowerblue" stroke="cornflowerblue" points="691.6,-209.64 691.31,-199.05 684.93,-207.51 691.6,-209.64"/>
</g>
<!-- Person -->
<g id="node15" class="node">
<title>Person</title>
<polygon fill="white" stroke="transparent" points="835,-176.5 835,-195.5 902,-195.5 902,-176.5 835,-176.5"/>
<text text-anchor="start" x="837" y="-182.3" font-family="Times,serif" font-size="14.00"> &#160;Person </text>
<polygon fill="none" stroke="black" points="832.5,-175 832.5,-198 903.5,-198 903.5,-175 832.5,-175"/>
</g>
<!-- CyberPhysicalActor&#45;&gt;Person -->
<g id="CyberPhysicalActor&#45;Person" class="edge">
<title>CyberPhysicalActor&#45;&gt;Person</title>
<path fill="none" stroke="purple" stroke-dasharray="5,2" d="M868,-294.65C868,-274.57 868,-233.57 868,-208.52"/>
<polygon fill="purple" stroke="purple" points="871.5,-208.26 868,-198.26 864.5,-208.26 871.5,-208.26"/>
</g>
<!-- SampledData&#45;&gt;PhysicalEntity -->
<g id="SampledData&#45;sampledDataOf&#45;PhysicalEntity" class="edge">
<title>SampledData:sampledDataOf&#45;&gt;PhysicalEntity</title>
<path fill="none" stroke="cornflowerblue" d="M500,-196.5C511.67,-196.5 506.55,-152.9 499,-144 475.99,-116.86 384.48,-105.14 317.41,-100.13"/>
<polygon fill="cornflowerblue" stroke="cornflowerblue" points="317.51,-96.63 307.29,-99.41 317.02,-103.61 317.51,-96.63"/>
</g>
</g>
</svg>
