<svg class="rich-terminal" viewBox="0 0 1226 464.79999999999995" xmlns="http://www.w3.org/2000/svg">
    <!-- Generated with Rich https://www.textualize.io -->
    <style>

    @font-face {
        font-family: "Fira Code";
        src: local("FiraCode-Regular"),
                url("https://cdnjs.cloudflare.com/ajax/libs/firacode/6.2.0/woff2/FiraCode-Regular.woff2") format("woff2"),
                url("https://cdnjs.cloudflare.com/ajax/libs/firacode/6.2.0/woff/FiraCode-Regular.woff") format("woff");
        font-style: normal;
        font-weight: 400;
    }
    @font-face {
        font-family: "Fira Code";
        src: local("FiraCode-Bold"),
                url("https://cdnjs.cloudflare.com/ajax/libs/firacode/6.2.0/woff2/FiraCode-Bold.woff2") format("woff2"),
                url("https://cdnjs.cloudflare.com/ajax/libs/firacode/6.2.0/woff/FiraCode-Bold.woff") format("woff");
        font-style: bold;
        font-weight: 700;
    }

    .terminal-3466990384-matrix {
        font-family: Fira Code, monospace;
        font-size: 20px;
        line-height: 24.4px;
        font-variant-east-asian: full-width;
    }

    .terminal-3466990384-title {
        font-size: 18px;
        font-weight: bold;
        font-family: arial;
    }

    .terminal-3466990384-r1 { fill: #c5c8c6 }
.terminal-3466990384-r2 { fill: #e0e0e0;text-decoration: underline; }
.terminal-3466990384-r3 { fill: #ffa62b;font-weight: bold }
.terminal-3466990384-r4 { fill: #e0e0e0 }
.terminal-3466990384-r5 { fill: #0178d4 }
.terminal-3466990384-r6 { fill: #0178d4;font-weight: bold }
.terminal-3466990384-r7 { fill: #e0e0e0;font-weight: bold }
.terminal-3466990384-r8 { fill: #9d65ff;font-weight: bold }
.terminal-3466990384-r9 { fill: #98e024 }
.terminal-3466990384-r10 { fill: #ddedf9 }
.terminal-3466990384-r11 { fill: #888888 }
    </style>

    <defs>
    <clipPath id="terminal-3466990384-clip-terminal">
      <rect x="0" y="0" width="1206.8" height="413.79999999999995" />
    </clipPath>
    <clipPath id="terminal-3466990384-line-0">
    <rect x="0" y="1.5" width="1207.8" height="24.65"/>
            </clipPath>
<clipPath id="terminal-3466990384-line-1">
    <rect x="0" y="25.9" width="1207.8" height="24.65"/>
            </clipPath>
<clipPath id="terminal-3466990384-line-2">
    <rect x="0" y="50.3" width="1207.8" height="24.65"/>
            </clipPath>
<clipPath id="terminal-3466990384-line-3">
    <rect x="0" y="74.7" width="1207.8" height="24.65"/>
            </clipPath>
<clipPath id="terminal-3466990384-line-4">
    <rect x="0" y="99.1" width="1207.8" height="24.65"/>
            </clipPath>
<clipPath id="terminal-3466990384-line-5">
    <rect x="0" y="123.5" width="1207.8" height="24.65"/>
            </clipPath>
<clipPath id="terminal-3466990384-line-6">
    <rect x="0" y="147.9" width="1207.8" height="24.65"/>
            </clipPath>
<clipPath id="terminal-3466990384-line-7">
    <rect x="0" y="172.3" width="1207.8" height="24.65"/>
            </clipPath>
<clipPath id="terminal-3466990384-line-8">
    <rect x="0" y="196.7" width="1207.8" height="24.65"/>
            </clipPath>
<clipPath id="terminal-3466990384-line-9">
    <rect x="0" y="221.1" width="1207.8" height="24.65"/>
            </clipPath>
<clipPath id="terminal-3466990384-line-10">
    <rect x="0" y="245.5" width="1207.8" height="24.65"/>
            </clipPath>
<clipPath id="terminal-3466990384-line-11">
    <rect x="0" y="269.9" width="1207.8" height="24.65"/>
            </clipPath>
<clipPath id="terminal-3466990384-line-12">
    <rect x="0" y="294.3" width="1207.8" height="24.65"/>
            </clipPath>
<clipPath id="terminal-3466990384-line-13">
    <rect x="0" y="318.7" width="1207.8" height="24.65"/>
            </clipPath>
<clipPath id="terminal-3466990384-line-14">
    <rect x="0" y="343.1" width="1207.8" height="24.65"/>
            </clipPath>
<clipPath id="terminal-3466990384-line-15">
    <rect x="0" y="367.5" width="1207.8" height="24.65"/>
            </clipPath>
    </defs>

    <rect fill="#292929" stroke="rgba(255,255,255,0.35)" stroke-width="1" x="1" y="1" width="1224" height="462.8" rx="8"/>
            <g transform="translate(26,22)">
            <circle cx="0" cy="0" r="7" fill="#ff5f57"/>
            <circle cx="22" cy="0" r="7" fill="#febc2e"/>
            <circle cx="44" cy="0" r="7" fill="#28c840"/>
            </g>

    <g transform="translate(9, 41)" clip-path="url(#terminal-3466990384-clip-terminal)">
    <rect fill="#121212" x="0" y="1.5" width="12.2" height="24.65" shape-rendering="crispEdges"/><rect fill="#121212" x="12.2" y="1.5" width="122" height="24.65" shape-rendering="crispEdges"/><rect fill="#121212" x="134.2" y="1.5" width="268.4" height="24.65" shape-rendering="crispEdges"/><rect fill="#121212" x="402.6" y="1.5" width="85.4" height="24.65" shape-rendering="crispEdges"/><rect fill="#121212" x="488" y="1.5" width="305" height="24.65" shape-rendering="crispEdges"/><rect fill="#121212" x="793" y="1.5" width="85.4" height="24.65" shape-rendering="crispEdges"/><rect fill="#121212" x="878.4" y="1.5" width="317.2" height="24.65" shape-rendering="crispEdges"/><rect fill="#121212" x="1195.6" y="1.5" width="12.2" height="24.65" shape-rendering="crispEdges"/><rect fill="#121212" x="0" y="25.9" width="12.2" height="24.65" shape-rendering="crispEdges"/><rect fill="#121212" x="12.2" y="25.9" width="12.2" height="24.65" shape-rendering="crispEdges"/><rect fill="#121212" x="24.4" y="25.9" width="12.2" height="24.65" shape-rendering="crispEdges"/><rect fill="#121212" x="36.6" y="25.9" width="24.4" height="24.65" shape-rendering="crispEdges"/><rect fill="#121212" x="61" y="25.9" width="48.8" height="24.65" shape-rendering="crispEdges"/><rect fill="#121212" x="109.8" y="25.9" width="292.8" height="24.65" shape-rendering="crispEdges"/><rect fill="#121212" x="402.6" y="25.9" width="12.2" height="24.65" shape-rendering="crispEdges"/><rect fill="#121212" x="414.8" y="25.9" width="12.2" height="24.65" shape-rendering="crispEdges"/><rect fill="#121212" x="427" y="25.9" width="146.4" height="24.65" shape-rendering="crispEdges"/><rect fill="#121212" x="573.4" y="25.9" width="219.6" height="24.65" shape-rendering="crispEdges"/><rect fill="#121212" x="793" y="25.9" width="12.2" height="24.65" shape-rendering="crispEdges"/><rect fill="#121212" x="805.2" y="25.9" width="12.2" height="24.65" shape-rendering="crispEdges"/><rect fill="#121212" x="817.4" y="25.9" width="24.4" height="24.65" shape-rendering="crispEdges"/><rect fill="#121212" x="841.8" y="25.9" width="48.8" height="24.65" shape-rendering="crispEdges"/><rect fill="#121212" x="890.6" y="25.9" width="305" height="24.65" shape-rendering="crispEdges"/><rect fill="#121212" x="1195.6" y="25.9" width="12.2" height="24.65" shape-rendering="crispEdges"/><rect fill="#121212" x="0" y="50.3" width="12.2" height="24.65" shape-rendering="crispEdges"/><rect fill="#121212" x="12.2" y="50.3" width="36.6" height="24.65" shape-rendering="crispEdges"/><rect fill="#121212" x="48.8" y="50.3" width="12.2" height="24.65" shape-rendering="crispEdges"/><rect fill="#121212" x="61" y="50.3" width="48.8" height="24.65" shape-rendering="crispEdges"/><rect fill="#121212" x="109.8" y="50.3" width="292.8" height="24.65" shape-rendering="crispEdges"/><rect fill="#121212" x="402.6" y="50.3" width="12.2" height="24.65" shape-rendering="crispEdges"/><rect fill="#121212" x="414.8" y="50.3" width="12.2" height="24.65" shape-rendering="crispEdges"/><rect fill="#121212" x="427" y="50.3" width="109.8" height="24.65" shape-rendering="crispEdges"/><rect fill="#121212" x="536.8" y="50.3" width="256.2" height="24.65" shape-rendering="crispEdges"/><rect fill="#121212" x="793" y="50.3" width="12.2" height="24.65" shape-rendering="crispEdges"/><rect fill="#121212" x="805.2" y="50.3" width="12.2" height="24.65" shape-rendering="crispEdges"/><rect fill="#121212" x="817.4" y="50.3" width="24.4" height="24.65" shape-rendering="crispEdges"/><rect fill="#121212" x="841.8" y="50.3" width="85.4" height="24.65" shape-rendering="crispEdges"/><rect fill="#121212" x="927.2" y="50.3" width="268.4" height="24.65" shape-rendering="crispEdges"/><rect fill="#121212" x="1195.6" y="50.3" width="12.2" height="24.65" shape-rendering="crispEdges"/><rect fill="#121212" x="0" y="74.7" width="12.2" height="24.65" shape-rendering="crispEdges"/><rect fill="#121212" x="12.2" y="74.7" width="12.2" height="24.65" shape-rendering="crispEdges"/><rect fill="#121212" x="24.4" y="74.7" width="12.2" height="24.65" shape-rendering="crispEdges"/><rect fill="#121212" x="36.6" y="74.7" width="24.4" height="24.65" shape-rendering="crispEdges"/><rect fill="#121212" x="61" y="74.7" width="73.2" height="24.65" shape-rendering="crispEdges"/><rect fill="#121212" x="134.2" y="74.7" width="268.4" height="24.65" shape-rendering="crispEdges"/><rect fill="#121212" x="402.6" y="74.7" width="12.2" height="24.65" shape-rendering="crispEdges"/><rect fill="#121212" x="414.8" y="74.7" width="12.2" height="24.65" shape-rendering="crispEdges"/><rect fill="#121212" x="427" y="74.7" width="48.8" height="24.65" shape-rendering="crispEdges"/><rect fill="#121212" x="475.8" y="74.7" width="317.2" height="24.65" shape-rendering="crispEdges"/><rect fill="#121212" x="793" y="74.7" width="36.6" height="24.65" shape-rendering="crispEdges"/><rect fill="#121212" x="829.6" y="74.7" width="12.2" height="24.65" shape-rendering="crispEdges"/><rect fill="#121212" x="841.8" y="74.7" width="73.2" height="24.65" shape-rendering="crispEdges"/><rect fill="#121212" x="915" y="74.7" width="280.6" height="24.65" shape-rendering="crispEdges"/><rect fill="#121212" x="1195.6" y="74.7" width="12.2" height="24.65" shape-rendering="crispEdges"/><rect fill="#121212" x="0" y="99.1" width="12.2" height="24.65" shape-rendering="crispEdges"/><rect fill="#121212" x="12.2" y="99.1" width="12.2" height="24.65" shape-rendering="crispEdges"/><rect fill="#121212" x="24.4" y="99.1" width="146.4" height="24.65" shape-rendering="crispEdges"/><rect fill="#121212" x="170.8" y="99.1" width="1024.8" height="24.65" shape-rendering="crispEdges"/><rect fill="#121212" x="1195.6" y="99.1" width="12.2" height="24.65" shape-rendering="crispEdges"/><rect fill="#121212" x="0" y="123.5" width="12.2" height="24.65" shape-rendering="crispEdges"/><rect fill="#121212" x="12.2" y="123.5" width="36.6" height="24.65" shape-rendering="crispEdges"/><rect fill="#121212" x="48.8" y="123.5" width="231.8" height="24.65" shape-rendering="crispEdges"/><rect fill="#121212" x="280.6" y="123.5" width="170.8" height="24.65" shape-rendering="crispEdges"/><rect fill="#121212" x="451.4" y="123.5" width="170.8" height="24.65" shape-rendering="crispEdges"/><rect fill="#121212" x="622.2" y="123.5" width="85.4" height="24.65" shape-rendering="crispEdges"/><rect fill="#121212" x="707.6" y="123.5" width="122" height="24.65" shape-rendering="crispEdges"/><rect fill="#121212" x="829.6" y="123.5" width="353.8" height="24.65" shape-rendering="crispEdges"/><rect fill="#121212" x="1183.4" y="123.5" width="12.2" height="24.65" shape-rendering="crispEdges"/><rect fill="#121212" x="1195.6" y="123.5" width="12.2" height="24.65" shape-rendering="crispEdges"/><rect fill="#121212" x="0" y="147.9" width="12.2" height="24.65" shape-rendering="crispEdges"/><rect fill="#121212" x="12.2" y="147.9" width="12.2" height="24.65" shape-rendering="crispEdges"/><rect fill="#121212" x="24.4" y="147.9" width="12.2" height="24.65" shape-rendering="crispEdges"/><rect fill="#121212" x="36.6" y="147.9" width="12.2" height="24.65" shape-rendering="crispEdges"/><rect fill="#121212" x="48.8" y="147.9" width="231.8" height="24.65" shape-rendering="crispEdges"/><rect fill="#121212" x="280.6" y="147.9" width="170.8" height="24.65" shape-rendering="crispEdges"/><rect fill="#121212" x="451.4" y="147.9" width="170.8" height="24.65" shape-rendering="crispEdges"/><rect fill="#121212" x="622.2" y="147.9" width="85.4" height="24.65" shape-rendering="crispEdges"/><rect fill="#121212" x="707.6" y="147.9" width="122" height="24.65" shape-rendering="crispEdges"/><rect fill="#121212" x="829.6" y="147.9" width="353.8" height="24.65" shape-rendering="crispEdges"/><rect fill="#121212" x="1183.4" y="147.9" width="12.2" height="24.65" shape-rendering="crispEdges"/><rect fill="#121212" x="1195.6" y="147.9" width="12.2" height="24.65" shape-rendering="crispEdges"/><rect fill="#121212" x="0" y="172.3" width="12.2" height="24.65" shape-rendering="crispEdges"/><rect fill="#121212" x="12.2" y="172.3" width="12.2" height="24.65" shape-rendering="crispEdges"/><rect fill="#121212" x="24.4" y="172.3" width="12.2" height="24.65" shape-rendering="crispEdges"/><rect fill="#121212" x="36.6" y="172.3" width="12.2" height="24.65" shape-rendering="crispEdges"/><rect fill="#121212" x="48.8" y="172.3" width="231.8" height="24.65" shape-rendering="crispEdges"/><rect fill="#121212" x="280.6" y="172.3" width="170.8" height="24.65" shape-rendering="crispEdges"/><rect fill="#121212" x="451.4" y="172.3" width="170.8" height="24.65" shape-rendering="crispEdges"/><rect fill="#121212" x="622.2" y="172.3" width="85.4" height="24.65" shape-rendering="crispEdges"/><rect fill="#121212" x="707.6" y="172.3" width="122" height="24.65" shape-rendering="crispEdges"/><rect fill="#121212" x="829.6" y="172.3" width="353.8" height="24.65" shape-rendering="crispEdges"/><rect fill="#121212" x="1183.4" y="172.3" width="12.2" height="24.65" shape-rendering="crispEdges"/><rect fill="#121212" x="1195.6" y="172.3" width="12.2" height="24.65" shape-rendering="crispEdges"/><rect fill="#121212" x="0" y="196.7" width="12.2" height="24.65" shape-rendering="crispEdges"/><rect fill="#121212" x="12.2" y="196.7" width="12.2" height="24.65" shape-rendering="crispEdges"/><rect fill="#121212" x="24.4" y="196.7" width="12.2" height="24.65" shape-rendering="crispEdges"/><rect fill="#121212" x="36.6" y="196.7" width="12.2" height="24.65" shape-rendering="crispEdges"/><rect fill="#121212" x="48.8" y="196.7" width="231.8" height="24.65" shape-rendering="crispEdges"/><rect fill="#121212" x="280.6" y="196.7" width="170.8" height="24.65" shape-rendering="crispEdges"/><rect fill="#121212" x="451.4" y="196.7" width="170.8" height="24.65" shape-rendering="crispEdges"/><rect fill="#121212" x="622.2" y="196.7" width="85.4" height="24.65" shape-rendering="crispEdges"/><rect fill="#121212" x="707.6" y="196.7" width="122" height="24.65" shape-rendering="crispEdges"/><rect fill="#121212" x="829.6" y="196.7" width="353.8" height="24.65" shape-rendering="crispEdges"/><rect fill="#121212" x="1183.4" y="196.7" width="12.2" height="24.65" shape-rendering="crispEdges"/><rect fill="#121212" x="1195.6" y="196.7" width="12.2" height="24.65" shape-rendering="crispEdges"/><rect fill="#121212" x="0" y="221.1" width="12.2" height="24.65" shape-rendering="crispEdges"/><rect fill="#0178d4" x="12.2" y="221.1" width="36.6" height="24.65" shape-rendering="crispEdges"/><rect fill="#0178d4" x="48.8" y="221.1" width="231.8" height="24.65" shape-rendering="crispEdges"/><rect fill="#0178d4" x="280.6" y="221.1" width="170.8" height="24.65" shape-rendering="crispEdges"/><rect fill="#0178d4" x="451.4" y="221.1" width="170.8" height="24.65" shape-rendering="crispEdges"/><rect fill="#0178d4" x="622.2" y="221.1" width="85.4" height="24.65" shape-rendering="crispEdges"/><rect fill="#0178d4" x="707.6" y="221.1" width="122" height="24.65" shape-rendering="crispEdges"/><rect fill="#0178d4" x="829.6" y="221.1" width="353.8" height="24.65" shape-rendering="crispEdges"/><rect fill="#121212" x="1183.4" y="221.1" width="12.2" height="24.65" shape-rendering="crispEdges"/><rect fill="#121212" x="1195.6" y="221.1" width="12.2" height="24.65" shape-rendering="crispEdges"/><rect fill="#121212" x="0" y="245.5" width="12.2" height="24.65" shape-rendering="crispEdges"/><rect fill="#121212" x="12.2" y="245.5" width="12.2" height="24.65" shape-rendering="crispEdges"/><rect fill="#121212" x="24.4" y="245.5" width="12.2" height="24.65" shape-rendering="crispEdges"/><rect fill="#121212" x="36.6" y="245.5" width="12.2" height="24.65" shape-rendering="crispEdges"/><rect fill="#121212" x="48.8" y="245.5" width="231.8" height="24.65" shape-rendering="crispEdges"/><rect fill="#121212" x="280.6" y="245.5" width="170.8" height="24.65" shape-rendering="crispEdges"/><rect fill="#121212" x="451.4" y="245.5" width="170.8" height="24.65" shape-rendering="crispEdges"/><rect fill="#121212" x="622.2" y="245.5" width="85.4" height="24.65" shape-rendering="crispEdges"/><rect fill="#121212" x="707.6" y="245.5" width="122" height="24.65" shape-rendering="crispEdges"/><rect fill="#121212" x="829.6" y="245.5" width="353.8" height="24.65" shape-rendering="crispEdges"/><rect fill="#121212" x="1183.4" y="245.5" width="12.2" height="24.65" shape-rendering="crispEdges"/><rect fill="#121212" x="1195.6" y="245.5" width="12.2" height="24.65" shape-rendering="crispEdges"/><rect fill="#121212" x="0" y="269.9" width="12.2" height="24.65" shape-rendering="crispEdges"/><rect fill="#121212" x="12.2" y="269.9" width="12.2" height="24.65" shape-rendering="crispEdges"/><rect fill="#121212" x="24.4" y="269.9" width="12.2" height="24.65" shape-rendering="crispEdges"/><rect fill="#121212" x="36.6" y="269.9" width="12.2" height="24.65" shape-rendering="crispEdges"/><rect fill="#121212" x="48.8" y="269.9" width="12.2" height="24.65" shape-rendering="crispEdges"/><rect fill="#121212" x="61" y="269.9" width="134.2" height="24.65" shape-rendering="crispEdges"/><rect fill="#121212" x="195.2" y="269.9" width="85.4" height="24.65" shape-rendering="crispEdges"/><rect fill="#121212" x="280.6" y="269.9" width="12.2" height="24.65" shape-rendering="crispEdges"/><rect fill="#121212" x="292.8" y="269.9" width="146.4" height="24.65" shape-rendering="crispEdges"/><rect fill="#121212" x="439.2" y="269.9" width="12.2" height="24.65" shape-rendering="crispEdges"/><rect fill="#121212" x="451.4" y="269.9" width="12.2" height="24.65" shape-rendering="crispEdges"/><rect fill="#121212" x="463.6" y="269.9" width="73.2" height="24.65" shape-rendering="crispEdges"/><rect fill="#121212" x="536.8" y="269.9" width="85.4" height="24.65" shape-rendering="crispEdges"/><rect fill="#121212" x="622.2" y="269.9" width="85.4" height="24.65" shape-rendering="crispEdges"/><rect fill="#121212" x="707.6" y="269.9" width="122" height="24.65" shape-rendering="crispEdges"/><rect fill="#121212" x="829.6" y="269.9" width="12.2" height="24.65" shape-rendering="crispEdges"/><rect fill="#121212" x="841.8" y="269.9" width="329.4" height="24.65" shape-rendering="crispEdges"/><rect fill="#121212" x="1171.2" y="269.9" width="12.2" height="24.65" shape-rendering="crispEdges"/><rect fill="#121212" x="1183.4" y="269.9" width="12.2" height="24.65" shape-rendering="crispEdges"/><rect fill="#121212" x="1195.6" y="269.9" width="12.2" height="24.65" shape-rendering="crispEdges"/><rect fill="#121212" x="0" y="294.3" width="12.2" height="24.65" shape-rendering="crispEdges"/><rect fill="#121212" x="12.2" y="294.3" width="12.2" height="24.65" shape-rendering="crispEdges"/><rect fill="#121212" x="24.4" y="294.3" width="12.2" height="24.65" shape-rendering="crispEdges"/><rect fill="#121212" x="36.6" y="294.3" width="12.2" height="24.65" shape-rendering="crispEdges"/><rect fill="#121212" x="48.8" y="294.3" width="12.2" height="24.65" shape-rendering="crispEdges"/><rect fill="#121212" x="61" y="294.3" width="146.4" height="24.65" shape-rendering="crispEdges"/><rect fill="#121212" x="207.4" y="294.3" width="73.2" height="24.65" shape-rendering="crispEdges"/><rect fill="#121212" x="280.6" y="294.3" width="12.2" height="24.65" shape-rendering="crispEdges"/><rect fill="#121212" x="292.8" y="294.3" width="146.4" height="24.65" shape-rendering="crispEdges"/><rect fill="#121212" x="439.2" y="294.3" width="12.2" height="24.65" shape-rendering="crispEdges"/><rect fill="#121212" x="451.4" y="294.3" width="12.2" height="24.65" shape-rendering="crispEdges"/><rect fill="#121212" x="463.6" y="294.3" width="85.4" height="24.65" shape-rendering="crispEdges"/><rect fill="#121212" x="549" y="294.3" width="73.2" height="24.65" shape-rendering="crispEdges"/><rect fill="#121212" x="622.2" y="294.3" width="85.4" height="24.65" shape-rendering="crispEdges"/><rect fill="#121212" x="707.6" y="294.3" width="122" height="24.65" shape-rendering="crispEdges"/><rect fill="#121212" x="829.6" y="294.3" width="12.2" height="24.65" shape-rendering="crispEdges"/><rect fill="#121212" x="841.8" y="294.3" width="329.4" height="24.65" shape-rendering="crispEdges"/><rect fill="#121212" x="1171.2" y="294.3" width="12.2" height="24.65" shape-rendering="crispEdges"/><rect fill="#121212" x="1183.4" y="294.3" width="12.2" height="24.65" shape-rendering="crispEdges"/><rect fill="#121212" x="1195.6" y="294.3" width="12.2" height="24.65" shape-rendering="crispEdges"/><rect fill="#121212" x="0" y="318.7" width="12.2" height="24.65" shape-rendering="crispEdges"/><rect fill="#121212" x="12.2" y="318.7" width="12.2" height="24.65" shape-rendering="crispEdges"/><rect fill="#121212" x="24.4" y="318.7" width="12.2" height="24.65" shape-rendering="crispEdges"/><rect fill="#121212" x="36.6" y="318.7" width="12.2" height="24.65" shape-rendering="crispEdges"/><rect fill="#121212" x="48.8" y="318.7" width="231.8" height="24.65" shape-rendering="crispEdges"/><rect fill="#121212" x="280.6" y="318.7" width="170.8" height="24.65" shape-rendering="crispEdges"/><rect fill="#121212" x="451.4" y="318.7" width="170.8" height="24.65" shape-rendering="crispEdges"/><rect fill="#121212" x="622.2" y="318.7" width="85.4" height="24.65" shape-rendering="crispEdges"/><rect fill="#121212" x="707.6" y="318.7" width="122" height="24.65" shape-rendering="crispEdges"/><rect fill="#121212" x="829.6" y="318.7" width="353.8" height="24.65" shape-rendering="crispEdges"/><rect fill="#121212" x="1183.4" y="318.7" width="12.2" height="24.65" shape-rendering="crispEdges"/><rect fill="#121212" x="1195.6" y="318.7" width="12.2" height="24.65" shape-rendering="crispEdges"/><rect fill="#121212" x="0" y="343.1" width="12.2" height="24.65" shape-rendering="crispEdges"/><rect fill="#121212" x="12.2" y="343.1" width="12.2" height="24.65" shape-rendering="crispEdges"/><rect fill="#121212" x="24.4" y="343.1" width="12.2" height="24.65" shape-rendering="crispEdges"/><rect fill="#121212" x="36.6" y="343.1" width="12.2" height="24.65" shape-rendering="crispEdges"/><rect fill="#121212" x="48.8" y="343.1" width="231.8" height="24.65" shape-rendering="crispEdges"/><rect fill="#121212" x="280.6" y="343.1" width="170.8" height="24.65" shape-rendering="crispEdges"/><rect fill="#121212" x="451.4" y="343.1" width="170.8" height="24.65" shape-rendering="crispEdges"/><rect fill="#121212" x="622.2" y="343.1" width="85.4" height="24.65" shape-rendering="crispEdges"/><rect fill="#121212" x="707.6" y="343.1" width="122" height="24.65" shape-rendering="crispEdges"/><rect fill="#121212" x="829.6" y="343.1" width="353.8" height="24.65" shape-rendering="crispEdges"/><rect fill="#121212" x="1183.4" y="343.1" width="12.2" height="24.65" shape-rendering="crispEdges"/><rect fill="#121212" x="1195.6" y="343.1" width="12.2" height="24.65" shape-rendering="crispEdges"/><rect fill="#121212" x="0" y="367.5" width="12.2" height="24.65" shape-rendering="crispEdges"/><rect fill="#121212" x="12.2" y="367.5" width="12.2" height="24.65" shape-rendering="crispEdges"/><rect fill="#121212" x="24.4" y="367.5" width="12.2" height="24.65" shape-rendering="crispEdges"/><rect fill="#121212" x="36.6" y="367.5" width="12.2" height="24.65" shape-rendering="crispEdges"/><rect fill="#121212" x="48.8" y="367.5" width="231.8" height="24.65" shape-rendering="crispEdges"/><rect fill="#121212" x="280.6" y="367.5" width="170.8" height="24.65" shape-rendering="crispEdges"/><rect fill="#121212" x="451.4" y="367.5" width="170.8" height="24.65" shape-rendering="crispEdges"/><rect fill="#121212" x="622.2" y="367.5" width="85.4" height="24.65" shape-rendering="crispEdges"/><rect fill="#121212" x="707.6" y="367.5" width="122" height="24.65" shape-rendering="crispEdges"/><rect fill="#121212" x="829.6" y="367.5" width="353.8" height="24.65" shape-rendering="crispEdges"/><rect fill="#121212" x="1183.4" y="367.5" width="12.2" height="24.65" shape-rendering="crispEdges"/><rect fill="#121212" x="1195.6" y="367.5" width="12.2" height="24.65" shape-rendering="crispEdges"/><rect fill="#121212" x="0" y="391.9" width="12.2" height="24.65" shape-rendering="crispEdges"/><rect fill="#121212" x="12.2" y="391.9" width="1183.4" height="24.65" shape-rendering="crispEdges"/><rect fill="#121212" x="1195.6" y="391.9" width="12.2" height="24.65" shape-rendering="crispEdges"/>
    <g class="terminal-3466990384-matrix">
    <text class="terminal-3466990384-r2" x="12.2" y="20" textLength="122" clip-path="url(#terminal-3466990384-line-0)">Navigation</text><text class="terminal-3466990384-r2" x="402.6" y="20" textLength="85.4" clip-path="url(#terminal-3466990384-line-0)">Inspect</text><text class="terminal-3466990384-r2" x="793" y="20" textLength="85.4" clip-path="url(#terminal-3466990384-line-0)">Actions</text><text class="terminal-3466990384-r1" x="1207.8" y="20" textLength="12.2" clip-path="url(#terminal-3466990384-line-0)">
</text><text class="terminal-3466990384-r3" x="12.2" y="44.4" textLength="12.2" clip-path="url(#terminal-3466990384-line-1)">q</text><text class="terminal-3466990384-r4" x="61" y="44.4" textLength="48.8" clip-path="url(#terminal-3466990384-line-1)">Quit</text><text class="terminal-3466990384-r3" x="402.6" y="44.4" textLength="12.2" clip-path="url(#terminal-3466990384-line-1)">d</text><text class="terminal-3466990384-r4" x="427" y="44.4" textLength="146.4" clip-path="url(#terminal-3466990384-line-1)">Show&#160;Details</text><text class="terminal-3466990384-r3" x="793" y="44.4" textLength="12.2" clip-path="url(#terminal-3466990384-line-1)">k</text><text class="terminal-3466990384-r4" x="841.8" y="44.4" textLength="48.8" clip-path="url(#terminal-3466990384-line-1)">Stop</text><text class="terminal-3466990384-r1" x="1207.8" y="44.4" textLength="12.2" clip-path="url(#terminal-3466990384-line-1)">
</text><text class="terminal-3466990384-r3" x="12.2" y="68.8" textLength="36.6" clip-path="url(#terminal-3466990384-line-2)">esc</text><text class="terminal-3466990384-r4" x="61" y="68.8" textLength="48.8" clip-path="url(#terminal-3466990384-line-2)">Back</text><text class="terminal-3466990384-r3" x="402.6" y="68.8" textLength="12.2" clip-path="url(#terminal-3466990384-line-2)">l</text><text class="terminal-3466990384-r4" x="427" y="68.8" textLength="109.8" clip-path="url(#terminal-3466990384-line-2)">Show&#160;logs</text><text class="terminal-3466990384-r3" x="793" y="68.8" textLength="12.2" clip-path="url(#terminal-3466990384-line-2)">r</text><text class="terminal-3466990384-r4" x="841.8" y="68.8" textLength="85.4" clip-path="url(#terminal-3466990384-line-2)">Restart</text><text class="terminal-3466990384-r1" x="1207.8" y="68.8" textLength="12.2" clip-path="url(#terminal-3466990384-line-2)">
</text><text class="terminal-3466990384-r3" x="12.2" y="93.2" textLength="12.2" clip-path="url(#terminal-3466990384-line-3)">s</text><text class="terminal-3466990384-r4" x="61" y="93.2" textLength="73.2" clip-path="url(#terminal-3466990384-line-3)">Search</text><text class="terminal-3466990384-r3" x="402.6" y="93.2" textLength="12.2" clip-path="url(#terminal-3466990384-line-3)">e</text><text class="terminal-3466990384-r4" x="427" y="93.2" textLength="48.8" clip-path="url(#terminal-3466990384-line-3)">Exec</text><text class="terminal-3466990384-r3" x="793" y="93.2" textLength="36.6" clip-path="url(#terminal-3466990384-line-3)">del</text><text class="terminal-3466990384-r4" x="841.8" y="93.2" textLength="73.2" clip-path="url(#terminal-3466990384-line-3)">Delete</text><text class="terminal-3466990384-r1" x="1207.8" y="93.2" textLength="12.2" clip-path="url(#terminal-3466990384-line-3)">
</text><text class="terminal-3466990384-r5" x="0" y="117.6" textLength="12.2" clip-path="url(#terminal-3466990384-line-4)">╭</text><text class="terminal-3466990384-r5" x="12.2" y="117.6" textLength="12.2" clip-path="url(#terminal-3466990384-line-4)">─</text><text class="terminal-3466990384-r6" x="24.4" y="117.6" textLength="146.4" clip-path="url(#terminal-3466990384-line-4)">&#160;Containers&#160;</text><text class="terminal-3466990384-r5" x="170.8" y="117.6" textLength="1024.8" clip-path="url(#terminal-3466990384-line-4)">────────────────────────────────────────────────────────────────────────────────────</text><text class="terminal-3466990384-r5" x="1195.6" y="117.6" textLength="12.2" clip-path="url(#terminal-3466990384-line-4)">╮</text><text class="terminal-3466990384-r1" x="1207.8" y="117.6" textLength="12.2" clip-path="url(#terminal-3466990384-line-4)">
</text><text class="terminal-3466990384-r5" x="0" y="142" textLength="12.2" clip-path="url(#terminal-3466990384-line-5)">│</text><text class="terminal-3466990384-r7" x="48.8" y="142" textLength="231.8" clip-path="url(#terminal-3466990384-line-5)">&#160;Name&#160;&#160;&#160;&#160;&#160;&#160;&#160;&#160;&#160;&#160;&#160;&#160;&#160;&#160;</text><text class="terminal-3466990384-r7" x="280.6" y="142" textLength="170.8" clip-path="url(#terminal-3466990384-line-5)">&#160;Id&#160;&#160;&#160;&#160;&#160;&#160;&#160;&#160;&#160;&#160;&#160;</text><text class="terminal-3466990384-r7" x="451.4" y="142" textLength="170.8" clip-path="url(#terminal-3466990384-line-5)">&#160;Image&#160;&#160;&#160;&#160;&#160;&#160;&#160;&#160;</text><text class="terminal-3466990384-r7" x="622.2" y="142" textLength="85.4" clip-path="url(#terminal-3466990384-line-5)">&#160;CPU&#160;&#160;&#160;</text><text class="terminal-3466990384-r7" x="707.6" y="142" textLength="122" clip-path="url(#terminal-3466990384-line-5)">&#160;Memory&#160;&#160;&#160;</text><text class="terminal-3466990384-r7" x="829.6" y="142" textLength="353.8" clip-path="url(#terminal-3466990384-line-5)">&#160;Status&#160;&#160;&#160;&#160;&#160;&#160;&#160;&#160;&#160;&#160;&#160;&#160;&#160;&#160;&#160;&#160;&#160;&#160;&#160;&#160;&#160;&#160;</text><text class="terminal-3466990384-r5" x="1195.6" y="142" textLength="12.2" clip-path="url(#terminal-3466990384-line-5)">│</text><text class="terminal-3466990384-r1" x="1207.8" y="142" textLength="12.2" clip-path="url(#terminal-3466990384-line-5)">
</text><text class="terminal-3466990384-r5" x="0" y="166.4" textLength="12.2" clip-path="url(#terminal-3466990384-line-6)">│</text><text class="terminal-3466990384-r8" x="24.4" y="166.4" textLength="12.2" clip-path="url(#terminal-3466990384-line-6)">P</text><text class="terminal-3466990384-r4" x="48.8" y="166.4" textLength="231.8" clip-path="url(#terminal-3466990384-line-6)">&#160;my-docker-compose&#160;</text><text class="terminal-3466990384-r5" x="1195.6" y="166.4" textLength="12.2" clip-path="url(#terminal-3466990384-line-6)">│</text><text class="terminal-3466990384-r1" x="1207.8" y="166.4" textLength="12.2" clip-path="url(#terminal-3466990384-line-6)">
</text><text class="terminal-3466990384-r5" x="0" y="190.8" textLength="12.2" clip-path="url(#terminal-3466990384-line-7)">│</text><text class="terminal-3466990384-r9" x="24.4" y="190.8" textLength="12.2" clip-path="url(#terminal-3466990384-line-7)">●</text><text class="terminal-3466990384-r4" x="48.8" y="190.8" textLength="231.8" clip-path="url(#terminal-3466990384-line-7)">&#160;├─&#160;web&#160;&#160;&#160;&#160;&#160;&#160;&#160;&#160;&#160;&#160;&#160;&#160;</text><text class="terminal-3466990384-r4" x="280.6" y="190.8" textLength="170.8" clip-path="url(#terminal-3466990384-line-7)">&#160;9294653d80ff&#160;</text><text class="terminal-3466990384-r4" x="451.4" y="190.8" textLength="170.8" clip-path="url(#terminal-3466990384-line-7)">&#160;nginx:alpine&#160;</text><text class="terminal-3466990384-r4" x="622.2" y="190.8" textLength="85.4" clip-path="url(#terminal-3466990384-line-7)">&#160;0.00%&#160;</text><text class="terminal-3466990384-r4" x="707.6" y="190.8" textLength="122" clip-path="url(#terminal-3466990384-line-7)">&#160;14.63&#160;MB&#160;</text><text class="terminal-3466990384-r4" x="829.6" y="190.8" textLength="353.8" clip-path="url(#terminal-3466990384-line-7)">&#160;Up&#160;18&#160;seconds&#160;&#160;&#160;&#160;&#160;&#160;&#160;&#160;&#160;&#160;&#160;&#160;&#160;&#160;&#160;</text><text class="terminal-3466990384-r5" x="1195.6" y="190.8" textLength="12.2" clip-path="url(#terminal-3466990384-line-7)">│</text><text class="terminal-3466990384-r1" x="1207.8" y="190.8" textLength="12.2" clip-path="url(#terminal-3466990384-line-7)">
</text><text class="terminal-3466990384-r5" x="0" y="215.2" textLength="12.2" clip-path="url(#terminal-3466990384-line-8)">│</text><text class="terminal-3466990384-r9" x="24.4" y="215.2" textLength="12.2" clip-path="url(#terminal-3466990384-line-8)">●</text><text class="terminal-3466990384-r4" x="48.8" y="215.2" textLength="231.8" clip-path="url(#terminal-3466990384-line-8)">&#160;├─&#160;db&#160;&#160;&#160;&#160;&#160;&#160;&#160;&#160;&#160;&#160;&#160;&#160;&#160;</text><text class="terminal-3466990384-r4" x="280.6" y="215.2" textLength="170.8" clip-path="url(#terminal-3466990384-line-8)">&#160;c79284419bc6&#160;</text><text class="terminal-3466990384-r4" x="451.4" y="215.2" textLength="170.8" clip-path="url(#terminal-3466990384-line-8)">&#160;postgres:15&#160;&#160;</text><text class="terminal-3466990384-r4" x="622.2" y="215.2" textLength="85.4" clip-path="url(#terminal-3466990384-line-8)">&#160;0.29%&#160;</text><text class="terminal-3466990384-r4" x="707.6" y="215.2" textLength="122" clip-path="url(#terminal-3466990384-line-8)">&#160;84.59&#160;MB&#160;</text><text class="terminal-3466990384-r4" x="829.6" y="215.2" textLength="353.8" clip-path="url(#terminal-3466990384-line-8)">&#160;Up&#160;18&#160;seconds&#160;&#160;&#160;&#160;&#160;&#160;&#160;&#160;&#160;&#160;&#160;&#160;&#160;&#160;&#160;</text><text class="terminal-3466990384-r5" x="1195.6" y="215.2" textLength="12.2" clip-path="url(#terminal-3466990384-line-8)">│</text><text class="terminal-3466990384-r1" x="1207.8" y="215.2" textLength="12.2" clip-path="url(#terminal-3466990384-line-8)">
</text><text class="terminal-3466990384-r5" x="0" y="239.6" textLength="12.2" clip-path="url(#terminal-3466990384-line-9)">│</text><text class="terminal-3466990384-r10" x="12.2" y="239.6" textLength="36.6" clip-path="url(#terminal-3466990384-line-9)">&#160;●&#160;</text><text class="terminal-3466990384-r10" x="48.8" y="239.6" textLength="231.8" clip-path="url(#terminal-3466990384-line-9)">&#160;├─&#160;cache&#160;&#160;&#160;&#160;&#160;&#160;&#160;&#160;&#160;&#160;</text><text class="terminal-3466990384-r10" x="280.6" y="239.6" textLength="170.8" clip-path="url(#terminal-3466990384-line-9)">&#160;1dd5ca8aaeb9&#160;</text><text class="terminal-3466990384-r10" x="451.4" y="239.6" textLength="170.8" clip-path="url(#terminal-3466990384-line-9)">&#160;redis:alpine&#160;</text><text class="terminal-3466990384-r10" x="622.2" y="239.6" textLength="85.4" clip-path="url(#terminal-3466990384-line-9)">&#160;0.22%&#160;</text><text class="terminal-3466990384-r10" x="707.6" y="239.6" textLength="122" clip-path="url(#terminal-3466990384-line-9)">&#160;13.42&#160;MB&#160;</text><text class="terminal-3466990384-r10" x="829.6" y="239.6" textLength="353.8" clip-path="url(#terminal-3466990384-line-9)">&#160;Up&#160;18&#160;seconds&#160;&#160;&#160;&#160;&#160;&#160;&#160;&#160;&#160;&#160;&#160;&#160;&#160;&#160;&#160;</text><text class="terminal-3466990384-r5" x="1195.6" y="239.6" textLength="12.2" clip-path="url(#terminal-3466990384-line-9)">│</text><text class="terminal-3466990384-r1" x="1207.8" y="239.6" textLength="12.2" clip-path="url(#terminal-3466990384-line-9)">
</text><text class="terminal-3466990384-r5" x="0" y="264" textLength="12.2" clip-path="url(#terminal-3466990384-line-10)">│</text><text class="terminal-3466990384-r9" x="24.4" y="264" textLength="12.2" clip-path="url(#terminal-3466990384-line-10)">●</text><text class="terminal-3466990384-r4" x="48.8" y="264" textLength="231.8" clip-path="url(#terminal-3466990384-line-10)">&#160;└─&#160;worker&#160;&#160;&#160;&#160;&#160;&#160;&#160;&#160;&#160;</text><text class="terminal-3466990384-r4" x="280.6" y="264" textLength="170.8" clip-path="url(#terminal-3466990384-line-10)">&#160;1ec255f49069&#160;</text><text class="terminal-3466990384-r4" x="451.4" y="264" textLength="170.8" clip-path="url(#terminal-3466990384-line-10)">&#160;alpine&#160;&#160;&#160;&#160;&#160;&#160;&#160;</text><text class="terminal-3466990384-r4" x="622.2" y="264" textLength="85.4" clip-path="url(#terminal-3466990384-line-10)">&#160;0.00%&#160;</text><text class="terminal-3466990384-r4" x="707.6" y="264" textLength="122" clip-path="url(#terminal-3466990384-line-10)">&#160;1.47&#160;MB&#160;&#160;</text><text class="terminal-3466990384-r4" x="829.6" y="264" textLength="353.8" clip-path="url(#terminal-3466990384-line-10)">&#160;Up&#160;18&#160;seconds&#160;&#160;&#160;&#160;&#160;&#160;&#160;&#160;&#160;&#160;&#160;&#160;&#160;&#160;&#160;</text><text class="terminal-3466990384-r5" x="1195.6" y="264" textLength="12.2" clip-path="url(#terminal-3466990384-line-10)">│</text><text class="terminal-3466990384-r1" x="1207.8" y="264" textLength="12.2" clip-path="url(#terminal-3466990384-line-10)">
</text><text class="terminal-3466990384-r5" x="0" y="288.4" textLength="12.2" clip-path="url(#terminal-3466990384-line-11)">│</text><text class="terminal-3466990384-r11" x="24.4" y="288.4" textLength="12.2" clip-path="url(#terminal-3466990384-line-11)">○</text><text class="terminal-3466990384-r11" x="61" y="288.4" textLength="134.2" clip-path="url(#terminal-3466990384-line-11)">demo_alpine</text><text class="terminal-3466990384-r11" x="292.8" y="288.4" textLength="146.4" clip-path="url(#terminal-3466990384-line-11)">99414a069aa6</text><text class="terminal-3466990384-r11" x="463.6" y="288.4" textLength="73.2" clip-path="url(#terminal-3466990384-line-11)">alpine</text><text class="terminal-3466990384-r11" x="841.8" y="288.4" textLength="329.4" clip-path="url(#terminal-3466990384-line-11)">Exited&#160;(137)&#160;58&#160;minutes&#160;ago</text><text class="terminal-3466990384-r5" x="1195.6" y="288.4" textLength="12.2" clip-path="url(#terminal-3466990384-line-11)">│</text><text class="terminal-3466990384-r1" x="1207.8" y="288.4" textLength="12.2" clip-path="url(#terminal-3466990384-line-11)">
</text><text class="terminal-3466990384-r5" x="0" y="312.8" textLength="12.2" clip-path="url(#terminal-3466990384-line-12)">│</text><text class="terminal-3466990384-r11" x="24.4" y="312.8" textLength="12.2" clip-path="url(#terminal-3466990384-line-12)">○</text><text class="terminal-3466990384-r11" x="61" y="312.8" textLength="146.4" clip-path="url(#terminal-3466990384-line-12)">demo_busybox</text><text class="terminal-3466990384-r11" x="292.8" y="312.8" textLength="146.4" clip-path="url(#terminal-3466990384-line-12)">b83e977981a0</text><text class="terminal-3466990384-r11" x="463.6" y="312.8" textLength="85.4" clip-path="url(#terminal-3466990384-line-12)">busybox</text><text class="terminal-3466990384-r11" x="841.8" y="312.8" textLength="329.4" clip-path="url(#terminal-3466990384-line-12)">Exited&#160;(137)&#160;58&#160;minutes&#160;ago</text><text class="terminal-3466990384-r5" x="1195.6" y="312.8" textLength="12.2" clip-path="url(#terminal-3466990384-line-12)">│</text><text class="terminal-3466990384-r1" x="1207.8" y="312.8" textLength="12.2" clip-path="url(#terminal-3466990384-line-12)">
</text><text class="terminal-3466990384-r5" x="0" y="337.2" textLength="12.2" clip-path="url(#terminal-3466990384-line-13)">│</text><text class="terminal-3466990384-r9" x="24.4" y="337.2" textLength="12.2" clip-path="url(#terminal-3466990384-line-13)">●</text><text class="terminal-3466990384-r4" x="48.8" y="337.2" textLength="231.8" clip-path="url(#terminal-3466990384-line-13)">&#160;demo_postgres&#160;&#160;&#160;&#160;&#160;</text><text class="terminal-3466990384-r4" x="280.6" y="337.2" textLength="170.8" clip-path="url(#terminal-3466990384-line-13)">&#160;ce6c7dc5a070&#160;</text><text class="terminal-3466990384-r4" x="451.4" y="337.2" textLength="170.8" clip-path="url(#terminal-3466990384-line-13)">&#160;postgres:15&#160;&#160;</text><text class="terminal-3466990384-r4" x="622.2" y="337.2" textLength="85.4" clip-path="url(#terminal-3466990384-line-13)">&#160;0.00%&#160;</text><text class="terminal-3466990384-r4" x="707.6" y="337.2" textLength="122" clip-path="url(#terminal-3466990384-line-13)">&#160;24.19&#160;MB&#160;</text><text class="terminal-3466990384-r4" x="829.6" y="337.2" textLength="353.8" clip-path="url(#terminal-3466990384-line-13)">&#160;Up&#160;About&#160;an&#160;hour&#160;&#160;&#160;&#160;&#160;&#160;&#160;&#160;&#160;&#160;&#160;&#160;</text><text class="terminal-3466990384-r5" x="1195.6" y="337.2" textLength="12.2" clip-path="url(#terminal-3466990384-line-13)">│</text><text class="terminal-3466990384-r1" x="1207.8" y="337.2" textLength="12.2" clip-path="url(#terminal-3466990384-line-13)">
</text><text class="terminal-3466990384-r5" x="0" y="361.6" textLength="12.2" clip-path="url(#terminal-3466990384-line-14)">│</text><text class="terminal-3466990384-r9" x="24.4" y="361.6" textLength="12.2" clip-path="url(#terminal-3466990384-line-14)">●</text><text class="terminal-3466990384-r4" x="48.8" y="361.6" textLength="231.8" clip-path="url(#terminal-3466990384-line-14)">&#160;demo_redis&#160;&#160;&#160;&#160;&#160;&#160;&#160;&#160;</text><text class="terminal-3466990384-r4" x="280.6" y="361.6" textLength="170.8" clip-path="url(#terminal-3466990384-line-14)">&#160;67bd5fe85f36&#160;</text><text class="terminal-3466990384-r4" x="451.4" y="361.6" textLength="170.8" clip-path="url(#terminal-3466990384-line-14)">&#160;redis:alpine&#160;</text><text class="terminal-3466990384-r4" x="622.2" y="361.6" textLength="85.4" clip-path="url(#terminal-3466990384-line-14)">&#160;0.17%&#160;</text><text class="terminal-3466990384-r4" x="707.6" y="361.6" textLength="122" clip-path="url(#terminal-3466990384-line-14)">&#160;9.88&#160;MB&#160;&#160;</text><text class="terminal-3466990384-r4" x="829.6" y="361.6" textLength="353.8" clip-path="url(#terminal-3466990384-line-14)">&#160;Up&#160;About&#160;an&#160;hour&#160;&#160;&#160;&#160;&#160;&#160;&#160;&#160;&#160;&#160;&#160;&#160;</text><text class="terminal-3466990384-r5" x="1195.6" y="361.6" textLength="12.2" clip-path="url(#terminal-3466990384-line-14)">│</text><text class="terminal-3466990384-r1" x="1207.8" y="361.6" textLength="12.2" clip-path="url(#terminal-3466990384-line-14)">
</text><text class="terminal-3466990384-r5" x="0" y="386" textLength="12.2" clip-path="url(#terminal-3466990384-line-15)">│</text><text class="terminal-3466990384-r9" x="24.4" y="386" textLength="12.2" clip-path="url(#terminal-3466990384-line-15)">●</text><text class="terminal-3466990384-r4" x="48.8" y="386" textLength="231.8" clip-path="url(#terminal-3466990384-line-15)">&#160;demo_nginx&#160;&#160;&#160;&#160;&#160;&#160;&#160;&#160;</text><text class="terminal-3466990384-r4" x="280.6" y="386" textLength="170.8" clip-path="url(#terminal-3466990384-line-15)">&#160;d6e1641b871a&#160;</text><text class="terminal-3466990384-r4" x="451.4" y="386" textLength="170.8" clip-path="url(#terminal-3466990384-line-15)">&#160;nginx:alpine&#160;</text><text class="terminal-3466990384-r4" x="622.2" y="386" textLength="85.4" clip-path="url(#terminal-3466990384-line-15)">&#160;0.00%&#160;</text><text class="terminal-3466990384-r4" x="707.6" y="386" textLength="122" clip-path="url(#terminal-3466990384-line-15)">&#160;12.71&#160;MB&#160;</text><text class="terminal-3466990384-r4" x="829.6" y="386" textLength="353.8" clip-path="url(#terminal-3466990384-line-15)">&#160;Up&#160;About&#160;an&#160;hour&#160;&#160;&#160;&#160;&#160;&#160;&#160;&#160;&#160;&#160;&#160;&#160;</text><text class="terminal-3466990384-r5" x="1195.6" y="386" textLength="12.2" clip-path="url(#terminal-3466990384-line-15)">│</text><text class="terminal-3466990384-r1" x="1207.8" y="386" textLength="12.2" clip-path="url(#terminal-3466990384-line-15)">
</text><text class="terminal-3466990384-r5" x="0" y="410.4" textLength="12.2" clip-path="url(#terminal-3466990384-line-16)">╰</text><text class="terminal-3466990384-r5" x="12.2" y="410.4" textLength="1183.4" clip-path="url(#terminal-3466990384-line-16)">─────────────────────────────────────────────────────────────────────────────────────────────────</text><text class="terminal-3466990384-r5" x="1195.6" y="410.4" textLength="12.2" clip-path="url(#terminal-3466990384-line-16)">╯</text>
    </g>
    </g>
</svg>
