<svg width="36" height="36" viewBox="0 0 36 36" fill="none" xmlns="http://www.w3.org/2000/svg">
<rect width="36" height="36" rx="18" fill="white"/>
<path fill-rule="evenodd" clip-rule="evenodd" d="M10.7226 11.8295C9.90154 11.9772 9.28714 12.651 9.21468 13.4821C9.11806 14.5905 9.0044 16.1809 9.00013 17.5679C8.9956 19.0402 9.10994 20.802 9.20839 22.0379C9.2805 22.9432 9.99053 23.6587 10.8932 23.7588L14.0922 24.1137C15.3528 24.2536 16.4957 24.9189 17.2399 25.9458L18.0038 27L18.7602 25.9521C19.5041 24.9214 20.6493 24.2534 21.9128 24.1132L25.1068 23.7588C26.0095 23.6587 26.7195 22.9432 26.7916 22.0379C26.8901 20.802 27.0044 19.0402 26.9999 17.5679C26.9956 16.1825 26.8847 14.5942 26.7903 13.486C26.7193 12.653 26.1043 11.9769 25.2815 11.8288C23.4875 11.5061 20.3074 11 18.0038 11C15.6987 11 12.516 11.5067 10.7226 11.8295ZM12.5268 14.9755C12.5268 14.9755 12.5269 14.9756 12.5268 14.9757C12.319 16.6827 12.2907 18.4067 12.4423 20.1196L12.5268 21.0738C12.5268 21.0739 12.5269 21.0741 12.5271 21.0741H14.6121C16.0443 21.0741 17.3792 21.7989 18.1593 23C18.9393 21.7989 20.2742 21.0741 21.7064 21.0741H23.8029C23.803 21.0741 23.8032 21.0739 23.8032 21.0738L23.8543 20.5138C24.0224 18.6707 24.0054 16.8154 23.8033 14.9757C23.8033 14.9755 23.8035 14.9753 23.8032 14.9753C23.7946 14.9736 20.4506 14.3333 18.1593 14.3333C15.8677 14.3333 12.5345 14.9738 12.5269 14.9753C12.5268 14.9753 12.5268 14.9754 12.5268 14.9755Z" fill="url(#paint0_linear_3532_8514)"/>
<defs>
<linearGradient id="paint0_linear_3532_8514" x1="-12.1465" y1="28.1235" x2="0.199003" y2="44.4913" gradientUnits="userSpaceOnUse">
<stop stop-color="#FFB800"/>
<stop offset="0.232579" stop-color="#B4E64A"/>
<stop offset="0.511397" stop-color="#87DAC6"/>
<stop offset="0.75" stop-color="#FF68C3"/>
<stop offset="1" stop-color="#005CE7"/>
</linearGradient>
</defs>
</svg>
