<?xml version="1.0" encoding="UTF-8"?>
<svg fill="#000000" width="800px" height="800px" version="1.1" viewBox="144 144 512 512" xmlns="http://www.w3.org/2000/svg">
 <path d="m637.84 322.96h6.1875v-23.395c0-10.91-8.832-19.742-19.742-19.742h-448.58c-10.91 0-19.742 8.832-19.742 19.742v23.395h6.1875c11.555 0 20.926 9.3828 20.926 20.973 0 11.555-9.3672 20.941-20.926 20.941h-6.1875v89.977c0 10.879 8.832 19.711 19.742 19.711h7.3672v45.594h252.36v-14.703c0-6.9766 5.6523-12.609 12.641-12.609 6.957 0 12.641 5.6211 12.641 12.609v14.703h156.21v-45.594h7.3672c10.91 0 19.742-8.832 19.742-19.711l0.007813-89.961h-6.1875c-11.555 0-20.926-9.3828-20.926-20.941-0.011719-11.602 9.3555-20.988 20.91-20.988zm-415.72 183.64h-20.543v-27.52h20.547zm47.25 0h-20.547v-27.52h20.547zm47.246 0h-20.562v-27.52h20.562zm47.234 0h-20.547v-27.52h20.547zm47.246 0h-20.531v-27.52h20.531zm94.48 0h-20.516v-27.52h20.516zm47.262 0h-20.547v-27.52h20.547zm47.25 0h-20.547v-27.52h20.547zm-79.711-187.94h68.801v117.07h-68.801zm-103.17 0h68.785v117.07h-68.785zm-103.2 0h68.785v117.07h-68.785zm-103.2 0h68.801v117.07h-68.801z"/>
</svg>