<svg width="81" height="81" viewBox="0 0 81 81" fill="none" xmlns="http://www.w3.org/2000/svg">
<rect x="1" y="0.621094" width="79" height="79" rx="19.5" fill="url(#paint0_linear_151_661)" fill-opacity="0.2"/>
<rect x="1" y="0.621094" width="79" height="79" rx="19.5" stroke="url(#paint1_linear_151_661)" style="mix-blend-mode:overlay"/>
<path fill-rule="evenodd" clip-rule="evenodd" d="M40.5131 17.8989C35.2346 17.8931 30.1267 19.8156 26.1046 23.322C22.0826 26.8283 19.4094 31.6893 18.5641 37.0337C17.7188 42.3782 18.7566 47.8567 21.4916 52.4876C24.2266 57.1184 28.4799 60.5988 33.4894 62.3051C34.61 62.5166 35.0089 61.8108 35.0089 61.2085C35.0089 60.6637 34.9865 58.8706 34.9775 56.9672C28.7988 58.3465 27.4967 54.2799 27.4967 54.2799C27.0889 52.9022 26.2146 51.7192 25.0314 50.9443C23.0144 49.5306 25.1861 49.5651 25.1861 49.5651C25.8903 49.6646 26.563 49.9278 27.153 50.3345C27.7429 50.7413 28.2346 51.2809 28.5903 51.9121C28.8913 52.4741 29.2978 52.9692 29.7865 53.369C30.2752 53.7687 30.8362 54.0651 31.4373 54.2411C32.0383 54.417 32.6674 54.469 33.2881 54.3939C33.9089 54.3189 34.509 54.1184 35.0537 53.8041C35.1528 52.6483 35.653 51.5675 36.4634 50.7581C31.5329 50.1834 26.3447 48.2294 26.3447 39.494C26.3141 37.2303 27.1343 35.0413 28.6352 33.3814C27.9548 31.417 28.031 29.2604 28.8481 27.3516C28.8481 27.3516 30.7127 26.7402 34.9573 29.6872C38.5974 28.6666 42.4377 28.6666 46.0777 29.6872C50.3134 26.7402 52.1668 27.3516 52.1668 27.3516C52.9874 29.259 53.0675 31.4156 52.3909 33.3814C53.8912 35.0414 54.7099 37.2307 54.6769 39.494C54.6769 48.2455 49.4797 50.1696 44.5359 50.7328C45.0652 51.2851 45.4735 51.9468 45.7336 52.6739C45.9937 53.4009 46.0996 54.1765 46.0441 54.9489C46.0441 57.9971 46.0172 60.4522 46.0172 61.2016C46.0172 61.8062 46.4184 62.5166 47.5434 62.2936C52.5451 60.5809 56.7897 57.0988 59.5179 52.4701C62.246 47.8415 63.2798 42.3683 62.4344 37.0294C61.5889 31.6906 58.9193 26.8344 54.9031 23.3295C50.8869 19.8246 45.7861 17.8997 40.5131 17.8989Z" fill="url(#paint2_linear_151_661)"/>
<defs>
<linearGradient id="paint0_linear_151_661" x1="1.50012" y1="1.12305" x2="79.5001" y2="79.123" gradientUnits="userSpaceOnUse">
<stop stop-color="#C9E4CA"/>
<stop offset="1" stop-color="#B2F2BB"/>
</linearGradient>
<linearGradient id="paint1_linear_151_661" x1="1.50012" y1="1.12305" x2="79.5001" y2="79.123" gradientUnits="userSpaceOnUse">
<stop stop-color="#C9E4CA"/>
<stop offset="1" stop-color="#B2F2BB"/>
</linearGradient>
<linearGradient id="paint2_linear_151_661" x1="18.833" y1="18.4556" x2="62.1663" y2="61.7889" gradientUnits="userSpaceOnUse">
<stop stop-color="#C9E4CA"/>
<stop offset="1" stop-color="#B2F2BB"/>
</linearGradient>
</defs>
</svg>
