<svg width="81" height="80" viewBox="0 0 81 80" fill="none" xmlns="http://www.w3.org/2000/svg">
<rect x="1" y="0.5" width="79" height="79" rx="19.5" fill="url(#paint0_linear_151_642)" fill-opacity="0.2"/>
<rect x="1" y="0.5" width="79" height="79" rx="19.5" stroke="url(#paint1_linear_151_642)" style="mix-blend-mode:overlay"/>
<path d="M62.3172 35.7446C61.2376 30.1232 58.0305 25.1351 53.3641 21.8199C48.6977 18.5047 42.932 17.118 37.2684 17.9488C31.6049 18.7796 26.4803 21.7638 22.9627 26.2796C19.445 30.7954 17.8056 36.4944 18.3861 42.1891C18.8092 45.9937 20.1976 49.6271 22.4195 52.7443C24.6414 55.8615 27.6232 58.3592 31.0816 60.0002C33.986 61.4336 37.1763 62.1932 40.415 62.2224H40.4416C41.3262 62.2262 42.2028 62.0545 43.0206 61.7173C43.8384 61.3801 44.5812 60.8841 45.2061 60.258C45.8284 59.6433 46.3224 58.9111 46.6593 58.1038C46.9961 57.2966 47.1692 56.4305 47.1683 55.5557V53.6446C47.1381 53.3304 47.1725 53.0133 47.2695 52.7129C47.3664 52.4125 47.5238 52.135 47.732 51.8977C47.9401 51.6604 48.1947 51.4682 48.4799 51.333C48.7651 51.1977 49.0751 51.1223 49.3905 51.1113H55.3905C56.7812 51.1199 58.1391 50.6899 59.2713 49.8824C60.4035 49.0749 61.2524 47.9311 61.6972 46.6135C62.8091 43.0993 63.0223 39.3625 62.3172 35.7446ZM28.2794 42.2224C27.8399 42.2224 27.4103 42.0921 27.0448 41.8479C26.6794 41.6037 26.3946 41.2567 26.2264 40.8506C26.0582 40.4445 26.0142 39.9977 26.0999 39.5667C26.1856 39.1356 26.3973 38.7396 26.7081 38.4288C27.0189 38.1181 27.4148 37.9064 27.8459 37.8207C28.277 37.7349 28.7238 37.7789 29.1298 37.9471C29.5359 38.1153 29.883 38.4001 30.1271 38.7656C30.3713 39.131 30.5016 39.5607 30.5016 40.0002C30.5016 40.5896 30.2675 41.1548 29.8508 41.5715C29.434 41.9883 28.8688 42.2224 28.2794 42.2224ZM34.295 33.7935C33.9842 34.1044 33.5883 34.3161 33.1572 34.4019C32.7261 34.4877 32.2792 34.4437 31.8731 34.2755C31.467 34.1074 31.1199 33.8225 30.8757 33.4571C30.6315 33.0916 30.5012 32.662 30.5012 32.2224C30.5012 31.7829 30.6315 31.3532 30.8757 30.9877C31.1199 30.6223 31.467 30.3375 31.8731 30.1693C32.2792 30.0011 32.7261 29.9571 33.1572 30.0429C33.5883 30.1287 33.9842 30.3405 34.295 30.6513C34.7116 31.068 34.9456 31.6332 34.9456 32.2224C34.9456 32.8117 34.7116 33.3768 34.295 33.7935ZM40.6772 30.1846C40.2377 30.1846 39.808 30.0543 39.4426 29.8101C39.0772 29.5659 38.7923 29.2189 38.6241 28.8128C38.4559 28.4068 38.4119 27.9599 38.4977 27.5289C38.5834 27.0978 38.7951 26.7018 39.1059 26.3911C39.4166 26.0803 39.8126 25.8686 40.2437 25.7829C40.6747 25.6971 41.1216 25.7412 41.5276 25.9093C41.9337 26.0775 42.2807 26.3624 42.5249 26.7278C42.7691 27.0933 42.8994 27.5229 42.8994 27.9624C42.8994 28.5518 42.6653 29.117 42.2486 29.5338C41.8318 29.9505 41.2666 30.1846 40.6772 30.1846ZM49.8505 33.7935C49.5398 34.1044 49.1438 34.3161 48.7127 34.4019C48.2816 34.4877 47.8348 34.4437 47.4287 34.2755C47.0226 34.1074 46.6755 33.8225 46.4313 33.4571C46.1871 33.0916 46.0567 32.662 46.0567 32.2224C46.0567 31.7829 46.1871 31.3532 46.4313 30.9877C46.6755 30.6223 47.0226 30.3375 47.4287 30.1693C47.8348 30.0011 48.2816 29.9571 48.7127 30.0429C49.1438 30.1287 49.5398 30.3405 49.8505 30.6513C50.2671 31.068 50.5012 31.6332 50.5012 32.2224C50.5012 32.8117 50.2671 33.3768 49.8505 33.7935Z" fill="url(#paint2_linear_151_642)"/>
<defs>
<linearGradient id="paint0_linear_151_642" x1="1.50012" y1="1.00195" x2="79.5001" y2="79.0019" gradientUnits="userSpaceOnUse">
<stop stop-color="#FAD2E1"/>
<stop offset="1" stop-color="#FFCBA4"/>
</linearGradient>
<linearGradient id="paint1_linear_151_642" x1="1.50012" y1="1.00195" x2="79.5001" y2="79.0019" gradientUnits="userSpaceOnUse">
<stop stop-color="#FAD2E1"/>
<stop offset="1" stop-color="#FFCBA4"/>
</linearGradient>
<linearGradient id="paint2_linear_151_642" x1="18.8272" y1="18.2708" x2="62.2235" y2="61.6123" gradientUnits="userSpaceOnUse">
<stop stop-color="#FAD2E1"/>
<stop offset="1" stop-color="#FFCBA4"/>
</linearGradient>
</defs>
</svg>
