<svg width="36" height="36" viewBox="0 0 36 36" fill="none" xmlns="http://www.w3.org/2000/svg">
<rect width="36" height="36" rx="18" fill="white"/>
<path d="M9.15127 14.2568C9.25015 12.9627 10.2097 11.9125 11.4892 11.6955C13.3303 11.3833 15.999 11 18.0038 11C20.0066 11 22.672 11.3825 24.5129 11.6946C25.7952 11.9119 26.7556 12.9659 26.8524 14.2628C26.9275 15.2696 26.9965 16.4812 26.9999 17.5679C27.0034 18.7234 26.9338 20.0573 26.856 21.1753C26.758 22.5847 25.6515 23.6984 24.2474 23.8542L23.0151 23.9909C21.0498 24.2089 19.2684 25.248 18.1111 26.8514L18.0038 27L17.889 26.8416C16.7314 25.2441 14.9535 24.2093 12.9927 23.9917L11.7526 23.8542C10.3485 23.6984 9.24198 22.5847 9.14398 21.1753C9.06624 20.0573 8.99657 18.7234 9.00013 17.5679C9.00348 16.479 9.07425 15.2647 9.15127 14.2568Z" fill="#D9D9D9"/>
<path d="M9.15127 14.2568C9.25015 12.9627 10.2097 11.9125 11.4892 11.6955C13.3303 11.3833 15.999 11 18.0038 11C20.0066 11 22.672 11.3825 24.5129 11.6946C25.7952 11.9119 26.7556 12.9659 26.8524 14.2628C26.9275 15.2696 26.9965 16.4812 26.9999 17.5679C27.0034 18.7234 26.9338 20.0573 26.856 21.1753C26.758 22.5847 25.6515 23.6984 24.2474 23.8542L23.0151 23.9909C21.0498 24.2089 19.2684 25.248 18.1111 26.8514L18.0038 27L17.889 26.8416C16.7314 25.2441 14.9535 24.2093 12.9927 23.9917L11.7526 23.8542C10.3485 23.6984 9.24198 22.5847 9.14398 21.1753C9.06624 20.0573 8.99657 18.7234 9.00013 17.5679C9.00348 16.479 9.07425 15.2647 9.15127 14.2568Z" fill="url(#paint0_linear_3532_8514)"/>
<path d="M12.2145 14.667C12.2146 14.6668 12.2144 14.6667 12.2146 14.6667C12.2226 14.6651 15.6455 14 17.9989 14C20.352 14 23.786 14.6649 23.7951 14.6667C23.7953 14.6667 23.7951 14.6668 23.7951 14.6671C24.0026 16.5776 24.0202 18.5041 23.8475 20.4181L23.795 20.9997C23.795 20.9999 23.7948 21 23.7947 21H21.6603C20.1789 21 18.7993 21.7536 17.9989 23C17.1984 21.7536 15.8188 21 14.3375 21H12.2148C12.2146 21 12.2145 20.9999 12.2145 20.9997L12.1277 20.0086C11.972 18.2299 12.0011 16.4398 12.2145 14.667Z" fill="white"/>
<defs>
<linearGradient id="paint0_linear_3532_8514" x1="-12.1465" y1="28.1235" x2="0.199004" y2="44.4913" gradientUnits="userSpaceOnUse">
<stop stop-color="#FFB800"/>
<stop offset="0.232579" stop-color="#B4E64A"/>
<stop offset="0.511397" stop-color="#87DAC6"/>
<stop offset="0.75" stop-color="#FF68C3"/>
<stop offset="1" stop-color="#005CE7"/>
</linearGradient>
</defs>
</svg>
