<?xml version="1.0" encoding="UTF-8" standalone="no"?>
<!-- Created with Inkscape (http://www.inkscape.org/) -->

<svg
   width="128"
   height="128"
   viewBox="0 0 33.866667 33.86666"
   version="1.1"
   id="svg1"
   inkscape:version="1.4.2 (ebf0e940d0, 2025-05-08)"
   sodipodi:docname="acorns.svg"
   xml:space="preserve"
   xmlns:inkscape="http://www.inkscape.org/namespaces/inkscape"
   xmlns:sodipodi="http://sodipodi.sourceforge.net/DTD/sodipodi-0.dtd"
   xmlns="http://www.w3.org/2000/svg"
   xmlns:svg="http://www.w3.org/2000/svg"
   xmlns:rdf="http://www.w3.org/1999/02/22-rdf-syntax-ns#"
   xmlns:cc="http://creativecommons.org/ns#"
   xmlns:dc="http://purl.org/dc/elements/1.1/"><title
     id="title1">Acorns Suit</title><sodipodi:namedview
     id="namedview1"
     pagecolor="#ffffff"
     bordercolor="#000000"
     borderopacity="0.25"
     inkscape:showpageshadow="2"
     inkscape:pageopacity="0.0"
     inkscape:pagecheckerboard="0"
     inkscape:deskcolor="#d1d1d1"
     inkscape:document-units="mm"
     showgrid="true"
     inkscape:zoom="6.0237165"
     inkscape:cx="58.933716"
     inkscape:cy="67.40025"
     inkscape:window-width="1920"
     inkscape:window-height="1131"
     inkscape:window-x="0"
     inkscape:window-y="0"
     inkscape:window-maximized="1"
     inkscape:current-layer="svg1"><inkscape:grid
       id="grid4"
       units="mm"
       originx="0"
       originy="0"
       spacingx="0.99999991"
       spacingy="0.99999991"
       empcolor="#0099e5"
       empopacity="0.30196078"
       color="#0099e5"
       opacity="0.14901961"
       empspacing="5"
       dotted="false"
       gridanglex="30"
       gridanglez="30"
       visible="true" /><sodipodi:guide
       position="0,128"
       orientation="0,483.77953"
       id="guide1"
       inkscape:locked="false" /><sodipodi:guide
       position="127.99999,128"
       orientation="483.77953,0"
       id="guide2"
       inkscape:locked="false" /><sodipodi:guide
       position="127.99999,3.5603838e-06"
       orientation="0,-483.77953"
       id="guide3"
       inkscape:locked="false" /><sodipodi:guide
       position="0,3.5603838e-06"
       orientation="-483.77953,0"
       id="guide4"
       inkscape:locked="false" /></sodipodi:namedview><defs
     id="defs1"><linearGradient
       id="linearGradient3140"
       inkscape:swatch="solid"><stop
         style="stop-color:#e6e6e6;stop-opacity:1;"
         offset="0"
         id="stop3138" /></linearGradient></defs><metadata
     id="metadata7"><rdf:RDF><cc:Work
         rdf:about=""><cc:license
           rdf:resource="http://creativecommons.org/licenses/by-sa/4.0/" /><dc:title>Acorns Suit</dc:title><dc:date>2025-10-21</dc:date><dc:creator><cc:Agent><dc:title>Max Weiner</dc:title></cc:Agent></dc:creator></cc:Work><cc:License
         rdf:about="http://creativecommons.org/licenses/by-sa/4.0/"><cc:permits
           rdf:resource="http://creativecommons.org/ns#Reproduction" /><cc:permits
           rdf:resource="http://creativecommons.org/ns#Distribution" /><cc:requires
           rdf:resource="http://creativecommons.org/ns#Notice" /><cc:requires
           rdf:resource="http://creativecommons.org/ns#Attribution" /><cc:permits
           rdf:resource="http://creativecommons.org/ns#DerivativeWorks" /><cc:requires
           rdf:resource="http://creativecommons.org/ns#ShareAlike" /></cc:License></rdf:RDF></metadata><g
     id="g1"
     transform="matrix(0.65785089,0,0,0.65785084,-65.743734,-42.184514)"
     style="stroke-width:0.50163345;stroke-dasharray:none"><path
       id="path3"
       style="fill:#2ea75e;fill-opacity:1;fill-rule:evenodd;stroke:#000000;stroke-width:0.50163345;stroke-linecap:square;stroke-linejoin:miter;stroke-dasharray:none;stroke-opacity:1"
       d="m 135.05854,91.019095 c 0,3.211694 -3.78802,6.477226 -8.18793,8.577446 -0.57006,0.272123 -0.75348,2.346269 -1.0909,2.332489 -0.28931,-0.0107 -0.67103,-2.024305 -1.30971,-2.337214 -3.9281,-1.924374 -7.67956,-4.933557 -7.73019,-7.862692 -0.0419,-2.426287 0.88606,-3.676239 2.30337,-4.429589 1.95552,-1.03946 4.87745,-1.048802 7.78352,-1.133148 4.87339,-0.141467 8.23184,1.641014 8.23184,4.852708 z"
       sodipodi:nodetypes="ssssssss" /><path
       id="rect1"
       style="fill:#ff2a2a;fill-rule:evenodd;stroke:#000000;stroke-width:0.50163345;stroke-linecap:square;stroke-linejoin:miter;stroke-dasharray:none;stroke-opacity:1"
       d="m 119.22794,72.317517 6.58436,-6.241884 6.88236,6.248968 -0.0841,14.882988 c -4.49408,1.012981 -8.96258,1.104855 -13.39783,0 z"
       sodipodi:nodetypes="cccccc" /><path
       style="fill:#2ea75e;fill-opacity:1;stroke:#000000;stroke-width:0.50163345;stroke-linecap:square;stroke-linejoin:miter;stroke-dasharray:none;stroke-opacity:1"
       d="m 122.56751,102.21973 c 6.12079,1.58101 5.80804,4.37413 6.42942,6.99123 l -3.13669,-1.23284 c 0,0 -3.01649,-3.62918 -4.86888,-3.10549 -0.38396,0.10864 -0.17777,0.8763 -0.52281,1.07681 -1.23263,0.71651 -3.17785,-1.06698 -4.26805,-0.28091 -0.41116,0.29647 0.29726,1.05006 -0.28091,1.49813 -1.09895,0.85171 -1.58274,0.38151 -2.39914,0.80879 -0.46137,0.24156 -1.58291,5.51 0.71374,5.46457 0.5514,-0.0107 1.49813,-0.70224 1.49813,-0.70224 0.33007,-0.15481 0.45088,0.89132 0.81149,0.99876 0.43681,0.13025 2.42727,-1.99025 3.57363,-2.16917 0.26318,-0.0411 0.39379,0.74689 1.04558,0.7959 0.63537,0.0478 1.04154,-0.67989 1.4567,-0.95818 1.54551,-1.03599 3.18204,-1.78948 3.7399,-1.60119 1.45083,0.48966 3.65286,0.89927 2.5905,3.48 l 2.76217,-1.27964 c -0.37544,-1.84558 -1.52541,-3.40734 -0.96755,-5.29026 l -2.10673,-2.5905 c -1.4944,-1.67659 -3.12487,-2.5366 -4.86888,-2.71533 z"
       id="path11"
       sodipodi:nodetypes="cccsssssssssssscccccc" /><path
       style="fill:#ff2a2a;fill-opacity:1;stroke:#000000;stroke-width:0.50163345;stroke-linecap:square;stroke-linejoin:miter;stroke-dasharray:none;stroke-opacity:1"
       d="m 129.79515,105.55448 c -0.10596,0.024 -0.20793,-2.77235 0.0702,-3.84419 0.2997,-1.15495 1.02075,-2.456686 2.21246,-2.515942 0.41044,-0.02135 0.86073,0.573821 0.86073,0.573821 0.67408,-0.910004 1.30841,-2.166068 2.40205,-2.269072 0.34895,-0.0387 2.33954,0.80943 2.93384,1.970151 0.35628,1.181942 0.26264,1.782992 0.035,2.044322 -0.32115,0.3687 -1.88223,1.38867 -3.28883,1.65807 -0.16576,0.0318 0.0838,0.92803 -0.20286,1.29136 -0.37814,0.47946 -3.04898,1.29455 -4.09252,2.24718 z"
       id="path14"
       sodipodi:nodetypes="csscccssscc" /><path
       id="path4"
       style="fill:#000000;fill-opacity:0.4;fill-rule:evenodd;stroke:none;stroke-width:0.50163345;stroke-linecap:square;stroke-linejoin:miter;stroke-dasharray:none"
       d="m 125.81198,66.075646 -6.58395,6.241856 -0.0157,14.890082 c 0.004,9.79e-4 0.008,0.002 0.0118,0.0029 -0.0607,0.02948 -0.12239,0.05787 -0.18133,0.0892 -1.41731,0.753348 -2.34535,2.0032 -2.30345,4.429483 0.0506,2.929129 3.80267,5.938722 7.73077,7.863092 0.63868,0.312909 1.02022,2.326071 1.30953,2.336771 l 0.0118,-13.92851 h 9.8e-4 z" /></g></svg>
