<?xml version="1.0" encoding="UTF-8" standalone="no"?>
<!-- Created with Inkscape (http://www.inkscape.org/) -->

<svg
   width="128"
   height="128"
   viewBox="0 0 33.866667 33.866668"
   version="1.1"
   id="svg1"
   xml:space="preserve"
   inkscape:version="1.4.2 (ebf0e940d0, 2025-05-08)"
   sodipodi:docname="bells.svg"
   xmlns:inkscape="http://www.inkscape.org/namespaces/inkscape"
   xmlns:sodipodi="http://sodipodi.sourceforge.net/DTD/sodipodi-0.dtd"
   xmlns="http://www.w3.org/2000/svg"
   xmlns:svg="http://www.w3.org/2000/svg"
   xmlns:rdf="http://www.w3.org/1999/02/22-rdf-syntax-ns#"
   xmlns:cc="http://creativecommons.org/ns#"
   xmlns:dc="http://purl.org/dc/elements/1.1/"><title
     id="title1">Bells Suit</title><sodipodi:namedview
     id="namedview1"
     pagecolor="#ffffff"
     bordercolor="#666666"
     borderopacity="1.0"
     inkscape:showpageshadow="2"
     inkscape:pageopacity="0.0"
     inkscape:pagecheckerboard="0"
     inkscape:deskcolor="#d1d1d1"
     inkscape:document-units="mm"
     showguides="true"
     inkscape:zoom="2.7856819"
     inkscape:cx="22.256669"
     inkscape:cy="33.026025"
     inkscape:window-width="1920"
     inkscape:window-height="1131"
     inkscape:window-x="0"
     inkscape:window-y="0"
     inkscape:window-maximized="1"
     inkscape:current-layer="svg1" /><defs
     id="defs1" /><g
     id="g19"
     transform="matrix(0.40139711,0,0,0.4019771,32.926947,12.138212)"
     style="stroke-width:2.4895"><circle
       style="opacity:1;fill:#f32727;fill-opacity:1;stroke:#000000;stroke-width:0.821535;stroke-linejoin:round"
       id="path2"
       cx="60.242516"
       cy="146.91985"
       r="31.75"
       transform="translate(-100.08738,-142.323)" /><rect
       style="opacity:1;fill:#ffd429;fill-opacity:1;stroke:#000000;stroke-width:0.821535;stroke-linejoin:round"
       id="rect2"
       width="12"
       height="12"
       x="140.48592"
       y="55.290127"
       transform="rotate(45,121.75537,-191.97765)" /><rect
       style="opacity:1;fill:#ffd429;fill-opacity:1;stroke:#000000;stroke-width:0.821535;stroke-linejoin:round"
       id="rect3"
       width="6"
       height="6"
       x="143.48592"
       y="58.290131"
       transform="rotate(45,121.75537,-191.97765)" /><path
       id="path4"
       style="opacity:1;fill:#17a2ff;fill-opacity:1;stroke:#000000;stroke-width:0.821535;stroke-linejoin:round"
       d="m 60.242267,157.50244 a 63.5,63.5 0 0 0 -27.045894,6.04769 31.75,31.75 0 0 0 5.151106,6.3624 63.5,63.5 0 0 1 21.894788,-3.94394 63.5,63.5 0 0 1 21.895304,3.94446 31.75,31.75 0 0 0 5.151107,-6.36292 63.5,63.5 0 0 0 -27.046411,-6.04769 z"
       transform="translate(-100.08738,-142.323)" /><path
       id="path5"
       style="opacity:1;fill:#17a2ff;fill-opacity:1;stroke:#000000;stroke-width:0.821535;stroke-linejoin:round"
       d="m 60.238129,136.34105 a 63.5,63.5 0 0 1 -27.045894,-6.04769 31.75,31.75 0 0 1 5.151106,-6.3624 63.5,63.5 0 0 0 21.894788,3.94394 63.5,63.5 0 0 0 21.895301,-3.94446 31.75,31.75 0 0 1 5.15111,6.36292 63.5,63.5 0 0 1 -27.046411,6.04769 z"
       transform="translate(-100.08738,-142.323)" /><path
       id="circle6"
       style="opacity:1;fill:#ffd429;fill-opacity:1;stroke:#000000;stroke-width:0.821535;stroke-linejoin:round"
       d="m 56.355682,115.40836 c -5.18212,0.6392 -10.126617,2.54657 -14.395503,5.55315 4.1778,0.51809 7.855468,2.05817 13.958321,-1.35754 1.813101,1.56988 0.928395,2.78603 -2.653585,3.64836 1.529632,2.27743 3.855729,3.09533 6.977352,2.45411 3.121623,0.64122 5.44772,-0.17668 6.977352,-2.45411 -3.58198,-0.86233 -4.466686,-2.07848 -2.653585,-3.64836 6.102853,3.41571 9.780521,1.87563 13.958321,1.35754 -4.268886,-3.00658 -9.213384,-4.91395 -14.395504,-5.55315 -0.455295,1.96228 -1.750853,3.2613 -3.886584,3.89692 -2.135731,-0.63562 -3.43129,-1.93464 -3.886585,-3.89692 z"
       transform="translate(-100.08738,-142.323)" /><path
       id="path10"
       style="opacity:1;fill:#ffd429;fill-opacity:1;stroke:#000000;stroke-width:0.821535;stroke-linejoin:round"
       d="m 56.355682,178.43103 c -5.18212,-0.6392 -10.126617,-2.54657 -14.395503,-5.55315 4.1778,-0.51809 7.855468,-2.05817 13.958321,1.35754 1.813101,-1.56988 0.928395,-2.78603 -2.653585,-3.64836 1.529632,-2.27743 3.855729,-3.09533 6.977352,-2.45411 3.121623,-0.64122 5.44772,0.17668 6.977352,2.45411 -3.58198,0.86233 -4.466686,2.07848 -2.653585,3.64836 6.102853,-3.41571 9.780521,-1.87563 13.958321,-1.35754 -4.268886,3.00658 -9.213384,4.91395 -14.395504,5.55315 -0.455295,-1.96228 -1.750853,-3.2613 -3.886584,-3.89692 -2.135731,0.63562 -3.43129,1.93464 -3.886585,3.89692 z"
       transform="translate(-100.08738,-142.323)" /><path
       id="path13"
       style="opacity:1;fill:#ffd429;fill-opacity:1;stroke:#000000;stroke-width:0.821535;stroke-linejoin:round"
       d="m 60.242267,177.81799 -6.19187,0.24236 c -0.989153,2.39081 -2.350239,2.72121 -4.414718,3.09956 1.49322,1.26509 2.9353,1.85733 5.902482,0.48265 -0.47051,2.0488 -2.722831,4.14078 -2.722831,5.79035 0,2.57138 3.020109,4.71788 7.426937,5.90093 4.406828,-1.18305 7.427453,-3.32955 7.427453,-5.90093 0,-1.64957 -2.252321,-3.74155 -2.722831,-5.79035 2.967182,1.37468 4.409262,0.78244 5.902482,-0.48265 -2.064479,-0.37835 -3.425564,-0.70875 -4.414717,-3.09956 z m 0,3.545 c 1.594238,2.76655 4.037996,2.51283 4.037996,5.08341 0,1.39155 -1.687621,3.32845 -4.037996,1.96888 -2.350375,1.35957 -4.03748,-0.57733 -4.03748,-1.96888 0,-2.57058 2.443242,-2.31686 4.03748,-5.08341 z"
       transform="translate(-100.08738,-142.323)" /><path
       id="path15"
       style="opacity:1;fill:#ffd429;fill-opacity:1;stroke:#000000;stroke-width:0.821535;stroke-linejoin:round"
       d="m 80.214174,135.30896 c -6.515828,9.09495 -17.283492,0.97117 -11.48612,11.61066 -5.797372,10.63949 4.970292,2.51623 11.48612,11.61118 2.577201,-5.40258 -5.587309,-6.77748 -4.309814,-9.1426 2.138576,0.59814 5.822812,4.2028 9.306925,2.07326 -4.565284,-2.66414 -2.165316,-3.34383 3.765662,-4.54184 -5.930978,-1.19801 -8.330946,-1.87719 -3.765662,-4.54133 -3.484113,-2.12954 -7.168349,1.47512 -9.306925,2.07326 -1.277495,-2.36512 6.887015,-3.74001 4.309814,-9.14259 z"
       transform="translate(-100.08738,-142.323)" /><path
       id="path16"
       style="opacity:1;fill:#ffd429;fill-opacity:1;stroke:#000000;stroke-width:0.821535;stroke-linejoin:round"
       d="m 40.271116,135.30919 c 6.515828,9.09495 17.283492,0.97117 11.48612,11.61066 5.797372,10.63949 -4.970292,2.51623 -11.48612,11.61118 -2.577201,-5.40258 5.587309,-6.77748 4.309814,-9.1426 -2.138576,0.59814 -5.822812,4.2028 -9.306925,2.07326 4.565284,-2.66414 2.165316,-3.34383 -3.765662,-4.54184 5.930978,-1.19801 8.330946,-1.87719 3.765662,-4.54133 3.484113,-2.12954 7.168349,1.47512 9.306925,2.07326 1.277495,-2.36512 -6.887015,-3.74001 -4.309814,-9.14259 z"
       transform="translate(-100.08738,-142.323)" /><path
       id="circle16"
       style="opacity:1;fill:#000000;fill-opacity:0.4;stroke:none;stroke-width:0.821535;stroke-linejoin:round;stroke-opacity:1"
       d="m 60.242267,115.16962 a 31.75,31.75 0 0 0 -31.75,31.75 31.75,31.75 0 0 0 25.55968,31.14073 h -0.0016 c -0.989153,2.39081 -2.350239,2.72121 -4.414718,3.09956 1.49322,1.26509 2.9353,1.85733 5.902482,0.48265 -0.47051,2.0488 -2.722831,4.14078 -2.722831,5.79035 0,2.57138 3.020109,4.71788 7.426937,5.90093 v -4.91856 c -2.350375,1.35957 -4.03748,-0.57733 -4.03748,-1.96888 0,-2.57058 2.443242,-2.31686 4.03748,-5.08341 v -2.69337 -0.85163 z"
       transform="translate(-100.08738,-142.323)" /></g><metadata
     id="metadata1"><rdf:RDF><cc:Work
         rdf:about=""><cc:license
           rdf:resource="http://creativecommons.org/licenses/by-sa/4.0/" /><dc:title>Bells Suit</dc:title><dc:date>2025-10-21</dc:date><dc:creator><cc:Agent><dc:title>Max Weiner</dc:title></cc:Agent></dc:creator></cc:Work><cc:License
         rdf:about="http://creativecommons.org/licenses/by-sa/4.0/"><cc:permits
           rdf:resource="http://creativecommons.org/ns#Reproduction" /><cc:permits
           rdf:resource="http://creativecommons.org/ns#Distribution" /><cc:requires
           rdf:resource="http://creativecommons.org/ns#Notice" /><cc:requires
           rdf:resource="http://creativecommons.org/ns#Attribution" /><cc:permits
           rdf:resource="http://creativecommons.org/ns#DerivativeWorks" /><cc:requires
           rdf:resource="http://creativecommons.org/ns#ShareAlike" /></cc:License></rdf:RDF></metadata></svg>
