<?xml version="1.0" encoding="UTF-8" standalone="no"?>
<!-- Created with Inkscape (http://www.inkscape.org/) -->

<svg
   width="128"
   height="128"
   viewBox="0 0 33.866667 33.866666"
   version="1.1"
   id="svg1"
   xml:space="preserve"
   inkscape:version="1.4.2 (ebf0e940d0, 2025-05-08)"
   sodipodi:docname="leafs.svg"
   xmlns:inkscape="http://www.inkscape.org/namespaces/inkscape"
   xmlns:sodipodi="http://sodipodi.sourceforge.net/DTD/sodipodi-0.dtd"
   xmlns="http://www.w3.org/2000/svg"
   xmlns:svg="http://www.w3.org/2000/svg"
   xmlns:rdf="http://www.w3.org/1999/02/22-rdf-syntax-ns#"
   xmlns:cc="http://creativecommons.org/ns#"
   xmlns:dc="http://purl.org/dc/elements/1.1/"><title
     id="title1">Leafs Suit</title><sodipodi:namedview
     id="namedview1"
     pagecolor="#ffffff"
     bordercolor="#666666"
     borderopacity="1.0"
     inkscape:showpageshadow="2"
     inkscape:pageopacity="0.0"
     inkscape:pagecheckerboard="0"
     inkscape:deskcolor="#d1d1d1"
     inkscape:document-units="mm"
     inkscape:zoom="5.3617783"
     inkscape:cx="37.674068"
     inkscape:cy="72.923567"
     inkscape:window-width="1920"
     inkscape:window-height="1131"
     inkscape:window-x="0"
     inkscape:window-y="0"
     inkscape:window-maximized="1"
     inkscape:current-layer="svg1" /><defs
     id="defs1" /><g
     id="g1"
     transform="matrix(1.0032941,0,0,1.0032752,-103.94388,-124.67571)"
     style="display:inline;opacity:1;stroke-width:0.996726"><path
       id="path4"
       style="fill:#2ea95e;fill-rule:evenodd;stroke:#000000;stroke-width:0.32892;stroke-linejoin:round;stroke-miterlimit:8;paint-order:normal"
       d="m 120.28289,125.488 -1.73013,2.04071 c 0.1349,0.77033 0.41839,1.61436 -0.004,2.33629 -0.50902,-0.46268 -0.58091,-0.96402 -0.57051,-1.36168 -2.48234,1.51828 -1.11922,2.52801 -1.5074,4.03903 -0.52013,-0.52095 -0.68112,-0.80319 -0.786,-1.32963 -0.66071,0.44726 -2.11245,2.30664 -1.00356,4.04678 -0.65518,-0.0936 -0.80072,-0.36172 -1.26762,-1.09761 -1.70561,1.52992 -1.37143,3.56605 -0.29921,4.96611 -0.57746,-0.29342 -1.2491,-0.51672 -1.65674,-1.00511 -0.1783,1.86105 0.0498,3.52996 1.58543,5.03174 -0.0162,0.11841 -1.04706,0.24041 -1.68414,-0.1447 0.79439,1.91278 1.97753,2.93184 3.67575,3.66851 -0.079,0.33347 -0.51983,0.82481 -1.48312,0.90641 2.3574,2.18687 4.13082,-0.58065 5.30666,-0.51935 0.26106,0.0136 0.61237,0.3203 0.95549,0.6258 h 0.93793 c 0.34313,-0.3055 0.69444,-0.6122 0.9555,-0.6258 1.17584,-0.0613 2.94925,2.70622 5.30665,0.51935 -0.96329,-0.0816 -1.40461,-0.57294 -1.48363,-0.90641 1.69822,-0.73667 2.88187,-1.75573 3.67626,-3.66851 -0.63708,0.38511 -1.66788,0.26311 -1.68413,0.1447 1.53567,-1.50178 1.76321,-3.17069 1.58491,-5.03174 -0.40764,0.48839 -1.07877,0.71169 -1.65623,1.00511 1.07222,-1.40006 1.40641,-3.43619 -0.2992,-4.96611 -0.4669,0.73589 -0.61244,1.00397 -1.26762,1.09761 1.10889,-1.74014 -0.34285,-3.59952 -1.00356,-4.04678 -0.10488,0.52644 -0.26587,0.80868 -0.786,1.32963 -0.38818,-1.51102 0.97494,-2.52075 -1.5074,-4.03903 0.0104,0.39766 -0.0615,0.899 -0.57051,1.36168 -0.422,-0.72193 -0.13903,-1.56596 -0.004,-2.33629 z"
       sodipodi:nodetypes="cccccccccccccccccccccccccccccccc" /><path
       id="path1"
       style="fill:#000000;fill-opacity:0.4;fill-rule:evenodd;stroke:none;stroke-width:0.32892;stroke-linejoin:miter;stroke-miterlimit:8;paint-order:markers stroke fill"
       d="m 120.28289,125.488 -1.73013,2.04071 c 0.1349,0.77033 0.41826,1.61436 -0.004,2.33629 -0.50902,-0.46268 -0.58091,-0.96402 -0.57051,-1.36168 -2.48234,1.51828 -1.11922,2.52801 -1.5074,4.03903 -0.52013,-0.52095 -0.68112,-0.80319 -0.786,-1.32963 -0.66071,0.44726 -2.11245,2.30664 -1.00356,4.04678 -0.65518,-0.0936 -0.80072,-0.36172 -1.26762,-1.09761 -1.70561,1.52992 -1.37143,3.56605 -0.29921,4.96611 -0.57746,-0.29342 -1.2491,-0.51672 -1.65674,-1.00511 -0.1783,1.86105 0.0498,3.52995 1.58543,5.03173 -0.0162,0.11841 -1.04706,0.24042 -1.68414,-0.14469 0.79439,1.91278 1.97753,2.93184 3.67575,3.66851 -0.079,0.33347 -0.51982,0.82481 -1.48311,0.90641 2.3574,2.18687 4.13081,-0.58065 5.30665,-0.51935 0.26106,0.0136 0.61238,0.3203 0.9555,0.6258 h 0.46922 z" /><path
       style="display:inline;fill:#2ea95e;fill-opacity:1;stroke:#000000;stroke-width:0.32892;stroke-linecap:butt;stroke-linejoin:round;stroke-dasharray:none;stroke-opacity:1;paint-order:normal"
       d="m 119.7578,126.10735 0.0648,25.84304 c 4.4e-4,0.17414 -0.0494,0.2859 -0.17617,0.23393 -1.28718,-0.52785 -1.03205,-0.71495 -5.42232,-1.54594 -2.00399,-0.37931 -2.60631,-1.64439 -3.74316,-2.1413 0.82708,2.03857 1.63885,3.9422 2.29423,3.85975 0.64212,-0.0808 1.38514,-0.22585 1.90462,-0.0209 -0.59694,0.35219 -1.06121,0.70436 -1.10382,1.05656 1.23564,-0.005 1.314,0.41605 1.99121,0.4097 0.96015,-0.009 1.46366,-1.07869 2.28284,-1.32557 0.96625,-0.2912 1.66845,1.19389 0.96372,1.79995 -1.45278,1.24936 -1.54133,0.59643 -2.8353,0.66846 1.29211,0.62311 1.287,1.50364 1.50741,1.86048 0.77352,-0.16143 1.85905,-0.79662 2.56157,-1.53705 0.17235,-1.80544 0.76186,-1.28258 0.76888,-2.85657 l -0.008,-26.30406 -0.52542,-0.61983 z"
       id="path2"
       sodipodi:nodetypes="cssscsccssscccsccc" /><path
       style="fill:#ff2929;fill-opacity:1;stroke:#000000;stroke-width:0.32892;stroke-linecap:butt;stroke-linejoin:round;stroke-dasharray:none;stroke-opacity:1;paint-order:normal"
       d="m 120.71841,153.40268 c 0.54756,-0.10676 1.16417,-0.17266 1.34575,-0.82368 0.54184,-1.94265 2.21485,-2.59498 4.35135,-2.84981 -1.2668,0.58449 -1.94792,1.1842 -2.08252,1.6466 1.50053,0.32206 1.08146,-0.55904 2.59723,-0.71157 -0.0389,2.1148 1.54364,1.74682 3.54953,1.64955 -1.60083,1.5649 -2.96159,1.5717 -5.21065,1.28294 0.29845,0.31461 0.41389,0.85782 2.15972,0.98771 -1.54324,0.7567 -3.18246,-0.41532 -4.58938,-0.53729 -1.43027,-0.124 -2.61701,0.79903 -2.79202,1.22133 -0.91353,-0.88592 -0.71014,-1.59651 0.67099,-1.86578 z"
       id="path176"
       sodipodi:nodetypes="ssccccccscs" /></g><metadata
     id="metadata1"><rdf:RDF><cc:Work
         rdf:about=""><cc:license
           rdf:resource="http://creativecommons.org/licenses/by-sa/4.0/" /><dc:title>Leafs Suit</dc:title><dc:date>2025-10-21</dc:date><dc:creator><cc:Agent><dc:title>Max Weiner</dc:title></cc:Agent></dc:creator></cc:Work><cc:License
         rdf:about="http://creativecommons.org/licenses/by-sa/4.0/"><cc:permits
           rdf:resource="http://creativecommons.org/ns#Reproduction" /><cc:permits
           rdf:resource="http://creativecommons.org/ns#Distribution" /><cc:requires
           rdf:resource="http://creativecommons.org/ns#Notice" /><cc:requires
           rdf:resource="http://creativecommons.org/ns#Attribution" /><cc:permits
           rdf:resource="http://creativecommons.org/ns#DerivativeWorks" /><cc:requires
           rdf:resource="http://creativecommons.org/ns#ShareAlike" /></cc:License></rdf:RDF></metadata></svg>
