<?xml version="1.0" encoding="UTF-8"?>
<svg version="1.1" viewBox="0 0 500 500" xmlns="http://www.w3.org/2000/svg">
  <defs>
    <style>
      .secondary {
        fill: #0f0f25;
      }
      .white {
        fill: #fff;
      }
    </style>
  </defs>
  <path class="secondary" d="m179.57 248.69c34.85 7.19 65.95 24.83 89.81 49.47-23.02 22.9-54.75 37.08-89.81 37.08v-86.55z"/>
  <path class="secondary" d="M306.88,207.92c0,21.75-5.44,42.22-15.07,60.12-30.13-29.38-68.99-49.86-112.24-57.15V80.61c70.33,0,127.31,57,127.31,127.31Z"/>
  <path class="white" d="m144.26 207.92c12.03 0 23.83 1 35.31 2.96v37.8c-11.4-2.36-23.2-3.61-35.31-3.61v-37.16z"/>
  <path class="white" d="m355.74 419.39h-37.16c0-47.09-18.77-89.85-49.2-121.23 8.89-8.84 16.46-18.97 22.43-30.11 39.42 38.42 63.93 92.08 63.93 151.35z"/>
</svg>
