<?xml version="1.0" encoding="UTF-8"?>
<!DOCTYPE svg PUBLIC "-//W3C//DTD SVG 1.1//EN" "http://www.w3.org/Graphics/SVG/1.1/DTD/svg11.dtd">
<svg width="600" height="600" xmlns="http://www.w3.org/2000/svg">
    <circle cx="300.0" cy="300.0" r="300.0" fill="#ffffff" />
    <circle cx="300.0" cy="300.0" r="285.0" fill="#090035" />
    

    <path d="M288.79,276.95 L283.62,279.78 L280.79,284.95 L277.97,279.78 L272.79,276.95 L277.97,274.13 L280.79,268.95 L283.62,274.13 Z" fill="#ffffff">
        <animateTransform
            attributeName="transform"
            attributeType="XML"
            type="rotate"
            from="230.19 300.00 300.00"
            to="590.19 300.00 300.00"
            dur="6.13s"
            repeatCount="indefinite"
            additive="sum"/>
    </path>

    <path d="M299.39,354.32 L294.21,357.15 L291.39,362.32 L288.56,357.15 L283.39,354.32 L288.56,351.49 L291.39,346.32 L294.21,351.49 Z" fill="#ffffff">
        <animateTransform
            attributeName="transform"
            attributeType="XML"
            type="rotate"
            from="99.01 300.00 300.00"
            to="459.01 300.00 300.00"
            dur="15.04s"
            repeatCount="indefinite"
            additive="sum"/>
    </path>

    <path d="M301.21,220.29 L296.04,223.12 L293.21,228.29 L290.38,223.12 L285.21,220.29 L290.38,217.46 L293.21,212.29 L296.04,217.46 Z" fill="#ffffff">
        <animateTransform
            attributeName="transform"
            attributeType="XML"
            type="rotate"
            from="265.13 300.00 300.00"
            to="625.13 300.00 300.00"
            dur="35.45s"
            repeatCount="indefinite"
            additive="sum"/>
    </path>

    <path d="M389.81,234.18 L384.64,237.01 L381.81,242.18 L378.98,237.01 L373.81,234.18 L378.98,231.36 L381.81,226.18 L384.64,231.36 Z" fill="#ffffff">
        <animateTransform
            attributeName="transform"
            attributeType="XML"
            type="rotate"
            from="321.18 300.00 300.00"
            to="681.18 300.00 300.00"
            dur="8.91s"
            repeatCount="indefinite"
            additive="sum"/>
    </path>

    <path d="M193.33,361.25 L188.16,364.08 L185.33,369.25 L182.50,364.08 L177.33,361.25 L182.50,358.42 L185.33,353.25 L188.16,358.42 Z" fill="#ffffff">
        <animateTransform
            attributeName="transform"
            attributeType="XML"
            type="rotate"
            from="151.89 300.00 300.00"
            to="511.89 300.00 300.00"
            dur="6.34s"
            repeatCount="indefinite"
            additive="sum"/>
    </path>

    <path d="M338.35,452.00 L333.17,454.83 L330.35,460.00 L327.52,454.83 L322.35,452.00 L327.52,449.17 L330.35,444.00 L333.17,449.17 Z" fill="#ffffff">
        <animateTransform
            attributeName="transform"
            attributeType="XML"
            type="rotate"
            from="78.71 300.00 300.00"
            to="438.71 300.00 300.00"
            dur="27.74s"
            repeatCount="indefinite"
            additive="sum"/>
    </path>

    <path d="M485.50,329.87 L480.33,332.70 L477.50,337.87 L474.68,332.70 L469.50,329.87 L474.68,327.04 L477.50,321.87 L480.33,327.04 Z" fill="#ffffff">
        <animateTransform
            attributeName="transform"
            attributeType="XML"
            type="rotate"
            from="9.55 300.00 300.00"
            to="369.55 300.00 300.00"
            dur="13.95s"
            repeatCount="indefinite"
            additive="sum"/>
    </path>

    <path d="M187.38,134.24 L182.21,137.07 L179.38,142.24 L176.56,137.07 L171.38,134.24 L176.56,131.41 L179.38,126.24 L182.21,131.41 Z" fill="#ffffff">
        <animateTransform
            attributeName="transform"
            attributeType="XML"
            type="rotate"
            from="233.96 300.00 300.00"
            to="593.96 300.00 300.00"
            dur="29.52s"
            repeatCount="indefinite"
            additive="sum"/>
    </path>

    <path d="M350.47,526.04 L345.30,528.87 L342.47,534.04 L339.64,528.87 L334.47,526.04 L339.64,523.22 L342.47,518.04 L345.30,523.22 Z" fill="#ffffff">
        <animateTransform
            attributeName="transform"
            attributeType="XML"
            type="rotate"
            from="79.36 300.00 300.00"
            to="439.36 300.00 300.00"
            dur="31.52s"
            repeatCount="indefinite"
            additive="sum"/>
    </path>

    <path d="M401.02,62.57 L395.85,65.40 L393.02,70.57 L390.19,65.40 L385.02,62.57 L390.19,59.74 L393.02,54.57 L395.85,59.74 Z" fill="#ffffff">
        <animateTransform
            attributeName="transform"
            attributeType="XML"
            type="rotate"
            from="291.39 300.00 300.00"
            to="651.39 300.00 300.00"
            dur="5.29s"
            repeatCount="indefinite"
            additive="sum"/>
    </path>
</svg>