<?xml version="1.0" encoding="utf-8" standalone="no"?>
<!DOCTYPE svg PUBLIC "-//W3C//DTD SVG 1.1//EN"
  "http://www.w3.org/Graphics/SVG/1.1/DTD/svg11.dtd">
<svg xmlns:xlink="http://www.w3.org/1999/xlink" width="214.66pt" height="95.4pt" viewBox="0 0 214.66 95.4" xmlns="http://www.w3.org/2000/svg" version="1.1">
 <metadata>
  <rdf:RDF xmlns:dc="http://purl.org/dc/elements/1.1/" xmlns:cc="http://creativecommons.org/ns#" xmlns:rdf="http://www.w3.org/1999/02/22-rdf-syntax-ns#">
   <cc:Work>
    <dc:type rdf:resource="http://purl.org/dc/dcmitype/StillImage"/>
    <dc:date>2024-12-29T13:14:24.991336</dc:date>
    <dc:format>image/svg+xml</dc:format>
    <dc:creator>
     <cc:Agent>
      <dc:title>Matplotlib v3.9.3, https://matplotlib.org/</dc:title>
     </cc:Agent>
    </dc:creator>
   </cc:Work>
  </rdf:RDF>
 </metadata>
 <defs>
  <style type="text/css">*{stroke-linejoin: round; stroke-linecap: butt}</style>
 </defs>
 <g id="figure_1">
  <g id="patch_1">
   <path d="M 0 95.4 
L 214.66 95.4 
L 214.66 0 
L 0 0 
L 0 95.4 
z
" style="fill: none"/>
  </g>
  <g id="axes_1">
   <g id="patch_2">
    <path d="M -52.878 82.125 
L -44.533833 82.125 
L -44.533833 74.025 
L -52.878 74.025 
z
" clip-path="url(#p806e36929a)" style="fill: #4f1a3d; opacity: 0.000064"/>
   </g>
   <g id="patch_3">
    <path d="M -52.878 65.925 
L -44.533833 65.925 
L -44.533833 57.825 
L -52.878 57.825 
z
" clip-path="url(#p806e36929a)" style="fill: #4f1a3d; opacity: 0.002217"/>
   </g>
   <g id="patch_4">
    <path d="M -52.878 49.725 
L -44.533833 49.725 
L -44.533833 41.625 
L -52.878 41.625 
z
" clip-path="url(#p806e36929a)" style="fill: #4f1a3d; opacity: 0.004684"/>
   </g>
   <g id="patch_5">
    <path d="M -52.878 33.525 
L -44.533833 33.525 
L -44.533833 25.425 
L -52.878 25.425 
z
" clip-path="url(#p806e36929a)" style="fill: #4f1a3d; opacity: 0.000515"/>
   </g>
   <g id="patch_6">
    <path d="M -44.533833 74.025 
L -36.189667 74.025 
L -36.189667 65.925 
L -44.533833 65.925 
z
" clip-path="url(#p806e36929a)" style="fill: #48214a; opacity: 0.00116"/>
   </g>
   <g id="patch_7">
    <path d="M -44.533833 57.825 
L -36.189667 57.825 
L -36.189667 49.725 
L -44.533833 49.725 
z
" clip-path="url(#p806e36929a)" style="fill: #48214a; opacity: 0.010552"/>
   </g>
   <g id="patch_8">
    <path d="M -44.533833 41.625 
L -36.189667 41.625 
L -36.189667 33.525 
L -44.533833 33.525 
z
" clip-path="url(#p806e36929a)" style="fill: #48214a; opacity: 0.004994"/>
   </g>
   <g id="patch_9">
    <path d="M -44.533833 25.425 
L -36.189667 25.425 
L -36.189667 17.325 
L -44.533833 17.325 
z
" clip-path="url(#p806e36929a)" style="fill: #48214a; opacity: 0.000143"/>
   </g>
   <g id="patch_10">
    <path d="M -36.189667 82.125 
L -27.8455 82.125 
L -27.8455 74.025 
L -36.189667 74.025 
z
" clip-path="url(#p806e36929a)" style="fill: #3f2c5b; opacity: 0.000317"/>
   </g>
   <g id="patch_11">
    <path d="M -36.189667 65.925 
L -27.8455 65.925 
L -27.8455 57.825 
L -36.189667 57.825 
z
" clip-path="url(#p806e36929a)" style="fill: #3f2c5b; opacity: 0.011031"/>
   </g>
   <g id="patch_12">
    <path d="M -36.189667 49.725 
L -27.8455 49.725 
L -27.8455 41.625 
L -36.189667 41.625 
z
" clip-path="url(#p806e36929a)" style="fill: #3f2c5b; opacity: 0.023306"/>
   </g>
   <g id="patch_13">
    <path d="M -36.189667 33.525 
L -27.8455 33.525 
L -27.8455 25.425 
L -36.189667 25.425 
z
" clip-path="url(#p806e36929a)" style="fill: #3f2c5b; opacity: 0.002563"/>
   </g>
   <g id="patch_14">
    <path d="M -27.8455 74.025 
L -19.501333 74.025 
L -19.501333 65.925 
L -27.8455 65.925 
z
" clip-path="url(#p806e36929a)" style="fill: #383b6e; opacity: 0.00523"/>
   </g>
   <g id="patch_15">
    <path d="M -27.8455 57.825 
L -19.501333 57.825 
L -19.501333 49.725 
L -27.8455 49.725 
z
" clip-path="url(#p806e36929a)" style="fill: #383b6e; opacity: 0.047562"/>
   </g>
   <g id="patch_16">
    <path d="M -27.8455 41.625 
L -19.501333 41.625 
L -19.501333 33.525 
L -27.8455 33.525 
z
" clip-path="url(#p806e36929a)" style="fill: #383b6e; opacity: 0.022511"/>
   </g>
   <g id="patch_17">
    <path d="M -27.8455 25.425 
L -19.501333 25.425 
L -19.501333 17.325 
L -27.8455 17.325 
z
" clip-path="url(#p806e36929a)" style="fill: #383b6e; opacity: 0.000647"/>
   </g>
   <g id="patch_18">
    <path d="M -19.501333 82.125 
L -11.157167 82.125 
L -11.157167 74.025 
L -19.501333 74.025 
z
" clip-path="url(#p806e36929a)" style="fill: #334b7f; opacity: 0.001219"/>
   </g>
   <g id="patch_19">
    <path d="M -19.501333 65.925 
L -11.157167 65.925 
L -11.157167 57.825 
L -19.501333 57.825 
z
" clip-path="url(#p806e36929a)" style="fill: #334b7f; opacity: 0.042441"/>
   </g>
   <g id="patch_20">
    <path d="M -19.501333 49.725 
L -11.157167 49.725 
L -11.157167 41.625 
L -19.501333 41.625 
z
" clip-path="url(#p806e36929a)" style="fill: #334b7f; opacity: 0.089672"/>
   </g>
   <g id="patch_21">
    <path d="M -19.501333 33.525 
L -11.157167 33.525 
L -11.157167 25.425 
L -19.501333 25.425 
z
" clip-path="url(#p806e36929a)" style="fill: #334b7f; opacity: 0.009861"/>
   </g>
   <g id="patch_22">
    <path d="M -11.157167 74.025 
L -2.813 74.025 
L -2.813 65.925 
L -11.157167 65.925 
z
" clip-path="url(#p806e36929a)" style="fill: #375f90; opacity: 0.017175"/>
   </g>
   <g id="patch_23">
    <path d="M -11.157167 57.825 
L -2.813 57.825 
L -2.813 49.725 
L -11.157167 49.725 
z
" clip-path="url(#p806e36929a)" style="fill: #375f90; opacity: 0.156191"/>
   </g>
   <g id="patch_24">
    <path d="M -11.157167 41.625 
L -2.813 41.625 
L -2.813 33.525 
L -11.157167 33.525 
z
" clip-path="url(#p806e36929a)" style="fill: #375f90; opacity: 0.073924"/>
   </g>
   <g id="patch_25">
    <path d="M -11.157167 25.425 
L -2.813 25.425 
L -2.813 17.325 
L -11.157167 17.325 
z
" clip-path="url(#p806e36929a)" style="fill: #375f90; opacity: 0.002123"/>
   </g>
   <g id="patch_26">
    <path d="M -2.813 82.125 
L 5.531167 82.125 
L 5.531167 74.025 
L -2.813 74.025 
z
" clip-path="url(#p806e36929a)" style="fill: #4575a1; opacity: 0.003417"/>
   </g>
   <g id="patch_27">
    <path d="M -2.813 65.925 
L 5.531167 65.925 
L 5.531167 57.825 
L -2.813 57.825 
z
" clip-path="url(#p806e36929a)" style="fill: #4575a1; opacity: 0.118953"/>
   </g>
   <g id="patch_28">
    <path d="M -2.813 49.725 
L 5.531167 49.725 
L 5.531167 41.625 
L -2.813 41.625 
z
" clip-path="url(#p806e36929a)" style="fill: #4575a1; opacity: 0.25133"/>
   </g>
   <g id="patch_29">
    <path d="M -2.813 33.525 
L 5.531167 33.525 
L 5.531167 25.425 
L -2.813 25.425 
z
" clip-path="url(#p806e36929a)" style="fill: #4575a1; opacity: 0.027637"/>
   </g>
   <g id="patch_30">
    <path d="M 5.531167 74.025 
L 13.875333 74.025 
L 13.875333 65.925 
L 5.531167 65.925 
z
" clip-path="url(#p806e36929a)" style="fill: #5a89af; opacity: 0.041082"/>
   </g>
   <g id="patch_31">
    <path d="M 5.531167 57.825 
L 13.875333 57.825 
L 13.875333 49.725 
L 5.531167 49.725 
z
" clip-path="url(#p806e36929a)" style="fill: #5a89af; opacity: 0.373606"/>
   </g>
   <g id="patch_32">
    <path d="M 5.531167 41.625 
L 13.875333 41.625 
L 13.875333 33.525 
L 5.531167 33.525 
z
" clip-path="url(#p806e36929a)" style="fill: #5a89af; opacity: 0.176825"/>
   </g>
   <g id="patch_33">
    <path d="M 5.531167 25.425 
L 13.875333 25.425 
L 13.875333 17.325 
L 5.531167 17.325 
z
" clip-path="url(#p806e36929a)" style="fill: #5a89af; opacity: 0.005079"/>
   </g>
   <g id="patch_34">
    <path d="M 13.875333 82.125 
L 22.2195 82.125 
L 22.2195 74.025 
L 13.875333 74.025 
z
" clip-path="url(#p806e36929a)" style="fill: #759ebc; opacity: 0.006974"/>
   </g>
   <g id="patch_35">
    <path d="M 13.875333 65.925 
L 22.2195 65.925 
L 22.2195 57.825 
L 13.875333 57.825 
z
" clip-path="url(#p806e36929a)" style="fill: #759ebc; opacity: 0.242823"/>
   </g>
   <g id="patch_36">
    <path d="M 13.875333 49.725 
L 22.2195 49.725 
L 22.2195 41.625 
L 13.875333 41.625 
z
" clip-path="url(#p806e36929a)" style="fill: #759ebc; opacity: 0.513049"/>
   </g>
   <g id="patch_37">
    <path d="M 13.875333 33.525 
L 22.2195 33.525 
L 22.2195 25.425 
L 13.875333 25.425 
z
" clip-path="url(#p806e36929a)" style="fill: #759ebc; opacity: 0.056416"/>
   </g>
   <g id="patch_38">
    <path d="M 22.2195 74.025 
L 30.563667 74.025 
L 30.563667 65.925 
L 22.2195 65.925 
z
" clip-path="url(#p806e36929a)" style="fill: #93b1c5; opacity: 0.071567"/>
   </g>
   <g id="patch_39">
    <path d="M 22.2195 57.825 
L 30.563667 57.825 
L 30.563667 49.725 
L 22.2195 49.725 
z
" clip-path="url(#p806e36929a)" style="fill: #93b1c5; opacity: 0.650838"/>
   </g>
   <g id="patch_40">
    <path d="M 22.2195 41.625 
L 30.563667 41.625 
L 30.563667 33.525 
L 22.2195 33.525 
z
" clip-path="url(#p806e36929a)" style="fill: #93b1c5; opacity: 0.308037"/>
   </g>
   <g id="patch_41">
    <path d="M 22.2195 25.425 
L 30.563667 25.425 
L 30.563667 17.325 
L 22.2195 17.325 
z
" clip-path="url(#p806e36929a)" style="fill: #93b1c5; opacity: 0.008847"/>
   </g>
   <g id="patch_42">
    <path d="M 30.563667 82.125 
L 38.907833 82.125 
L 38.907833 74.025 
L 30.563667 74.025 
z
" clip-path="url(#p806e36929a)" style="fill: #aebdc8; opacity: 0.010368"/>
   </g>
   <g id="patch_43">
    <path d="M 30.563667 65.925 
L 38.907833 65.925 
L 38.907833 57.825 
L 30.563667 57.825 
z
" clip-path="url(#p806e36929a)" style="fill: #aebdc8; opacity: 0.360979"/>
   </g>
   <g id="patch_44">
    <path d="M 30.563667 49.725 
L 38.907833 49.725 
L 38.907833 41.625 
L 30.563667 41.625 
z
" clip-path="url(#p806e36929a)" style="fill: #aebdc8; opacity: 0.762696"/>
   </g>
   <g id="patch_45">
    <path d="M 30.563667 33.525 
L 38.907833 33.525 
L 38.907833 25.425 
L 30.563667 25.425 
z
" clip-path="url(#p806e36929a)" style="fill: #aebdc8; opacity: 0.083868"/>
   </g>
   <g id="patch_46">
    <path d="M 38.907833 74.025 
L 47.252 74.025 
L 47.252 65.925 
L 38.907833 65.925 
z
" clip-path="url(#p806e36929a)" style="fill: #c6c3c2; opacity: 0.090789"/>
   </g>
   <g id="patch_47">
    <path d="M 38.907833 57.825 
L 47.252 57.825 
L 47.252 49.725 
L 38.907833 49.725 
z
" clip-path="url(#p806e36929a)" style="fill: #c6c3c2; opacity: 0.825641"/>
   </g>
   <g id="patch_48">
    <path d="M 38.907833 41.625 
L 47.252 41.625 
L 47.252 33.525 
L 38.907833 33.525 
z
" clip-path="url(#p806e36929a)" style="fill: #c6c3c2; opacity: 0.390771"/>
   </g>
   <g id="patch_49">
    <path d="M 38.907833 25.425 
L 47.252 25.425 
L 47.252 17.325 
L 38.907833 17.325 
z
" clip-path="url(#p806e36929a)" style="fill: #c6c3c2; opacity: 0.011224"/>
   </g>
   <g id="patch_50">
    <path d="M 47.252 82.125 
L 55.596167 82.125 
L 55.596167 74.025 
L 47.252 74.025 
z
" clip-path="url(#p806e36929a)" style="fill: #d5beb3; opacity: 0.011224"/>
   </g>
   <g id="patch_51">
    <path d="M 47.252 65.925 
L 55.596167 65.925 
L 55.596167 57.825 
L 47.252 57.825 
z
" clip-path="url(#p806e36929a)" style="fill: #d5beb3; opacity: 0.390771"/>
   </g>
   <g id="patch_52">
    <path d="M 47.252 49.725 
L 55.596167 49.725 
L 55.596167 41.625 
L 47.252 41.625 
z
" clip-path="url(#p806e36929a)" style="fill: #d5beb3; opacity: 0.825641"/>
   </g>
   <g id="patch_53">
    <path d="M 47.252 33.525 
L 55.596167 33.525 
L 55.596167 25.425 
L 47.252 25.425 
z
" clip-path="url(#p806e36929a)" style="fill: #d5beb3; opacity: 0.090789"/>
   </g>
   <g id="patch_54">
    <path d="M 55.596167 74.025 
L 63.940333 74.025 
L 63.940333 65.925 
L 55.596167 65.925 
z
" clip-path="url(#p806e36929a)" style="fill: #d9b49f; opacity: 0.083868"/>
   </g>
   <g id="patch_55">
    <path d="M 55.596167 57.825 
L 63.940333 57.825 
L 63.940333 49.725 
L 55.596167 49.725 
z
" clip-path="url(#p806e36929a)" style="fill: #d9b49f; opacity: 0.762696"/>
   </g>
   <g id="patch_56">
    <path d="M 55.596167 41.625 
L 63.940333 41.625 
L 63.940333 33.525 
L 55.596167 33.525 
z
" clip-path="url(#p806e36929a)" style="fill: #d9b49f; opacity: 0.360979"/>
   </g>
   <g id="patch_57">
    <path d="M 55.596167 25.425 
L 63.940333 25.425 
L 63.940333 17.325 
L 55.596167 17.325 
z
" clip-path="url(#p806e36929a)" style="fill: #d9b49f; opacity: 0.010368"/>
   </g>
   <g id="patch_58">
    <path d="M 63.940333 82.125 
L 72.2845 82.125 
L 72.2845 74.025 
L 63.940333 74.025 
z
" clip-path="url(#p806e36929a)" style="fill: #d7a387; opacity: 0.008847"/>
   </g>
   <g id="patch_59">
    <path d="M 63.940333 65.925 
L 72.2845 65.925 
L 72.2845 57.825 
L 63.940333 57.825 
z
" clip-path="url(#p806e36929a)" style="fill: #d7a387; opacity: 0.308037"/>
   </g>
   <g id="patch_60">
    <path d="M 63.940333 49.725 
L 72.2845 49.725 
L 72.2845 41.625 
L 63.940333 41.625 
z
" clip-path="url(#p806e36929a)" style="fill: #d7a387; opacity: 0.650838"/>
   </g>
   <g id="patch_61">
    <path d="M 63.940333 33.525 
L 72.2845 33.525 
L 72.2845 25.425 
L 63.940333 25.425 
z
" clip-path="url(#p806e36929a)" style="fill: #d7a387; opacity: 0.071567"/>
   </g>
   <g id="patch_62">
    <path d="M 72.2845 74.025 
L 80.628667 74.025 
L 80.628667 65.925 
L 72.2845 65.925 
z
" clip-path="url(#p806e36929a)" style="fill: #d08f6d; opacity: 0.056416"/>
   </g>
   <g id="patch_63">
    <path d="M 72.2845 57.825 
L 80.628667 57.825 
L 80.628667 49.725 
L 72.2845 49.725 
z
" clip-path="url(#p806e36929a)" style="fill: #d08f6d; opacity: 0.513049"/>
   </g>
   <g id="patch_64">
    <path d="M 72.2845 41.625 
L 80.628667 41.625 
L 80.628667 33.525 
L 72.2845 33.525 
z
" clip-path="url(#p806e36929a)" style="fill: #d08f6d; opacity: 0.242823"/>
   </g>
   <g id="patch_65">
    <path d="M 72.2845 25.425 
L 80.628667 25.425 
L 80.628667 17.325 
L 72.2845 17.325 
z
" clip-path="url(#p806e36929a)" style="fill: #d08f6d; opacity: 0.006974"/>
   </g>
   <g id="patch_66">
    <path d="M 80.628667 82.125 
L 88.972833 82.125 
L 88.972833 74.025 
L 80.628667 74.025 
z
" clip-path="url(#p806e36929a)" style="fill: #c57c56; opacity: 0.005079"/>
   </g>
   <g id="patch_67">
    <path d="M 80.628667 65.925 
L 88.972833 65.925 
L 88.972833 57.825 
L 80.628667 57.825 
z
" clip-path="url(#p806e36929a)" style="fill: #c57c56; opacity: 0.176825"/>
   </g>
   <g id="patch_68">
    <path d="M 80.628667 49.725 
L 88.972833 49.725 
L 88.972833 41.625 
L 80.628667 41.625 
z
" clip-path="url(#p806e36929a)" style="fill: #c57c56; opacity: 0.373606"/>
   </g>
   <g id="patch_69">
    <path d="M 80.628667 33.525 
L 88.972833 33.525 
L 88.972833 25.425 
L 80.628667 25.425 
z
" clip-path="url(#p806e36929a)" style="fill: #c57c56; opacity: 0.041082"/>
   </g>
   <g id="patch_70">
    <path d="M 88.972833 74.025 
L 97.317 74.025 
L 97.317 65.925 
L 88.972833 65.925 
z
" clip-path="url(#p806e36929a)" style="fill: #b5643f; opacity: 0.027637"/>
   </g>
   <g id="patch_71">
    <path d="M 88.972833 57.825 
L 97.317 57.825 
L 97.317 49.725 
L 88.972833 49.725 
z
" clip-path="url(#p806e36929a)" style="fill: #b5643f; opacity: 0.25133"/>
   </g>
   <g id="patch_72">
    <path d="M 88.972833 41.625 
L 97.317 41.625 
L 97.317 33.525 
L 88.972833 33.525 
z
" clip-path="url(#p806e36929a)" style="fill: #b5643f; opacity: 0.118953"/>
   </g>
   <g id="patch_73">
    <path d="M 88.972833 25.425 
L 97.317 25.425 
L 97.317 17.325 
L 88.972833 17.325 
z
" clip-path="url(#p806e36929a)" style="fill: #b5643f; opacity: 0.003417"/>
   </g>
   <g id="patch_74">
    <path d="M 97.317 82.125 
L 105.661167 82.125 
L 105.661167 74.025 
L 97.317 74.025 
z
" clip-path="url(#p806e36929a)" style="fill: #a14b2c; opacity: 0.002123"/>
   </g>
   <g id="patch_75">
    <path d="M 97.317 65.925 
L 105.661167 65.925 
L 105.661167 57.825 
L 97.317 57.825 
z
" clip-path="url(#p806e36929a)" style="fill: #a14b2c; opacity: 0.073924"/>
   </g>
   <g id="patch_76">
    <path d="M 97.317 49.725 
L 105.661167 49.725 
L 105.661167 41.625 
L 97.317 41.625 
z
" clip-path="url(#p806e36929a)" style="fill: #a14b2c; opacity: 0.156191"/>
   </g>
   <g id="patch_77">
    <path d="M 97.317 33.525 
L 105.661167 33.525 
L 105.661167 25.425 
L 97.317 25.425 
z
" clip-path="url(#p806e36929a)" style="fill: #a14b2c; opacity: 0.017175"/>
   </g>
   <g id="patch_78">
    <path d="M 105.661167 74.025 
L 114.005333 74.025 
L 114.005333 65.925 
L 105.661167 65.925 
z
" clip-path="url(#p806e36929a)" style="fill: #8d3721; opacity: 0.009861"/>
   </g>
   <g id="patch_79">
    <path d="M 105.661167 57.825 
L 114.005333 57.825 
L 114.005333 49.725 
L 105.661167 49.725 
z
" clip-path="url(#p806e36929a)" style="fill: #8d3721; opacity: 0.089672"/>
   </g>
   <g id="patch_80">
    <path d="M 105.661167 41.625 
L 114.005333 41.625 
L 114.005333 33.525 
L 105.661167 33.525 
z
" clip-path="url(#p806e36929a)" style="fill: #8d3721; opacity: 0.042441"/>
   </g>
   <g id="patch_81">
    <path d="M 105.661167 25.425 
L 114.005333 25.425 
L 114.005333 17.325 
L 105.661167 17.325 
z
" clip-path="url(#p806e36929a)" style="fill: #8d3721; opacity: 0.001219"/>
   </g>
   <g id="patch_82">
    <path d="M 114.005333 82.125 
L 122.3495 82.125 
L 122.3495 74.025 
L 114.005333 74.025 
z
" clip-path="url(#p806e36929a)" style="fill: #7a251e; opacity: 0.000647"/>
   </g>
   <g id="patch_83">
    <path d="M 114.005333 65.925 
L 122.3495 65.925 
L 122.3495 57.825 
L 114.005333 57.825 
z
" clip-path="url(#p806e36929a)" style="fill: #7a251e; opacity: 0.022511"/>
   </g>
   <g id="patch_84">
    <path d="M 114.005333 49.725 
L 122.3495 49.725 
L 122.3495 41.625 
L 114.005333 41.625 
z
" clip-path="url(#p806e36929a)" style="fill: #7a251e; opacity: 0.047562"/>
   </g>
   <g id="patch_85">
    <path d="M 114.005333 33.525 
L 122.3495 33.525 
L 122.3495 25.425 
L 114.005333 25.425 
z
" clip-path="url(#p806e36929a)" style="fill: #7a251e; opacity: 0.00523"/>
   </g>
   <g id="patch_86">
    <path d="M 122.3495 74.025 
L 130.693667 74.025 
L 130.693667 65.925 
L 122.3495 65.925 
z
" clip-path="url(#p806e36929a)" style="fill: #6b1a21; opacity: 0.002563"/>
   </g>
   <g id="patch_87">
    <path d="M 122.3495 57.825 
L 130.693667 57.825 
L 130.693667 49.725 
L 122.3495 49.725 
z
" clip-path="url(#p806e36929a)" style="fill: #6b1a21; opacity: 0.023306"/>
   </g>
   <g id="patch_88">
    <path d="M 122.3495 41.625 
L 130.693667 41.625 
L 130.693667 33.525 
L 122.3495 33.525 
z
" clip-path="url(#p806e36929a)" style="fill: #6b1a21; opacity: 0.011031"/>
   </g>
   <g id="patch_89">
    <path d="M 122.3495 25.425 
L 130.693667 25.425 
L 130.693667 17.325 
L 122.3495 17.325 
z
" clip-path="url(#p806e36929a)" style="fill: #6b1a21; opacity: 0.000317"/>
   </g>
   <g id="patch_90">
    <path d="M 130.693667 82.125 
L 139.037833 82.125 
L 139.037833 74.025 
L 130.693667 74.025 
z
" clip-path="url(#p806e36929a)" style="fill: #611627; opacity: 0.000143"/>
   </g>
   <g id="patch_91">
    <path d="M 130.693667 65.925 
L 139.037833 65.925 
L 139.037833 57.825 
L 130.693667 57.825 
z
" clip-path="url(#p806e36929a)" style="fill: #611627; opacity: 0.004994"/>
   </g>
   <g id="patch_92">
    <path d="M 130.693667 49.725 
L 139.037833 49.725 
L 139.037833 41.625 
L 130.693667 41.625 
z
" clip-path="url(#p806e36929a)" style="fill: #611627; opacity: 0.010552"/>
   </g>
   <g id="patch_93">
    <path d="M 130.693667 33.525 
L 139.037833 33.525 
L 139.037833 25.425 
L 130.693667 25.425 
z
" clip-path="url(#p806e36929a)" style="fill: #611627; opacity: 0.00116"/>
   </g>
   <g id="patch_94">
    <path d="M 139.037833 74.025 
L 147.382 74.025 
L 147.382 65.925 
L 139.037833 65.925 
z
" clip-path="url(#p806e36929a)" style="fill: #571631; opacity: 0.000515"/>
   </g>
   <g id="patch_95">
    <path d="M 139.037833 57.825 
L 147.382 57.825 
L 147.382 49.725 
L 139.037833 49.725 
z
" clip-path="url(#p806e36929a)" style="fill: #571631; opacity: 0.004684"/>
   </g>
   <g id="patch_96">
    <path d="M 139.037833 41.625 
L 147.382 41.625 
L 147.382 33.525 
L 139.037833 33.525 
z
" clip-path="url(#p806e36929a)" style="fill: #571631; opacity: 0.002217"/>
   </g>
   <g id="patch_97">
    <path d="M 139.037833 25.425 
L 147.382 25.425 
L 147.382 17.325 
L 139.037833 17.325 
z
" clip-path="url(#p806e36929a)" style="fill: #571631; opacity: 0.000064"/>
   </g>
   <g id="line2d_1">
    <path d="M 125.3534 65.925 
L 187.434 65.925 
" clip-path="url(#p806e36929a)" style="fill: none; stroke: #002e4a; stroke-width: 3; stroke-linecap: square"/>
   </g>
   <g id="line2d_2">
    <path d="M 131.96198 72.0729 
L 180.82542 72.0729 
" clip-path="url(#p806e36929a)" style="fill: none; stroke: #d62929; stroke-width: 3; stroke-linecap: square"/>
   </g>
   <g id="line2d_3">
    <path d="M 138.57056 78.2208 
L 174.21684 78.2208 
" clip-path="url(#p806e36929a)" style="fill: none; stroke: #f78000; stroke-width: 3; stroke-linecap: square"/>
   </g>
   <g id="line2d_4">
    <path d="M 145.17914 84.3687 
L 167.60826 84.3687 
" clip-path="url(#p806e36929a)" style="fill: none; stroke: #fcbf4a; stroke-width: 3; stroke-linecap: square"/>
   </g>
   <g id="text_1">
    <path d="M 20.5095 42.353281 
Q 20.43825 41.872344 20.325438 41.759531 
Q 20.586688 41.094531 20.711375 40.447344 
Q 20.842 39.794219 20.919188 39.200469 
Q 20.990438 38.677969 21.085438 38.232656 
Q 21.180438 37.787344 21.328875 37.383594 
Q 21.95825 37.235156 22.272938 36.843281 
Q 22.587625 36.451406 22.771688 36.154531 
Q 23.442625 36.118906 23.6445 36.344531 
Q 23.852313 36.564219 24.107625 37.086719 
Q 24.297625 37.490469 24.630125 37.959531 
Q 24.962625 38.422656 25.633563 38.677969 
Q 25.740438 39.087656 25.888875 39.461719 
Q 26.037313 39.829844 26.227313 40.239531 
Q 26.559813 41.017344 26.856688 41.854531 
Q 27.153563 42.685781 27.189188 43.427969 
Q 26.743875 44.282969 26.500438 45.399219 
Q 26.262938 46.509531 26.203563 47.643594 
Q 26.150125 48.771719 26.262938 49.810781 
Q 26.37575 50.849844 26.631063 51.556406 
L 26.856688 52.150156 
L 27.670125 52.078906 
Q 29.006063 51.740469 30.08075 51.318906 
Q 31.161375 50.891406 32.087625 50.297656 
Q 33.013875 49.703906 33.868875 48.943906 
Q 34.723875 48.177969 35.650125 47.138906 
Q 36.54075 46.099844 37.247313 44.787656 
Q 37.953875 43.469531 38.417 42.062344 
Q 38.880125 40.649219 39.135438 39.242031 
Q 39.396688 37.828906 39.473875 36.599844 
Q 40.180438 36.267344 40.251688 35.525156 
L 40.138875 35.044219 
Q 40.032 34.860156 40.049813 34.693906 
Q 40.067625 34.521719 40.138875 34.373281 
Q 40.43575 33.524219 41.403563 33.114531 
Q 42.068563 33.559844 42.6445 34.082344 
Q 43.220438 34.598906 43.701375 35.115469 
Q 43.778563 36.118906 43.99825 36.843281 
Q 44.223875 37.567656 44.485125 38.232656 
Q 44.740438 38.867969 44.942313 39.461719 
Q 45.150125 40.055469 45.227313 40.904531 
Q 44.85325 42.020781 44.687 43.006406 
Q 44.52075 43.986094 44.372313 45.060781 
L 44.295125 45.470469 
Q 43.630125 46.622344 42.977 47.827656 
Q 42.329813 49.032969 41.920125 49.923594 
Q 41.700438 50.149219 41.534188 50.446094 
Q 41.367938 50.742969 41.2195 51.039844 
Q 41.142313 51.146719 41.011688 51.407969 
Q 40.881063 51.669219 40.774188 51.782031 
L 39.883563 51.443594 
L 39.657938 52.595469 
L 39.064188 52.743906 
L 38.618875 53.266406 
Q 37.763875 54.750781 36.819813 55.754219 
Q 35.87575 56.751719 34.706063 57.535469 
Q 33.536375 58.313281 32.069813 59.002031 
Q 30.60325 59.684844 28.709188 60.462656 
Q 27.967 60.349844 27.426688 60.332031 
Q 26.892313 60.314219 26.37575 60.278594 
Q 25.85325 60.278594 25.372313 60.242969 
Q 24.891375 60.201406 24.256063 60.130156 
Q 24.107625 59.797656 23.846375 59.649219 
Q 23.591063 59.500781 23.365438 59.500781 
Q 22.62325 59.126719 22.249188 58.461719 
Q 21.881063 57.790781 21.477313 56.977344 
Q 21.287313 56.532031 21.085438 56.086719 
Q 20.883563 55.641406 20.586688 55.231719 
L 21.328875 55.006094 
L 20.361063 53.895781 
Q 20.24825 53.782969 20.117625 53.676094 
Q 19.992938 53.563281 19.880125 53.414844 
L 19.880125 52.708281 
Q 19.731688 49.662344 19.7495 47.085469 
Q 19.767313 44.508594 20.43825 42.537344 
L 20.5095 42.353281 
z
M 54.056375 60.314219 
Q 53.017313 60.646719 51.794188 60.979219 
Q 50.571063 61.317656 49.342 61.317656 
Q 47.4895 61.317656 46.414813 60.391406 
Q 46.224813 59.981719 46.076375 59.833281 
Q 45.9695 59.684844 45.8745 59.518594 
Q 45.7795 59.352344 45.743875 59.055469 
Q 45.298563 58.532969 45.037313 57.850156 
Q 44.782 57.161406 44.687 56.437031 
Q 44.592 55.712656 44.645438 54.970469 
Q 44.704813 54.228281 44.888875 53.563281 
Q 44.966063 53.414844 44.983875 53.266406 
Q 45.001688 53.117969 45.037313 52.927969 
Q 45.18575 52.334219 45.352 51.782031 
Q 45.524188 51.223906 45.821063 50.814219 
Q 45.672625 50.481719 45.821063 50.072031 
Q 45.9695 49.662344 46.153563 49.329844 
Q 46.670125 47.922656 47.020438 46.937031 
Q 47.376688 45.951406 47.75075 44.989531 
Q 48.380125 43.321094 48.932313 41.688281 
Q 49.490438 40.055469 49.93575 38.161406 
Q 50.232625 37.977344 50.381063 37.900156 
Q 50.606688 37.828906 50.755125 37.787344 
Q 51.420125 38.125781 52.31075 38.440469 
Q 53.201375 38.755156 53.795125 38.755156 
Q 54.092 38.939219 54.16325 39.034219 
Q 54.240438 39.123281 54.317625 39.200469 
Q 54.727313 39.681406 55.024188 40.186094 
Q 55.321063 40.684844 55.20825 41.498281 
Q 54.982625 41.836719 54.87575 41.836719 
Q 54.68575 42.578906 54.483875 43.101406 
Q 54.282 43.617969 54.056375 44.134531 
Q 53.795125 44.692656 53.5695 45.250781 
Q 53.349813 45.802969 53.201375 46.622344 
Q 53.052938 46.806406 52.9995 46.954844 
Q 52.946063 47.103281 52.868875 47.287344 
Q 52.797625 47.477344 52.702625 47.679219 
Q 52.607625 47.881094 52.423563 48.029531 
Q 52.31075 48.997344 52.067313 49.591094 
Q 51.829813 50.184844 51.568563 50.778594 
Q 51.12325 51.853281 50.772938 52.933906 
Q 50.422625 54.008594 50.345438 55.380156 
Q 50.5295 55.302969 50.69575 55.302969 
Q 50.867938 55.302969 51.016375 55.302969 
Q 51.348875 55.302969 51.794188 55.415781 
Q 52.9045 54.822031 54.222625 54.715156 
Q 55.54075 54.602344 56.841063 54.560781 
Q 57.357625 54.560781 57.874188 54.560781 
Q 58.396688 54.560781 58.842 54.489531 
Q 59.180438 54.673594 59.2695 54.691406 
Q 59.3645 54.709219 59.548563 54.709219 
Q 59.809813 54.709219 59.993875 54.750781 
Q 60.439188 55.154531 60.848875 55.344531 
Q 61.258563 55.528594 61.703875 55.677031 
Q 62.107625 55.825469 62.4995 55.991719 
Q 62.891375 56.157969 63.2595 56.454844 
L 63.52075 58.052031 
Q 63.782 58.384531 63.740438 58.497344 
Q 63.740438 58.794219 63.592 58.942656 
L 63.669188 59.352344 
Q 63.111063 59.459219 62.90325 59.607656 
Q 62.701375 59.756094 62.517313 59.946094 
Q 62.220438 59.981719 62.089813 59.981719 
Q 61.959188 59.981719 61.852313 59.981719 
Q 61.329813 59.981719 60.587625 60.165781 
Q 59.584188 59.833281 58.5095 59.833281 
Q 58.099813 59.833281 57.6545 59.868906 
Q 57.209188 59.904531 56.763875 59.946094 
Q 56.318563 60.017344 55.855438 60.058906 
Q 55.392313 60.094531 54.911375 60.094531 
L 54.056375 60.314219 
z
M 82.594969 42.875781 
Q 81.668719 42.875781 80.594031 43.006406 
Q 79.519344 43.131094 78.480281 43.279531 
Q 77.738094 43.392344 77.049344 43.469531 
Q 76.360594 43.540781 75.808406 43.576406 
Q 75.547156 44.395781 75.285906 45.025156 
Q 75.024656 45.654531 74.727781 46.248281 
Q 74.430906 46.883594 74.187469 47.530781 
Q 73.949969 48.177969 73.730281 48.920156 
Q 73.356219 49.513906 73.112781 50.018594 
Q 72.875281 50.517344 72.726844 51.146719 
Q 72.281531 51.704844 72.055906 52.316406 
Q 71.836219 52.927969 71.723406 53.373281 
L 71.574969 53.818594 
Q 71.355281 54.044219 71.313719 54.174844 
Q 71.278094 54.305469 71.129656 54.412344 
Q 71.094031 54.822031 70.868406 55.231719 
Q 70.797156 55.415781 70.755594 55.582031 
Q 70.719969 55.748281 70.719969 55.825469 
Q 70.719969 56.193594 70.535906 56.306406 
Q 70.571531 56.490469 70.535906 56.698281 
Q 70.500281 56.900156 70.464656 57.084219 
Q 70.351844 57.529531 70.387469 57.790781 
Q 70.500281 57.939219 70.589344 58.052031 
Q 70.684344 58.164844 70.719969 58.348906 
Q 70.945594 58.497344 71.058406 58.532969 
Q 71.206844 58.645781 71.503719 58.794219 
L 71.836219 59.162344 
Q 72.020281 60.242969 71.503719 60.872344 
Q 70.945594 61.578906 69.609656 61.578906 
L 69.164344 61.578906 
Q 68.980281 61.394844 68.938719 61.282031 
Q 68.641844 61.169219 68.457781 61.092031 
Q 68.273719 61.020781 68.125281 60.801094 
Q 67.644344 60.575469 67.347469 60.427031 
L 67.009031 60.242969 
Q 67.009031 59.833281 67.009031 59.797656 
Q 66.753719 59.459219 66.623094 59.055469 
Q 66.492469 58.645781 66.415281 58.236094 
Q 66.344031 57.903594 66.249031 57.606719 
Q 66.159969 57.309844 66.011531 57.084219 
Q 65.934344 54.934844 66.415281 53.450469 
Q 66.902156 51.966094 67.418719 50.594531 
Q 67.715594 49.852344 68.012469 49.092344 
Q 68.309344 48.326406 68.534969 47.512969 
L 68.867469 47.138906 
Q 69.128719 46.545156 69.294969 46.159219 
Q 69.461219 45.767344 69.645281 45.357656 
Q 69.758094 45.102344 69.847156 44.858906 
Q 69.942156 44.615469 70.019344 44.431406 
Q 69.793719 44.431406 69.609656 44.449219 
Q 69.425594 44.467031 69.235594 44.508594 
Q 69.015906 44.544219 68.825906 44.562031 
Q 68.641844 44.579844 68.457781 44.579844 
Q 68.196531 44.579844 68.089656 44.544219 
Q 67.679969 44.728281 67.199031 44.728281 
L 66.824969 44.728281 
Q 66.712156 44.728281 66.617156 44.710469 
Q 66.528094 44.692656 66.456844 44.692656 
Q 66.082781 44.692656 65.863094 44.805469 
Q 65.417781 44.805469 65.008094 44.805469 
L 64.634031 44.805469 
Q 64.562781 44.805469 64.449969 44.823281 
Q 64.337156 44.841094 64.265906 44.841094 
Q 64.004656 44.841094 63.707781 44.787656 
Q 63.410906 44.728281 63.078406 44.544219 
Q 62.633094 43.950469 62.484656 43.914844 
L 62.152156 43.469531 
Q 62.110594 43.243906 62.033406 43.042031 
Q 61.962156 42.834219 61.890906 42.578906 
Q 61.742469 42.204844 61.611844 41.777344 
Q 61.481219 41.349844 61.481219 40.756094 
Q 61.516844 40.459219 61.629656 40.310781 
Q 61.742469 40.162344 61.813719 40.055469 
L 61.926531 39.497344 
L 62.407469 39.532969 
L 63.446531 39.532969 
Q 64.634031 39.532969 65.857156 39.443906 
Q 67.086219 39.348906 68.386531 39.236094 
Q 69.128719 39.164844 69.888719 39.093594 
Q 70.648719 39.016406 71.462156 38.939219 
Q 71.610594 38.606719 71.759031 38.309844 
L 72.133094 38.125781 
Q 72.798094 38.084219 73.077156 38.292031 
Q 73.356219 38.493906 73.540281 38.677969 
Q 74.359656 38.606719 75.190906 38.517656 
Q 76.028094 38.422656 76.883094 38.274219 
Q 78.141844 38.084219 79.424344 37.935781 
Q 80.706844 37.787344 81.894344 37.787344 
Q 82.410906 37.787344 82.891844 37.828906 
Q 83.378719 37.864531 83.782469 37.935781 
L 84.156531 38.197031 
Q 84.269344 38.422656 84.471219 38.606719 
Q 84.673094 38.790781 84.898719 38.974844 
Q 85.344031 39.384531 85.789344 39.942656 
Q 86.234656 40.500781 86.121844 41.575469 
Q 85.824969 42.020781 85.676531 42.092031 
L 85.344031 42.537344 
L 84.969969 42.501719 
Q 84.750281 42.501719 84.560281 42.561094 
Q 84.376219 42.614531 84.192156 42.685781 
Q 84.043719 42.762969 83.895281 42.822344 
Q 83.746844 42.875781 83.562781 42.911406 
Q 83.230281 42.911406 83.022469 42.893594 
Q 82.820594 42.875781 82.594969 42.875781 
z
M 85.675047 56.864531 
Q 85.271297 58.348906 84.950672 59.108906 
Q 84.635984 59.868906 84.006609 60.688281 
Q 83.525672 60.611094 83.335672 60.795156 
Q 83.151609 60.985156 82.931922 61.133594 
Q 82.599422 61.204844 82.450984 61.127656 
Q 82.302547 61.056406 82.189734 60.961406 
Q 82.076922 60.872344 81.910672 60.777344 
Q 81.744422 60.688281 81.411922 60.688281 
Q 81.334734 60.391406 81.239734 60.130156 
Q 81.150672 59.868906 80.740984 59.946094 
Q 80.818172 59.649219 80.776609 59.447344 
Q 80.740984 59.239531 80.681609 59.073281 
Q 80.628172 58.907031 80.592547 58.740781 
Q 80.556922 58.568594 80.628172 58.313281 
Q 80.444109 58.313281 80.331297 58.052031 
Q 80.224422 57.790781 80.075984 57.529531 
Q 80.182859 56.864531 80.295672 56.270781 
Q 80.408484 55.677031 80.574734 55.160469 
Q 80.740984 54.637969 80.853797 54.121406 
Q 80.966609 53.598906 80.740984 53.040781 
Q 80.889422 53.153594 80.960672 52.987344 
Q 81.037859 52.821094 81.073484 52.542031 
Q 81.115047 52.262969 81.115047 51.983906 
Q 81.115047 51.704844 81.073484 51.520781 
Q 81.447547 50.552969 81.685047 49.537656 
Q 81.928484 48.516406 82.130359 47.512969 
Q 82.338172 46.509531 82.557859 45.547656 
Q 82.783484 44.579844 83.151609 43.766406 
Q 83.561297 43.689219 84.060047 43.855469 
Q 84.564734 44.021719 84.677547 44.282969 
Q 85.639422 43.540781 86.381609 42.483906 
Q 87.123797 41.427031 87.901609 40.423594 
Q 88.685359 39.420156 89.629422 38.642344 
Q 90.573484 37.864531 92.022234 37.716094 
Q 92.764422 38.274219 93.672859 38.850156 
Q 94.581297 39.420156 95.175047 40.352344 
Q 95.471922 40.500781 95.673797 40.667031 
Q 95.881609 40.833281 96.178484 41.017344 
L 96.178484 41.462656 
Q 96.623797 41.872344 96.902859 42.412656 
Q 97.181922 42.947031 97.401609 43.558594 
Q 97.627234 44.170156 97.846922 44.787656 
Q 98.072547 45.399219 98.369422 45.951406 
Q 98.292234 46.141406 98.292234 46.272031 
Q 98.292234 46.396719 98.345672 46.545156 
Q 98.405047 46.693594 98.440672 46.842031 
Q 98.482234 46.990469 98.440672 47.251719 
Q 98.333797 48.884531 97.383797 49.887969 
Q 96.439734 50.891406 95.103797 51.538594 
Q 93.767859 52.185781 92.241922 52.631094 
Q 90.721922 53.076406 89.498797 53.598906 
Q 89.498797 53.747344 89.629422 53.747344 
Q 89.760047 53.747344 89.724422 53.931406 
Q 90.615047 54.489531 91.131609 54.822031 
Q 91.654109 55.154531 92.117234 55.380156 
Q 92.580359 55.599844 93.114734 55.772031 
Q 93.655047 55.938281 94.622859 56.157969 
Q 95.584734 56.383594 96.119109 56.514219 
Q 96.659422 56.638906 97.104734 56.733906 
Q 97.550047 56.828906 98.013172 56.882344 
Q 98.482234 56.935781 99.331297 57.012969 
Q 99.669734 57.345469 99.907234 57.808594 
Q 100.150672 58.271719 100.221922 58.740781 
Q 100.299109 59.203906 100.257547 59.631406 
Q 100.221922 60.052969 100.002234 60.314219 
Q 100.037859 60.427031 100.168484 60.409219 
Q 100.299109 60.391406 100.447547 60.427031 
Q 100.221922 60.575469 100.073484 60.795156 
Q 99.925047 61.020781 99.776609 61.240469 
Q 99.628172 61.466094 99.444109 61.632344 
Q 99.260047 61.798594 98.927547 61.840156 
Q 97.775672 62.285469 96.030047 61.893594 
Q 94.284422 61.501719 91.612547 60.462656 
Q 90.276609 59.946094 89.439422 59.554219 
Q 88.608172 59.162344 87.996609 58.776406 
Q 87.385047 58.384531 86.880359 57.939219 
Q 86.381609 57.493906 85.675047 56.864531 
z
M 90.983172 44.134531 
Q 90.573484 44.728281 90.074734 45.215156 
Q 89.575984 45.696094 89.106922 46.194844 
Q 88.643797 46.693594 88.269734 47.311094 
Q 87.901609 47.922656 87.753172 48.736094 
Q 89.053484 48.587656 90.460672 48.011719 
Q 91.873797 47.435781 93.138484 46.919219 
Q 92.990047 45.767344 92.336922 45.066719 
Q 91.689734 44.360156 90.983172 44.134531 
z
M 119.889891 57.606719 
Q 119.670203 58.236094 119.242703 58.889219 
Q 118.815203 59.536406 118.239266 60.041094 
Q 117.663328 60.539844 116.956766 60.872344 
Q 116.256141 61.204844 115.478328 61.246406 
Q 114.991453 61.133594 114.825203 61.002969 
Q 114.658953 60.872344 114.474891 60.759531 
Q 114.362078 60.688281 114.267078 60.634844 
Q 114.178016 60.575469 114.100828 60.539844 
L 113.655516 60.349844 
L 113.803953 59.868906 
Q 113.881141 59.572031 113.768328 59.405781 
Q 113.655516 59.239531 113.323016 58.942656 
Q 113.210203 58.829844 113.097391 58.722969 
Q 112.990516 58.610156 112.913328 58.497344 
L 112.283953 57.790781 
L 113.287391 57.529531 
Q 114.213641 57.274219 114.528328 56.864531 
Q 114.843016 56.454844 114.771766 55.492969 
Q 114.029578 55.344531 113.524891 55.457344 
Q 113.026141 55.564219 112.509578 55.712656 
Q 111.838641 55.896719 111.149891 56.027344 
Q 110.467078 56.157969 109.647703 56.157969 
Q 109.350828 56.157969 109.089578 56.140156 
Q 108.834266 56.122344 108.537391 56.086719 
L 108.163328 56.009531 
Q 108.092078 55.599844 108.014891 55.546406 
Q 107.943641 55.492969 107.866453 55.415781 
Q 107.682391 55.231719 107.474578 54.917031 
Q 107.272703 54.602344 107.385516 54.115469 
Q 107.201453 53.782969 107.165828 53.450469 
Q 106.940203 53.895781 106.827391 54.376719 
L 106.678953 54.750781 
L 106.310828 54.822031 
Q 106.233641 54.857656 106.198016 54.988281 
Q 106.162391 55.118906 106.162391 55.196094 
L 105.978328 55.825469 
Q 105.901141 55.896719 105.823953 55.956094 
Q 105.752703 56.009531 105.681453 56.086719 
Q 105.604266 56.419219 105.491453 56.751719 
Q 105.384578 57.084219 105.271766 57.381094 
Q 105.087703 57.867969 104.957078 58.331094 
Q 104.826453 58.794219 104.862078 59.239531 
L 104.713641 59.649219 
Q 104.529578 59.868906 104.303953 59.999531 
Q 104.084266 60.130156 103.858641 60.242969 
Q 103.787391 60.314219 103.656766 60.373594 
Q 103.526141 60.427031 103.454891 60.462656 
L 103.342078 60.872344 
L 102.896766 60.949531 
Q 102.487078 61.020781 102.320828 61.056406 
Q 102.154578 61.097969 101.928953 61.097969 
L 101.560828 61.056406 
Q 101.151141 60.723906 100.925516 60.522031 
Q 100.705828 60.314219 100.408953 60.130156 
Q 100.076453 59.684844 100.040828 59.465156 
Q 99.999266 59.239531 99.963641 59.055469 
Q 99.886453 58.829844 99.868641 58.681406 
Q 99.850828 58.532969 99.779578 58.461719 
L 99.292703 58.016406 
L 99.702391 57.677969 
L 99.738016 57.048594 
Q 100.486141 55.154531 101.317391 53.414844 
Q 102.154578 51.669219 103.045203 49.852344 
Q 103.342078 49.258594 103.621141 48.664844 
Q 103.900203 48.071094 104.197078 47.477344 
Q 104.155516 47.364531 104.155516 47.216094 
Q 104.155516 47.067656 104.232703 46.883594 
Q 104.642391 46.248281 104.897703 45.749531 
Q 105.158953 45.250781 105.420203 44.728281 
Q 105.717078 44.098906 106.031766 43.505156 
Q 106.346453 42.911406 106.827391 42.282031 
L 107.421141 42.020781 
Q 107.533953 41.985156 107.682391 41.931719 
Q 107.830828 41.872344 108.014891 41.872344 
L 108.573016 41.943594 
Q 109.612078 41.462656 110.389891 40.589844 
Q 111.173641 39.717031 111.987078 38.493906 
L 112.361141 37.977344 
L 112.842078 38.274219 
Q 113.026141 38.381094 113.358641 38.476094 
Q 113.697078 38.571094 114.065203 38.677969 
Q 114.736141 38.826406 115.329891 39.016406 
Q 115.923641 39.200469 116.291766 39.568594 
Q 116.517391 40.162344 116.553016 40.459219 
Q 116.588641 40.756094 116.665828 41.052969 
Q 116.772703 41.688281 116.867703 42.317656 
Q 116.962703 42.947031 116.998328 43.724844 
Q 117.182391 44.360156 117.313016 44.971719 
Q 117.443641 45.583281 117.556453 46.212656 
Q 117.740516 47.103281 117.924578 47.940469 
Q 118.108641 48.771719 118.405516 49.513906 
Q 118.702391 49.513906 118.779578 49.555469 
Q 118.963641 49.478281 119.165516 49.442656 
Q 119.373328 49.407031 119.634578 49.365469 
L 120.038328 49.329844 
L 120.186766 49.703906 
Q 120.228328 49.887969 120.560828 50.072031 
Q 121.041766 50.107656 121.261453 50.279844 
Q 121.487078 50.446094 121.671141 50.630156 
Q 121.819578 50.778594 121.968016 50.849844 
L 122.526141 51.075469 
L 122.229266 51.633594 
Q 121.861141 52.298594 121.172391 52.910156 
Q 120.483641 53.521719 119.634578 53.931406 
Q 119.670203 54.157031 119.688016 54.358906 
Q 119.705828 54.560781 119.783016 54.786406 
Q 119.889891 55.415781 119.961141 56.086719 
Q 120.038328 56.751719 119.967078 57.458281 
L 119.889891 57.606719 
z
M 109.166766 51.188281 
Q 110.283016 51.111094 111.191453 51.022031 
Q 112.099891 50.927031 113.210203 50.701406 
Q 112.954891 49.591094 112.658016 48.385781 
Q 112.361141 47.180469 112.022703 45.992969 
L 111.803016 46.361094 
Q 111.060828 47.138906 110.372078 48.106719 
Q 109.689266 49.068594 109.202391 49.923594 
Q 108.982703 50.256094 108.757078 50.594531 
Q 108.537391 50.927031 108.353328 51.259531 
Q 108.573016 51.223906 108.774891 51.223906 
Q 108.982703 51.223906 109.166766 51.188281 
z
" style="fill: #4682b4; stroke: #ffffff; stroke-width: 3"/>
    <path d="M 20.5095 42.353281 
Q 20.43825 41.872344 20.325438 41.759531 
Q 20.586688 41.094531 20.711375 40.447344 
Q 20.842 39.794219 20.919188 39.200469 
Q 20.990438 38.677969 21.085438 38.232656 
Q 21.180438 37.787344 21.328875 37.383594 
Q 21.95825 37.235156 22.272938 36.843281 
Q 22.587625 36.451406 22.771688 36.154531 
Q 23.442625 36.118906 23.6445 36.344531 
Q 23.852313 36.564219 24.107625 37.086719 
Q 24.297625 37.490469 24.630125 37.959531 
Q 24.962625 38.422656 25.633563 38.677969 
Q 25.740438 39.087656 25.888875 39.461719 
Q 26.037313 39.829844 26.227313 40.239531 
Q 26.559813 41.017344 26.856688 41.854531 
Q 27.153563 42.685781 27.189188 43.427969 
Q 26.743875 44.282969 26.500438 45.399219 
Q 26.262938 46.509531 26.203563 47.643594 
Q 26.150125 48.771719 26.262938 49.810781 
Q 26.37575 50.849844 26.631063 51.556406 
L 26.856688 52.150156 
L 27.670125 52.078906 
Q 29.006063 51.740469 30.08075 51.318906 
Q 31.161375 50.891406 32.087625 50.297656 
Q 33.013875 49.703906 33.868875 48.943906 
Q 34.723875 48.177969 35.650125 47.138906 
Q 36.54075 46.099844 37.247313 44.787656 
Q 37.953875 43.469531 38.417 42.062344 
Q 38.880125 40.649219 39.135438 39.242031 
Q 39.396688 37.828906 39.473875 36.599844 
Q 40.180438 36.267344 40.251688 35.525156 
L 40.138875 35.044219 
Q 40.032 34.860156 40.049813 34.693906 
Q 40.067625 34.521719 40.138875 34.373281 
Q 40.43575 33.524219 41.403563 33.114531 
Q 42.068563 33.559844 42.6445 34.082344 
Q 43.220438 34.598906 43.701375 35.115469 
Q 43.778563 36.118906 43.99825 36.843281 
Q 44.223875 37.567656 44.485125 38.232656 
Q 44.740438 38.867969 44.942313 39.461719 
Q 45.150125 40.055469 45.227313 40.904531 
Q 44.85325 42.020781 44.687 43.006406 
Q 44.52075 43.986094 44.372313 45.060781 
L 44.295125 45.470469 
Q 43.630125 46.622344 42.977 47.827656 
Q 42.329813 49.032969 41.920125 49.923594 
Q 41.700438 50.149219 41.534188 50.446094 
Q 41.367938 50.742969 41.2195 51.039844 
Q 41.142313 51.146719 41.011688 51.407969 
Q 40.881063 51.669219 40.774188 51.782031 
L 39.883563 51.443594 
L 39.657938 52.595469 
L 39.064188 52.743906 
L 38.618875 53.266406 
Q 37.763875 54.750781 36.819813 55.754219 
Q 35.87575 56.751719 34.706063 57.535469 
Q 33.536375 58.313281 32.069813 59.002031 
Q 30.60325 59.684844 28.709188 60.462656 
Q 27.967 60.349844 27.426688 60.332031 
Q 26.892313 60.314219 26.37575 60.278594 
Q 25.85325 60.278594 25.372313 60.242969 
Q 24.891375 60.201406 24.256063 60.130156 
Q 24.107625 59.797656 23.846375 59.649219 
Q 23.591063 59.500781 23.365438 59.500781 
Q 22.62325 59.126719 22.249188 58.461719 
Q 21.881063 57.790781 21.477313 56.977344 
Q 21.287313 56.532031 21.085438 56.086719 
Q 20.883563 55.641406 20.586688 55.231719 
L 21.328875 55.006094 
L 20.361063 53.895781 
Q 20.24825 53.782969 20.117625 53.676094 
Q 19.992938 53.563281 19.880125 53.414844 
L 19.880125 52.708281 
Q 19.731688 49.662344 19.7495 47.085469 
Q 19.767313 44.508594 20.43825 42.537344 
L 20.5095 42.353281 
z
M 54.056375 60.314219 
Q 53.017313 60.646719 51.794188 60.979219 
Q 50.571063 61.317656 49.342 61.317656 
Q 47.4895 61.317656 46.414813 60.391406 
Q 46.224813 59.981719 46.076375 59.833281 
Q 45.9695 59.684844 45.8745 59.518594 
Q 45.7795 59.352344 45.743875 59.055469 
Q 45.298563 58.532969 45.037313 57.850156 
Q 44.782 57.161406 44.687 56.437031 
Q 44.592 55.712656 44.645438 54.970469 
Q 44.704813 54.228281 44.888875 53.563281 
Q 44.966063 53.414844 44.983875 53.266406 
Q 45.001688 53.117969 45.037313 52.927969 
Q 45.18575 52.334219 45.352 51.782031 
Q 45.524188 51.223906 45.821063 50.814219 
Q 45.672625 50.481719 45.821063 50.072031 
Q 45.9695 49.662344 46.153563 49.329844 
Q 46.670125 47.922656 47.020438 46.937031 
Q 47.376688 45.951406 47.75075 44.989531 
Q 48.380125 43.321094 48.932313 41.688281 
Q 49.490438 40.055469 49.93575 38.161406 
Q 50.232625 37.977344 50.381063 37.900156 
Q 50.606688 37.828906 50.755125 37.787344 
Q 51.420125 38.125781 52.31075 38.440469 
Q 53.201375 38.755156 53.795125 38.755156 
Q 54.092 38.939219 54.16325 39.034219 
Q 54.240438 39.123281 54.317625 39.200469 
Q 54.727313 39.681406 55.024188 40.186094 
Q 55.321063 40.684844 55.20825 41.498281 
Q 54.982625 41.836719 54.87575 41.836719 
Q 54.68575 42.578906 54.483875 43.101406 
Q 54.282 43.617969 54.056375 44.134531 
Q 53.795125 44.692656 53.5695 45.250781 
Q 53.349813 45.802969 53.201375 46.622344 
Q 53.052938 46.806406 52.9995 46.954844 
Q 52.946063 47.103281 52.868875 47.287344 
Q 52.797625 47.477344 52.702625 47.679219 
Q 52.607625 47.881094 52.423563 48.029531 
Q 52.31075 48.997344 52.067313 49.591094 
Q 51.829813 50.184844 51.568563 50.778594 
Q 51.12325 51.853281 50.772938 52.933906 
Q 50.422625 54.008594 50.345438 55.380156 
Q 50.5295 55.302969 50.69575 55.302969 
Q 50.867938 55.302969 51.016375 55.302969 
Q 51.348875 55.302969 51.794188 55.415781 
Q 52.9045 54.822031 54.222625 54.715156 
Q 55.54075 54.602344 56.841063 54.560781 
Q 57.357625 54.560781 57.874188 54.560781 
Q 58.396688 54.560781 58.842 54.489531 
Q 59.180438 54.673594 59.2695 54.691406 
Q 59.3645 54.709219 59.548563 54.709219 
Q 59.809813 54.709219 59.993875 54.750781 
Q 60.439188 55.154531 60.848875 55.344531 
Q 61.258563 55.528594 61.703875 55.677031 
Q 62.107625 55.825469 62.4995 55.991719 
Q 62.891375 56.157969 63.2595 56.454844 
L 63.52075 58.052031 
Q 63.782 58.384531 63.740438 58.497344 
Q 63.740438 58.794219 63.592 58.942656 
L 63.669188 59.352344 
Q 63.111063 59.459219 62.90325 59.607656 
Q 62.701375 59.756094 62.517313 59.946094 
Q 62.220438 59.981719 62.089813 59.981719 
Q 61.959188 59.981719 61.852313 59.981719 
Q 61.329813 59.981719 60.587625 60.165781 
Q 59.584188 59.833281 58.5095 59.833281 
Q 58.099813 59.833281 57.6545 59.868906 
Q 57.209188 59.904531 56.763875 59.946094 
Q 56.318563 60.017344 55.855438 60.058906 
Q 55.392313 60.094531 54.911375 60.094531 
L 54.056375 60.314219 
z
M 82.594969 42.875781 
Q 81.668719 42.875781 80.594031 43.006406 
Q 79.519344 43.131094 78.480281 43.279531 
Q 77.738094 43.392344 77.049344 43.469531 
Q 76.360594 43.540781 75.808406 43.576406 
Q 75.547156 44.395781 75.285906 45.025156 
Q 75.024656 45.654531 74.727781 46.248281 
Q 74.430906 46.883594 74.187469 47.530781 
Q 73.949969 48.177969 73.730281 48.920156 
Q 73.356219 49.513906 73.112781 50.018594 
Q 72.875281 50.517344 72.726844 51.146719 
Q 72.281531 51.704844 72.055906 52.316406 
Q 71.836219 52.927969 71.723406 53.373281 
L 71.574969 53.818594 
Q 71.355281 54.044219 71.313719 54.174844 
Q 71.278094 54.305469 71.129656 54.412344 
Q 71.094031 54.822031 70.868406 55.231719 
Q 70.797156 55.415781 70.755594 55.582031 
Q 70.719969 55.748281 70.719969 55.825469 
Q 70.719969 56.193594 70.535906 56.306406 
Q 70.571531 56.490469 70.535906 56.698281 
Q 70.500281 56.900156 70.464656 57.084219 
Q 70.351844 57.529531 70.387469 57.790781 
Q 70.500281 57.939219 70.589344 58.052031 
Q 70.684344 58.164844 70.719969 58.348906 
Q 70.945594 58.497344 71.058406 58.532969 
Q 71.206844 58.645781 71.503719 58.794219 
L 71.836219 59.162344 
Q 72.020281 60.242969 71.503719 60.872344 
Q 70.945594 61.578906 69.609656 61.578906 
L 69.164344 61.578906 
Q 68.980281 61.394844 68.938719 61.282031 
Q 68.641844 61.169219 68.457781 61.092031 
Q 68.273719 61.020781 68.125281 60.801094 
Q 67.644344 60.575469 67.347469 60.427031 
L 67.009031 60.242969 
Q 67.009031 59.833281 67.009031 59.797656 
Q 66.753719 59.459219 66.623094 59.055469 
Q 66.492469 58.645781 66.415281 58.236094 
Q 66.344031 57.903594 66.249031 57.606719 
Q 66.159969 57.309844 66.011531 57.084219 
Q 65.934344 54.934844 66.415281 53.450469 
Q 66.902156 51.966094 67.418719 50.594531 
Q 67.715594 49.852344 68.012469 49.092344 
Q 68.309344 48.326406 68.534969 47.512969 
L 68.867469 47.138906 
Q 69.128719 46.545156 69.294969 46.159219 
Q 69.461219 45.767344 69.645281 45.357656 
Q 69.758094 45.102344 69.847156 44.858906 
Q 69.942156 44.615469 70.019344 44.431406 
Q 69.793719 44.431406 69.609656 44.449219 
Q 69.425594 44.467031 69.235594 44.508594 
Q 69.015906 44.544219 68.825906 44.562031 
Q 68.641844 44.579844 68.457781 44.579844 
Q 68.196531 44.579844 68.089656 44.544219 
Q 67.679969 44.728281 67.199031 44.728281 
L 66.824969 44.728281 
Q 66.712156 44.728281 66.617156 44.710469 
Q 66.528094 44.692656 66.456844 44.692656 
Q 66.082781 44.692656 65.863094 44.805469 
Q 65.417781 44.805469 65.008094 44.805469 
L 64.634031 44.805469 
Q 64.562781 44.805469 64.449969 44.823281 
Q 64.337156 44.841094 64.265906 44.841094 
Q 64.004656 44.841094 63.707781 44.787656 
Q 63.410906 44.728281 63.078406 44.544219 
Q 62.633094 43.950469 62.484656 43.914844 
L 62.152156 43.469531 
Q 62.110594 43.243906 62.033406 43.042031 
Q 61.962156 42.834219 61.890906 42.578906 
Q 61.742469 42.204844 61.611844 41.777344 
Q 61.481219 41.349844 61.481219 40.756094 
Q 61.516844 40.459219 61.629656 40.310781 
Q 61.742469 40.162344 61.813719 40.055469 
L 61.926531 39.497344 
L 62.407469 39.532969 
L 63.446531 39.532969 
Q 64.634031 39.532969 65.857156 39.443906 
Q 67.086219 39.348906 68.386531 39.236094 
Q 69.128719 39.164844 69.888719 39.093594 
Q 70.648719 39.016406 71.462156 38.939219 
Q 71.610594 38.606719 71.759031 38.309844 
L 72.133094 38.125781 
Q 72.798094 38.084219 73.077156 38.292031 
Q 73.356219 38.493906 73.540281 38.677969 
Q 74.359656 38.606719 75.190906 38.517656 
Q 76.028094 38.422656 76.883094 38.274219 
Q 78.141844 38.084219 79.424344 37.935781 
Q 80.706844 37.787344 81.894344 37.787344 
Q 82.410906 37.787344 82.891844 37.828906 
Q 83.378719 37.864531 83.782469 37.935781 
L 84.156531 38.197031 
Q 84.269344 38.422656 84.471219 38.606719 
Q 84.673094 38.790781 84.898719 38.974844 
Q 85.344031 39.384531 85.789344 39.942656 
Q 86.234656 40.500781 86.121844 41.575469 
Q 85.824969 42.020781 85.676531 42.092031 
L 85.344031 42.537344 
L 84.969969 42.501719 
Q 84.750281 42.501719 84.560281 42.561094 
Q 84.376219 42.614531 84.192156 42.685781 
Q 84.043719 42.762969 83.895281 42.822344 
Q 83.746844 42.875781 83.562781 42.911406 
Q 83.230281 42.911406 83.022469 42.893594 
Q 82.820594 42.875781 82.594969 42.875781 
z
M 85.675047 56.864531 
Q 85.271297 58.348906 84.950672 59.108906 
Q 84.635984 59.868906 84.006609 60.688281 
Q 83.525672 60.611094 83.335672 60.795156 
Q 83.151609 60.985156 82.931922 61.133594 
Q 82.599422 61.204844 82.450984 61.127656 
Q 82.302547 61.056406 82.189734 60.961406 
Q 82.076922 60.872344 81.910672 60.777344 
Q 81.744422 60.688281 81.411922 60.688281 
Q 81.334734 60.391406 81.239734 60.130156 
Q 81.150672 59.868906 80.740984 59.946094 
Q 80.818172 59.649219 80.776609 59.447344 
Q 80.740984 59.239531 80.681609 59.073281 
Q 80.628172 58.907031 80.592547 58.740781 
Q 80.556922 58.568594 80.628172 58.313281 
Q 80.444109 58.313281 80.331297 58.052031 
Q 80.224422 57.790781 80.075984 57.529531 
Q 80.182859 56.864531 80.295672 56.270781 
Q 80.408484 55.677031 80.574734 55.160469 
Q 80.740984 54.637969 80.853797 54.121406 
Q 80.966609 53.598906 80.740984 53.040781 
Q 80.889422 53.153594 80.960672 52.987344 
Q 81.037859 52.821094 81.073484 52.542031 
Q 81.115047 52.262969 81.115047 51.983906 
Q 81.115047 51.704844 81.073484 51.520781 
Q 81.447547 50.552969 81.685047 49.537656 
Q 81.928484 48.516406 82.130359 47.512969 
Q 82.338172 46.509531 82.557859 45.547656 
Q 82.783484 44.579844 83.151609 43.766406 
Q 83.561297 43.689219 84.060047 43.855469 
Q 84.564734 44.021719 84.677547 44.282969 
Q 85.639422 43.540781 86.381609 42.483906 
Q 87.123797 41.427031 87.901609 40.423594 
Q 88.685359 39.420156 89.629422 38.642344 
Q 90.573484 37.864531 92.022234 37.716094 
Q 92.764422 38.274219 93.672859 38.850156 
Q 94.581297 39.420156 95.175047 40.352344 
Q 95.471922 40.500781 95.673797 40.667031 
Q 95.881609 40.833281 96.178484 41.017344 
L 96.178484 41.462656 
Q 96.623797 41.872344 96.902859 42.412656 
Q 97.181922 42.947031 97.401609 43.558594 
Q 97.627234 44.170156 97.846922 44.787656 
Q 98.072547 45.399219 98.369422 45.951406 
Q 98.292234 46.141406 98.292234 46.272031 
Q 98.292234 46.396719 98.345672 46.545156 
Q 98.405047 46.693594 98.440672 46.842031 
Q 98.482234 46.990469 98.440672 47.251719 
Q 98.333797 48.884531 97.383797 49.887969 
Q 96.439734 50.891406 95.103797 51.538594 
Q 93.767859 52.185781 92.241922 52.631094 
Q 90.721922 53.076406 89.498797 53.598906 
Q 89.498797 53.747344 89.629422 53.747344 
Q 89.760047 53.747344 89.724422 53.931406 
Q 90.615047 54.489531 91.131609 54.822031 
Q 91.654109 55.154531 92.117234 55.380156 
Q 92.580359 55.599844 93.114734 55.772031 
Q 93.655047 55.938281 94.622859 56.157969 
Q 95.584734 56.383594 96.119109 56.514219 
Q 96.659422 56.638906 97.104734 56.733906 
Q 97.550047 56.828906 98.013172 56.882344 
Q 98.482234 56.935781 99.331297 57.012969 
Q 99.669734 57.345469 99.907234 57.808594 
Q 100.150672 58.271719 100.221922 58.740781 
Q 100.299109 59.203906 100.257547 59.631406 
Q 100.221922 60.052969 100.002234 60.314219 
Q 100.037859 60.427031 100.168484 60.409219 
Q 100.299109 60.391406 100.447547 60.427031 
Q 100.221922 60.575469 100.073484 60.795156 
Q 99.925047 61.020781 99.776609 61.240469 
Q 99.628172 61.466094 99.444109 61.632344 
Q 99.260047 61.798594 98.927547 61.840156 
Q 97.775672 62.285469 96.030047 61.893594 
Q 94.284422 61.501719 91.612547 60.462656 
Q 90.276609 59.946094 89.439422 59.554219 
Q 88.608172 59.162344 87.996609 58.776406 
Q 87.385047 58.384531 86.880359 57.939219 
Q 86.381609 57.493906 85.675047 56.864531 
z
M 90.983172 44.134531 
Q 90.573484 44.728281 90.074734 45.215156 
Q 89.575984 45.696094 89.106922 46.194844 
Q 88.643797 46.693594 88.269734 47.311094 
Q 87.901609 47.922656 87.753172 48.736094 
Q 89.053484 48.587656 90.460672 48.011719 
Q 91.873797 47.435781 93.138484 46.919219 
Q 92.990047 45.767344 92.336922 45.066719 
Q 91.689734 44.360156 90.983172 44.134531 
z
M 119.889891 57.606719 
Q 119.670203 58.236094 119.242703 58.889219 
Q 118.815203 59.536406 118.239266 60.041094 
Q 117.663328 60.539844 116.956766 60.872344 
Q 116.256141 61.204844 115.478328 61.246406 
Q 114.991453 61.133594 114.825203 61.002969 
Q 114.658953 60.872344 114.474891 60.759531 
Q 114.362078 60.688281 114.267078 60.634844 
Q 114.178016 60.575469 114.100828 60.539844 
L 113.655516 60.349844 
L 113.803953 59.868906 
Q 113.881141 59.572031 113.768328 59.405781 
Q 113.655516 59.239531 113.323016 58.942656 
Q 113.210203 58.829844 113.097391 58.722969 
Q 112.990516 58.610156 112.913328 58.497344 
L 112.283953 57.790781 
L 113.287391 57.529531 
Q 114.213641 57.274219 114.528328 56.864531 
Q 114.843016 56.454844 114.771766 55.492969 
Q 114.029578 55.344531 113.524891 55.457344 
Q 113.026141 55.564219 112.509578 55.712656 
Q 111.838641 55.896719 111.149891 56.027344 
Q 110.467078 56.157969 109.647703 56.157969 
Q 109.350828 56.157969 109.089578 56.140156 
Q 108.834266 56.122344 108.537391 56.086719 
L 108.163328 56.009531 
Q 108.092078 55.599844 108.014891 55.546406 
Q 107.943641 55.492969 107.866453 55.415781 
Q 107.682391 55.231719 107.474578 54.917031 
Q 107.272703 54.602344 107.385516 54.115469 
Q 107.201453 53.782969 107.165828 53.450469 
Q 106.940203 53.895781 106.827391 54.376719 
L 106.678953 54.750781 
L 106.310828 54.822031 
Q 106.233641 54.857656 106.198016 54.988281 
Q 106.162391 55.118906 106.162391 55.196094 
L 105.978328 55.825469 
Q 105.901141 55.896719 105.823953 55.956094 
Q 105.752703 56.009531 105.681453 56.086719 
Q 105.604266 56.419219 105.491453 56.751719 
Q 105.384578 57.084219 105.271766 57.381094 
Q 105.087703 57.867969 104.957078 58.331094 
Q 104.826453 58.794219 104.862078 59.239531 
L 104.713641 59.649219 
Q 104.529578 59.868906 104.303953 59.999531 
Q 104.084266 60.130156 103.858641 60.242969 
Q 103.787391 60.314219 103.656766 60.373594 
Q 103.526141 60.427031 103.454891 60.462656 
L 103.342078 60.872344 
L 102.896766 60.949531 
Q 102.487078 61.020781 102.320828 61.056406 
Q 102.154578 61.097969 101.928953 61.097969 
L 101.560828 61.056406 
Q 101.151141 60.723906 100.925516 60.522031 
Q 100.705828 60.314219 100.408953 60.130156 
Q 100.076453 59.684844 100.040828 59.465156 
Q 99.999266 59.239531 99.963641 59.055469 
Q 99.886453 58.829844 99.868641 58.681406 
Q 99.850828 58.532969 99.779578 58.461719 
L 99.292703 58.016406 
L 99.702391 57.677969 
L 99.738016 57.048594 
Q 100.486141 55.154531 101.317391 53.414844 
Q 102.154578 51.669219 103.045203 49.852344 
Q 103.342078 49.258594 103.621141 48.664844 
Q 103.900203 48.071094 104.197078 47.477344 
Q 104.155516 47.364531 104.155516 47.216094 
Q 104.155516 47.067656 104.232703 46.883594 
Q 104.642391 46.248281 104.897703 45.749531 
Q 105.158953 45.250781 105.420203 44.728281 
Q 105.717078 44.098906 106.031766 43.505156 
Q 106.346453 42.911406 106.827391 42.282031 
L 107.421141 42.020781 
Q 107.533953 41.985156 107.682391 41.931719 
Q 107.830828 41.872344 108.014891 41.872344 
L 108.573016 41.943594 
Q 109.612078 41.462656 110.389891 40.589844 
Q 111.173641 39.717031 111.987078 38.493906 
L 112.361141 37.977344 
L 112.842078 38.274219 
Q 113.026141 38.381094 113.358641 38.476094 
Q 113.697078 38.571094 114.065203 38.677969 
Q 114.736141 38.826406 115.329891 39.016406 
Q 115.923641 39.200469 116.291766 39.568594 
Q 116.517391 40.162344 116.553016 40.459219 
Q 116.588641 40.756094 116.665828 41.052969 
Q 116.772703 41.688281 116.867703 42.317656 
Q 116.962703 42.947031 116.998328 43.724844 
Q 117.182391 44.360156 117.313016 44.971719 
Q 117.443641 45.583281 117.556453 46.212656 
Q 117.740516 47.103281 117.924578 47.940469 
Q 118.108641 48.771719 118.405516 49.513906 
Q 118.702391 49.513906 118.779578 49.555469 
Q 118.963641 49.478281 119.165516 49.442656 
Q 119.373328 49.407031 119.634578 49.365469 
L 120.038328 49.329844 
L 120.186766 49.703906 
Q 120.228328 49.887969 120.560828 50.072031 
Q 121.041766 50.107656 121.261453 50.279844 
Q 121.487078 50.446094 121.671141 50.630156 
Q 121.819578 50.778594 121.968016 50.849844 
L 122.526141 51.075469 
L 122.229266 51.633594 
Q 121.861141 52.298594 121.172391 52.910156 
Q 120.483641 53.521719 119.634578 53.931406 
Q 119.670203 54.157031 119.688016 54.358906 
Q 119.705828 54.560781 119.783016 54.786406 
Q 119.889891 55.415781 119.961141 56.086719 
Q 120.038328 56.751719 119.967078 57.458281 
L 119.889891 57.606719 
z
M 109.166766 51.188281 
Q 110.283016 51.111094 111.191453 51.022031 
Q 112.099891 50.927031 113.210203 50.701406 
Q 112.954891 49.591094 112.658016 48.385781 
Q 112.361141 47.180469 112.022703 45.992969 
L 111.803016 46.361094 
Q 111.060828 47.138906 110.372078 48.106719 
Q 109.689266 49.068594 109.202391 49.923594 
Q 108.982703 50.256094 108.757078 50.594531 
Q 108.537391 50.927031 108.353328 51.259531 
Q 108.573016 51.223906 108.774891 51.223906 
Q 108.982703 51.223906 109.166766 51.188281 
z
" style="fill: #4682b4"/>
   </g>
   <g id="text_2">
    <path d="M 145.796688 37.840781 
Q 145.796688 41.296406 143.6295 43.481406 
Q 141.462313 45.666406 138.042313 45.666406 
L 129.343875 45.666406 
L 129.343875 57.410781 
L 125.805125 57.410781 
L 125.805125 29.706406 
L 137.246688 29.706406 
Q 141.3495 29.706406 143.570125 31.820156 
Q 145.796688 33.927969 145.796688 37.840781 
z
M 140.6845 41.260781 
Q 142.1095 39.966406 142.1095 37.686406 
Q 142.1095 35.406406 140.6845 34.117969 
Q 139.2595 32.823594 136.712313 32.823594 
L 129.343875 32.823594 
L 129.343875 42.555156 
L 136.712313 42.555156 
Q 139.2595 42.555156 140.6845 41.260781 
z
M 153.431124 57.410781 
L 150.278311 57.410781 
L 150.278311 29.706406 
L 153.431124 29.706406 
L 153.431124 57.410781 
z
M 175.511498 47.607969 
Q 175.511498 52.506406 173.118685 55.243594 
Q 170.725873 57.980781 166.50431 57.980781 
Q 162.247123 57.980781 159.872123 55.225781 
Q 157.497123 52.470781 157.497123 47.453594 
Q 157.497123 42.477969 159.872123 39.705156 
Q 162.247123 36.926406 166.468685 36.926406 
Q 170.797123 36.926406 173.15431 39.705156 
Q 175.511498 42.477969 175.511498 47.607969 
z
M 172.20431 47.566406 
Q 172.20431 43.885156 170.702123 41.872344 
Q 169.205873 39.853594 166.50431 39.853594 
Q 163.84431 39.853594 162.32431 41.872344 
Q 160.80431 43.885156 160.80431 47.453594 
Q 160.80431 51.063594 162.32431 53.058594 
Q 163.84431 55.053594 166.50431 55.053594 
Q 169.128685 55.053594 170.666498 53.058594 
Q 172.20431 51.063594 172.20431 47.566406 
z
M 186.913869 57.410781 
Q 185.429494 57.677969 184.325119 57.677969 
Q 182.466682 57.677969 181.475119 56.864531 
Q 180.489494 56.045156 180.489494 54.525156 
L 180.489494 40.085156 
L 177.793869 40.085156 
L 177.793869 37.496406 
L 180.489494 37.496406 
L 180.489494 32.027969 
L 183.642307 32.027969 
L 183.642307 37.496406 
L 186.913869 37.496406 
L 186.913869 40.085156 
L 183.642307 40.085156 
L 183.642307 53.117969 
Q 183.642307 54.180781 184.004494 54.542969 
Q 184.366682 54.905156 185.393869 54.905156 
Q 186.343869 54.905156 186.913869 54.750781 
L 186.913869 57.410781 
z
" style="fill: #ffffff; stroke: #4682b4; stroke-width: 3"/>
    <path d="M 145.796688 37.840781 
Q 145.796688 41.296406 143.6295 43.481406 
Q 141.462313 45.666406 138.042313 45.666406 
L 129.343875 45.666406 
L 129.343875 57.410781 
L 125.805125 57.410781 
L 125.805125 29.706406 
L 137.246688 29.706406 
Q 141.3495 29.706406 143.570125 31.820156 
Q 145.796688 33.927969 145.796688 37.840781 
z
M 140.6845 41.260781 
Q 142.1095 39.966406 142.1095 37.686406 
Q 142.1095 35.406406 140.6845 34.117969 
Q 139.2595 32.823594 136.712313 32.823594 
L 129.343875 32.823594 
L 129.343875 42.555156 
L 136.712313 42.555156 
Q 139.2595 42.555156 140.6845 41.260781 
z
M 153.431124 57.410781 
L 150.278311 57.410781 
L 150.278311 29.706406 
L 153.431124 29.706406 
L 153.431124 57.410781 
z
M 175.511498 47.607969 
Q 175.511498 52.506406 173.118685 55.243594 
Q 170.725873 57.980781 166.50431 57.980781 
Q 162.247123 57.980781 159.872123 55.225781 
Q 157.497123 52.470781 157.497123 47.453594 
Q 157.497123 42.477969 159.872123 39.705156 
Q 162.247123 36.926406 166.468685 36.926406 
Q 170.797123 36.926406 173.15431 39.705156 
Q 175.511498 42.477969 175.511498 47.607969 
z
M 172.20431 47.566406 
Q 172.20431 43.885156 170.702123 41.872344 
Q 169.205873 39.853594 166.50431 39.853594 
Q 163.84431 39.853594 162.32431 41.872344 
Q 160.80431 43.885156 160.80431 47.453594 
Q 160.80431 51.063594 162.32431 53.058594 
Q 163.84431 55.053594 166.50431 55.053594 
Q 169.128685 55.053594 170.666498 53.058594 
Q 172.20431 51.063594 172.20431 47.566406 
z
M 186.913869 57.410781 
Q 185.429494 57.677969 184.325119 57.677969 
Q 182.466682 57.677969 181.475119 56.864531 
Q 180.489494 56.045156 180.489494 54.525156 
L 180.489494 40.085156 
L 177.793869 40.085156 
L 177.793869 37.496406 
L 180.489494 37.496406 
L 180.489494 32.027969 
L 183.642307 32.027969 
L 183.642307 37.496406 
L 186.913869 37.496406 
L 186.913869 40.085156 
L 183.642307 40.085156 
L 183.642307 53.117969 
Q 183.642307 54.180781 184.004494 54.542969 
Q 184.366682 54.905156 185.393869 54.905156 
Q 186.343869 54.905156 186.913869 54.750781 
L 186.913869 57.410781 
z
" style="fill: #ffffff"/>
   </g>
  </g>
 </g>
 <defs>
  <clipPath id="p806e36929a">
   <rect x="7.2" y="7.2" width="200.26" height="81"/>
  </clipPath>
 </defs>
</svg>
