<svg xmlns="http://www.w3.org/2000/svg" x="0px" y="0px" width="1024" height="1024" viewBox="0 0 512 512">
    <!-- Background circle remains unchanged -->
    <path fill="#D4D2B1" d="M504.1,256c0,137-111.1,248.1-248.1,248.1S7.9,393,7.9,256C7.9,119,119,7.9,256,7.9S504.1,119,504.1,256"></path>
    <!-- Enlarge central bird details by wrapping in a group with scale transform -->
    <g transform="translate(256,256) scale(1.3) translate(-256,-256)">
        <path fill="#106298" d="M309.2,263.5c32.4,50.8,39.5,134.7,14.3,120.2c-30.8-17.7-70.6-12.9-103-63.7c-32.4-50.8-38.8-104.6-14.3-120.2C230.7,184.2,276.8,212.7,309.2,263.5"></path>
        <path fill="#26A9E0" d="M322.8,279.5L322.8,279.5c-46.9-46.2-55.3-85.5-56.8-97.7c-0.1-1.3-0.2-2.6-0.3-3.8v-0.1l0,0c-3.7-32.9-31.7-58.5-65.6-58.5c-36.5,0-66,29.6-66,66c0,4.5,0.5,9,1.3,13.3c4.7,32.1,25.5,115.5,117.8,174.9c9.3,6.3,20.6,10,32.7,10c32.3,0,58.6-26.2,58.6-58.6C344.4,306.6,336,290.2,322.8,279.5"></path>
        <path fill="#4D6BFE" d="M348.5,239.9c32.4,50.8,39.5,134.7,14.3,120.2c-30.8-17.7-70.6-12.9-103-63.7c-32.4-50.8-38.8-104.6-14.3-120.2C270,160.6,316.1,189.1,348.5,239.9"></path>
        <path fill="#FAAF40" d="M162.5,191.2c-0.9,1.2-2.7,1.3-4.3,1.2c-1.6-0.1-3.4-0.5-4.1-1.9l-8.2-15.5c1.9-5.3,9.5-5.4,14.1-5.6c4.6,0.9,12,2.3,13,7.8C169.5,181.9,166,186.6,162.5,191.2"></path>
        <path fill="#231F20" d="M190.6,169.5c0,3.8-3,6.8-6.8,6.8c-3.8,0-6.8-3.1-6.8-6.8s3.1-6.8,6.8-6.8C187.5,162.6,190.6,165.7,190.6,169.5"></path>
        <path fill="#FFF" d="M189,166.9c0,1.5-1.2,2.7-2.7,2.7c-1.5,0-2.7-1.2-2.7-2.7c0-1.5,1.2-2.7,2.7-2.7C187.8,164.2,189,165.4,189,166.9"></path>
        <path fill="#231F20" d="M146.3,168.5c0,2.4-1.9,4.3-4.3,4.3c-2.4,0-4.3-1.9-4.3-4.3c0-2.4,1.9-4.3,4.3-4.3C144.3,164.2,146.3,166.1,146.3,168.5"></path>
        <path fill="#FFF" d="M145.3,166.9c0,0.9-0.8,1.7-1.7,1.7c-1,0-1.7-0.8-1.7-1.7c0-0.9,0.8-1.7,1.7-1.7C144.5,165.2,145.3,166,145.3,166.9"></path>
    </g>
</svg>