<svg width="81" height="81" viewBox="0 0 81 81" fill="none" xmlns="http://www.w3.org/2000/svg">
<rect x="1" y="0.621094" width="79" height="79" rx="19.5" fill="url(#paint0_linear_151_655)" fill-opacity="0.2"/>
<rect x="1" y="0.621094" width="79" height="79" rx="19.5" stroke="url(#paint1_linear_151_655)" style="mix-blend-mode:overlay"/>
<path d="M58.2773 20.1211H22.7218C21.543 20.1211 20.4126 20.5893 19.5791 21.4228C18.7456 22.2563 18.2773 23.3868 18.2773 24.5655V55.6767C18.2773 56.8554 18.7456 57.9859 19.5791 58.8193C20.4126 59.6528 21.543 60.1211 22.7218 60.1211H58.2773C59.4561 60.1211 60.5865 59.6528 61.42 58.8193C62.2535 57.9859 62.7218 56.8554 62.7218 55.6767V24.5655C62.7218 23.3868 62.2535 22.2563 61.42 21.4228C60.5865 20.5893 59.4561 20.1211 58.2773 20.1211ZM29.3885 51.2322C28.949 51.2321 28.5195 51.1017 28.1541 50.8575C27.7887 50.6134 27.504 50.2663 27.3358 49.8603C27.1677 49.4543 27.1237 49.0076 27.2094 48.5766C27.2951 48.1456 27.5067 47.7497 27.8173 47.4389L35.1351 40.1211L27.8173 32.8033C27.4125 32.3842 27.1886 31.8229 27.1936 31.2402C27.1987 30.6575 27.4324 30.1002 27.8444 29.6882C28.2564 29.2761 28.8138 29.0424 29.3965 29.0374C29.9791 29.0323 30.5405 29.2563 30.9596 29.6611L39.8485 38.55C40.2651 38.9667 40.4991 39.5318 40.4991 40.1211C40.4991 40.7103 40.2651 41.2755 39.8485 41.6922L30.9596 50.5811C30.5429 50.9979 29.9778 51.2321 29.3885 51.2322ZM51.6107 51.2322H40.4996C39.9102 51.2322 39.345 50.9981 38.9282 50.5813C38.5115 50.1646 38.2773 49.5994 38.2773 49.01C38.2773 48.4206 38.5115 47.8554 38.9282 47.4386C39.345 47.0219 39.9102 46.7878 40.4996 46.7878H51.6107C52.2001 46.7878 52.7653 47.0219 53.182 47.4386C53.5988 47.8554 53.8329 48.4206 53.8329 49.01C53.8329 49.5994 53.5988 50.1646 53.182 50.5813C52.7653 50.9981 52.2001 51.2322 51.6107 51.2322Z" fill="url(#paint2_linear_151_655)"/>
<defs>
<linearGradient id="paint0_linear_151_655" x1="1.50012" y1="1.12305" x2="79.5001" y2="79.123" gradientUnits="userSpaceOnUse">
<stop stop-color="#A3DAFF"/>
<stop offset="1" stop-color="#B3C7E6"/>
</linearGradient>
<linearGradient id="paint1_linear_151_655" x1="1.50012" y1="1.12305" x2="79.5001" y2="79.123" gradientUnits="userSpaceOnUse">
<stop stop-color="#A3DAFF"/>
<stop offset="1" stop-color="#B3C7E6"/>
</linearGradient>
<linearGradient id="paint2_linear_151_655" x1="18.833" y1="20.6221" x2="57.6175" y2="63.716" gradientUnits="userSpaceOnUse">
<stop stop-color="#A3DAFF"/>
<stop offset="1" stop-color="#B3C7E6"/>
</linearGradient>
</defs>
</svg>
