<svg width="81" height="80" viewBox="0 0 81 80" fill="none" xmlns="http://www.w3.org/2000/svg">
<rect x="1" y="0.5" width="79" height="79" rx="19.5" fill="url(#paint0_linear_151_630)" fill-opacity="0.2"/>
<rect x="1" y="0.5" width="79" height="79" rx="19.5" stroke="url(#paint1_linear_151_630)" style="mix-blend-mode:overlay"/>
<path d="M40.4996 17.7778C36.1044 17.7778 31.808 19.0811 28.1536 21.523C24.4991 23.9648 21.6509 27.4354 19.9689 31.496C18.287 35.5566 17.8469 40.0247 18.7043 44.3354C19.5618 48.6461 21.6783 52.6057 24.7861 55.7135C27.8939 58.8214 31.8535 60.9378 36.1642 61.7953C40.4749 62.6527 44.9431 62.2127 49.0037 60.5307C53.0642 58.8488 56.5349 56.0005 58.9767 52.3461C61.4185 48.6916 62.7218 44.3952 62.7218 40.0001C62.7218 37.0818 62.147 34.1921 61.0302 31.496C59.9135 28.7999 58.2766 26.3501 56.2131 24.2866C54.1495 22.223 51.6998 20.5862 49.0037 19.4694C46.3075 18.3526 43.4178 17.7778 40.4996 17.7778ZM36.6974 57.3178C34.2738 56.7642 31.9935 55.7078 30.0042 54.2169C28.0148 52.7261 26.3608 50.834 25.1491 48.6633C23.9374 46.4926 23.1952 44.0916 22.9703 41.6158C22.7455 39.14 23.0432 36.6446 23.844 34.2912L24.404 34.3356C25.5887 34.9007 26.6373 35.7151 27.478 36.7231C28.3187 37.731 28.9318 38.9088 29.2751 40.1756C29.6445 41.6388 30.354 42.9942 31.346 44.1314C32.338 45.2686 33.5845 46.1555 34.984 46.7201C37.6685 47.9578 38.2307 51.4289 36.6974 57.3178ZM45.1196 36.6667C45.1194 36.4892 45.0977 36.3124 45.0551 36.1401C44.653 34.3182 43.8556 32.6068 42.7194 31.1269C41.5831 29.647 40.1358 28.4347 38.4796 27.5756C36.5351 26.3423 35.3285 25.5756 35.004 23.1512C38.4638 21.9855 42.1988 21.9148 45.7002 22.9487C49.2016 23.9826 52.2991 26.0709 54.5707 28.9289C51.3262 29.4156 49.564 34.1623 49.564 36.6645C49.3267 37.0314 48.9954 37.328 48.6046 37.5234C48.2138 37.7188 47.7777 37.8059 47.3418 37.7756C46.9061 37.8062 46.4702 37.7194 46.0794 37.5244C45.6886 37.3294 45.3571 37.0332 45.1196 36.6667ZM48.924 55.4956L47.3529 50.7867C47.4288 49.7168 47.889 48.7105 48.6486 47.9533C49.4083 47.1961 50.4161 46.7391 51.4862 46.6667L56.2396 48.1134C54.5966 51.2521 52.0477 53.8242 48.924 55.4956Z" fill="url(#paint2_linear_151_630)"/>
<defs>
<linearGradient id="paint0_linear_151_630" x1="1.50012" y1="1.00195" x2="79.5001" y2="79.0019" gradientUnits="userSpaceOnUse">
<stop stop-color="#FAD2E1"/>
<stop offset="1" stop-color="#FFCBA4"/>
</linearGradient>
<linearGradient id="paint1_linear_151_630" x1="1.50012" y1="1.00195" x2="79.5001" y2="79.0019" gradientUnits="userSpaceOnUse">
<stop stop-color="#FAD2E1"/>
<stop offset="1" stop-color="#FFCBA4"/>
</linearGradient>
<linearGradient id="paint2_linear_151_630" x1="18.833" y1="18.3345" x2="62.1663" y2="61.6678" gradientUnits="userSpaceOnUse">
<stop stop-color="#FAD2E1"/>
<stop offset="1" stop-color="#FFCBA4"/>
</linearGradient>
</defs>
</svg>
