<svg width="81" height="80" viewBox="0 0 81 80" fill="none" xmlns="http://www.w3.org/2000/svg">
<rect x="1" y="0.5" width="79" height="79" rx="19.5" fill="url(#paint0_linear_151_624)" fill-opacity="0.2"/>
<rect x="1" y="0.5" width="79" height="79" rx="19.5" stroke="url(#paint1_linear_151_624)" style="mix-blend-mode:overlay"/>
<path d="M34.1511 20H24.6267C22.3476 20 20.5 21.8476 20.5 24.1267V33.6511C20.5 35.9302 22.3476 37.7778 24.6267 37.7778H34.1511C36.4302 37.7778 38.2778 35.9302 38.2778 33.6511V24.1267C38.2778 21.8476 36.4302 20 34.1511 20Z" fill="url(#paint2_linear_151_624)"/>
<path d="M56.3733 20H46.8489C44.5698 20 42.7222 21.8476 42.7222 24.1267V33.6511C42.7222 35.9302 44.5698 37.7778 46.8489 37.7778H56.3733C58.6524 37.7778 60.5 35.9302 60.5 33.6511V24.1267C60.5 21.8476 58.6524 20 56.3733 20Z" fill="url(#paint3_linear_151_624)"/>
<path d="M34.1511 42.2222H24.6267C22.3476 42.2222 20.5 44.0698 20.5 46.3489V55.8733C20.5 58.1524 22.3476 60 24.6267 60H34.1511C36.4302 60 38.2778 58.1524 38.2778 55.8733V46.3489C38.2778 44.0698 36.4302 42.2222 34.1511 42.2222Z" fill="url(#paint4_linear_151_624)"/>
<path d="M56.3733 42.2222H46.8489C44.5698 42.2222 42.7222 44.0698 42.7222 46.3489V55.8733C42.7222 58.1524 44.5698 60 46.8489 60H56.3733C58.6524 60 60.5 58.1524 60.5 55.8733V46.3489C60.5 44.0698 58.6524 42.2222 56.3733 42.2222Z" fill="url(#paint5_linear_151_624)"/>
<defs>
<linearGradient id="paint0_linear_151_624" x1="1.50012" y1="1.00195" x2="79.5001" y2="79.0019" gradientUnits="userSpaceOnUse">
<stop stop-color="#FFCBA4"/>
<stop offset="1" stop-color="#FFD229"/>
</linearGradient>
<linearGradient id="paint1_linear_151_624" x1="1.50012" y1="1.00195" x2="79.5001" y2="79.0019" gradientUnits="userSpaceOnUse">
<stop stop-color="#FFCBA4"/>
<stop offset="1" stop-color="#FFD229"/>
</linearGradient>
<linearGradient id="paint2_linear_151_624" x1="21.0001" y1="20.501" x2="60" y2="59.501" gradientUnits="userSpaceOnUse">
<stop stop-color="#FFCBA4"/>
<stop offset="1" stop-color="#FFD229"/>
</linearGradient>
<linearGradient id="paint3_linear_151_624" x1="21.0001" y1="20.501" x2="60" y2="59.501" gradientUnits="userSpaceOnUse">
<stop stop-color="#FFCBA4"/>
<stop offset="1" stop-color="#FFD229"/>
</linearGradient>
<linearGradient id="paint4_linear_151_624" x1="21.0001" y1="20.501" x2="60" y2="59.501" gradientUnits="userSpaceOnUse">
<stop stop-color="#FFCBA4"/>
<stop offset="1" stop-color="#FFD229"/>
</linearGradient>
<linearGradient id="paint5_linear_151_624" x1="21.0001" y1="20.501" x2="60" y2="59.501" gradientUnits="userSpaceOnUse">
<stop stop-color="#FFCBA4"/>
<stop offset="1" stop-color="#FFD229"/>
</linearGradient>
</defs>
</svg>
