<svg width="16" height="16" viewBox="0 0 16 16" fill="none" xmlns="http://www.w3.org/2000/svg">
<path d="M1.15196 4.69584C1.20742 4.46877 1.38296 4.29383 1.63738 4.23764C2.5082 4.04532 4.13341 3.77166 6.32969 3.77166C8.59657 3.77166 10.2551 4.06319 11.1036 4.25591C11.3294 4.30719 11.4663 4.44855 11.5109 4.61657C11.6974 5.3175 11.9594 6.7442 11.9594 9.22256C11.9594 11.7009 11.6974 13.1276 11.5109 13.8286C11.4663 13.9966 11.3294 14.1379 11.1036 14.1892C10.2551 14.3819 8.59657 14.6735 6.32969 14.6735C4.13341 14.6735 2.5082 14.3998 1.63738 14.2075L1.48642 14.891L1.63738 14.2075C1.38296 14.1513 1.20742 13.9764 1.15196 13.7493C0.96065 12.966 0.7 11.4842 0.7 9.22256C0.7 6.96095 0.96065 5.47915 1.15196 4.69584Z" stroke="#151515" stroke-width="1.4"/>
<path d="M11.626 12.6229C12.653 12.4986 13.4044 12.3357 13.8316 12.2284C14.1027 12.1603 14.3372 12.0019 14.4385 11.7413C14.6465 11.2058 14.9443 9.97313 14.9443 7.30475C14.9443 4.77823 14.6773 3.28949 14.4723 2.51883C14.3535 2.07209 13.9943 1.75786 13.5435 1.65548C12.6521 1.45301 10.9412 1.15384 8.61461 1.15384C6.37988 1.15384 5.17477 1.42985 4.59315 1.63106C4.27955 1.73956 4.06454 2.00072 3.97564 2.32043C3.87512 2.68193 3.74315 3.25022 3.63391 4.03845" stroke="#151515" stroke-width="1.4"/>
</svg>
