<svg width="16" height="18" viewBox="0 0 16 18" fill="none" xmlns="http://www.w3.org/2000/svg">
<path d="M14.7 6.08333V5.38333H14H10.5V3.8C10.5 2.41929 9.38071 1.3 8 1.3C6.61929 1.3 5.5 2.41929 5.5 3.8V5.38333H2H1.3V6.08333V7.25V8.41667V8.99367L1.86639 9.1038L3.14857 9.35311C3.81725 9.48313 4.3 10.0688 4.3 10.75C4.3 11.4312 3.81725 12.0169 3.14856 12.1469L1.86639 12.3962L1.3 12.5063V13.0833V16V16.7H2H5H5.57066L5.68564 16.141L5.80205 15.5752C6.01665 14.532 6.93497 13.7833 8 13.7833C9.06503 13.7833 9.98335 14.532 10.1979 15.5752L10.3144 16.141L10.4293 16.7H11H14H14.7V16V13.0833V12.5063L14.1336 12.3962L12.8514 12.1469C12.1828 12.0169 11.7 11.4312 11.7 10.75C11.7 10.0688 12.1828 9.48313 12.8514 9.35311L14.1336 9.1038L14.7 8.99367V8.41667V6.08333Z" stroke="#656565" stroke-width="1.4"/>
</svg>
