<svg width="26" height="24" viewBox="0 0 26 24" fill="none" xmlns="http://www.w3.org/2000/svg">
<path d="M13.5893 16.2166C13.1471 16.6685 12.5759 16.969 11.952 17.048C11.164 17.1478 9.99295 17.2685 8.8409 17.285C8.77544 16.5973 9.02037 15.1509 9.19966 14.2235C9.30701 13.6682 9.5822 13.163 9.97579 12.7607L19.4113 3.11866C19.4113 3.11866 19.651 4.06518 20.8295 5.24369C22.008 6.42221 22.9469 6.65419 22.9469 6.65419L13.5893 16.2166Z" fill="#151515"/>
<path d="M23.4888 2.74038C24.5082 3.75979 25.2438 3.53083 25.2438 3.53083C25.9079 2.91734 25.9146 1.86215 25.2584 1.23995L25.0093 1.00375C24.3228 0.352814 23.2563 0.34577 22.5616 0.98758C22.5616 0.98758 22.4694 1.72097 23.4888 2.74038Z" fill="#151515"/>
<path d="M20.8967 1.63637C20.8967 1.63637 21.0936 2.85773 22.149 3.91313C23.2044 4.96853 24.4147 5.15436 24.4147 5.15436" stroke="black" stroke-width="1.6"/>
<path d="M23.5 14C23.5 17.3463 23.0169 19.63 22.6973 20.7745C22.5436 21.3251 22.1134 21.7347 21.5617 21.8841C20.095 22.2814 16.8417 23 12.5 23C8.03273 23 4.95013 22.2392 3.66672 21.8505C3.22915 21.7179 2.8751 21.4094 2.70767 20.984C2.27216 19.8774 1.5 17.308 1.5 13C1.5 8.11129 2.23056 5.6613 2.67126 4.62813C2.85169 4.20513 3.23801 3.93973 3.68785 3.84416C5.43093 3.47383 10.2131 2.60068 14.9834 2.99652" stroke="black" stroke-width="1.6"/>
</svg>
