<svg width="40" height="29" viewBox="0 0 40 29" fill="none" xmlns="http://www.w3.org/2000/svg">
<path d="M11.0542 26.6439L8.9752 26.3476L8.9752 26.3476L11.0542 26.6439ZM13.1932 11.6353L11.1142 11.339L13.1932 11.6353ZM18.7881 19.9865C17.6283 19.9865 16.6881 20.9267 16.6881 22.0865C16.6881 23.2463 17.6283 24.1865 18.7881 24.1865L18.7881 19.9865ZM10.9128 26.6962L12.299 25.1187L12.2989 25.1186L10.9128 26.6962ZM4.38422 18.1639L2.80671 16.7777L0.0343673 19.9327L1.61187 21.3189L4.38422 18.1639ZM36.9979 12.4435L34.8979 12.4436L36.9979 12.4435ZM13.1332 26.9401L15.2722 11.9316L11.1142 11.339L8.9752 26.3476L13.1332 26.9401ZM23.376 4.90078L27.3551 4.90078L27.3551 0.700782L23.376 0.700782L23.376 4.90078ZM27.3551 19.9865L18.7881 19.9865L18.7881 24.1865L27.3551 24.1865L27.3551 19.9865ZM12.2989 25.1186L4.38422 18.1639L1.61187 21.3189L9.52659 28.2737L12.2989 25.1186ZM15.2722 11.9316C15.8471 7.89767 19.3013 4.90078 23.376 4.90078L23.376 0.700782C17.2107 0.700782 11.984 5.23534 11.1142 11.339L15.2722 11.9316ZM8.9752 26.3476C9.20106 24.7627 11.0963 24.0619 12.299 25.1187L9.52655 28.2736C10.8315 29.4204 12.8881 28.6599 13.1332 26.9401L8.9752 26.3476ZM34.8979 12.4436C34.898 16.6094 31.5209 19.9865 27.3551 19.9865L27.3551 24.1865C33.8405 24.1865 39.098 18.929 39.0979 12.4435L34.8979 12.4436ZM39.0979 12.4435C39.0979 5.95817 33.8405 0.700781 27.3551 0.700782L27.3551 4.90078C31.5209 4.90078 34.8979 8.27779 34.8979 12.4436L39.0979 12.4435Z" fill="white"/>
<rect x="18.0957" y="11.3711" width="3.4" height="3.42857" rx="1.7" fill="white"/>
<rect x="23.1953" y="11.3711" width="3.4" height="3.42857" rx="1.7" fill="white"/>
<rect x="28.2969" y="11.3711" width="3.4" height="3.42857" rx="1.7" fill="white"/>
</svg>