<?xml version="1.0" encoding="UTF-8" standalone="no"?>
<svg
   width="300"
   height="250"
   version="1.1"
   id="svg10"
   xmlns="http://www.w3.org/2000/svg"
   xmlns:svg="http://www.w3.org/2000/svg">
  <defs
     id="defs10" />
  <g
     id="g10"
     style="stroke:#ffffff;stroke-width:9;stroke-dasharray:none;stroke-opacity:1"
     transform="matrix(0.3240336,0,0,0.3240336,-6.6102388,-39.177142)">
    <path
       fill="#343a3d"
       d="m 337.547,219.738 c 8.413,0.463 16.762,-0.36 25.202,0.493 3.75,0.379 8.145,1.008 11.332,3.109 7.845,5.172 14.677,13.125 21.317,19.764 l 30.823,30.753 c 7.177,7.087 14.395,14.134 21.651,21.14 4.939,4.748 10.299,9.398 14.606,14.733 3.917,4.853 7.678,10.884 8.61,17.149 1.774,11.931 0.94,24.538 0.901,36.588 l -0.06,56.819 0.037,71.578 c 0.019,14.658 0.801,29.615 -0.782,44.194 l -0.693,0.117 c -5.282,0.854 -15.93,1.444 -20.265,-1.944 -0.201,-0.157 -0.905,-0.774 -0.984,-0.923 -0.801,-1.509 -0.76,-4.983 -0.791,-6.756 -0.22,-12.698 0.39,-25.547 0.39,-38.269 V 372.316 c -0.012,-11.538 1.491,-25.054 -0.404,-36.282 -0.716,-4.239 -2.036,-6.436 -4.747,-9.722 -6.191,-7.503 -13.739,-14.237 -20.745,-21.002 l -28.678,-28.021 c -7.033,-6.939 -14.029,-13.914 -20.988,-20.925 -4.191,-4.202 -8.442,-9.094 -13.28,-12.533 -50.235,-1.003 -100.584,1.076 -150.817,-0.053 0.636,6.923 0.053,14.453 0.036,21.434 -0.056,13.556 -0.029,27.112 0.081,40.668 0.016,11.713 -0.944,24.394 -9.888,33.043 -3.899,3.77 -8.823,6.075 -14.075,7.233 -9.946,2.193 -20.465,0.902 -30.579,0.988 -15.087,0.129 -30.102,0.588 -45.199,0.373 0.68,18.701 0.074,37.69 0.088,56.418 l -0.183,128.993 c 22.603,13.334 44.784,28.63 66.755,43.03 2.418,2.126 6.17,3.938 8.933,5.719 9.39,6.052 19.867,12.389 27.602,20.486 4.597,4.811 7.748,10.023 9.025,16.645 1.511,7.83 0.988,16.15 0.933,24.097 l -0.112,28.991 c -0.011,27.668 0.897,55.507 0.245,83.152 l 40.277,-0.367 c 12.095,-0.094 24.926,-0.637 36.881,1.253 6.069,5.305 11.494,10.705 17.977,15.597 1.741,1.314 7.79,5.586 8.029,7.293 -7.859,2.509 -43.495,1.075 -53.586,1.078 l -33.291,0.011 c -6.989,-10e-4 -14.127,0.246 -21.089,-0.367 -2.263,3.843 -4.5,7.266 -7.835,10.256 -8.629,7.735 -19.5,9.611 -30.731,8.731 -4.785,-0.374 -10.085,-2.842 -14.273,-5.074 -11.012,-5.869 -21.143,-13.557 -31.651,-20.276 L 101.41,752.526 C 89.7243,745.069 73.9635,736.948 64.9985,726.451 59.782,720.343 56.6906,712.966 55.5786,705.032 53.9625,693.5 54.8146,681.002 54.8296,669.357 l 0.0598,-60.374 -0.0464,-51.579 c -0.1248,-12.82 -0.9753,-25.994 0.2849,-38.769 0.3683,-3.733 2.5216,-8.374 5.4994,-10.719 6.8025,-5.354 17.5065,-3.821 25.4566,-2.72 l 0.0444,-104.889 -0.1658,-37.689 c -0.0349,-7.758 -0.313,-15.635 0.1935,-23.377 0.2649,-4.048 0.7912,-9.776 2.7876,-13.368 5.9527,-10.71 28.5144,-31.404 38.3034,-41.398 l 48.288,-49.774 c 5.195,-5.326 11.527,-11.268 18.938,-13.198 12.062,-3.141 38.76,-1.508 52.47,-1.502 30.202,0.082 60.403,-0.005 90.604,-0.263 z M 122.451,324.605 c 10.569,0.191 55.847,2.543 61.992,-3.284 1.634,-1.55 2.12,-4.552 2.374,-6.666 0.838,-6.969 -0.002,-14.45 -0.024,-21.5 -0.036,-11.749 0.735,-23.85 -0.32,-35.547 -0.004,-0.05 -0.015,-0.099 -0.023,-0.149 -11.139,10.845 -21.617,22.433 -32.46,33.582 -10.027,10.311 -20.528,20.258 -30.422,30.675 -0.812,0.855 -1.367,1.475 -1.784,2.601 z"
       id="path1"
       style="stroke:#ffffff;stroke-width:9;stroke-dasharray:none;stroke-opacity:1" />
    <path
       fill="#aa193c"
       d="m 79.416,536.163 c 16.1089,9.078 31.513,20.149 47.04,30.228 18.894,12.266 38.33,24.043 56.834,36.862 7.5,5.196 15.324,10.621 17.024,20.228 1.605,9.071 0.707,18.951 0.683,28.148 l -0.079,48.945 0.12,36.311 c 0.057,7.187 0.587,14.725 -0.164,21.863 -0.488,4.644 -1.595,8.181 -4.312,12.056 -3.066,2.451 -6.328,4.204 -10.323,4.328 -3.838,0.119 -7.379,-1.324 -10.702,-3.101 -7.387,-3.949 -14.142,-9.431 -21.221,-13.944 l -41.901,-26.938 c -8.808,-5.637 -18.9756,-10.679 -26.4182,-18.078 -3.135,-3.117 -5.4305,-7.22 -6.1569,-11.614 -1.0077,-6.097 -0.4828,-12.838 -0.4546,-19.022 l 0.0781,-30.685 z"
       id="path2"
       style="stroke:#ffffff;stroke-width:9;stroke-dasharray:none;stroke-opacity:1" />
    <path
       fill="#343a3d"
       d="m 608.621,553.009 35.606,0.069 c -0.038,23.296 0.437,46.701 -0.173,69.98 9.557,-9.42 20.928,-16.175 34.3,-18.335 15.671,-2.532 33.041,1.267 45.899,10.632 15.699,11.435 23.973,30.29 26.92,49.018 4.102,26.057 -1.171,53.375 -16.872,74.77 -1.156,1.47 -2.416,2.85 -3.688,4.221 -11.642,12.549 -27.297,18.948 -44.265,19.503 -15.794,0.517 -32.168,-2.9 -44.031,-14.029 -0.814,3.588 -0.992,7.332 -1.307,10.993 -10.025,-0.306 -22.481,-0.896 -32.336,0.089 0.955,-12.789 0.254,-26.107 0.25,-38.953 l -0.014,-73.722 0.034,-61.833 c 0.005,-10.601 0.759,-21.872 -0.323,-32.403 z m 35.419,96.617 c 0.533,24.213 0.157,48.504 0.172,72.726 13.209,8.54 24.678,12.029 40.421,9.724 10.54,-2.829 18.654,-7.704 24.261,-17.277 8.631,-14.736 9.058,-36.523 4.699,-52.647 -2.675,-9.895 -8.272,-18.686 -17.369,-23.762 -6.471,-3.611 -13.478,-4.81 -20.818,-4.058 -12.69,1.434 -22.101,6.684 -31.366,15.294 z"
       id="path3"
       style="stroke:#ffffff;stroke-width:9;stroke-dasharray:none;stroke-opacity:1" />
    <path
       fill="#343a3d"
       d="m 405.645,553.118 c 11.92,-0.105 23.839,-0.125 35.759,-0.06 -0.825,18.774 -0.232,37.814 -0.232,56.612 l 0.032,95.142 c 0.006,18.382 0.277,36.803 -0.159,55.178 -10.961,-0.246 -21.964,-0.074 -32.929,-0.02 l -1.046,-14.549 c -5.292,4.842 -11.293,9.121 -17.796,12.176 -15.306,7.187 -34.292,6.32 -49.91,0.592 -3.882,-1.599 -7.553,-3.538 -10.994,-5.955 -15.98,-11.22 -23.676,-29.11 -26.889,-47.82 -4.31,-25.1 -1.35,-53.082 13.777,-74.213 9.427,-13.272 23.743,-22.252 39.795,-24.963 19.662,-3.144 34.79,1.049 50.71,12.54 -0.254,-21.469 1.127,-43.241 -0.118,-64.66 z m -34.521,180.375 c 12.365,0.138 23.506,-3.668 32.456,-12.365 0.669,-0.651 1.328,-1.314 1.976,-1.987 0.991,-24.558 0.052,-49.238 0.079,-73.809 -9.955,-6.959 -22.479,-13.929 -35.157,-12.171 -10.132,1.469 -18.816,5.528 -25.05,13.867 -10.044,13.434 -11.448,33.614 -9.05,49.66 1.696,11.352 5.919,23.031 15.52,30.056 5.785,4.233 12.262,5.721 19.226,6.749 z"
       id="path4"
       style="stroke:#ffffff;stroke-width:9;stroke-dasharray:none;stroke-opacity:1" />
    <path
       fill="#aa193c"
       d="m 280.268,342.195 c 13.182,-1.073 35.523,2.062 48.259,5.548 24.37,6.67 49.4,27.473 61.638,49.419 3.146,5.64 7.212,13.884 6.555,20.535 -0.295,2.99 -1.395,6.133 -2.212,9.03 l -0.162,-0.984 c -0.707,-4.254 -1.596,-10.018 -5.784,-12.359 -1.088,-0.608 -2.636,-0.771 -3.817,-0.415 -0.821,0.247 -0.757,0.585 -1.106,1.292 0.045,6.891 3.717,30.79 6.711,36.197 -0.383,3.775 -0.121,10.257 -1.871,13.545 -0.719,1.352 -1.956,1.379 -3.314,1.803 -2.675,2.716 -8.735,20.218 -10.43,24.896 -4.594,3.475 -6.954,7.633 -9.949,12.407 -5.079,1.622 -9.062,5.58 -13.262,8.753 -11.741,9.02 -26.559,13.06 -41.254,11.248 -17.806,-2.202 -33.219,-12.091 -44.042,-26.267 -7.941,-10.401 -10.725,-21.931 -8.884,-34.847 1.841,-12.916 8.547,-25.62 19.076,-33.498 9.409,-7.04 20.848,-9.817 32.459,-8.1 10.782,1.595 16.673,6.799 22.937,15.362 -2.503,-1.906 -5.187,-3.559 -8.015,-4.936 -9.867,-4.742 -20.812,-5.652 -31.17,-1.945 -9.181,3.353 -16.618,10.273 -20.624,19.188 -4.942,10.816 -5.087,23.568 -0.851,34.624 4.465,11.653 14.249,21.982 25.668,27.035 9.83,4.349 23.812,4.749 33.824,0.781 17.691,-7.011 27.884,-18.221 35.304,-35.577 7.147,-16.72 2.829,-44.257 -3.78,-60.605 -0.614,-1.254 -1.264,-2.489 -1.951,-3.705 -8.607,-15.072 -22.89,-27.749 -39.822,-32.408 -11.45,-3.151 -32.251,-4.767 -43.267,0.452 -4.229,2.003 -7.653,5.475 -12.015,7.292 -5.367,2.235 -11.798,2.366 -16.787,5.354 -3.927,2.352 -5.051,5.402 -6.03,9.607 -2.946,1.072 -5.843,2.211 -8.681,3.548 -19.7,9.281 -26.325,22.674 -33.3,42.26 -4.507,12.653 -5.697,34.73 -3.726,48.115 0.646,4.388 2.095,8.732 3.057,13.073 1.076,4.85 1.948,9.759 4.215,14.247 2.128,4.214 4.33,3.692 8.156,5.122 1.988,0.744 3.085,2.536 3.827,4.42 0.694,1.764 0.937,2.851 0.157,4.651 -0.312,0.721 -0.618,1.281 -0.662,2.096 -0.145,2.681 3.052,5.724 4.633,7.684 0.053,0.623 0.12,1.247 0.166,1.871 0.519,6.995 4.847,13.377 8.991,18.834 3.819,5.029 8.787,10.619 14.137,14.054 1.799,1.154 4.086,1.732 5.699,3.121 3.406,2.932 8.647,10.995 13.302,11.482 5.974,0.626 9.937,7.92 15.386,10.746 6.451,3.346 13.457,4.907 20.429,6.741 -24.779,2.633 -47.101,-8.282 -66.093,-23.465 -29.57,-23.77 -48.566,-58.247 -52.86,-95.943 -1.496,-13.541 -2.074,-36.57 0.427,-49.763 1.018,-5.369 3.373,-10.533 5.344,-15.607 6.595,-16.977 13.309,-33.266 24.932,-47.601 17.135,-21.132 43.325,-35.62 70.432,-38.408 z"
       id="path5"
       style="stroke:#ffffff;stroke-width:9;stroke-dasharray:none;stroke-opacity:1" />
    <path
       fill="#343a3d"
       d="m 522.102,604.146 c 1.913,-0.07 3.827,-0.113 5.741,-0.131 16.232,-0.092 31.541,5.216 43.112,16.795 18.986,19 18.701,45.984 18.688,70.974 l -62.142,0.069 c -10.987,-0.033 -22.093,0.249 -33.055,-0.373 0.079,7.322 1.029,14.766 4.128,21.467 4.093,8.849 11.27,15.173 20.384,18.524 12.624,4.642 27.614,3.124 39.758,-2.279 5.25,-2.335 10.087,-5.446 15.297,-7.876 1.529,0.65 2.099,1.926 3.065,3.254 3.685,5.669 7.512,11.334 10.652,17.327 -11.254,11.176 -27.918,17.714 -43.405,19.858 -19.993,2.767 -41.699,-0.941 -57.937,-13.447 -16.05,-12.36 -24.22,-30.706 -26.645,-50.507 -2.84,-23.19 0.169,-50.39 15.02,-69.222 11.997,-15.212 28.487,-22.299 47.339,-24.433 z m -27.052,61.891 33.575,-0.145 c 9.654,0.013 19.332,-0.117 28.982,0.113 -1.305,-10.94 -2.605,-22.922 -11.831,-30.362 -5.615,-4.528 -13.436,-6.223 -20.546,-5.997 -8.233,0.77 -15.697,3.097 -21.176,9.767 -6.283,7.648 -8.015,17.067 -9.004,26.624 z"
       id="path6"
       style="stroke:#ffffff;stroke-width:9;stroke-dasharray:none;stroke-opacity:1" />
    <path
       fill="#343a3d"
       d="m 757.026,606.052 c 12.253,0.778 29.743,0.353 42.111,-0.176 5.303,6.002 9.854,13.523 14.424,20.126 l 24.5,35.35 40.038,-55.304 c 13.152,-0.261 26.634,-0.371 39.767,0.218 -7.564,10.693 -15.68,21.019 -23.531,31.504 L 861.6,682.02 c 12.082,18.555 25.682,36.259 38.753,54.126 5.22,7.135 11.08,14.263 15.735,21.767 0.497,0.8 0.668,1.136 0.677,2.063 -7.015,-0.28 -14.084,-0.095 -21.109,-0.132 -6.692,-0.034 -13.511,-0.333 -20.183,0.179 -5.142,-5.442 -9.395,-12.514 -13.787,-18.618 l -26.422,-36.551 c -13.408,18.253 -27.453,36.23 -40.143,54.987 -13.463,0.174 -27.089,-0.505 -40.523,0.271 19.475,-25.713 38.694,-51.618 57.656,-77.712 -18.175,-25.587 -37.355,-50.57 -55.228,-76.348 z"
       id="path7"
       style="stroke:#ffffff;stroke-width:9;stroke-dasharray:none;stroke-opacity:1" />
    <path
       fill="#aa193c"
       d="m 259.058,492.755 c 2.424,1.318 4.939,6.481 6.542,8.888 1.361,2.045 2.758,4.102 4.651,5.695 5.173,4.352 26.69,15.769 33.169,16.984 6.109,1.146 13.983,0.4 18.613,1.435 1.175,0.263 0.718,-0.014 1.415,1.051 l -0.541,0.623 c -0.948,0.296 -1.909,0.546 -2.88,0.752 -14.049,3.03 -29.666,-1.661 -41.48,-9.275 -9.922,-6.394 -16.967,-14.461 -19.489,-26.153 z"
       id="path8"
       style="stroke:#ffffff;stroke-width:9;stroke-dasharray:none;stroke-opacity:1" />
    <path
       fill="#aa193c"
       d="m 304.984,489.549 c 3.671,0.012 11.433,-0.953 14.425,1.086 0.094,1.416 -0.294,1.451 -1.118,2.537 -1.744,0.924 -3.413,1.446 -5.404,1.52 -2.096,0.079 -5.486,-0.137 -6.959,-1.94 -0.997,-1.22 -0.938,-1.709 -0.944,-3.203 z"
       id="path9"
       style="stroke:#ffffff;stroke-width:9;stroke-dasharray:none;stroke-opacity:1" />
    <path
       fill="#aa193c"
       d="m 181.412,409.633 c 1.552,0.495 2.329,0.946 3.248,2.318 0.086,1.651 -0.709,2.756 -1.494,4.134 -0.111,-0.004 -0.223,0.003 -0.334,-0.012 -1.437,-0.195 -1.589,-0.2 -2.494,-1.269 -0.262,-1.786 0.512,-3.498 1.074,-5.171 z"
       id="path10"
       style="stroke:#ffffff;stroke-width:9;stroke-dasharray:none;stroke-opacity:1" />
  </g>
</svg>
