<?xml version="1.0" encoding="utf-8" standalone="no"?>
<!DOCTYPE svg PUBLIC "-//W3C//DTD SVG 1.1//EN"
  "http://www.w3.org/Graphics/SVG/1.1/DTD/svg11.dtd">
<svg xmlns:xlink="http://www.w3.org/1999/xlink" width="576pt" height="576pt" viewBox="0 0 576 576" xmlns="http://www.w3.org/2000/svg" version="1.1">
 <metadata>
  <rdf:RDF xmlns:dc="http://purl.org/dc/elements/1.1/" xmlns:cc="http://creativecommons.org/ns#" xmlns:rdf="http://www.w3.org/1999/02/22-rdf-syntax-ns#">
   <cc:Work>
    <dc:type rdf:resource="http://purl.org/dc/dcmitype/StillImage"/>
    <dc:date>2025-12-04T23:28:23.566819</dc:date>
    <dc:format>image/svg+xml</dc:format>
    <dc:creator>
     <cc:Agent>
      <dc:title>Matplotlib v3.10.7, https://matplotlib.org/</dc:title>
     </cc:Agent>
    </dc:creator>
   </cc:Work>
  </rdf:RDF>
 </metadata>
 <defs>
  <style type="text/css">*{stroke-linejoin: round; stroke-linecap: butt}</style>
 </defs>
 <g id="figure_1">
  <g id="patch_1">
   <path d="M 0 576 
L 576 576 
L 576 0 
L 0 0 
L 0 576 
z
" style="fill: none"/>
  </g>
  <g id="axes_1">
   <g id="FillBetweenPolyCollection_1">
    <path d="M -543.6 493.694716 
L -543.6 587.879574 
L -532.4 582.57747 
L -521.2 577.290479 
L -510 572.019437 
L -498.8 566.765236 
L -487.6 561.528835 
L -476.4 556.311262 
L -465.2 551.113624 
L -454 545.937109 
L -442.8 540.782997 
L -431.6 535.652669 
L -420.4 530.547611 
L -409.2 525.46943 
L -398 520.419863 
L -386.8 515.400787 
L -375.6 510.414233 
L -364.4 505.462405 
L -353.2 500.54769 
L -342 495.672681 
L -330.8 490.840192 
L -319.6 486.053281 
L -308.4 481.315276 
L -297.2 476.629795 
L -286 472.000776 
L -274.8 467.432507 
L -263.6 462.929655 
L -252.4 458.497298 
L -241.2 454.140966 
L -230 449.866666 
L -218.8 445.680926 
L -207.6 441.590829 
L -196.4 437.604039 
L -185.2 433.728841 
L -174 429.974153 
L -162.8 426.349549 
L -151.6 422.865254 
L -140.4 419.532132 
L -129.2 416.361652 
L -118 413.365821 
L -106.8 410.557095 
L -95.6 407.94825 
L -84.4 405.552213 
L -73.2 403.381857 
L -62 401.44975 
L -50.8 399.767877 
L -39.6 398.347331 
L -28.4 397.198 
L -17.2 396.328247 
L -6 395.744633 
L 5.2 395.451674 
L 5.2 365.40945 
L 5.2 365.40945 
L -6 365.604755 
L -17.2 365.993831 
L -28.4 366.573666 
L -39.6 367.339888 
L -50.8 368.286918 
L -62 369.408167 
L -73.2 370.696238 
L -84.4 372.143142 
L -95.6 373.7405 
L -106.8 375.47973 
L -118 377.352214 
L -129.2 379.349434 
L -140.4 381.463088 
L -151.6 383.685169 
L -162.8 386.008033 
L -174 388.424436 
L -185.2 390.927561 
L -196.4 393.511026 
L -207.6 396.168886 
L -218.8 398.895617 
L -230 401.68611 
L -241.2 404.535644 
L -252.4 407.439866 
L -263.6 410.39477 
L -274.8 413.396671 
L -286 416.442184 
L -297.2 419.528197 
L -308.4 422.651851 
L -319.6 425.810521 
L -330.8 429.001794 
L -342 432.223454 
L -353.2 435.47346 
L -364.4 438.749937 
L -375.6 442.051155 
L -386.8 445.375524 
L -398 448.721575 
L -409.2 452.087954 
L -420.4 455.473407 
L -431.6 458.876779 
L -442.8 462.296998 
L -454 465.733072 
L -465.2 469.184082 
L -476.4 472.649175 
L -487.6 476.127556 
L -498.8 479.618491 
L -510 483.121291 
L -521.2 486.63532 
L -532.4 490.15998 
L -543.6 493.694716 
z
" clip-path="url(#p212344efa8)" style="fill: #cd001a"/>
   </g>
   <g id="FillBetweenPolyCollection_2">
    <path d="M 16.4 365.40945 
L 16.4 395.451674 
L 27.6 395.744633 
L 38.8 396.328247 
L 50 397.198 
L 61.2 398.347331 
L 72.4 399.767877 
L 83.6 401.44975 
L 94.8 403.381857 
L 106 405.552213 
L 117.2 407.94825 
L 128.4 410.557095 
L 139.6 413.365821 
L 150.8 416.361652 
L 162 419.532132 
L 173.2 422.865254 
L 184.4 426.349549 
L 195.6 429.974153 
L 206.8 433.728841 
L 218 437.604039 
L 229.2 441.590829 
L 240.4 445.680926 
L 251.6 449.866666 
L 262.8 454.140966 
L 274 458.497298 
L 285.2 462.929655 
L 296.4 467.432507 
L 307.6 472.000776 
L 318.8 476.629795 
L 330 481.315276 
L 341.2 486.053281 
L 352.4 490.840192 
L 363.6 495.672681 
L 374.8 500.54769 
L 386 505.462405 
L 397.2 510.414233 
L 408.4 515.400787 
L 419.6 520.419863 
L 430.8 525.46943 
L 442 530.547611 
L 453.2 535.652669 
L 464.4 540.782997 
L 475.6 545.937109 
L 486.8 551.113624 
L 498 556.311262 
L 509.2 561.528835 
L 520.4 566.765236 
L 531.6 572.019437 
L 542.8 577.290479 
L 554 582.57747 
L 565.2 587.879574 
L 565.2 493.694716 
L 565.2 493.694716 
L 554 490.15998 
L 542.8 486.63532 
L 531.6 483.121291 
L 520.4 479.618491 
L 509.2 476.127556 
L 498 472.649175 
L 486.8 469.184082 
L 475.6 465.733072 
L 464.4 462.296998 
L 453.2 458.876779 
L 442 455.473407 
L 430.8 452.087954 
L 419.6 448.721575 
L 408.4 445.375524 
L 397.2 442.051155 
L 386 438.749937 
L 374.8 435.47346 
L 363.6 432.223454 
L 352.4 429.001794 
L 341.2 425.810521 
L 330 422.651851 
L 318.8 419.528197 
L 307.6 416.442184 
L 296.4 413.396671 
L 285.2 410.39477 
L 274 407.439866 
L 262.8 404.535644 
L 251.6 401.68611 
L 240.4 398.895617 
L 229.2 396.168886 
L 218 393.511026 
L 206.8 390.927561 
L 195.6 388.424436 
L 184.4 386.008033 
L 173.2 383.685169 
L 162 381.463088 
L 150.8 379.349434 
L 139.6 377.352214 
L 128.4 375.47973 
L 117.2 373.7405 
L 106 372.143142 
L 94.8 370.696238 
L 83.6 369.408167 
L 72.4 368.286918 
L 61.2 367.339888 
L 50 366.573666 
L 38.8 365.993831 
L 27.6 365.604755 
L 16.4 365.40945 
z
" clip-path="url(#p212344efa8)" style="fill: #61007d"/>
   </g>
   <g id="FillBetweenPolyCollection_3">
    <path d="M -543.6 392.579858 
L -543.6 486.764716 
L -532.4 483.22998 
L -521.2 479.70532 
L -510 476.191291 
L -498.8 472.688491 
L -487.6 469.197556 
L -476.4 465.719175 
L -465.2 462.254082 
L -454 458.803072 
L -442.8 455.366998 
L -431.6 451.946779 
L -420.4 448.543407 
L -409.2 445.157954 
L -398 441.791575 
L -386.8 438.445524 
L -375.6 435.121155 
L -364.4 431.819937 
L -353.2 428.54346 
L -342 425.293454 
L -330.8 422.071794 
L -319.6 418.880521 
L -308.4 415.721851 
L -297.2 412.598197 
L -286 409.512184 
L -274.8 406.466671 
L -263.6 403.46477 
L -252.4 400.509866 
L -241.2 397.605644 
L -230 394.75611 
L -218.8 391.965617 
L -207.6 389.238886 
L -196.4 386.581026 
L -185.2 383.997561 
L -174 381.494436 
L -162.8 379.078033 
L -151.6 376.755169 
L -140.4 374.533088 
L -129.2 372.419434 
L -118 370.422214 
L -106.8 368.54973 
L -95.6 366.8105 
L -84.4 365.213142 
L -73.2 363.766238 
L -62 362.478167 
L -50.8 361.356918 
L -39.6 360.409888 
L -28.4 359.643666 
L -17.2 359.063831 
L -6 358.674755 
L 5.2 358.47945 
L 5.2 328.437225 
L 5.2 328.437225 
L -6 328.534878 
L -17.2 328.729416 
L -28.4 329.019333 
L -39.6 329.402444 
L -50.8 329.875959 
L -62 330.436583 
L -73.2 331.080619 
L -84.4 331.804071 
L -95.6 332.60275 
L -106.8 333.472365 
L -118 334.408607 
L -129.2 335.407217 
L -140.4 336.464044 
L -151.6 337.575085 
L -162.8 338.736516 
L -174 339.944718 
L -185.2 341.19628 
L -196.4 342.488013 
L -207.6 343.816943 
L -218.8 345.180309 
L -230 346.575555 
L -241.2 348.000322 
L -252.4 349.452433 
L -263.6 350.929885 
L -274.8 352.430836 
L -286 353.953592 
L -297.2 355.496598 
L -308.4 357.058425 
L -319.6 358.63776 
L -330.8 360.233397 
L -342 361.844227 
L -353.2 363.46923 
L -364.4 365.107468 
L -375.6 366.758078 
L -386.8 368.420262 
L -398 370.093288 
L -409.2 371.776477 
L -420.4 373.469204 
L -431.6 375.17089 
L -442.8 376.880999 
L -454 378.599036 
L -465.2 380.324541 
L -476.4 382.057087 
L -487.6 383.796278 
L -498.8 385.541745 
L -510 387.293146 
L -521.2 389.05016 
L -532.4 390.81249 
L -543.6 392.579858 
z
" clip-path="url(#p212344efa8)" style="fill: #ef6a00"/>
   </g>
   <g id="FillBetweenPolyCollection_4">
    <path d="M 16.4 328.437225 
L 16.4 358.47945 
L 27.6 358.674755 
L 38.8 359.063831 
L 50 359.643666 
L 61.2 360.409888 
L 72.4 361.356918 
L 83.6 362.478167 
L 94.8 363.766238 
L 106 365.213142 
L 117.2 366.8105 
L 128.4 368.54973 
L 139.6 370.422214 
L 150.8 372.419434 
L 162 374.533088 
L 173.2 376.755169 
L 184.4 379.078033 
L 195.6 381.494436 
L 206.8 383.997561 
L 218 386.581026 
L 229.2 389.238886 
L 240.4 391.965617 
L 251.6 394.75611 
L 262.8 397.605644 
L 274 400.509866 
L 285.2 403.46477 
L 296.4 406.466671 
L 307.6 409.512184 
L 318.8 412.598197 
L 330 415.721851 
L 341.2 418.880521 
L 352.4 422.071794 
L 363.6 425.293454 
L 374.8 428.54346 
L 386 431.819937 
L 397.2 435.121155 
L 408.4 438.445524 
L 419.6 441.791575 
L 430.8 445.157954 
L 442 448.543407 
L 453.2 451.946779 
L 464.4 455.366998 
L 475.6 458.803072 
L 486.8 462.254082 
L 498 465.719175 
L 509.2 469.197556 
L 520.4 472.688491 
L 531.6 476.191291 
L 542.8 479.70532 
L 554 483.22998 
L 565.2 486.764716 
L 565.2 392.579858 
L 565.2 392.579858 
L 554 390.81249 
L 542.8 389.05016 
L 531.6 387.293146 
L 520.4 385.541745 
L 509.2 383.796278 
L 498 382.057087 
L 486.8 380.324541 
L 475.6 378.599036 
L 464.4 376.880999 
L 453.2 375.17089 
L 442 373.469204 
L 430.8 371.776477 
L 419.6 370.093288 
L 408.4 368.420262 
L 397.2 366.758078 
L 386 365.107468 
L 374.8 363.46923 
L 363.6 361.844227 
L 352.4 360.233397 
L 341.2 358.63776 
L 330 357.058425 
L 318.8 355.496598 
L 307.6 353.953592 
L 296.4 352.430836 
L 285.2 350.929885 
L 274 349.452433 
L 262.8 348.000322 
L 251.6 346.575555 
L 240.4 345.180309 
L 229.2 343.816943 
L 218 342.488013 
L 206.8 341.19628 
L 195.6 339.944718 
L 184.4 338.736516 
L 173.2 337.575085 
L 162 336.464044 
L 150.8 335.407217 
L 139.6 334.408607 
L 128.4 333.472365 
L 117.2 332.60275 
L 106 331.804071 
L 94.8 331.080619 
L 83.6 330.436583 
L 72.4 329.875959 
L 61.2 329.402444 
L 50 329.019333 
L 38.8 328.729416 
L 27.6 328.534878 
L 16.4 328.437225 
z
" clip-path="url(#p212344efa8)" style="fill: #1961ae"/>
   </g>
   <g id="FillBetweenPolyCollection_5">
    <path d="M -543.6 291.465 
L -543.6 385.649858 
L -532.4 383.88249 
L -521.2 382.12016 
L -510 380.363146 
L -498.8 378.611745 
L -487.6 376.866278 
L -476.4 375.127087 
L -465.2 373.394541 
L -454 371.669036 
L -442.8 369.950999 
L -431.6 368.24089 
L -420.4 366.539204 
L -409.2 364.846477 
L -398 363.163288 
L -386.8 361.490262 
L -375.6 359.828078 
L -364.4 358.177468 
L -353.2 356.53923 
L -342 354.914227 
L -330.8 353.303397 
L -319.6 351.70776 
L -308.4 350.128425 
L -297.2 348.566598 
L -286 347.023592 
L -274.8 345.500836 
L -263.6 343.999885 
L -252.4 342.522433 
L -241.2 341.070322 
L -230 339.645555 
L -218.8 338.250309 
L -207.6 336.886943 
L -196.4 335.558013 
L -185.2 334.26628 
L -174 333.014718 
L -162.8 331.806516 
L -151.6 330.645085 
L -140.4 329.534044 
L -129.2 328.477217 
L -118 327.478607 
L -106.8 326.542365 
L -95.6 325.67275 
L -84.4 324.874071 
L -73.2 324.150619 
L -62 323.506583 
L -50.8 322.945959 
L -39.6 322.472444 
L -28.4 322.089333 
L -17.2 321.799416 
L -6 321.604878 
L 5.2 321.507225 
L 5.2 291.465 
L 5.2 291.465 
L -6 291.465 
L -17.2 291.465 
L -28.4 291.465 
L -39.6 291.465 
L -50.8 291.465 
L -62 291.465 
L -73.2 291.465 
L -84.4 291.465 
L -95.6 291.465 
L -106.8 291.465 
L -118 291.465 
L -129.2 291.465 
L -140.4 291.465 
L -151.6 291.465 
L -162.8 291.465 
L -174 291.465 
L -185.2 291.465 
L -196.4 291.465 
L -207.6 291.465 
L -218.8 291.465 
L -230 291.465 
L -241.2 291.465 
L -252.4 291.465 
L -263.6 291.465 
L -274.8 291.465 
L -286 291.465 
L -297.2 291.465 
L -308.4 291.465 
L -319.6 291.465 
L -330.8 291.465 
L -342 291.465 
L -353.2 291.465 
L -364.4 291.465 
L -375.6 291.465 
L -386.8 291.465 
L -398 291.465 
L -409.2 291.465 
L -420.4 291.465 
L -431.6 291.465 
L -442.8 291.465 
L -454 291.465 
L -465.2 291.465 
L -476.4 291.465 
L -487.6 291.465 
L -498.8 291.465 
L -510 291.465 
L -521.2 291.465 
L -532.4 291.465 
L -543.6 291.465 
z
" clip-path="url(#p212344efa8)" style="fill: #f2cd00"/>
   </g>
   <g id="FillBetweenPolyCollection_6">
    <path d="M 16.4 291.465 
L 16.4 321.507225 
L 27.6 321.604878 
L 38.8 321.799416 
L 50 322.089333 
L 61.2 322.472444 
L 72.4 322.945959 
L 83.6 323.506583 
L 94.8 324.150619 
L 106 324.874071 
L 117.2 325.67275 
L 128.4 326.542365 
L 139.6 327.478607 
L 150.8 328.477217 
L 162 329.534044 
L 173.2 330.645085 
L 184.4 331.806516 
L 195.6 333.014718 
L 206.8 334.26628 
L 218 335.558013 
L 229.2 336.886943 
L 240.4 338.250309 
L 251.6 339.645555 
L 262.8 341.070322 
L 274 342.522433 
L 285.2 343.999885 
L 296.4 345.500836 
L 307.6 347.023592 
L 318.8 348.566598 
L 330 350.128425 
L 341.2 351.70776 
L 352.4 353.303397 
L 363.6 354.914227 
L 374.8 356.53923 
L 386 358.177468 
L 397.2 359.828078 
L 408.4 361.490262 
L 419.6 363.163288 
L 430.8 364.846477 
L 442 366.539204 
L 453.2 368.24089 
L 464.4 369.950999 
L 475.6 371.669036 
L 486.8 373.394541 
L 498 375.127087 
L 509.2 376.866278 
L 520.4 378.611745 
L 531.6 380.363146 
L 542.8 382.12016 
L 554 383.88249 
L 565.2 385.649858 
L 565.2 291.465 
L 565.2 291.465 
L 554 291.465 
L 542.8 291.465 
L 531.6 291.465 
L 520.4 291.465 
L 509.2 291.465 
L 498 291.465 
L 486.8 291.465 
L 475.6 291.465 
L 464.4 291.465 
L 453.2 291.465 
L 442 291.465 
L 430.8 291.465 
L 419.6 291.465 
L 408.4 291.465 
L 397.2 291.465 
L 386 291.465 
L 374.8 291.465 
L 363.6 291.465 
L 352.4 291.465 
L 341.2 291.465 
L 330 291.465 
L 318.8 291.465 
L 307.6 291.465 
L 296.4 291.465 
L 285.2 291.465 
L 274 291.465 
L 262.8 291.465 
L 251.6 291.465 
L 240.4 291.465 
L 229.2 291.465 
L 218 291.465 
L 206.8 291.465 
L 195.6 291.465 
L 184.4 291.465 
L 173.2 291.465 
L 162 291.465 
L 150.8 291.465 
L 139.6 291.465 
L 128.4 291.465 
L 117.2 291.465 
L 106 291.465 
L 94.8 291.465 
L 83.6 291.465 
L 72.4 291.465 
L 61.2 291.465 
L 50 291.465 
L 38.8 291.465 
L 27.6 291.465 
L 16.4 291.465 
z
" clip-path="url(#p212344efa8)" style="fill: #79c300"/>
   </g>
   <g id="FillBetweenPolyCollection_7">
    <path d="M -543.6 190.350142 
L -543.6 284.535 
L -532.4 284.535 
L -521.2 284.535 
L -510 284.535 
L -498.8 284.535 
L -487.6 284.535 
L -476.4 284.535 
L -465.2 284.535 
L -454 284.535 
L -442.8 284.535 
L -431.6 284.535 
L -420.4 284.535 
L -409.2 284.535 
L -398 284.535 
L -386.8 284.535 
L -375.6 284.535 
L -364.4 284.535 
L -353.2 284.535 
L -342 284.535 
L -330.8 284.535 
L -319.6 284.535 
L -308.4 284.535 
L -297.2 284.535 
L -286 284.535 
L -274.8 284.535 
L -263.6 284.535 
L -252.4 284.535 
L -241.2 284.535 
L -230 284.535 
L -218.8 284.535 
L -207.6 284.535 
L -196.4 284.535 
L -185.2 284.535 
L -174 284.535 
L -162.8 284.535 
L -151.6 284.535 
L -140.4 284.535 
L -129.2 284.535 
L -118 284.535 
L -106.8 284.535 
L -95.6 284.535 
L -84.4 284.535 
L -73.2 284.535 
L -62 284.535 
L -50.8 284.535 
L -39.6 284.535 
L -28.4 284.535 
L -17.2 284.535 
L -6 284.535 
L 5.2 284.535 
L 5.2 254.492775 
L 5.2 254.492775 
L -6 254.395122 
L -17.2 254.200584 
L -28.4 253.910667 
L -39.6 253.527556 
L -50.8 253.054041 
L -62 252.493417 
L -73.2 251.849381 
L -84.4 251.125929 
L -95.6 250.32725 
L -106.8 249.457635 
L -118 248.521393 
L -129.2 247.522783 
L -140.4 246.465956 
L -151.6 245.354915 
L -162.8 244.193484 
L -174 242.985282 
L -185.2 241.73372 
L -196.4 240.441987 
L -207.6 239.113057 
L -218.8 237.749691 
L -230 236.354445 
L -241.2 234.929678 
L -252.4 233.477567 
L -263.6 232.000115 
L -274.8 230.499164 
L -286 228.976408 
L -297.2 227.433402 
L -308.4 225.871575 
L -319.6 224.29224 
L -330.8 222.696603 
L -342 221.085773 
L -353.2 219.46077 
L -364.4 217.822532 
L -375.6 216.171922 
L -386.8 214.509738 
L -398 212.836712 
L -409.2 211.153523 
L -420.4 209.460796 
L -431.6 207.75911 
L -442.8 206.049001 
L -454 204.330964 
L -465.2 202.605459 
L -476.4 200.872913 
L -487.6 199.133722 
L -498.8 197.388255 
L -510 195.636854 
L -521.2 193.87984 
L -532.4 192.11751 
L -543.6 190.350142 
z
" clip-path="url(#p212344efa8)" style="fill: #79c300"/>
   </g>
   <g id="FillBetweenPolyCollection_8">
    <path d="M 16.4 254.492775 
L 16.4 284.535 
L 27.6 284.535 
L 38.8 284.535 
L 50 284.535 
L 61.2 284.535 
L 72.4 284.535 
L 83.6 284.535 
L 94.8 284.535 
L 106 284.535 
L 117.2 284.535 
L 128.4 284.535 
L 139.6 284.535 
L 150.8 284.535 
L 162 284.535 
L 173.2 284.535 
L 184.4 284.535 
L 195.6 284.535 
L 206.8 284.535 
L 218 284.535 
L 229.2 284.535 
L 240.4 284.535 
L 251.6 284.535 
L 262.8 284.535 
L 274 284.535 
L 285.2 284.535 
L 296.4 284.535 
L 307.6 284.535 
L 318.8 284.535 
L 330 284.535 
L 341.2 284.535 
L 352.4 284.535 
L 363.6 284.535 
L 374.8 284.535 
L 386 284.535 
L 397.2 284.535 
L 408.4 284.535 
L 419.6 284.535 
L 430.8 284.535 
L 442 284.535 
L 453.2 284.535 
L 464.4 284.535 
L 475.6 284.535 
L 486.8 284.535 
L 498 284.535 
L 509.2 284.535 
L 520.4 284.535 
L 531.6 284.535 
L 542.8 284.535 
L 554 284.535 
L 565.2 284.535 
L 565.2 190.350142 
L 565.2 190.350142 
L 554 192.11751 
L 542.8 193.87984 
L 531.6 195.636854 
L 520.4 197.388255 
L 509.2 199.133722 
L 498 200.872913 
L 486.8 202.605459 
L 475.6 204.330964 
L 464.4 206.049001 
L 453.2 207.75911 
L 442 209.460796 
L 430.8 211.153523 
L 419.6 212.836712 
L 408.4 214.509738 
L 397.2 216.171922 
L 386 217.822532 
L 374.8 219.46077 
L 363.6 221.085773 
L 352.4 222.696603 
L 341.2 224.29224 
L 330 225.871575 
L 318.8 227.433402 
L 307.6 228.976408 
L 296.4 230.499164 
L 285.2 232.000115 
L 274 233.477567 
L 262.8 234.929678 
L 251.6 236.354445 
L 240.4 237.749691 
L 229.2 239.113057 
L 218 240.441987 
L 206.8 241.73372 
L 195.6 242.985282 
L 184.4 244.193484 
L 173.2 245.354915 
L 162 246.465956 
L 150.8 247.522783 
L 139.6 248.521393 
L 128.4 249.457635 
L 117.2 250.32725 
L 106 251.125929 
L 94.8 251.849381 
L 83.6 252.493417 
L 72.4 253.054041 
L 61.2 253.527556 
L 50 253.910667 
L 38.8 254.200584 
L 27.6 254.395122 
L 16.4 254.492775 
z
" clip-path="url(#p212344efa8)" style="fill: #f2cd00"/>
   </g>
   <g id="FillBetweenPolyCollection_9">
    <path d="M -543.6 89.235284 
L -543.6 183.420142 
L -532.4 185.18751 
L -521.2 186.94984 
L -510 188.706854 
L -498.8 190.458255 
L -487.6 192.203722 
L -476.4 193.942913 
L -465.2 195.675459 
L -454 197.400964 
L -442.8 199.119001 
L -431.6 200.82911 
L -420.4 202.530796 
L -409.2 204.223523 
L -398 205.906712 
L -386.8 207.579738 
L -375.6 209.241922 
L -364.4 210.892532 
L -353.2 212.53077 
L -342 214.155773 
L -330.8 215.766603 
L -319.6 217.36224 
L -308.4 218.941575 
L -297.2 220.503402 
L -286 222.046408 
L -274.8 223.569164 
L -263.6 225.070115 
L -252.4 226.547567 
L -241.2 227.999678 
L -230 229.424445 
L -218.8 230.819691 
L -207.6 232.183057 
L -196.4 233.511987 
L -185.2 234.80372 
L -174 236.055282 
L -162.8 237.263484 
L -151.6 238.424915 
L -140.4 239.535956 
L -129.2 240.592783 
L -118 241.591393 
L -106.8 242.527635 
L -95.6 243.39725 
L -84.4 244.195929 
L -73.2 244.919381 
L -62 245.563417 
L -50.8 246.124041 
L -39.6 246.597556 
L -28.4 246.980667 
L -17.2 247.270584 
L -6 247.465122 
L 5.2 247.562775 
L 5.2 217.52055 
L 5.2 217.52055 
L -6 217.325245 
L -17.2 216.936169 
L -28.4 216.356334 
L -39.6 215.590112 
L -50.8 214.643082 
L -62 213.521833 
L -73.2 212.233762 
L -84.4 210.786858 
L -95.6 209.1895 
L -106.8 207.45027 
L -118 205.577786 
L -129.2 203.580566 
L -140.4 201.466912 
L -151.6 199.244831 
L -162.8 196.921967 
L -174 194.505564 
L -185.2 192.002439 
L -196.4 189.418974 
L -207.6 186.761114 
L -218.8 184.034383 
L -230 181.24389 
L -241.2 178.394356 
L -252.4 175.490134 
L -263.6 172.53523 
L -274.8 169.533329 
L -286 166.487816 
L -297.2 163.401803 
L -308.4 160.278149 
L -319.6 157.119479 
L -330.8 153.928206 
L -342 150.706546 
L -353.2 147.45654 
L -364.4 144.180063 
L -375.6 140.878845 
L -386.8 137.554476 
L -398 134.208425 
L -409.2 130.842046 
L -420.4 127.456593 
L -431.6 124.053221 
L -442.8 120.633002 
L -454 117.196928 
L -465.2 113.745918 
L -476.4 110.280825 
L -487.6 106.802444 
L -498.8 103.311509 
L -510 99.808709 
L -521.2 96.29468 
L -532.4 92.77002 
L -543.6 89.235284 
z
" clip-path="url(#p212344efa8)" style="fill: #1961ae"/>
   </g>
   <g id="FillBetweenPolyCollection_10">
    <path d="M 16.4 217.52055 
L 16.4 247.562775 
L 27.6 247.465122 
L 38.8 247.270584 
L 50 246.980667 
L 61.2 246.597556 
L 72.4 246.124041 
L 83.6 245.563417 
L 94.8 244.919381 
L 106 244.195929 
L 117.2 243.39725 
L 128.4 242.527635 
L 139.6 241.591393 
L 150.8 240.592783 
L 162 239.535956 
L 173.2 238.424915 
L 184.4 237.263484 
L 195.6 236.055282 
L 206.8 234.80372 
L 218 233.511987 
L 229.2 232.183057 
L 240.4 230.819691 
L 251.6 229.424445 
L 262.8 227.999678 
L 274 226.547567 
L 285.2 225.070115 
L 296.4 223.569164 
L 307.6 222.046408 
L 318.8 220.503402 
L 330 218.941575 
L 341.2 217.36224 
L 352.4 215.766603 
L 363.6 214.155773 
L 374.8 212.53077 
L 386 210.892532 
L 397.2 209.241922 
L 408.4 207.579738 
L 419.6 205.906712 
L 430.8 204.223523 
L 442 202.530796 
L 453.2 200.82911 
L 464.4 199.119001 
L 475.6 197.400964 
L 486.8 195.675459 
L 498 193.942913 
L 509.2 192.203722 
L 520.4 190.458255 
L 531.6 188.706854 
L 542.8 186.94984 
L 554 185.18751 
L 565.2 183.420142 
L 565.2 89.235284 
L 565.2 89.235284 
L 554 92.77002 
L 542.8 96.29468 
L 531.6 99.808709 
L 520.4 103.311509 
L 509.2 106.802444 
L 498 110.280825 
L 486.8 113.745918 
L 475.6 117.196928 
L 464.4 120.633002 
L 453.2 124.053221 
L 442 127.456593 
L 430.8 130.842046 
L 419.6 134.208425 
L 408.4 137.554476 
L 397.2 140.878845 
L 386 144.180063 
L 374.8 147.45654 
L 363.6 150.706546 
L 352.4 153.928206 
L 341.2 157.119479 
L 330 160.278149 
L 318.8 163.401803 
L 307.6 166.487816 
L 296.4 169.533329 
L 285.2 172.53523 
L 274 175.490134 
L 262.8 178.394356 
L 251.6 181.24389 
L 240.4 184.034383 
L 229.2 186.761114 
L 218 189.418974 
L 206.8 192.002439 
L 195.6 194.505564 
L 184.4 196.921967 
L 173.2 199.244831 
L 162 201.466912 
L 150.8 203.580566 
L 139.6 205.577786 
L 128.4 207.45027 
L 117.2 209.1895 
L 106 210.786858 
L 94.8 212.233762 
L 83.6 213.521833 
L 72.4 214.643082 
L 61.2 215.590112 
L 50 216.356334 
L 38.8 216.936169 
L 27.6 217.325245 
L 16.4 217.52055 
z
" clip-path="url(#p212344efa8)" style="fill: #ef6a00"/>
   </g>
   <g id="FillBetweenPolyCollection_11">
    <path d="M -543.6 -11.879574 
L -543.6 82.305284 
L -532.4 85.84002 
L -521.2 89.36468 
L -510 92.878709 
L -498.8 96.381509 
L -487.6 99.872444 
L -476.4 103.350825 
L -465.2 106.815918 
L -454 110.266928 
L -442.8 113.703002 
L -431.6 117.123221 
L -420.4 120.526593 
L -409.2 123.912046 
L -398 127.278425 
L -386.8 130.624476 
L -375.6 133.948845 
L -364.4 137.250063 
L -353.2 140.52654 
L -342 143.776546 
L -330.8 146.998206 
L -319.6 150.189479 
L -308.4 153.348149 
L -297.2 156.471803 
L -286 159.557816 
L -274.8 162.603329 
L -263.6 165.60523 
L -252.4 168.560134 
L -241.2 171.464356 
L -230 174.31389 
L -218.8 177.104383 
L -207.6 179.831114 
L -196.4 182.488974 
L -185.2 185.072439 
L -174 187.575564 
L -162.8 189.991967 
L -151.6 192.314831 
L -140.4 194.536912 
L -129.2 196.650566 
L -118 198.647786 
L -106.8 200.52027 
L -95.6 202.2595 
L -84.4 203.856858 
L -73.2 205.303762 
L -62 206.591833 
L -50.8 207.713082 
L -39.6 208.660112 
L -28.4 209.426334 
L -17.2 210.006169 
L -6 210.395245 
L 5.2 210.59055 
L 5.2 180.548326 
L 5.2 180.548326 
L -6 180.255367 
L -17.2 179.671753 
L -28.4 178.802 
L -39.6 177.652669 
L -50.8 176.232123 
L -62 174.55025 
L -73.2 172.618143 
L -84.4 170.447787 
L -95.6 168.05175 
L -106.8 165.442905 
L -118 162.634179 
L -129.2 159.638348 
L -140.4 156.467868 
L -151.6 153.134746 
L -162.8 149.650451 
L -174 146.025847 
L -185.2 142.271159 
L -196.4 138.395961 
L -207.6 134.409171 
L -218.8 130.319074 
L -230 126.133334 
L -241.2 121.859034 
L -252.4 117.502702 
L -263.6 113.070345 
L -274.8 108.567493 
L -286 103.999224 
L -297.2 99.370205 
L -308.4 94.684724 
L -319.6 89.946719 
L -330.8 85.159808 
L -342 80.327319 
L -353.2 75.45231 
L -364.4 70.537595 
L -375.6 65.585767 
L -386.8 60.599213 
L -398 55.580137 
L -409.2 50.53057 
L -420.4 45.452389 
L -431.6 40.347331 
L -442.8 35.217003 
L -454 30.062891 
L -465.2 24.886376 
L -476.4 19.688738 
L -487.6 14.471165 
L -498.8 9.234764 
L -510 3.980563 
L -521.2 -1.290479 
L -532.4 -6.57747 
L -543.6 -11.879574 
z
" clip-path="url(#p212344efa8)" style="fill: #61007d"/>
   </g>
   <g id="FillBetweenPolyCollection_12">
    <path d="M 16.4 180.548326 
L 16.4 210.59055 
L 27.6 210.395245 
L 38.8 210.006169 
L 50 209.426334 
L 61.2 208.660112 
L 72.4 207.713082 
L 83.6 206.591833 
L 94.8 205.303762 
L 106 203.856858 
L 117.2 202.2595 
L 128.4 200.52027 
L 139.6 198.647786 
L 150.8 196.650566 
L 162 194.536912 
L 173.2 192.314831 
L 184.4 189.991967 
L 195.6 187.575564 
L 206.8 185.072439 
L 218 182.488974 
L 229.2 179.831114 
L 240.4 177.104383 
L 251.6 174.31389 
L 262.8 171.464356 
L 274 168.560134 
L 285.2 165.60523 
L 296.4 162.603329 
L 307.6 159.557816 
L 318.8 156.471803 
L 330 153.348149 
L 341.2 150.189479 
L 352.4 146.998206 
L 363.6 143.776546 
L 374.8 140.52654 
L 386 137.250063 
L 397.2 133.948845 
L 408.4 130.624476 
L 419.6 127.278425 
L 430.8 123.912046 
L 442 120.526593 
L 453.2 117.123221 
L 464.4 113.703002 
L 475.6 110.266928 
L 486.8 106.815918 
L 498 103.350825 
L 509.2 99.872444 
L 520.4 96.381509 
L 531.6 92.878709 
L 542.8 89.36468 
L 554 85.84002 
L 565.2 82.305284 
L 565.2 -11.879574 
L 565.2 -11.879574 
L 554 -6.57747 
L 542.8 -1.290479 
L 531.6 3.980563 
L 520.4 9.234764 
L 509.2 14.471165 
L 498 19.688738 
L 486.8 24.886376 
L 475.6 30.062891 
L 464.4 35.217003 
L 453.2 40.347331 
L 442 45.452389 
L 430.8 50.53057 
L 419.6 55.580137 
L 408.4 60.599213 
L 397.2 65.585767 
L 386 70.537595 
L 374.8 75.45231 
L 363.6 80.327319 
L 352.4 85.159808 
L 341.2 89.946719 
L 330 94.684724 
L 318.8 99.370205 
L 307.6 103.999224 
L 296.4 108.567493 
L 285.2 113.070345 
L 274 117.502702 
L 262.8 121.859034 
L 251.6 126.133334 
L 240.4 130.319074 
L 229.2 134.409171 
L 218 138.395961 
L 206.8 142.271159 
L 195.6 146.025847 
L 184.4 149.650451 
L 173.2 153.134746 
L 162 156.467868 
L 150.8 159.638348 
L 139.6 162.634179 
L 128.4 165.442905 
L 117.2 168.05175 
L 106 170.447787 
L 94.8 172.618143 
L 83.6 174.55025 
L 72.4 176.232123 
L 61.2 177.652669 
L 50 178.802 
L 38.8 179.671753 
L 27.6 180.255367 
L 16.4 180.548326 
z
" clip-path="url(#p212344efa8)" style="fill: #cd001a"/>
   </g>
   <g id="FillBetweenPolyCollection_13">
    <defs>
     <path id="mf4bc72347b" d="M -162.45 -429.703486 
L -162.45 -146.296514 
L -155.378571 -148.510584 
L -148.307143 -150.665893 
L -141.235714 -152.759629 
L -134.164286 -154.788891 
L -127.092857 -156.750687 
L -120.021429 -158.641948 
L -112.95 -160.459536 
L -105.878571 -162.200257 
L -98.807143 -163.860879 
L -91.735714 -165.438145 
L -84.664286 -166.928797 
L -77.592857 -168.329599 
L -70.521429 -169.637361 
L -63.45 -170.848966 
L -56.378571 -171.961402 
L -49.307143 -172.971793 
L -42.235714 -173.877428 
L -35.164286 -174.675796 
L -28.092857 -175.364615 
L -21.021429 -175.941865 
L -13.95 -176.405815 
L -6.878571 -176.755047 
L 0.192857 -176.988479 
L 7.264286 -177.105379 
L 14.335714 -177.105379 
L 21.407143 -176.988479 
L 28.478571 -176.755047 
L 35.55 -176.405815 
L 42.621429 -175.941865 
L 49.692857 -175.364615 
L 56.764286 -174.675796 
L 63.835714 -173.877428 
L 70.907143 -172.971793 
L 77.978571 -171.961402 
L 85.05 -170.848966 
L 92.121429 -169.637361 
L 99.192857 -168.329599 
L 106.264286 -166.928797 
L 113.335714 -165.438145 
L 120.407143 -163.860879 
L 127.478571 -162.200257 
L 134.55 -160.459536 
L 141.621429 -158.641948 
L 148.692857 -156.750687 
L 155.764286 -154.788891 
L 162.835714 -152.759629 
L 169.907143 -150.665893 
L 176.978571 -148.510584 
L 184.05 -146.296514 
L 184.05 -429.703486 
L 184.05 -429.703486 
L 176.978571 -427.489416 
L 169.907143 -425.334107 
L 162.835714 -423.240371 
L 155.764286 -421.211109 
L 148.692857 -419.249313 
L 141.621429 -417.358052 
L 134.55 -415.540464 
L 127.478571 -413.799743 
L 120.407143 -412.139121 
L 113.335714 -410.561855 
L 106.264286 -409.071203 
L 99.192857 -407.670401 
L 92.121429 -406.362639 
L 85.05 -405.151034 
L 77.978571 -404.038598 
L 70.907143 -403.028207 
L 63.835714 -402.122572 
L 56.764286 -401.324204 
L 49.692857 -400.635385 
L 42.621429 -400.058135 
L 35.55 -399.594185 
L 28.478571 -399.244953 
L 21.407143 -399.011521 
L 14.335714 -398.894621 
L 7.264286 -398.894621 
L 0.192857 -399.011521 
L -6.878571 -399.244953 
L -13.95 -399.594185 
L -21.021429 -400.058135 
L -28.092857 -400.635385 
L -35.164286 -401.324204 
L -42.235714 -402.122572 
L -49.307143 -403.028207 
L -56.378571 -404.038598 
L -63.45 -405.151034 
L -70.521429 -406.362639 
L -77.592857 -407.670401 
L -84.664286 -409.071203 
L -91.735714 -410.561855 
L -98.807143 -412.139121 
L -105.878571 -413.799743 
L -112.95 -415.540464 
L -120.021429 -417.358052 
L -127.092857 -419.249313 
L -134.164286 -421.211109 
L -141.235714 -423.240371 
L -148.307143 -425.334107 
L -155.378571 -427.489416 
L -162.45 -429.703486 
z
" style="stroke: #1a1a1a; stroke-width: 15"/>
    </defs>
    <g clip-path="url(#p212344efa8)">
     <use xlink:href="#mf4bc72347b" x="0" y="576" style="fill: #1a1a1a; stroke: #1a1a1a; stroke-width: 15"/>
    </g>
   </g>
   <g id="line2d_1">
    <path clip-path="url(#p212344efa8)" style="fill: none; stroke: #cccccc; stroke-width: 6; stroke-linecap: round"/>
   </g>
   <g id="line2d_2">
    <path clip-path="url(#p212344efa8)" style="fill: none; stroke: #cccccc; stroke-width: 6; stroke-linecap: round"/>
   </g>
   <g id="line2d_3">
    <path d="M -1 299.8 
L 45.45 253.35 
" clip-path="url(#p212344efa8)" style="fill: none; stroke: #cccccc; stroke-width: 6; stroke-linecap: round"/>
   </g>
   <g id="line2d_4">
    <path d="M -1 276.2 
L 45.45 322.65 
" clip-path="url(#p212344efa8)" style="fill: none; stroke: #cccccc; stroke-width: 6; stroke-linecap: round"/>
   </g>
   <g id="line2d_5">
    <path d="M 91.65 322.65 
L 160.95 253.35 
" clip-path="url(#p212344efa8)" style="fill: none; stroke: #cccccc; stroke-width: 6; stroke-linecap: round"/>
   </g>
   <g id="line2d_6">
    <path d="M 91.65 253.35 
L 160.95 322.65 
" clip-path="url(#p212344efa8)" style="fill: none; stroke: #cccccc; stroke-width: 6; stroke-linecap: round"/>
   </g>
  </g>
 </g>
 <defs>
  <clipPath id="p212344efa8">
   <rect x="10.8" y="10.8" width="554.4" height="554.4"/>
  </clipPath>
 </defs>
</svg>
