<?xml version="1.0" encoding="utf-8" standalone="no"?>
<!DOCTYPE svg PUBLIC "-//W3C//DTD SVG 1.1//EN"
  "http://www.w3.org/Graphics/SVG/1.1/DTD/svg11.dtd">
<svg xmlns:xlink="http://www.w3.org/1999/xlink" width="576pt" height="324pt" viewBox="0 0 576 324" xmlns="http://www.w3.org/2000/svg" version="1.1">
 <metadata>
  <rdf:RDF xmlns:dc="http://purl.org/dc/elements/1.1/" xmlns:cc="http://creativecommons.org/ns#" xmlns:rdf="http://www.w3.org/1999/02/22-rdf-syntax-ns#">
   <cc:Work>
    <dc:type rdf:resource="http://purl.org/dc/dcmitype/StillImage"/>
    <dc:date>2025-12-04T23:28:23.399298</dc:date>
    <dc:format>image/svg+xml</dc:format>
    <dc:creator>
     <cc:Agent>
      <dc:title>Matplotlib v3.10.7, https://matplotlib.org/</dc:title>
     </cc:Agent>
    </dc:creator>
   </cc:Work>
  </rdf:RDF>
 </metadata>
 <defs>
  <style type="text/css">*{stroke-linejoin: round; stroke-linecap: butt}</style>
 </defs>
 <g id="figure_1">
  <g id="patch_1">
   <path d="M 0 324 
L 576 324 
L 576 0 
L 0 0 
L 0 324 
z
" style="fill: none"/>
  </g>
  <g id="axes_1">
   <g id="FillBetweenPolyCollection_1">
    <path d="M 19.2 261.730771 
L 19.2 307.396157 
L 24.630303 304.82544 
L 30.060606 302.262051 
L 35.490909 299.706394 
L 40.921212 297.158902 
L 46.351515 294.620041 
L 51.781818 292.090309 
L 57.212121 289.570242 
L 62.642424 287.060416 
L 68.072727 284.561453 
L 73.50303 282.074021 
L 78.933333 279.598842 
L 84.363636 277.136694 
L 89.793939 274.688419 
L 95.224242 272.254927 
L 100.654545 269.837204 
L 106.084848 267.436318 
L 111.515152 265.053426 
L 116.945455 262.689785 
L 122.375758 260.34676 
L 127.806061 258.025833 
L 133.236364 255.728619 
L 138.666667 253.45687 
L 144.09697 251.212498 
L 149.527273 248.997579 
L 154.957576 246.814378 
L 160.387879 244.665357 
L 165.818182 242.553195 
L 171.248485 240.480808 
L 176.678788 238.451358 
L 182.109091 236.46828 
L 187.539394 234.535292 
L 192.969697 232.656408 
L 198.4 230.835953 
L 203.830303 229.078569 
L 209.260606 227.389214 
L 214.690909 225.773155 
L 220.121212 224.235952 
L 225.551515 222.783428 
L 230.981818 221.421622 
L 236.412121 220.156727 
L 241.842424 218.995013 
L 247.272727 217.942719 
L 252.70303 217.005939 
L 258.133333 216.190486 
L 263.563636 215.501736 
L 268.993939 214.944485 
L 274.424242 214.522786 
L 279.854545 214.239822 
L 285.284848 214.097781 
L 285.284848 199.531854 
L 285.284848 199.531854 
L 279.854545 199.626548 
L 274.424242 199.815191 
L 268.993939 200.096323 
L 263.563636 200.467824 
L 258.133333 200.92699 
L 252.70303 201.470626 
L 247.272727 202.095146 
L 241.842424 202.796675 
L 236.412121 203.571151 
L 230.981818 204.414414 
L 225.551515 205.322285 
L 220.121212 206.290635 
L 214.690909 207.315437 
L 209.260606 208.392809 
L 203.830303 209.519046 
L 198.4 210.690635 
L 192.969697 211.904272 
L 187.539394 213.156861 
L 182.109091 214.44552 
L 176.678788 215.767572 
L 171.248485 217.120538 
L 165.818182 218.50213 
L 160.387879 219.910238 
L 154.957576 221.342919 
L 149.527273 222.798386 
L 144.09697 224.274998 
L 138.666667 225.771247 
L 133.236364 227.285746 
L 127.806061 228.817222 
L 122.375758 230.364506 
L 116.945455 231.926523 
L 111.515152 233.502284 
L 106.084848 235.090878 
L 100.654545 236.691469 
L 95.224242 238.303285 
L 89.793939 239.925612 
L 84.363636 241.557796 
L 78.933333 243.199228 
L 73.50303 244.849347 
L 68.072727 246.507635 
L 62.642424 248.173611 
L 57.212121 249.846828 
L 51.781818 251.526873 
L 46.351515 253.213361 
L 40.921212 254.905935 
L 35.490909 256.604262 
L 30.060606 258.308034 
L 24.630303 260.01696 
L 19.2 261.730771 
z
" clip-path="url(#p5b7eeba217)" style="fill: #cd001a"/>
   </g>
   <g id="FillBetweenPolyCollection_2">
    <path d="M 290.715152 199.531854 
L 290.715152 214.097781 
L 296.145455 214.239822 
L 301.575758 214.522786 
L 307.006061 214.944485 
L 312.436364 215.501736 
L 317.866667 216.190486 
L 323.29697 217.005939 
L 328.727273 217.942719 
L 334.157576 218.995013 
L 339.587879 220.156727 
L 345.018182 221.421622 
L 350.448485 222.783428 
L 355.878788 224.235952 
L 361.309091 225.773155 
L 366.739394 227.389214 
L 372.169697 229.078569 
L 377.6 230.835953 
L 383.030303 232.656408 
L 388.460606 234.535292 
L 393.890909 236.46828 
L 399.321212 238.451358 
L 404.751515 240.480808 
L 410.181818 242.553195 
L 415.612121 244.665357 
L 421.042424 246.814378 
L 426.472727 248.997579 
L 431.90303 251.212498 
L 437.333333 253.45687 
L 442.763636 255.728619 
L 448.193939 258.025833 
L 453.624242 260.34676 
L 459.054545 262.689785 
L 464.484848 265.053426 
L 469.915152 267.436318 
L 475.345455 269.837204 
L 480.775758 272.254927 
L 486.206061 274.688419 
L 491.636364 277.136694 
L 497.066667 279.598842 
L 502.49697 282.074021 
L 507.927273 284.561453 
L 513.357576 287.060416 
L 518.787879 289.570242 
L 524.218182 292.090309 
L 529.648485 294.620041 
L 535.078788 297.158902 
L 540.509091 299.706394 
L 545.939394 302.262051 
L 551.369697 304.82544 
L 556.8 307.396157 
L 556.8 261.730771 
L 556.8 261.730771 
L 551.369697 260.01696 
L 545.939394 258.308034 
L 540.509091 256.604262 
L 535.078788 254.905935 
L 529.648485 253.213361 
L 524.218182 251.526873 
L 518.787879 249.846828 
L 513.357576 248.173611 
L 507.927273 246.507635 
L 502.49697 244.849347 
L 497.066667 243.199228 
L 491.636364 241.557796 
L 486.206061 239.925612 
L 480.775758 238.303285 
L 475.345455 236.691469 
L 469.915152 235.090878 
L 464.484848 233.502284 
L 459.054545 231.926523 
L 453.624242 230.364506 
L 448.193939 228.817222 
L 442.763636 227.285746 
L 437.333333 225.771247 
L 431.90303 224.274998 
L 426.472727 222.798386 
L 421.042424 221.342919 
L 415.612121 219.910238 
L 410.181818 218.50213 
L 404.751515 217.120538 
L 399.321212 215.767572 
L 393.890909 214.44552 
L 388.460606 213.156861 
L 383.030303 211.904272 
L 377.6 210.690635 
L 372.169697 209.519046 
L 366.739394 208.392809 
L 361.309091 207.315437 
L 355.878788 206.290635 
L 350.448485 205.322285 
L 345.018182 204.414414 
L 339.587879 203.571151 
L 334.157576 202.796675 
L 328.727273 202.095146 
L 323.29697 201.470626 
L 317.866667 200.92699 
L 312.436364 200.467824 
L 307.006061 200.096323 
L 301.575758 199.815191 
L 296.145455 199.626548 
L 290.715152 199.531854 
z
" clip-path="url(#p5b7eeba217)" style="fill: #61007d"/>
   </g>
   <g id="FillBetweenPolyCollection_3">
    <path d="M 19.2 212.705386 
L 19.2 258.370771 
L 24.630303 256.65696 
L 30.060606 254.948034 
L 35.490909 253.244262 
L 40.921212 251.545935 
L 46.351515 249.853361 
L 51.781818 248.166873 
L 57.212121 246.486828 
L 62.642424 244.813611 
L 68.072727 243.147635 
L 73.50303 241.489347 
L 78.933333 239.839228 
L 84.363636 238.197796 
L 89.793939 236.565612 
L 95.224242 234.943285 
L 100.654545 233.331469 
L 106.084848 231.730878 
L 111.515152 230.142284 
L 116.945455 228.566523 
L 122.375758 227.004506 
L 127.806061 225.457222 
L 133.236364 223.925746 
L 138.666667 222.411247 
L 144.09697 220.914998 
L 149.527273 219.438386 
L 154.957576 217.982919 
L 160.387879 216.550238 
L 165.818182 215.14213 
L 171.248485 213.760538 
L 176.678788 212.407572 
L 182.109091 211.08552 
L 187.539394 209.796861 
L 192.969697 208.544272 
L 198.4 207.330635 
L 203.830303 206.159046 
L 209.260606 205.032809 
L 214.690909 203.955437 
L 220.121212 202.930635 
L 225.551515 201.962285 
L 230.981818 201.054414 
L 236.412121 200.211151 
L 241.842424 199.436675 
L 247.272727 198.735146 
L 252.70303 198.110626 
L 258.133333 197.56699 
L 263.563636 197.107824 
L 268.993939 196.736323 
L 274.424242 196.455191 
L 279.854545 196.266548 
L 285.284848 196.171854 
L 285.284848 181.605927 
L 285.284848 181.605927 
L 279.854545 181.653274 
L 274.424242 181.747595 
L 268.993939 181.888162 
L 263.563636 182.073912 
L 258.133333 182.303495 
L 252.70303 182.575313 
L 247.272727 182.887573 
L 241.842424 183.238338 
L 236.412121 183.625576 
L 230.981818 184.047207 
L 225.551515 184.501143 
L 220.121212 184.985317 
L 214.690909 185.497718 
L 209.260606 186.036405 
L 203.830303 186.599523 
L 198.4 187.185318 
L 192.969697 187.792136 
L 187.539394 188.418431 
L 182.109091 189.06276 
L 176.678788 189.723786 
L 171.248485 190.400269 
L 165.818182 191.091065 
L 160.387879 191.795119 
L 154.957576 192.511459 
L 149.527273 193.239193 
L 144.09697 193.977499 
L 138.666667 194.725623 
L 133.236364 195.482873 
L 127.806061 196.248611 
L 122.375758 197.022253 
L 116.945455 197.803262 
L 111.515152 198.591142 
L 106.084848 199.385439 
L 100.654545 200.185735 
L 95.224242 200.991642 
L 89.793939 201.802806 
L 84.363636 202.618898 
L 78.933333 203.439614 
L 73.50303 204.264674 
L 68.072727 205.093818 
L 62.642424 205.926805 
L 57.212121 206.763414 
L 51.781818 207.603436 
L 46.351515 208.44668 
L 40.921212 209.292967 
L 35.490909 210.142131 
L 30.060606 210.994017 
L 24.630303 211.84848 
L 19.2 212.705386 
z
" clip-path="url(#p5b7eeba217)" style="fill: #ef6a00"/>
   </g>
   <g id="FillBetweenPolyCollection_4">
    <path d="M 290.715152 181.605927 
L 290.715152 196.171854 
L 296.145455 196.266548 
L 301.575758 196.455191 
L 307.006061 196.736323 
L 312.436364 197.107824 
L 317.866667 197.56699 
L 323.29697 198.110626 
L 328.727273 198.735146 
L 334.157576 199.436675 
L 339.587879 200.211151 
L 345.018182 201.054414 
L 350.448485 201.962285 
L 355.878788 202.930635 
L 361.309091 203.955437 
L 366.739394 205.032809 
L 372.169697 206.159046 
L 377.6 207.330635 
L 383.030303 208.544272 
L 388.460606 209.796861 
L 393.890909 211.08552 
L 399.321212 212.407572 
L 404.751515 213.760538 
L 410.181818 215.14213 
L 415.612121 216.550238 
L 421.042424 217.982919 
L 426.472727 219.438386 
L 431.90303 220.914998 
L 437.333333 222.411247 
L 442.763636 223.925746 
L 448.193939 225.457222 
L 453.624242 227.004506 
L 459.054545 228.566523 
L 464.484848 230.142284 
L 469.915152 231.730878 
L 475.345455 233.331469 
L 480.775758 234.943285 
L 486.206061 236.565612 
L 491.636364 238.197796 
L 497.066667 239.839228 
L 502.49697 241.489347 
L 507.927273 243.147635 
L 513.357576 244.813611 
L 518.787879 246.486828 
L 524.218182 248.166873 
L 529.648485 249.853361 
L 535.078788 251.545935 
L 540.509091 253.244262 
L 545.939394 254.948034 
L 551.369697 256.65696 
L 556.8 258.370771 
L 556.8 212.705386 
L 556.8 212.705386 
L 551.369697 211.84848 
L 545.939394 210.994017 
L 540.509091 210.142131 
L 535.078788 209.292967 
L 529.648485 208.44668 
L 524.218182 207.603436 
L 518.787879 206.763414 
L 513.357576 205.926805 
L 507.927273 205.093818 
L 502.49697 204.264674 
L 497.066667 203.439614 
L 491.636364 202.618898 
L 486.206061 201.802806 
L 480.775758 200.991642 
L 475.345455 200.185735 
L 469.915152 199.385439 
L 464.484848 198.591142 
L 459.054545 197.803262 
L 453.624242 197.022253 
L 448.193939 196.248611 
L 442.763636 195.482873 
L 437.333333 194.725623 
L 431.90303 193.977499 
L 426.472727 193.239193 
L 421.042424 192.511459 
L 415.612121 191.795119 
L 410.181818 191.091065 
L 404.751515 190.400269 
L 399.321212 189.723786 
L 393.890909 189.06276 
L 388.460606 188.418431 
L 383.030303 187.792136 
L 377.6 187.185318 
L 372.169697 186.599523 
L 366.739394 186.036405 
L 361.309091 185.497718 
L 355.878788 184.985317 
L 350.448485 184.501143 
L 345.018182 184.047207 
L 339.587879 183.625576 
L 334.157576 183.238338 
L 328.727273 182.887573 
L 323.29697 182.575313 
L 317.866667 182.303495 
L 312.436364 182.073912 
L 307.006061 181.888162 
L 301.575758 181.747595 
L 296.145455 181.653274 
L 290.715152 181.605927 
z
" clip-path="url(#p5b7eeba217)" style="fill: #1961ae"/>
   </g>
   <g id="FillBetweenPolyCollection_5">
    <path d="M 19.2 163.68 
L 19.2 209.345386 
L 24.630303 208.48848 
L 30.060606 207.634017 
L 35.490909 206.782131 
L 40.921212 205.932967 
L 46.351515 205.08668 
L 51.781818 204.243436 
L 57.212121 203.403414 
L 62.642424 202.566805 
L 68.072727 201.733818 
L 73.50303 200.904674 
L 78.933333 200.079614 
L 84.363636 199.258898 
L 89.793939 198.442806 
L 95.224242 197.631642 
L 100.654545 196.825735 
L 106.084848 196.025439 
L 111.515152 195.231142 
L 116.945455 194.443262 
L 122.375758 193.662253 
L 127.806061 192.888611 
L 133.236364 192.122873 
L 138.666667 191.365623 
L 144.09697 190.617499 
L 149.527273 189.879193 
L 154.957576 189.151459 
L 160.387879 188.435119 
L 165.818182 187.731065 
L 171.248485 187.040269 
L 176.678788 186.363786 
L 182.109091 185.70276 
L 187.539394 185.058431 
L 192.969697 184.432136 
L 198.4 183.825318 
L 203.830303 183.239523 
L 209.260606 182.676405 
L 214.690909 182.137718 
L 220.121212 181.625317 
L 225.551515 181.141143 
L 230.981818 180.687207 
L 236.412121 180.265576 
L 241.842424 179.878338 
L 247.272727 179.527573 
L 252.70303 179.215313 
L 258.133333 178.943495 
L 263.563636 178.713912 
L 268.993939 178.528162 
L 274.424242 178.387595 
L 279.854545 178.293274 
L 285.284848 178.245927 
L 285.284848 163.68 
L 285.284848 163.68 
L 279.854545 163.68 
L 274.424242 163.68 
L 268.993939 163.68 
L 263.563636 163.68 
L 258.133333 163.68 
L 252.70303 163.68 
L 247.272727 163.68 
L 241.842424 163.68 
L 236.412121 163.68 
L 230.981818 163.68 
L 225.551515 163.68 
L 220.121212 163.68 
L 214.690909 163.68 
L 209.260606 163.68 
L 203.830303 163.68 
L 198.4 163.68 
L 192.969697 163.68 
L 187.539394 163.68 
L 182.109091 163.68 
L 176.678788 163.68 
L 171.248485 163.68 
L 165.818182 163.68 
L 160.387879 163.68 
L 154.957576 163.68 
L 149.527273 163.68 
L 144.09697 163.68 
L 138.666667 163.68 
L 133.236364 163.68 
L 127.806061 163.68 
L 122.375758 163.68 
L 116.945455 163.68 
L 111.515152 163.68 
L 106.084848 163.68 
L 100.654545 163.68 
L 95.224242 163.68 
L 89.793939 163.68 
L 84.363636 163.68 
L 78.933333 163.68 
L 73.50303 163.68 
L 68.072727 163.68 
L 62.642424 163.68 
L 57.212121 163.68 
L 51.781818 163.68 
L 46.351515 163.68 
L 40.921212 163.68 
L 35.490909 163.68 
L 30.060606 163.68 
L 24.630303 163.68 
L 19.2 163.68 
z
" clip-path="url(#p5b7eeba217)" style="fill: #f2cd00"/>
   </g>
   <g id="FillBetweenPolyCollection_6">
    <path d="M 290.715152 163.68 
L 290.715152 178.245927 
L 296.145455 178.293274 
L 301.575758 178.387595 
L 307.006061 178.528162 
L 312.436364 178.713912 
L 317.866667 178.943495 
L 323.29697 179.215313 
L 328.727273 179.527573 
L 334.157576 179.878338 
L 339.587879 180.265576 
L 345.018182 180.687207 
L 350.448485 181.141143 
L 355.878788 181.625317 
L 361.309091 182.137718 
L 366.739394 182.676405 
L 372.169697 183.239523 
L 377.6 183.825318 
L 383.030303 184.432136 
L 388.460606 185.058431 
L 393.890909 185.70276 
L 399.321212 186.363786 
L 404.751515 187.040269 
L 410.181818 187.731065 
L 415.612121 188.435119 
L 421.042424 189.151459 
L 426.472727 189.879193 
L 431.90303 190.617499 
L 437.333333 191.365623 
L 442.763636 192.122873 
L 448.193939 192.888611 
L 453.624242 193.662253 
L 459.054545 194.443262 
L 464.484848 195.231142 
L 469.915152 196.025439 
L 475.345455 196.825735 
L 480.775758 197.631642 
L 486.206061 198.442806 
L 491.636364 199.258898 
L 497.066667 200.079614 
L 502.49697 200.904674 
L 507.927273 201.733818 
L 513.357576 202.566805 
L 518.787879 203.403414 
L 524.218182 204.243436 
L 529.648485 205.08668 
L 535.078788 205.932967 
L 540.509091 206.782131 
L 545.939394 207.634017 
L 551.369697 208.48848 
L 556.8 209.345386 
L 556.8 163.68 
L 556.8 163.68 
L 551.369697 163.68 
L 545.939394 163.68 
L 540.509091 163.68 
L 535.078788 163.68 
L 529.648485 163.68 
L 524.218182 163.68 
L 518.787879 163.68 
L 513.357576 163.68 
L 507.927273 163.68 
L 502.49697 163.68 
L 497.066667 163.68 
L 491.636364 163.68 
L 486.206061 163.68 
L 480.775758 163.68 
L 475.345455 163.68 
L 469.915152 163.68 
L 464.484848 163.68 
L 459.054545 163.68 
L 453.624242 163.68 
L 448.193939 163.68 
L 442.763636 163.68 
L 437.333333 163.68 
L 431.90303 163.68 
L 426.472727 163.68 
L 421.042424 163.68 
L 415.612121 163.68 
L 410.181818 163.68 
L 404.751515 163.68 
L 399.321212 163.68 
L 393.890909 163.68 
L 388.460606 163.68 
L 383.030303 163.68 
L 377.6 163.68 
L 372.169697 163.68 
L 366.739394 163.68 
L 361.309091 163.68 
L 355.878788 163.68 
L 350.448485 163.68 
L 345.018182 163.68 
L 339.587879 163.68 
L 334.157576 163.68 
L 328.727273 163.68 
L 323.29697 163.68 
L 317.866667 163.68 
L 312.436364 163.68 
L 307.006061 163.68 
L 301.575758 163.68 
L 296.145455 163.68 
L 290.715152 163.68 
z
" clip-path="url(#p5b7eeba217)" style="fill: #79c300"/>
   </g>
   <g id="FillBetweenPolyCollection_7">
    <path d="M 19.2 114.654614 
L 19.2 160.32 
L 24.630303 160.32 
L 30.060606 160.32 
L 35.490909 160.32 
L 40.921212 160.32 
L 46.351515 160.32 
L 51.781818 160.32 
L 57.212121 160.32 
L 62.642424 160.32 
L 68.072727 160.32 
L 73.50303 160.32 
L 78.933333 160.32 
L 84.363636 160.32 
L 89.793939 160.32 
L 95.224242 160.32 
L 100.654545 160.32 
L 106.084848 160.32 
L 111.515152 160.32 
L 116.945455 160.32 
L 122.375758 160.32 
L 127.806061 160.32 
L 133.236364 160.32 
L 138.666667 160.32 
L 144.09697 160.32 
L 149.527273 160.32 
L 154.957576 160.32 
L 160.387879 160.32 
L 165.818182 160.32 
L 171.248485 160.32 
L 176.678788 160.32 
L 182.109091 160.32 
L 187.539394 160.32 
L 192.969697 160.32 
L 198.4 160.32 
L 203.830303 160.32 
L 209.260606 160.32 
L 214.690909 160.32 
L 220.121212 160.32 
L 225.551515 160.32 
L 230.981818 160.32 
L 236.412121 160.32 
L 241.842424 160.32 
L 247.272727 160.32 
L 252.70303 160.32 
L 258.133333 160.32 
L 263.563636 160.32 
L 268.993939 160.32 
L 274.424242 160.32 
L 279.854545 160.32 
L 285.284848 160.32 
L 285.284848 145.754073 
L 285.284848 145.754073 
L 279.854545 145.706726 
L 274.424242 145.612405 
L 268.993939 145.471838 
L 263.563636 145.286088 
L 258.133333 145.056505 
L 252.70303 144.784687 
L 247.272727 144.472427 
L 241.842424 144.121662 
L 236.412121 143.734424 
L 230.981818 143.312793 
L 225.551515 142.858857 
L 220.121212 142.374683 
L 214.690909 141.862282 
L 209.260606 141.323595 
L 203.830303 140.760477 
L 198.4 140.174682 
L 192.969697 139.567864 
L 187.539394 138.941569 
L 182.109091 138.29724 
L 176.678788 137.636214 
L 171.248485 136.959731 
L 165.818182 136.268935 
L 160.387879 135.564881 
L 154.957576 134.848541 
L 149.527273 134.120807 
L 144.09697 133.382501 
L 138.666667 132.634377 
L 133.236364 131.877127 
L 127.806061 131.111389 
L 122.375758 130.337747 
L 116.945455 129.556738 
L 111.515152 128.768858 
L 106.084848 127.974561 
L 100.654545 127.174265 
L 95.224242 126.368358 
L 89.793939 125.557194 
L 84.363636 124.741102 
L 78.933333 123.920386 
L 73.50303 123.095326 
L 68.072727 122.266182 
L 62.642424 121.433195 
L 57.212121 120.596586 
L 51.781818 119.756564 
L 46.351515 118.91332 
L 40.921212 118.067033 
L 35.490909 117.217869 
L 30.060606 116.365983 
L 24.630303 115.51152 
L 19.2 114.654614 
z
" clip-path="url(#p5b7eeba217)" style="fill: #79c300"/>
   </g>
   <g id="FillBetweenPolyCollection_8">
    <path d="M 290.715152 145.754073 
L 290.715152 160.32 
L 296.145455 160.32 
L 301.575758 160.32 
L 307.006061 160.32 
L 312.436364 160.32 
L 317.866667 160.32 
L 323.29697 160.32 
L 328.727273 160.32 
L 334.157576 160.32 
L 339.587879 160.32 
L 345.018182 160.32 
L 350.448485 160.32 
L 355.878788 160.32 
L 361.309091 160.32 
L 366.739394 160.32 
L 372.169697 160.32 
L 377.6 160.32 
L 383.030303 160.32 
L 388.460606 160.32 
L 393.890909 160.32 
L 399.321212 160.32 
L 404.751515 160.32 
L 410.181818 160.32 
L 415.612121 160.32 
L 421.042424 160.32 
L 426.472727 160.32 
L 431.90303 160.32 
L 437.333333 160.32 
L 442.763636 160.32 
L 448.193939 160.32 
L 453.624242 160.32 
L 459.054545 160.32 
L 464.484848 160.32 
L 469.915152 160.32 
L 475.345455 160.32 
L 480.775758 160.32 
L 486.206061 160.32 
L 491.636364 160.32 
L 497.066667 160.32 
L 502.49697 160.32 
L 507.927273 160.32 
L 513.357576 160.32 
L 518.787879 160.32 
L 524.218182 160.32 
L 529.648485 160.32 
L 535.078788 160.32 
L 540.509091 160.32 
L 545.939394 160.32 
L 551.369697 160.32 
L 556.8 160.32 
L 556.8 114.654614 
L 556.8 114.654614 
L 551.369697 115.51152 
L 545.939394 116.365983 
L 540.509091 117.217869 
L 535.078788 118.067033 
L 529.648485 118.91332 
L 524.218182 119.756564 
L 518.787879 120.596586 
L 513.357576 121.433195 
L 507.927273 122.266182 
L 502.49697 123.095326 
L 497.066667 123.920386 
L 491.636364 124.741102 
L 486.206061 125.557194 
L 480.775758 126.368358 
L 475.345455 127.174265 
L 469.915152 127.974561 
L 464.484848 128.768858 
L 459.054545 129.556738 
L 453.624242 130.337747 
L 448.193939 131.111389 
L 442.763636 131.877127 
L 437.333333 132.634377 
L 431.90303 133.382501 
L 426.472727 134.120807 
L 421.042424 134.848541 
L 415.612121 135.564881 
L 410.181818 136.268935 
L 404.751515 136.959731 
L 399.321212 137.636214 
L 393.890909 138.29724 
L 388.460606 138.941569 
L 383.030303 139.567864 
L 377.6 140.174682 
L 372.169697 140.760477 
L 366.739394 141.323595 
L 361.309091 141.862282 
L 355.878788 142.374683 
L 350.448485 142.858857 
L 345.018182 143.312793 
L 339.587879 143.734424 
L 334.157576 144.121662 
L 328.727273 144.472427 
L 323.29697 144.784687 
L 317.866667 145.056505 
L 312.436364 145.286088 
L 307.006061 145.471838 
L 301.575758 145.612405 
L 296.145455 145.706726 
L 290.715152 145.754073 
z
" clip-path="url(#p5b7eeba217)" style="fill: #f2cd00"/>
   </g>
   <g id="FillBetweenPolyCollection_9">
    <path d="M 19.2 65.629229 
L 19.2 111.294614 
L 24.630303 112.15152 
L 30.060606 113.005983 
L 35.490909 113.857869 
L 40.921212 114.707033 
L 46.351515 115.55332 
L 51.781818 116.396564 
L 57.212121 117.236586 
L 62.642424 118.073195 
L 68.072727 118.906182 
L 73.50303 119.735326 
L 78.933333 120.560386 
L 84.363636 121.381102 
L 89.793939 122.197194 
L 95.224242 123.008358 
L 100.654545 123.814265 
L 106.084848 124.614561 
L 111.515152 125.408858 
L 116.945455 126.196738 
L 122.375758 126.977747 
L 127.806061 127.751389 
L 133.236364 128.517127 
L 138.666667 129.274377 
L 144.09697 130.022501 
L 149.527273 130.760807 
L 154.957576 131.488541 
L 160.387879 132.204881 
L 165.818182 132.908935 
L 171.248485 133.599731 
L 176.678788 134.276214 
L 182.109091 134.93724 
L 187.539394 135.581569 
L 192.969697 136.207864 
L 198.4 136.814682 
L 203.830303 137.400477 
L 209.260606 137.963595 
L 214.690909 138.502282 
L 220.121212 139.014683 
L 225.551515 139.498857 
L 230.981818 139.952793 
L 236.412121 140.374424 
L 241.842424 140.761662 
L 247.272727 141.112427 
L 252.70303 141.424687 
L 258.133333 141.696505 
L 263.563636 141.926088 
L 268.993939 142.111838 
L 274.424242 142.252405 
L 279.854545 142.346726 
L 285.284848 142.394073 
L 285.284848 127.828146 
L 285.284848 127.828146 
L 279.854545 127.733452 
L 274.424242 127.544809 
L 268.993939 127.263677 
L 263.563636 126.892176 
L 258.133333 126.43301 
L 252.70303 125.889374 
L 247.272727 125.264854 
L 241.842424 124.563325 
L 236.412121 123.788849 
L 230.981818 122.945586 
L 225.551515 122.037715 
L 220.121212 121.069365 
L 214.690909 120.044563 
L 209.260606 118.967191 
L 203.830303 117.840954 
L 198.4 116.669365 
L 192.969697 115.455728 
L 187.539394 114.203139 
L 182.109091 112.91448 
L 176.678788 111.592428 
L 171.248485 110.239462 
L 165.818182 108.85787 
L 160.387879 107.449762 
L 154.957576 106.017081 
L 149.527273 104.561614 
L 144.09697 103.085002 
L 138.666667 101.588753 
L 133.236364 100.074254 
L 127.806061 98.542778 
L 122.375758 96.995494 
L 116.945455 95.433477 
L 111.515152 93.857716 
L 106.084848 92.269122 
L 100.654545 90.668531 
L 95.224242 89.056715 
L 89.793939 87.434388 
L 84.363636 85.802204 
L 78.933333 84.160772 
L 73.50303 82.510653 
L 68.072727 80.852365 
L 62.642424 79.186389 
L 57.212121 77.513172 
L 51.781818 75.833127 
L 46.351515 74.146639 
L 40.921212 72.454065 
L 35.490909 70.755738 
L 30.060606 69.051966 
L 24.630303 67.34304 
L 19.2 65.629229 
z
" clip-path="url(#p5b7eeba217)" style="fill: #1961ae"/>
   </g>
   <g id="FillBetweenPolyCollection_10">
    <path d="M 290.715152 127.828146 
L 290.715152 142.394073 
L 296.145455 142.346726 
L 301.575758 142.252405 
L 307.006061 142.111838 
L 312.436364 141.926088 
L 317.866667 141.696505 
L 323.29697 141.424687 
L 328.727273 141.112427 
L 334.157576 140.761662 
L 339.587879 140.374424 
L 345.018182 139.952793 
L 350.448485 139.498857 
L 355.878788 139.014683 
L 361.309091 138.502282 
L 366.739394 137.963595 
L 372.169697 137.400477 
L 377.6 136.814682 
L 383.030303 136.207864 
L 388.460606 135.581569 
L 393.890909 134.93724 
L 399.321212 134.276214 
L 404.751515 133.599731 
L 410.181818 132.908935 
L 415.612121 132.204881 
L 421.042424 131.488541 
L 426.472727 130.760807 
L 431.90303 130.022501 
L 437.333333 129.274377 
L 442.763636 128.517127 
L 448.193939 127.751389 
L 453.624242 126.977747 
L 459.054545 126.196738 
L 464.484848 125.408858 
L 469.915152 124.614561 
L 475.345455 123.814265 
L 480.775758 123.008358 
L 486.206061 122.197194 
L 491.636364 121.381102 
L 497.066667 120.560386 
L 502.49697 119.735326 
L 507.927273 118.906182 
L 513.357576 118.073195 
L 518.787879 117.236586 
L 524.218182 116.396564 
L 529.648485 115.55332 
L 535.078788 114.707033 
L 540.509091 113.857869 
L 545.939394 113.005983 
L 551.369697 112.15152 
L 556.8 111.294614 
L 556.8 65.629229 
L 556.8 65.629229 
L 551.369697 67.34304 
L 545.939394 69.051966 
L 540.509091 70.755738 
L 535.078788 72.454065 
L 529.648485 74.146639 
L 524.218182 75.833127 
L 518.787879 77.513172 
L 513.357576 79.186389 
L 507.927273 80.852365 
L 502.49697 82.510653 
L 497.066667 84.160772 
L 491.636364 85.802204 
L 486.206061 87.434388 
L 480.775758 89.056715 
L 475.345455 90.668531 
L 469.915152 92.269122 
L 464.484848 93.857716 
L 459.054545 95.433477 
L 453.624242 96.995494 
L 448.193939 98.542778 
L 442.763636 100.074254 
L 437.333333 101.588753 
L 431.90303 103.085002 
L 426.472727 104.561614 
L 421.042424 106.017081 
L 415.612121 107.449762 
L 410.181818 108.85787 
L 404.751515 110.239462 
L 399.321212 111.592428 
L 393.890909 112.91448 
L 388.460606 114.203139 
L 383.030303 115.455728 
L 377.6 116.669365 
L 372.169697 117.840954 
L 366.739394 118.967191 
L 361.309091 120.044563 
L 355.878788 121.069365 
L 350.448485 122.037715 
L 345.018182 122.945586 
L 339.587879 123.788849 
L 334.157576 124.563325 
L 328.727273 125.264854 
L 323.29697 125.889374 
L 317.866667 126.43301 
L 312.436364 126.892176 
L 307.006061 127.263677 
L 301.575758 127.544809 
L 296.145455 127.733452 
L 290.715152 127.828146 
z
" clip-path="url(#p5b7eeba217)" style="fill: #ef6a00"/>
   </g>
   <g id="FillBetweenPolyCollection_11">
    <path d="M 19.2 16.603843 
L 19.2 62.269229 
L 24.630303 63.98304 
L 30.060606 65.691966 
L 35.490909 67.395738 
L 40.921212 69.094065 
L 46.351515 70.786639 
L 51.781818 72.473127 
L 57.212121 74.153172 
L 62.642424 75.826389 
L 68.072727 77.492365 
L 73.50303 79.150653 
L 78.933333 80.800772 
L 84.363636 82.442204 
L 89.793939 84.074388 
L 95.224242 85.696715 
L 100.654545 87.308531 
L 106.084848 88.909122 
L 111.515152 90.497716 
L 116.945455 92.073477 
L 122.375758 93.635494 
L 127.806061 95.182778 
L 133.236364 96.714254 
L 138.666667 98.228753 
L 144.09697 99.725002 
L 149.527273 101.201614 
L 154.957576 102.657081 
L 160.387879 104.089762 
L 165.818182 105.49787 
L 171.248485 106.879462 
L 176.678788 108.232428 
L 182.109091 109.55448 
L 187.539394 110.843139 
L 192.969697 112.095728 
L 198.4 113.309365 
L 203.830303 114.480954 
L 209.260606 115.607191 
L 214.690909 116.684563 
L 220.121212 117.709365 
L 225.551515 118.677715 
L 230.981818 119.585586 
L 236.412121 120.428849 
L 241.842424 121.203325 
L 247.272727 121.904854 
L 252.70303 122.529374 
L 258.133333 123.07301 
L 263.563636 123.532176 
L 268.993939 123.903677 
L 274.424242 124.184809 
L 279.854545 124.373452 
L 285.284848 124.468146 
L 285.284848 109.902219 
L 285.284848 109.902219 
L 279.854545 109.760178 
L 274.424242 109.477214 
L 268.993939 109.055515 
L 263.563636 108.498264 
L 258.133333 107.809514 
L 252.70303 106.994061 
L 247.272727 106.057281 
L 241.842424 105.004987 
L 236.412121 103.843273 
L 230.981818 102.578378 
L 225.551515 101.216572 
L 220.121212 99.764048 
L 214.690909 98.226845 
L 209.260606 96.610786 
L 203.830303 94.921431 
L 198.4 93.164047 
L 192.969697 91.343592 
L 187.539394 89.464708 
L 182.109091 87.53172 
L 176.678788 85.548642 
L 171.248485 83.519192 
L 165.818182 81.446805 
L 160.387879 79.334643 
L 154.957576 77.185622 
L 149.527273 75.002421 
L 144.09697 72.787502 
L 138.666667 70.54313 
L 133.236364 68.271381 
L 127.806061 65.974167 
L 122.375758 63.65324 
L 116.945455 61.310215 
L 111.515152 58.946574 
L 106.084848 56.563682 
L 100.654545 54.162796 
L 95.224242 51.745073 
L 89.793939 49.311581 
L 84.363636 46.863306 
L 78.933333 44.401158 
L 73.50303 41.925979 
L 68.072727 39.438547 
L 62.642424 36.939584 
L 57.212121 34.429758 
L 51.781818 31.909691 
L 46.351515 29.379959 
L 40.921212 26.841098 
L 35.490909 24.293606 
L 30.060606 21.737949 
L 24.630303 19.17456 
L 19.2 16.603843 
z
" clip-path="url(#p5b7eeba217)" style="fill: #61007d"/>
   </g>
   <g id="FillBetweenPolyCollection_12">
    <path d="M 290.715152 109.902219 
L 290.715152 124.468146 
L 296.145455 124.373452 
L 301.575758 124.184809 
L 307.006061 123.903677 
L 312.436364 123.532176 
L 317.866667 123.07301 
L 323.29697 122.529374 
L 328.727273 121.904854 
L 334.157576 121.203325 
L 339.587879 120.428849 
L 345.018182 119.585586 
L 350.448485 118.677715 
L 355.878788 117.709365 
L 361.309091 116.684563 
L 366.739394 115.607191 
L 372.169697 114.480954 
L 377.6 113.309365 
L 383.030303 112.095728 
L 388.460606 110.843139 
L 393.890909 109.55448 
L 399.321212 108.232428 
L 404.751515 106.879462 
L 410.181818 105.49787 
L 415.612121 104.089762 
L 421.042424 102.657081 
L 426.472727 101.201614 
L 431.90303 99.725002 
L 437.333333 98.228753 
L 442.763636 96.714254 
L 448.193939 95.182778 
L 453.624242 93.635494 
L 459.054545 92.073477 
L 464.484848 90.497716 
L 469.915152 88.909122 
L 475.345455 87.308531 
L 480.775758 85.696715 
L 486.206061 84.074388 
L 491.636364 82.442204 
L 497.066667 80.800772 
L 502.49697 79.150653 
L 507.927273 77.492365 
L 513.357576 75.826389 
L 518.787879 74.153172 
L 524.218182 72.473127 
L 529.648485 70.786639 
L 535.078788 69.094065 
L 540.509091 67.395738 
L 545.939394 65.691966 
L 551.369697 63.98304 
L 556.8 62.269229 
L 556.8 16.603843 
L 556.8 16.603843 
L 551.369697 19.17456 
L 545.939394 21.737949 
L 540.509091 24.293606 
L 535.078788 26.841098 
L 529.648485 29.379959 
L 524.218182 31.909691 
L 518.787879 34.429758 
L 513.357576 36.939584 
L 507.927273 39.438547 
L 502.49697 41.925979 
L 497.066667 44.401158 
L 491.636364 46.863306 
L 486.206061 49.311581 
L 480.775758 51.745073 
L 475.345455 54.162796 
L 469.915152 56.563682 
L 464.484848 58.946574 
L 459.054545 61.310215 
L 453.624242 63.65324 
L 448.193939 65.974167 
L 442.763636 68.271381 
L 437.333333 70.54313 
L 431.90303 72.787502 
L 426.472727 75.002421 
L 421.042424 77.185622 
L 415.612121 79.334643 
L 410.181818 81.446805 
L 404.751515 83.519192 
L 399.321212 85.548642 
L 393.890909 87.53172 
L 388.460606 89.464708 
L 383.030303 91.343592 
L 377.6 93.164047 
L 372.169697 94.921431 
L 366.739394 96.610786 
L 361.309091 98.226845 
L 355.878788 99.764048 
L 350.448485 101.216572 
L 345.018182 102.578378 
L 339.587879 103.843273 
L 334.157576 105.004987 
L 328.727273 106.057281 
L 323.29697 106.994061 
L 317.866667 107.809514 
L 312.436364 108.498264 
L 307.006061 109.055515 
L 301.575758 109.477214 
L 296.145455 109.760178 
L 290.715152 109.902219 
z
" clip-path="url(#p5b7eeba217)" style="fill: #cd001a"/>
   </g>
   <g id="FillBetweenPolyCollection_13">
    <defs>
     <path id="m482ed91346" d="M 204 -230.70472 
L 204 -93.29528 
L 207.428571 -94.368768 
L 210.857143 -95.413766 
L 214.285714 -96.428911 
L 217.714286 -97.412795 
L 221.142857 -98.363969 
L 224.571429 -99.280944 
L 228 -100.162199 
L 231.428571 -101.006185 
L 234.857143 -101.811335 
L 238.285714 -102.57607 
L 241.714286 -103.298811 
L 245.142857 -103.977987 
L 248.571429 -104.612054 
L 252 -105.199499 
L 255.428571 -105.738862 
L 258.857143 -106.228748 
L 262.285714 -106.667844 
L 265.714286 -107.054931 
L 269.142857 -107.388904 
L 272.571429 -107.668783 
L 276 -107.893728 
L 279.428571 -108.063053 
L 282.857143 -108.176232 
L 286.285714 -108.232911 
L 289.714286 -108.232911 
L 293.142857 -108.176232 
L 296.571429 -108.063053 
L 300 -107.893728 
L 303.428571 -107.668783 
L 306.857143 -107.388904 
L 310.285714 -107.054931 
L 313.714286 -106.667844 
L 317.142857 -106.228748 
L 320.571429 -105.738862 
L 324 -105.199499 
L 327.428571 -104.612054 
L 330.857143 -103.977987 
L 334.285714 -103.298811 
L 337.714286 -102.57607 
L 341.142857 -101.811335 
L 344.571429 -101.006185 
L 348 -100.162199 
L 351.428571 -99.280944 
L 354.857143 -98.363969 
L 358.285714 -97.412795 
L 361.714286 -96.428911 
L 365.142857 -95.413766 
L 368.571429 -94.368768 
L 372 -93.29528 
L 372 -230.70472 
L 372 -230.70472 
L 368.571429 -229.631232 
L 365.142857 -228.586234 
L 361.714286 -227.571089 
L 358.285714 -226.587205 
L 354.857143 -225.636031 
L 351.428571 -224.719056 
L 348 -223.837801 
L 344.571429 -222.993815 
L 341.142857 -222.188665 
L 337.714286 -221.42393 
L 334.285714 -220.701189 
L 330.857143 -220.022013 
L 327.428571 -219.387946 
L 324 -218.800501 
L 320.571429 -218.261138 
L 317.142857 -217.771252 
L 313.714286 -217.332156 
L 310.285714 -216.945069 
L 306.857143 -216.611096 
L 303.428571 -216.331217 
L 300 -216.106272 
L 296.571429 -215.936947 
L 293.142857 -215.823768 
L 289.714286 -215.767089 
L 286.285714 -215.767089 
L 282.857143 -215.823768 
L 279.428571 -215.936947 
L 276 -216.106272 
L 272.571429 -216.331217 
L 269.142857 -216.611096 
L 265.714286 -216.945069 
L 262.285714 -217.332156 
L 258.857143 -217.771252 
L 255.428571 -218.261138 
L 252 -218.800501 
L 248.571429 -219.387946 
L 245.142857 -220.022013 
L 241.714286 -220.701189 
L 238.285714 -221.42393 
L 234.857143 -222.188665 
L 231.428571 -222.993815 
L 228 -223.837801 
L 224.571429 -224.719056 
L 221.142857 -225.636031 
L 217.714286 -226.587205 
L 214.285714 -227.571089 
L 210.857143 -228.586234 
L 207.428571 -229.631232 
L 204 -230.70472 
z
" style="stroke: #1a1a1a; stroke-width: 15"/>
    </defs>
    <g clip-path="url(#p5b7eeba217)">
     <use xlink:href="#m482ed91346" x="0" y="324" style="fill: #1a1a1a; stroke: #1a1a1a; stroke-width: 15"/>
    </g>
   </g>
   <g id="line2d_1">
    <path d="M 215.2 178.8 
L 248.8 145.2 
" clip-path="url(#p5b7eeba217)" style="fill: none; stroke: #cccccc; stroke-width: 6; stroke-linecap: round"/>
   </g>
   <g id="line2d_2">
    <path d="M 215.2 145.2 
L 248.8 178.8 
" clip-path="url(#p5b7eeba217)" style="fill: none; stroke: #cccccc; stroke-width: 6; stroke-linecap: round"/>
   </g>
   <g id="line2d_3">
    <path d="M 271.2 178.8 
L 304.8 145.2 
" clip-path="url(#p5b7eeba217)" style="fill: none; stroke: #cccccc; stroke-width: 6; stroke-linecap: round"/>
   </g>
   <g id="line2d_4">
    <path d="M 271.2 145.2 
L 304.8 178.8 
" clip-path="url(#p5b7eeba217)" style="fill: none; stroke: #cccccc; stroke-width: 6; stroke-linecap: round"/>
   </g>
   <g id="line2d_5">
    <path d="M 327.2 178.8 
L 360.8 145.2 
" clip-path="url(#p5b7eeba217)" style="fill: none; stroke: #cccccc; stroke-width: 6; stroke-linecap: round"/>
   </g>
   <g id="line2d_6">
    <path d="M 327.2 145.2 
L 360.8 178.8 
" clip-path="url(#p5b7eeba217)" style="fill: none; stroke: #cccccc; stroke-width: 6; stroke-linecap: round"/>
   </g>
  </g>
 </g>
 <defs>
  <clipPath id="p5b7eeba217">
   <rect x="19.2" y="10.8" width="537.6" height="302.4"/>
  </clipPath>
 </defs>
</svg>
