<svg version="1.1" xmlns="http://www.w3.org/2000/svg" xmlns:xlink="http://www.w3.org/1999/xlink" width="241" height="114"><defs><clipPath id="TRqeGiIwvdUN"><path fill="none" stroke="none" d=" M 0 0 L 241 0 L 241 114 L 0 114 L 0 0 Z"/></clipPath></defs><g transform="scale(1,1)" clip-path="url(#TRqeGiIwvdUN)"><g transform="translate(-70,-258)"><path fill="#000000" stroke="none" paint-order="stroke fill markers" fill-rule="evenodd" d=" M 450.5 115 L 471.5 115 C 472.880711874577 115 474 116.11928812542301 474 117.5 L 474 138.5 C 474 139.88071187457697 472.880711874577 141 471.5 141 L 450.5 141 C 449.119288125423 141 448 139.88071187457697 448 138.5 L 448 117.5 C 448 116.11928812542301 449.119288125423 115 450.5 115 Z"/><path fill="none" stroke="rgb(0,0,0)" paint-order="fill stroke markers" d=" M 450.5 115 L 471.5 115 C 472.880711874577 115 474 116.11928812542301 474 117.5 L 474 138.5 C 474 139.88071187457697 472.880711874577 141 471.5 141 L 450.5 141 C 449.119288125423 141 448 139.88071187457697 448 138.5 L 448 117.5 C 448 116.11928812542301 449.119288125423 115 450.5 115 Z" stroke-opacity="1" stroke-linecap="round" stroke-linejoin="round" stroke-miterlimit="10"/><path fill="none" stroke="rgb(68,68,68)" paint-order="fill stroke markers" d=" M 453 130 L 458 135 Z" stroke-opacity="1" stroke-linecap="round" stroke-linejoin="round" stroke-miterlimit="10" stroke-width="4"/><path fill="none" stroke="rgb(68,68,68)" paint-order="fill stroke markers" d=" M 458 135 L 468 121 Z" stroke-opacity="1" stroke-linecap="round" stroke-linejoin="round" stroke-miterlimit="10" stroke-width="4"/><text fill="rgb(0,0,0)" stroke="none" font-family="geogebra-sans-serif, sans-serif" font-size="32px" font-style="normal" font-weight="normal" text-decoration="normal" x="483" y="140" text-anchor="start" dominant-baseline="alphabetic" fill-opacity="1">Serif</text><g transform="scale(35,35)"><g transform="translate(2.2857142857142856,9.424529857142858)"><path fill="rgb(0,0,0)" stroke="none" paint-order="stroke fill markers" d=" M 0.28700000000000003 -0.683 L 0.209 -0.365 Q 0.271 -0.442 0.357 -0.442 Q 0.446 -0.442 0.467 -0.373 L 0.467 -0.372 Q 0.47200000000000003 -0.355 0.47200000000000003 -0.335 Q 0.47200000000000003 -0.279 0.41100000000000003 -0.115 Q 0.393 -0.07100000000000001 0.393 -0.044 Q 0.393 -0.011 0.417 -0.011 Q 0.47900000000000004 -0.011 0.515 -0.121 L 0.519 -0.135 Q 0.524 -0.151 0.529 -0.152 L 0.529 -0.153 L 0.534 -0.153 Q 0.546 -0.153 0.546 -0.14300000000000002 Q 0.546 -0.126 0.525 -0.08 Q 0.482 0.011 0.41500000000000004 0.011 Q 0.364 0.011 0.342 -0.032 Q 0.333 -0.05 0.333 -0.07100000000000001 Q 0.333 -0.089 0.34600000000000003 -0.126 Q 0.40800000000000003 -0.28400000000000003 0.40800000000000003 -0.35000000000000003 Q 0.40800000000000003 -0.42 0.354 -0.42 Q 0.306 -0.42 0.258 -0.385 Q 0.221 -0.356 0.193 -0.299 L 0.19 -0.293 Q 0.186 -0.269 0.179 -0.248 Q 0.17400000000000002 -0.225 0.162 -0.181 L 0.14 -0.091 L 0.121 -0.015 Q 0.114 0.006 0.09 0.01 Q 0.08700000000000001 0.011 0.084 0.011 Q 0.06 0.011 0.056 -0.01 Q 0.055 -0.014 0.055 -0.017 Q 0.055 -0.025 0.059000000000000004 -0.039 L 0.20400000000000001 -0.615 L 0.20700000000000002 -0.635 Q 0.20700000000000002 -0.646 0.193 -0.649 L 0.193 -0.649 Q 0.181 -0.652 0.157 -0.652 Q 0.135 -0.652 0.133 -0.664 Q 0.133 -0.681 0.152 -0.684 L 0.274 -0.6940000000000001 Q 0.28700000000000003 -0.6940000000000001 0.28700000000000003 -0.683 Z"/></g><g transform="translate(2.8617142857142857,9.574529857142858) scale(0.7,0.7)"><path fill="rgb(0,0,0)" stroke="none" paint-order="stroke fill markers" d=" M 0.46 -0.32 Q 0.46 -0.17400000000000002 0.423 -0.094 Q 0.364 0.018000000000000002 0.249 0.022 Q 0.158 0.022 0.10300000000000001 -0.05 Q 0.092 -0.063 0.084 -0.079 Q 0.039 -0.162 0.039 -0.32 Q 0.039 -0.467 0.076 -0.547 Q 0.126 -0.659 0.23800000000000002 -0.666 L 0.25 -0.666 Q 0.339 -0.666 0.395 -0.595 L 0.395 -0.594 Q 0.40900000000000003 -0.5760000000000001 0.42 -0.554 Q 0.46 -0.46900000000000003 0.46 -0.32 M 0.249 0 L 0.249 0 Q 0.312 0 0.34600000000000003 -0.061 Q 0.36 -0.088 0.366 -0.125 Q 0.377 -0.189 0.377 -0.332 Q 0.377 -0.47100000000000003 0.367 -0.527 Q 0.34900000000000003 -0.622 0.275 -0.641 Q 0.262 -0.644 0.249 -0.644 Q 0.179 -0.644 0.147 -0.5740000000000001 Q 0.136 -0.55 0.13 -0.516 Q 0.122 -0.462 0.122 -0.332 Q 0.122 -0.181 0.133 -0.121 Q 0.151 -0.025 0.221 -0.004 Q 0.23500000000000001 0 0.249 0 Z"/></g><g transform="translate(3.4894920634920634,9.424529857142858)"><path fill="rgb(0,0,0)" stroke="none" paint-order="stroke fill markers" d=" M 0.192 -0.378 Q 0.192 -0.34500000000000003 0.162 -0.33 Q 0.151 -0.325 0.139 -0.325 Q 0.106 -0.325 0.091 -0.355 Q 0.08600000000000001 -0.366 0.08600000000000001 -0.378 Q 0.08600000000000001 -0.41100000000000003 0.116 -0.426 Q 0.127 -0.431 0.139 -0.431 Q 0.17200000000000001 -0.431 0.187 -0.401 Q 0.192 -0.39 0.192 -0.378 M 0.192 -0.053 L 0.192 -0.053 Q 0.192 -0.02 0.162 -0.005 Q 0.151 0 0.139 0 Q 0.106 0 0.091 -0.03 Q 0.08600000000000001 -0.041 0.08600000000000001 -0.053 Q 0.08600000000000001 -0.08600000000000001 0.116 -0.101 Q 0.127 -0.106 0.139 -0.106 Q 0.17200000000000001 -0.106 0.187 -0.076 Q 0.192 -0.065 0.192 -0.053 Z"/></g><g transform="translate(3.7674920634920634,9.424529857142858)"><path fill="rgb(0,0,0)" stroke="none" paint-order="stroke fill markers" d=" M 0.687 -0.327 L 0.09 -0.327 Q 0.058 -0.327 0.056 -0.34700000000000003 Q 0.056 -0.367 0.089 -0.367 L 0.6880000000000001 -0.367 Q 0.72 -0.367 0.721 -0.34700000000000003 Q 0.721 -0.327 0.687 -0.327 M 0.6880000000000001 -0.133 L 0.089 -0.133 Q 0.057 -0.133 0.056 -0.153 Q 0.056 -0.17300000000000001 0.09 -0.17300000000000001 L 0.687 -0.17300000000000001 Q 0.719 -0.17300000000000001 0.721 -0.153 Q 0.721 -0.133 0.6880000000000001 -0.133 Z"/></g><g transform="translate(5.205111292967127,8.748021857142858)"><path fill="rgb(0,0,0)" stroke="none" paint-order="stroke fill markers" d=" M 0.294 -0.64 L 0.294 -0.079 Q 0.294 -0.049 0.306 -0.041 Q 0.323 -0.031 0.387 -0.031 L 0.419 -0.031 L 0.419 0 Q 0.384 -0.003 0.257 -0.003 Q 0.13 -0.003 0.095 0 L 0.095 -0.031 L 0.127 -0.031 Q 0.20400000000000001 -0.031 0.215 -0.049 L 0.216 -0.05 Q 0.22 -0.058 0.22 -0.079 L 0.22 -0.597 Q 0.168 -0.5710000000000001 0.089 -0.5710000000000001 L 0.089 -0.602 Q 0.209 -0.602 0.271 -0.666 Q 0.29 -0.666 0.293 -0.659 L 0.293 -0.659 L 0.293 -0.658 Q 0.294 -0.655 0.294 -0.64 Z"/></g><g transform="translate(5.705111292967127,8.748021857142858)"><path fill="rgb(0,0,0)" stroke="none" paint-order="stroke fill markers" d=" M 0.46 -0.32 Q 0.46 -0.17400000000000002 0.423 -0.094 Q 0.364 0.018000000000000002 0.249 0.022 Q 0.158 0.022 0.10300000000000001 -0.05 Q 0.092 -0.063 0.084 -0.079 Q 0.039 -0.162 0.039 -0.32 Q 0.039 -0.467 0.076 -0.547 Q 0.126 -0.659 0.23800000000000002 -0.666 L 0.25 -0.666 Q 0.339 -0.666 0.395 -0.595 L 0.395 -0.594 Q 0.40900000000000003 -0.5760000000000001 0.42 -0.554 Q 0.46 -0.46900000000000003 0.46 -0.32 M 0.249 0 L 0.249 0 Q 0.312 0 0.34600000000000003 -0.061 Q 0.36 -0.088 0.366 -0.125 Q 0.377 -0.189 0.377 -0.332 Q 0.377 -0.47100000000000003 0.367 -0.527 Q 0.34900000000000003 -0.622 0.275 -0.641 Q 0.262 -0.644 0.249 -0.644 Q 0.179 -0.644 0.147 -0.5740000000000001 Q 0.136 -0.55 0.13 -0.516 Q 0.122 -0.462 0.122 -0.332 Q 0.122 -0.181 0.133 -0.121 Q 0.151 -0.025 0.221 -0.004 Q 0.23500000000000001 0 0.249 0 Z"/></g><g transform="translate(6.205111292967127,8.748021857142858)"><path fill="rgb(0,0,0)" stroke="none" paint-order="stroke fill markers" d=" M 0.303 -0.316 L 0.303 -0.316 L 0.241 -0.066 L 0.23800000000000002 -0.049 Q 0.23800000000000002 -0.032 0.28400000000000003 -0.031 L 0.28400000000000003 -0.031 L 0.28400000000000003 -0.031 L 0.303 -0.031 Q 0.329 -0.031 0.331 -0.02 Q 0.331 0 0.311 0 L 0.247 -0.002 L 0.246 -0.002 L 0.184 -0.003 L 0.182 -0.003 L 0.056 0 L 0.055 0 Q 0.04 0 0.04 -0.012 Q 0.04 -0.029 0.056 -0.031 L 0.068 -0.031 Q 0.133 -0.031 0.146 -0.045 Q 0.152 -0.052000000000000005 0.158 -0.073 Q 0.158 -0.074 0.159 -0.078 L 0.293 -0.615 Q 0.297 -0.631 0.297 -0.634 Q 0.297 -0.646 0.281 -0.649 L 0.28 -0.649 L 0.28 -0.649 Q 0.278 -0.65 0.275 -0.65 Q 0.251 -0.652 0.232 -0.652 Q 0.20600000000000002 -0.652 0.20400000000000001 -0.66 Q 0.203 -0.662 0.203 -0.664 Q 0.203 -0.681 0.22 -0.683 L 0.22 -0.683 L 0.233 -0.683 L 0.557 -0.683 Q 0.678 -0.683 0.73 -0.609 Q 0.754 -0.5740000000000001 0.754 -0.532 Q 0.754 -0.451 0.671 -0.385 Q 0.583 -0.316 0.47300000000000003 -0.316 L 0.303 -0.316 M 0.375 -0.614 L 0.307 -0.342 L 0.448 -0.342 Q 0.543 -0.342 0.602 -0.395 Q 0.643 -0.433 0.658 -0.522 L 0.658 -0.523 Q 0.661 -0.542 0.661 -0.556 Q 0.661 -0.652 0.525 -0.652 L 0.429 -0.652 Q 0.393 -0.652 0.385 -0.642 L 0.385 -0.642 L 0.385 -0.641 L 0.384 -0.641 L 0.384 -0.64 Q 0.38 -0.634 0.375 -0.614 Z"/></g><g transform="translate(6.986111292967127,8.182142857142857) scale(0.7,0.7)"><path fill="rgb(0,0,0)" stroke="none" paint-order="stroke fill markers" d=" M 0.294 -0.64 L 0.294 -0.079 Q 0.294 -0.049 0.306 -0.041 Q 0.323 -0.031 0.387 -0.031 L 0.419 -0.031 L 0.419 0 Q 0.384 -0.003 0.257 -0.003 Q 0.13 -0.003 0.095 0 L 0.095 -0.031 L 0.127 -0.031 Q 0.20400000000000001 -0.031 0.215 -0.049 L 0.216 -0.05 Q 0.22 -0.058 0.22 -0.079 L 0.22 -0.597 Q 0.168 -0.5710000000000001 0.089 -0.5710000000000001 L 0.089 -0.602 Q 0.209 -0.602 0.271 -0.666 Q 0.29 -0.666 0.293 -0.659 L 0.293 -0.659 L 0.293 -0.658 Q 0.294 -0.655 0.294 -0.64 Z"/></g><g transform="translate(7.336111292967127,8.182142857142857) scale(0.7,0.7)"><path fill="rgb(0,0,0)" stroke="none" paint-order="stroke fill markers" d=" M 0.439 -0.712 L 0.097 0.226 Q 0.089 0.247 0.081 0.249 L 0.08 0.25 L 0.075 0.25 Q 0.059000000000000004 0.25 0.056 0.23500000000000001 Q 0.055 0.232 0.055 0.23 Q 0.055 0.225 0.06 0.212 L 0.40700000000000003 -0.741 Q 0.41200000000000003 -0.75 0.424 -0.75 Q 0.44 -0.75 0.443 -0.735 Q 0.444 -0.732 0.444 -0.73 Q 0.444 -0.725 0.439 -0.712 Z"/></g><g transform="translate(7.6861112929671265,8.182142857142857) scale(0.7,0.7)"><path fill="rgb(0,0,0)" stroke="none" paint-order="stroke fill markers" d=" M 0.449 -0.17400000000000002 L 0.449 -0.17400000000000002 L 0.421 0 L 0.05 0 Q 0.05 -0.025 0.056 -0.032 L 0.061 -0.037 L 0.253 -0.251 Q 0.358 -0.369 0.358 -0.47200000000000003 Q 0.358 -0.561 0.304 -0.607 L 0.303 -0.608 L 0.302 -0.608 Q 0.27 -0.635 0.224 -0.635 Q 0.152 -0.635 0.109 -0.5730000000000001 Q 0.097 -0.555 0.089 -0.533 Q 0.092 -0.534 0.10200000000000001 -0.534 Q 0.14200000000000002 -0.534 0.153 -0.498 L 0.153 -0.497 Q 0.155 -0.49 0.155 -0.482 Q 0.155 -0.442 0.117 -0.431 Q 0.109 -0.429 0.10300000000000001 -0.429 Q 0.066 -0.429 0.054 -0.46 Q 0.05 -0.47100000000000003 0.05 -0.485 Q 0.05 -0.562 0.109 -0.617 Q 0.162 -0.666 0.23700000000000002 -0.666 Q 0.34700000000000003 -0.666 0.40800000000000003 -0.592 Q 0.443 -0.549 0.448 -0.49 Q 0.449 -0.481 0.449 -0.47200000000000003 Q 0.449 -0.399 0.394 -0.333 Q 0.365 -0.299 0.304 -0.243 L 0.243 -0.189 L 0.233 -0.18 L 0.127 -0.077 L 0.307 -0.077 Q 0.395 -0.077 0.402 -0.085 Q 0.41200000000000003 -0.099 0.424 -0.17400000000000002 L 0.449 -0.17400000000000002 Z"/></g><g transform="translate(6.847111292967127,8.995238857142857) scale(0.7,0.7)"><path fill="rgb(0,0,0)" stroke="none" paint-order="stroke fill markers" d=" M 0.593 -0.063 L 0.593 -0.063 Q 0.554 0.004 0.45 0.019 Q 0.428 0.022 0.406 0.022 Q 0.268 0.022 0.167 -0.076 Q 0.064 -0.176 0.056 -0.323 L 0.056 -0.342 Q 0.056 -0.491 0.157 -0.597 Q 0.252 -0.6970000000000001 0.385 -0.704 Q 0.394 -0.705 0.404 -0.705 Q 0.501 -0.705 0.58 -0.628 L 0.581 -0.627 L 0.582 -0.626 L 0.589 -0.619 L 0.639 -0.6930000000000001 Q 0.647 -0.705 0.655 -0.705 Q 0.665 -0.6960000000000001 0.666 -0.681 L 0.666 -0.444 Q 0.666 -0.423 0.66 -0.421 L 0.66 -0.421 Q 0.657 -0.42 0.65 -0.42 Q 0.637 -0.42 0.635 -0.429 Q 0.635 -0.431 0.634 -0.437 Q 0.615 -0.5750000000000001 0.526 -0.638 Q 0.47600000000000003 -0.674 0.41600000000000004 -0.674 Q 0.33 -0.674 0.263 -0.618 Q 0.245 -0.604 0.231 -0.586 Q 0.159 -0.499 0.159 -0.342 Q 0.159 -0.111 0.309 -0.036000000000000004 Q 0.364 -0.009000000000000001 0.422 -0.009000000000000001 Q 0.497 -0.009000000000000001 0.541 -0.047 Q 0.577 -0.078 0.577 -0.13 L 0.577 -0.194 Q 0.577 -0.224 0.5640000000000001 -0.232 L 0.5630000000000001 -0.232 Q 0.547 -0.242 0.484 -0.242 L 0.452 -0.242 L 0.452 -0.273 Q 0.488 -0.27 0.613 -0.27 Q 0.624 -0.27 0.735 -0.273 L 0.735 -0.242 Q 0.68 -0.242 0.671 -0.23 L 0.671 -0.229 Q 0.666 -0.222 0.666 -0.198 L 0.666 -0.024 Q 0.666 -0.002 0.657 -0.001 Q 0.644 -0.001 0.609 -0.041 Q 0.598 -0.054 0.593 -0.063 Z"/></g><g transform="translate(7.396611292967127,8.995238857142857) scale(0.7,0.7)"><path fill="rgb(0,0,0)" stroke="none" paint-order="stroke fill markers" d=" M 0.909 -0.585 L 0.718 0.002 Q 0.707 0.02 0.6980000000000001 0.022 Q 0.685 0.022 0.679 0.003 L 0.513 -0.506 L 0.34800000000000003 0.002 Q 0.337 0.02 0.328 0.022 Q 0.315 0.022 0.309 0.003 L 0.109 -0.61 Q 0.1 -0.639 0.08700000000000001 -0.645 Q 0.07200000000000001 -0.652 0.018000000000000002 -0.652 L 0.018000000000000002 -0.683 Q 0.14100000000000001 -0.68 0.14 -0.68 Q 0.246 -0.68 0.28200000000000003 -0.683 L 0.28200000000000003 -0.652 Q 0.198 -0.652 0.198 -0.622 Q 0.198 -0.615 0.2 -0.609 L 0.361 -0.117 L 0.5 -0.546 L 0.47800000000000004 -0.616 Q 0.468 -0.645 0.441 -0.65 Q 0.428 -0.652 0.388 -0.652 L 0.388 -0.683 Q 0.511 -0.68 0.51 -0.68 Q 0.616 -0.68 0.652 -0.683 L 0.652 -0.652 Q 0.5680000000000001 -0.652 0.5680000000000001 -0.622 Q 0.5680000000000001 -0.619 0.5710000000000001 -0.607 L 0.731 -0.117 L 0.881 -0.579 Q 0.886 -0.594 0.886 -0.599 Q 0.886 -0.626 0.853 -0.641 Q 0.8310000000000001 -0.652 0.799 -0.652 L 0.799 -0.683 Q 0.877 -0.68 0.918 -0.68 Q 0.964 -0.68 1.0090000000000001 -0.683 L 1.0090000000000001 -0.652 Q 0.93 -0.652 0.909 -0.585 Z"/></g><rect fill="rgb(0,0,0)" stroke="none" x="4.857427464466412" y="9.154530357142857" width="3.6305" height="0.039999"/><g transform="translate(4.857427464466412,10.110480857142857)"><path fill="rgb(0,0,0)" stroke="none" paint-order="stroke fill markers" d=" M 0.264 -0.082 Q 0.201 0.011 0.11900000000000001 0.011 Q 0.032 0.011 0.016 -0.089 Q 0.013000000000000001 -0.109 0.013000000000000001 -0.131 Q 0.013000000000000001 -0.22 0.051000000000000004 -0.311 Q 0.082 -0.382 0.112 -0.419 Q 0.122 -0.431 0.127 -0.431 Q 0.139 -0.431 0.139 -0.419 Q 0.139 -0.41400000000000003 0.129 -0.4 Q 0.045 -0.28 0.045 -0.17500000000000002 Q 0.045 -0.08 0.109 -0.064 Q 0.12 -0.061 0.133 -0.061 Q 0.201 -0.061 0.257 -0.138 Q 0.264 -0.145 0.266 -0.165 Q 0.276 -0.23800000000000002 0.28700000000000003 -0.266 Q 0.3 -0.291 0.315 -0.291 Q 0.334 -0.291 0.336 -0.268 Q 0.336 -0.24 0.308 -0.168 Q 0.306 -0.161 0.303 -0.155 Q 0.297 -0.14400000000000002 0.297 -0.139 Q 0.297 -0.111 0.317 -0.084 Q 0.335 -0.061 0.372 -0.061 Q 0.449 -0.061 0.511 -0.14400000000000002 Q 0.562 -0.214 0.562 -0.28 Q 0.562 -0.331 0.527 -0.367 Q 0.512 -0.38 0.512 -0.394 Q 0.512 -0.419 0.539 -0.435 Q 0.55 -0.442 0.562 -0.442 Q 0.599 -0.442 0.604 -0.388 Q 0.605 -0.377 0.605 -0.371 Q 0.605 -0.307 0.5750000000000001 -0.213 Q 0.55 -0.136 0.511 -0.082 Q 0.443 0.011 0.358 0.011 Q 0.277 0.011 0.264 -0.082 Z"/></g><g transform="translate(5.479427464466412,10.260480857142857) scale(0.7,0.7)"><path fill="rgb(0,0,0)" stroke="none" paint-order="stroke fill markers" d=" M 0.593 -0.063 L 0.593 -0.063 Q 0.554 0.004 0.45 0.019 Q 0.428 0.022 0.406 0.022 Q 0.268 0.022 0.167 -0.076 Q 0.064 -0.176 0.056 -0.323 L 0.056 -0.342 Q 0.056 -0.491 0.157 -0.597 Q 0.252 -0.6970000000000001 0.385 -0.704 Q 0.394 -0.705 0.404 -0.705 Q 0.501 -0.705 0.58 -0.628 L 0.581 -0.627 L 0.582 -0.626 L 0.589 -0.619 L 0.639 -0.6930000000000001 Q 0.647 -0.705 0.655 -0.705 Q 0.665 -0.6960000000000001 0.666 -0.681 L 0.666 -0.444 Q 0.666 -0.423 0.66 -0.421 L 0.66 -0.421 Q 0.657 -0.42 0.65 -0.42 Q 0.637 -0.42 0.635 -0.429 Q 0.635 -0.431 0.634 -0.437 Q 0.615 -0.5750000000000001 0.526 -0.638 Q 0.47600000000000003 -0.674 0.41600000000000004 -0.674 Q 0.33 -0.674 0.263 -0.618 Q 0.245 -0.604 0.231 -0.586 Q 0.159 -0.499 0.159 -0.342 Q 0.159 -0.111 0.309 -0.036000000000000004 Q 0.364 -0.009000000000000001 0.422 -0.009000000000000001 Q 0.497 -0.009000000000000001 0.541 -0.047 Q 0.577 -0.078 0.577 -0.13 L 0.577 -0.194 Q 0.577 -0.224 0.5640000000000001 -0.232 L 0.5630000000000001 -0.232 Q 0.547 -0.242 0.484 -0.242 L 0.452 -0.242 L 0.452 -0.273 Q 0.488 -0.27 0.613 -0.27 Q 0.624 -0.27 0.735 -0.273 L 0.735 -0.242 Q 0.68 -0.242 0.671 -0.23 L 0.671 -0.229 Q 0.666 -0.222 0.666 -0.198 L 0.666 -0.024 Q 0.666 -0.002 0.657 -0.001 Q 0.644 -0.001 0.609 -0.041 Q 0.598 -0.054 0.593 -0.063 Z"/></g><g transform="translate(6.028927464466412,10.260480857142857) scale(0.7,0.7)"><path fill="rgb(0,0,0)" stroke="none" paint-order="stroke fill markers" d=" M 0.909 -0.585 L 0.718 0.002 Q 0.707 0.02 0.6980000000000001 0.022 Q 0.685 0.022 0.679 0.003 L 0.513 -0.506 L 0.34800000000000003 0.002 Q 0.337 0.02 0.328 0.022 Q 0.315 0.022 0.309 0.003 L 0.109 -0.61 Q 0.1 -0.639 0.08700000000000001 -0.645 Q 0.07200000000000001 -0.652 0.018000000000000002 -0.652 L 0.018000000000000002 -0.683 Q 0.14100000000000001 -0.68 0.14 -0.68 Q 0.246 -0.68 0.28200000000000003 -0.683 L 0.28200000000000003 -0.652 Q 0.198 -0.652 0.198 -0.622 Q 0.198 -0.615 0.2 -0.609 L 0.361 -0.117 L 0.5 -0.546 L 0.47800000000000004 -0.616 Q 0.468 -0.645 0.441 -0.65 Q 0.428 -0.652 0.388 -0.652 L 0.388 -0.683 Q 0.511 -0.68 0.51 -0.68 Q 0.616 -0.68 0.652 -0.683 L 0.652 -0.652 Q 0.5680000000000001 -0.652 0.5680000000000001 -0.622 Q 0.5680000000000001 -0.619 0.5710000000000001 -0.607 L 0.731 -0.117 L 0.881 -0.579 Q 0.886 -0.594 0.886 -0.599 Q 0.886 -0.626 0.853 -0.641 Q 0.8310000000000001 -0.652 0.799 -0.652 L 0.799 -0.683 Q 0.877 -0.68 0.918 -0.68 Q 0.964 -0.68 1.0090000000000001 -0.683 L 1.0090000000000001 -0.652 Q 0.93 -0.652 0.909 -0.585 Z"/></g><g transform="translate(6.758327464466412,10.110480857142857)"><path fill="rgb(0,0,0)" stroke="none" paint-order="stroke fill markers" d=" M 0.516 -0.683 L 0.372 -0.105 Q 0.366 -0.08 0.366 -0.057 Q 0.366 -0.011 0.396 -0.011 Q 0.434 -0.011 0.46 -0.091 Q 0.465 -0.108 0.47200000000000003 -0.135 Q 0.48 -0.152 0.486 -0.153 Q 0.498 -0.153 0.498 -0.14300000000000002 Q 0.498 -0.128 0.48 -0.073 Q 0.47400000000000003 -0.056 0.468 -0.044 Q 0.44 0.011 0.394 0.011 Q 0.338 0.011 0.313 -0.037 Q 0.306 -0.049 0.303 -0.064 Q 0.24 0.011 0.17300000000000001 0.011 Q 0.098 0.011 0.062 -0.057 Q 0.04 -0.097 0.04 -0.149 Q 0.04 -0.257 0.115 -0.34900000000000003 Q 0.185 -0.433 0.267 -0.441 Q 0.274 -0.442 0.281 -0.442 Q 0.342 -0.442 0.373 -0.378 L 0.433 -0.615 L 0.436 -0.635 Q 0.436 -0.646 0.422 -0.649 Q 0.41000000000000003 -0.652 0.386 -0.652 Q 0.364 -0.652 0.362 -0.664 Q 0.362 -0.681 0.376 -0.683 Q 0.47000000000000003 -0.6940000000000001 0.503 -0.6940000000000001 Q 0.516 -0.6940000000000001 0.516 -0.683 M 0.308 -0.11900000000000001 L 0.308 -0.11900000000000001 L 0.358 -0.315 Q 0.361 -0.33 0.361 -0.332 Q 0.361 -0.353 0.343 -0.383 Q 0.321 -0.42 0.28200000000000003 -0.42 Q 0.23 -0.42 0.183 -0.352 Q 0.17400000000000002 -0.339 0.166 -0.324 Q 0.137 -0.266 0.117 -0.159 Q 0.111 -0.125 0.111 -0.105 Q 0.111 -0.037 0.149 -0.017 Q 0.16 -0.011 0.17500000000000002 -0.011 Q 0.231 -0.011 0.28800000000000003 -0.082 Q 0.302 -0.098 0.307 -0.115 L 0.307 -0.116 Q 0.308 -0.11800000000000001 0.308 -0.11900000000000001 Z"/></g><g transform="translate(7.278327464466413,10.260480857142857) scale(0.7,0.7)"><path fill="rgb(0,0,0)" stroke="none" paint-order="stroke fill markers" d=" M 0.721 -0.339 Q 0.721 -0.19 0.624 -0.084 Q 0.532 0.016 0.401 0.022 L 0.388 0.022 Q 0.259 0.022 0.163 -0.074 Q 0.062 -0.17400000000000002 0.056 -0.323 L 0.056 -0.339 Q 0.056 -0.491 0.154 -0.598 Q 0.246 -0.6990000000000001 0.374 -0.705 L 0.388 -0.705 Q 0.519 -0.705 0.616 -0.606 Q 0.715 -0.504 0.721 -0.356 L 0.721 -0.339 M 0.389 -0.004 L 0.389 -0.004 Q 0.47200000000000003 -0.004 0.534 -0.075 Q 0.618 -0.17 0.618 -0.353 Q 0.618 -0.5630000000000001 0.498 -0.644 Q 0.446 -0.68 0.388 -0.68 Q 0.308 -0.68 0.245 -0.617 L 0.245 -0.616 Q 0.159 -0.528 0.159 -0.353 Q 0.159 -0.137 0.272 -0.047 Q 0.326 -0.004 0.389 -0.004 Z"/></g><g transform="translate(7.822927464466413,10.260480857142857) scale(0.7,0.7)"><path fill="rgb(0,0,0)" stroke="none" paint-order="stroke fill markers" d=" M 0.17200000000000001 -0.377 L 0.17200000000000001 -0.377 Q 0.23 -0.442 0.309 -0.442 Q 0.401 -0.442 0.465 -0.369 Q 0.521 -0.304 0.521 -0.216 Q 0.521 -0.112 0.444 -0.044 Q 0.38 0.011 0.298 0.011 Q 0.218 0.011 0.17 -0.058 Q 0.168 -0.06 0.167 -0.062 L 0.131 0 L 0.106 0 L 0.106 -0.596 Q 0.106 -0.635 0.092 -0.644 L 0.091 -0.644 Q 0.08 -0.65 0.053 -0.652 L 0.028 -0.652 L 0.028 -0.683 L 0.17200000000000001 -0.6940000000000001 L 0.17200000000000001 -0.377 M 0.17500000000000002 -0.114 L 0.17500000000000002 -0.114 Q 0.17500000000000002 -0.094 0.185 -0.079 L 0.185 -0.078 L 0.189 -0.07200000000000001 Q 0.229 -0.011 0.294 -0.011 Q 0.364 -0.011 0.40700000000000003 -0.075 Q 0.438 -0.123 0.438 -0.217 Q 0.438 -0.31 0.40900000000000003 -0.356 Q 0.369 -0.42 0.304 -0.42 Q 0.234 -0.42 0.19 -0.362 L 0.186 -0.356 Q 0.17500000000000002 -0.334 0.17500000000000002 -0.32 L 0.17500000000000002 -0.114 Z"/></g><g transform="translate(8.212127464466413,10.260480857142857) scale(0.7,0.7)"><path fill="rgb(0,0,0)" stroke="none" paint-order="stroke fill markers" d=" M 0.20800000000000002 -0.194 L 0.20800000000000002 -0.194 Q 0.122 -0.211 0.095 -0.227 Q 0.085 -0.232 0.076 -0.24 Q 0.033 -0.275 0.033 -0.325 Q 0.033 -0.395 0.095 -0.427 Q 0.134 -0.448 0.193 -0.448 Q 0.249 -0.448 0.28700000000000003 -0.42 Q 0.298 -0.429 0.304 -0.436 Q 0.317 -0.448 0.324 -0.448 Q 0.334 -0.439 0.335 -0.424 L 0.335 -0.323 Q 0.335 -0.302 0.329 -0.3 L 0.328 -0.3 L 0.327 -0.299 L 0.322 -0.299 Q 0.311 -0.299 0.31 -0.308 Q 0.303 -0.40900000000000003 0.227 -0.426 Q 0.211 -0.429 0.193 -0.429 Q 0.099 -0.429 0.083 -0.371 Q 0.081 -0.362 0.081 -0.353 Q 0.081 -0.302 0.158 -0.281 Q 0.17300000000000001 -0.277 0.20400000000000001 -0.271 Q 0.276 -0.257 0.307 -0.232 Q 0.313 -0.228 0.318 -0.223 Q 0.36 -0.181 0.36 -0.128 Q 0.36 -0.043000000000000003 0.29 -0.008 Q 0.252 0.011 0.199 0.011 Q 0.134 0.011 0.089 -0.032 L 0.069 -0.009000000000000001 Q 0.049 0.011 0.044 0.011 Q 0.034 0.002 0.033 -0.013000000000000001 L 0.033 -0.145 Q 0.033 -0.167 0.04 -0.169 L 0.04 -0.169 L 0.041 -0.17 L 0.046 -0.17 Q 0.056 -0.17 0.059000000000000004 -0.159 Q 0.059000000000000004 -0.157 0.06 -0.153 Q 0.08600000000000001 -0.037 0.159 -0.016 Q 0.177 -0.011 0.199 -0.011 Q 0.289 -0.011 0.308 -0.074 Q 0.312 -0.08700000000000001 0.312 -0.10200000000000001 Q 0.312 -0.17500000000000002 0.20800000000000002 -0.194 Z"/></g></g><path fill="rgb(255,255,255)" stroke="none" paint-order="stroke fill markers" fill-rule="evenodd" d=" M 37.5 109 L 172.5 109 C 174.43299662440776 109 176 110.56700337559222 176 112.5 L 176 139.5 C 176 141.43299662440776 174.43299662440776 143 172.5 143 L 37.5 143 C 35.56700337559222 143 34 141.43299662440776 34 139.5 L 34 112.5 C 34 110.56700337559222 35.56700337559222 109 37.5 109 Z" fill-opacity="1"/><path fill="none" stroke="rgb(0,0,0)" paint-order="fill stroke markers" d=" M 37.5 109 L 172.5 109 C 174.43299662440776 109 176 110.56700337559222 176 112.5 L 176 139.5 C 176 141.43299662440776 174.43299662440776 143 172.5 143 L 37.5 143 C 35.56700337559222 143 34 141.43299662440776 34 139.5 L 34 112.5 C 34 110.56700337559222 35.56700337559222 109 37.5 109 Z" stroke-opacity="1" stroke-linecap="round" stroke-linejoin="round" stroke-miterlimit="10"/><text fill="rgb(0,0,0)" stroke="none" font-family="geogebra-sans-serif, sans-serif" font-size="24px" font-style="normal" font-weight="normal" text-decoration="normal" x="44" y="136" text-anchor="start" dominant-baseline="alphabetic" fill-opacity="1">Show SVG</text><path fill="rgb(255,255,255)" stroke="none" paint-order="stroke fill markers" fill-rule="evenodd" d=" M 204.5 106 L 393.5 106 C 395.4329966244078 106 397 107.56700337559222 397 109.5 L 397 136.5 C 397 138.43299662440776 395.4329966244078 140 393.5 140 L 204.5 140 C 202.56700337559224 140 201 138.43299662440776 201 136.5 L 201 109.5 C 201 107.56700337559222 202.56700337559224 106 204.5 106 Z" fill-opacity="1"/><path fill="none" stroke="rgb(0,0,0)" paint-order="fill stroke markers" d=" M 204.5 106 L 393.5 106 C 395.4329966244078 106 397 107.56700337559222 397 109.5 L 397 136.5 C 397 138.43299662440776 395.4329966244078 140 393.5 140 L 204.5 140 C 202.56700337559224 140 201 138.43299662440776 201 136.5 L 201 109.5 C 201 107.56700337559222 202.56700337559224 106 204.5 106 Z" stroke-opacity="1" stroke-linecap="round" stroke-linejoin="round" stroke-miterlimit="10"/><text fill="rgb(0,0,0)" stroke="none" font-family="geogebra-sans-serif, sans-serif" font-size="24px" font-style="normal" font-weight="normal" text-decoration="normal" x="211" y="133" text-anchor="start" dominant-baseline="alphabetic" fill-opacity="1">Download SVG</text><path fill="rgb(255,255,255)" stroke="none" paint-order="stroke fill markers" fill-rule="evenodd" d=" M 225 30 L 735 30 C 737.2091389993232 30 739 31.790861000676827 739 34 L 739 75 C 739 77.20913899932317 737.2091389993232 79 735 79 L 225 79 C 222.7908610006768 79 221 77.20913899932317 221 75 L 221 34 C 221 31.790861000676827 222.7908610006768 30 225 30 Z" fill-opacity="1"/><path fill="none" stroke="rgb(0,0,0)" paint-order="fill stroke markers" d=" M 225 30 L 735 30 C 737.2091389993232 30 739 31.790861000676827 739 34 L 739 75 C 739 77.20913899932317 737.2091389993232 79 735 79 L 225 79 C 222.7908610006768 79 221 77.20913899932317 221 75 L 221 34 C 221 31.790861000676827 222.7908610006768 30 225 30 Z" stroke-opacity="1" stroke-linecap="round" stroke-linejoin="round" stroke-miterlimit="10"/><text fill="rgb(0,0,0)" stroke="none" font-family="geogebra-sans-serif, sans-serif" font-size="32px" font-style="normal" font-weight="normal" text-decoration="normal" x="223" y="66" text-anchor="start" dominant-baseline="alphabetic" fill-opacity="1">h</text><text fill="rgb(0,0,0)" stroke="none" font-family="geogebra-sans-serif, sans-serif" font-size="28px" font-style="normal" font-weight="normal" text-decoration="normal" x="243" y="80" text-anchor="start" dominant-baseline="alphabetic" fill-opacity="1">0</text><text fill="rgb(0,0,0)" stroke="none" font-family="geogebra-sans-serif, sans-serif" font-size="32px" font-style="normal" font-weight="normal" text-decoration="normal" x="261" y="66" text-anchor="start" dominant-baseline="alphabetic" fill-opacity="1"> := \frac{10P</text><text fill="rgb(0,0,0)" stroke="none" font-family="geogebra-sans-serif, sans-serif" font-size="28px" font-style="normal" font-weight="normal" text-decoration="normal" x="472" y="80" text-anchor="start" dominant-baseline="alphabetic" fill-opacity="1">\rm GW</text><text fill="rgb(0,0,0)" stroke="none" font-family="geogebra-sans-serif, sans-serif" font-size="32px" font-style="normal" font-weight="normal" text-decoration="normal" x="578" y="66" text-anchor="start" dominant-baseline="alphabetic" fill-opacity="1">^{1</text><text fill="rgb(0,0,0)" stroke="none" font-family="geogebra-sans-serif, sans-serif" font-size="32px" font-style="normal" font-weight="normal" text-decoration="normal" x="30" y="66" text-anchor="start" dominant-baseline="alphabetic" fill-opacity="1">Enter LaTeX</text></g></g></svg>