<svg width="40" height="38" viewBox="0 0 40 38" fill="none" xmlns="http://www.w3.org/2000/svg">
<path d="M9.84798 23.2861L6.69882 31.8965C1.87645 29.7059 -1.49209 23.7489 0.666377 17.6158C2.85265 11.4038 8.46412 10.0771 9.84798 9.90294C11.1734 9.73617 17.4809 8.98058 19.9913 12.9743C23.055 17.8481 19.0441 26.4301 9.84798 23.2861Z" fill="#006E53"/>
<path d="M10.9362 25.3876L6.35033 38L15.5188 32.9635C16.9972 32.9635 21.684 33.5411 25.3887 30.4736C29.5882 26.9966 30.8514 21.5527 28.7772 16.7713C26.7533 12.1057 22.3592 10.1532 19.3413 9.84852C20.4646 10.5438 23.8786 13.6344 22.4063 19.1286C22.4063 19.1286 21.9979 20.9382 20.429 22.7614C17.8703 25.7347 13.7375 26.0651 10.9362 25.3876Z" fill="#006E53"/>
<path d="M28.6846 3.45015C28.3354 2.93506 27.8115 0.359641 24.1444 0.0162495C21.2195 -0.257637 18.6653 2.94863 15.6217 8.24968H17.8467C22.7318 8.24968 25.6212 10.5181 26.2431 10.9774C26.2431 10.9774 26.4243 8.59872 26.9384 7.57084C27.8423 5.76328 30.0234 5.51049 31.4786 5.1671C29.0339 4.30863 29.0339 3.96523 28.6846 3.45015Z" fill="#006E53"/>
</svg>
