<svg width="295" height="268" viewBox="0 0 295 268" fill="none" xmlns="http://www.w3.org/2000/svg">
<path d="M170.285 62.9132C166.801 62.0008 163.237 64.0831 162.324 67.5642L155.407 93.9346C154.494 97.4157 156.578 100.977 160.062 101.89L240.403 122.931C243.887 123.844 247.451 121.761 248.364 118.28L255.281 91.91C256.195 88.4289 254.111 84.8673 250.627 83.9549L170.285 62.9132Z" fill="#FBFBFB" stroke="#EEEEEE" stroke-width="1.18517"/>
<path d="M189.656 86.1419L186.974 85.4433C187.013 84.9839 186.973 84.5579 186.856 84.1652C186.74 83.7677 186.56 83.4097 186.317 83.0912C186.073 82.7726 185.771 82.5026 185.41 82.2811C185.055 82.056 184.653 81.885 184.204 81.7679C183.406 81.56 182.646 81.5763 181.925 81.8169C181.204 82.0528 180.57 82.5098 180.02 83.188C179.472 83.8614 179.054 84.7498 178.766 85.8532C178.473 86.9758 178.401 87.967 178.549 88.827C178.703 89.6834 179.035 90.3872 179.545 90.9383C180.061 91.4858 180.715 91.8629 181.509 92.0696C181.949 92.1842 182.375 92.234 182.787 92.2189C183.205 92.2004 183.597 92.1163 183.963 91.9667C184.334 91.8184 184.668 91.6044 184.965 91.3248C185.268 91.0465 185.516 90.7029 185.709 90.2942L188.387 91.0071C188.105 91.6783 187.716 92.2761 187.222 92.8004C186.733 93.3259 186.16 93.753 185.502 94.0816C184.846 94.4055 184.125 94.6054 183.339 94.6814C182.555 94.7525 181.725 94.6742 180.851 94.4463C179.56 94.1101 178.486 93.5115 177.628 92.6504C176.771 91.7893 176.197 90.7191 175.908 89.4399C175.619 88.1607 175.68 86.7329 176.091 85.1565C176.504 83.5754 177.15 82.3001 178.031 81.3308C178.913 80.3566 179.939 79.7029 181.108 79.3698C182.277 79.0367 183.502 79.037 184.783 79.3707C185.601 79.5836 186.331 79.8963 186.974 80.3086C187.617 80.7209 188.155 81.2208 188.589 81.8083C189.024 82.3909 189.335 83.0484 189.522 83.7806C189.714 84.5093 189.759 85.2964 189.656 86.1419ZM189.556 96.4997L193.384 81.8253L196.044 82.5183L194.423 88.7305L201.228 90.503L202.849 84.2908L205.516 84.9856L201.688 99.66L199.021 98.9651L200.647 92.7314L193.842 90.9589L192.216 97.1926L189.556 96.4997ZM211.069 86.4322L207.241 101.107L204.581 100.414L208.409 85.7393L211.069 86.4322ZM210.122 101.857L213.95 87.1826L219.457 88.6171C220.585 88.9109 221.48 89.3533 222.143 89.9443C222.811 90.5364 223.248 91.2371 223.456 92.0461C223.669 92.8517 223.654 93.7226 223.41 94.6588C223.164 95.5999 222.75 96.3644 222.168 96.9524C221.592 97.537 220.867 97.917 219.994 98.0927C219.123 98.2635 218.123 98.202 216.995 97.9082L213.073 96.8865L213.648 94.6796L217.212 95.6079C217.872 95.7797 218.436 95.8297 218.904 95.7578C219.373 95.681 219.754 95.4921 220.047 95.1909C220.346 94.8862 220.563 94.4735 220.699 93.9528C220.835 93.4321 220.848 92.9611 220.739 92.5398C220.63 92.1136 220.391 91.7502 220.02 91.4496C219.65 91.1442 219.133 90.9049 218.469 90.7318L216.031 90.0968L212.782 102.55L210.122 101.857ZM219.443 97.1838L221.344 104.78L218.375 104.007L216.539 96.4273L219.443 97.1838ZM223.255 105.278L227.083 90.6035L232.589 92.0379C233.718 92.3318 234.609 92.7885 235.264 93.4081C235.924 94.029 236.354 94.7583 236.554 95.596C236.761 96.4302 236.742 97.313 236.499 98.2445C236.254 99.1855 235.837 99.9698 235.25 100.597C234.662 101.225 233.927 101.648 233.043 101.867C232.16 102.08 231.152 102.04 230.019 101.745L226.369 100.794L226.939 98.6085L230.231 99.4659C230.89 99.6377 231.46 99.6638 231.941 99.544C232.421 99.4243 232.814 99.19 233.12 98.8411C233.43 98.4933 233.653 98.0592 233.789 97.5385C233.925 97.0178 233.941 96.5325 233.839 96.0824C233.742 95.6337 233.509 95.244 233.141 94.9135C232.779 94.5794 232.266 94.3258 231.601 94.1527L229.163 93.5176L225.915 105.971L223.255 105.278Z" fill="#A9A9A9"/>
<path d="M268.902 86.3449L262.552 89.5742C262.475 89.6134 262.381 89.5957 262.324 89.5312L261.36 88.4453C261.292 88.3691 261.297 88.2531 261.37 88.1826L265.762 83.9774C265.827 83.9146 265.928 83.907 266.002 83.9594L268.925 86.0212C269.042 86.1035 269.029 86.2802 268.902 86.3449Z" fill="#EBECF0"/>
<path d="M268.416 79.2768L262.674 84.2187C262.61 84.2734 262.518 84.2799 262.448 84.2346L261.261 83.4736C261.172 83.4165 261.147 83.2975 261.205 83.2094L264.859 77.6976C264.909 77.6223 265.005 77.5926 265.089 77.6266L268.363 78.9576C268.495 79.011 268.523 79.1843 268.416 79.2768Z" fill="#EBECF0"/>
<path d="M107.956 96.1474L108.499 96.3855L110.899 90.9116C111.452 89.6513 112.594 88.7476 113.948 88.4993L167.407 78.6989C170.924 78.054 173.264 74.696 172.649 71.1731L167.958 44.2607C167.339 40.7143 163.963 38.3385 160.416 38.9544L78.5943 53.1603C75.0472 53.7762 72.673 57.1504 73.2913 60.6968L77.9996 87.7046C78.6065 91.1859 81.8776 93.5515 85.3741 93.0377L99.6637 90.9382C101.002 90.7416 102.352 91.2093 103.282 92.1915L107.428 96.5714C107.749 96.9103 108.312 96.8125 108.499 96.3856L107.956 96.1474Z" fill="#FBFBFB" stroke="#EEEEEE" stroke-width="1.18517"/>
<path d="M105.329 65.7055L102.597 66.1682C102.443 65.7335 102.232 65.3611 101.964 65.0509C101.695 64.7358 101.384 64.4829 101.031 64.2923C100.678 64.1017 100.291 63.9793 99.8715 63.9252C99.4556 63.8655 99.0188 63.8743 98.5612 63.9519C97.7481 64.0896 97.0624 64.4162 96.5039 64.9315C95.9446 65.442 95.5539 66.1193 95.3318 66.9633C95.109 67.8025 95.0932 68.7844 95.2845 69.909C95.4791 71.0531 95.8208 71.9869 96.3096 72.7105C96.8024 73.4285 97.3943 73.9342 98.0854 74.2279C98.7806 74.5158 99.5322 74.5913 100.34 74.4544C100.788 74.3785 101.197 74.2492 101.567 74.0664C101.94 73.8778 102.263 73.6403 102.535 73.3539C102.812 73.0666 103.028 72.7344 103.184 72.3573C103.345 71.9794 103.43 71.5643 103.438 71.1121L106.172 70.664C106.191 71.3922 106.083 72.0967 105.848 72.7776C105.618 73.4576 105.271 74.0824 104.807 74.6519C104.342 75.2165 103.767 75.6946 103.082 76.0861C102.397 76.4727 101.609 76.7415 100.718 76.8924C99.4031 77.1151 98.178 77.0096 97.0423 76.5759C95.9066 76.1422 94.9441 75.4012 94.1547 74.3529C93.3652 73.3045 92.8338 71.977 92.5605 70.3705C92.2864 68.759 92.3514 67.3305 92.7556 66.0849C93.159 64.8345 93.825 63.8176 94.7536 63.0342C95.6822 62.2508 96.7989 61.7485 98.1037 61.5275C98.9362 61.3865 99.7302 61.3722 100.486 61.4846C101.241 61.597 101.937 61.8322 102.574 62.1901C103.21 62.5432 103.764 63.0154 104.235 63.6067C104.71 64.1924 105.075 64.892 105.329 65.7055ZM109.496 75.1949L106.951 60.239L109.661 59.78L110.738 66.1114L117.668 64.9373L116.591 58.6059L119.308 58.1456L121.852 73.1016L119.135 73.5618L118.055 67.2085L111.124 68.3826L112.205 74.7359L109.496 75.1949ZM124.964 57.1874L127.508 72.1434L124.799 72.6024L122.254 57.6464L124.964 57.1874ZM130.442 71.6463L127.898 56.6904L133.506 55.7402C134.655 55.5455 135.653 55.5818 136.5 55.8491C137.352 56.1155 138.039 56.5752 138.561 57.2281C139.086 57.8753 139.431 58.676 139.593 59.6302C139.756 60.5893 139.693 61.4565 139.404 62.2317C139.12 63.0012 138.615 63.6451 137.892 64.1633C137.168 64.6766 136.232 65.0307 135.083 65.2253L131.088 65.9021L130.705 63.6528L134.335 63.0379C135.007 62.9241 135.541 62.7384 135.938 62.4808C136.334 62.2184 136.604 61.8897 136.747 61.4948C136.894 61.0942 136.923 60.6285 136.832 60.0979C136.742 59.5672 136.56 59.1322 136.287 58.7928C136.013 58.4485 135.646 58.2153 135.184 58.0931C134.722 57.9661 134.152 57.9599 133.475 58.0746L130.992 58.4952L133.152 71.1873L130.442 71.6463ZM137.016 63.5604L141.871 69.7101L138.848 70.2223L134.058 64.0615L137.016 63.5604ZM143.817 69.3804L141.273 54.4244L146.882 53.4742C148.031 53.2796 149.031 53.3305 149.883 53.627C150.74 53.9226 151.432 54.4115 151.958 55.0936C152.489 55.77 152.835 56.5829 152.997 57.5322C153.16 58.4913 153.103 59.3775 152.825 60.1909C152.548 61.0042 152.051 61.6919 151.336 62.2539C150.619 62.8111 149.684 63.1874 148.53 63.3829L144.813 64.0127L144.434 61.7853L147.786 61.2175C148.458 61.1036 148.988 60.8936 149.377 60.5873C149.765 60.281 150.027 59.9061 150.162 59.4625C150.302 59.0181 150.327 58.5306 150.236 57.9999C150.146 57.4692 149.962 57.0196 149.684 56.651C149.41 56.2815 149.038 56.0215 148.567 55.871C148.099 55.7148 147.527 55.694 146.851 55.8086L144.368 56.2293L146.527 68.9214L143.817 69.3804Z" fill="#A9A9A9"/>
<path d="M175.352 31.9856L171.038 37.6498C170.986 37.7184 170.894 37.7431 170.814 37.7099L169.473 37.1501C169.379 37.1108 169.333 37.0043 169.369 36.9088L171.494 31.2152C171.526 31.1301 171.613 31.0795 171.703 31.0944L175.232 31.6836C175.373 31.7071 175.438 31.872 175.352 31.9856Z" fill="#EBECF0"/>
<path d="M171.84 25.83L168.819 32.7731C168.785 32.85 168.705 32.8957 168.622 32.8856L167.222 32.715C167.117 32.7022 167.043 32.6059 167.057 32.501L167.95 25.9504C167.962 25.8609 168.036 25.7925 168.126 25.7868L171.654 25.565C171.795 25.5561 171.896 25.7 171.84 25.83Z" fill="#EBECF0"/>
<path d="M60.3389 57.5863L67.2018 59.5037C67.285 59.5269 67.3734 59.4911 67.4169 59.4165L68.1477 58.1623C68.199 58.0743 68.1715 57.9616 68.0855 57.907L62.9496 54.6476C62.8729 54.5989 62.7724 54.6114 62.71 54.6773L60.2521 57.2735C60.154 57.3772 60.2014 57.5479 60.3389 57.5863Z" fill="#EBECF0"/>
<path d="M59.4201 50.5645L66.0252 54.2806C66.0984 54.3218 66.19 54.31 66.2503 54.2516L67.2633 53.2722C67.3394 53.1986 67.3405 53.0772 67.2658 53.0023L62.5948 48.3168C62.5311 48.2528 62.431 48.2427 62.3556 48.2925L59.4085 50.2414C59.2902 50.3196 59.2965 50.495 59.4201 50.5645Z" fill="#EBECF0"/>
<path d="M163.649 256.246C163.649 256.246 156.5 260.5 149.497 255.852C160.747 179.339 117.896 138.773 84.8697 125.497C140.596 138.89 168.533 195.794 163.649 256.246Z" fill="#F5F6F8"/>
<path d="M152.923 255.535C152.923 255.535 159.04 256.754 163.037 255.972C159.786 199.87 193.551 173.379 218.306 165.881C174.686 170.457 153.238 211.447 152.923 255.535Z" fill="#F5F6F8"/>
<path d="M137.614 250.594C137.614 250.594 133.506 254.059 129.682 250.466C130.506 227.861 117.45 216.919 105.7 213.581C126.296 215.977 136.911 232.793 137.614 250.594Z" fill="#F5F6F8"/>
<path d="M185.278 252.148C185.278 252.148 189.912 253.745 193.331 252.148C191.667 223.425 206.079 210.087 218.753 206.247C196.421 208.591 185.44 229.576 185.278 252.148Z" fill="#F5F6F8"/>
<path d="M153.302 257.785C153.302 257.785 150.125 256.877 148.764 255.062C151.827 232.998 140.62 222 130.289 217.928C148.751 221.685 156.026 236.002 153.302 257.785Z" fill="#F5F6F8"/>
<path d="M90.2451 117.083L114.929 121.393L114.278 125.03C113.994 126.614 114.504 128.235 115.641 129.373L97.8955 125.248C96.8591 125.007 96.1255 124.083 96.1255 123.019L104.296 124.381L101.572 123.019L93.402 121.448C91.3616 121.056 89.9787 119.144 90.2451 117.083Z" fill="#3C8C71"/>
<path d="M116.072 128.044L116.895 129.109L117.659 128.761C119.186 128.066 120.272 126.662 120.561 125.01L121.008 122.449L116 121.575L115.367 125.198C115.191 126.203 115.447 127.236 116.072 128.044Z" fill="#3C8C71"/>
<path d="M125.175 114.397C125.629 113.036 123.813 113.036 123.545 113.793C122.417 118.369 117.459 122.563 117.459 122.563C117.459 122.563 117.197 122.897 117.005 123.017C121.865 120.814 124.853 115.36 125.175 114.397Z" fill="#3C8C71"/>
<path d="M128.154 117.83C128.957 116.64 127.207 116.153 126.746 116.81C124.431 120.916 118.529 123.627 118.529 123.627C118.529 123.627 118.188 123.878 117.97 123.942C123.244 123.124 127.586 118.671 128.154 117.83Z" fill="#3C8C71"/>
<path d="M86.9872 125.554L87.0145 125.017L90.9694 124.577L100.132 110.156C100.638 109.359 101.803 109.359 102.309 110.158L104.855 114.177C105.826 115.711 106.997 117.109 108.335 118.336L109.334 119.251C110.595 120.408 110.216 122.485 108.626 123.121C107.624 123.521 106.479 123.18 105.86 122.296L104.547 120.42C103.919 119.523 103.361 118.578 102.879 117.594L101.179 114.123L92.5197 126.576L92.4161 126.725L92.2386 126.687L86.9872 125.554Z" fill="#3C8C71" stroke="white" stroke-width="0.544585"/>
<path d="M110.592 134.18L108.596 128.037C108.36 127.309 108.902 126.563 109.667 126.563C110.226 126.563 110.7 126.972 110.781 127.525L111.729 133.964L113.181 135.054L110.788 134.37C110.695 134.343 110.622 134.272 110.592 134.18Z" fill="#3C8C71"/>
<path fill-rule="evenodd" clip-rule="evenodd" d="M28.7739 167.161C27.451 167.572 26.0329 168.013 24.5179 168.43C23.3091 168.763 22.4544 168.95 21.6231 169.133C20.2895 169.425 19.0159 169.705 16.4365 170.549C11.1042 172.294 0.00305176 176.072 0.00305176 176.072C0.00305176 176.072 -0.395805 181.067 9.57575 181.067C10.4707 181.067 11.4296 180.828 12.4315 180.578C13.866 180.22 15.3883 179.84 16.9364 180.109C17.6211 180.023 18.9089 179.972 20.5258 179.909C27.1855 179.647 39.4281 179.165 38.1081 175.093C36.5126 170.172 44.6282 171.886 53.5001 173.76C55.7164 174.228 57.9799 174.706 60.151 175.093C68.4623 176.575 73.5195 180.135 73.5195 180.135C73.5195 180.135 58.4799 175.665 49.289 180.822C43.2993 184.182 25.8935 182.434 18.4949 180.622C19.2458 180.997 19.9977 181.574 20.7439 182.43C24.6379 186.894 40.687 184.246 40.687 184.246C40.687 184.246 41.2112 188.549 48.6643 188.787C53.9503 188.956 59.7125 188.283 67.2359 186.464C69.1022 186.013 71.0494 185.239 73.2427 184.368C79.9864 181.689 89.0563 178.086 105.251 180.084C106.212 180.084 93.607 169.963 83.5629 171.017C73.0509 172.121 66.7655 171.437 56.2768 169.179C55.0094 168.906 53.5678 168.422 51.9646 167.884C47.1845 166.28 40.9682 164.194 33.6514 165.781C32.1996 166.096 30.5751 166.601 28.7739 167.161Z" fill="#FBFBFB"/>
<path d="M22 267C22 267 75 250 158.25 250C241.5 250 294.5 267 294.5 267" stroke="#F5F6F8" stroke-width="1.6"/>
</svg>
