<svg width="55" height="47" viewBox="0 0 55 47" fill="none" xmlns="http://www.w3.org/2000/svg">
<path d="M0.630879 7.42866C0.855388 4.92327 2.71998 2.89916 5.1984 2.46926C10.5949 1.53318 20.153 0.0669556 27.0776 0.0669556C33.9975 0.0669556 43.5473 1.5312 48.9458 2.46736C51.4296 2.89808 53.2961 4.92933 53.516 7.44059C53.7967 10.6457 54.1193 15.164 54.1319 19.1135C54.1454 23.3166 53.8123 28.3335 53.5195 31.9079C53.2964 34.6304 51.1522 36.7765 48.4361 37.0671L38.7278 38.1058C34.9896 38.5057 31.5863 40.4427 29.3334 43.4524L27.0776 46.4661L24.7987 43.4336C22.5455 40.4352 19.149 38.5064 15.4196 38.1074L5.69624 37.0671C2.9801 36.7765 0.835874 34.6304 0.61284 31.9079C0.320016 28.3335 -0.0130278 23.3166 0.000392746 19.1135C0.0130194 15.1591 0.343605 10.6345 0.630879 7.42866Z" fill="#D9D9D9"/>
<path d="M0.630879 7.42866C0.855388 4.92327 2.71998 2.89916 5.1984 2.46926C10.5949 1.53318 20.153 0.0669556 27.0776 0.0669556C33.9975 0.0669556 43.5473 1.5312 48.9458 2.46736C51.4296 2.89808 53.2961 4.92933 53.516 7.44059C53.7967 10.6457 54.1193 15.164 54.1319 19.1135C54.1454 23.3166 53.8123 28.3335 53.5195 31.9079C53.2964 34.6304 51.1522 36.7765 48.4361 37.0671L38.7278 38.1058C34.9896 38.5057 31.5863 40.4427 29.3334 43.4524L27.0776 46.4661L24.7987 43.4336C22.5455 40.4352 19.149 38.5064 15.4196 38.1074L5.69624 37.0671C2.9801 36.7765 0.835874 34.6304 0.61284 31.9079C0.320016 28.3335 -0.0130278 23.3166 0.000392746 19.1135C0.0130194 15.1591 0.343605 10.6345 0.630879 7.42866Z" fill="url(#paint0_linear_3638_2167)"/>
<path d="M9.66747 10.7011C9.66755 10.7005 9.66702 10.7002 9.66764 10.7001C9.69004 10.6959 19.9852 8.76678 27.0632 8.76678C34.1402 8.76678 44.4686 10.6953 44.4942 10.7001C44.4949 10.7002 44.4943 10.7006 44.4943 10.7013V10.7013C45.1183 16.2408 45.171 21.8298 44.6517 27.3801L44.494 29.0655C44.494 29.066 44.4935 29.0664 44.493 29.0664H37.8943C33.541 29.0664 29.4761 31.2431 27.0629 34.8663V34.8663V34.8663C24.6498 31.2431 20.5848 29.0664 16.2316 29.0664H9.66822C9.66771 29.0664 9.66728 29.066 9.66724 29.0655L9.40655 26.1935C8.9383 21.035 9.02578 15.841 9.66747 10.7011V10.7011Z" fill="white"/>
<defs>
<linearGradient id="paint0_linear_3638_2167" x1="-63.5949" y1="49.7241" x2="-28.1712" y2="98.4289" gradientUnits="userSpaceOnUse">
<stop stop-color="#FFB800"/>
<stop offset="0.232579" stop-color="#B4E64A"/>
<stop offset="0.511397" stop-color="#87DAC6"/>
<stop offset="0.75" stop-color="#FF68C3"/>
<stop offset="1" stop-color="#005CE7"/>
</linearGradient>
</defs>
</svg>
