<svg width="24" height="24" viewBox="0 0 24 24" fill="none" xmlns="http://www.w3.org/2000/svg">
<path d="M16.991 3.82738C16.9935 3.82488 16.9972 3.82396 17.0005 3.82498V3.82498C18.5235 4.28516 19.7152 5.47685 20.1754 6.9998V6.9998C20.1764 7.00318 20.1755 7.00686 20.173 7.00936L17.5298 9.65252C17.5247 9.65763 17.516 9.65545 17.5139 9.64853V9.64853C17.0555 8.13169 15.8686 6.9448 14.3518 6.48646V6.48646C14.3449 6.48437 14.3427 6.47565 14.3478 6.47054L16.991 3.82738Z" fill="#151515"/>
<path d="M13.5242 7.29418V7.29418C15.0335 7.78365 16.2167 8.96688 16.7062 10.4762V10.4762L7.77677 19.4055L4.78092 19.4359C4.66088 19.4371 4.56326 19.3395 4.56447 19.2194L4.59479 16.2236L13.5242 7.29418Z" fill="#151515"/>
</svg>
