<?xml version="1.0" encoding="UTF-8" standalone="no"?>
<!-- Created with Inkscape (http://www.inkscape.org/) -->

<svg
   version="1.1"
   id="svg1"
   width="2048"
   height="2048"
   viewBox="0 0 2048 2048"
   sodipodi:docname="pyckster.svg"
   xml:space="preserve"
   inkscape:version="1.3.2 (091e20e, 2023-11-25)"
   inkscape:export-filename="pyckster.png"
   inkscape:export-xdpi="96"
   inkscape:export-ydpi="96"
   xmlns:inkscape="http://www.inkscape.org/namespaces/inkscape"
   xmlns:sodipodi="http://sodipodi.sourceforge.net/DTD/sodipodi-0.dtd"
   xmlns:xlink="http://www.w3.org/1999/xlink"
   xmlns="http://www.w3.org/2000/svg"
   xmlns:svg="http://www.w3.org/2000/svg"><defs
     id="defs1"><linearGradient
       id="linearGradient2"
       inkscape:collect="always"><stop
         style="stop-color:#1493cb;stop-opacity:0.5;"
         offset="0"
         id="stop2" /><stop
         style="stop-color:#1493cb;stop-opacity:1;"
         offset="0.51605433"
         id="stop4" /><stop
         style="stop-color:#71d483;stop-opacity:1;"
         offset="0.5350461"
         id="stop5" /><stop
         style="stop-color:#2aa570;stop-opacity:0.5;"
         offset="1"
         id="stop3" /></linearGradient><linearGradient
       inkscape:collect="always"
       xlink:href="#linearGradient2"
       id="linearGradient3"
       x1="1306.0466"
       y1="1130.4126"
       x2="1306.0466"
       y2="369.78644"
       gradientUnits="userSpaceOnUse"
       gradientTransform="matrix(1,0,0,0.76559336,47.759237,86.680398)" /></defs><sodipodi:namedview
     id="namedview1"
     pagecolor="#ffffff"
     bordercolor="#000000"
     borderopacity="0.25"
     inkscape:showpageshadow="2"
     inkscape:pageopacity="0.0"
     inkscape:pagecheckerboard="0"
     inkscape:deskcolor="#d1d1d1"
     showgrid="false"
     inkscape:zoom="0.41015625"
     inkscape:cx="1032.5333"
     inkscape:cy="1036.1905"
     inkscape:window-width="1920"
     inkscape:window-height="1043"
     inkscape:window-x="1920"
     inkscape:window-y="0"
     inkscape:window-maximized="1"
     inkscape:current-layer="g1" /><g
     inkscape:groupmode="layer"
     inkscape:label="Image"
     id="g1"><g
       id="g5"><path
         d="m 826.47624,714.32215 c 4.0661,5.92079 11.8511,11.47234 20.944,14.93536 6.2292,2.37241 13.9318,4.15849 34.5,7.99982 41.3619,7.7248 95.7556,18.47004 104.2736,20.59882 22.24346,5.55898 37.32486,14.74153 45.31176,27.58882 8.4862,13.65045 8.3904,24.90606 -0.3291,38.66246 -3.1039,4.89699 -5.6459,7.26341 -17.2743,16.081 -10.9352,8.29199 -14.25666,11.32362 -16.77596,15.31184 -8.6817,13.74424 -5.8675,24.19712 10.92316,40.57293 16.5246,16.11643 18.4671,20.01491 19.8851,39.90931 0.5311,7.45159 1.3635,14.35357 1.8497,15.3379 1.9252,3.89732 2.3976,-6.37441 1.5542,-33.79927 -1.2867,-41.84511 -1.121,-52.29982 0.9223,-58.19642 5.1962,-14.99521 13.71,-21.82272 39.2052,-31.43999 12.7601,-4.81332 14.9904,-5.95619 20.7579,-10.63691 8.475,-6.8781 11.0475,-11.78913 10.4529,-19.95557 -0.5348,-7.34443 -4.6841,-13.67492 -12.5885,-19.20567 -7.1843,-5.02692 -13.3898,-7.33976 -34.7017,-12.93349 -9.7289,-2.55357 -20.0058,-5.53299 -22.8375,-6.62095 -20.6398,-7.92996 -35.78506,-20.87462 -41.76726,-35.69845 -1.7476,-4.33061 -2.0271,-6.61642 -1.6847,-13.78068 0.3565,-7.4606 0.8265,-9.36856 3.5775,-14.52377 4.0722,-7.63107 8.50036,-12.88511 16.10646,-19.11007 13.4354,-10.99583 32.8342,-18.75788 58.6194,-23.45533 12.6145,-2.298 99.3957,-16.16229 161.1315,-25.74246 95.7103,-14.85236 102.1715,-16.06407 112.3662,-21.0725 14.978,-7.35835 17.099,-17.64065 5.4288,-26.31789 -6.5575,-4.87568 -13.8625,-6.91062 -39.9264,-11.12208 -25.9711,-4.19644 -128.0057,-19.98872 -154,-23.83521 -8.8001,-1.30213 -25.4501,-3.90461 -37.0001,-5.78322 -74.6348,-12.13933 -89.3594,-15.70362 -102.8204,-24.8889 -6.6342,-4.52688 -9.6876,-9.1601 -9.6576,-14.65438 0.03,-5.51671 2.6255,-9.43525 9.3795,-14.1611 7.771,-5.4374 19.1721,-9.50936 36.9902,-13.21108 8.1904,-1.70161 17.6927,-4.11729 21.1163,-5.36819 15.6486,-5.71776 21.4403,-15.49362 14.7187,-24.84381 -3.4144,-4.74967 -10.0741,-8.79927 -23.3498,-14.19854 -12.5662,-5.11072 -20.3127,-10.66992 -24.7201,-17.7401 -3.7772,-6.05914 -5.1145,-12.18442 -5.2368,-23.98474 -0.052,-5.05292 -0.4171,-10.90971 -0.8105,-13.01509 -0.6647,-3.5571 -0.7634,-3.28615 -1.3946,3.82797 -2.7338,30.81559 -2.1843,35.30809 5.4998,44.96131 8.9442,11.23623 10.9314,16.9363 8.8744,25.45513 -1.5945,6.60348 -4.6913,10.92686 -11.5291,16.09561 -10.158,7.67844 -14.8087,9.01999 -58.05996,16.74812 -10.45,1.8672 -21.5224,4.12272 -24.6053,5.01226 -21.5631,6.22167 -27.3953,19.08862 -12.9448,28.55832 8.5149,5.58003 19.2148,8.58697 43.0501,12.09829 5.775,0.8508 24.44996,3.80569 41.49996,6.56649 17.0501,2.76088 41.35,6.56267 54,8.44855 32.6293,4.86443 70.7149,11.37726 79.7802,13.6428 43.0996,10.77121 59.7582,35.77189 37.8777,56.84577 -8.5804,8.26404 -26.8671,16.60419 -47.1578,21.50751 -11.358,2.74472 -47.6165,8.8808 -95.5001,16.16167 -19.25,2.92702 -55.02496,8.45253 -79.49996,12.27882 -24.475,3.82636 -58,9.02665 -74.5,11.55617 -35.7779,5.48502 -43.0255,6.92984 -50.9251,10.15192 -7.8565,3.20454 -15.9824,9.35791 -19.0759,14.44518 -3.4988,5.75401 -3.4688,12.77302 0.077,17.93571 z"
         style="fill:url(#linearGradient3);fill-opacity:1;stroke-width:0.874982"
         id="path1-3" /><text
         xml:space="preserve"
         style="font-style:normal;font-variant:normal;font-weight:normal;font-stretch:normal;font-size:110.629px;font-family:'Baekmuk Gulim';-inkscape-font-specification:'Baekmuk Gulim, Normal';font-variant-ligatures:normal;font-variant-caps:normal;font-variant-numeric:normal;font-variant-east-asian:normal;letter-spacing:9.21906px;fill:#000000;fill-opacity:1;stroke-width:8.29719"
         x="757.44904"
         y="1052.4006"
         id="text1"><tspan
           sodipodi:role="line"
           id="tspan1"
           x="757.44904"
           y="1052.4006"
           style="font-style:normal;font-variant:normal;font-weight:normal;font-stretch:normal;font-size:110.629px;font-family:'Baekmuk Gulim';-inkscape-font-specification:'Baekmuk Gulim, Normal';font-variant-ligatures:normal;font-variant-caps:normal;font-variant-numeric:normal;font-variant-east-asian:normal;fill:#000000;fill-opacity:1;stroke-width:8.29719">PyCKSTER</tspan></text></g><rect
       style="fill:none;fill-opacity:1;stroke:none;stroke-width:0.834515;stroke-opacity:1"
       id="rect5"
       width="761.3255"
       height="761.3255"
       x="702.60675"
       y="340.52838" /></g></svg>
