<svg xmlns="http://www.w3.org/2000/svg" xmlns:xlink="http://www.w3.org/1999/xlink" contentStyleType="text/css" data-diagram-type="ACTIVITY" height="2435px" preserveAspectRatio="none" style="width:540px;height:2435px;background:#FFFFFF;" version="1.1" viewBox="0 0 540 2435" width="540px" zoomAndPan="magnify"><defs/><g><ellipse cx="266.5587" cy="20" fill="#222222" rx="10" ry="10" style="stroke:#222222;stroke-width:1;"/><rect fill="#FFFFE0" height="143.7561" style="stroke:#000000;stroke-width:1.5;" width="393.1026" x="70.0074" y="40"/><path d="M153.0452,40 L153.0452,52.0679 L143.0452,62.0679 L70.0074,62.0679" fill="none" style="stroke:#000000;stroke-width:1.5;"/><text fill="#000000" font-family="sans-serif" font-size="14" lengthAdjust="spacing" textLength="73.0377" x="73.0074" y="55.9659">Preprocess</text><rect fill="#F1F1F1" height="36.3441" rx="12.5" ry="12.5" style="stroke:#181818;stroke-width:0.5;" width="289.2699" x="121.9238" y="79.0679"/><text fill="#000000" font-family="sans-serif" font-size="12" lengthAdjust="spacing" textLength="269.2699" x="131.9238" y="101.896">Extract name of ASDM from downloaded tarball</text><rect fill="#F1F1F1" height="36.3441" rx="12.5" ry="12.5" style="stroke:#181818;stroke-width:0.5;" width="373.1026" x="80.0074" y="135.412"/><text fill="#000000" font-family="sans-serif" font-size="12" lengthAdjust="spacing" textLength="353.1026" x="90.0074" y="158.2401">Create working directory for the ASDM. If exists, remove it first</text><rect fill="#FFFFE0" height="144.6709" style="stroke:#000000;stroke-width:1.5;" width="283.6377" x="124.7399" y="193.7561"/><path d="M223.5835,193.7561 L223.5835,205.8241 L213.5835,215.8241 L124.7399,215.8241" fill="none" style="stroke:#000000;stroke-width:1.5;"/><text fill="#000000" font-family="sans-serif" font-size="14" lengthAdjust="spacing" textLength="88.8437" x="127.7399" y="209.7221">Extract ASDM</text><rect fill="#F1F1F1" height="36.3441" rx="12.5" ry="12.5" style="stroke:#181818;stroke-width:0.5;" width="263.6377" x="134.7399" y="232.8241"/><text fill="#000000" font-family="sans-serif" font-size="12" lengthAdjust="spacing" textLength="243.6377" x="144.7399" y="255.6522">Extract ASDM tarball into working directory</text><polygon fill="#F1F1F1" points="216.9326,289.1682,316.1849,289.1682,328.1849,301.1682,316.1849,313.1682,216.9326,313.1682,204.9326,301.1682,216.9326,289.1682" style="stroke:#181818;stroke-width:0.5;"/><text fill="#000000" font-family="sans-serif" font-size="11" lengthAdjust="spacing" textLength="17.0829" x="270.5587" y="324.9271">yes</text><text fill="#000000" font-family="sans-serif" font-size="11" lengthAdjust="spacing" textLength="99.2523" x="216.9326" y="305.4361">extraction success?</text><text fill="#000000" font-family="sans-serif" font-size="11" lengthAdjust="spacing" textLength="13.4529" x="328.1849" y="297.9452">no</text><ellipse cx="363.6378" cy="301.1682" fill="none" rx="11" ry="11" style="stroke:#222222;stroke-width:1;"/><ellipse cx="363.6378" cy="301.1682" fill="#222222" rx="6" ry="6" style="stroke:#222222;stroke-width:1;"/><rect fill="#FFFFE0" height="2034.1057" style="stroke:#000000;stroke-width:1.5;" width="518.9883" x="11" y="348.4271"/><path d="M114.9397,348.4271 L114.9397,360.495 L104.9397,370.495 L11,370.495" fill="none" style="stroke:#000000;stroke-width:1.5;"/><text fill="#000000" font-family="sans-serif" font-size="14" lengthAdjust="spacing" textLength="93.9397" x="14" y="364.393">Process ASDM</text><rect fill="#F1F1F1" height="36.3441" rx="12.5" ry="12.5" style="stroke:#181818;stroke-width:0.5;" width="325.1382" x="103.9897" y="387.495"/><text fill="#000000" font-family="sans-serif" font-size="12" lengthAdjust="spacing" textLength="305.1382" x="113.9897" y="410.3231">Create calibration script with make_calibration_script()</text><polygon fill="#F1F1F1" points="206.0647,443.8391,327.0528,443.8391,339.0528,455.8391,327.0528,467.8391,206.0647,467.8391,194.0647,455.8391,206.0647,443.8391" style="stroke:#181818;stroke-width:0.5;"/><text fill="#000000" font-family="sans-serif" font-size="11" lengthAdjust="spacing" textLength="17.0829" x="270.5587" y="479.598">yes</text><text fill="#000000" font-family="sans-serif" font-size="11" lengthAdjust="spacing" textLength="120.9882" x="206.0647" y="460.1071">script creation success?</text><text fill="#000000" font-family="sans-serif" font-size="11" lengthAdjust="spacing" textLength="13.4529" x="339.0528" y="452.6161">no</text><ellipse cx="374.5057" cy="455.8391" fill="none" rx="11" ry="11" style="stroke:#222222;stroke-width:1;"/><ellipse cx="374.5057" cy="455.8391" fill="#222222" rx="6" ry="6" style="stroke:#222222;stroke-width:1;"/><rect fill="#F1F1F1" height="36.3441" rx="12.5" ry="12.5" style="stroke:#181818;stroke-width:0.5;" width="139.6648" x="196.7263" y="501.098"/><text fill="#000000" font-family="sans-serif" font-size="12" lengthAdjust="spacing" textLength="119.6648" x="206.7263" y="523.9261">Run calibration script</text><polygon fill="#F1F1F1" points="214.8646,557.4421,318.2529,557.4421,330.2529,569.4421,318.2529,581.4421,214.8646,581.4421,202.8646,569.4421,214.8646,557.4421" style="stroke:#181818;stroke-width:0.5;"/><text fill="#000000" font-family="sans-serif" font-size="11" lengthAdjust="spacing" textLength="17.0829" x="270.5587" y="593.2011">yes</text><text fill="#000000" font-family="sans-serif" font-size="11" lengthAdjust="spacing" textLength="103.3883" x="214.8646" y="573.7101">processing success?</text><text fill="#000000" font-family="sans-serif" font-size="11" lengthAdjust="spacing" textLength="13.4529" x="330.2529" y="566.2192">no</text><ellipse cx="365.7058" cy="569.4421" fill="none" rx="11" ry="11" style="stroke:#222222;stroke-width:1;"/><ellipse cx="365.7058" cy="569.4421" fill="#222222" rx="6" ry="6" style="stroke:#222222;stroke-width:1;"/><rect fill="#F1F1F1" height="36.3441" rx="12.5" ry="12.5" style="stroke:#181818;stroke-width:0.5;" width="375.8146" x="78.6514" y="614.7011"/><text fill="#000000" font-family="sans-serif" font-size="12" lengthAdjust="spacing" textLength="355.8146" x="88.6514" y="637.5291">Remove target source of project (keep calibration sources only)</text><polygon fill="#F1F1F1" points="221.9156,671.0452,311.2019,671.0452,323.2019,683.0452,311.2019,695.0452,221.9156,695.0452,209.9156,683.0452,221.9156,671.0452" style="stroke:#181818;stroke-width:0.5;"/><text fill="#000000" font-family="sans-serif" font-size="11" lengthAdjust="spacing" textLength="17.0829" x="270.5587" y="706.8041">yes</text><text fill="#000000" font-family="sans-serif" font-size="11" lengthAdjust="spacing" textLength="89.2864" x="221.9156" y="687.3131">removal success?</text><text fill="#000000" font-family="sans-serif" font-size="11" lengthAdjust="spacing" textLength="13.4529" x="323.2019" y="679.8222">no</text><ellipse cx="358.6548" cy="683.0452" fill="none" rx="11" ry="11" style="stroke:#222222;stroke-width:1;"/><ellipse cx="358.6548" cy="683.0452" fill="#222222" rx="6" ry="6" style="stroke:#222222;stroke-width:1;"/><rect fill="#FFE4B5" height="269.0581" style="stroke:#000000;stroke-width:1.5;" width="458.2136" x="27.1292" y="775.563"/><path d="M92.303,775.563 L92.303,787.6309 L82.303,797.6309 L27.1292,797.6309" fill="none" style="stroke:#000000;stroke-width:1.5;"/><text fill="#000000" font-family="sans-serif" font-size="14" lengthAdjust="spacing" textLength="55.1738" x="30.1292" y="791.5289">Imaging</text><polygon fill="#F1F1F1" points="153.991,814.6309,379.1265,814.6309,391.1265,826.6309,379.1265,838.6309,153.991,838.6309,141.991,826.6309,153.991,814.6309" style="stroke:#181818;stroke-width:0.5;"/><text fill="#000000" font-family="sans-serif" font-size="11" lengthAdjust="spacing" textLength="225.1354" x="153.991" y="830.8989">Required self-calibration later?: `do_selfcal`?</text><text fill="#000000" font-family="sans-serif" font-size="11" lengthAdjust="spacing" textLength="17.0829" x="124.9082" y="823.4079">yes</text><text fill="#000000" font-family="sans-serif" font-size="11" lengthAdjust="spacing" textLength="13.4529" x="391.1265" y="823.4079">no</text><rect fill="#F1F1F1" height="36.3441" rx="12.5" ry="12.5" style="stroke:#181818;stroke-width:0.5;" width="177.4651" x="43.2585" y="848.6309"/><text fill="#000000" font-family="sans-serif" font-size="12" lengthAdjust="spacing" textLength="157.4651" x="53.2585" y="871.459">savemodel = 'modelcolumn'</text><rect fill="#F1F1F1" height="36.3441" rx="12.5" ry="12.5" style="stroke:#181818;stroke-width:0.5;" width="128.4328" x="336.9101" y="848.6309"/><text fill="#000000" font-family="sans-serif" font-size="12" lengthAdjust="spacing" textLength="108.4328" x="346.9101" y="871.459">savemodel = 'none'</text><polygon fill="#F1F1F1" points="266.5587,890.975,278.5587,902.975,266.5587,914.975,254.5587,902.975,266.5587,890.975" style="stroke:#181818;stroke-width:0.5;"/><rect fill="#F1F1F1" height="36.3441" rx="12.5" ry="12.5" style="stroke:#181818;stroke-width:0.5;" width="79.5204" x="226.7985" y="939.018"/><text fill="#000000" font-family="sans-serif" font-size="12" lengthAdjust="spacing" textLength="59.5204" x="236.7985" y="961.8461">Run tclean</text><polygon fill="#F1F1F1" points="221.8276,995.3622,311.2899,995.3622,323.2899,1007.3622,311.2899,1019.3622,221.8276,1019.3622,209.8276,1007.3622,221.8276,995.3622" style="stroke:#181818;stroke-width:0.5;"/><text fill="#000000" font-family="sans-serif" font-size="11" lengthAdjust="spacing" textLength="17.0829" x="270.5587" y="1031.1211">yes</text><text fill="#000000" font-family="sans-serif" font-size="11" lengthAdjust="spacing" textLength="89.4624" x="221.8276" y="1011.6301">imaging success?</text><text fill="#000000" font-family="sans-serif" font-size="11" lengthAdjust="spacing" textLength="13.4529" x="323.2899" y="1004.1392">no</text><ellipse cx="358.7428" cy="1007.3622" fill="none" rx="11" ry="11" style="stroke:#222222;stroke-width:1;"/><ellipse cx="358.7428" cy="1007.3622" fill="#222222" rx="6" ry="6" style="stroke:#222222;stroke-width:1;"/><polygon fill="#F1F1F1" points="184.8678,728.3041,348.2497,728.3041,360.2497,740.3041,348.2497,752.3041,184.8678,752.3041,172.8678,740.3041,184.8678,728.3041" style="stroke:#181818;stroke-width:0.5;"/><text fill="#000000" font-family="sans-serif" font-size="11" lengthAdjust="spacing" textLength="17.0829" x="270.5587" y="764.063">yes</text><text fill="#000000" font-family="sans-serif" font-size="11" lengthAdjust="spacing" textLength="163.3818" x="184.8678" y="744.5721">Required imaging?: `do_tlcean`?</text><text fill="#000000" font-family="sans-serif" font-size="11" lengthAdjust="spacing" textLength="13.4529" x="360.2497" y="737.0811">no</text><polygon fill="#F1F1F1" points="266.5587,1064.6211,278.5587,1076.6211,266.5587,1088.6211,254.5587,1076.6211,266.5587,1064.6211" style="stroke:#181818;stroke-width:0.5;"/><rect fill="#FFE4B5" height="152.386" style="stroke:#000000;stroke-width:1.5;" width="290.7029" x="149.0283" y="1157.482"/><path d="M429.7312,1157.482 L429.7312,1169.5499 L419.7312,1179.5499 L149.0283,1179.5499" fill="none" style="stroke:#000000;stroke-width:1.5;"/><text fill="#000000" font-family="sans-serif" font-size="14" lengthAdjust="spacing" textLength="270.7029" x="152.0283" y="1173.4479">Self-calibration and generate 2nd images</text><rect fill="#F1F1F1" height="36.3441" rx="12.5" ry="12.5" style="stroke:#181818;stroke-width:0.5;" width="153.129" x="189.9943" y="1196.5499"/><text fill="#000000" font-family="sans-serif" font-size="12" lengthAdjust="spacing" textLength="133.129" x="199.9943" y="1219.378">Perform self-calibration</text><polygon fill="#F1F1F1" points="204.8052,1260.6091,328.3123,1260.6091,340.3123,1272.6091,328.3123,1284.6091,204.8052,1284.6091,192.8052,1272.6091,204.8052,1260.6091" style="stroke:#181818;stroke-width:0.5;"/><text fill="#000000" font-family="sans-serif" font-size="11" lengthAdjust="spacing" textLength="17.0829" x="270.5587" y="1296.368">yes</text><text fill="#000000" font-family="sans-serif" font-size="11" lengthAdjust="spacing" textLength="123.5072" x="204.8052" y="1276.877">self-calibration success?</text><text fill="#000000" font-family="sans-serif" font-size="11" lengthAdjust="spacing" textLength="13.4529" x="340.3123" y="1269.3861">no</text><ellipse cx="375.7652" cy="1272.6091" fill="none" rx="11" ry="11" style="stroke:#222222;stroke-width:1;"/><ellipse cx="375.7652" cy="1272.6091" fill="#222222" rx="6" ry="6" style="stroke:#222222;stroke-width:1;"/><polygon fill="#F1F1F1" points="167.2844,1108.6211,365.833,1108.6211,377.833,1120.6211,365.833,1132.6211,167.2844,1132.6211,155.2844,1120.6211,167.2844,1108.6211" style="stroke:#181818;stroke-width:0.5;"/><text fill="#000000" font-family="sans-serif" font-size="11" lengthAdjust="spacing" textLength="17.0829" x="270.5587" y="1144.38">yes</text><text fill="#000000" font-family="sans-serif" font-size="11" lengthAdjust="spacing" textLength="198.5486" x="167.2844" y="1124.889">Required self-calibration?: `do_selfcal`?</text><text fill="#000000" font-family="sans-serif" font-size="11" lengthAdjust="spacing" textLength="13.4529" x="377.833" y="1117.3981">no</text><polygon fill="#F1F1F1" points="266.5587,1329.868,278.5587,1341.868,266.5587,1353.868,254.5587,1341.868,266.5587,1329.868" style="stroke:#181818;stroke-width:0.5;"/><rect fill="#FFE4B5" height="294.506" style="stroke:#000000;stroke-width:1.5;" width="433.6404" x="60.2386" y="1421.1269"/><path d="M213.038,1421.1269 L213.038,1433.1948 L203.038,1443.1948 L60.2386,1443.1948" fill="none" style="stroke:#000000;stroke-width:1.5;"/><text fill="#000000" font-family="sans-serif" font-size="14" lengthAdjust="spacing" textLength="142.7995" x="63.2386" y="1437.0928">Export images to FITS</text><rect fill="#F1F1F1" height="36.3441" rx="12.5" ry="12.5" style="stroke:#181818;stroke-width:0.5;" width="184.1492" x="174.4842" y="1460.1948"/><text fill="#000000" font-family="sans-serif" font-size="12" lengthAdjust="spacing" textLength="164.1492" x="184.4842" y="1483.0229">Export images to FITS format</text><rect fill="#F1F1F1" height="36.3441" rx="12.5" ry="12.5" style="stroke:#181818;stroke-width:0.5;" width="142.2689" x="195.4243" y="1566.0299"/><text fill="#000000" font-family="sans-serif" font-size="12" lengthAdjust="spacing" textLength="122.2689" x="205.4243" y="1588.858">Remove CASA images</text><polygon fill="#F1F1F1" points="82.2386,1516.5389,450.8789,1516.5389,462.8789,1528.5389,450.8789,1540.5389,82.2386,1540.5389,70.2386,1528.5389,82.2386,1516.5389" style="stroke:#181818;stroke-width:0.5;"/><text fill="#000000" font-family="sans-serif" font-size="11" lengthAdjust="spacing" textLength="17.0829" x="270.5587" y="1552.2978">yes</text><text fill="#000000" font-family="sans-serif" font-size="11" lengthAdjust="spacing" textLength="368.6404" x="82.2386" y="1532.8069">Required to remove CASA images after export?: `remove_casa_images`?</text><text fill="#000000" font-family="sans-serif" font-size="11" lengthAdjust="spacing" textLength="13.4529" x="462.8789" y="1525.3159">no</text><polygon fill="#F1F1F1" points="266.5587,1622.374,278.5587,1634.374,266.5587,1646.374,254.5587,1634.374,266.5587,1622.374" style="stroke:#181818;stroke-width:0.5;"/><polygon fill="#F1F1F1" points="193.6128,1666.374,339.5047,1666.374,351.5047,1678.374,339.5047,1690.374,193.6128,1690.374,181.6128,1678.374,193.6128,1666.374" style="stroke:#181818;stroke-width:0.5;"/><text fill="#000000" font-family="sans-serif" font-size="11" lengthAdjust="spacing" textLength="17.0829" x="270.5587" y="1702.1329">yes</text><text fill="#000000" font-family="sans-serif" font-size="11" lengthAdjust="spacing" textLength="145.892" x="193.6128" y="1682.6419">export and remove success?</text><text fill="#000000" font-family="sans-serif" font-size="11" lengthAdjust="spacing" textLength="13.4529" x="351.5047" y="1675.151">no</text><ellipse cx="386.9576" cy="1678.374" fill="none" rx="11" ry="11" style="stroke:#222222;stroke-width:1;"/><ellipse cx="386.9576" cy="1678.374" fill="#222222" rx="6" ry="6" style="stroke:#222222;stroke-width:1;"/><polygon fill="#F1F1F1" points="139.1852,1373.868,393.9323,1373.868,405.9323,1385.868,393.9323,1397.868,139.1852,1397.868,127.1852,1385.868,139.1852,1373.868" style="stroke:#181818;stroke-width:0.5;"/><text fill="#000000" font-family="sans-serif" font-size="11" lengthAdjust="spacing" textLength="17.0829" x="270.5587" y="1409.6269">yes</text><text fill="#000000" font-family="sans-serif" font-size="11" lengthAdjust="spacing" textLength="254.7472" x="139.1852" y="1390.1359">Required exporting images to FITS?: `export_fits`?</text><text fill="#000000" font-family="sans-serif" font-size="11" lengthAdjust="spacing" textLength="13.4529" x="405.9323" y="1382.645">no</text><polygon fill="#F1F1F1" points="266.5587,1735.6329,278.5587,1747.6329,266.5587,1759.6329,254.5587,1747.6329,266.5587,1735.6329" style="stroke:#181818;stroke-width:0.5;"/><rect fill="#FFE4B5" height="330.738" style="stroke:#000000;stroke-width:1.5;" width="496.9883" x="23" y="1769.6329"/><path d="M87.1238,1769.6329 L87.1238,1781.7008 L77.1238,1791.7008 L23,1791.7008" fill="none" style="stroke:#000000;stroke-width:1.5;"/><text fill="#000000" font-family="sans-serif" font-size="14" lengthAdjust="spacing" textLength="54.1238" x="26" y="1785.5988">Cleanup</text><rect fill="#F1F1F1" height="36.3441" rx="12.5" ry="12.5" style="stroke:#181818;stroke-width:0.5;" width="205.4133" x="163.8521" y="1858.1918"/><text fill="#000000" font-family="sans-serif" font-size="12" lengthAdjust="spacing" textLength="185.4133" x="173.8521" y="1881.0198">Remove ASDM working directory</text><polygon fill="#F1F1F1" points="151.0046,1808.7008,382.1129,1808.7008,394.1129,1820.7008,382.1129,1832.7008,151.0046,1832.7008,139.0046,1820.7008,151.0046,1808.7008" style="stroke:#181818;stroke-width:0.5;"/><text fill="#000000" font-family="sans-serif" font-size="11" lengthAdjust="spacing" textLength="17.0829" x="270.5587" y="1844.4597">yes</text><text fill="#000000" font-family="sans-serif" font-size="11" lengthAdjust="spacing" textLength="231.1083" x="151.0046" y="1824.9688">Required to remove ASDM?: `remove_asdm`?</text><text fill="#000000" font-family="sans-serif" font-size="11" lengthAdjust="spacing" textLength="13.4529" x="394.1129" y="1817.4778">no</text><polygon fill="#F1F1F1" points="266.5587,1914.5359,278.5587,1926.5359,266.5587,1938.5359,254.5587,1926.5359,266.5587,1914.5359" style="stroke:#181818;stroke-width:0.5;"/><rect fill="#F1F1F1" height="36.3441" rx="12.5" ry="12.5" style="stroke:#181818;stroke-width:0.5;" width="454.859" x="39.1292" y="2008.0268"/><text fill="#000000" font-family="sans-serif" font-size="12" lengthAdjust="spacing" textLength="434.859" x="49.1292" y="2030.8549">Remove intermediate files. Only keep images dirs, MS and *.py and *.log files</text><polygon fill="#F1F1F1" points="102.0989,1958.5359,431.0186,1958.5359,443.0186,1970.5359,431.0186,1982.5359,102.0989,1982.5359,90.0989,1970.5359,102.0989,1958.5359" style="stroke:#181818;stroke-width:0.5;"/><text fill="#000000" font-family="sans-serif" font-size="11" lengthAdjust="spacing" textLength="17.0829" x="270.5587" y="1994.2948">yes</text><text fill="#000000" font-family="sans-serif" font-size="11" lengthAdjust="spacing" textLength="328.9196" x="102.0989" y="1974.8038">Required to remove intermediate files?: `remove_intermediate`?</text><text fill="#000000" font-family="sans-serif" font-size="11" lengthAdjust="spacing" textLength="13.4529" x="443.0186" y="1967.3129">no</text><polygon fill="#F1F1F1" points="266.5587,2064.3709,278.5587,2076.3709,266.5587,2088.3709,254.5587,2076.3709,266.5587,2064.3709" style="stroke:#181818;stroke-width:0.5;"/><rect fill="#FFE4B5" height="260.1619" style="stroke:#000000;stroke-width:1.5;" width="279.6612" x="131.2281" y="2110.3709"/><path d="M234.5658,2110.3709 L234.5658,2122.4388 L224.5658,2132.4388 L131.2281,2132.4388" fill="none" style="stroke:#000000;stroke-width:1.5;"/><text fill="#000000" font-family="sans-serif" font-size="14" lengthAdjust="spacing" textLength="93.3376" x="134.2281" y="2126.3369">Check success</text><rect fill="#F1F1F1" height="36.3441" rx="12.5" ry="12.5" style="stroke:#181818;stroke-width:0.5;" width="182.6612" x="175.2281" y="2256.1887"/><text fill="#000000" font-family="sans-serif" font-size="12" lengthAdjust="spacing" textLength="162.6612" x="185.2281" y="2279.0168">Mark ASDM process as failed</text><polygon fill="#F1F1F1" points="195.9943,2206.6978,337.1232,2206.6978,349.1232,2218.6978,337.1232,2230.6978,195.9943,2230.6978,183.9943,2218.6978,195.9943,2206.6978" style="stroke:#181818;stroke-width:0.5;"/><text fill="#000000" font-family="sans-serif" font-size="11" lengthAdjust="spacing" textLength="17.0829" x="270.5587" y="2242.4567">yes</text><text fill="#000000" font-family="sans-serif" font-size="11" lengthAdjust="spacing" textLength="141.129" x="195.9943" y="2222.9657">log files contains "SEVERE"?</text><text fill="#000000" font-family="sans-serif" font-size="11" lengthAdjust="spacing" textLength="13.4529" x="349.1232" y="2215.4748">no</text><polygon fill="#F1F1F1" points="266.5587,2312.5328,278.5587,2324.5328,266.5587,2336.5328,254.5587,2324.5328,266.5587,2312.5328" style="stroke:#181818;stroke-width:0.5;"/><polygon fill="#F1F1F1" points="228.873,2149.4388,304.2445,2149.4388,316.2445,2161.4388,304.2445,2173.4388,228.873,2173.4388,216.873,2161.4388,228.873,2149.4388" style="stroke:#181818;stroke-width:0.5;"/><text fill="#000000" font-family="sans-serif" font-size="11" lengthAdjust="spacing" textLength="17.0829" x="270.5587" y="2185.1978">yes</text><text fill="#000000" font-family="sans-serif" font-size="11" lengthAdjust="spacing" textLength="75.3715" x="228.873" y="2165.7068">more log files?</text><ellipse cx="266.5587" cy="2413.5328" fill="none" rx="11" ry="11" style="stroke:#222222;stroke-width:1;"/><ellipse cx="266.5587" cy="2413.5328" fill="#222222" rx="6" ry="6" style="stroke:#222222;stroke-width:1;"/><line style="stroke:#181818;stroke-width:1;" x1="266.5587" x2="266.5587" y1="115.412" y2="135.412"/><polygon fill="#181818" points="262.5587,125.412,266.5587,135.412,270.5587,125.412,266.5587,129.412" style="stroke:#181818;stroke-width:1;"/><line style="stroke:#181818;stroke-width:1;" x1="266.5587" x2="266.5587" y1="30" y2="79.0679"/><polygon fill="#181818" points="262.5587,69.0679,266.5587,79.0679,270.5587,69.0679,266.5587,73.0679" style="stroke:#181818;stroke-width:1;"/><line style="stroke:#181818;stroke-width:1;" x1="266.5587" x2="266.5587" y1="313.1682" y2="387.495"/><polygon fill="#181818" points="262.5587,377.495,266.5587,387.495,270.5587,377.495,266.5587,381.495" style="stroke:#181818;stroke-width:1;"/><line style="stroke:#181818;stroke-width:1;" x1="328.1849" x2="352.6378" y1="301.1682" y2="301.1682"/><polygon fill="#181818" points="342.6378,297.1682,352.6378,301.1682,342.6378,305.1682,346.6378,301.1682" style="stroke:#181818;stroke-width:1;"/><line style="stroke:#181818;stroke-width:1;" x1="266.5587" x2="266.5587" y1="269.1682" y2="289.1682"/><polygon fill="#181818" points="262.5587,279.1682,266.5587,289.1682,270.5587,279.1682,266.5587,283.1682" style="stroke:#181818;stroke-width:1;"/><line style="stroke:#181818;stroke-width:1;" x1="266.5587" x2="266.5587" y1="171.7561" y2="232.8241"/><polygon fill="#181818" points="262.5587,222.8241,266.5587,232.8241,270.5587,222.8241,266.5587,226.8241" style="stroke:#181818;stroke-width:1;"/><line style="stroke:#181818;stroke-width:1;" x1="266.5587" x2="266.5587" y1="467.8391" y2="501.098"/><polygon fill="#181818" points="262.5587,491.098,266.5587,501.098,270.5587,491.098,266.5587,495.098" style="stroke:#181818;stroke-width:1;"/><line style="stroke:#181818;stroke-width:1;" x1="339.0528" x2="363.5057" y1="455.8391" y2="455.8391"/><polygon fill="#181818" points="353.5057,451.8391,363.5057,455.8391,353.5057,459.8391,357.5057,455.8391" style="stroke:#181818;stroke-width:1;"/><line style="stroke:#181818;stroke-width:1;" x1="266.5587" x2="266.5587" y1="423.8391" y2="443.8391"/><polygon fill="#181818" points="262.5587,433.8391,266.5587,443.8391,270.5587,433.8391,266.5587,437.8391" style="stroke:#181818;stroke-width:1;"/><line style="stroke:#181818;stroke-width:1;" x1="266.5587" x2="266.5587" y1="581.4421" y2="614.7011"/><polygon fill="#181818" points="262.5587,604.7011,266.5587,614.7011,270.5587,604.7011,266.5587,608.7011" style="stroke:#181818;stroke-width:1;"/><line style="stroke:#181818;stroke-width:1;" x1="330.2529" x2="354.7058" y1="569.4421" y2="569.4421"/><polygon fill="#181818" points="344.7058,565.4421,354.7058,569.4421,344.7058,573.4421,348.7058,569.4421" style="stroke:#181818;stroke-width:1;"/><line style="stroke:#181818;stroke-width:1;" x1="266.5587" x2="266.5587" y1="537.4421" y2="557.4421"/><polygon fill="#181818" points="262.5587,547.4421,266.5587,557.4421,270.5587,547.4421,266.5587,551.4421" style="stroke:#181818;stroke-width:1;"/><line style="stroke:#181818;stroke-width:1;" x1="266.5587" x2="266.5587" y1="695.0452" y2="728.3041"/><polygon fill="#181818" points="262.5587,718.3041,266.5587,728.3041,270.5587,718.3041,266.5587,722.3041" style="stroke:#181818;stroke-width:1;"/><line style="stroke:#181818;stroke-width:1;" x1="323.2019" x2="347.6548" y1="683.0452" y2="683.0452"/><polygon fill="#181818" points="337.6548,679.0452,347.6548,683.0452,337.6548,687.0452,341.6548,683.0452" style="stroke:#181818;stroke-width:1;"/><line style="stroke:#181818;stroke-width:1;" x1="266.5587" x2="266.5587" y1="651.0452" y2="671.0452"/><polygon fill="#181818" points="262.5587,661.0452,266.5587,671.0452,270.5587,661.0452,266.5587,665.0452" style="stroke:#181818;stroke-width:1;"/><line style="stroke:#181818;stroke-width:1;" x1="141.991" x2="131.991" y1="826.6309" y2="826.6309"/><line style="stroke:#181818;stroke-width:1;" x1="131.991" x2="131.991" y1="826.6309" y2="848.6309"/><polygon fill="#181818" points="127.991,838.6309,131.991,848.6309,135.991,838.6309,131.991,842.6309" style="stroke:#181818;stroke-width:1;"/><line style="stroke:#181818;stroke-width:1;" x1="391.1265" x2="401.1265" y1="826.6309" y2="826.6309"/><line style="stroke:#181818;stroke-width:1;" x1="401.1265" x2="401.1265" y1="826.6309" y2="848.6309"/><polygon fill="#181818" points="397.1265,838.6309,401.1265,848.6309,405.1265,838.6309,401.1265,842.6309" style="stroke:#181818;stroke-width:1;"/><line style="stroke:#181818;stroke-width:1;" x1="131.991" x2="131.991" y1="884.975" y2="902.975"/><line style="stroke:#181818;stroke-width:1;" x1="131.991" x2="254.5587" y1="902.975" y2="902.975"/><polygon fill="#181818" points="244.5587,898.975,254.5587,902.975,244.5587,906.975,248.5587,902.975" style="stroke:#181818;stroke-width:1;"/><line style="stroke:#181818;stroke-width:1;" x1="401.1265" x2="401.1265" y1="884.975" y2="902.975"/><line style="stroke:#181818;stroke-width:1;" x1="401.1265" x2="278.5587" y1="902.975" y2="902.975"/><polygon fill="#181818" points="288.5587,898.975,278.5587,902.975,288.5587,906.975,284.5587,902.975" style="stroke:#181818;stroke-width:1;"/><line style="stroke:#181818;stroke-width:1;" x1="266.5587" x2="266.5587" y1="914.975" y2="939.018"/><polygon fill="#181818" points="262.5587,929.018,266.5587,939.018,270.5587,929.018,266.5587,933.018" style="stroke:#181818;stroke-width:1;"/><line style="stroke:#181818;stroke-width:1;" x1="266.5587" x2="266.5587" y1="1019.3622" y2="1064.6211"/><polygon fill="#181818" points="262.5587,1054.6211,266.5587,1064.6211,270.5587,1054.6211,266.5587,1058.6211" style="stroke:#181818;stroke-width:1;"/><line style="stroke:#181818;stroke-width:1;" x1="323.2899" x2="347.7428" y1="1007.3622" y2="1007.3622"/><polygon fill="#181818" points="337.7428,1003.3622,347.7428,1007.3622,337.7428,1011.3622,341.7428,1007.3622" style="stroke:#181818;stroke-width:1;"/><line style="stroke:#181818;stroke-width:1;" x1="266.5587" x2="266.5587" y1="975.3622" y2="995.3622"/><polygon fill="#181818" points="262.5587,985.3622,266.5587,995.3622,270.5587,985.3622,266.5587,989.3622" style="stroke:#181818;stroke-width:1;"/><line style="stroke:#181818;stroke-width:1;" x1="266.5587" x2="266.5587" y1="752.3041" y2="814.6309"/><polygon fill="#181818" points="262.5587,804.6309,266.5587,814.6309,270.5587,804.6309,266.5587,808.6309" style="stroke:#181818;stroke-width:1;"/><line style="stroke:#181818;stroke-width:1;" x1="360.2497" x2="495.3428" y1="740.3041" y2="740.3041"/><polygon fill="#181818" points="491.3428,924.975,495.3428,934.975,499.3428,924.975,495.3428,928.975" style="stroke:#181818;stroke-width:1;"/><line style="stroke:#181818;stroke-width:1;" x1="495.3428" x2="495.3428" y1="740.3041" y2="1076.6211"/><line style="stroke:#181818;stroke-width:1;" x1="495.3428" x2="278.5587" y1="1076.6211" y2="1076.6211"/><polygon fill="#181818" points="288.5587,1072.6211,278.5587,1076.6211,288.5587,1080.6211,284.5587,1076.6211" style="stroke:#181818;stroke-width:1;"/><line style="stroke:#181818;stroke-width:1;" x1="266.5587" x2="266.5587" y1="1284.6091" y2="1329.868"/><polygon fill="#181818" points="262.5587,1319.868,266.5587,1329.868,270.5587,1319.868,266.5587,1323.868" style="stroke:#181818;stroke-width:1;"/><line style="stroke:#181818;stroke-width:1;" x1="340.3123" x2="364.7652" y1="1272.6091" y2="1272.6091"/><polygon fill="#181818" points="354.7652,1268.6091,364.7652,1272.6091,354.7652,1276.6091,358.7652,1272.6091" style="stroke:#181818;stroke-width:1;"/><line style="stroke:#181818;stroke-width:1;" x1="266.5587" x2="266.5587" y1="1232.894" y2="1260.6091"/><polygon fill="#181818" points="262.5587,1250.6091,266.5587,1260.6091,270.5587,1250.6091,266.5587,1254.6091" style="stroke:#181818;stroke-width:1;"/><line style="stroke:#181818;stroke-width:1;" x1="266.5587" x2="266.5587" y1="1132.6211" y2="1196.5499"/><polygon fill="#181818" points="262.5587,1186.5499,266.5587,1196.5499,270.5587,1186.5499,266.5587,1190.5499" style="stroke:#181818;stroke-width:1;"/><line style="stroke:#181818;stroke-width:1;" x1="377.833" x2="449.7312" y1="1120.6211" y2="1120.6211"/><polygon fill="#181818" points="445.7312,1242.894,449.7312,1252.894,453.7312,1242.894,449.7312,1246.894" style="stroke:#181818;stroke-width:1;"/><line style="stroke:#181818;stroke-width:1;" x1="449.7312" x2="449.7312" y1="1120.6211" y2="1341.868"/><line style="stroke:#181818;stroke-width:1;" x1="449.7312" x2="278.5587" y1="1341.868" y2="1341.868"/><polygon fill="#181818" points="288.5587,1337.868,278.5587,1341.868,288.5587,1345.868,284.5587,1341.868" style="stroke:#181818;stroke-width:1;"/><line style="stroke:#181818;stroke-width:1;" x1="266.5587" x2="266.5587" y1="1088.6211" y2="1108.6211"/><polygon fill="#181818" points="262.5587,1098.6211,266.5587,1108.6211,270.5587,1098.6211,266.5587,1102.6211" style="stroke:#181818;stroke-width:1;"/><line style="stroke:#181818;stroke-width:1;" x1="266.5587" x2="266.5587" y1="1540.5389" y2="1566.0299"/><polygon fill="#181818" points="262.5587,1556.0299,266.5587,1566.0299,270.5587,1556.0299,266.5587,1560.0299" style="stroke:#181818;stroke-width:1;"/><line style="stroke:#181818;stroke-width:1;" x1="462.8789" x2="474.8789" y1="1528.5389" y2="1528.5389"/><polygon fill="#181818" points="470.8789,1574.2019,474.8789,1584.2019,478.8789,1574.2019,474.8789,1578.2019" style="stroke:#181818;stroke-width:1;"/><line style="stroke:#181818;stroke-width:1;" x1="474.8789" x2="474.8789" y1="1528.5389" y2="1634.374"/><line style="stroke:#181818;stroke-width:1;" x1="474.8789" x2="278.5587" y1="1634.374" y2="1634.374"/><polygon fill="#181818" points="288.5587,1630.374,278.5587,1634.374,288.5587,1638.374,284.5587,1634.374" style="stroke:#181818;stroke-width:1;"/><line style="stroke:#181818;stroke-width:1;" x1="266.5587" x2="266.5587" y1="1602.374" y2="1622.374"/><polygon fill="#181818" points="262.5587,1612.374,266.5587,1622.374,270.5587,1612.374,266.5587,1616.374" style="stroke:#181818;stroke-width:1;"/><line style="stroke:#181818;stroke-width:1;" x1="266.5587" x2="266.5587" y1="1496.5389" y2="1516.5389"/><polygon fill="#181818" points="262.5587,1506.5389,266.5587,1516.5389,270.5587,1506.5389,266.5587,1510.5389" style="stroke:#181818;stroke-width:1;"/><line style="stroke:#181818;stroke-width:1;" x1="266.5587" x2="266.5587" y1="1690.374" y2="1735.6329"/><polygon fill="#181818" points="262.5587,1725.6329,266.5587,1735.6329,270.5587,1725.6329,266.5587,1729.6329" style="stroke:#181818;stroke-width:1;"/><line style="stroke:#181818;stroke-width:1;" x1="351.5047" x2="375.9576" y1="1678.374" y2="1678.374"/><polygon fill="#181818" points="365.9576,1674.374,375.9576,1678.374,365.9576,1682.374,369.9576,1678.374" style="stroke:#181818;stroke-width:1;"/><line style="stroke:#181818;stroke-width:1;" x1="266.5587" x2="266.5587" y1="1646.374" y2="1666.374"/><polygon fill="#181818" points="262.5587,1656.374,266.5587,1666.374,270.5587,1656.374,266.5587,1660.374" style="stroke:#181818;stroke-width:1;"/><line style="stroke:#181818;stroke-width:1;" x1="266.5587" x2="266.5587" y1="1397.868" y2="1460.1948"/><polygon fill="#181818" points="262.5587,1450.1948,266.5587,1460.1948,270.5587,1450.1948,266.5587,1454.1948" style="stroke:#181818;stroke-width:1;"/><line style="stroke:#181818;stroke-width:1;" x1="405.9323" x2="503.8789" y1="1385.868" y2="1385.868"/><polygon fill="#181818" points="499.8789,1583.9868,503.8789,1593.9868,507.8789,1583.9868,503.8789,1587.9868" style="stroke:#181818;stroke-width:1;"/><line style="stroke:#181818;stroke-width:1;" x1="503.8789" x2="503.8789" y1="1385.868" y2="1747.6329"/><line style="stroke:#181818;stroke-width:1;" x1="503.8789" x2="278.5587" y1="1747.6329" y2="1747.6329"/><polygon fill="#181818" points="288.5587,1743.6329,278.5587,1747.6329,288.5587,1751.6329,284.5587,1747.6329" style="stroke:#181818;stroke-width:1;"/><line style="stroke:#181818;stroke-width:1;" x1="266.5587" x2="266.5587" y1="1353.868" y2="1373.868"/><polygon fill="#181818" points="262.5587,1363.868,266.5587,1373.868,270.5587,1363.868,266.5587,1367.868" style="stroke:#181818;stroke-width:1;"/><line style="stroke:#181818;stroke-width:1;" x1="266.5587" x2="266.5587" y1="1832.7008" y2="1858.1918"/><polygon fill="#181818" points="262.5587,1848.1918,266.5587,1858.1918,270.5587,1848.1918,266.5587,1852.1918" style="stroke:#181818;stroke-width:1;"/><line style="stroke:#181818;stroke-width:1;" x1="394.1129" x2="406.1129" y1="1820.7008" y2="1820.7008"/><polygon fill="#181818" points="402.1129,1866.3638,406.1129,1876.3638,410.1129,1866.3638,406.1129,1870.3638" style="stroke:#181818;stroke-width:1;"/><line style="stroke:#181818;stroke-width:1;" x1="406.1129" x2="406.1129" y1="1820.7008" y2="1926.5359"/><line style="stroke:#181818;stroke-width:1;" x1="406.1129" x2="278.5587" y1="1926.5359" y2="1926.5359"/><polygon fill="#181818" points="288.5587,1922.5359,278.5587,1926.5359,288.5587,1930.5359,284.5587,1926.5359" style="stroke:#181818;stroke-width:1;"/><line style="stroke:#181818;stroke-width:1;" x1="266.5587" x2="266.5587" y1="1894.5359" y2="1914.5359"/><polygon fill="#181818" points="262.5587,1904.5359,266.5587,1914.5359,270.5587,1904.5359,266.5587,1908.5359" style="stroke:#181818;stroke-width:1;"/><line style="stroke:#181818;stroke-width:1;" x1="266.5587" x2="266.5587" y1="1982.5359" y2="2008.0268"/><polygon fill="#181818" points="262.5587,1998.0268,266.5587,2008.0268,270.5587,1998.0268,266.5587,2002.0268" style="stroke:#181818;stroke-width:1;"/><line style="stroke:#181818;stroke-width:1;" x1="443.0186" x2="503.9883" y1="1970.5359" y2="1970.5359"/><polygon fill="#181818" points="499.9883,2016.1989,503.9883,2026.1989,507.9883,2016.1989,503.9883,2020.1989" style="stroke:#181818;stroke-width:1;"/><line style="stroke:#181818;stroke-width:1;" x1="503.9883" x2="503.9883" y1="1970.5359" y2="2076.3709"/><line style="stroke:#181818;stroke-width:1;" x1="503.9883" x2="278.5587" y1="2076.3709" y2="2076.3709"/><polygon fill="#181818" points="288.5587,2072.3709,278.5587,2076.3709,288.5587,2080.3709,284.5587,2076.3709" style="stroke:#181818;stroke-width:1;"/><line style="stroke:#181818;stroke-width:1;" x1="266.5587" x2="266.5587" y1="2044.3709" y2="2064.3709"/><polygon fill="#181818" points="262.5587,2054.3709,266.5587,2064.3709,270.5587,2054.3709,266.5587,2058.3709" style="stroke:#181818;stroke-width:1;"/><line style="stroke:#181818;stroke-width:1;" x1="266.5587" x2="266.5587" y1="1938.5359" y2="1958.5359"/><polygon fill="#181818" points="262.5587,1948.5359,266.5587,1958.5359,270.5587,1948.5359,266.5587,1952.5359" style="stroke:#181818;stroke-width:1;"/><line style="stroke:#181818;stroke-width:1;" x1="266.5587" x2="266.5587" y1="1759.6329" y2="1808.7008"/><polygon fill="#181818" points="262.5587,1798.7008,266.5587,1808.7008,270.5587,1798.7008,266.5587,1802.7008" style="stroke:#181818;stroke-width:1;"/><line style="stroke:#181818;stroke-width:1;" x1="266.5587" x2="266.5587" y1="2230.6978" y2="2256.1887"/><polygon fill="#181818" points="262.5587,2246.1887,266.5587,2256.1887,270.5587,2246.1887,266.5587,2250.1887" style="stroke:#181818;stroke-width:1;"/><line style="stroke:#181818;stroke-width:1;" x1="349.1232" x2="367.8893" y1="2218.6978" y2="2218.6978"/><polygon fill="#181818" points="363.8893,2264.3608,367.8893,2274.3608,371.8893,2264.3608,367.8893,2268.3608" style="stroke:#181818;stroke-width:1;"/><line style="stroke:#181818;stroke-width:1;" x1="367.8893" x2="367.8893" y1="2218.6978" y2="2324.5328"/><line style="stroke:#181818;stroke-width:1;" x1="367.8893" x2="278.5587" y1="2324.5328" y2="2324.5328"/><polygon fill="#181818" points="288.5587,2320.5328,278.5587,2324.5328,288.5587,2328.5328,284.5587,2324.5328" style="stroke:#181818;stroke-width:1;"/><line style="stroke:#181818;stroke-width:1;" x1="266.5587" x2="266.5587" y1="2292.5328" y2="2312.5328"/><polygon fill="#181818" points="262.5587,2302.5328,266.5587,2312.5328,270.5587,2302.5328,266.5587,2306.5328" style="stroke:#181818;stroke-width:1;"/><line style="stroke:#181818;stroke-width:1;" x1="266.5587" x2="266.5587" y1="2173.4388" y2="2206.6978"/><polygon fill="#181818" points="262.5587,2196.6978,266.5587,2206.6978,270.5587,2196.6978,266.5587,2200.6978" style="stroke:#181818;stroke-width:1;"/><line style="stroke:#181818;stroke-width:1;" x1="266.5587" x2="266.5587" y1="2336.5328" y2="2346.5328"/><line style="stroke:#181818;stroke-width:1;" x1="266.5587" x2="391.8893" y1="2346.5328" y2="2346.5328"/><polygon fill="#181818" points="387.8893,2264.8698,391.8893,2254.8698,395.8893,2264.8698,391.8893,2260.8698" style="stroke:#181818;stroke-width:1;"/><line style="stroke:#181818;stroke-width:1;" x1="391.8893" x2="391.8893" y1="2161.4388" y2="2346.5328"/><line style="stroke:#181818;stroke-width:1;" x1="391.8893" x2="316.2445" y1="2161.4388" y2="2161.4388"/><polygon fill="#181818" points="326.2445,2157.4388,316.2445,2161.4388,326.2445,2165.4388,322.2445,2161.4388" style="stroke:#181818;stroke-width:1;"/><line style="stroke:#181818;stroke-width:1;" x1="216.873" x2="153.2281" y1="2161.4388" y2="2161.4388"/><polygon fill="#181818" points="149.2281,2250.8698,153.2281,2260.8698,157.2281,2250.8698,153.2281,2254.8698" style="stroke:#181818;stroke-width:1;"/><line style="stroke:#181818;stroke-width:1;" x1="153.2281" x2="153.2281" y1="2161.4388" y2="2358.5328"/><line style="stroke:#181818;stroke-width:1;" x1="153.2281" x2="266.5587" y1="2358.5328" y2="2358.5328"/><line style="stroke:#181818;stroke-width:1;" x1="266.5587" x2="266.5587" y1="2358.5328" y2="2402.5328"/><polygon fill="#181818" points="262.5587,2392.5328,266.5587,2402.5328,270.5587,2392.5328,266.5587,2396.5328" style="stroke:#181818;stroke-width:1;"/><line style="stroke:#181818;stroke-width:1;" x1="266.5587" x2="266.5587" y1="2088.3709" y2="2149.4388"/><polygon fill="#181818" points="262.5587,2139.4388,266.5587,2149.4388,270.5587,2139.4388,266.5587,2143.4388" style="stroke:#181818;stroke-width:1;"/><!--SRC=[pLPDRnen4BtpAqRf8QHgEVG8ggA8KWcfg15KbNeYZdSMNBpsrZOXgCf_x_Y3P65tWIg7rWV4olFnvhsPdRME6TSfwKSueHLSt1eiZUPexGMy-I8MI_S3fTGR-Dq1EltHepECEr2iGD0vtCm-JI0tke1CRvJKBCCCAEWzat8GNOO6cKFOQBCIQW6PCCYTDbl8jG6tn12Z1-CSy55OPz-1mK8_80W7kJ3M3JfFLOWx2DxjECW0Be41ePokWuWOHGvTZ4u-XLrppy3rbOUdeBj5UnNiK5g4hjBnoH_hT1clL2RoVQ2taSWZG1Crd4bnRrZCpOqe7Mo4MqB1LZYlNCxZPVVg1NKovpxGww17HDErQe3paYyrX-VmrQcYogJF0XrOlJOyj1Ib-4dYG7U5MEw32JOMj9BR2WUXNPXyBI0VQeg_rjGQ6OY2BQZ8wpxSPNhk94UcxkgH_QaeFevU9FP4Syw8fgJqxkpbi2ZpzzNw93M3IIdz9TsrvDoTlcKFL7s64Zx2PVZ3jLmNwdAmPrjde3c2qWeFNGD3Uow-IHoNHCcWLbqYhbsCqv2UnMc6yDIWQPkCXnIVHMv5qDcXH4nbi425ni_j1nKR1MsxulrRDFIYAsfGwjJL-k7_u10VIqs4aAQnLg3twEVnjvddCjxDS-7iQJ97mVWWoX7c6ktzrYYO6xIF5Hcc1JAycTtit5bEivLgySYZ2RrTBPj7arEZDgq5FMV6wkCJbqqepNTJmlhFjAu8DFGZlIwR9MdXs2-t2f_CPiKH8dSaXitSieoRYwqWFeA6bZoQ0ZFXnpCN4cq5M_No38prM3tuIfi7mbvARKNOwODbCWjIlksLs_H7waNqELrJrAYcnHBvQjSLpOfibfG0keKs2C_vg2vX6whoX3qR0TVACQ4ilU56tqVJqSM9tfymiugYfGy0O1PoHh6olny2UWhGK-LF7T_0Vm00]--></g></svg>