<svg width="16" height="16" viewBox="0 0 16 16" fill="none" xmlns="http://www.w3.org/2000/svg">
<path d="M8 3.00195L8.00001 2.20195H7.99999L8 3.00195ZM15 3.80205C15.4418 3.80206 15.8 3.44389 15.8 3.00206C15.8 2.56024 15.4418 2.20206 15 2.20205L15 3.80205ZM7.99999 3.80195L15 3.80205L15 2.20205L8.00001 2.20195L7.99999 3.80195ZM0.500011 3.80205L8.00001 3.80195L7.99999 2.20195L0.499989 2.20205L0.500011 3.80205Z" fill="#282828"/>
<path d="M5.00063 4.50816C5.83407 4.50671 6.50853 3.82989 6.50708 2.99644C6.50562 2.163 5.82881 1.48854 4.99536 1.49C4.16192 1.49145 3.48746 2.16827 3.48891 3.00171C3.49037 3.83516 4.16719 4.50962 5.00063 4.50816Z" fill="white" stroke="#282828" stroke-width="1.4" stroke-linecap="square"/>
<path d="M7 8.00195L6.99999 7.20195H7.00001L7 8.00195ZM1.00001 8.80205C0.558186 8.80206 0.200007 8.44389 0.2 8.00207C0.199992 7.56024 0.558159 7.20206 0.999987 7.20205L1.00001 8.80205ZM7.00001 8.80195L1.00001 8.80205L0.999987 7.20205L6.99999 7.20195L7.00001 8.80195ZM15.5 8.80205L6.99999 8.80195L7.00001 7.20195L15.5 7.20205L15.5 8.80205Z" fill="#282828"/>
<path d="M9.99937 9.50816C9.16593 9.50671 8.49147 8.82989 8.49292 7.99644C8.49438 7.163 9.17119 6.48854 10.0046 6.49C10.8381 6.49145 11.5125 7.16827 11.5111 8.00171C11.5096 8.83516 10.8328 9.50962 9.99937 9.50816Z" fill="white" stroke="#282828" stroke-width="1.4" stroke-linecap="square"/>
<path d="M8 13.002L8.00001 12.202H7.99999L8 13.002ZM15 13.8021C15.4418 13.8021 15.8 13.4439 15.8 13.0021C15.8 12.5602 15.4418 12.2021 15 12.2021L15 13.8021ZM7.99999 13.802L15 13.8021L15 12.2021L8.00001 12.202L7.99999 13.802ZM0.500011 13.8021L8.00001 13.802L7.99999 12.202L0.499989 12.2021L0.500011 13.8021Z" fill="#282828"/>
<path d="M5.00063 14.5082C5.83407 14.5067 6.50853 13.8299 6.50708 12.9964C6.50562 12.163 5.82881 11.4885 4.99536 11.49C4.16192 11.4914 3.48746 12.1683 3.48891 13.0017C3.49037 13.8352 4.16719 14.5096 5.00063 14.5082Z" fill="white" stroke="#282828" stroke-width="1.4" stroke-linecap="square"/>
</svg>
