<?xml version="1.0" encoding="UTF-8" standalone="no"?>
<svg version="1.1" width="16" height="16" viewbox="0 0 16 16" xmlns="http://www.w3.org/2000/svg" xmlns:svg="http://www.w3.org/2000/svg">
<path fill="rgb(120,120,120)" d="M15 9.67v1.33h-1.33l-1.67-1.67-1.67 1.67h-1.33v-1.33l1.67-1.67-1.67-1.67v-1.33h1.33l1.67 1.67 1.67-1.67h1.33v1.33l-1.67 1.67 1.67 1.67z"/>
<path fill="rgb(120,120,120)" d="M6.5 15c-0.13 0-0.26-0.05-0.35-0.15l-3.85-3.85h-1.79c-0.28 0-0.5-0.22-0.5-0.5v-5c0-0.28 0.22-0.5 0.5-0.5h1.79l3.85-3.85c0.14-0.14 0.36-0.19 0.55-0.11s0.31 0.26 0.31 0.46v13c0 0.2-0.12 0.39-0.31 0.46-0.06 0.03-0.13 0.04-0.19 0.04z"/>
</svg>
