<?xml version="1.0" encoding="UTF-8" standalone="no"?>
<!-- Created with Inkscape (http://www.inkscape.org/) -->

<svg
   width="16"
   height="16"
   viewBox="0 0 16 16"
   id="svg2"
   version="1.1"
   xmlns="http://www.w3.org/2000/svg"
   xmlns:svg="http://www.w3.org/2000/svg"
   xmlns:rdf="http://www.w3.org/1999/02/22-rdf-syntax-ns#"
   xmlns:cc="http://creativecommons.org/ns#"
   xmlns:dc="http://purl.org/dc/elements/1.1/">
  <defs
     id="defs4" />
  <metadata
     id="metadata7">
    <rdf:RDF>
      <cc:Work
         rdf:about="">
        <dc:format>image/svg+xml</dc:format>
        <dc:type
           rdf:resource="http://purl.org/dc/dcmitype/StillImage" />
      </cc:Work>
    </rdf:RDF>
  </metadata>
  <g
     id="layer1"
     transform="translate(0,-452.36)">
    <g
       aria-label="ð„ž"
       id="text2910"
       style="font-size:21.0404px;line-height:200%;font-family:'Nimbus Sans';-inkscape-font-specification:'Nimbus Sans';text-align:center;text-anchor:middle;overflow:visible;fill:#e7eaef;fill-rule:evenodd;stroke-width:3.76376"
       transform="matrix(0.420574,0,0,0.420574,2.57249,460.85)">
      <path
         d="m 3.77237,-16.3768 q -1.05202,0 -1.93572,1.4939 -0.862655,1.4938 -0.862655,3.8083 0,1.11513 0.126245,1.9357 0.0631,0.35769 0.27352,0.16832 0.65225,-0.56809 1.32555,-1.24142 2.33548,-2.3354 2.33548,-4.4395 0,-0.8416 -0.35769,-1.2834 -0.35768,-0.4419 -0.90473,-0.4419 z M 2.93075,1.29714 3.96173,7.29365 q 0.021,0.18937 0.0842,0.21041 0.0631,0.021 0.25249,-0.0842 Q 5.20311,6.95701 5.72912,6.17851 6.27618,5.40002 6.27618,4.43216 6.27618,3.06453 5.37144,2.09667 4.4667,1.10778 3.1622,1.00257 2.97283,0.981533 2.93075,1.04465 q -0.0421,0.0631 0,0.25249 z M 1.47896,-2.04828 1.03712,-4.74146 q -0.04209,-0.16832 -0.08417,-0.18936 -0.04208,-0.021 -0.210404,0.1052 -1.977796,1.59907 -3.219176,2.98774 -1.95676,2.209241 -1.95676,4.88137 0,2.20924 1.66219,3.57687 1.66219,1.38867 4.39745,1.38867 0.61017,0 1.17826,-0.10521 0.25248,-0.0421 0.27352,-0.0842 0.0421,-0.0421 0.021,-0.2104 l -1.05198,-6.27 Q 2.00497,1.1709 1.94185,1.14986 1.87873,1.10778 1.62625,1.1709 0.658389,1.44442 0.090298,2.09667 q -0.568091,0.65226 -0.568091,1.53595 0,0.71538 0.420808,1.32555 0.420808,0.63121 1.094105,0.92578 0.3156,0.12624 0.3156,0.27352 0,0.23145 -0.25248,0.23145 -0.231447,0 -0.568094,-0.12625 Q -0.561955,5.88395 -1.23525,4.89505 -1.8875,3.92719 -1.8875,2.53852 q 0,-1.34658 0.82058,-2.482765 0.841612,-1.136185 2.23028,-1.599075 0.29456,-0.1052 0.3156,-0.14728 0.0421,-0.0631 0,-0.35768 z m 0.31561,-3.21919 0.52601,3.05086 q 0.0421,0.29457 0.1052,0.33665 0.0842,0.0421 0.50497,0.0421 2.25132,0 3.66103,1.493868 1.40971,1.493872 1.40971,3.576872 0,1.74635 -0.94682,3.05085 -0.94682,1.30451 -2.58797,1.95676 -0.021,0.021 -0.0842,0.0421 -0.2104,0.0842 -0.2104,0.16832 0,0.0421 0.021,0.14729 0.61017,3.4295 0.61017,4.5026 0,1.0099 -0.31561,1.7884 -0.29456,0.7996 -0.73641,1.2414 -0.44185,0.4419 -1.03098,0.7154 -0.58913,0.2946 -1.0941,0.3787 -0.48393,0.084 -0.967861,0.084 -1.136182,0 -1.956759,-0.3367 -0.82057,-0.3366 -1.24138,-0.8837 -0.42081,-0.526 -0.61017,-1.0941 -0.18937,-0.547 -0.18937,-1.1151 0,-1.0099 0.61017,-1.7253 0.61018,-0.6943 1.64116,-0.6943 0.925773,0 1.472823,0.6101 0.547051,0.6312 0.547051,1.536 0,0.8416 -0.420808,1.3255 -0.399768,0.4839 -0.988899,0.6523 -0.673297,0.2104 -0.673297,0.3577 0,0.2314 0.441853,0.4208 0.441848,0.1893 1.241383,0.1893 0.568094,0 1.052024,-0.1262 0.50497,-0.1052 1.07306,-0.4419 0.56809,-0.3366 0.88369,-1.0941 0.33665,-0.7364 0.33665,-1.8305 0,-1.052 -0.56809,-4.22906 -0.021,-0.16832 -0.0842,-0.2104 -0.0631,-0.021 -0.23145,0.021 -0.63121,0.12624 -1.45178,0.12624 -1.8726,0 -3.36647,-0.61017 Q -3.31825,7.56718 -4.24402,6.55724 -5.14876,5.56834 -5.63269,4.30592 -6.11662,3.04349 -6.11662,1.63379 q 0,-3.0719 2.35652,-6.01756 1.30451,-1.59907 3.892479,-3.74519 0.168323,-0.14728 0.189363,-0.23144 0.04208,-0.0842 0,-0.27353 -0.294565,-1.72527 -0.294565,-3.45067 0,-4.2501 2.061963,-6.5435 0.92577,-1.01 1.36762,-1.01 0.16832,0 0.50497,0.3367 0.33665,0.3366 0.58913,0.7154 1.36763,1.9988 1.36763,4.9024 0,1.7674 -0.75746,3.5768 -0.73641,1.78848 -2.06196,3.24026 -0.56809,0.63122 -1.17826,1.19931 -0.16832,0.16832 -0.12624,0.39976 z"
         style="font-family:Bravura;-inkscape-font-specification:Bravura;fill:#000000;stroke-width:3.76376"
         id="path3959" />
    </g>
    <path
       style="color:#000000;overflow:visible;fill:none;fill-rule:evenodd;stroke:#000000;stroke-width:0.47723;stroke-linecap:round;stroke-linejoin:round;stroke-miterlimit:4;stroke-dasharray:none;stroke-opacity:1"
       d="m 7.06184,8.06053 0.48756,-2 0.79448,3.99997 1,-5.99997 L 10,12 11.1734,1.98277 12.2409,13.954 13,4 l 1,6 0.6606,-2.51335"
       id="path4541"
       transform="matrix(1.0957,0,0,1.00182,-0.611809,452.345)" />
  </g>
</svg>
