<!DOCTYPE svg PUBLIC "-//W3C//DTD SVG 1.1//EN" "http://www.w3.org/Graphics/SVG/1.1/DTD/svg11.dtd">
<!-- Uploaded to: SVG Repo, www.svgrepo.com, Transformed by: SVG Repo Mixer Tools -->
<svg fill="#333333" width="800px" height="800px" viewBox="0 0 24 24" xmlns="http://www.w3.org/2000/svg" transform="rotate(0)" stroke="#333333">
<g id="SVGRepo_bgCarrier" stroke-width="0"/>
<g id="SVGRepo_tracerCarrier" stroke-linecap="round" stroke-linejoin="round" stroke="#CCCCCC" stroke-width="0.8160000000000001">
<path d="M19.192,9.5a1,1,0,0,0-1.415,0l-5.859,5.859a2.314,2.314,0,0,1-3.273-3.272L14.5,6.223a1,1,0,0,0,0-1.415L10.989,1.293a1,1,0,0,0-1.415,0L3.715,7.152A9.286,9.286,0,0,0,16.848,20.285l5.859-5.859a1,1,0,0,0,0-1.415Zm-8.91-6.081,2.1,2.1L10.868,7.031l-2.1-2.1ZM15.434,18.87a7.286,7.286,0,0,1-10.3-10.3L7.352,6.344l2.1,2.1L7.231,10.668a4.314,4.314,0,0,0,6.1,6.1l2.222-2.222,2.1,2.1Zm3.636-3.636-2.1-2.1,1.515-1.515,2.1,2.1Z"/>
</g>
<g id="SVGRepo_iconCarrier">
<path d="M19.192,9.5a1,1,0,0,0-1.415,0l-5.859,5.859a2.314,2.314,0,0,1-3.273-3.272L14.5,6.223a1,1,0,0,0,0-1.415L10.989,1.293a1,1,0,0,0-1.415,0L3.715,7.152A9.286,9.286,0,0,0,16.848,20.285l5.859-5.859a1,1,0,0,0,0-1.415Zm-8.91-6.081,2.1,2.1L10.868,7.031l-2.1-2.1ZM15.434,18.87a7.286,7.286,0,0,1-10.3-10.3L7.352,6.344l2.1,2.1L7.231,10.668a4.314,4.314,0,0,0,6.1,6.1l2.222-2.222,2.1,2.1Zm3.636-3.636-2.1-2.1,1.515-1.515,2.1,2.1Z"/>
</g>
</svg>